<?xml version="1.0" encoding="iso-8859-1"?>
<!-- Generator: Adobe Illustrator 19.0.0, SVG Export Plug-In . SVG Version: 6.00 Build 0)  -->
<svg version="1.1" id="Layer_1" xmlns="http://www.w3.org/2000/svg" xmlns:xlink="http://www.w3.org/1999/xlink" x="0px" y="0px"
	 viewBox="0 0 512 512" style="enable-background:new 0 0 512 512;" xml:space="preserve">
<path style="fill:#41479B;" d="M184.263,374.608H28.871c-4.681,0-8.476-3.795-8.476-8.476V60.999c0-4.681,3.795-8.476,8.476-8.476
	h155.392V374.608z"/>
<rect x="184.27" y="52.52" style="fill:#FFE15A;" width="163.87" height="322.08"/>
<path style="fill:#FF4B55;" d="M503.524,374.608H348.132V52.523h155.392c4.681,0,8.476,3.795,8.476,8.476v305.133
	C512,370.813,508.205,374.608,503.524,374.608z"/>
<path style="fill:#DCBE82;" d="M323.829,241.114c0-2.46-1.994-4.455-4.455-4.455c-0.534,0-1.039,0.109-1.514,0.282
	c-2.205-1.961-6.2-6.826-2.191-13.696c0.541,0.422,1.214,0.682,1.954,0.682c1.767,0,3.2-1.432,3.2-3.2
	c0-1.396-0.9-2.571-2.147-3.008c3.294-1.68,7.993-5.248,7.75-11.917c-0.344-9.459-8.093-14.681-12.847-12.593
	c0.017-0.132,0.04-0.263,0.04-0.399c0-1.743-1.412-3.155-3.155-3.155c-1.071,0-2.014,0.537-2.584,1.353
	c-0.194-0.946-0.171-2.702,2.028-4.6c4.083-3.527,8.724-11.972,0.279-17.912c-4.677-3.289-13.617-4.864-16.612-0.371
	c-1.299,1.948-0.257,4.748,1.226,5.377c-2.39,1.333-6.924,3.333-10.506,1.769c-5.105-2.227-2.156-6.65-1.021-8.631
	c1.995-3.48,0.743-9.188-5.939-9.188c-4.455,0-6.682,4.455-11.136,4.455s-6.682-4.455-11.136-4.455c-6.682,0-7.935,5.707-5.94,9.188
	c1.136,1.98,4.083,6.404-1.02,8.631c-3.582,1.564-8.116-0.437-10.506-1.769c1.482-0.628,2.525-3.427,1.226-5.377
	c-2.995-4.492-11.935-2.918-16.612,0.371c-8.445,5.94-3.805,14.385,0.279,17.912c2.198,1.899,2.222,3.655,2.028,4.6
	c-0.57-0.816-1.513-1.353-2.584-1.353c-1.743,0-3.155,1.412-3.155,3.155c0,0.137,0.023,0.268,0.04,0.399
	c-4.754-2.088-12.503,3.134-12.847,12.593c-0.243,6.669,4.456,10.237,7.75,11.917c-1.247,0.438-2.147,1.613-2.147,3.008
	c0,1.767,1.432,3.2,3.2,3.2c0.74,0,1.411-0.261,1.954-0.682c4.009,6.87,0.015,11.735-2.191,13.696
	c-0.475-0.173-0.98-0.282-1.514-0.282c-2.46,0-4.455,1.994-4.455,4.455c0,2.31,1.764,4.186,4.015,4.411
	c-3.07,3.154-5.825,10.105,0.161,18.002c6.542,8.631,22.134,7.935,29.651,8.213c4.767,0.177,8.352,2.645,10.342,4.43
	c-1.272,0.784-2.129,2.178-2.129,3.783c0,2.249,1.674,4.091,3.841,4.393c0.787,1.26,2.175,2.104,3.77,2.104
	c1.782,0,3.308-1.053,4.021-2.566c2.352,1.939,3.96,2.751,3.96,2.751s1.608-0.813,3.96-2.751c0.712,1.512,2.239,2.566,4.021,2.566
	c1.595,0,2.982-0.844,3.77-2.104c2.167-0.302,3.841-2.143,3.841-4.393c0-1.605-0.856-2.999-2.129-3.783
	c1.99-1.785,5.575-4.254,10.342-4.43c7.517-0.279,23.109,0.417,29.651-8.213c5.986-7.896,3.231-14.849,0.161-18.002
	C322.065,245.3,323.829,243.423,323.829,241.114z"/>
<path style="fill:#D2AA73;" d="M226.106,183.899v64.593c0,7.38,5.983,13.364,13.364,13.364h17.819c6.682,0,8.909,4.455,8.909,4.455
	s2.227-4.455,8.909-4.455h17.819c7.38,0,13.364-5.983,13.364-13.364v-64.593c0-1.23-0.997-2.227-2.227-2.227h-75.729
	C227.103,181.671,226.106,182.669,226.106,183.899z"/>
<g>
	<rect x="230.56" y="186.13" style="fill:#FF4B55;" width="33.41" height="33.41"/>
	<path style="fill:#FF4B55;" d="M263.97,257.4L263.97,257.4c-18.452,0-33.41-14.958-33.41-33.41l0,0h33.41V257.4z"/>
</g>
<g>
	<path style="fill:#FFE15A;" d="M268.425,257.4L268.425,257.4v-33.41h33.41l0,0C301.834,242.442,286.876,257.4,268.425,257.4z"/>
	<rect x="268.42" y="186.13" style="fill:#FFE15A;" width="4.773" height="33.41"/>
</g>
<rect x="273.2" y="186.13" style="fill:#FF4B55;" width="4.773" height="33.41"/>
<rect x="277.97" y="186.13" style="fill:#FFE15A;" width="4.773" height="33.41"/>
<rect x="282.75" y="186.13" style="fill:#FF4B55;" width="4.773" height="33.41"/>
<g>
	<rect x="287.51" y="186.13" style="fill:#FFE15A;" width="4.773" height="33.41"/>
	<rect x="297.06" y="186.13" style="fill:#FFE15A;" width="4.773" height="33.41"/>
</g>
<g>
	<rect x="292.29" y="186.13" style="fill:#FF4B55;" width="4.773" height="33.41"/>
	<rect x="241.69" y="223.99" style="fill:#FF4B55;" width="3.712" height="33.41"/>
</g>
<g>
	<rect x="245.41" y="223.99" style="fill:#FFE15A;" width="3.712" height="33.41"/>
	<rect x="252.84" y="223.99" style="fill:#FFE15A;" width="3.712" height="33.41"/>
</g>
<rect x="249.12" y="223.99" style="fill:#FF4B55;" width="3.712" height="33.41"/>
<rect x="260.25" y="223.99" style="fill:#FFE15A;" width="3.712" height="33.41"/>
<rect x="256.55" y="223.99" style="fill:#FF4B55;" width="3.712" height="33.41"/>
<path style="fill:#FFE15A;" d="M234.272,255.701V223.99h-3.712v24.501C230.56,251.466,232.032,254.083,234.272,255.701z"/>
<path style="fill:#FF4B55;" d="M237.985,257.251V223.99h-3.712v31.711C235.354,256.483,236.613,257.02,237.985,257.251z"/>
<path style="fill:#FFE15A;" d="M237.985,223.99v33.261c0.485,0.082,0.976,0.149,1.485,0.149h2.227v-33.41L237.985,223.99
	L237.985,223.99z"/>
<g>
	<path style="fill:#F5F5F5;" d="M235.54,217.639c-0.166,0-0.334-0.047-0.483-0.145c-2.19-1.449-2.318-2.959-2.198-3.729
		c0.16-1.04,0.934-1.904,1.972-2.201c0.987-0.278,1.972,0.014,2.637,0.786c1.383,1.607,2.811,2.24,4.012,1.796
		c0.951-0.353,1.519-1.29,1.519-1.992c0-0.485,0.392-0.877,0.877-0.877s0.877,0.392,0.877,0.877c0,1.534-1.12,3.064-2.664,3.636
		c-1.128,0.416-3.397,0.674-5.953-2.296c-0.274-0.317-0.598-0.307-0.825-0.244c-0.311,0.089-0.656,0.366-0.719,0.78
		c-0.093,0.605,0.429,1.333,1.432,1.998c0.405,0.267,0.515,0.813,0.248,1.216C236.103,217.5,235.825,217.639,235.54,217.639z"/>
	<path style="fill:#F5F5F5;" d="M259.095,217.639c-0.284,0-0.564-0.139-0.732-0.392c-0.267-0.405-0.157-0.949,0.248-1.216
		c1.003-0.665,1.526-1.393,1.432-1.998c-0.065-0.414-0.408-0.691-0.719-0.78c-0.229-0.064-0.552-0.074-0.825,0.244
		c-2.556,2.972-4.826,2.714-5.953,2.296c-1.544-0.572-2.664-2.103-2.664-3.636c0-0.485,0.392-0.877,0.877-0.877
		s0.877,0.392,0.877,0.877c0,0.701,0.568,1.638,1.519,1.992c1.203,0.446,2.631-0.189,4.012-1.796
		c0.665-0.777,1.651-1.066,2.637-0.786c1.037,0.297,1.812,1.16,1.972,2.201c0.119,0.769-0.008,2.279-2.198,3.729
		C259.43,217.591,259.262,217.639,259.095,217.639z"/>
</g>
<g>
	<path style="fill:#FFE15A;" d="M235.057,218.681c-0.185,0-0.372-0.058-0.531-0.178c-0.386-0.295-0.46-0.844-0.167-1.23
		l19.073-25.078c0.182-0.329,0.251-0.785,0.331-1.311c0.147-0.985,0.332-2.211,1.835-3.116c0.98-0.588,2.143-0.571,3.116,0.05
		c1.073,0.686,1.706,1.962,1.575,3.177c-0.078,0.738-0.51,2.085-2.508,2.826c-0.457,0.17-0.96-0.065-1.127-0.517
		c-0.168-0.455,0.064-0.96,0.517-1.127c0.583-0.216,1.295-0.629,1.373-1.368c0.06-0.56-0.259-1.18-0.776-1.512
		c-0.289-0.185-0.743-0.343-1.266-0.024c-0.796,0.478-0.875,1.002-1.005,1.871c-0.092,0.616-0.197,1.313-0.608,2.023l-19.133,25.169
		C235.584,218.56,235.321,218.681,235.057,218.681z"/>
	<polygon style="fill:#FFE15A;" points="247.386,191.097 238.612,201.626 242.121,212.155 252.65,212.155 256.16,201.626 	"/>
</g>
<path style="fill:#F5F5F5;" d="M247.386,189.726l-9.761,11.713l3.864,11.593h11.793l3.864-11.593L247.386,189.726z M239.599,201.813
	l6.91-8.292v17.756h-3.755L239.599,201.813z M252.018,211.277h-3.755v-17.756l6.91,8.292L252.018,211.277z"/>
<path style="fill:#FF4B55;" d="M293.621,234.538l0.132-1.946c0,0,1.726-1.239,0.885-2.389c-0.84-1.151-1.814-1.372-3.849-1.106
	c-2.035,0.266-5.221,0.221-6.592,0.309c-1.371,0.088-2.08,0.84-4.247,0.221l0.575-1.328c0,0-1.018,0.089-1.637,0.398
	c-0.338,0.17-1.151-0.929-1.946-0.752c-0.794,0.176-1.592,1.814-2.832,2.655l0.663,1.328c0,0,0.752-0.354,1.328,0.044
	c0.575,0.398,0.752,0.663,1.726,0.663l0.62,0.266c0,0-0.221,1.415,0.708,2.08c0,0-1.062,1.372-0.929,1.592
	c0.132,0.221,1.018,1.903,1.372,2.875l0.797-1.504c0,0-1.195-1.062-0.974-1.195c0.221-0.132,1.017-0.309,0.885-0.663
	c-0.132-0.354,0.62,0.045,1.46,0.177c0,0,0.044,1.328,0.221,1.504c0.177,0.177,0.443,0.885,0.398,1.637
	c-0.044,0.752-0.708,0.974-0.708,0.974l1.195,0.354c0,0,0.309-0.443,0.531-0.398c0,0-0.089-3.672,0.398-4.248
	c0,0,2.875,0.575,4.203-0.132c0,0,0.17,0.214,0.501,0.417c-0.132,0.308-0.245,0.616-0.195,0.706c0.111,0.2,0.466,0.178,0.555-0.045
	c0.034-0.084,0.086-0.255,0.138-0.433c0.16,0.053,0.336,0.094,0.537,0.114c-0.019,0.28-0.021,0.537,0.043,0.596
	c0.167,0.155,0.498,0.023,0.514-0.216c0.005-0.077,0.002-0.225-0.002-0.382c0.229-0.019,0.473-0.059,0.742-0.139l-1.504,2.478
	l-0.752,0.309l0.974,0.486l0.885-0.354c0,0,0.84-2.124,2.212-2.743c0,0,0.929,2.212-0.221,3.407l1.017,0.575l0.486-1.017
	c0,0-0.177-1.991,0.486-3.274L293.621,234.538z"/>
<g>
	<path style="fill:#4173CD;" d="M276.959,228.216c0,0-0.444-0.422-0.555-0.977c-0.111-0.555-0.245-0.8-0.733-0.955
		c0,0,0.31,0.355,0.267,0.91c-0.044,0.555,0,1.311,0.31,1.554L276.959,228.216z"/>
	<path style="fill:#4173CD;" d="M280.823,229.782c0,0-0.604,2.053-2.379,3.12l-0.62-0.266c0,0,1.894-1.619,2.124-3.009
		L280.823,229.782z"/>
	<path style="fill:#4173CD;" d="M277.803,228.705c-0.064-0.066,0.778-0.31,0.577-0.977c-0.2-0.666-0.2-1.155,0.2-1.465
		c0,0,0.044,0.555,0.355,0.91c0.31,0.355,0.488,1.244-0.022,1.755C278.914,228.926,278.402,229.327,277.803,228.705z"/>
	<path style="fill:#4173CD;" d="M277.899,234.759L277.899,234.759c-0.106-0.052-0.15-0.181-0.097-0.287l0.268-0.546
		c0.157-0.32,0.053-0.717-0.255-0.895c-0.339-0.195-0.765-0.06-0.934,0.284l-0.279,0.567c-0.052,0.106-0.181,0.15-0.287,0.097
		l-0.167,0.34c0,0,0.246,0.121,0.544,0.267l-0.006,0.013c-0.068,0.138-0.011,0.304,0.127,0.372s0.304,0.011,0.372-0.127l0.006-0.013
		c0.298,0.146,0.544,0.267,0.544,0.267L277.899,234.759z"/>
	<polygon style="fill:#4173CD;" points="280.047,238.499 280.712,238.632 280.157,240.342 279.595,239.45 	"/>
	<polygon style="fill:#4173CD;" points="281.675,240.379 281.267,241.098 282.867,241.098 282.87,240.733 	"/>
	<polygon style="fill:#4173CD;" points="289.55,239.849 289.55,240.276 287.737,240.276 288.614,239.398 	"/>
	<polygon style="fill:#4173CD;" points="292.427,240.158 291.531,241.054 293.416,241.054 293.444,240.733 	"/>
</g>
<path style="fill:#FF4B55;" d="M293.621,248.402l0.132-1.946c0,0,1.726-1.239,0.885-2.389c-0.84-1.151-1.814-1.372-3.849-1.106
	s-5.221,0.221-6.592,0.309c-1.372,0.089-2.08,0.84-4.247,0.221l0.575-1.328c0,0-1.018,0.089-1.637,0.398
	c-0.338,0.17-1.151-0.929-1.946-0.752c-0.794,0.176-1.592,1.814-2.832,2.655l0.663,1.328c0,0,0.752-0.354,1.328,0.045
	c0.575,0.398,0.752,0.663,1.726,0.663l0.62,0.266c0,0-0.221,1.415,0.708,2.08c0,0-1.062,1.372-0.929,1.592
	c0.132,0.221,1.018,1.903,1.372,2.875l0.797-1.504c0,0-1.195-1.062-0.974-1.195c0.221-0.132,1.017-0.309,0.885-0.663
	c-0.132-0.354,0.62,0.045,1.46,0.177c0,0,0.044,1.328,0.221,1.504c0.177,0.177,0.443,0.885,0.398,1.637
	c-0.044,0.752-0.708,0.974-0.708,0.974l1.195,0.354c0,0,0.309-0.443,0.531-0.398c0,0-0.089-3.672,0.398-4.247
	c0,0,2.875,0.575,4.203-0.132c0,0,0.17,0.214,0.501,0.417c-0.132,0.308-0.245,0.616-0.195,0.706c0.111,0.2,0.466,0.178,0.555-0.044
	c0.034-0.084,0.086-0.255,0.138-0.433c0.16,0.053,0.336,0.094,0.537,0.114c-0.019,0.28-0.021,0.537,0.043,0.596
	c0.167,0.155,0.498,0.023,0.514-0.216c0.005-0.077,0.002-0.225-0.002-0.382c0.229-0.019,0.473-0.059,0.742-0.139l-1.504,2.478
	l-0.752,0.309l0.974,0.486l0.885-0.354c0,0,0.84-2.124,2.212-2.743c0,0,0.929,2.212-0.221,3.407l1.017,0.575l0.486-1.017
	c0,0-0.177-1.991,0.486-3.274L293.621,248.402z"/>
<g>
	<path style="fill:#4173CD;" d="M276.959,242.08c0,0-0.444-0.422-0.555-0.977c-0.111-0.555-0.245-0.8-0.733-0.955
		c0,0,0.31,0.355,0.267,0.91c-0.044,0.555,0,1.311,0.31,1.554L276.959,242.08z"/>
	<path style="fill:#4173CD;" d="M280.823,243.646c0,0-0.604,2.053-2.379,3.12l-0.62-0.266c0,0,1.894-1.619,2.124-3.009
		L280.823,243.646z"/>
	<path style="fill:#4173CD;" d="M277.803,242.568c-0.064-0.066,0.778-0.31,0.577-0.977c-0.2-0.666-0.2-1.155,0.2-1.466
		c0,0,0.044,0.555,0.355,0.91c0.31,0.355,0.488,1.244-0.022,1.755C278.914,242.79,278.402,243.19,277.803,242.568z"/>
	<path style="fill:#4173CD;" d="M277.899,248.622L277.899,248.622c-0.106-0.052-0.15-0.181-0.097-0.287l0.268-0.546
		c0.157-0.32,0.053-0.717-0.255-0.895c-0.339-0.195-0.765-0.06-0.934,0.284l-0.279,0.567c-0.052,0.106-0.181,0.15-0.287,0.097
		l-0.167,0.34c0,0,0.246,0.121,0.544,0.267l-0.006,0.013c-0.068,0.138-0.011,0.304,0.127,0.372s0.304,0.011,0.372-0.127l0.006-0.013
		c0.298,0.146,0.544,0.267,0.544,0.267L277.899,248.622z"/>
	<polygon style="fill:#4173CD;" points="280.047,252.362 280.712,252.496 280.157,254.206 279.595,253.314 	"/>
	<polygon style="fill:#4173CD;" points="281.675,254.243 281.267,254.961 282.867,254.961 282.87,254.597 	"/>
	<polygon style="fill:#4173CD;" points="289.55,253.712 289.55,254.139 287.737,254.139 288.614,253.262 	"/>
	<polygon style="fill:#4173CD;" points="292.427,254.021 291.531,254.918 293.416,254.918 293.444,254.597 	"/>
</g>
<path style="fill:#2E3033;" d="M19.203,489.087L19.203,489.087C8.598,489.087,0,480.49,0,469.884V41.958
	c0-10.519,8.527-19.045,19.045-19.045h0.158c10.606,0,19.203,8.598,19.203,19.203v427.768
	C38.407,480.49,29.809,489.087,19.203,489.087z"/>
<g>
</g>
<g>
</g>
<g>
</g>
<g>
</g>
<g>
</g>
<g>
</g>
<g>
</g>
<g>
</g>
<g>
</g>
<g>
</g>
<g>
</g>
<g>
</g>
<g>
</g>
<g>
</g>
<g>
</g>
</svg>
