<?xml version="1.0" encoding="iso-8859-1"?>
<!-- Generator: Adobe Illustrator 19.0.0, SVG Export Plug-In . SVG Version: 6.00 Build 0)  -->
<svg version="1.1" id="Layer_1" xmlns="http://www.w3.org/2000/svg" xmlns:xlink="http://www.w3.org/1999/xlink" x="0px" y="0px"
	 viewBox="0 0 512 512" style="enable-background:new 0 0 512 512;" xml:space="preserve">
<path style="fill:#464655;" d="M184.263,374.657H28.871c-4.681,0-8.476-3.795-8.476-8.476V61.048c0-4.681,3.795-8.476,8.476-8.476
	h155.392V374.657z"/>
<rect x="184.27" y="52.57" style="fill:#FF4B55;" width="163.87" height="322.08"/>
<path style="fill:#73AF00;" d="M503.524,374.657H348.132V52.572h155.392c4.681,0,8.476,3.795,8.476,8.476v305.133
	C512,370.862,508.205,374.657,503.524,374.657z"/>
<g>
	<polygon style="fill:#F5F5F5;" points="288.317,230.232 244.077,230.232 246.535,225.317 285.859,225.317 	"/>
	<polygon style="fill:#F5F5F5;" points="288.317,190.908 244.077,190.908 246.535,195.823 285.859,195.823 	"/>
	<polygon style="fill:#F5F5F5;" points="278.486,193.366 253.908,193.366 258.824,188.45 273.571,188.45 	"/>
	<rect x="246.53" y="217.95" style="fill:#F5F5F5;" width="7.373" height="4.916"/>
	<rect x="246.53" y="210.57" style="fill:#F5F5F5;" width="7.373" height="4.916"/>
	<rect x="246.53" y="198.28" style="fill:#F5F5F5;" width="7.373" height="4.916"/>
	<rect x="246.53" y="205.66" style="fill:#F5F5F5;" width="7.373" height="2.458"/>
	<rect x="278.49" y="217.95" style="fill:#F5F5F5;" width="7.373" height="4.916"/>
	<rect x="278.49" y="210.57" style="fill:#F5F5F5;" width="7.373" height="4.916"/>
	<rect x="278.49" y="198.28" style="fill:#F5F5F5;" width="7.373" height="4.916"/>
	<rect x="278.49" y="205.66" style="fill:#F5F5F5;" width="7.373" height="2.458"/>
	<rect x="248.99" y="178.62" style="fill:#F5F5F5;" width="4.916" height="9.831"/>
	<path style="fill:#F5F5F5;" d="M253.908,176.16h-4.916v-2.458c0-1.357,1.101-2.458,2.458-2.458l0,0
		c1.357,0,2.458,1.101,2.458,2.458L253.908,176.16L253.908,176.16z"/>
	<rect x="278.49" y="178.62" style="fill:#F5F5F5;" width="4.916" height="9.831"/>
	<path style="fill:#F5F5F5;" d="M283.402,176.16h-4.916v-2.458c0-1.357,1.101-2.458,2.458-2.458l0,0
		c1.357,0,2.458,1.101,2.458,2.458L283.402,176.16L283.402,176.16z"/>
	<path style="fill:#F5F5F5;" d="M266.197,198.281L266.197,198.281c-5.43,0-9.831,4.401-9.831,9.831v14.747h19.662v-14.747
		C276.028,202.683,271.627,198.281,266.197,198.281z"/>
	<path style="fill:#F5F5F5;" d="M249.925,213.764l-13.381-15.612c0.087-0.252,0.16-0.512,0.16-0.794
		c0-1.357-1.101-2.458-2.458-2.458s-2.458,1.101-2.458,2.458s1.101,2.458,2.458,2.458c0.148,0,0.277-0.059,0.416-0.084l1.385,1.616
		l-6.717,15.673l7.373,7.373l6.366-14.854l4.99,5.822L249.925,213.764z M237.969,218.899l-5.883-5.883l2.654-6.194l5.883,5.883
		L237.969,218.899z"/>
	<path style="fill:#F5F5F5;" d="M284.396,215.363l4.99-5.822l6.366,14.854l7.373-7.373l-6.717-15.673l1.385-1.616
		c0.141,0.024,0.269,0.084,0.416,0.084c1.357,0,2.458-1.101,2.458-2.458s-1.101-2.458-2.458-2.458s-2.458,1.101-2.458,2.458
		c0,0.282,0.073,0.541,0.16,0.794l-13.381,15.612L284.396,215.363z M291.833,212.706l5.883-5.883l2.654,6.194l-5.883,5.883
		L291.833,212.706z"/>
	<path style="fill:#F5F5F5;" d="M268.979,174.132c-0.772-0.228-1.461-0.649-1.898-1.325c-0.291-0.452-0.588-0.966-0.885-1.561
		c-0.297,0.594-0.593,1.108-0.885,1.561c-0.437,0.677-1.125,1.099-1.898,1.325c-4.072,1.199-7.05,4.943-7.05,9.403
		c0,0.854,0.143,1.668,0.348,2.458h18.967c0.204-0.79,0.348-1.604,0.348-2.458C276.028,179.074,273.051,175.33,268.979,174.132z"/>
	<path style="fill:#F5F5F5;" d="M209.873,210.28c-0.125-1.528-0.206-3.067-0.206-4.627c0-3.157,0.286-6.263,0.794-9.309
		c0.709,0.491,1.45,1.03,2.222,1.636c-0.36,2.521-0.558,5.08-0.558,7.673c0,1.817,0.093,3.613,0.269,5.384l5.196,1.561
		c-0.324-2.276-0.549-4.582-0.549-6.945c0-1.175,0.07-2.336,0.163-3.493c2.713,3.009,4.855,6.644,4.855,10.662
		c0,0.103,7.886-11.675-6.451-24.68l-0.103,5.529l-8.258-0.087c-0.744-0.007-1.399,0.52-1.529,1.253
		c-0.628,3.532-0.966,7.144-0.966,10.815c0,1.044,0.028,2.081,0.078,3.112L209.873,210.28z"/>
	<path style="fill:#F5F5F5;" d="M231.682,160.901c1.074-0.829,1.272-2.371,0.443-3.447c-0.832-1.075-2.373-1.269-3.448-0.442
		c-11.124,8.59-18.757,20.393-22.063,33.613l5.065,0.066C214.868,178.99,221.766,168.559,231.682,160.901z"/>
	<path style="fill:#F5F5F5;" d="M228.389,167.031c-5.345,5.235-9.391,11.396-12.144,18.089c1.52,1.249,2.765,2.511,3.799,3.765
		c2.477-6.824,6.423-13.089,11.785-18.34c0.969-0.95,0.986-2.506,0.036-3.475C230.913,166.097,229.359,166.081,228.389,167.031z"/>
	<path style="fill:#F5F5F5;" d="M219.848,237.878c-3.645-5.23-6.43-11.095-8.159-17.395l2.857,1.05
		c1.785,5.749,4.493,11.095,7.962,15.858l5.425-0.993c-3.063-3.807-5.58-8.069-7.42-12.673l3.207,1.178
		c1.83,4.019,4.173,7.713,6.966,10.991l5.645-1.034c-2.22-2.266-4.162-4.817-5.834-7.569l-3.271-6.54
		c-1.01-2.02-2.809-3.533-4.972-4.182l-7.737-2.326l-1.788-0.537l-2.576-0.774l-5.123-1.539l-2.735-0.822l1.692,5.077
		c0.372,1.115,1.123,2.045,2.101,2.656c1.564,7.427,4.465,14.366,8.449,20.548L219.848,237.878z"/>
	<path style="fill:#F5F5F5;" d="M316.888,193.673l-0.103-5.529c-14.337,13.005-6.451,24.783-6.451,24.68
		c0-4.018,2.141-7.653,4.855-10.662c0.093,1.157,0.163,2.319,0.163,3.493c0,2.364-0.225,4.67-0.549,6.945l5.196-1.561
		c0.176-1.771,0.269-3.567,0.269-5.384c0-2.594-0.198-5.153-0.558-7.673c0.771-0.605,1.514-1.145,2.222-1.636
		c0.508,3.046,0.794,6.152,0.794,9.309c0,1.56-0.081,3.099-0.206,4.627l5.042-1.515c0.052-1.031,0.078-2.068,0.078-3.112
		c0-3.671-0.339-7.283-0.966-10.815c-0.13-0.733-0.785-1.261-1.529-1.253L316.888,193.673z"/>
	<path style="fill:#F5F5F5;" d="M320.715,190.691l5.065-0.066c-3.307-13.22-10.939-25.023-22.063-33.613
		c-1.074-0.829-2.616-0.634-3.448,0.442c-0.83,1.075-0.631,2.619,0.443,3.447C310.628,168.559,317.526,178.99,320.715,190.691z"/>
	<path style="fill:#F5F5F5;" d="M316.15,185.12c-2.754-6.693-6.799-12.854-12.144-18.089c-0.969-0.95-2.524-0.933-3.475,0.038
		c-0.95,0.969-0.933,2.525,0.036,3.475c5.362,5.251,9.308,11.516,11.785,18.34C313.385,187.631,314.63,186.368,316.15,185.12z"/>
	<path style="fill:#F5F5F5;" d="M327.365,211.392l-5.123,1.539l-2.576,0.774l-1.788,0.537l-7.737,2.326
		c-2.163,0.649-3.962,2.162-4.972,4.182l-3.271,6.54c-1.672,2.751-3.614,5.303-5.834,7.569l5.645,1.034
		c2.793-3.278,5.136-6.971,6.966-10.991l3.207-1.178c-1.839,4.604-4.358,8.866-7.42,12.673l5.425,0.993
		c3.47-4.765,6.177-10.11,7.962-15.858l2.857-1.05c-1.729,6.3-4.514,12.165-8.159,17.395l5.309,0.972
		c3.985-6.182,6.885-13.121,8.449-20.548c0.978-0.611,1.729-1.542,2.101-2.656l1.692-5.077L327.365,211.392z"/>
	<path style="fill:#F5F5F5;" d="M291.812,238.566l-0.127,0.112c-7.15,5.519-16.031,8.759-25.487,8.759
		c-9.457,0-18.337-3.24-25.487-8.759l-0.127-0.112c-0.928-1.02-2.323-1.478-3.675-1.205l-24.781,5.161l5.499,4.82
		c1.471,1.289,3.361,1.89,5.239,1.78c4.426,4.407,9.508,8.153,15.097,11.063l-1.61,2.972c8.879,4.828,19.048,7.573,29.846,7.573
		c10.798,0,20.966-2.745,29.846-7.573l-1.61-2.972c5.589-2.91,10.671-6.657,15.097-11.063c1.88,0.11,3.77-0.492,5.24-1.78
		l5.499-4.82l-24.782-5.161C294.136,237.088,292.739,237.544,291.812,238.566z M240.312,255.846
		c-4.455-2.318-8.534-5.246-12.204-8.613l2.386-1.138c3.333,2.95,6.999,5.533,10.983,7.6L240.312,255.846z M304.287,247.233
		c-3.67,3.366-7.749,6.293-12.204,8.613l-1.164-2.15c3.984-2.067,7.648-4.65,10.983-7.6L304.287,247.233z M266.197,254.81
		c-11.706,0-22.433-4.153-30.878-11.016l2.453-1.17c7.974,6.142,17.883,9.727,28.424,9.727c10.541,0,20.45-3.585,28.424-9.727
		l2.453,1.17C288.631,250.656,277.903,254.81,266.197,254.81z"/>
	<path style="fill:#F5F5F5;" d="M239.228,235.081c1.055,0.893,2.15,1.738,3.291,2.524h47.357c1.141-0.786,2.236-1.631,3.291-2.524
		l-2.391-2.391H241.62L239.228,235.081z"/>
</g>
<path style="fill:#2E3033;" d="M19.203,489.087L19.203,489.087C8.598,489.087,0,480.49,0,469.884V41.958
	c0-10.519,8.527-19.045,19.045-19.045h0.158c10.606,0,19.203,8.598,19.203,19.203v427.768
	C38.407,480.49,29.809,489.087,19.203,489.087z"/>
<g>
</g>
<g>
</g>
<g>
</g>
<g>
</g>
<g>
</g>
<g>
</g>
<g>
</g>
<g>
</g>
<g>
</g>
<g>
</g>
<g>
</g>
<g>
</g>
<g>
</g>
<g>
</g>
<g>
</g>
</svg>
