<?xml version="1.0" encoding="iso-8859-1"?>
<!-- Generator: Adobe Illustrator 19.0.0, SVG Export Plug-In . SVG Version: 6.00 Build 0)  -->
<svg version="1.1" id="Layer_1" xmlns="http://www.w3.org/2000/svg" xmlns:xlink="http://www.w3.org/1999/xlink" x="0px" y="0px"
	 viewBox="0 0 512 512" style="enable-background:new 0 0 512 512;" xml:space="preserve">
<path style="fill:#464655;" d="M503.525,52.594H28.924c-4.68,0-8.475,3.795-8.475,8.475V366.17c0,4.68,3.795,8.475,8.475,8.475
	h474.601c4.68,0,8.475-3.795,8.475-8.475V61.069C512,56.388,508.205,52.594,503.525,52.594z"/>
<polygon style="fill:#FFE15A;" points="266.224,69.544 276.971,125.69 308.386,77.93 296.829,133.915 344.129,101.814 
	312.028,149.114 368.013,137.557 320.253,168.972 376.399,179.72 320.253,190.467 368.013,221.882 312.028,210.325 344.129,257.625 
	296.829,225.523 308.386,281.508 276.971,233.749 266.224,289.895 255.477,233.749 224.061,281.508 235.619,225.523 
	188.318,257.625 220.42,210.325 164.435,221.882 212.194,190.467 156.048,179.72 212.194,168.972 164.435,137.557 220.42,149.114 
	188.318,101.814 235.619,133.915 224.061,77.93 255.477,125.69 "/>
<g>
	<path style="fill:#FF4B55;" d="M20.448,61.069V366.17c0,4.68,3.795,8.475,8.475,8.475h237.3L22.655,55.485
		C21.322,56.982,20.448,58.907,20.448,61.069z"/>
	<path style="fill:#FF4B55;" d="M266.224,374.645h237.3c4.68,0,8.475-3.795,8.475-8.475V61.069c0-2.162-0.874-4.086-2.207-5.584
		L266.224,374.645z"/>
</g>
<polygon style="fill:#4173CD;" points="169.207,247.52 363.241,247.52 414.982,179.72 117.465,179.72 "/>
<polygon style="fill:#F5F5F5;" points="169.207,247.52 266.224,374.645 363.241,247.52 "/>
<path style="fill:#2E3033;" d="M19.201,489.063L19.201,489.063C8.597,489.063,0,480.466,0,469.862V41.982
	c0-10.517,8.526-19.044,19.043-19.044h0.158c10.604,0,19.201,8.597,19.201,19.201v427.723
	C38.402,480.466,29.806,489.063,19.201,489.063z"/>
<g>
</g>
<g>
</g>
<g>
</g>
<g>
</g>
<g>
</g>
<g>
</g>
<g>
</g>
<g>
</g>
<g>
</g>
<g>
</g>
<g>
</g>
<g>
</g>
<g>
</g>
<g>
</g>
<g>
</g>
</svg>
