<?xml version="1.0" encoding="iso-8859-1"?>
<!-- Generator: Adobe Illustrator 19.0.0, SVG Export Plug-In . SVG Version: 6.00 Build 0)  -->
<svg version="1.1" id="Layer_1" xmlns="http://www.w3.org/2000/svg" xmlns:xlink="http://www.w3.org/1999/xlink" x="0px" y="0px"
	 viewBox="0 0 512 512" style="enable-background:new 0 0 512 512;" xml:space="preserve">
<path style="fill:#41479B;" d="M503.524,374.657H28.871c-4.681,0-8.476-3.795-8.476-8.476V61.048c0-4.681,3.795-8.476,8.476-8.476
	h474.653c4.681,0,8.476,3.795,8.476,8.476v305.133C512,370.862,508.205,374.657,503.524,374.657z"/>
<path style="fill:#F5F5F5;" d="M257.721,52.572h-14.723l-78.513,51.439V52.572h-42.38v51.439L43.594,52.572H28.871
	c-4.681,0-8.476,3.795-8.476,8.476v6.724l67.36,44.132h-67.36v42.38h67.36l-67.36,44.132v6.724c0,4.681,3.795,8.476,8.476,8.476
	h14.723l78.513-51.439v51.439h42.38v-51.439L243,213.616h14.723c4.681,0,8.476-3.795,8.476-8.476v-6.724l-67.36-44.132h67.36v-42.38
	h-67.36l67.36-44.132v-6.724C266.197,56.366,262.403,52.572,257.721,52.572z"/>
<g>
	<polygon style="fill:#FF4B55;" points="266.197,120.379 156.01,120.379 156.01,52.572 130.582,52.572 130.582,120.379 
		20.395,120.379 20.395,145.807 130.582,145.807 130.582,213.615 156.01,213.615 156.01,145.807 266.197,145.807 	"/>
	<path style="fill:#FF4B55;" d="M113.63,111.903L24.435,54.004c-2.374,1.501-4.04,4.026-4.04,7.043v0.44l77.667,50.416H113.63z"/>
	<path style="fill:#FF4B55;" d="M180.054,111.903l84.854-55.081c-1.475-2.495-4.077-4.251-7.187-4.251h-1.833l-91.402,59.331
		L180.054,111.903L180.054,111.903z"/>
	<path style="fill:#FF4B55;" d="M106.305,154.283l-84.691,54.975c1.459,2.557,4.102,4.357,7.258,4.357h1.599l91.403-59.331
		L106.305,154.283L106.305,154.283z"/>
	<path style="fill:#FF4B55;" d="M266.063,205.804l-79.373-51.521h-15.568l90.134,58.507
		C263.956,211.537,265.808,208.911,266.063,205.804z"/>
</g>
<path style="fill:#F5F5F5;" d="M335.914,152.801c-1.137,15.15-5.838,111.423,55.244,133.186
	c61.104-21.769,56.383-118.039,55.244-133.186c-7.401,2.901-34.191,11.694-55.244-3.291
	C370.106,164.491,343.32,155.705,335.914,152.801z"/>
<g>
	<path style="fill:#FFA028;" d="M421.171,172.223c-3.349-2.604-9.549,2.232-16.495,1.737c-6.442-0.46-14.38-6.983-24.699-4.171
		c-2.851-2.625-1.471-8.727-1.471-8.727c-7.164,4.631-7.677,10.97-7.227,14.408c-5.108,6.75-4.763,17.05-3.811,20.194
		c1.24,4.093,3.597,4.589,3.969,9.177c0.372,4.589,2.108,2.976,2.108,2.976c3.587-2.012,4.109-5.807,5.617-12.018
		c5.828,0.744,9.637-4.476,9.637-4.476c-3.824,1.199-6.235-0.908-7.55-2.764c0.206-0.613,0.37-1.179,0.605-1.824
		c4.341-11.907,25.112-8.633,27.037-5.333c3.473,5.953,8.062,8.186,8.062,8.186c0-6.206-4.589-11.658-4.589-11.658
		C419.31,176.688,421.171,172.223,421.171,172.223z M371.19,197.772c-0.685,0-1.241-0.555-1.241-1.24s0.555-1.24,1.241-1.24
		c0.684,0,1.24,0.555,1.24,1.24S371.875,197.772,371.19,197.772z"/>
	<path style="fill:#FFA028;" d="M400.718,248.41c4.044-1.28,3.58-9.131,7.929-14.568c4.034-5.043,13.909-7.879,17.448-17.972
		c3.779-0.858,8.02,3.74,8.02,3.74c0.251-8.527-4.678-12.545-7.765-14.126c-2.66-8.036-11.338-13.596-14.467-14.596
		c-4.074-1.301-5.819,0.358-9.809-1.939s-3.648,0.048-3.648,0.048c-0.378,4.096,2.451,6.678,6.71,11.445
		c-3.919,4.377-1.781,10.476-1.781,10.476c1.181-3.83,4.286-4.619,6.56-4.649c0.389,0.517,0.762,0.974,1.159,1.533
		c7.342,10.329-7.138,25.577-10.948,25.29c-6.873-0.518-11.314,1.995-11.314,1.995c5.111,3.521,12.203,2.835,12.203,2.835
		C398.097,244.345,400.718,248.41,400.718,248.41z M408.036,192.757c0.389-0.564,1.161-0.707,1.725-0.318s0.707,1.161,0.318,1.725
		c-0.389,0.564-1.161,0.707-1.725,0.318S407.648,193.321,408.036,192.757z"/>
	<path style="fill:#FFA028;" d="M346.039,193.283c-0.541,4.207,6.776,7.089,9.879,13.323c2.878,5.781,1.295,15.934,8.961,23.39
		c-0.812,3.79-6.768,5.702-6.768,5.702c7.629,3.816,13.35,1.036,16.082-1.1c8.41,0.968,17.105-4.563,19.328-6.982
		c2.895-3.148,2.124-5.43,5.887-8.083c3.763-2.653,1.492-3.329,1.492-3.329c-3.557-2.067-7.089-0.587-13.205,1.27
		c-2.321-5.397-8.754-6.024-8.754-6.024c2.977,2.684,2.387,5.831,1.457,7.907c-0.633,0.135-1.204,0.281-1.879,0.407
		c-12.46,2.313-20.198-17.239-18.334-20.573c3.362-6.017,2.952-11.103,2.952-11.103c-5.345,3.154-7.708,9.878-7.708,9.878
		C350.83,192.615,346.039,193.283,346.039,193.283z M393.445,223.342c0.349,0.59,0.153,1.351-0.438,1.698
		c-0.59,0.349-1.35,0.153-1.698-0.438c-0.349-0.59-0.153-1.35,0.438-1.698C392.337,222.556,393.098,222.752,393.445,223.342z"/>
</g>
<path style="fill:#CDCE0C;" d="M391.158,289.14l-0.488-0.168c-68.78-23.925-57.666-137.34-57.546-138.485l0.215-2.049l1.88,0.852
	c0.324,0.148,32.235,14.301,55.047-2.814l0.892-0.669l0.892,0.669c22.846,17.138,54.728,2.959,55.046,2.814l1.881-0.855l0.215,2.052
	c0.121,1.145,11.235,114.56-57.546,138.485L391.158,289.14z M335.914,152.801c-1.137,15.15-5.838,111.423,55.244,133.186
	c61.104-21.769,56.383-118.039,55.244-133.186c-7.401,2.901-34.191,11.694-55.244-3.291
	C370.106,164.491,343.32,155.705,335.914,152.801z"/>
<path style="fill:#82AFFF;" d="M352.849,251.846c8.342,15.13,20.522,27.803,38.309,34.14c17.791-6.338,29.974-19.012,38.318-34.14
	H352.849L352.849,251.846z"/>
<path style="fill:#2E3033;" d="M19.203,489.087L19.203,489.087C8.598,489.087,0,480.49,0,469.884V41.958
	c0-10.519,8.527-19.045,19.045-19.045h0.158c10.606,0,19.203,8.598,19.203,19.203v427.768
	C38.407,480.49,29.809,489.087,19.203,489.087z"/>
<g>
</g>
<g>
</g>
<g>
</g>
<g>
</g>
<g>
</g>
<g>
</g>
<g>
</g>
<g>
</g>
<g>
</g>
<g>
</g>
<g>
</g>
<g>
</g>
<g>
</g>
<g>
</g>
<g>
</g>
</svg>
