<?xml version="1.0" encoding="iso-8859-1"?>
<!-- Generator: Adobe Illustrator 19.0.0, SVG Export Plug-In . SVG Version: 6.00 Build 0)  -->
<svg version="1.1" id="Layer_1" xmlns="http://www.w3.org/2000/svg" xmlns:xlink="http://www.w3.org/1999/xlink" x="0px" y="0px"
	 viewBox="0 0 512.001 512.001" style="enable-background:new 0 0 512.001 512.001;" xml:space="preserve">
<path style="fill:#FF4B55;" d="M503.524,374.658H28.87c-4.681,0-8.476-3.795-8.476-8.476V61.047c0-4.681,3.795-8.476,8.476-8.476
	h474.655c4.681,0,8.476,3.795,8.476,8.476v305.135C512,370.864,508.205,374.658,503.524,374.658z"/>
<path style="fill:#464655;" d="M358.903,253.743c-4.635-2.914-7.416,1.722-7.416,1.722l-13.509,1.589l6.754-5.695
	c4.9,0.397,5.562-1.059,6.887-3.046s6.887-1.059,6.887-1.059c-0.795-6.092-8.476-2.649-8.476-2.649
	c-6.225-0.662-7.284,4.37-7.284,4.37l-9.668,7.416l-21.277-6.304c2.207-2.432,3.939-4.827,4.192-6.278
	c0.424-2.436-15.715-6.534-20.66-11.654c-4.944-5.122-6.71-13.244-4.414-15.363c2.295-2.119,4.238,3.884,6.71,8.829
	c2.473,4.945,7.064,8.829,10.065,6.357s-3.178-6.18-6.004-11.478c-2.825-5.297,2.119-7.241,4.415-6.711
	c2.296,0.53,3.708,11.479,9.183,17.129c5.473,5.65,10.418,4.591,10.948,1.059c0.53-3.531-9.034-7.883-10.977-10.885
	c-1.942-3.002-2.443-8.892,0.735-9.068c3.178-0.177,14.833,17.192,24.722,23.839c10.771,7.24,19.424-1.236,18.011-4.768
	c-1.412-3.532-7.946-2.119-15.54-4.062c-7.593-1.942-15.363-12.184-17.659-17.834s-0.397-5.65,0.927-5.121
	c1.324,0.53,6.357,7.946,16.025,13.641s16.422,0.265,17.217-1.059s3.849-7.269-6.092-5.872c-11.301,1.589-17.747-5.121-22.382-8.696
	c-4.635-3.576-6.489-8.476-4.37-10.463s9.095,6.975,19.69,9.8c9.733,2.595,13.685-1.589,13.42-5.43
	c-0.265-3.841-2.516-2.251-13.509-3.311c-10.992-1.059-18.674-11.39-19.071-12.052s-0.265-4.37,5.297-0.795
	s15.495,5.695,21.322,5.43c5.827-0.265,7.019-8.079,4.238-9.403s-3.443,0.662-9.8,1.987s-18.276-5.165-21.19-8.211
	s0.265-5.033,1.722-4.768c1.457,0.265,10.992,5.827,19.468,5.562c8.476-0.265,12.052-8.079,11.787-10.463s-2.649-4.37-6.225-1.987
	c-3.576,2.384-8.344,5.165-16.29,3.841c-7.946-1.324-11.654-6.622-10.595-8.608c1.06-1.987,8.741,1.457,20.925,0.132
	c12.184-1.324,12.714-12.052,11.522-14.171s-4.106-1.457-8.211,2.384s-12.052,4.635-18.276,4.635c-6.225,0-6.357-3.046-5.43-5.165
	s7.549-1.589,16.819-4.503c9.271-2.914,14.568-10.33,16.025-14.965c1.457-4.635-2.119-8.211-3.576-8.211s-0.53-2.119-6.887,7.019
	s-23.044,12.714-23.044,12.714c-1.192-2.251-3.046-3.046-3.046-3.046c-11.257,2.251-24.836,11.971-24.836,11.971
	s2.393,7.677-0.598,13.661c-3.851,7.703-17.052,2.891-13.462-9.274c2.989-10.13,14.559-16.254,24.331-17.351
	c9.773-1.097,10.271-4.787,10.271-4.787s-10.262,3.342-10.446-1.245c2.119,0.43,5.242,0.618,10.545,0.148
	c7.878-0.697,12.266-6.283,8.776-7.479c-3.49-1.196-1.994,2.393-7.978,5.186c-4.268,1.992-8.747,1.094-10.989,0.414
	c2.071-4.522,10.79-2.209,10.79-2.209c0.1-7.878-10.353-5.06-10.353-5.06c-4.591-9.889-31.432,1.589-31.432,1.589l6.357,5.121
	c-15.54,8.653-18.718,25.075-18.718,25.075s-3.178-16.422-18.718-25.075l6.357-5.121c0,0-26.841-11.479-31.432-1.589
	c0,0-10.454-2.817-10.353,5.06c0,0,8.719-2.313,10.79,2.209c-2.242,0.681-6.721,1.578-10.989-0.414
	c-5.983-2.793-4.487-6.381-7.978-5.186c-3.49,1.196,0.897,6.781,8.776,7.479c5.303,0.469,8.426,0.283,10.545-0.148
	c-0.183,4.587-10.446,1.245-10.446,1.245s0.499,3.689,10.271,4.787c9.773,1.098,21.342,7.222,24.331,17.351
	c3.59,12.165-9.611,16.975-13.462,9.274c-2.992-5.983-0.598-13.661-0.598-13.661s-13.578-9.72-24.836-11.971
	c0,0-1.854,0.795-3.046,3.046c0,0-16.687-3.576-23.044-12.714c-6.357-9.138-5.43-7.019-6.887-7.019s-5.033,3.576-3.576,8.211
	s6.754,12.052,16.025,14.965c9.271,2.914,15.892,2.384,16.819,4.503s0.795,5.165-5.43,5.165s-14.171-0.795-18.276-4.635
	s-7.019-4.503-8.211-2.384s-0.662,12.846,11.522,14.171c12.184,1.324,19.866-2.119,20.925-0.132
	c1.06,1.987-2.649,7.284-10.595,8.608s-12.714-1.457-16.29-3.841s-5.96-0.397-6.225,1.987s3.311,10.198,11.787,10.463
	s18.011-5.297,19.468-5.562s4.635,1.722,1.722,4.768c-2.914,3.046-14.833,9.535-21.19,8.211c-6.357-1.324-7.019-3.311-9.8-1.987
	s-1.589,9.138,4.238,9.403s15.76-1.854,21.322-5.43s5.695,0.132,5.297,0.795s-8.079,10.992-19.071,12.052s-13.244-0.53-13.509,3.311
	s3.688,8.025,13.421,5.43c10.595-2.826,17.571-11.787,19.69-9.8s0.265,6.887-4.37,10.463s-11.081,10.286-22.382,8.696
	c-9.941-1.397-6.887,4.547-6.092,5.872c0.795,1.324,7.549,6.754,17.217,1.059c9.668-5.695,14.7-13.111,16.025-13.641
	c1.324-0.53,3.223-0.53,0.927,5.121s-10.065,15.892-17.659,17.834c-7.593,1.943-14.127,0.53-15.54,4.062
	c-1.412,3.531,7.24,12.007,18.011,4.768c9.889-6.646,21.544-24.016,24.722-23.839c3.178,0.176,2.677,6.067,0.735,9.068
	c-1.942,3.003-11.507,7.354-10.977,10.885c0.53,3.531,5.473,4.591,10.948-1.059c5.474-5.65,6.887-16.599,9.183-17.129
	c2.295-0.53,7.24,1.413,4.414,6.711c-2.825,5.297-9.006,9.006-6.003,11.478c3.002,2.472,7.593-1.412,10.065-6.357
	c2.472-4.945,4.414-10.948,6.71-8.829s0.53,10.241-4.415,15.363c-4.944,5.121-21.084,9.219-20.66,11.654
	c0.252,1.45,1.984,3.846,4.192,6.278l-21.277,6.304l-9.668-7.416c0,0-1.059-5.033-7.284-4.37c0,0-7.681-3.443-8.476,2.649
	c0,0,5.562-0.927,6.887,1.059c1.324,1.987,1.987,3.443,6.887,3.046l6.754,5.695l-13.509-1.589c0,0-2.781-4.635-7.416-1.722
	c0,0-5.827-1.854-7.284,3.708c0,0,5.033-0.927,6.357-0.265c0,0,1.987,4.503,8.344,1.854l13.376,0.662l-7.549,3.708
	c0,0-9.535-3.046-9.138,4.9c0,0-2.781,3.178-0.265,6.357c0,0,0.53-3.443,3.046-4.9c0,0,4.9,1.987,8.079-3.841l9.668-5.827
	l9.535,4.635c0,0-0.265,5.165,6.754,3.046c0,0,2.384,1.589,3.046,3.708c0,0,3.046-3.311-1.854-7.152c0,0-1.192-4.503-7.019-2.781
	l-5.43-2.781l20.091-5.962c3.478,3.313,7.232,6.029,8.546,5.574c2.593-0.897,4.588-3.59,6.381-7.379
	c1.795-3.79,9.872-16.952,13.861-16.851c3.989,0.1,5.784,3.29,4.787,8.975c-0.997,5.683-8.77,16.572-13.803,18.823
	c-5.033,2.251-5.827,3.311-10.463,2.914c-4.635-0.397-6.225,1.589-5.165,4.238s6.273,4.333,11.39,2.384
	c5.562-2.119,7.681-5.033,9.8-3.311s-2.251,7.946-8.211,9.8c-5.96,1.854-10.463,0.662-9.535,4.37
	c0.927,3.708,7.284,3.973,11.39,1.589s8.741-9.006,9.933-6.887c1.192,2.119,0.397,7.549-3.576,10.462
	c-3.973,2.914-8.493,1.199-9.403,3.841c-1.324,3.841,3.311,6.357,6.887,4.9s7.681-5.96,9.535-9.933
	c1.854-3.973,5.297-0.53,4.238,3.178c-1.06,3.708-0.177,6.754-7.769,12.582l14.127,21.72l14.127-21.72
	c-7.593-5.827-6.71-8.873-7.769-12.582c-1.06-3.708,2.384-7.152,4.238-3.178s5.96,8.476,9.535,9.933s8.211-1.059,6.887-4.9
	c-0.91-2.641-5.43-0.927-9.403-3.841c-3.973-2.914-4.768-8.344-3.576-10.462s5.827,4.503,9.933,6.887
	c4.106,2.384,10.463,2.119,11.39-1.589c0.927-3.708-3.576-2.516-9.535-4.37c-5.96-1.854-10.33-8.079-8.211-9.8
	s4.238,1.192,9.8,3.311c5.116,1.949,10.33,0.265,11.39-2.384c1.059-2.649-0.53-4.635-5.165-4.238s-5.43-0.662-10.463-2.914
	c-5.033-2.251-12.806-13.139-13.803-18.823c-0.997-5.684,0.798-8.875,4.787-8.975c3.989-0.101,12.066,13.061,13.861,16.851
	c1.795,3.79,3.789,6.482,6.381,7.379c1.315,0.456,5.069-2.261,8.546-5.574l20.091,5.962l-5.43,2.781
	c-5.827-1.722-7.019,2.781-7.019,2.781c-4.9,3.841-1.854,7.152-1.854,7.152c0.662-2.119,3.046-3.708,3.046-3.708
	c7.019,2.119,6.754-3.046,6.754-3.046l9.535-4.635l9.668,5.827c3.178,5.827,8.079,3.841,8.079,3.841
	c2.516,1.457,3.046,4.9,3.046,4.9c2.516-3.178-0.265-6.357-0.265-6.357c0.397-7.946-9.138-4.9-9.138-4.9l-7.549-3.708l13.376-0.662
	c6.357,2.649,8.344-1.854,8.344-1.854c1.324-0.662,6.357,0.265,6.357,0.265C364.73,251.889,358.903,253.743,358.903,253.743z"/>
<path style="fill:#2E3033;" d="M19.203,489.089L19.203,489.089C8.598,489.089,0,480.492,0,469.886V41.957
	c0-10.519,8.527-19.045,19.045-19.045h0.158c10.606,0,19.203,8.598,19.203,19.203v427.771
	C38.407,480.492,29.809,489.089,19.203,489.089z"/>
<g>
</g>
<g>
</g>
<g>
</g>
<g>
</g>
<g>
</g>
<g>
</g>
<g>
</g>
<g>
</g>
<g>
</g>
<g>
</g>
<g>
</g>
<g>
</g>
<g>
</g>
<g>
</g>
<g>
</g>
</svg>
