<?xml version="1.0" encoding="iso-8859-1"?>
<!-- Generator: Adobe Illustrator 19.0.0, SVG Export Plug-In . SVG Version: 6.00 Build 0)  -->
<svg version="1.1" id="Layer_1" xmlns="http://www.w3.org/2000/svg" xmlns:xlink="http://www.w3.org/1999/xlink" x="0px" y="0px"
	 viewBox="0 0 512 512" style="enable-background:new 0 0 512 512;" xml:space="preserve">
<path style="fill:#FFB400;" d="M20.448,267.295H512v98.875c0,4.68-3.795,8.475-8.475,8.475H28.924c-4.68,0-8.475-3.795-8.475-8.475
	L20.448,267.295L20.448,267.295z"/>
<path style="fill:#FF4B55;" d="M28.923,52.594h474.601c4.68,0,8.475,3.795,8.475,8.475v98.875H20.448V61.069
	C20.448,56.388,24.243,52.594,28.923,52.594z"/>
<rect x="20.448" y="159.94" style="fill:#41479B;" width="491.55" height="107.35"/>
<path style="fill:#2E3033;" d="M19.201,489.063L19.201,489.063C8.597,489.063,0,480.466,0,469.862V41.982
	c0-10.517,8.526-19.044,19.043-19.044h0.158c10.604,0,19.201,8.597,19.201,19.201v427.723
	C38.402,480.466,29.806,489.063,19.201,489.063z"/>
<g>
</g>
<g>
</g>
<g>
</g>
<g>
</g>
<g>
</g>
<g>
</g>
<g>
</g>
<g>
</g>
<g>
</g>
<g>
</g>
<g>
</g>
<g>
</g>
<g>
</g>
<g>
</g>
<g>
</g>
</svg>
