<?xml version="1.0" encoding="iso-8859-1"?>
<!-- Generator: Adobe Illustrator 19.0.0, SVG Export Plug-In . SVG Version: 6.00 Build 0)  -->
<svg version="1.1" id="Layer_1" xmlns="http://www.w3.org/2000/svg" xmlns:xlink="http://www.w3.org/1999/xlink" x="0px" y="0px"
	 viewBox="0 0 512 512" style="enable-background:new 0 0 512 512;" xml:space="preserve">
<path style="fill:#FF4B55;" d="M512,213.615H20.395V61.048c0-4.681,3.795-8.476,8.476-8.476h474.653
	c4.681,0,8.476,3.795,8.476,8.476V213.615z"/>
<path style="fill:#464655;" d="M20.395,213.615H512v152.567c0,4.681-3.795,8.476-8.476,8.476H28.871
	c-4.681,0-8.476-3.795-8.476-8.476V213.615z"/>
<g>
	<path style="fill:#FFE15A;" d="M246.902,142.844l5.795,17.376l18.316,0.142c1.419,0.011,2.008,1.822,0.866,2.665l-14.734,10.881
		l5.525,17.464c0.428,1.353-1.112,2.472-2.267,1.648l-14.902-10.651l-14.902,10.651c-1.155,0.825-2.695-0.295-2.267-1.648
		l5.525-17.464l-14.734-10.881c-1.141-0.843-0.553-2.654,0.866-2.665l18.316-0.142l5.795-17.376
		C244.548,141.497,246.452,141.497,246.902,142.844z"/>
	<path style="fill:#FFE15A;" d="M325.235,290.374c0,0-104.856-79.103-107.952-81.703c-4.785-4.019-8.476-11.125-8.653-19.777
		c0,0-11.308,11.583-9.094,23.574c2.56,13.862,10.507,18.806,20.748,25.517c7.197,4.716,64.415,40.802,97.816,61.853
		L325.235,290.374z"/>
	<path style="fill:#FFE15A;" d="M356.608,313.559c-1.367-0.976-12.348-9.093-27.586-20.381l-5.529,10.055
		c11.187,7.049,18.635,11.74,18.635,11.74s1.059,13.773,12.184,11.478C358.323,325.623,361.551,317.091,356.608,313.559z"/>
	<path style="fill:#FFE15A;" d="M266.066,277.037c-7.926,2.79-16.416,4.385-25.296,4.385c-22.508,0-42.674-9.806-56.637-25.31
		l-12.413,11.171c4.161,4.62,8.603,8.975,13.61,12.691l-2.472,4.281l18.35,10.595l2.429-4.208
		c8.291,3.605,17.202,6.032,26.537,7.089v4.881h21.19v-4.881c9.335-1.057,18.247-3.484,26.537-7.089l2.429,4.208l7.292-4.21
		C280.502,286.148,273.207,281.545,266.066,277.037z"/>
	<path style="fill:#FFE15A;" d="M333.361,194.544c-1.057-9.335-3.484-18.247-7.089-26.536l4.208-2.429l-10.595-18.351l-4.281,2.472
		c-5.481-7.385-12.01-13.914-19.396-19.395l2.472-4.281l-18.35-10.595l-2.429,4.208c-6.877-2.991-14.199-5.115-21.818-6.375
		l-2.784,16.71c36.156,5.988,63.755,37.314,63.755,75.168c0,20.382-8.044,38.853-21.068,52.537
		c4.505,3.402,8.977,6.778,13.397,10.115c2.141-2.345,4.325-4.654,6.223-7.212l4.281,2.472l10.595-18.35l-4.208-2.429
		c3.605-8.291,6.032-17.202,7.089-26.536h4.881v-21.19h-4.882v-0.003H333.361z"/>
</g>
<path style="fill:#2E3033;" d="M19.203,489.087L19.203,489.087C8.598,489.087,0,480.49,0,469.884V41.958
	c0-10.519,8.527-19.045,19.045-19.045h0.158c10.606,0,19.203,8.598,19.203,19.203v427.768
	C38.407,480.49,29.809,489.087,19.203,489.087z"/>
<g>
</g>
<g>
</g>
<g>
</g>
<g>
</g>
<g>
</g>
<g>
</g>
<g>
</g>
<g>
</g>
<g>
</g>
<g>
</g>
<g>
</g>
<g>
</g>
<g>
</g>
<g>
</g>
<g>
</g>
</svg>
