<?xml version="1.0" encoding="iso-8859-1"?>
<!-- Generator: Adobe Illustrator 19.0.0, SVG Export Plug-In . SVG Version: 6.00 Build 0)  -->
<svg version="1.1" id="Layer_1" xmlns="http://www.w3.org/2000/svg" xmlns:xlink="http://www.w3.org/1999/xlink" x="0px" y="0px"
	 viewBox="0 0 512 512" style="enable-background:new 0 0 512 512;" xml:space="preserve">
<path style="fill:#41479B;" d="M503.524,374.657H28.871c-4.681,0-8.476-3.795-8.476-8.476V61.048c0-4.681,3.795-8.476,8.476-8.476
	h474.653c4.681,0,8.476,3.795,8.476,8.476v305.133C512,370.862,508.205,374.657,503.524,374.657z"/>
<path style="fill:#FF4B55;" d="M512,366.181v-9.363L74.849,213.615L512,70.411v-9.363c0-3.065-1.712-5.628-4.149-7.117
	L20.395,213.615l487.456,159.683C510.288,371.809,512,369.246,512,366.181z"/>
<polygon style="fill:#F5F5F5;" points="74.849,213.615 512,356.818 512,70.411 "/>
<path style="fill:#FFF5DC;" d="M460.249,171.901c0,0,29.025,1.23,31.731-0.984c2.706-2.213,3.198-16.972-6.395-19.185
	s-35.666,12.053-35.666,12.053L460.249,171.901z"/>
<g>
	<path style="fill:#D27D69;" d="M403.43,194.777c0,0-0.328,0.82-0.492,4.428c-0.164,3.608,0.492,12.954,11.807,17.054l-2.623,10.987
		l11.97,7.215c0,0,8.855-13.119,9.347-24.106C433.93,199.368,403.43,194.777,403.43,194.777z"/>
	<path style="fill:#D27D69;" d="M367.518,187.397l4.673-4.673c0,0-9.567,5.837-13.2,0.574c-4.755-6.887,1.64-14.102,8.281-17.3
		s19.924-0.737,19.924-0.737l8.363,21.4l-25.335,15.988L367.518,187.397z"/>
	<path style="fill:#D27D69;" d="M445.983,146.567l22.63-2.706c0,0-6.641,9.593-19.678,16.726c0,0,13.529,0,17.464,4.673
		c3.936,4.673-3.936,9.101-6.887,10.577c-2.952,1.476-28.532,17.218-28.532,17.218l-22.875-2.706L445.983,146.567z"/>
	<path style="fill:#D27D69;" d="M462.791,129.185c0,0,4.919-11.479,4.755-19.514l-16.562,11.479c0,0,3.772-1.803,2.46-8.363
		l-54.114,29.352l-10.987,19.514l33.452,10.331L462.791,129.185z"/>
</g>
<path style="fill:#FFE15A;" d="M422,218.635l-5.658,8.978c0,0-10.085-2.213-13.529,0.246c-3.443,2.46-3.812,11.684,2.213,12.421
	c0,0,4.182,2.583,6.641,0.492c0,0,5.042,1.967,5.903-1.23c0.861-3.198-0.246-5.903-0.246-5.903h3.566l6.272-11.191L422,218.635z"/>
<path style="fill:#B95546;" d="M371.454,199.204c0,0,15.742-7.871,15.742-19.678c0-11.807-14.594-12.463-26.4-8.527
	c0,0-7.051-5.575-1.147-11.151c8.092-7.643,43.291-23.613,43.291-23.613l-3.936,19.678c0,0,14.02,7.379,19.678,3.936
	c4.754-2.893,51.162-39.355,51.162-39.355s-3.936,19.678-31.484,39.355l-2.919,14.596c-0.641,3.207-2.727,5.937-5.652,7.399
	l-11.107,5.553c0,0,31.484,3.936,31.484,7.871s-7.871,23.613-23.613,31.484l-7.871-7.871l3.936-11.807
	c0,0-11.807-3.936-19.678-7.871c0,0-11.807,3.936-19.678,3.936S371.454,199.204,371.454,199.204z"/>
<path style="fill:#FFF5DC;" d="M347.841,218.881v-8.177c0-2.323,0.923-4.553,2.566-6.196l17.112-17.112l3.936,7.871h15.742
	l-3.936,3.936v3.936l-19.678,11.807L347.841,218.881z"/>
<g>
	<path style="fill:#FFE15A;" d="M355.712,214.946h-7.871c0,0-7.871,11.807,0,11.807c0,0,11.807-7.871,15.742-11.807
		C363.583,214.946,363.583,211.01,355.712,214.946z"/>
	<path style="fill:#FFE15A;" d="M451.711,232.404h-54.406c-0.448-0.483-1.075-0.795-1.786-0.795c0,0-9.53-3.95-10.885-3.95h-1.117
		c-1.355,0-2.454,1.099-2.454,2.454v2.291h-12.437v-2.291c0-1.355-1.099-2.454-2.454-2.454h-1.117c-1.355,0-2.454,1.099-2.454,2.454
		v0.041c-5.33-0.217-16.726-0.896-22.63-2.864l-31.484,7.871l31.484,7.871c5.902-1.967,17.298-2.648,22.63-2.865v0.041
		c0,1.355,1.099,2.454,2.454,2.454h1.117c1.355,0,2.454-1.099,2.454-2.454v-2.291h12.437v2.291c0,1.355,1.099,2.454,2.454,2.454
		h1.117c1.355,0,10.885-3.95,10.885-3.95c0.711,0,1.338-0.311,1.786-0.795h54.406c1.524,0,2.758-1.235,2.758-2.758
		C454.469,233.639,453.234,232.404,451.711,232.404z"/>
	<path style="fill:#FFE15A;" d="M449.345,242.987c-3.28-0.656-40.831,5.903-40.831,5.903s-2.296-2.296,4.591-8.691l-3.279-0.82
		c0,0-7.215,5.083-10.167,5.739c-2.542,0.565-8.221,3.326-9.441,7.012l-22.864,3.811l0.492,1.967l22.426-2.629
		c1.07,3.445,4.595,4.148,7.09,3.12c0,0,3.28,1.312,6.232-0.984c0,0,5.903,0.984,6.231-4.428l41.159-6.232
		C450.984,246.758,452.624,243.643,449.345,242.987z"/>
	<path style="fill:#FFE15A;" d="M426.059,270.699c0,0-3.116,4.099-10.823,0.492c-7.707-3.608-16.726,0.328-21.645-0.82
		c-4.919-1.148-12.299-4.099-19.185-1.476c-6.887,2.623-10.658,2.46-9.183-0.82c1.476-3.279,2.296-5.739,0-6.887l2.623-3.28
		l-0.492-1.967c0,0-13.119-5.083-21.973,1.967c-8.855,7.051-6.231,23.121,8.527,24.269c0,0,4.592,5.739,15.906,4.099
		c0,0,7.379,5.083,20.005,2.788c0,0,0.492,1.476,8.691,0.82s17.382,0.328,15.742,5.903c0,0,6.068-1.147,2.46-6.724
		c0,0,7.215-0.328,12.134,3.936c0,0,0.328-4.919-4.428-7.544c0,0,8.035-2.788,12.463,0c0,0-2.952-6.231-10.823-5.411
		c0,0,5.739-4.592,8.363-3.443c0,0-2.46-2.952-9.675,0C424.748,276.602,429.34,273.815,426.059,270.699z"/>
</g>
<path style="fill:#2E3033;" d="M19.203,489.087L19.203,489.087C8.598,489.087,0,480.49,0,469.884V41.958
	c0-10.519,8.527-19.045,19.045-19.045h0.158c10.606,0,19.203,8.598,19.203,19.203v427.768
	C38.407,480.49,29.809,489.087,19.203,489.087z"/>
<g>
</g>
<g>
</g>
<g>
</g>
<g>
</g>
<g>
</g>
<g>
</g>
<g>
</g>
<g>
</g>
<g>
</g>
<g>
</g>
<g>
</g>
<g>
</g>
<g>
</g>
<g>
</g>
<g>
</g>
</svg>
