<?xml version="1.0" encoding="iso-8859-1"?>
<!-- Generator: Adobe Illustrator 19.0.0, SVG Export Plug-In . SVG Version: 6.00 Build 0)  -->
<svg version="1.1" id="Layer_1" xmlns="http://www.w3.org/2000/svg" xmlns:xlink="http://www.w3.org/1999/xlink" x="0px" y="0px"
	 viewBox="0 0 511.902 511.902" style="enable-background:new 0 0 511.902 511.902;" xml:space="preserve">
<path style="fill:#41479B;" d="M503.6,373.851H35.4c-4.7,0-8.4-3.8-8.4-8.4v-300.9c0-4.7,3.8-8.4,8.4-8.4h468.1
	c4.7,0,8.4,3.8,8.4,8.4v300.9C512,370.051,508.2,373.851,503.6,373.851z"/>
<path style="fill:#F5F5F5;" d="M261.1,56.051h-14.5l-77.5,50.7v-50.7h-41.8v50.7l-77.4-50.7H35.4c-4.6,0-8.4,3.7-8.4,8.4v6.6
	l66.5,43.5H27v41.8h66.5l-66.5,43.6v6.6c0,4.6,3.7,8.4,8.4,8.4h14.5l77.5-50.7v50.7h41.8v-50.7l77.5,50.7h14.5
	c4.6,0,8.4-3.7,8.4-8.4v-6.6l-66.6-43.5h66.5v-41.8H203l66.5-43.5v-6.6C269.5,59.851,265.8,56.051,261.1,56.051z"/>
<g>
	<polygon style="fill:#FF4B55;" points="269.5,122.951 160.8,122.951 160.8,56.051 135.7,56.051 135.7,122.951 27,122.951 
		27,148.051 135.7,148.051 135.7,214.951 160.8,214.951 160.8,148.051 269.5,148.051 	"/>
	<path style="fill:#FF4B55;" d="M119,114.651l-88-57.2c-2.3,1.5-4,4-4,6.9v0.4l76.6,49.7H119V114.651z"/>
	<path style="fill:#FF4B55;" d="M184.5,114.651l83.7-54.3c-1.5-2.5-4-4.2-7.1-4.2h-1.8l-90.2,58.5H184.5z"/>
	<path style="fill:#FF4B55;" d="M111.8,156.451l-83.6,54.2c1.4,2.5,4,4.3,7.2,4.3H37l90.2-58.5H111.8L111.8,156.451z"/>
	<path style="fill:#FF4B55;" d="M269.4,207.251l-78.3-50.8h-15.4l88.9,57.7C267.3,212.951,269.1,210.351,269.4,207.251z"/>
</g>
<g>
	<path style="fill:#F5F5F5;" d="M150.8,260.551l6.3,20.8l20.2-8.1c1.7-0.7,3.3,1.3,2.2,2.8l-12.4,17.9l18.9,10.8
		c1.6,0.9,1.1,3.4-0.8,3.5l-21.7,1.5l3.4,21.5c0.3,1.8-2,2.9-3.2,1.6l-14.7-15.9l-14.7,16c-1.3,1.4-3.5,0.3-3.2-1.6l3.4-21.5
		l-21.7-1.5c-1.9-0.1-2.4-2.6-0.8-3.5l18.9-10.8l-12.4-17.9c-1.1-1.5,0.5-3.5,2.2-2.8l20.2,8.1l6.3-20.8
		C147.7,258.751,150.2,258.751,150.8,260.551z"/>
	<path style="fill:#F5F5F5;" d="M399.5,112.351l3.1,10.2l9.9-3.9c0.8-0.3,1.6,0.6,1.1,1.4l-6,8.8l9.2,5.3c0.8,0.4,0.5,1.6-0.4,1.7
		l-10.6,0.7l1.6,10.5c0.1,0.9-1,1.4-1.6,0.8l-7.2-7.8l-7.2,7.8c-0.6,0.7-1.7,0.1-1.6-0.8l1.6-10.5l-10.6-0.7
		c-0.9-0.1-1.2-1.3-0.4-1.7l9.2-5.3l-6-8.8c-0.5-0.7,0.3-1.7,1.1-1.4l9.9,3.9l3.1-10.2C398,111.551,399.3,111.551,399.5,112.351z"/>
	<path style="fill:#F5F5F5;" d="M330.8,190.551l3.1,10.2l9.9-3.9c0.8-0.3,1.6,0.6,1.1,1.4l-6,8.8l9.2,5.3c0.8,0.4,0.5,1.6-0.4,1.7
		l-10.6,0.7l1.6,10.5c0.1,0.9-1,1.4-1.6,0.8l-7.2-7.8l-7.2,7.8c-0.6,0.7-1.7,0.1-1.6-0.8l1.6-10.5l-10.6-0.7
		c-0.9-0.1-1.2-1.3-0.4-1.7l9.2-5.3l-6-8.8c-0.5-0.7,0.3-1.7,1.1-1.4l9.9,3.9l3.1-10.2C329.3,189.651,330.5,189.651,330.8,190.551z"
		/>
	<path style="fill:#F5F5F5;" d="M464.6,157.051l3.1,10.2l9.9-3.9c0.8-0.3,1.6,0.6,1.1,1.4l-6,8.8l9.2,5.3c0.8,0.4,0.5,1.6-0.4,1.7
		l-10.6,0.7l1.6,10.5c0.1,0.9-1,1.4-1.6,0.8l-7.2-7.8l-7.2,7.8c-0.6,0.7-1.7,0.1-1.6-0.8l1.6-10.5l-10.6-0.7
		c-0.9-0.1-1.2-1.3-0.4-1.7l9.2-5.3l-6-8.8c-0.5-0.7,0.3-1.7,1.1-1.4l9.9,3.9l3.1-10.2C463.1,156.151,464.3,156.151,464.6,157.051z"
		/>
	<path style="fill:#F5F5F5;" d="M399.5,290.851l3.1,10.2l9.9-3.9c0.8-0.3,1.6,0.6,1.1,1.4l-6,8.8l9.2,5.3c0.8,0.4,0.5,1.6-0.4,1.7
		l-10.6,0.7l1.6,10.5c0.1,0.9-1,1.4-1.6,0.8l-7.2-7.8l-7.2,7.8c-0.6,0.7-1.7,0.1-1.6-0.8l1.6-10.5l-10.6-0.7
		c-0.9-0.1-1.2-1.3-0.4-1.7l9.2-5.3l-6-8.8c-0.5-0.7,0.3-1.7,1.1-1.4l9.9,3.9l3.1-10.2C398,289.951,399.3,289.951,399.5,290.851z"/>
	<path style="fill:#F5F5F5;" d="M423.4,208.851l-2.5,7.4l-7.8,0.1c-1,0-1.4,1.3-0.6,1.9l6.3,4.6l-2.4,7.5c-0.3,1,0.8,1.8,1.6,1.2
		l6.4-4.6l6.4,4.6c0.8,0.6,1.9-0.2,1.6-1.2l-2.4-7.5l6.3-4.6c0.8-0.6,0.4-1.9-0.6-1.9l-7.8-0.1l-2.5-7.4
		C425.1,207.851,423.7,207.851,423.4,208.851z"/>
</g>
<path style="fill:#2E3033;" d="M19.1,488.051L19.1,488.051c-10.5,0-19.1-8.6-19.1-19.1v-426.1c0-10.5,8.5-19,19-19h0.2
	c10.6,0,19.1,8.6,19.1,19.1v426C38.2,479.451,29.7,488.051,19.1,488.051z"/>
<g>
</g>
<g>
</g>
<g>
</g>
<g>
</g>
<g>
</g>
<g>
</g>
<g>
</g>
<g>
</g>
<g>
</g>
<g>
</g>
<g>
</g>
<g>
</g>
<g>
</g>
<g>
</g>
<g>
</g>
</svg>
