<?xml version="1.0" encoding="iso-8859-1"?>
<!-- Generator: Adobe Illustrator 19.0.0, SVG Export Plug-In . SVG Version: 6.00 Build 0)  -->
<svg version="1.1" id="Layer_1" xmlns="http://www.w3.org/2000/svg" xmlns:xlink="http://www.w3.org/1999/xlink" x="0px" y="0px"
	 viewBox="0 0 512 512" style="enable-background:new 0 0 512 512;" xml:space="preserve">
<path style="fill:#4173CD;" d="M503.525,374.645H28.924c-4.68,0-8.475-3.795-8.475-8.475V61.069c0-4.68,3.795-8.475,8.475-8.475
	h474.601c4.68,0,8.475,3.795,8.475,8.475V366.17C512,370.85,508.205,374.645,503.525,374.645z"/>
<g>
	<rect x="20.448" y="272.95" style="fill:#FFE15A;" width="491.55" height="16.95"/>
	<rect x="20.448" y="306.85" style="fill:#FFE15A;" width="491.55" height="16.95"/>
</g>
<polygon style="fill:#FF4B55;" points="83.075,136.759 51.539,125.99 83.075,115.222 93.844,83.689 104.612,115.222 136.148,125.99 
	104.612,136.759 93.844,168.291 "/>
<path style="fill:#F5F5F5;" d="M93.844,89.356l9.326,27.309l27.309,9.326l-27.309,9.326l-9.326,27.309l-9.326-27.309L57.21,125.99
	l27.309-9.326L93.844,89.356 M93.844,78.019l-3.467,10.152l-8.744,25.607l-25.607,8.744l-10.152,3.466l10.152,3.466l25.607,8.744
	l8.744,25.607l3.467,10.152l3.467-10.152l8.744-25.607l25.607-8.744l10.152-3.466l-10.152-3.466l-25.607-8.744L97.311,88.17
	L93.844,78.019L93.844,78.019z"/>
<path style="fill:#2E3033;" d="M19.201,489.063L19.201,489.063C8.597,489.063,0,480.466,0,469.862V41.982
	c0-10.517,8.526-19.044,19.043-19.044h0.158c10.604,0,19.201,8.597,19.201,19.201v427.723
	C38.402,480.466,29.806,489.063,19.201,489.063z"/>
<g>
</g>
<g>
</g>
<g>
</g>
<g>
</g>
<g>
</g>
<g>
</g>
<g>
</g>
<g>
</g>
<g>
</g>
<g>
</g>
<g>
</g>
<g>
</g>
<g>
</g>
<g>
</g>
<g>
</g>
</svg>
