<?xml version="1.0" encoding="iso-8859-1"?>
<!-- Generator: Adobe Illustrator 19.0.0, SVG Export Plug-In . SVG Version: 6.00 Build 0)  -->
<svg version="1.1" id="Layer_1" xmlns="http://www.w3.org/2000/svg" xmlns:xlink="http://www.w3.org/1999/xlink" x="0px" y="0px"
	 viewBox="0 0 512 512" style="enable-background:new 0 0 512 512;" xml:space="preserve">
<path style="fill:#73AF00;" d="M20.448,267.295H512v98.875c0,4.68-3.795,8.475-8.475,8.475H28.924c-4.68,0-8.475-3.795-8.475-8.475
	L20.448,267.295L20.448,267.295z"/>
<path style="fill:#82AFFF;" d="M28.923,52.594h474.601c4.68,0,8.475,3.795,8.475,8.475v98.875H20.448V61.069
	C20.448,56.388,24.243,52.594,28.923,52.594z"/>
<rect x="20.448" y="159.94" style="fill:#FF4B55;" width="491.55" height="107.35"/>
<g>
	<path style="fill:#F5F5F5;" d="M277.783,248.764c-19.019,0-34.448-15.429-34.448-34.465c0-19.002,15.429-34.465,34.448-34.465
		c7.077,0,13.602,2.176,19.04,5.859c0.833,0.565,1.783-0.531,1.086-1.255c-8.128-8.45-19.631-13.606-32.385-13.17
		c-21.912,0.748-40.052,18.316-41.452,40.196c-1.604,25.062,18.24,45.889,42.948,45.889c12.17,0,23.108-5.088,30.92-13.223
		c0.69-0.718-0.263-1.797-1.087-1.237C291.409,246.585,284.873,248.764,277.783,248.764z"/>
	<path style="fill:#F5F5F5;" d="M307.941,193.085l3.574,10.049l9.633-4.579c0.726-0.345,1.483,0.412,1.138,1.138l-4.58,9.633
		l10.049,3.574c0.757,0.269,0.757,1.34,0,1.609l-10.049,3.574l4.58,9.633c0.345,0.726-0.412,1.483-1.138,1.138l-9.633-4.579
		l-3.574,10.049c-0.269,0.757-1.34,0.757-1.609,0l-3.574-10.049l-9.633,4.579c-0.726,0.345-1.483-0.412-1.138-1.138l4.579-9.633
		l-10.049-3.574c-0.757-0.269-0.757-1.34,0-1.609l10.049-3.574l-4.579-9.633c-0.345-0.726,0.412-1.483,1.138-1.138l9.633,4.579
		l3.574-10.049C306.602,192.327,307.672,192.327,307.941,193.085z"/>
</g>
<path style="fill:#2E3033;" d="M19.201,489.063L19.201,489.063C8.597,489.063,0,480.466,0,469.862V41.982
	c0-10.517,8.526-19.044,19.043-19.044h0.158c10.604,0,19.201,8.597,19.201,19.201v427.723
	C38.402,480.466,29.806,489.063,19.201,489.063z"/>
<g>
</g>
<g>
</g>
<g>
</g>
<g>
</g>
<g>
</g>
<g>
</g>
<g>
</g>
<g>
</g>
<g>
</g>
<g>
</g>
<g>
</g>
<g>
</g>
<g>
</g>
<g>
</g>
<g>
</g>
</svg>
