<?xml version="1.0" encoding="iso-8859-1"?>
<!-- Generator: Adobe Illustrator 19.0.0, SVG Export Plug-In . SVG Version: 6.00 Build 0)  -->
<svg version="1.1" id="Layer_1" xmlns="http://www.w3.org/2000/svg" xmlns:xlink="http://www.w3.org/1999/xlink" x="0px" y="0px"
	 viewBox="0 0 512.001 512.001" style="enable-background:new 0 0 512.001 512.001;" xml:space="preserve">
<path style="fill:#41479B;" d="M503.524,374.658H28.87c-4.681,0-8.476-3.795-8.476-8.476V61.047c0-4.681,3.795-8.476,8.476-8.476
	h474.655c4.681,0,8.476,3.795,8.476,8.476v305.135C512,370.864,508.205,374.658,503.524,374.658z"/>
<polygon style="fill:#FFE15A;" points="444.192,52.571 444.192,374.658 122.106,52.571 "/>
<g>
	<path style="fill:#F5F5F5;" d="M219.487,172.496l4.885,14.646l15.439,0.12c1.196,0.01,1.692,1.535,0.73,2.246l-12.42,9.172
		l4.658,14.721c0.361,1.14-0.938,2.084-1.911,1.388l-12.561-8.978l-12.561,8.978c-0.973,0.695-2.272-0.248-1.911-1.388l4.658-14.721
		l-12.42-9.172c-0.962-0.711-0.466-2.237,0.73-2.246l15.439-0.12l4.885-14.646C217.504,171.362,219.109,171.362,219.487,172.496z"/>
	<path style="fill:#F5F5F5;" d="M184.171,137.18l4.885,14.646l15.439,0.12c1.196,0.01,1.692,1.535,0.73,2.246l-12.42,9.172
		l4.658,14.721c0.361,1.14-0.938,2.084-1.911,1.388l-12.561-8.978l-12.561,8.978c-0.973,0.695-2.272-0.248-1.911-1.388l4.658-14.721
		l-12.42-9.172c-0.962-0.711-0.466-2.237,0.73-2.246l15.439-0.12l4.885-14.646C182.188,136.046,183.793,136.046,184.171,137.18z"/>
	<path style="fill:#F5F5F5;" d="M148.855,101.863l4.885,14.646l15.439,0.12c1.196,0.01,1.692,1.535,0.73,2.246l-12.42,9.172
		l4.658,14.721c0.361,1.14-0.938,2.084-1.911,1.388l-12.561-8.978l-12.561,8.978c-0.973,0.696-2.272-0.248-1.911-1.388l4.658-14.721
		l-12.42-9.172c-0.962-0.711-0.466-2.237,0.73-2.246l15.439-0.12l4.885-14.646C146.87,100.728,148.476,100.728,148.855,101.863z"/>
	<path style="fill:#F5F5F5;" d="M113.538,66.547l4.885,14.646l15.439,0.12c1.196,0.01,1.692,1.535,0.73,2.246l-12.42,9.172
		l4.658,14.721c0.361,1.14-0.938,2.084-1.911,1.388l-12.561-8.978l-12.561,8.978c-0.973,0.696-2.272-0.248-1.911-1.388l4.658-14.721
		l-12.42-9.172c-0.962-0.711-0.466-2.237,0.73-2.246l15.439-0.12l4.885-14.646C111.554,65.412,113.159,65.412,113.538,66.547z"/>
	<path style="fill:#F5F5F5;" d="M360.754,313.762l4.885,14.646l15.439,0.12c1.196,0.01,1.692,1.536,0.73,2.246l-12.42,9.172
		l4.658,14.721c0.361,1.14-0.938,2.084-1.91,1.388l-12.561-8.978l-12.561,8.978c-0.973,0.696-2.272-0.248-1.91-1.388l4.658-14.721
		l-12.42-9.172c-0.962-0.711-0.466-2.237,0.73-2.246l15.439-0.12l4.885-14.646C358.771,312.627,360.376,312.627,360.754,313.762z"/>
	<path style="fill:#F5F5F5;" d="M325.437,278.446l4.885,14.646l15.439,0.12c1.196,0.01,1.692,1.535,0.73,2.246l-12.42,9.172
		l4.658,14.721c0.361,1.14-0.938,2.084-1.91,1.388l-12.561-8.978l-12.561,8.978c-0.973,0.696-2.272-0.248-1.911-1.388l4.658-14.721
		l-12.42-9.172c-0.962-0.711-0.466-2.237,0.73-2.246l15.439-0.12l4.885-14.646C323.453,277.311,325.058,277.311,325.437,278.446z"/>
	<path style="fill:#F5F5F5;" d="M290.121,243.13l4.885,14.646l15.439,0.12c1.196,0.01,1.692,1.536,0.73,2.246l-12.42,9.172
		l4.658,14.721c0.361,1.14-0.938,2.084-1.91,1.388l-12.561-8.978l-12.561,8.978c-0.973,0.695-2.272-0.248-1.911-1.388l4.658-14.721
		l-12.42-9.172c-0.962-0.711-0.466-2.237,0.73-2.246l15.439-0.12l4.885-14.646C288.137,241.995,289.742,241.995,290.121,243.13z"/>
	<path style="fill:#F5F5F5;" d="M254.804,207.813l4.885,14.646l15.439,0.12c1.196,0.01,1.692,1.535,0.73,2.246l-12.42,9.172
		l4.658,14.721c0.361,1.14-0.938,2.084-1.911,1.388l-12.561-8.978l-12.561,8.978c-0.973,0.696-2.272-0.248-1.911-1.388l4.658-14.721
		l-12.42-9.172c-0.962-0.711-0.466-2.237,0.73-2.246l15.439-0.12l4.885-14.646C252.821,206.678,254.425,206.678,254.804,207.813z"/>
	<path style="fill:#F5F5F5;" d="M60.667,52.571l6.558,4.843l-4.658,14.721c-0.36,1.14,0.938,2.084,1.911,1.389l12.56-8.978
		L89.6,73.524c0.973,0.695,2.272-0.248,1.91-1.389l-4.655-14.721l6.558-4.843C93.413,52.571,60.667,52.571,60.667,52.571z"/>
	<path style="fill:#F5F5F5;" d="M416.394,363.845l-15.439-0.12l-4.884-14.646c-0.378-1.135-1.983-1.135-2.362,0l-4.884,14.646
		l-15.439,0.12c-1.196,0.01-1.692,1.536-0.73,2.246l11.602,8.566h21.268l11.6-8.566C418.086,365.381,417.59,363.855,416.394,363.845
		z"/>
</g>
<path style="fill:#2E3033;" d="M19.203,489.089L19.203,489.089C8.598,489.089,0,480.492,0,469.886V41.957
	c0-10.519,8.527-19.045,19.045-19.045h0.158c10.606,0,19.203,8.598,19.203,19.203v427.771
	C38.407,480.492,29.809,489.089,19.203,489.089z"/>
<g>
</g>
<g>
</g>
<g>
</g>
<g>
</g>
<g>
</g>
<g>
</g>
<g>
</g>
<g>
</g>
<g>
</g>
<g>
</g>
<g>
</g>
<g>
</g>
<g>
</g>
<g>
</g>
<g>
</g>
</svg>
