<?xml version="1.0" encoding="iso-8859-1"?>
<!-- Generator: Adobe Illustrator 19.0.0, SVG Export Plug-In . SVG Version: 6.00 Build 0)  -->
<svg version="1.1" id="Layer_1" xmlns="http://www.w3.org/2000/svg" xmlns:xlink="http://www.w3.org/1999/xlink" x="0px" y="0px"
	 viewBox="0 0 512 512" style="enable-background:new 0 0 512 512;" xml:space="preserve">
<path style="fill:#41479B;" d="M184.263,374.657H28.871c-4.681,0-8.476-3.795-8.476-8.476V61.048c0-4.681,3.795-8.476,8.476-8.476
	h155.392V374.657z"/>
<rect x="184.27" y="52.57" style="fill:#FFE15A;" width="163.87" height="322.08"/>
<path style="fill:#41479B;" d="M503.524,374.657H348.132V52.572h155.392c4.681,0,8.476,3.795,8.476,8.476v305.133
	C512,370.862,508.205,374.657,503.524,374.657z"/>
<path style="fill:#464655;" d="M334.004,166.813c0,0-23.585,0-41.275,17.689h11.792c0,0-11.424,20.637-17.321,56.015l-12.161-1.985
	v-54.206l11.792,3.861l-20.637-50.856l-20.637,50.856l11.792-3.932v54.276l-12.161,1.985c-5.896-35.377-17.321-56.015-17.321-56.015
	h11.792c-17.689-17.689-41.275-17.689-41.275-17.689c29.481,35.377,29.481,94.341,29.481,94.341l29.481-4.913v40.291h17.689V256.24
	l29.481,4.913C304.523,261.153,304.523,202.19,334.004,166.813z"/>
<path style="fill:#2E3033;" d="M19.203,489.087L19.203,489.087C8.598,489.087,0,480.49,0,469.884V41.958
	c0-10.519,8.527-19.045,19.045-19.045h0.158c10.606,0,19.203,8.598,19.203,19.203v427.768
	C38.407,480.49,29.809,489.087,19.203,489.087z"/>
<g>
</g>
<g>
</g>
<g>
</g>
<g>
</g>
<g>
</g>
<g>
</g>
<g>
</g>
<g>
</g>
<g>
</g>
<g>
</g>
<g>
</g>
<g>
</g>
<g>
</g>
<g>
</g>
<g>
</g>
</svg>
