<?xml version="1.0" encoding="iso-8859-1"?>
<!-- Generator: Adobe Illustrator 19.0.0, SVG Export Plug-In . SVG Version: 6.00 Build 0)  -->
<svg version="1.1" id="Layer_1" xmlns="http://www.w3.org/2000/svg" xmlns:xlink="http://www.w3.org/1999/xlink" x="0px" y="0px"
	 viewBox="0 0 512.001 512.001" style="enable-background:new 0 0 512.001 512.001;" xml:space="preserve">
<path style="fill:#73AF00;" d="M503.524,374.658H28.87c-4.681,0-8.476-3.795-8.476-8.476V61.047c0-4.681,3.795-8.476,8.476-8.476
	h474.655c4.681,0,8.476,3.795,8.476,8.476v305.135C512,370.864,508.205,374.658,503.524,374.658z"/>
<circle style="fill:#FF4B55;" cx="232.29" cy="213.62" r="110.19"/>
<path style="fill:#2E3033;" d="M19.203,489.089L19.203,489.089C8.598,489.089,0,480.492,0,469.886V41.957
	c0-10.519,8.527-19.045,19.045-19.045h0.158c10.606,0,19.203,8.598,19.203,19.203v427.771
	C38.407,480.492,29.809,489.089,19.203,489.089z"/>
<g>
</g>
<g>
</g>
<g>
</g>
<g>
</g>
<g>
</g>
<g>
</g>
<g>
</g>
<g>
</g>
<g>
</g>
<g>
</g>
<g>
</g>
<g>
</g>
<g>
</g>
<g>
</g>
<g>
</g>
</svg>
