<?xml version="1.0" encoding="iso-8859-1"?>
<!-- Generator: Adobe Illustrator 19.0.0, SVG Export Plug-In . SVG Version: 6.00 Build 0)  -->
<svg version="1.1" id="Layer_1" xmlns="http://www.w3.org/2000/svg" xmlns:xlink="http://www.w3.org/1999/xlink" x="0px" y="0px"
	 viewBox="0 0 512 512" style="enable-background:new 0 0 512 512;" xml:space="preserve">
<path style="fill:#FF4B55;" d="M512,213.62H20.448V61.069c0-4.68,3.795-8.475,8.475-8.475h474.601c4.68,0,8.475,3.795,8.475,8.475
	L512,213.62L512,213.62L512,213.62z"/>
<path style="fill:#73AF00;" d="M20.448,213.62H512v152.55c0,4.68-3.795,8.475-8.475,8.475H28.924c-4.68,0-8.475-3.795-8.475-8.475
	L20.448,213.62L20.448,213.62z"/>
<path style="fill:#FFE15A;" d="M268.802,167.397l10.663,31.97l33.7,0.262c2.611,0.02,3.693,3.352,1.593,4.903l-27.111,20.02
	l10.166,32.132c0.787,2.49-2.047,4.549-4.171,3.03l-27.418-19.597l-27.418,19.597c-2.124,1.518-4.959-0.541-4.171-3.03
	l10.166-32.132l-27.111-20.02c-2.101-1.551-1.018-4.883,1.593-4.903l33.7-0.262l10.663-31.97
	C264.472,164.92,267.976,164.92,268.802,167.397z"/>
<path style="fill:#2E3033;" d="M19.201,489.063L19.201,489.063C8.597,489.063,0,480.466,0,469.862V41.982
	c0-10.517,8.526-19.044,19.043-19.044h0.158c10.604,0,19.201,8.597,19.201,19.201v427.723
	C38.402,480.466,29.806,489.063,19.201,489.063z"/>
<g>
</g>
<g>
</g>
<g>
</g>
<g>
</g>
<g>
</g>
<g>
</g>
<g>
</g>
<g>
</g>
<g>
</g>
<g>
</g>
<g>
</g>
<g>
</g>
<g>
</g>
<g>
</g>
<g>
</g>
</svg>
