<?xml version="1.0" encoding="iso-8859-1"?>
<!-- Generator: Adobe Illustrator 19.0.0, SVG Export Plug-In . SVG Version: 6.00 Build 0)  -->
<svg version="1.1" id="Layer_1" xmlns="http://www.w3.org/2000/svg" xmlns:xlink="http://www.w3.org/1999/xlink" x="0px" y="0px"
	 viewBox="0 0 512.1 512.1" style="enable-background:new 0 0 512.1 512.1;" xml:space="preserve">
<path style="fill:#FF4B55;" d="M27,268h485v97.6c0,4.6-3.7,8.4-8.4,8.4H35.4c-4.6,0-8.4-3.7-8.4-8.4C27,365.6,27,268,27,268z"/>
<path style="fill:#F5F5F5;" d="M35.4,56.1h468.3c4.6,0,8.4,3.7,8.4,8.4V162H27V64.5C27,59.9,30.7,56.1,35.4,56.1z"/>
<rect x="27" y="162" style="fill:#73AF00;" width="485" height="105.9"/>
<path style="fill:#2E3033;" d="M19.2,489.1L19.2,489.1C8.6,489.1,0,480.5,0,469.9V42c0-10.5,8.5-19,19-19h0.2
	c10.6,0,19.2,8.6,19.2,19.2V470C38.4,480.5,29.8,489.1,19.2,489.1z"/>
<g>
</g>
<g>
</g>
<g>
</g>
<g>
</g>
<g>
</g>
<g>
</g>
<g>
</g>
<g>
</g>
<g>
</g>
<g>
</g>
<g>
</g>
<g>
</g>
<g>
</g>
<g>
</g>
<g>
</g>
</svg>
