<?xml version="1.0" encoding="iso-8859-1"?>
<!-- Generator: Adobe Illustrator 19.0.0, SVG Export Plug-In . SVG Version: 6.00 Build 0)  -->
<svg version="1.1" id="Layer_1" xmlns="http://www.w3.org/2000/svg" xmlns:xlink="http://www.w3.org/1999/xlink" x="0px" y="0px"
	 viewBox="0 0 511.999 511.999" style="enable-background:new 0 0 511.999 511.999;" xml:space="preserve">
<path style="fill:#F5F5F5;" d="M223.817,374.657H28.871c-4.681,0-8.476-3.795-8.476-8.476V61.047c0-4.681,3.795-8.476,8.476-8.476
	h194.946V374.657z"/>
<path style="fill:#FF4B55;" d="M156.01,52.571l67.807,20.13l-67.807,20.13l67.807,20.13l-67.807,20.13l67.807,20.13l-67.807,20.13
	l67.807,20.13l-67.807,20.13l67.807,20.13l-67.807,20.13l67.807,20.13l-67.807,20.13l67.807,20.13l-67.807,20.13l67.807,20.13
	l-67.807,20.13h347.513c4.681,0,8.476-3.795,8.476-8.476V61.047c0-4.681-3.795-8.476-8.476-8.476
	C503.523,52.571,156.01,52.571,156.01,52.571z"/>
<path style="fill:#2E3033;" d="M19.203,489.087L19.203,489.087C8.598,489.087,0,480.489,0,469.884V41.957
	c0-10.519,8.527-19.045,19.045-19.045h0.158c10.606,0,19.203,8.598,19.203,19.203v427.768
	C38.407,480.489,29.809,489.087,19.203,489.087z"/>
<g>
</g>
<g>
</g>
<g>
</g>
<g>
</g>
<g>
</g>
<g>
</g>
<g>
</g>
<g>
</g>
<g>
</g>
<g>
</g>
<g>
</g>
<g>
</g>
<g>
</g>
<g>
</g>
<g>
</g>
</svg>
