<?xml version="1.0" encoding="iso-8859-1"?>
<!-- Generator: Adobe Illustrator 19.0.0, SVG Export Plug-In . SVG Version: 6.00 Build 0)  -->
<svg version="1.1" id="Layer_1" xmlns="http://www.w3.org/2000/svg" xmlns:xlink="http://www.w3.org/1999/xlink" x="0px" y="0px"
	 viewBox="0 0 512 512" style="enable-background:new 0 0 512 512;" xml:space="preserve">
<path style="fill:#73AF00;" d="M503.525,52.546H28.924c-4.68,0-8.475,3.795-8.475,8.475v305.101c0,4.68,3.795,8.475,8.475,8.475
	h474.601c4.68,0,8.475-3.795,8.475-8.475V61.021C512,56.34,508.205,52.546,503.525,52.546z"/>
<g>
	<polygon style="fill:#FF4B55;" points="59.106,52.546 266.224,188.243 473.341,52.546 	"/>
	<polygon style="fill:#FF4B55;" points="473.341,374.694 266.224,238.996 59.106,374.694 	"/>
</g>
<path style="fill:#F5F5F5;" d="M512,61.021c0-4.68-3.795-8.475-8.475-8.475h-30.183l-157.486,103.18
	c-13.345-11.46-30.66-18.429-49.632-18.429s-36.287,6.969-49.632,18.429L59.106,52.546H28.923c-4.68,0-8.475,3.795-8.475,8.475
	v16.853L193.315,191.13c-2.181,7.096-3.367,14.63-3.367,22.441c0,7.811,1.185,15.344,3.367,22.441L20.448,349.269v16.853
	c0,4.68,3.795,8.475,8.475,8.475h30.183l157.486-103.18c13.345,11.46,30.66,18.429,49.632,18.429
	c18.971,0,36.287-6.969,49.632-18.429l157.486,103.18h30.183c4.68,0,8.475-3.795,8.475-8.475v-16.853L339.132,236.012
	c2.181-7.096,3.367-14.63,3.367-22.441c0-7.811-1.185-15.344-3.367-22.441L512,77.873V61.021z"/>
<polygon style="fill:#FF4B55;" points="260.733,189.181 249.241,189.479 255.241,179.671 249.241,169.863 260.733,170.161 
	266.224,160.055 271.715,170.161 283.207,169.863 277.206,179.671 283.207,189.479 271.715,189.181 266.224,199.286 "/>
<path style="fill:#73AF00;" d="M266.224,162.721l4.746,8.729l9.933-0.254l-5.187,8.475l5.187,8.475l-9.933-0.254l-4.746,8.729
	l-4.746-8.729l-9.933,0.254l5.187-8.475l-5.187-8.475l9.933,0.254L266.224,162.721 M266.224,157.397l-2.234,4.108l-4.002,7.363
	l-8.378-0.215l-4.675-0.12l2.441,3.99l4.375,7.148l-4.375,7.148l-2.441,3.99l4.675-0.12l8.378-0.215l4.002,7.363l2.234,4.108
	l2.234-4.108l4.002-7.363l8.378,0.215l4.675,0.12l-2.441-3.99l-4.375-7.148l4.375-7.148l2.441-3.99l-4.675,0.12l-8.378,0.215
	l-4.002-7.363L266.224,157.397L266.224,157.397z"/>
<polygon style="fill:#FF4B55;" points="229.172,245.353 217.68,245.651 223.68,235.843 217.68,226.037 229.172,226.334 
	234.663,216.229 240.154,226.334 251.645,226.037 245.645,235.843 251.645,245.651 240.154,245.353 234.663,255.459 "/>
<path style="fill:#73AF00;" d="M234.663,218.893l4.746,8.729l9.933-0.254l-5.187,8.475l5.187,8.475l-9.933-0.254l-4.746,8.729
	l-4.746-8.729l-9.933,0.254l5.187-8.475l-5.187-8.475l9.933,0.254L234.663,218.893 M234.663,213.571l-2.234,4.108l-4.002,7.363
	l-8.378-0.215l-4.675-0.12l2.441,3.99l4.375,7.148l-4.375,7.148l-2.441,3.99l4.675-0.12l8.378-0.215l4.002,7.363l2.234,4.108
	l2.234-4.108l4.002-7.363l8.378,0.215l4.675,0.12l-2.441-3.99l-4.375-7.148l4.375-7.148l2.441-3.99l-4.675,0.12l-8.378,0.215
	l-4.002-7.363L234.663,213.571L234.663,213.571z"/>
<polygon style="fill:#FF4B55;" points="292.294,245.353 280.802,245.651 286.802,235.843 280.802,226.037 292.294,226.334 
	297.784,216.229 303.276,226.334 314.768,226.037 308.768,235.843 314.768,245.651 303.276,245.353 297.784,255.459 "/>
<path style="fill:#73AF00;" d="M297.784,218.893l4.746,8.729l9.933-0.254l-5.187,8.475l5.187,8.475l-9.933-0.254l-4.746,8.729
	l-4.746-8.729l-9.933,0.254l5.187-8.475l-5.187-8.475l9.933,0.254L297.784,218.893 M297.784,213.571l-2.234,4.108l-4.002,7.363
	l-8.378-0.215l-4.675-0.12l2.441,3.99l4.375,7.148l-4.375,7.148l-2.441,3.99l4.675-0.12l8.378-0.215l4.002,7.363l2.234,4.108
	l2.234-4.108l4.002-7.363l8.378,0.215l4.675,0.12l-2.441-3.99l-4.375-7.148l4.375-7.148l2.441-3.99l-4.675,0.12l-8.378,0.215
	l-4.002-7.363L297.784,213.571L297.784,213.571z"/>
<path style="fill:#2E3033;" d="M19.201,489.063L19.201,489.063C8.597,489.063,0,480.466,0,469.862V41.982
	c0-10.517,8.526-19.044,19.043-19.044h0.158c10.604,0,19.201,8.597,19.201,19.201v427.723
	C38.402,480.466,29.806,489.063,19.201,489.063z"/>
<g>
</g>
<g>
</g>
<g>
</g>
<g>
</g>
<g>
</g>
<g>
</g>
<g>
</g>
<g>
</g>
<g>
</g>
<g>
</g>
<g>
</g>
<g>
</g>
<g>
</g>
<g>
</g>
<g>
</g>
</svg>
