<?xml version="1.0" encoding="iso-8859-1"?>
<!-- Generator: Adobe Illustrator 19.0.0, SVG Export Plug-In . SVG Version: 6.00 Build 0)  -->
<svg version="1.1" id="Layer_1" xmlns="http://www.w3.org/2000/svg" xmlns:xlink="http://www.w3.org/1999/xlink" x="0px" y="0px"
	 viewBox="0 0 512 512" style="enable-background:new 0 0 512 512;" xml:space="preserve">
<path style="fill:#FFE15A;" d="M512,213.615H20.395V61.048c0-4.681,3.795-8.476,8.476-8.476h474.653
	c4.681,0,8.476,3.795,8.476,8.476V213.615z"/>
<path style="fill:#FF4B55;" d="M20.395,213.615H512v152.567c0,4.681-3.795,8.476-8.476,8.476H28.871
	c-4.681,0-8.476-3.795-8.476-8.476V213.615z"/>
<path style="fill:#73AF00;" d="M184.263,374.652H28.871c-4.681,0-8.476-3.795-8.476-8.476V61.043c0-4.681,3.795-8.476,8.476-8.476
	h155.392V374.652z"/>
<path style="fill:#2E3033;" d="M19.203,489.087L19.203,489.087C8.598,489.087,0,480.49,0,469.884V41.958
	c0-10.519,8.527-19.045,19.045-19.045h0.158c10.606,0,19.203,8.598,19.203,19.203v427.768
	C38.407,480.49,29.809,489.087,19.203,489.087z"/>
<g>
</g>
<g>
</g>
<g>
</g>
<g>
</g>
<g>
</g>
<g>
</g>
<g>
</g>
<g>
</g>
<g>
</g>
<g>
</g>
<g>
</g>
<g>
</g>
<g>
</g>
<g>
</g>
<g>
</g>
</svg>
