<?xml version="1.0" encoding="iso-8859-1"?>
<!-- Generator: Adobe Illustrator 19.0.0, SVG Export Plug-In . SVG Version: 6.00 Build 0)  -->
<svg version="1.1" id="Layer_1" xmlns="http://www.w3.org/2000/svg" xmlns:xlink="http://www.w3.org/1999/xlink" x="0px" y="0px"
	 viewBox="0 0 512.1 512.1" style="enable-background:new 0 0 512.1 512.1;" xml:space="preserve">
<path style="fill:#FF4B55;" d="M503.6,373.9H35.4c-4.6,0-8.4-3.7-8.4-8.4v-301c0-4.6,3.7-8.4,8.4-8.4h468.3c4.6,0,8.4,3.7,8.4,8.4
	v301C512,370.1,508.3,373.9,503.6,373.9z"/>
<path style="fill:#41479B;" d="M265.1,215H39.4c-4.6,0-8.4-3.7-8.4-8.4V64.5c0-4.6,3.7-8.4,8.4-8.4h225.8c4.6,0,8.4,3.7,8.4,8.4
	v142.2C273.5,211.3,269.8,215,265.1,215z"/>
<path style="fill:#F5F5F5;" d="M265.1,56.1h-14.5l-77.5,50.7V56.1h-41.8v50.7L53.9,56.1H39.4c-4.6,0-8.4,3.7-8.4,8.4v6.6l66.5,43.5
	H31v41.8h66.5L31,200v6.6c0,4.6,3.7,8.4,8.4,8.4h14.5l77.5-50.7V215h41.8v-50.7l77.5,50.7h14.5c4.6,0,8.4-3.7,8.4-8.4V200L207,156.5
	h66.5v-41.8H207l66.5-43.5v-6.6C273.5,59.9,269.8,56.1,265.1,56.1z"/>
<g>
	<polygon style="fill:#FF4B55;" points="273.5,123 164.8,123 164.8,56.1 139.7,56.1 139.7,123 31,123 31,148.1 139.7,148.1 
		139.7,215 164.8,215 164.8,148.1 273.5,148.1 	"/>
	<path style="fill:#FF4B55;" d="M123,114.7L35,57.5c-2.3,1.5-4,4-4,6.9v0.4l76.6,49.7H123V114.7z"/>
	<path style="fill:#FF4B55;" d="M188.5,114.7l83.7-54.3c-1.5-2.5-4-4.2-7.1-4.2h-1.8l-90.2,58.5H188.5z"/>
	<path style="fill:#FF4B55;" d="M115.8,156.5l-83.6,54.2c1.4,2.5,4,4.3,7.2,4.3H41l90.2-58.5H115.8z"/>
	<path style="fill:#FF4B55;" d="M273.4,207.3l-78.3-50.8h-15.4l88.9,57.7C271.3,213,273.1,210.4,273.4,207.3z"/>
</g>
<path style="fill:#F5F5F5;" d="M331,137.4c-1.6,0-3,1.3-3,3v110.5c0,9,6,38.8,62.7,47.8c56.7-9,62.7-38.8,62.7-47.8V140.3
	c0-1.6-1.3-3-3-3L331,137.4L331,137.4z"/>
<path style="fill:#73AF00;" d="M390.7,298.6c47.4-7.5,59.3-29.5,62-41.8h-124C331.4,269.1,343.4,291.1,390.7,298.6z"/>
<path style="fill:#82AFFF;" d="M429.6,200.1c0,0,3-3,0-9l-38.8-1.7l-38.8,1.7c-3,6,0,9,0,9c-3,3-3,6-3,6h6l6.5,10.7l29.4,16.2
	l29.4-16.2l6.5-10.7h6C432.6,206,432.6,203.1,429.6,200.1z"/>
<path style="fill:#F5F5F5;" d="M420.1,216.7c0,0-1.9-4.1-6.8-3.6c0,0-2.7-3.6-7.3-2.6c0,0-5.4-3.1-8.5,2.6c0,0-9.9-1-10.4,6.5
	c0,0,15.4,23.2,15.8,23.5c0.4,0.2,18.4,0.1,18.4,0.1l8.3-9.2l-8.2-11.8L420.1,216.7z"/>
<path style="fill:#F0C850;" d="M391.1,224.1c0,0-13.1-21.3-14.9-23.1c-1.8-1.7-5.4-3.4-9-0.4c0,0-10.8-0.9-9.3,7.3l3.1,12.4
	c0,0-2.7,8.6-4,9.5c-1.2,0.9-5.8,3.2-5.8,3.2l2.6,10.3l34.8-1.7L391.1,224.1z"/>
<path style="fill:#965032;" d="M406.2,214.8L406.2,214.8l-1-2.3c-0.1-0.2-0.2-0.3-0.4-0.4c-0.2-0.1-0.4-0.1-0.6,0l-6.5,2.9
	l-7.7-12.6c0.3-0.3,0.5-0.8,0.3-1.2c-0.2-0.6-0.8-0.9-1.4-0.7l-1.7,0.6l-1.2-3.4c-0.1-0.4-0.6-0.6-0.9-0.5c-0.4,0.1-0.6,0.6-0.5,0.9
	l1.2,3.5l-1.8,0.7c-0.6,0.2-0.9,0.9-0.7,1.4c0.2,0.5,0.6,0.7,1.1,0.7c0.1,0,0.1,0,0.2,0l2.5,15.3l-1.6,0.7c-0.4,0.2-0.5,0.6-0.4,0.9
	l0.9,2.6c0,0.4,0,1.2-0.1,2.1l-10.4-17.9c0.4-0.3,0.7-0.8,0.5-1.3c-0.2-0.6-0.8-0.9-1.4-0.7l-1.7,0.6l-1.2-3.4
	c-0.1-0.4-0.6-0.6-0.9-0.5c-0.4,0.1-0.6,0.6-0.5,0.9l1.2,3.5l-1.8,0.7c-0.6,0.2-0.9,0.9-0.7,1.4c0.1,0.4,0.5,0.7,0.9,0.7l4.5,28.2
	c-0.6,0.2-1.2,0.5-1.8,0.7c0,0-2.1,10.1-0.5,10.6s18.3,5.6,18.3,5.6s23-11,23.5-11.2s1.5-7.5,1.5-7.5L406.2,214.8z M404.8,215.4
	l-1.9,0.8l-0.6-1.6l1.9-0.8L404.8,215.4z M393.1,218.6l1.6-0.7l0.6,1.5l-1.7,0.7L393.1,218.6z M392.3,220.7l-1.9,0.8l-0.6-1.5l2-0.9
	L392.3,220.7z M396.7,218.8l-0.6-1.5l1.7-0.7l0.6,1.5L396.7,218.8z M399.1,216l1.7-0.8l0.6,1.6l-1.7,0.7L399.1,216z M388.6,202.9
	l7.7,12.6l-3.7,1.6l-4.7-14L388.6,202.9z M385.9,203.9l0.5-0.2l4.8,14.1l-2.8,1.2L385.9,203.9z M388.4,220.7l0.6,1.4l-1.8,0.8
	l-0.5-1.4L388.4,220.7z M374,208.7l11.3,19.4c-0.6,1.6-1.6,3.6-3.5,5.4l-8.3-24.6L374,208.7z M371.2,209.7l0.8-0.3l8.5,25.2
	c-1.3,1.1-2.9,2.1-4.9,3.1L371.2,209.7z"/>
<path style="fill:#FF4B55;" d="M432.3,186.6c-0.8-1.3-3.3-0.7-3.3-0.7s-0.7-1.5-2.6-1.6s-2.3,1.6-2.3,1.6s-0.4-0.3-2.5-0.2
	s-1.7,3.5-1.7,3.5s-0.8,0-3.5-0.9s-4.5-0.2-4.5-0.2c-0.1-1.4-0.9-2.5-0.9-2.5c-2.3,0.9-4.1-0.1-4.5-0.9c-0.4-0.8,0.7-2.1,0.7-3.1
	c0-1.1-1.5-1-2-1.9s0-1.4,1.4-2.1c1.4-0.6,2.6-2.8,1.8-4.7c-0.8-1.8-3.3-1.5-3.3-1.5c0.8,0.1,1.5,1.7,0.2,2.1
	c-1.4,0.3-2.6-4.6-2.6-4.6c3.1,2.1,5.4,0.8,6.1-1s-1.1-3.1-1.1-3.1c-1.4,2.2-3.7,0.3-2.4-1.1c1.3-1.4,1.4-3.7,1.4-3.7
	c-2.8,1.4-4.5-0.4-4.5-0.4c3.7-2.6,2.6-6.2,2.6-6.2c-1.4-0.6-4.3-0.1-4.3-0.1c0.6-1.2,0.5-3.5,0.5-3.5c-1.6-0.2-3.3,0.7-3.3,0.7
	c0.5-1.7-0.2-4.8-0.2-4.8c-1.1,0.2-3.2,0.8-3.2,0.8c-0.9-2-3.3-3.2-3.3-3.2s-2.4,1.2-3.3,3.2c0,0-2.1-0.6-3.2-0.8c0,0-0.7,3-0.2,4.8
	c0,0-1.7-1-3.3-0.7c0,0-0.1,2.2,0.5,3.5c0,0-2.9-0.5-4.3,0.1c0,0-1.1,3.6,2.6,6.2c0,0-1.7,1.7-4.5,0.4c0,0,0.1,2.3,1.4,3.7
	s-1.1,3.3-2.4,1.1c0,0-1.7,1.3-1.1,3.1c0.7,1.8,2.9,3.1,6.1,1c0,0-1.2,4.9-2.6,4.6c-1.4-0.3-0.7-1.9,0.2-2.1c0,0-2.4-0.3-3.3,1.5
	c-0.8,1.8,0.4,4.1,1.8,4.7c1.4,0.6,1.9,1.1,1.4,2.1c-0.5,0.9-2,0.9-2,1.9c0,1.1,1.1,2.3,0.7,3.1s-2.2,1.9-4.5,0.9
	c0,0-0.7,1.1-0.9,2.5c0,0-1.8-0.6-4.5,0.2s-3.5,0.9-3.5,0.9s0.4-3.5-1.7-3.5c-2.1-0.1-2.5,0.2-2.5,0.2s-0.4-1.7-2.3-1.6
	c-1.9,0.1-2.6,1.6-2.6,1.6s-2.5-0.5-3.3,0.7s-0.9,3.2,0.6,4s5.5,4.1,5.5,4.1l5.6,2.4l19.6-8.7l10.3,2.7l10.3-2.7l19.6,8.7l5.6-2.4
	c0,0,4-3.3,5.5-4.1C433.2,189.8,433.1,187.8,432.3,186.6z"/>
<path style="fill:#F5F5F5;" d="M384.6,155c0,0,0.2,2.6,4.1,1.9C388.7,156.9,388.6,154.1,384.6,155z"/>
<path style="fill:#FF4B55;" d="M370.2,259.1c0,0-2.8-0.1-5.7,2.1c-2.9,2.1-4.2,0.6-7.1,0.6s-3.6,3-3.6,3s-5.6,1.4-3.4,5.5
	c1.4,2.6,3.4,2.5,4.6,2.2c-0.1,1.7,0.3,3.7,2.3,4c3.8,0.7,5.5-1.4,4.7-4.6c0,0,0.5,3.3,3,3.2s4.2-1.5,3.9-4.9
	c-0.3-3.4,4.2-1.3,7.7-6.3L370.2,259.1z"/>
<g>
	<path style="fill:#82AFFF;" d="M353.8,271.1c0,0-1.7,2.3-1.2,4.5c0,0-3.7-1.2-1.7-6.7C350.9,268.9,353.4,268.2,353.8,271.1z"/>
	<path style="fill:#82AFFF;" d="M359.7,274.1c0,0-1,2.9,0.4,5.5c0,0-4.7-0.1-3.7-5.9C356.3,273.7,357.8,272.1,359.7,274.1z"/>
	<path style="fill:#82AFFF;" d="M364.4,273.8c0,0,0.8,2.4,0,4.8c0,0,3.8-0.2,3.2-5.7C367.5,272.8,365.5,272.1,364.4,273.8z"/>
</g>
<g>
	<path style="fill:#FF4B55;" d="M361,218c-0.4-2.9-18.4-4.6-17.3,10.6c0,0-2,0-3,1.8c-1,1.9-3.1,1.4-3.7,0.7c0,0,0.1,3.4,4.3,3.2
		c0,0-1.3,1-1.1,2.6c0.2,1.5,1.3,3.4,1.2,4.8c-0.1,1.3-1.3,3.1-1.3,3.1s3.2-1.1,3.4-3.4c0.2-2.3-0.3-4.2,0.3-5.4
		c0,0-0.3,1.6,1.1,3.7s1.5,4.5,0.9,6.1c0,0,3.6-1.8,2.9-5.2s-1.4-3.1-1.1-5c0,0,3.7,3.8,3.1,7c0,0,1.2-1.4,1.1-4.1
		c-0.1-2.7-2-4.5-2-4.5S362.2,227.9,361,218z"/>
	<path style="fill:#FF4B55;" d="M411.3,259.1c0,0,2.8-0.1,5.7,2.1c2.9,2.1,4.2,0.6,7.1,0.6s3.6,3,3.6,3s5.6,1.4,3.4,5.5
		c-1.4,2.6-3.4,2.5-4.6,2.2c0.1,1.7-0.3,3.7-2.3,4c-3.8,0.7-5.5-1.4-4.7-4.6c0,0-0.5,3.3-3,3.2c-2.5-0.1-4.2-1.5-3.9-4.9
		c0.3-3.4-4.2-1.3-7.7-6.3L411.3,259.1z"/>
</g>
<g>
	<path style="fill:#82AFFF;" d="M427.7,271.1c0,0,1.7,2.3,1.2,4.5c0,0,3.7-1.2,1.7-6.7C430.6,268.9,428.1,268.2,427.7,271.1z"/>
	<path style="fill:#82AFFF;" d="M421.8,274.1c0,0,1,2.9-0.4,5.5c0,0,4.7-0.1,3.7-5.9C425.2,273.7,423.7,272.1,421.8,274.1z"/>
	<path style="fill:#82AFFF;" d="M417.1,273.8c0,0-0.8,2.4,0,4.8c0,0-3.8-0.2-3.2-5.7C414,272.8,416,272.1,417.1,273.8z"/>
</g>
<path style="fill:#FF4B55;" d="M420.5,218c0.4-2.9,18.4-4.6,17.3,10.6c0,0,2,0,3,1.8c1,1.9,3.1,1.4,3.7,0.7c0,0-0.1,3.4-4.3,3.2
	c0,0,1.3,1,1.1,2.6c-0.2,1.5-1.3,3.4-1.2,4.8s1.3,3.1,1.3,3.1s-3.2-1.1-3.4-3.4c-0.2-2.3,0.3-4.2-0.3-5.4c0,0,0.3,1.6-1.1,3.7
	c-1.4,2-1.5,4.5-0.9,6.1c0,0-3.6-1.8-2.9-5.2s1.4-3.1,1.1-5c0,0-3.7,3.8-3.1,7c0,0-1.2-1.4-1.1-4.1c0.1-2.7,2-4.5,2-4.5
	S419.3,227.9,420.5,218z"/>
<path style="fill:#FFE15A;" d="M427.9,192.2c-0.7-0.5-1.6-0.3-2.1,0.4c-0.9,1.4-2.2,2.3-3.8,2.5c-5.3,0.9-13-4.3-15.3-6
	c-3.2-2.4-7.2-2.8-9.9-1.2c-1.1,0.4-4.3,1.4-6.1,1.4c-1.8,0-5-1-6.1-1.4c-2.7-1.6-6.7-1.2-9.9,1.2c-2.2,1.6-9.9,6.9-15.3,6
	c-1.6-0.3-2.9-1.1-3.8-2.5c-0.5-0.7-1.4-0.9-2.1-0.4s-0.9,1.4-0.4,2.1c1.4,2.1,3.3,3.4,5.8,3.8c0.6,0.1,1.2,0.2,1.9,0.2
	c5.7,0,12.1-4.1,15.7-6.7c2.6-1.9,5.6-1.9,6.9-0.8c0.3,0.3,0.7,0.7,0.6,1.3c0,0.3-0.2,0.5-0.6,0.8c0.1-0.5-0.1-0.9-0.4-1.3
	c-0.6-0.6-1.5-0.6-2.1,0c-0.8,0.8-0.8,2-0.2,3c0.6,1,2,1.7,3.7,1.1c0.8-0.3,1.5-0.9,2-1.6c2.3-0.7,4.3-0.7,4.3-0.7s2.1,0,4.3,0.7
	c0.5,0.7,1.1,1.3,2,1.6c1.6,0.6,3-0.1,3.7-1.1c0.6-1,0.6-2.2-0.2-3c-0.6-0.6-1.5-0.6-2.1,0c-0.4,0.4-0.5,0.8-0.4,1.3
	c-0.3-0.2-0.5-0.5-0.6-0.8c-0.1-0.5,0.3-1,0.6-1.3c1.3-1.1,4.3-1.1,6.9,0.8c3.5,2.6,10,6.7,15.7,6.7c0.6,0,1.3,0,1.9-0.2
	c2.4-0.4,4.4-1.7,5.8-3.8C428.8,193.5,428.6,192.6,427.9,192.2z"/>
<g>
	<path style="fill:#82AFFF;" d="M352.7,193.8c0,0-0.2-3.3-0.4-4.4c-0.1-1.1-2.1-1.9-2.9-0.8C348.7,189.7,348.4,191.7,352.7,193.8z"
		/>
	<path style="fill:#82AFFF;" d="M353.4,192.7c0,0,2.9-2.4,2.6-3.6c-0.4-1.3-1.2-1.9-2.1-1.5C352.9,187.9,352.4,190.2,353.4,192.7z"
		/>
	<path style="fill:#82AFFF;" d="M359.2,190.9c0.4-0.4,0.6-2.5-0.6-2.7s-2.7,1.6-2.6,3.8C355.9,192,358.4,191.7,359.2,190.9z"/>
	<path style="fill:#82AFFF;" d="M357.9,192c-1.4,0.4-2.7,1.6-2.7,1.6s2.4,1.8,4.1,1.2C361.1,194.3,360.3,191.3,357.9,192z"/>
</g>
<path style="fill:#F5F5F5;" d="M396.9,155c0,0-0.2,2.6-4.1,1.9C392.8,156.9,392.9,154.1,396.9,155z"/>
<g>
	<path style="fill:#82AFFF;" d="M428.8,193.8c0,0,0.2-3.3,0.4-4.4c0.1-1.1,2.1-1.9,2.9-0.8C432.8,189.7,433.1,191.7,428.8,193.8z"/>
	<path style="fill:#82AFFF;" d="M428.1,192.7c0,0-2.9-2.4-2.6-3.6c0.4-1.3,1.2-1.9,2.1-1.5C428.6,187.9,429.1,190.2,428.1,192.7z"/>
	<path style="fill:#82AFFF;" d="M422.3,190.9c-0.4-0.4-0.6-2.5,0.6-2.7s2.7,1.6,2.6,3.8C425.6,192,423.1,191.7,422.3,190.9z"/>
	<path style="fill:#82AFFF;" d="M423.6,192c1.4,0.4,2.7,1.6,2.7,1.6s-2.4,1.8-4.1,1.2C420.4,194.3,421.2,191.3,423.6,192z"/>
</g>
<g>
	<path style="fill:#464655;" d="M389.2,161.2l1.2,1.2c0.2,0.2,0.5,0.2,0.7,0l1.2-1.2c0.3-0.3,0.1-0.9-0.4-0.9h-2.4
		C389.1,160.3,388.9,160.8,389.2,161.2z"/>
	<path style="fill:#464655;" d="M388.6,166c-0.9,0-1.6-0.3-2.2-0.9c-0.5-0.6-0.8-1.4-0.6-2.3c0-0.3,0.3-0.5,0.6-0.4
		c0.3,0,0.5,0.3,0.4,0.6c-0.1,0.5,0.1,1,0.4,1.4s0.8,0.6,1.5,0.5c1.3-0.1,1.5-1.3,1.5-1.4v-2.3c0-0.3,0.2-0.5,0.5-0.5
		s0.5,0.2,0.5,0.5v2.4c-0.1,0.8-0.8,2.3-2.5,2.4C388.7,166,388.6,166,388.6,166z"/>
	<path style="fill:#464655;" d="M392.9,166h-0.1c-1.7-0.1-2.4-1.5-2.5-2.3v-2.5c0-0.3,0.2-0.5,0.5-0.5s0.5,0.2,0.5,0.5v2.4
		c0,0.1,0.3,1.3,1.5,1.3c0.6,0,1.1-0.2,1.5-0.5c0.3-0.4,0.5-0.9,0.4-1.4c0-0.3,0.1-0.6,0.4-0.6s0.6,0.1,0.6,0.4
		c0.1,0.8-0.1,1.7-0.6,2.3C394.6,165.7,393.8,166,392.9,166z"/>
</g>
<g>
	<path style="fill:#F5F5F5;" d="M408.7,241.9c0,0-3.7-6-8.1-2s-6,8.8-11,8.5c-2.7-0.2-4.1-1.5-4.9-2.5c1.3-1.1,2.3-2.7,1.2-5.2
		c-2.2-5.4-10.5-3.7-12.7,2.1c0,0,2.6-8.6-6.5-5.7c0,0-1.1-6-6.3-4.4c-2.8,0.9-3.9,2.6-4.3,4.1c-1.1-0.3-2.5-0.2-3.8,0.8l6.6,17.8
		l10,0.1l2.2,3.4l13.1,8.2l2.4,5h8.2c0,0,0.6-5.1,5-6.6s11.4-4.6,12.2-7.3c0.7-2.7,0.7-2.7,0.7-2.7l8,0.1c0.9-0.6,6.7-10.2,6.7-10.2
		l2.7-12.3C428.7,232.7,411.5,230.5,408.7,241.9z"/>
	<path style="fill:#F5F5F5;" d="M430.2,232.8v0.1c0.1,0,0.1,0,0.1,0L430.2,232.8z"/>
</g>
<g>
	<path style="fill:#FFE15A;" d="M376,261c-3.2-1.3-4.4-3.1-4.8-4.1c-0.4-0.9-0.3-1.5-0.2-1.8c0.2-0.5,0.5-0.8,0.7-0.8
		c0.2-0.1,0.5,0.1,0.5,0.1c0.1,0.1,0.2,0.5,0.1,0.6c-0.6,0.6-0.6,1.5-0.1,2.1c0.6,0.6,1.5,0.6,2.1,0.1c0.6-0.6,1-1.4,1-2.3
		c0-1-0.3-1.9-0.9-2.5s-1.9-1.2-3.2-1c-0.3,0-0.6,0.2-0.9,0.3c0.2-2.1-0.6-3.1-1.2-3.6c-1-0.7-2.4-0.7-3.6,0s-1.9,1.9-1.7,3.2
		c0.1,0.8,0.9,1.3,1.7,1.2c0.8-0.1,1.5-0.9,1.4-1.8c0.2-0.2,0.4-0.2,0.4-0.2s0.2,0.3,0,1.4c-0.4,1.7-1.2,2.7-2.6,3
		c-1.7,0.5-3.8-0.2-5.1-1.6c-1.8-1.9-5.5-12.3-7.7-19.2c9.4-4.5,10.6-11.9,10.4-16.1c-0.3-6.3-4.1-12.8-8.3-14.1
		c-1.7-0.5-4.1-0.6-5.9,0.3c-1,0.5-1.7,1.3-2,2.4c-0.6,2.1,0.7,3.8,2.2,4.3c1.6,0.6,3.2-0.1,3.9-1.7c0.3-0.8,0-1.6-0.8-1.9
		c-0.8-0.3-1.6,0.1-1.9,0.8c-0.1,0-0.3,0-0.4-0.2c-0.1-0.1-0.1-0.3-0.1-0.4c0-0.2,0.2-0.4,0.6-0.6c1-0.5,2.6-0.4,3.6-0.1
		c2.4,0.8,5.9,5.5,6.2,11.4c0.2,3.5-0.9,10-9.8,13.7c-0.7,0.3-1.1,1.1-0.9,1.8c0.6,1.9,5.8,18.3,8.7,21.6c1.6,1.7,4,2.8,6.3,2.8
		c0.6,0,1.2-0.1,1.8-0.2c1-0.3,1.8-0.8,2.6-1.4c0.1,0.5,0.2,1.1,0.4,1.7c0.6,1.4,2.2,4,6.6,5.8c9,3.6,9.9,6.1,9.9,6.9
		c0,0.5-0.3,0.7-0.5,0.9c-0.1,0.1-0.2,0.1-0.3,0.1c0.3-0.5,0.4-1.1,0.1-1.6c-0.4-0.7-1.3-1-2-0.6c-1,0.6-1.7,1.9-1.1,3.4
		c0.5,1.1,1.6,1.8,2.9,1.8c0.2,0,0.4,0,0.6-0.1c1.9-0.3,3.2-1.9,3.3-3.8C388.2,266.4,381.4,263.1,376,261z"/>
	<path style="fill:#FFE15A;" d="M405.5,261c3.2-1.3,4.4-3.1,4.8-4.1c0.4-0.9,0.3-1.5,0.2-1.8c-0.2-0.5-0.5-0.8-0.7-0.8
		c-0.2-0.1-0.5,0.1-0.5,0.1c-0.1,0.1-0.2,0.5-0.1,0.6c0.6,0.6,0.6,1.5,0.1,2.1c-0.6,0.6-1.5,0.6-2.1,0.1c-0.6-0.6-1-1.4-1-2.3
		c0-1,0.3-1.9,0.9-2.5s1.9-1.2,3.2-1c0.3,0,0.6,0.2,0.9,0.3c-0.2-2.1,0.6-3.1,1.2-3.6c1-0.7,2.4-0.7,3.6,0s1.9,1.9,1.7,3.2
		c-0.1,0.8-0.9,1.3-1.7,1.2c-0.8-0.1-1.5-0.9-1.4-1.8c-0.2-0.2-0.4-0.2-0.4-0.2s-0.2,0.3,0,1.4c0.4,1.7,1.2,2.7,2.6,3
		c1.7,0.5,3.8-0.2,5.1-1.6c1.8-1.9,5.5-12.3,7.7-19.2c-9.4-4.5-10.6-11.9-10.4-16.1c0.3-6.3,4.1-12.8,8.3-14.1
		c1.7-0.5,4.1-0.6,5.9,0.3c1,0.5,1.7,1.3,2,2.4c0.6,2.1-0.7,3.8-2.2,4.3c-1.6,0.6-3.2-0.1-3.9-1.7c-0.3-0.8,0-1.6,0.8-1.9
		c0.8-0.3,1.6,0.1,1.9,0.8c0.1,0,0.3,0,0.4-0.2c0.1-0.1,0.1-0.3,0.1-0.4c0-0.2-0.2-0.4-0.6-0.6c-1-0.5-2.6-0.4-3.6-0.1
		c-2.4,0.8-5.9,5.5-6.2,11.4c-0.2,3.5,0.9,10,9.8,13.7c0.7,0.3,1.1,1.1,0.9,1.8c-0.6,1.9-5.8,18.3-8.7,21.6c-1.6,1.7-4,2.8-6.3,2.8
		c-0.6,0-1.2-0.1-1.8-0.2c-1-0.3-1.8-0.8-2.6-1.4c-0.1,0.5-0.2,1.1-0.4,1.7c-0.6,1.4-2.2,4-6.6,5.8c-9,3.6-9.9,6.1-9.9,6.9
		c0,0.5,0.3,0.7,0.5,0.9c0.1,0.1,0.2,0.1,0.3,0.1c-0.3-0.5-0.4-1.1-0.1-1.6c0.4-0.7,1.3-1,2-0.6c1,0.6,1.7,1.9,1.1,3.4
		c-0.5,1.1-1.6,1.8-2.9,1.8c-0.2,0-0.4,0-0.6-0.1c-1.9-0.3-3.2-1.9-3.3-3.8C393.3,266.4,400.1,263.1,405.5,261z"/>
</g>
<path style="fill:#2E3033;" d="M19.2,489.1L19.2,489.1C8.6,489.1,0,480.5,0,469.9V42c0-10.5,8.5-19,19-19h0.2
	c10.6,0,19.2,8.6,19.2,19.2V470C38.4,480.5,29.8,489.1,19.2,489.1z"/>
<g>
</g>
<g>
</g>
<g>
</g>
<g>
</g>
<g>
</g>
<g>
</g>
<g>
</g>
<g>
</g>
<g>
</g>
<g>
</g>
<g>
</g>
<g>
</g>
<g>
</g>
<g>
</g>
<g>
</g>
</svg>
