<?xml version="1.0" encoding="iso-8859-1"?>
<!-- Generator: Adobe Illustrator 19.0.0, SVG Export Plug-In . SVG Version: 6.00 Build 0)  -->
<svg version="1.1" id="Layer_1" xmlns="http://www.w3.org/2000/svg" xmlns:xlink="http://www.w3.org/1999/xlink" x="0px" y="0px"
	 viewBox="0 0 512 512" style="enable-background:new 0 0 512 512;" xml:space="preserve">
<path style="fill:#FFE15A;" d="M503.524,374.657H28.871c-4.681,0-8.476-3.795-8.476-8.476V61.048c0-4.681,3.795-8.476,8.476-8.476
	h474.653c4.681,0,8.476,3.795,8.476,8.476v305.133C512,370.862,508.205,374.657,503.524,374.657z"/>
<path style="fill:#F5F5F5;" d="M20.395,61.048v50.856L512,315.326v-59.331L24.215,54.152C21.965,55.676,20.395,58.126,20.395,61.048
	z"/>
<path style="fill:#464655;" d="M20.395,171.235l487.784,201.841c2.249-1.524,3.819-3.973,3.819-6.895v-50.856L20.394,111.903v59.331
	L20.395,171.235L20.395,171.235z"/>
<g>
	<path style="fill:#FF4B55;" d="M313.811,198.564l0.006-0.241c0,0-0.112-1.161-0.324-3.34c-0.065-1.089-0.315-2.415-0.645-3.96
		c-0.255-1.559-0.749-3.302-1.383-5.226c-1.273-3.818-3.232-8.377-6.617-12.791c-0.409-0.546-0.893-1.084-1.338-1.626
		c1.92-2.201,3.792-4.76,5.557-7.85c0,0-9.678,0.444-20.549-4.299c-3.588-1.869-7.485-3.402-11.76-4.406l-2.028-8.11
		c-0.434-1.734-1.993-2.952-3.78-2.952h-2.803v-3.897h13.64l-3.897-7.795l3.897-7.795h-13.64v-3.897h-3.898v23.383h-2.803
		c-1.788,0-3.347,1.217-3.78,2.952l-1.983,7.936c-2.633,0.56-5.255,1.272-7.8,2.354c-2.083,0.834-4.097,1.878-6.063,3.047
		c-9.998,3.837-18.49,3.479-18.49,3.479c1.765,3.087,3.634,5.646,5.553,7.846c-0.389,0.473-0.82,0.896-1.196,1.383
		c-2.655,3.605-4.775,7.659-6.393,11.964c-1.539,4.18-2.414,9.485-2.707,13.362l-0.007,3.75c-0.039,1.177,0.095,2.344,0.219,3.514
		c0.154,2.359,0.675,4.662,1.166,6.981c1.215,4.569,2.994,9.013,5.418,13.094c4.852,8.174,12.254,14.618,20.552,18.613
		c4.287,1.889,8.337,3.328,13.169,4.015c2.575,0.479,4.178,0.471,6.085,0.638l0.346,0.025l0.174,0.013l0.566,0.015l0.812-0.034
		l1.617-0.073c1.073-0.072,2.147-0.058,3.199-0.215c8.48-0.93,16.124-4.227,22.092-8.509c5.967-4.358,10.254-9.672,13.19-14.738
		c2.982-5.071,4.521-9.977,5.469-13.996c0.453-2.007,0.79-3.841,0.913-5.566c0.193-1.707,0.305-3.105,0.254-4.019
		C313.814,199.618,313.811,198.564,313.811,198.564z M242.98,226.03c-2.708-2.111-5.155-4.626-7.387-7.401
		c-2.148-2.842-3.864-6.047-5.211-9.454c-1.27-3.334-1.97-7.343-2.313-10.611c-0.095-4.535,0.118-7.627,0.983-11.494
		c0.944-3.672,2.32-7.267,4.236-10.584c0.111-0.192,0.262-0.355,0.376-0.545c8.859,6.921,18.214,6.428,24.737,3.069v7.622
		c2.152,0,3.897,4.362,3.897,9.743s-1.745,9.743-3.897,9.743v3.897c7.309,9.745,3.956,17.968-0.536,22.762
		c-2.038-0.443-4.153-1.038-6.131-1.817C248.668,229.768,245.754,228.049,242.98,226.03z M304.319,198.127
		c-0.006,0.057-0.11,1.059-0.308,2.969c-0.059,1.065-0.295,2.073-0.567,3.19c-0.194,1.126-0.606,2.49-1.135,4.036
		c-1.055,3.028-2.642,6.644-5.402,10.109c-2.697,3.475-6.335,6.907-10.874,9.592c-3.451,2.048-7.507,3.434-11.792,4.418
		c-4.34-4.837-7.396-12.893-0.248-22.423v-3.897c-2.152,0-3.897-4.362-3.897-9.743s1.745-9.743,3.897-9.743v-7.622
		c6.531,3.363,15.9,3.853,24.769-3.093c0.152,0.255,0.337,0.515,0.48,0.768c2.358,4.121,3.524,8.085,4.255,11.312
		c0.349,1.629,0.605,3.083,0.665,4.375c0.135,1.278,0.232,2.359,0.177,3.249C304.326,197.133,304.32,197.899,304.319,198.127z"/>
	<path style="fill:#FF4B55;" d="M266.197,256.782c-14.39,0-27.443-5.606-37.184-14.715c-1.788-1.672-4.618-1.47-6.212,0.39
		l-14.923,17.411c-1.586,1.851-0.271,4.709,2.166,4.709h9.386l12.512,6.256c1.758,0.879,3.896,0.311,4.986-1.324l4.027-6.041
		c7.783,3.211,16.3,5.006,25.242,5.006s17.459-1.795,25.242-5.006l4.027,6.041c1.09,1.636,3.227,2.203,4.986,1.324l12.512-6.256
		h9.386c2.437,0,3.753-2.859,2.166-4.709l-14.923-17.411c-1.593-1.859-4.423-2.062-6.212-0.39
		C293.64,251.178,280.588,256.782,266.197,256.782z"/>
	<path style="fill:#FF4B55;" d="M211.636,241.194h-19.487l3.897-35.076c0,0-13.641-6.821-12.213-26.842
		c0.174-2.435,2.232-4.336,4.673-4.336h3.326c2.297,0,4.222,1.664,4.602,3.93c0.82,4.888,3.371,12.912,11.303,15.557
		L211.636,241.194z"/>
	<path style="fill:#FF4B55;" d="M320.759,241.194h19.486l-3.897-35.076c0,0,13.641-6.821,12.213-26.842
		c-0.174-2.435-2.232-4.336-4.673-4.336h-3.326c-2.297,0-4.222,1.664-4.602,3.93c-0.82,4.888-3.371,12.912-11.303,15.557
		L320.759,241.194z"/>
</g>
<g>
	<path style="fill:#FFE15A;" d="M213.585,245.091h-23.383c-1.076,0-1.948-0.872-1.948-1.948l0,0c0-1.076,0.872-1.948,1.948-1.948
		h23.383c1.076,0,1.948,0.872,1.948,1.948l0,0C215.533,244.219,214.66,245.091,213.585,245.091z"/>
	<path style="fill:#FFE15A;" d="M342.193,245.091H318.81c-1.076,0-1.948-0.872-1.948-1.948l0,0c0-1.076,0.872-1.948,1.948-1.948
		h23.383c1.076,0,1.948,0.872,1.948,1.948l0,0C344.142,244.219,343.27,245.091,342.193,245.091z"/>
</g>
<path style="fill:#2E3033;" d="M19.203,489.087L19.203,489.087C8.598,489.087,0,480.49,0,469.884V41.958
	c0-10.519,8.527-19.045,19.045-19.045h0.158c10.606,0,19.203,8.598,19.203,19.203v427.768
	C38.407,480.49,29.809,489.087,19.203,489.087z"/>
<g>
</g>
<g>
</g>
<g>
</g>
<g>
</g>
<g>
</g>
<g>
</g>
<g>
</g>
<g>
</g>
<g>
</g>
<g>
</g>
<g>
</g>
<g>
</g>
<g>
</g>
<g>
</g>
<g>
</g>
</svg>
