<?xml version="1.0" encoding="iso-8859-1"?>
<!-- Generator: Adobe Illustrator 19.0.0, SVG Export Plug-In . SVG Version: 6.00 Build 0)  -->
<svg version="1.1" id="Layer_1" xmlns="http://www.w3.org/2000/svg" xmlns:xlink="http://www.w3.org/1999/xlink" x="0px" y="0px"
	 viewBox="0 0 512 512" style="enable-background:new 0 0 512 512;" xml:space="preserve">
<path style="fill:#73AF00;" d="M20.395,267.296H512v98.885c0,4.681-3.795,8.476-8.476,8.476H28.871
	c-4.681,0-8.476-3.795-8.476-8.476V267.296z"/>
<path style="fill:#FF4B55;" d="M28.871,52.572h474.653c4.681,0,8.476,3.795,8.476,8.476v98.885H20.395V61.048
	C20.395,56.366,24.19,52.572,28.871,52.572z"/>
<rect x="20.395" y="159.93" style="fill:#FFE15A;" width="491.6" height="107.36"/>
<path style="fill:#73AF00;" d="M255.249,165.563c0,0-0.218,0.272-0.627,0.784c-0.341,0.473-0.853,1.198-1.411,2.165
	c-1.1,1.92-2.254,4.895-2.285,8.442c-0.012,1.729,0.345,3.829,0.936,5.499c0.64,1.844,1.7,3.607,3.042,5.181
	c1.343,1.589,3.138,2.814,5.057,3.719c0.951,0.483,1.996,0.761,3.032,1.016c0.514,0.157,1.061,0.164,1.588,0.268
	c0.265,0.05,0.539,0.028,0.807,0.049l0.405,0.018l0.202,0.011l0.101,0.005l0.051,0.003l0.025,0.001
	c-0.082,0.003,0.218-0.004-0.177,0.006c0.657-0.038,1.454-0.043,1.995-0.109c0.473-0.11,0.87-0.091,1.411-0.251
	c1.037-0.255,2.081-0.533,3.032-1.016c1.919-0.905,3.714-2.13,5.057-3.719c1.341-1.574,2.402-3.337,3.042-5.181
	c0.612-1.875,0.94-3.67,0.936-5.507c-0.03-3.531-1.185-6.518-2.284-8.435c-0.555-0.962-1.069-1.693-1.435-2.186
	c-0.38-0.485-0.583-0.745-0.583-0.745l-0.051-0.065c-0.366-0.466-0.283-1.14,0.183-1.506c0.369-0.288,0.868-0.297,1.24-0.058
	c0,0,0.313,0.2,0.9,0.576c0.555,0.416,1.415,1.005,2.341,1.958c1.859,1.841,4.274,5.122,5.145,9.888
	c0.431,2.281,0.478,5.041-0.117,7.753c-0.576,2.74-1.745,5.574-3.631,8.053c-1.853,2.491-4.343,4.694-7.303,6.179
	c-1.46,0.779-3.049,1.344-4.68,1.738c-0.782,0.23-1.774,0.324-2.657,0.464c-0.827,0.091-1.417,0.093-2.137,0.144l-0.281,0.001
	l-0.078-0.004l-0.158-0.007l-0.315-0.016l-0.63-0.034c-0.42-0.034-0.841-0.028-1.257-0.1c-0.829-0.146-1.672-0.214-2.48-0.447
	c-1.631-0.393-3.221-0.959-4.68-1.738c-2.96-1.485-5.45-3.689-7.303-6.179c-1.886-2.48-3.055-5.313-3.631-8.053
	c-0.617-2.919-0.539-5.373-0.115-7.762c0.869-4.752,3.284-8.044,5.144-9.881c0.923-0.948,1.786-1.543,2.365-1.979
	c0.557-0.35,0.855-0.537,0.855-0.537c0.505-0.317,1.172-0.165,1.489,0.34C255.574,164.711,255.528,165.215,255.249,165.563z"/>
<path style="fill:#FF4B55;" d="M264.068,249.972v13.414c0,1.338-1.618,2.009-2.564,1.063l-0.738-0.738
	c-0.613-0.613-0.958-1.445-0.958-2.312v-11.427L264.068,249.972L264.068,249.972z"/>
<path style="fill:#FFE15A;" d="M257.677,247.841v9.737c0,0.585,0.232,1.146,0.646,1.561l1.483,1.483v-12.781H257.677z"/>
<path style="fill:#73AF00;" d="M255.547,247.841v5.225c0,0.746,0.297,1.461,0.823,1.989l1.306,1.306v-8.52L255.547,247.841
	L255.547,247.841z"/>
<path style="fill:#FF4B55;" d="M268.328,249.972v13.414c0,1.338,1.618,2.009,2.564,1.063l0.738-0.738
	c0.613-0.613,0.958-1.445,0.958-2.312v-11.427L268.328,249.972L268.328,249.972z"/>
<path style="fill:#FFE15A;" d="M274.717,247.841v9.737c0,0.585-0.232,1.146-0.646,1.561l-1.483,1.483v-12.781H274.717z"/>
<path style="fill:#73AF00;" d="M276.848,247.841v5.225c0,0.746-0.297,1.461-0.823,1.989l-1.306,1.306v-8.52L276.848,247.841
	L276.848,247.841z"/>
<path style="fill:#FF4B55;" d="M276.848,209.499l23.431-17.041v35.044c0,10.057-8.153,18.208-18.208,18.208l0,0
	c-3.413,0-6.756-0.959-9.651-2.767l-12.612-7.883v-25.857L276.848,209.499z"/>
<path style="fill:#FFE15A;" d="M291.758,198.656v24.587c0,10.057-8.153,18.208-18.208,18.208c-1.512,0-3.003-0.218-4.455-0.586
	l-9.287-5.805v-25.857l17.041,0.296L291.758,198.656z"/>
<path style="fill:#73AF00;" d="M285.369,203.304v15.872c0,10.057-8.153,18.208-18.208,18.208c-1.512,0-3.004-0.218-4.455-0.586
	l-2.898-1.811v-25.784l17.041,0.296L285.369,203.304z"/>
<polygon style="fill:#F5F5F5;" points="301.556,188.625 310.93,183.939 304.113,192.459 300.279,192.459 "/>
<path style="fill:#FF4B55;" d="M289.629,220.151l23.431-17.041v35.044c0,10.057-8.153,18.208-18.208,18.208l0,0
	c-3.413,0-6.756-0.959-9.651-2.767l-12.612-7.883v-25.857L289.629,220.151z"/>
<path style="fill:#73AF00;" d="M298.149,213.954v15.872c0,10.057-8.153,18.208-18.208,18.208c-1.512,0-3.003-0.218-4.455-0.586
	l-2.898-1.811v-25.783l17.041,0.296L298.149,213.954z"/>
<polygon style="fill:#F5F5F5;" points="314.337,199.275 323.71,194.589 316.894,203.11 313.059,203.11 "/>
<path style="fill:#FF4B55;" d="M283.238,215.89l23.431-17.041v35.044c0,10.057-8.153,18.208-18.208,18.208l0,0
	c-3.413,0-6.756-0.959-9.651-2.767l-12.612-7.883v-25.857L283.238,215.89z"/>
<path style="fill:#FFE15A;" d="M298.149,205.046v24.587c0,10.057-8.153,18.208-18.208,18.208c-1.512,0-3.003-0.218-4.455-0.586
	l-9.288-5.805v-25.857l17.041,0.296L298.149,205.046z"/>
<path style="fill:#73AF00;" d="M291.758,209.693v15.872c0,10.057-8.153,18.208-18.208,18.208c-1.512,0-3.003-0.218-4.455-0.586
	l-2.898-1.811v-25.784l17.041,0.296L291.758,209.693z"/>
<polygon style="fill:#F5F5F5;" points="307.947,195.015 317.32,190.329 310.503,198.849 306.67,198.849 "/>
<path style="fill:#FF4B55;" d="M255.547,209.499l-23.431-17.041v35.044c0,10.057,8.153,18.208,18.208,18.208l0,0
	c3.413,0,6.756-0.959,9.651-2.767l12.612-7.883v-25.857L255.547,209.499z"/>
<path style="fill:#FFE15A;" d="M240.636,198.656v24.587c0,10.057,8.153,18.208,18.208,18.208c1.512,0,3.003-0.218,4.455-0.586
	l9.288-5.805v-25.857l-17.041,0.296L240.636,198.656z"/>
<path style="fill:#73AF00;" d="M247.027,203.304v15.872c0,10.057,8.153,18.208,18.208,18.208c1.512,0,3.004-0.218,4.455-0.586
	l2.898-1.811v-25.784l-17.041,0.296L247.027,203.304z"/>
<polygon style="fill:#F5F5F5;" points="230.838,188.625 221.465,183.939 228.282,192.459 232.115,192.459 "/>
<path style="fill:#FF4B55;" d="M242.766,220.151l-23.431-17.041v35.044c0,10.057,8.153,18.208,18.208,18.208l0,0
	c3.413,0,6.756-0.959,9.651-2.767l12.612-7.883v-25.857L242.766,220.151z"/>
<path style="fill:#73AF00;" d="M234.246,213.954v15.872c0,10.057,8.153,18.208,18.208,18.208c1.512,0,3.003-0.218,4.455-0.586
	l2.898-1.811v-25.783l-17.041,0.296L234.246,213.954z"/>
<polygon style="fill:#F5F5F5;" points="218.057,199.275 208.685,194.589 215.501,203.11 219.335,203.11 "/>
<path style="fill:#FF4B55;" d="M249.156,215.89l-23.431-17.041v35.044c0,10.057,8.153,18.208,18.208,18.208l0,0
	c3.413,0,6.756-0.959,9.651-2.767l12.612-7.883v-25.857L249.156,215.89z"/>
<path style="fill:#FFE15A;" d="M234.246,205.046v24.587c0,10.057,8.153,18.208,18.208,18.208c1.512,0,3.003-0.218,4.455-0.586
	l9.288-5.805v-25.857l-17.041,0.296L234.246,205.046z"/>
<path style="fill:#73AF00;" d="M240.636,209.693v15.872c0,10.057,8.153,18.208,18.208,18.208c1.512,0,3.003-0.218,4.455-0.586
	l2.898-1.811v-25.784l-17.041,0.296L240.636,209.693z"/>
<g>
	<path style="fill:#FFBE5A;" d="M238.302,247.561l-2.809-2.809c-1.703-1.703-1.657-4.478,0.102-6.124l46.488-43.684l6.025,6.025
		l-43.684,46.488C242.78,249.218,240.005,249.263,238.302,247.561z"/>
	<circle style="fill:#FFBE5A;" cx="236.9" cy="246.16" r="2.13"/>
</g>
<ellipse transform="matrix(-0.7071 -0.7071 0.7071 -0.7071 346.7179 539.5077)" style="fill:#F5F5F5;" cx="285.095" cy="197.946" rx="4.259" ry="2.13"/>
<g>
	<path style="fill:#FFBE5A;" d="M294.092,247.561l2.809-2.809c1.703-1.703,1.657-4.478-0.102-6.124l-46.488-43.684l-6.025,6.025
		l43.684,46.488C289.615,249.218,292.39,249.263,294.092,247.561z"/>
	<circle style="fill:#FFBE5A;" cx="295.49" cy="246.16" r="2.13"/>
</g>
<ellipse transform="matrix(0.7071 -0.7071 0.7071 0.7071 -67.5451 232.8526)" style="fill:#F5F5F5;" cx="247.305" cy="197.96" rx="4.259" ry="2.13"/>
<ellipse style="fill:#FFBE5A;" cx="266.2" cy="223.35" rx="18.835" ry="22.366"/>
<polygon style="fill:#FF4B55;" points="266.197,203.11 267.197,207.448 269.489,203.631 269.098,208.066 272.458,205.144 
	270.716,209.241 274.814,207.5 271.891,210.859 276.327,210.469 272.508,212.761 276.848,213.76 272.508,214.76 276.327,217.052 
	271.891,216.662 274.814,220.02 270.716,218.278 272.458,222.377 269.098,219.453 269.489,223.889 267.197,220.072 266.197,224.411 
	265.198,220.072 262.906,223.889 263.296,219.453 259.938,222.377 261.678,218.278 257.581,220.02 260.503,216.662 256.068,217.052 
	259.886,214.76 255.547,213.76 259.886,212.761 256.068,210.469 260.503,210.859 257.581,207.5 261.678,209.241 259.938,205.144 
	263.296,208.066 262.906,203.631 265.198,207.448 "/>
<path style="fill:#73AF00;" d="M289.761,222.947c0,0-7.056,1.864-11.649-1.997c-5.105-4.291-8.931-6.317-10.572-7.077
	c-0.562-0.261-1.19-0.261-1.752-0.001c-1.175,0.542-3.337,1.667-5.25,3.351c-2.796,2.463-11.383,7.322-13.113,7.322v10.59
	l13.513,11.711l15.976-0.466L289.761,222.947z"/>
<path style="fill:#3CC8FF;" d="M266.197,251.037c-13.507,0-24.496-12.423-24.496-27.691s10.988-27.691,24.496-27.691
	c13.507,0,24.496,12.423,24.496,27.691S279.704,251.037,266.197,251.037z M266.197,202.045c-9.984,0-18.106,9.557-18.106,21.301
	c0,11.744,8.122,21.301,18.106,21.301s18.106-9.557,18.106-21.301C284.303,211.6,276.181,202.045,266.197,202.045z"/>
<g>
	<path style="fill:#FFBE5A;" d="M262.527,245.248l0.469,1.407l1.483,0.012c0.192,0.001,0.271,0.247,0.118,0.36l-1.193,0.882
		l0.447,1.414c0.058,0.183-0.15,0.335-0.307,0.223l-1.207-0.862l-1.207,0.862c-0.156,0.111-0.364-0.04-0.307-0.223l0.447-1.414
		l-1.193-0.882c-0.155-0.114-0.075-0.359,0.118-0.36l1.483-0.012l0.469-1.407C262.209,245.066,262.467,245.066,262.527,245.248z"/>
	<path style="fill:#FFBE5A;" d="M255.868,242.385l0.469,1.407l1.483,0.012c0.192,0.001,0.271,0.247,0.118,0.36l-1.193,0.882
		l0.447,1.414c0.058,0.183-0.15,0.335-0.307,0.223l-1.207-0.862l-1.207,0.862c-0.156,0.111-0.364-0.04-0.307-0.223l0.447-1.414
		l-1.193-0.882c-0.155-0.114-0.075-0.359,0.118-0.36l1.483-0.012l0.469-1.407C255.55,242.203,255.808,242.203,255.868,242.385z"/>
	<path style="fill:#FFBE5A;" d="M250.521,237.526l0.469,1.407l1.483,0.012c0.192,0.001,0.271,0.247,0.118,0.36l-1.193,0.882
		l0.447,1.414c0.058,0.183-0.15,0.335-0.307,0.222l-1.207-0.862l-1.207,0.862c-0.156,0.111-0.364-0.04-0.307-0.222l0.447-1.414
		l-1.193-0.882c-0.155-0.114-0.075-0.359,0.118-0.36l1.483-0.012l0.469-1.407C250.203,237.344,250.46,237.344,250.521,237.526z"/>
	<path style="fill:#FFBE5A;" d="M246.874,231.058l0.469,1.407l1.483,0.012c0.192,0.001,0.271,0.247,0.118,0.36l-1.193,0.882
		l0.447,1.414c0.058,0.183-0.15,0.335-0.307,0.223l-1.207-0.862l-1.207,0.862c-0.156,0.111-0.364-0.04-0.307-0.223l0.447-1.414
		l-1.193-0.882c-0.155-0.114-0.075-0.359,0.118-0.36l1.483-0.012l0.469-1.407C246.556,230.876,246.814,230.876,246.874,231.058z"/>
	<path style="fill:#FFBE5A;" d="M245.265,223.536l0.469,1.407l1.483,0.012c0.192,0.001,0.271,0.247,0.118,0.36l-1.193,0.882
		l0.447,1.414c0.058,0.183-0.15,0.335-0.307,0.223l-1.207-0.862l-1.207,0.862c-0.156,0.111-0.364-0.04-0.307-0.223l0.447-1.414
		l-1.193-0.882c-0.155-0.114-0.075-0.359,0.118-0.36l1.483-0.012l0.469-1.407C244.946,223.353,245.204,223.353,245.265,223.536z"/>
	<path style="fill:#FFBE5A;" d="M269.858,245.248l-0.469,1.407l-1.483,0.012c-0.192,0.001-0.271,0.247-0.118,0.36l1.193,0.882
		l-0.447,1.414c-0.058,0.183,0.15,0.335,0.307,0.223l1.207-0.862l1.207,0.862c0.156,0.111,0.364-0.04,0.307-0.223l-0.447-1.414
		l1.193-0.882c0.155-0.114,0.075-0.359-0.118-0.36l-1.483-0.012l-0.469-1.407C270.175,245.066,269.918,245.066,269.858,245.248z"/>
	<path style="fill:#FFBE5A;" d="M276.516,242.385l-0.469,1.407l-1.483,0.012c-0.192,0.001-0.271,0.247-0.118,0.36l1.193,0.882
		l-0.447,1.414c-0.058,0.183,0.15,0.335,0.307,0.223l1.207-0.862l1.207,0.862c0.156,0.111,0.364-0.04,0.307-0.223l-0.447-1.414
		l1.193-0.882c0.155-0.114,0.075-0.359-0.118-0.36l-1.483-0.012l-0.469-1.407C276.834,242.203,276.577,242.203,276.516,242.385z"/>
	<path style="fill:#FFBE5A;" d="M281.864,237.526l-0.469,1.407l-1.483,0.012c-0.192,0.001-0.271,0.247-0.118,0.36l1.193,0.882
		l-0.447,1.414c-0.058,0.183,0.15,0.335,0.307,0.222l1.207-0.862l1.207,0.862c0.156,0.111,0.364-0.04,0.307-0.222l-0.447-1.414
		l1.193-0.882c0.155-0.114,0.075-0.359-0.118-0.36l-1.483-0.012l-0.469-1.407C282.183,237.344,281.924,237.344,281.864,237.526z"/>
	<path style="fill:#FFBE5A;" d="M285.511,231.058l-0.469,1.407l-1.483,0.012c-0.192,0.001-0.271,0.247-0.118,0.36l1.193,0.882
		l-0.447,1.414c-0.058,0.183,0.15,0.335,0.307,0.223l1.207-0.862l1.207,0.862c0.156,0.111,0.364-0.04,0.307-0.223l-0.447-1.414
		l1.193-0.882c0.155-0.114,0.075-0.359-0.118-0.36l-1.483-0.012l-0.469-1.407C285.828,230.876,285.571,230.876,285.511,231.058z"/>
	<path style="fill:#FFBE5A;" d="M287.12,223.536l-0.469,1.407l-1.483,0.012c-0.192,0.001-0.271,0.247-0.118,0.36l1.193,0.882
		l-0.447,1.414c-0.058,0.183,0.15,0.335,0.307,0.223l1.207-0.862l1.207,0.862c0.156,0.111,0.364-0.04,0.307-0.223l-0.447-1.414
		l1.193-0.882c0.155-0.114,0.075-0.359-0.118-0.36l-1.483-0.012l-0.469-1.407C287.439,223.353,287.181,223.353,287.12,223.536z"/>
</g>
<path style="fill:#F5F5F5;" d="M256.942,237.002l0.708,3.385h0.305v-2.31c0,0,0.503,1.611,1.215,2.31h0.576
	c-0.275-0.354-0.771-1.089-0.771-1.85c0-1.048,0.834-1.191,0.834-2.311h0.714v4.161h0.417l0.773-3.707c0,0,0.638,2.319,1.838,3.707
	h0.534c-0.385-0.566-1.185-2.025-1.038-4.232c0,0,1.143-0.572,1.143-2.12v-2.203c0-0.412,0.335-0.747,0.747-0.747h0.514
	c0,0-0.764-1.482-1.582-1.697v-0.929l-0.616,0.93c-0.588,0.127-0.934,0.671-0.934,1.252v1.341c0,0.412-0.334,0.747-0.747,0.747
	h-2.67c-0.79,0-2.056,0.79-2.056,1.803s0.76,1.677,0.76,1.677L256.942,237.002z"/>
<path style="fill:#FFBE5A;" d="M268.904,233.627h-0.245c-1.936,0.106-3.016,1.378-3.016,1.378l1.963,1.963v3.694h2.35v-3.694
	l1.963-1.963C271.92,235.006,270.84,233.734,268.904,233.627z"/>
<g>
	<rect x="273.03" y="227.59" style="fill:#F5F5F5;" width="0.71" height="13.09"/>
	<path style="fill:#F5F5F5;" d="M273.409,227.483l-3.828,4.627c0,0-0.499-2.23,1.731-4.427l-4.926,0.898
		c0,0,1.498-2.796,5.425-2.496l-4.027-3.362c0,0,3.461-0.199,5.225,2.397c0,0,0.998-2.995,3.794-3.129l-2.308,3.506
		c0,0,2.308-1.176,5.503-0.144l-4.759,1.265c0,0,2.663,0.266,3.761,4.161l-4.127-2.829c0,0,1.265,1.498,0.799,4.427L273.409,227.483
		z"/>
	<polygon style="fill:#F5F5F5;" points="224.448,195.015 215.075,190.329 221.891,198.849 225.726,198.849 	"/>
</g>
<path style="fill:#825546;" d="M272.861,189.59l25.288-7.781l-13.424-5.034c-2.391-0.897-4.924-1.356-7.479-1.356h-2.528
	c-1.176,0-2.13,0.954-2.13,2.13v2.13h-6.39h-6.39v-2.13c0-1.176-0.954-2.13-2.13-2.13h-2.528c-2.554,0-5.088,0.46-7.479,1.356
	l-13.424,5.034l25.288,7.781c1.258,0.387,1.867,1.811,1.279,2.989l-3.136,6.271h17.041l-3.136-6.271
	C270.993,191.4,271.603,189.976,272.861,189.59z"/>
<circle style="fill:#F5F5F5;" cx="266.2" cy="181.81" r="4.259"/>
<path style="fill:#FFBE5A;" d="M268.328,181.809L268.328,181.809c0,1.176-0.954,2.13-2.13,2.13h-8.52l3.636-3.636
	c0.399-0.399,0.941-0.624,1.507-0.624h3.378C267.374,179.679,268.328,180.633,268.328,181.809z"/>
<path style="fill:#2E3033;" d="M19.203,489.087L19.203,489.087C8.598,489.087,0,480.49,0,469.884V41.958
	c0-10.519,8.527-19.045,19.045-19.045h0.158c10.606,0,19.203,8.598,19.203,19.203v427.768
	C38.407,480.49,29.809,489.087,19.203,489.087z"/>
<g>
</g>
<g>
</g>
<g>
</g>
<g>
</g>
<g>
</g>
<g>
</g>
<g>
</g>
<g>
</g>
<g>
</g>
<g>
</g>
<g>
</g>
<g>
</g>
<g>
</g>
<g>
</g>
<g>
</g>
</svg>
