<?xml version="1.0" encoding="iso-8859-1"?>
<!-- Generator: Adobe Illustrator 19.0.0, SVG Export Plug-In . SVG Version: 6.00 Build 0)  -->
<svg version="1.1" id="Layer_1" xmlns="http://www.w3.org/2000/svg" xmlns:xlink="http://www.w3.org/1999/xlink" x="0px" y="0px"
	 viewBox="0 0 512 512" style="enable-background:new 0 0 512 512;" xml:space="preserve">
<g>
	<path style="fill:#82AFFF;" d="M512,162.94H31.777V66.397c0-4.602,3.731-8.334,8.334-8.334h463.555
		c4.602,0,8.334,3.731,8.334,8.334V162.94z"/>
	<path style="fill:#82AFFF;" d="M503.666,372.693H40.111c-4.602,0-8.334-3.732-8.334-8.334v-96.542H512v96.542
		C512,368.962,508.268,372.693,503.666,372.693z"/>
</g>
<rect x="31.777" y="162.939" style="fill:#FFE15A;" width="480.22" height="104.87"/>
<path style="fill:#464655;" d="M34.832,370.691l190.252-151.022c2.764-2.194,2.764-6.389,0-8.583L34.832,60.064
	c-1.825,1.519-3.054,3.719-3.054,6.279v298.069C31.777,366.974,33.007,369.174,34.832,370.691z"/>
<path style="fill:#2E3033;" d="M18.881,485.182L18.881,485.182C8.454,485.182,0,476.729,0,466.301V45.544
	c0-10.342,8.384-18.726,18.726-18.726h0.155c10.428,0,18.881,8.454,18.881,18.881v420.601
	C37.763,476.729,29.309,485.182,18.881,485.182z"/>
<g>
</g>
<g>
</g>
<g>
</g>
<g>
</g>
<g>
</g>
<g>
</g>
<g>
</g>
<g>
</g>
<g>
</g>
<g>
</g>
<g>
</g>
<g>
</g>
<g>
</g>
<g>
</g>
<g>
</g>
</svg>
