<?xml version="1.0" encoding="iso-8859-1"?>
<!-- Generator: Adobe Illustrator 19.0.0, SVG Export Plug-In . SVG Version: 6.00 Build 0)  -->
<svg version="1.1" id="Layer_1" xmlns="http://www.w3.org/2000/svg" xmlns:xlink="http://www.w3.org/1999/xlink" x="0px" y="0px"
	 viewBox="0 0 512 512" style="enable-background:new 0 0 512 512;" xml:space="preserve">
<path style="fill:#FF6E55;" d="M503.524,52.572H28.871c-4.681,0-8.476,3.795-8.476,8.476v305.133c0,4.681,3.795,8.476,8.476,8.476
	h474.653c4.681,0,8.476-3.795,8.476-8.476V61.048C512,56.366,508.205,52.572,503.524,52.572z"/>
<path style="fill:#FFE15A;" d="M23.522,372.608L508.872,54.62c-1.47-1.223-3.289-2.049-5.349-2.049H28.871
	c-4.681,0-8.476,3.795-8.476,8.476V366.18C20.395,368.801,21.654,371.055,23.522,372.608z"/>
<g>
	<path style="fill:#FFF5DC;" d="M290.701,138.747c-4.259,0.912-10.951-1.369-10.951-1.369c1.378,2.374,5.065,3.973,8.391,4.98
		c-2.685,0.268-5.747,0.42-9.152,0.344c-13.689-0.305-20.076,8.67-20.076,8.67c4.867-3.043,9.886-3.043,17.339-1.977
		c7.452,1.065,23.271-3.65,23.271-3.65l1.369-6.084C300.891,139.659,294.96,137.834,290.701,138.747z"/>
	<path style="fill:#FFF5DC;" d="M304.77,110.229c0,0,7.077,1.5,14.261,5.622c-0.432,0.227-0.845,0.504-1.24,0.83
		c-2.321-1.154-5.126-2.088-8.763-2.459c0,0,3.764,0.979,7.381,3.812c-0.937,1.103-1.708,2.358-2.302,3.474
		c-7.957-8.532-16.562-2.837-16.562-2.837c10.674-0.812,13.193,6.048,13.794,9.36c-2.067-1.382-4.014-2.521-5.841-3.447
		c0.268-0.2,0.404-0.381,0.717-0.588c0,0-0.669,0.026-1.596,0.165c-13.623-6.548-20.306-1.383-20.306-1.383
		c6.05-0.74,11.641,0.834,16.077,2.792c-1.949,1.122-3.27,3.099-2.18,6.46c-7.64-2.079-17.242-4.127-21.958-2.864
		c-8.517,2.281-5.78,10.19-5.78,10.19s0.153-5.323,5.932-6.54c4.327-0.911,25.856,5.932,25.856,5.932l6.996-3.346l-2.889-2.434
		c0,0-5.554-2.229-3.172-6.06c3.982,2.123,6.518,4.235,6.518,4.235l1.712-2.501c0.084,0.647,0.113,1.133,0.113,1.133l4.867-2.129
		l1.065-1.521c0.426-2.309,1.132-3.95,1.942-5.179c1.408,1.769,2.572,3.955,3.153,6.661l4.411,0.457c0,0-0.716-5.098-5.651-9.153
		c0.438-0.311,0.87-0.569,1.296-0.742c3.251,2.332,6.282,5.249,8.386,8.906l8.137-0.114
		C339.143,126.96,325.758,112.054,304.77,110.229z"/>
	<circle style="fill:#FFF5DC;" cx="382.41" cy="182.09" r="10.19"/>
	<circle style="fill:#FFF5DC;" cx="358.63" cy="267.86" r="13.671"/>
	<circle style="fill:#FFF5DC;" cx="254.41" cy="261.24" r="10.835"/>
	<circle style="fill:#FFF5DC;" cx="229.49" cy="312.7" r="12.509"/>
	<path style="fill:#FFF5DC;" d="M348.649,155.477c0,0,23.43,8.35,29.087,11.179c7.985,3.992,20.533-7.643,29.316,1.369
		c0,0-1.521-6.007-8.821-6.464c0,0,0.153-5.932-6.692-5.627c0,0,5.019,3.65,2.13,6.236c0,0-1.977-4.411-7.605-3.65
		c0,0,4.258,1.673,3.194,4.258c0,0-6.768,3.27-9.81,1.141s-27.072-15.096-34.677-15.4L348.649,155.477z"/>
</g>
<path style="fill:#F5F5F5;" d="M342.64,162.778c0,0,5.019,1.483,12.32,9.125c3.383,3.542,12.091,3.764,10.722-3.08
	c-1.369-6.844-18.251-11.064-20.076-11.064C343.781,157.759,342.64,162.778,342.64,162.778z"/>
<g>
	<path style="fill:#FFF5DC;" d="M379.219,147.721l-9.582,3.194c0,0,1.065,6.502-4.411,9.354c-3.372,1.757-5.627,6.311-5.475,9.657
		c0,0,3.194-4.411,7.757-6.844c1.074-0.573,2.065-1.075,2.968-1.585c-0.181,2.28-0.23,4.674,0.075,6.756
		c0.912,6.235-1.065,8.365-1.065,8.365s5.324-4.107,4.715-10.798c-0.234-2.571,0.188-4.393,0.842-5.775
		c0.471,4.66,2.959,6.841,2.959,6.841c-1.826-3.65,1.977-7.605,3.498-10.799C383.022,152.891,379.219,147.721,379.219,147.721z"/>
	<path style="fill:#FFF5DC;" d="M403.44,134.489c-3.773-1.283-7.414,1.027-9.582,2.965c-0.923,0.825-3.354,1.245-5.842,1.471
		c1.661-1.175,3.43-2.563,4.36-3.752c2.053-2.623,5.818-3.08,9.011-4.107c3.194-1.027,4.563-5.133,4.563-5.133
		s-1.711,2.51-6.502,2.281c-4.791-0.229-6.388-0.457-9.582,2.966c-0.982,1.052-2.357,1.866-3.783,2.519
		c0.031-1.495,0.16-3.397,0.589-4.687c0.799-2.396,4.449-4.334,4.677-9.125s0.457-4.334,3.194-7.187
		c2.738-2.852,3.537-8.213,2.738-6.502s-4.449,3.764-7.529,6.617c-3.08,2.852-0.912,6.045-2.51,8.555
		c-1.597,2.51-5.361,3.08-5.59,7.757c-0.228,4.677-3.537,7.414-3.537,7.414s-8.099,4.449,1.597,7.985
		c9.696,3.537,17.54-6.302,22.357-6.045c10.722,0.57,13.574-2.966,13.574-2.966C413.82,135.515,409.144,136.427,403.44,134.489z"/>
	<path style="fill:#FFF5DC;" d="M285.834,209.622c-0.608-0.457-11.102-12.016-14.601-13.689l0.761,2.89c0,0-2.281-0.153-6.388-5.171
		s-7.148-6.388-7.148-6.388s2.89,4.563,2.738,7.452c0,0-6.236-0.457-12.928,2.738c0,0-3.042-5.932-5.627-6.996
		c0,0,0.912,6.236-1.216,7.757c-2.13,1.521,20.076,12.016,23.118,12.32C267.583,210.84,285.834,209.622,285.834,209.622z"/>
	<path style="fill:#FFF5DC;" d="M299.675,186.961c-0.216-0.054-1.338,0.735-2.786,1.769c-0.64-3.693-1.928-11.161-1.928-11.504
		c0-0.457-10.343-14.905-10.647-15.513c-0.005-0.011-0.039-0.012-0.047-0.021c1.004-2.429,2.086-6.566-4.06-3.325
		c-8.366,4.412-11.712,14.601-11.712,14.601c1.907-1.99,5.235-3.508,7.891-4.495c0.055,1.241,0.065,2.713-1.655,5.256
		c-3.498,5.17-1.521,7.148-1.521,7.148c2.738-4.715,8.821-5.171,8.821-5.171c-0.912,5.628,2.281,8.821,2.281,8.821l2.585-3.042
		c-0.319,4.355,2.012,9.027,3.46,11.482c-0.572,0.277-1.094,0.488-1.482,0.533c-2.586,0.305-6.692,2.281-6.692,2.281
		s3.328-0.71,5.218,0.75c1.889,1.46,4.896,2.577,6.528,2.233c0,0-0.773,3.951,0.086,5.411c0,0-2.148-0.603-4.638-0.516
		c-2.491,0.087-4.304-1.642-4.304-1.642s4.563,6.539,7.909,7.908s9.125-3.65,9.125-3.65S300.283,187.112,299.675,186.961z"/>
	<path style="fill:#FFF5DC;" d="M221.043,282.324c0,0-2.89,0.304-5.627,4.411l-1.216-4.259c0,0-3.346,2.434-6.996,0.912
		c0,0,3.346-0.761,3.954-3.802s1.826-3.346,1.826-3.346s-2.281-2.434-4.715-2.281c0,0,6.692-3.498,10.343-0.153
		C222.259,277.152,221.043,282.324,221.043,282.324z"/>
	<path style="fill:#FFF5DC;" d="M301.499,248.71c0,0-2.89,0.304-5.627,4.411l-1.216-4.258c0,0-3.346,2.434-6.996,0.912
		c0,0,3.346-0.761,3.954-3.803c0.608-3.042,1.826-3.346,1.826-3.346s-2.281-2.434-4.715-2.281c0,0,6.692-3.498,10.343-0.153
		C302.717,243.54,301.499,248.71,301.499,248.71z"/>
	<path style="fill:#FFF5DC;" d="M350.832,205.441c0,0-1.411,2.541,0.378,7.14l-4.185-1.45c0,0,0.07,4.136-3.272,6.251
		c0,0,1.299-3.175-0.841-5.421s-1.691-3.416-1.691-3.416s-3.302,0.469-4.576,2.549c0,0,0.98-7.487,5.816-8.553
		C347.298,201.475,350.832,205.441,350.832,205.441z"/>
</g>
<path style="fill:#FF6E55;" d="M365.477,256.841l2.944,1.756C367.564,257.861,366.548,257.308,365.477,256.841z"/>
<path style="fill:#FFF5DC;" d="M199.445,271.524c0,0-13.536,19.012-29.05,23.118l5.475-6.996c0,0-7.301,6.388-15.513,7.757
	l9.886-11.406c0,0-22.053,20.533-50.343,24.791c0,0,21.902-13.84,26.312-18.707c0,0-10.647,4.258-20.229,4.411
	c0,0,27.529-10.647,32.092-14.905c0,0-10.951,2.434-17.795,0.153c0,0,23.726-6.844,27.072-5.932c0,0-13.689-5.475-21.902-4.867
	c0,0,13.993-3.346,30.266,0l-3.498-3.803c0,0,9.278-2.434,18.403-3.042s4.563-1.369,4.563-1.369l1.065-3.042
	c0,0-5.932,0.761-10.798,0c0,0,14.601-8.213,18.707-11.863c4.107-3.65,1.369-1.977,1.369-1.977s-7.605,2.585-10.343,3.042
	c0,0,6.844-7.909,8.974-13.08c0,0-6.236,2.434-11.559,0c0,0,6.388-1.826,9.582-5.019c3.194-3.194,7.909-11.141,7.909-11.141
	l-5.475,2.396c0,0,4.791-8.213,9.012-10.266c0,0-7.187,0.57-9.468-1.141c0,0,7.643-1.826,9.924-3.65
	c2.281-1.824,7.301-6.617,12.433-4.791c0,0,7.187-6.617,4.791-10.951c0,0,4.677,0.342,7.072,3.194
	c2.396,2.852,6.16,5.248,6.16,5.248l-19.544,15.285l-14.905,48.366L199.445,271.524z"/>
<g>
	<path style="fill:#F5F5F5;" d="M390.93,180.268c5.628,9.125-1.369,10.039-1.369,10.039c-1.065-8.67-8.365-7.604-8.365-7.604
		l1.977,6.388c-12.167,1.521-11.255-10.647-11.255-10.647c-1.826,1.521-4.867,7.757-4.867,7.757s-32.852,10.951-55.057-21.597
		c0,0-0.608-5.781,1.217-8.518l-13.689-10.342l-17.643,2.434c0,0-6.996,15.817,1.521,25.552c8.517,9.734,18.555,23.422,16.73,29.81
		c-1.082,3.787-4.302,5.328-8.772,5.006c-3.071-0.221-6.732-1.323-10.696-3.181c-9.735-4.563-33.461-14.296-50.495-6.388
		c-17.034,7.909-18.882,21.595-22.206,32.245c-2.942,9.427-9.47,33.495-55.977,55.453c-2.222,1.049-1.091,4.426,1.293,3.833
		c20.16-5.012,47.644-13.363,56.129-23.239l6.844,0.228l-2.51,10.494c0,0,8.898,2.738,10.266,15.742c0,0-15.589,4.258-6.768,17.643
		c0,0,1.369-9.735,12.167-10.19c0,0,2.434,3.194,7.757,3.65c0,0,2.738,4.412,1.369,8.062c0,0,10.798-3.346,1.673-16.275
		c0,0,10.19-2.433,11.559,10.343c0,0,6.54-20.684-16.806-19.164c0,0,0-3.65-6.16-10.266c0,0-1.52-3.727,0-8.898
		c0.458-1.556,0.872-3.171,1.217-4.818c1.268,0.703,3.219,1.535,5.778,1.624c0,0,3.803,6.235,15.057,5.17
		c0,0-8.213-3.801-7.452-11.102s10.343-11.255,14.449-8.366c0,0-1.065-9.582-15.97-3.346c0,0,0-7.148,7.909-7.604
		c0,0-12.775-9.735-15.666,8.821l-5.287,1.321c-2.583-7.16-5.855-23.785,8.633-29.839c15.285-6.388,31.255,7.985,59.544,9.354
		c0,0-2.738,16.654,6.388,20.761s31.483,7.985,31.483,7.985c-0.228,24.03,17.262,20.836,17.262,20.836
		c-8.489-5.087-8.489-14.793-3.249-20.461c7.141-7.726,19.523-0.376,19.523-0.376c-0.175-11.697-16.578-9.886-16.578-9.886
		c2.585-7.604,12.775-9.582,12.775-9.582c-14.144-5.17-25.856,10.115-25.856,10.115l-23.955-6.844c0,0-0.912-4.791,4.791-11.179
		c5.703-6.388,10.494-17.111,8.898-28.517c0,0,6.617-4.64,14.829-0.076c8.212,4.563,25.856-5.475,25.856-5.475
		c7.605,9.734,25.703,7.909,28.137-3.801C399.752,181.637,390.93,180.268,390.93,180.268z"/>
	<path style="fill:#F5F5F5;" d="M365.835,152.284c-4.524-2.639-12.624-4.867-15.362,1.216c-2.738,6.084-5.78,12.167-15.209,11.863
		c-9.429-0.304-13.689,7.757-20.229,5.475c0,0,6.084-1.977,7.301-4.867c1.216-2.89,6.084-8.213,6.084-8.213l-0.608-5.475
		c0,0-11.255,0.607-14.601,3.801s-15.97-2.737-15.97-2.737l1.521-13.232c0,0,9.734-14.905,23.271-13.84
		c13.536,1.065,15.818-2.434,22.357-1.977c6.54,0.457,9.886,7.148,16.882,8.67s20.989-1.369,22.814,2.89
		c1.826,4.258-3.498,5.932-4.867,11.863C377.85,153.653,374.96,157.607,365.835,152.284z"/>
</g>
<g>
	<path style="fill:#FFF5DC;" d="M326.291,148.481c0,0-6.54,4.411-12.016,2.585c-5.475-1.826-10.343-1.216-15.97,0.608
		c0,0,10.343-1.216,14.601,2.738c4.258,3.954,15.057,1.369,15.818-0.304L326.291,148.481z"/>
	<path style="fill:#FFF5DC;" d="M329.637,158.671c0,0-6.388,4.563-12.775,3.346c-6.388-1.216-12.167,1.369-12.167,1.369
		s4.715-5.171,11.102-4.258c6.388,0.912,8.669-5.323,8.669-5.323l4.259,0.304L329.637,158.671z"/>
	<circle style="fill:#FFF5DC;" cx="334.81" cy="153.04" r="8.518"/>
	<path style="fill:#FFF5DC;" d="M329.789,146.656c0,0-3.346-4.258-11.712-2.585c-8.365,1.673-10.343-1.369-10.343-1.369
		s3.954,6.084,10.19,5.323s8.821,3.498,8.821,3.498L329.789,146.656z"/>
	<path style="fill:#FFF5DC;" d="M357.93,136.006c0.752-1.036,1.697-2.024,2.99-2.776c0.763-0.444,1.547-0.724,2.323-0.955
		c0.173-1.155,0.003-2.401-0.656-3.531c-1.438-2.468-4.427-3.405-6.677-2.094c-2.249,1.311-2.908,4.374-1.471,6.841
		C355.247,134.877,356.549,135.712,357.93,136.006z"/>
	<path style="fill:#FFF5DC;" d="M350.458,145.805c0.428-1.207,1.055-2.421,2.082-3.509c0.606-0.641,1.279-1.132,1.958-1.572
		c-0.161-1.156-0.676-2.303-1.628-3.202c-2.077-1.96-5.21-2.013-6.997-0.12c-1.787,1.893-1.552,5.018,0.526,6.978
		C347.567,145.482,349.051,145.914,350.458,145.805z"/>
</g>
<path style="fill:#2E3033;" d="M19.203,489.087L19.203,489.087C8.598,489.087,0,480.49,0,469.884V41.958
	c0-10.519,8.527-19.045,19.045-19.045h0.158c10.606,0,19.203,8.598,19.203,19.203v427.768
	C38.407,480.49,29.809,489.087,19.203,489.087z"/>
<g>
</g>
<g>
</g>
<g>
</g>
<g>
</g>
<g>
</g>
<g>
</g>
<g>
</g>
<g>
</g>
<g>
</g>
<g>
</g>
<g>
</g>
<g>
</g>
<g>
</g>
<g>
</g>
<g>
</g>
</svg>
