<?xml version="1.0" encoding="iso-8859-1"?>
<!-- Generator: Adobe Illustrator 19.0.0, SVG Export Plug-In . SVG Version: 6.00 Build 0)  -->
<svg version="1.1" id="Layer_1" xmlns="http://www.w3.org/2000/svg" xmlns:xlink="http://www.w3.org/1999/xlink" x="0px" y="0px"
	 viewBox="0 0 512 512" style="enable-background:new 0 0 512 512;" xml:space="preserve">
<path style="fill:#73AF00;" d="M503.6,372.45H35.4c-4.6,0-8.4-3.7-8.4-8.4v-75.3h485v75.3C512,368.65,508.3,372.45,503.6,372.45z"/>
<path style="fill:#FF4B55;" d="M503.6,54.65H35.4c-4.6,0-8.4,3.7-8.4,8.4v225.8h485V63.05C512,58.45,508.3,54.65,503.6,54.65z"/>
<path style="fill:#F5F5F5;" d="M96.9,372.45H38.4c-4.6,0-8.4-3.7-8.4-8.4v-301c0-4.6,3.7-8.4,8.4-8.4h58.5V372.45z"/>
<path style="fill:#FF4B55;" d="M42.4,358.55h3v-8.3h-3V358.55z M66,358.55h3v-8.3h-3V358.55z M89.6,358.55h2.9v-8.3h-2.9V358.55z
	 M54.2,336.35h2.9v-6.9h-2.9V336.35z M77.8,336.35h2.9v-6.9h-2.9V336.35z M42.4,318.35h3v-8.3h-3V318.35z M66,318.35h3v-8.3h-3
	V318.35z M89.6,318.35h2.9v-8.3h-2.9V318.35z M48.3,329.45h2.9v-7h3v-6.9h2.9v6.9h3v7H63v6.9h-2.9v7h-3v7h-2.9v-7h-3v-7h-2.9
	C48.3,336.35,48.3,329.45,48.3,329.45z M71.9,329.45h3v-7h2.9v-6.9h2.9v6.9h2.9v7h3v6.9h-3v7h-2.9v7h-2.9v-7h-2.9v-7h-3V329.45z
	 M77.8,301.65v6.9h-3v7h-2.9v6.9h-3v7h-3v-7h-3v-6.9H60v-7h-3v-6.9h-2.9v6.9h-3v7h-2.9v6.9h-3v7h-3v6.9h3v7h3v7h2.9v6.9h3v6.9h3
	v-6.9H60v-6.9h3v-7h3v-7h3v7h3v7h3v6.9h2.9v6.9h2.9v-6.9h2.9v-6.9h3v-7h3v-7h2.9v-6.9h-2.9v-7h-2.9v-6.9h-3v-7h-2.9v-6.9H77.8z
	 M85.1,294.75h1.5v-2.8h1.5v2.8h1.5v2.8h-1.5v2.8h-1.5v-2.8h-1.5V294.75z M85.1,285.05v4.1h-1.5v4.2h-1.5v5.5h1.5v4.1h1.5v4.1h4.4
	v-4.1H91v-4h1.5v-5.5H91v-4.2h-1.5v-4.1h-4.4V285.05z M45.3,294.75h1.5v-2.8h1.5v2.8h1.4v2.8h-1.4v2.8h-1.5v-2.8h-1.5V294.75z
	 M45.3,285.05v4.1h-1.5v4.1h-1.5v5.6h1.5v4.1h1.5v4.1h4.4v-4.1h1.5v-4h1.4v-5.6h-1.4v-4.1h-1.5v-4.1h-4.4V285.05z M61.6,294.75H63
	v-2.8h1.5v2.8H66v2.8h-1.5v2.8H63v-2.8h-1.5v-2.8H61.6z M68.9,294.75h1.5v-2.8h1.5v2.8h1.5v2.8h-1.5v2.8h-1.5v-2.8h-1.5V294.75z
	 M68.9,285.05v4.1h-3v-4.1h-4.4v4.1H60v4.1h-1.5v5.6H60v4.1h1.5v4.1H66v-4.1h3v4.1h4.4v-4.1h1.5v-4h1.4v-5.6h-1.4v-4.1h-1.5v-4.1
	h-4.5V285.05z M42.4,282.25h3v-8.3h-3V282.25z M66,282.25h3v-8.3h-3V282.25z M89.6,282.25h2.9v-8.3h-2.9V282.25z M42.4,247.55h3
	v-5.5h-3V247.55z M89.6,247.55h2.9v-5.5h-2.9V247.55z M66,228.15h3v-6.9h-3V228.15z M42.4,209.45v4.1v0.1v4.1h3v-4.1v-0.1v-4.1H42.4
	z M58.6,209.45v4.1v0.1v4.1h3v-4.1v-0.1v-4.1H58.6z M73.4,209.45v4.1v0.1v4.1h2.9v-4.1v-0.1v-4.1H73.4z M89.6,209.45v4.1v0.1v4.1
	h2.9v-4.1v-0.1v-4.1H89.6z M70.4,204.55v2.8h-1.5v2.1h-3v-2.1h-1.5v-2.8h-3v4.1H63v2.1h1.5v2.8v0.1v2.7H63v2.1h-1.5v4.1h3v-2.8H66
	v-2h3v2h1.5v2.8h2.9v-4.1h-1.5v-2.1h-1.5v-2.7v-0.1v-2.8h1.5v-2.1h1.5v-4.1H70.4z M66,205.95h3v-6.9h-3V205.95z M42.4,185.15h3v-5.5
	h-3V185.15z M89.6,185.15h2.9v-5.5h-2.9V185.15z M42.4,153.25h3v-8.3h-3V153.25z M66,153.25h3v-8.3h-3V153.25z M89.6,153.25h2.9
	v-8.3h-2.9V153.25z M54.2,213.65v-0.2l0,0v-2.7h2.9v-4.8h3v-5.6h4.4v-6.5H66v-3.2h1.5H69v3.1h1.5v6.6h4.4v2.8v2.8h2.9v4.8h2.9v2.8
	v2.8h-2.9v4.9h-2.9v2.8v2.8h-4.4v6.5H69v3.1h-1.5H66v-3.1h-1.5v-6.5h-4.4v-5.5h-3v-4.9h-2.9C54.2,216.45,54.2,213.65,54.2,213.65z
	 M77.8,136.55v7h-3v6.9h-2.9v7h-3v5.5v1.4h-3v-6.9h-3v-7H60v-6.9h-3v-7h-2.9v7h-3v6.9h-3v7h-2.9v5.5v1.4h-3v7h3v7h2.9v6.9h3v6.9h3
	v-6.9H57v-6.9h3v-7h-3v-8.4h3v1.4v4.2h3v11.1h1.5v6.8l-4.4,0.1v5.5h-3v4.1h-2.9v7h-3v-7h-3v-4.1h-2.9v-4.1h-3v12.5h3v5.6h2.9v4.8h3
	v2.8v0.1v2.7h-3v4.9h-2.9v5.5h-3v12.5h3v-4.2h2.9v-4.2h3v-6.9h3v6.9h2.9v4.1h3v5.6l4.4,0.1v6.8H63v11.1h-2.9v4.1v1.4h-3v-8.4h3v-6.8
	h-3v-6.9h-2.9v-7h-3v7h-3v6.9h-2.9v6.9h-3v7h3v1.4v5.5h3v7h2.9v7h3v6.9l0,0l0,0h2.9v-6.9h3v-7H63v-7h3v-6.9h3v1.4v5.5h3v7h3v7h2.9
	v6.9h2.9v-6.9h2.9v-7h3v-7h2.9v-6.9h2.9v-7h-2.9v-6.9h-2.9v-6.9h-3v-7h-2.9v7h-2.9v6.9h-3v6.9h3v7v1.4h-3v-1.4v-4.1H72v-11.1h-0.4
	h-1.1v-6.9h1.1h0.8h1.1H75v-5.6h2.9v-4.2h2.9v-6.9h2.9v6.9h3v4.1h3v4.2h2.9v-12.5h-2.9v-5.5h-3v-4.9h-3v-2.7v-0.1v-2.8h3v-4.8h3
	v-5.6h2.9v-12.4h-2.9v4.1h-3v4.1h-3v7h-2.9v-7h-2.9v-4.1H75v-5.5h-1.5h-1.1h-0.8h-1.1v-6.9h1.1H72v-11.1h2.9v-4.2v-1.4h3v1.4v7h-3v7
	h3v6.9h2.9v6.9h2.9v-6.9h3v-6.9h2.9v-7h2.9v-7h-2.9v-6.9h-2.9v-7h-3v-6.9h-2.9v-7L77.8,136.55L77.8,136.55z M45.3,129.65h1.5v-2.8
	h1.5v2.8h1.4v2.8h-1.4v2.8h-1.5v-2.8h-1.5V129.65z M45.3,124.05h-1.5v4.2h-1.5v5.5h1.5v4.2h1.5v4.1h4.4v-4.1h1.5v-4.2h1.4v-5.5h-1.4
	v-4.2h-1.5v-4.1h-4.4V124.05z M61.6,129.65H63v-2.8h1.5v2.8H66v2.8h-1.5v2.8H63v-2.8h-1.5v-2.8H61.6z M68.9,129.65h1.5v-2.8h1.5v2.8
	h1.5v2.8h-1.5v2.8h-1.5v-2.8h-1.5V129.65z M61.6,124.05h-1.5v4.2h-1.5v5.5h1.5v4.2h1.5v4.1H66v-4.1h3v4.1h4.4v-4.1h1.5v-4.2h1.4
	v-5.5h-1.4v-4.2h-1.5v-4.1H69v4.1h-3v-4.1h-4.4V124.05z M85.1,129.55h1.5v-2.7h1.5v2.7h1.5v2.8h-1.5v2.8h-1.5v-2.8h-1.5V129.55z
	 M85.1,119.95v4.1h-1.5v4.2h-1.5v5.5h1.5v4.1h1.5v4.1h4.4v-4H91v-4.1h1.5v-5.5H91v-4.2h-1.5v-4.2L85.1,119.95L85.1,119.95z
	 M42.4,117.15h3v-8.3h-3V117.15z M66,117.15h3v-8.3h-3V117.15z M89.6,117.15h2.9v-8.3h-2.9V117.15z M54.2,97.75h2.9v-7h-2.9V97.75z
	 M77.8,97.75h2.9v-7h-2.9V97.75z M42.4,76.95h3v-8.3h-3V76.95z M66,76.95h3v-8.3h-3V76.95z M89.6,76.95h2.9v-8.3h-2.9V76.95z
	 M48.3,90.75h2.9v-6.9h3v-7h2.9v7h3v6.9H63v7h-2.9v6.9h-3v7h-2.9v-7h-3v-6.9h-2.9C48.3,97.75,48.3,90.75,48.3,90.75z M71.9,90.75h3
	v-6.9h2.9v-7h2.9v7h2.9v6.9h3v7h-3v6.9h-2.9v7h-2.9v-7h-2.9v-6.9h-3V90.75z M77.8,63.05v7h-2.9v6.9h-3v7h-3v6.9h-3v-6.9h-3v-7H60
	v-6.9h-2.9v-7h-3v7h-3v6.9h-2.9v7h-3v6.9h-3v7h3v6.9h3v7h2.9v7h3v6.9H57v-6.9h3v-7h3v-7h3v-6.9h3v6.9h3v7h2.9v7h3v6.9h2.9v-6.9h2.9
	v-7h3v-7h2.9v-6.9h2.9v-7h-2.9v-6.9h-3v-7h-3v-6.9h-2.9v-7C80.7,63.05,77.8,63.05,77.8,63.05z"/>
<path style="fill:#2E3033;" d="M19.2,489.05L19.2,489.05c-10.6,0-19.2-8.6-19.2-19.2V41.95c0-10.5,8.5-19,19-19h0.2
	c10.6,0,19.2,8.6,19.2,19.2v427.8C38.4,480.45,29.8,489.05,19.2,489.05z"/>
<g>
</g>
<g>
</g>
<g>
</g>
<g>
</g>
<g>
</g>
<g>
</g>
<g>
</g>
<g>
</g>
<g>
</g>
<g>
</g>
<g>
</g>
<g>
</g>
<g>
</g>
<g>
</g>
<g>
</g>
</svg>
