<?xml version="1.0" encoding="iso-8859-1"?>
<!-- Generator: Adobe Illustrator 19.0.0, SVG Export Plug-In . SVG Version: 6.00 Build 0)  -->
<svg version="1.1" id="Layer_1" xmlns="http://www.w3.org/2000/svg" xmlns:xlink="http://www.w3.org/1999/xlink" x="0px" y="0px"
	 viewBox="0 0 512 512" style="enable-background:new 0 0 512 512;" xml:space="preserve">
<g>
	<path style="fill:#FF4B55;" d="M512,86.476H20.395V61.048c0-4.681,3.795-8.476,8.476-8.476h474.653
		c4.681,0,8.476,3.795,8.476,8.476V86.476z"/>
	<path style="fill:#FF4B55;" d="M20.395,340.753H512v25.428c0,4.681-3.795,8.476-8.476,8.476H28.871
		c-4.681,0-8.476-3.795-8.476-8.476V340.753z"/>
</g>
<rect x="20.395" y="86.48" style="fill:#41479B;" width="491.6" height="254.28"/>
<circle style="fill:#F5F5F5;" cx="266.2" cy="213.62" r="110.19"/>
<g>
	<path style="fill:#82AFFF;" d="M245.054,271.555l-16.998,2.833c-2.142,0.357-4.093-1.296-4.093-3.468v-6.396h21.091V271.555
		L245.054,271.555z"/>
	<path style="fill:#82AFFF;" d="M287.237,271.555l16.999,2.833c2.142,0.357,4.093-1.296,4.093-3.468v-6.396h-21.091L287.237,271.555
		L287.237,271.555z"/>
</g>
<g>
	<path style="fill:#965032;" d="M262.631,157.203h-1.47c-1.764,0-3.35-0.982-4.141-2.558l-2.6-5.201l2.358-1.181l2.6,5.201
		c0.34,0.68,1.023,1.102,1.782,1.102h1.47L262.631,157.203L262.631,157.203z"/>
	
		<rect x="231.527" y="155.409" transform="matrix(0.4472 0.8944 -0.8944 0.4472 270.8596 -124.8058)" style="fill:#965032;" width="9.745" height="2.637"/>
	<path style="fill:#965032;" d="M270.98,197.735l-7.203-7.202c-1.565-1.565-2.463-3.732-2.463-5.946v-2.424
		c0-0.889-0.211-1.782-0.609-2.578l-1.796-3.591c-0.374-0.748-1.127-1.215-1.965-1.215h-6.2c-1.844,0-3.499-1.023-4.324-2.671
		l-2.544-5.088l2.358-1.181l2.544,5.088c0.374,0.748,1.127,1.215,1.965,1.215h6.2c1.844,0,3.5,1.023,4.324,2.671l1.796,3.591
		c0.581,1.163,0.888,2.461,0.888,3.759v2.424c0,1.52,0.617,3.007,1.691,4.078l2.704,2.705v-12.283c0-3.33-1.146-6.594-3.227-9.196
		c-2.453-3.069-3.804-6.917-3.804-10.844v-10.192h2.636v10.192c0,3.33,1.146,6.594,3.227,9.196
		c2.453,3.069,3.804,6.917,3.804,10.844v18.648H270.98z"/>
	<path style="fill:#965032;" d="M264.707,190.917h-3.914c-2.414,0-4.598-1.52-5.439-3.779l-0.991-2.671l2.472-0.92l0.991,2.671
		c0.459,1.235,1.651,2.063,2.968,2.063h3.914L264.707,190.917L264.707,190.917z"/>
	
		<rect x="267.959" y="143.781" transform="matrix(0.915 0.4035 -0.4035 0.915 88.326 -94.8647)" style="fill:#965032;" width="2.637" height="36.771"/>
	<polygon style="fill:#965032;" points="281.525,174.779 268.782,174.779 268.782,172.143 278.889,172.143 278.889,159.399 
		281.525,159.399 	"/>
</g>
<g>
	<path style="fill:#73AF00;" d="M257.358,187.521h-10.546c-2.913,0-5.273-2.361-5.273-5.273l0,0c0-2.913,2.361-5.273,5.273-5.273
		h10.546c2.913,0,5.273,2.361,5.273,5.273l0,0C262.631,185.161,260.269,187.521,257.358,187.521z"/>
	<path style="fill:#73AF00;" d="M281.964,187.521h-10.546c-2.913,0-5.273-2.361-5.273-5.273l0,0c0-2.913,2.361-5.273,5.273-5.273
		h10.546c2.913,0,5.273,2.361,5.273,5.273l0,0C287.237,185.161,284.876,187.521,281.964,187.521z"/>
	<path style="fill:#73AF00;" d="M292.51,176.976h-14.061c-2.913,0-5.273-2.361-5.273-5.273l0,0c0-2.913,2.361-5.273,5.273-5.273
		h14.061c2.913,0,5.273,2.361,5.273,5.273l0,0C297.783,174.615,295.422,176.976,292.51,176.976z"/>
	<path style="fill:#73AF00;" d="M296.025,162.915h-24.607c-2.913,0-5.273-2.361-5.273-5.273l0,0c0-2.913,2.361-5.273,5.273-5.273
		h24.607c2.913,0,5.273,2.361,5.273,5.273l0,0C301.298,160.554,298.937,162.915,296.025,162.915z"/>
	<path style="fill:#73AF00;" d="M281.964,148.854h-7.031c-2.913,0-5.273-2.361-5.273-5.273l0,0c0-2.913,2.361-5.273,5.273-5.273
		h7.031c2.913,0,5.273,2.361,5.273,5.273l0,0C287.237,146.493,284.876,148.854,281.964,148.854z"/>
	<path style="fill:#73AF00;" d="M236.266,155.884h-3.515c-2.913,0-5.273-2.361-5.273-5.273l0,0c0-2.913,2.361-5.273,5.273-5.273
		h3.515c2.913,0,5.273,2.361,5.273,5.273l0,0C241.538,153.523,239.178,155.884,236.266,155.884z"/>
	<path style="fill:#73AF00;" d="M260.873,152.37h-10.546c-2.913,0-5.273-2.361-5.273-5.273l0,0c0-2.913,2.361-5.273,5.273-5.273
		h10.546c2.913,0,5.273,2.361,5.273,5.273l0,0C266.145,150.008,263.785,152.37,260.873,152.37z"/>
	<path style="fill:#73AF00;" d="M257.358,169.946h-21.091c-2.913,0-5.273-2.361-5.273-5.273l0,0c0-2.913,2.361-5.273,5.273-5.273
		h21.091c2.913,0,5.273,2.361,5.273,5.273l0,0C262.631,167.585,260.269,169.946,257.358,169.946z"/>
	<path style="fill:#73AF00;" d="M318.874,243.433H213.416c-3.883,0-7.031,3.148-7.031,7.031c0,3.883,3.148,7.031,7.031,7.031h28.122
		c0,3.883,3.148,7.031,7.031,7.031h35.153c3.883,0,7.031-3.148,7.031-7.031h28.122c3.883,0,7.031-3.148,7.031-7.031
		C325.905,246.581,322.757,243.433,318.874,243.433z"/>
</g>
<path style="fill:#BE7855;" d="M336.23,181.037c-0.263-0.528-1.634,0.099-2.49-0.219c-10.619-3.948-24.878-11.138-34.197-16.042
	l-1.871-2.962l-17.665-8.585c-1.124-0.547-2.479-0.126-3.097,0.96l-0.871,1.531c-0.664,1.169-0.226,2.655,0.966,3.275l16.82,8.751
	l4.753-0.352l18.474,9.498c0,0,12.552,6.421,13.219,6.892s1.05,3.113,2.295,2.892C333.46,186.519,337.367,183.322,336.23,181.037z"
	/>
<g>
	<path style="fill:#FFBE3C;" d="M219.715,248.706c0,0,1.172,5.2,0.073,5.786s-6.958,0.586-6.81-0.659
		c0.146-1.245,0.952-5.639,0.952-5.639L219.715,248.706z"/>
	<path style="fill:#FFBE3C;" d="M229.455,245.923c0,0-0.952,3.881,0.952,4.028c1.904,0.146,12.669,0.073,12.963-0.219
		s0.659-1.026,0.659-1.026l-9.96-2.783H229.455z"/>
</g>
<path style="fill:#EAF3F5;" d="M218.525,197.515c0,0-2.618,6.225-3.57,27.793c-0.253,5.738,0.44,4.394-2.417,22.849l3.389,1.769
	c0.987,0.515,2.172,0.478,3.124-0.1l3.299-1.999c0,0-1.611-20.652,3.662-32.516c0,0,2.783,5.127,2.783,8.935
	s-0.146,22.117-0.146,22.117s6.151,1.026,8.935,0.732c0,0-1.758-39.73-3.515-49.085L218.525,197.515z"/>
<g>
	<path style="fill:#965032;" d="M219.019,194.879c0,0-1.044,0.769-0.495,2.636c0,0,8.019,3.46,15.544,0.495
		c0,0,0.824-1.209-0.219-2.691L219.019,194.879z"/>
	<path style="fill:#965032;" d="M208.291,175.837c-4.563,1.696-11.498,5.932-11.058,9.301c0.44,3.369,2.827,2.547,3.572,1.72
		c0.745-0.827,2.883-3.481,3.55-3.953c0.667-0.471,11.462-6.014,11.462-6.014l28.58-14.694c0,0,0.219-1.428-1.483-2.582
		C242.912,159.617,225.428,169.466,208.291,175.837z"/>
</g>
<path style="fill:#FFBE3C;" d="M221.765,159.286l-0.165,1.209c0,0-0.44,7.745,2.087,9.832c0,0,0.549,1.592-0.33,2.362
	c-0.878,0.769-9.557,5.163-9.557,5.163s-2.252,4.669-2.197,7.305c0,0-2.142-0.824-1.922-1.868c0.219-1.044,1.483-3.79,1.099-5.108
	c-0.385-1.318-1.813-0.933-1.813-0.933s-0.714,0.769,0.44,1.263l-0.385,1.647l-4.669,2.746l1.044,1.263c0,0,0.055,9.667,5.767,10.93
	c0,0,3.021,0.219,6.591-6.591c0,0,1.922,3.405,1.263,6.372c0,0,6.262,3.405,14.83,0.44l0.11-5.932c0,0,1.318,9.118,5.822,8.239
	c0,0,12.477-4.803,10.399-6.628c-4.833-4.247-10.67-0.658-10.67-0.658c-0.283-6.17-0.799-14.151-1.597-15.014
	c-1.318-1.428-5.382-0.659-6.188-2.49s-0.586-5.053,0.292-8.788s-3.588-6.372-3.588-6.372L221.765,159.286z"/>
<path style="fill:#464655;" d="M221.601,160.495c0,0,4.486,1.135,8.001-0.256l1.538,3.808h0.878c0,0,2.118-7.048-0.694-6.965
	c0,0-0.011-2.289-4.921-2.192C222.185,154.973,220.723,157.712,221.601,160.495z"/>
<g>
	<path style="fill:#965032;" d="M313.156,248.706c0,0-1.172,5.2-0.073,5.786s6.958,0.586,6.81-0.659s-0.952-5.639-0.952-5.639
		L313.156,248.706z"/>
	<path style="fill:#965032;" d="M303.416,245.923c0,0,0.952,3.881-0.952,4.028c-1.904,0.146-12.669,0.073-12.963-0.219
		s-0.659-1.026-0.659-1.026l9.96-2.783H303.416z"/>
</g>
<path style="fill:#EAF3F5;" d="M314.346,197.515c0,0,2.618,6.225,3.57,27.793c0.253,5.738-0.44,4.394,2.417,22.849l-3.389,1.769
	c-0.987,0.515-2.172,0.478-3.124-0.1l-3.299-1.999c0,0,1.611-20.652-3.662-32.516c0,0-2.783,5.127-2.783,8.935
	s0.146,22.117,0.146,22.117s-6.151,1.026-8.935,0.732c0,0,1.758-39.73,3.515-49.085L314.346,197.515z"/>
<path style="fill:#BE7855;" d="M313.852,194.879c0,0,1.044,0.769,0.495,2.636c0,0-8.019,3.46-15.544,0.495
	c0,0-0.824-1.209,0.219-2.691L313.852,194.879z"/>
<path style="fill:#965032;" d="M311.106,159.286l0.165,1.209c0,0,0.44,7.745-2.087,9.832c0,0-0.549,1.592,0.329,2.362
	c0.878,0.769,9.557,5.163,9.557,5.163s2.251,4.669,2.197,7.305c0,0,2.142-0.824,1.922-1.868c-0.219-1.044-1.483-3.79-1.099-5.108
	c0.385-1.318,1.813-0.933,1.813-0.933s0.714,0.769-0.44,1.263l0.385,1.647l4.669,2.746l-1.044,1.263c0,0-0.055,9.667-5.767,10.93
	c0,0-3.021,0.219-6.591-6.591c0,0-1.922,3.405-1.263,6.372c0,0-6.262,3.405-14.83,0.44l-0.11-5.932c0,0-1.318,9.118-5.822,8.239
	c0,0-12.477-4.803-10.399-6.628c4.833-4.247,10.67-0.658,10.67-0.658c0.283-6.17,0.799-14.151,1.597-15.014
	c1.318-1.428,5.382-0.659,6.188-2.49c0.806-1.831,0.586-5.053-0.292-8.788s3.589-6.372,3.589-6.372L311.106,159.286z"/>
<path style="fill:#464655;" d="M311.27,160.495c0,0-4.486,1.135-8.001-0.256l-1.538,3.808h-0.878c0,0-2.118-7.048,0.694-6.965
	c0,0,0.011-2.289,4.921-2.192C310.686,154.973,312.149,157.712,311.27,160.495z"/>
<path style="fill:#EAF3F5;" d="M235.915,163.43c-0.367-0.892,0.248-1.137,0.248-1.137s4.446-2.44,4.963-2.399
	c0.855,0.069,1.903,1.571,1.903,2.853s1.67,4.61,5.103,5.437c0,0-4.285,5.822-10.23,5.026
	C237.9,173.211,238.299,169.228,235.915,163.43z"/>
<path style="fill:#82AFFF;" d="M242.146,190.704c-1.317,0-2.385,1.139-2.385,2.544v29.093c0,7.031,3.296,31.637,26.364,38.667
	c23.068-7.031,26.364-31.637,26.364-38.667v-29.093c0-1.405-1.068-2.544-2.385-2.544H242.146z"/>
<path style="fill:#FFE15A;" d="M292.489,222.342v-29.093c0-1.405-1.068-2.544-2.385-2.544h-23.979v24.607l23.173,23.173
	C291.864,231.712,292.489,225.382,292.489,222.342z"/>
<path style="fill:#EAF3F5;" d="M239.761,222.342v-29.093c0-1.405,1.068-2.544,2.385-2.544h23.979v24.607l-23.173,23.173
	C240.386,231.712,239.761,225.382,239.761,222.342z"/>
<polygon style="fill:#8C5A28;" points="250.578,237.732 256.678,244.183 273.669,244.183 277.27,239.567 273.127,241.224 
	259.396,241.224 "/>
<path style="fill:#F5F5F5;" d="M257.148,229.406l-0.931,9.39l-4.238-1.618C251.979,237.18,253.928,232.654,257.148,229.406z"/>
<g>
	<rect x="265.51" y="225.68" style="fill:#8C5A28;" width="0.626" height="15.988"/>
	<rect x="271.3" y="227.04" style="fill:#8C5A28;" width="0.626" height="14.638"/>
	<rect x="259.73" y="227.04" style="fill:#8C5A28;" width="0.626" height="14.638"/>
</g>
<g>
	<path style="fill:#F5F5F5;" d="M267.939,240.158h-4.227c-0.287,0-0.52-0.233-0.52-0.52v-2.333c0-0.287,0.233-0.52,0.52-0.52h4.227
		c0.287,0,0.52,0.233,0.52,0.52v2.333C268.459,239.925,268.226,240.158,267.939,240.158z"/>
	<path style="fill:#F5F5F5;" d="M267.939,235.66h-4.227c-0.287,0-0.52-0.233-0.52-0.52v-2.333c0-0.287,0.233-0.52,0.52-0.52h4.227
		c0.287,0,0.52,0.233,0.52,0.52v2.333C268.459,235.427,268.226,235.66,267.939,235.66z"/>
	<path style="fill:#F5F5F5;" d="M267.939,231.518h-4.227c-0.287,0-0.52-0.233-0.52-0.52v-2.333c0-0.287,0.233-0.52,0.52-0.52h4.227
		c0.287,0,0.52,0.233,0.52,0.52v2.333C268.459,231.285,268.226,231.518,267.939,231.518z"/>
	<path style="fill:#F5F5F5;" d="M273.378,240.158h-3.516c-0.287,0-0.52-0.233-0.52-0.52v-2.333c0-0.287,0.233-0.52,0.52-0.52h3.516
		c0.287,0,0.52,0.233,0.52,0.52v2.333C273.899,239.925,273.665,240.158,273.378,240.158z"/>
	<path style="fill:#F5F5F5;" d="M273.378,236.017h-3.516c-0.287,0-0.52-0.233-0.52-0.52v-1.804c0-0.287,0.233-0.52,0.52-0.52h3.516
		c0.287,0,0.52,0.233,0.52,0.52v1.804C273.899,235.784,273.665,236.017,273.378,236.017z"/>
	<path style="fill:#F5F5F5;" d="M273.378,231.912h-3.516c-0.287,0-0.52-0.233-0.52-0.52v-1.348c0-0.287,0.233-0.52,0.52-0.52h3.516
		c0.287,0,0.52,0.233,0.52,0.52v1.348C273.899,231.679,273.665,231.912,273.378,231.912z"/>
	<path style="fill:#F5F5F5;" d="M261.807,240.158h-3.516c-0.287,0-0.52-0.233-0.52-0.52v-2.333c0-0.287,0.233-0.52,0.52-0.52h3.516
		c0.287,0,0.52,0.233,0.52,0.52v2.333C262.327,239.925,262.094,240.158,261.807,240.158z"/>
	<path style="fill:#F5F5F5;" d="M261.807,236.017h-3.516c-0.287,0-0.52-0.233-0.52-0.52v-1.804c0-0.287,0.233-0.52,0.52-0.52h3.516
		c0.287,0,0.52,0.233,0.52,0.52v1.804C262.327,235.784,262.094,236.017,261.807,236.017z"/>
	<path style="fill:#F5F5F5;" d="M261.807,231.912h-3.516c-0.287,0-0.52-0.233-0.52-0.52v-1.348c0-0.287,0.233-0.52,0.52-0.52h3.516
		c0.287,0,0.52,0.233,0.52,0.52v1.348C262.327,231.679,262.094,231.912,261.807,231.912z"/>
</g>
<g>
	<polygon style="fill:#FF4B55;" points="271.304,227.04 271.304,228.933 268.519,227.97 	"/>
	<polygon style="fill:#FF4B55;" points="259.739,227.04 259.739,228.933 256.956,227.97 	"/>
	<polygon style="fill:#FF4B55;" points="265.533,225.681 265.533,227.573 262.748,226.61 	"/>
</g>
<path style="fill:#4173CD;" d="M287.049,243.433h-41.848c0.623,1.186,1.306,2.359,2.073,3.515h37.7
	C285.743,245.792,286.425,244.617,287.049,243.433z"/>
<path style="fill:#73AF00;" d="M284.975,246.948h-37.701l0,0c1.664,2.506,3.706,4.886,6.152,7.031h25.394
	C281.269,251.835,283.31,249.454,284.975,246.948L284.975,246.948z"/>
<path style="fill:#FFE15A;" d="M253.428,253.978c3.373,2.956,7.514,5.45,12.697,7.031c5.184-1.58,9.324-4.075,12.697-7.031H253.428z
	"/>
<path style="fill:#BE7855;" d="M261.609,217.377c0,0-0.257,0.09-0.534,0.058c-0.214-0.092-0.652-0.106-0.388-0.918
	c0.128-0.403,0.397-0.971,0.202-1.117c-0.158-0.183-0.328-0.381-0.512-0.592c-0.366-0.423-0.777-0.901-1.227-1.421
	c-0.924-1.018-2.018-2.188-3.295-3.342c-0.637-0.578-1.295-1.176-1.964-1.783c-0.693-0.584-1.333-1.239-2.087-1.782
	c-0.427-0.225-0.969-0.337-1.444-0.513c-0.463-0.186-0.753-0.538-1.092-0.837c-0.663-0.612-1.316-1.215-1.947-1.799
	c-1.283-1.148-2.409-2.287-3.372-3.266c-0.934-0.934-1.69-1.746-2.222-2.338c-0.507-0.564-0.476-1.421,0.07-1.947l1.562-1.507
	c0.546-0.527,1.404-0.528,1.948-0.001c0.572,0.553,1.357,1.337,2.257,2.304c0.944,0.998,2.043,2.165,3.143,3.487
	c0.56,0.653,1.139,1.326,1.728,2.011c0.286,0.35,0.627,0.652,0.798,1.121c0.159,0.48,0.252,1.027,0.461,1.461
	c0.517,0.773,1.147,1.437,1.707,2.151c0.583,0.69,1.156,1.369,1.711,2.026c1.107,1.317,2.238,2.453,3.222,3.412
	c0.504,0.468,0.966,0.896,1.376,1.277c0.204,0.19,0.396,0.368,0.574,0.533c0.14,0.2,0.717-0.049,1.123-0.162
	c0.821-0.235,0.819,0.203,0.904,0.421c0.021,0.278-0.077,0.532-0.077,0.532L261.609,217.377z"/>
<path style="fill:#965032;" d="M244.394,220.144c-0.271,0-0.545-0.083-0.781-0.257c-0.585-0.432-0.711-1.257-0.278-1.844
	l12.523-16.989c0.431-0.584,1.251-0.714,1.844-0.278c0.585,0.432,0.711,1.257,0.278,1.844l-12.523,16.989
	C245.198,219.959,244.799,220.144,244.394,220.144z"/>
<polygon style="fill:#F5F5F5;" points="254.428,199.931 260.946,204.252 263.728,200.371 257.65,195.464 "/>
<path style="fill:#965032;" d="M271.749,198.26l16.703,20.598c0,0,2.348,0.107,2.028-1.761l-17.29-20.278L271.749,198.26z"/>
<path style="fill:#EAF3F5;" d="M268.013,201.089c0,0,4.696-0.854,6.671-3.789l2.668,3.149c0,0-4.376,3.095-4.803,6.457
	C272.549,206.906,268.974,205.945,268.013,201.089z"/>
<g>
	<path style="fill:#965032;" d="M286.05,199.061c-0.307,0-0.602-0.166-0.755-0.457c-0.476-0.901-0.557-1.714-0.244-2.421
		c0.439-0.991,1.471-1.281,1.586-1.311c0.465-0.104,0.922,0.16,1.04,0.613c0.117,0.453-0.154,0.918-0.605,1.037
		c-0.095,0.03-0.375,0.154-0.464,0.357c-0.084,0.2-0.014,0.531,0.197,0.93c0.22,0.416,0.06,0.933-0.358,1.154
		C286.32,199.032,286.184,199.061,286.05,199.061z"/>
	<path style="fill:#965032;" d="M272.327,211.769c0-0.307-0.166-0.602-0.457-0.755c-0.901-0.476-1.714-0.557-2.421-0.244
		c-0.991,0.439-1.281,1.471-1.311,1.586c-0.104,0.465,0.16,0.922,0.613,1.04c0.453,0.117,0.918-0.154,1.037-0.605
		c0.03-0.095,0.154-0.375,0.357-0.464c0.2-0.084,0.531-0.014,0.93,0.197c0.416,0.22,0.933,0.06,1.154-0.358
		C272.298,212.039,272.327,211.905,272.327,211.769z"/>
</g>
<polygon style="fill:#EAF3F5;" points="286.619,197.141 270.895,212.579 274.595,216.706 289.962,201.196 "/>
<path style="fill:#FFBE3C;" d="M206.752,174.886c1.053-0.244,1.977,1.172,1.026,2.197c-0.952,1.026-3.703,2.878-4.541,2.71
	C201.773,179.499,200.747,176.277,206.752,174.886z"/>
<path style="fill:#965032;" d="M326.057,176.368c-0.977-0.244-1.833,1.172-0.95,2.197c0.883,1.026,3.434,2.878,4.21,2.71
	C330.674,180.982,331.626,177.76,326.057,176.368z"/>
<path style="fill:#464655;" d="M290.104,190.704c1.317,0,2.385,1.139,2.385,2.544v29.093c0,7.031-3.296,31.637-26.364,38.667
	c-23.068-7.031-26.364-31.637-26.364-38.667v-29.093c0-1.405,1.068-2.544,2.385-2.544H290.104 M290.104,188.946h-47.958
	c-2.284,0-4.143,1.929-4.143,4.302v29.093c0,1.679,0.227,10.542,4.698,20.081c4.754,10.14,12.677,17.149,22.913,20.269l0.513,0.156
	l0.513-0.156c10.236-3.119,18.159-10.129,22.913-20.269c4.471-9.539,4.698-18.4,4.698-20.081v-29.093
	C294.247,190.876,292.389,188.946,290.104,188.946L290.104,188.946z"/>
<path style="fill:#EAF3F5;" d="M308.329,261.421c-7.469-2.504-15.483-1.349-23.042,3.693c-9.66,6.44-16.064,6.44-19.142,6.44
	s-9.481,0-19.142-6.44c-7.556-5.039-15.573-6.196-23.042-3.694v7.535c4.706-2.249,11.341-3.191,19.142,2.008
	c11.432,7.621,19.568,7.621,23.042,7.621s11.61,0,23.042-7.621c7.801-5.204,14.436-4.26,19.142-2.009V261.421z"/>
<path style="fill:#965032;" d="M266.145,301.435c-49.426,0-89.638-40.213-89.638-89.638s40.213-89.638,89.638-89.638
	s89.638,40.213,89.638,89.638S315.571,301.435,266.145,301.435z M266.145,125.672c-47.488,0-86.124,38.633-86.124,86.124
	s38.635,86.124,86.124,86.124s86.124-38.633,86.124-86.124S313.634,125.672,266.145,125.672z"/>
<g>
	<path style="fill:#73AF00;" d="M168.085,219.266c0,0-0.367-10.985,10.18-10.985c0,0,0.219,4.321-3.588,6.225
		C171.597,216.045,168.085,219.266,168.085,219.266z"/>
	<path style="fill:#73AF00;" d="M188.446,219.266c0,0,0.367-10.985-10.18-10.985c0,0-0.219,4.321,3.588,6.225
		C184.935,216.045,188.446,219.266,188.446,219.266z"/>
	<path style="fill:#73AF00;" d="M364.133,208.28c0,0,0.367,10.985-10.18,10.985c0,0-0.219-4.321,3.588-6.225
		C360.621,211.501,364.133,208.28,364.133,208.28z"/>
	<path style="fill:#73AF00;" d="M343.772,208.28c0,0-0.367,10.985,10.18,10.985c0,0,0.219-4.321-3.589-6.225
		C347.283,211.501,343.772,208.28,343.772,208.28z"/>
	<path style="fill:#73AF00;" d="M271.602,311.796c0,0-10.985,0.367-10.985-10.18c0,0,4.321-0.219,6.225,3.588
		C268.381,308.285,271.602,311.796,271.602,311.796z"/>
	<path style="fill:#73AF00;" d="M271.602,291.435c0,0-10.985-0.367-10.985,10.18c0,0,4.321,0.219,6.225-3.589
		C268.381,294.947,271.602,291.435,271.602,291.435z"/>
	<path style="fill:#73AF00;" d="M260.617,115.748c0,0,10.985-0.367,10.985,10.18c0,0-4.321,0.219-6.224-3.588
		C263.837,119.261,260.617,115.748,260.617,115.748z"/>
	<path style="fill:#73AF00;" d="M260.617,136.111c0,0,10.985,0.367,10.985-10.18c0,0-4.321-0.219-6.224,3.588
		C263.837,132.598,260.617,136.111,260.617,136.111z"/>
	<path style="fill:#73AF00;" d="M200.679,286.97c0,0-8.027-7.509-0.57-14.965c0,0,3.21,2.9,1.865,6.939
		C200.886,282.209,200.679,286.97,200.679,286.97z"/>
	<path style="fill:#73AF00;" d="M215.078,272.572c0,0-7.509-8.027-14.965-0.57c0,0,2.9,3.21,6.939,1.865
		C210.316,272.779,215.078,272.572,215.078,272.572z"/>
	<path style="fill:#73AF00;" d="M331.539,140.575c0,0,8.027,7.509,0.57,14.965c0,0-3.21-2.9-1.865-6.939
		C331.332,145.336,331.539,140.575,331.539,140.575z"/>
	<path style="fill:#73AF00;" d="M317.141,154.973c0,0,7.509,8.027,14.965,0.57c0,0-2.9-3.21-6.939-1.865
		C321.902,154.767,317.141,154.973,317.141,154.973z"/>
	<path style="fill:#73AF00;" d="M339.306,279.202c0,0-7.509,8.027-14.965,0.57c0,0,2.9-3.21,6.939-1.865
		C334.546,278.997,339.306,279.202,339.306,279.202z"/>
	<path style="fill:#73AF00;" d="M324.909,264.805c0,0-8.027,7.509-0.57,14.965c0,0,3.21-2.9,1.865-6.939
		C325.114,269.565,324.909,264.805,324.909,264.805z"/>
	<path style="fill:#73AF00;" d="M192.912,148.344c0,0,7.509-8.027,14.965-0.57c0,0-2.9,3.21-6.939,1.865
		C197.672,148.549,192.912,148.344,192.912,148.344z"/>
	<path style="fill:#73AF00;" d="M207.31,162.741c0,0,8.027-7.509,0.57-14.965c0,0-3.21,2.9-1.865,6.939
		C207.104,157.981,207.31,162.741,207.31,162.741z"/>
	<path style="fill:#73AF00;" d="M177.649,256.36c0,0-4.542-10.009,5.201-14.045c0,0,1.856,3.907-0.933,7.124
		C179.661,252.04,177.649,256.36,177.649,256.36z"/>
	<path style="fill:#73AF00;" d="M196.46,248.567c0,0-3.865-10.289-13.608-6.253c0,0,1.45,4.076,5.698,4.378
		C191.983,246.936,196.46,248.567,196.46,248.567z"/>
	<path style="fill:#73AF00;" d="M354.569,171.186c0,0,4.542,10.009-5.201,14.045c0,0-1.856-3.907,0.933-7.124
		C352.557,175.506,354.569,171.186,354.569,171.186z"/>
	<path style="fill:#73AF00;" d="M335.758,178.978c0,0,3.865,10.289,13.608,6.253c0,0-1.45-4.076-5.698-4.378
		C340.235,180.609,335.758,178.978,335.758,178.978z"/>
	<path style="fill:#73AF00;" d="M308.695,302.234c0,0-10.009,4.542-14.045-5.201c0,0,3.907-1.856,7.124,0.933
		C304.377,300.222,308.695,302.234,308.695,302.234z"/>
	<path style="fill:#73AF00;" d="M300.904,283.421c0,0-10.289,3.865-6.253,13.608c0,0,4.076-1.45,4.378-5.698
		C299.272,287.899,300.904,283.421,300.904,283.421z"/>
	<path style="fill:#73AF00;" d="M223.523,125.312c0,0,10.009-4.542,14.045,5.201c0,0-3.907,1.856-7.124-0.933
		C227.841,127.324,223.523,125.312,223.523,125.312z"/>
	<path style="fill:#73AF00;" d="M231.314,144.124c0,0,10.289-3.865,6.253-13.608c0,0-4.076,1.45-4.378,5.698
		C232.946,139.647,231.314,144.124,231.314,144.124z"/>
	<path style="fill:#73AF00;" d="M233.672,306.438c0,0-10.289-3.865-6.253-13.608c0,0,4.076,1.45,4.378,5.698
		C232.04,301.96,233.672,306.438,233.672,306.438z"/>
	<path style="fill:#73AF00;" d="M241.463,287.625c0,0-10.009-4.542-14.045,5.201c0,0,3.907,1.856,7.124-0.933
		C237.144,289.637,241.463,287.625,241.463,287.625z"/>
	<path style="fill:#73AF00;" d="M298.546,121.108c0,0,10.289,3.865,6.253,13.608c0,0-4.076-1.45-4.378-5.698
		C300.178,125.586,298.546,121.108,298.546,121.108z"/>
	<path style="fill:#73AF00;" d="M290.755,139.92c0,0,10.009,4.542,14.045-5.201c0,0-3.907-1.856-7.124,0.933
		C295.075,137.908,290.755,139.92,290.755,139.92z"/>
	<path style="fill:#73AF00;" d="M358.773,246.211c0,0-3.865,10.289-13.608,6.253c0,0,1.45-4.076,5.698-4.378
		C354.297,247.842,358.773,246.211,358.773,246.211z"/>
	<path style="fill:#73AF00;" d="M339.962,238.418c0,0-4.542,10.009,5.201,14.045c0,0,1.856-3.907-0.933-7.124
		C341.974,242.738,339.962,238.418,339.962,238.418z"/>
	<path style="fill:#73AF00;" d="M173.445,181.335c0,0,3.865-10.289,13.608-6.253c0,0-1.45,4.076-5.698,4.378
		C177.921,179.703,173.445,181.335,173.445,181.335z"/>
	<path style="fill:#73AF00;" d="M192.256,189.128c0,0,4.542-10.009-5.201-14.045c0,0-1.856,3.907,0.933,7.124
		C190.244,184.808,192.256,189.128,192.256,189.128z"/>
	<path style="fill:#73AF00;" d="M171.04,238.284c0,0-2.503-10.703,7.841-12.761c0,0,1.058,4.195-2.305,6.805
		C173.856,234.44,171.04,238.284,171.04,238.284z"/>
	<path style="fill:#73AF00;" d="M191.01,234.311c0,0-1.784-10.846-12.127-8.788c0,0,0.627,4.28,4.734,5.406
		C186.938,231.838,191.01,234.311,191.01,234.311z"/>
	<path style="fill:#73AF00;" d="M361.178,189.262c0,0,2.503,10.703-7.841,12.761c0,0-1.058-4.195,2.305-6.805
		C358.362,193.106,361.178,189.262,361.178,189.262z"/>
	<path style="fill:#73AF00;" d="M341.208,193.234c0,0,1.784,10.846,12.127,8.788c0,0-0.627-4.28-4.734-5.406
		C345.281,195.708,341.208,193.234,341.208,193.234z"/>
	<path style="fill:#73AF00;" d="M290.619,308.842c0,0-10.703,2.503-12.761-7.841c0,0,4.195-1.058,6.805,2.305
		C286.776,306.025,290.619,308.842,290.619,308.842z"/>
	<path style="fill:#73AF00;" d="M286.647,288.871c0,0-10.846,1.784-8.789,12.127c0,0,4.28-0.627,5.406-4.734
		C284.173,292.944,286.647,288.871,286.647,288.871z"/>
	<path style="fill:#73AF00;" d="M241.599,118.704c0,0,10.703-2.503,12.761,7.841c0,0-4.195,1.058-6.805-2.305
		C245.443,121.519,241.599,118.704,241.599,118.704z"/>
	<path style="fill:#73AF00;" d="M245.571,138.674c0,0,10.846-1.784,8.788-12.127c0,0-4.28,0.627-5.406,4.734
		C248.045,134.602,245.571,138.674,245.571,138.674z"/>
	<path style="fill:#73AF00;" d="M216.217,298.328c0,0-9.337-5.799-3.478-14.567c0,0,3.715,2.217,3.182,6.442
		C215.49,293.619,216.217,298.328,216.217,298.328z"/>
	<path style="fill:#73AF00;" d="M227.529,281.399c0,0-8.93-6.408-14.789,2.361c0,0,3.471,2.583,7.17,0.475
		C222.9,282.529,227.529,281.399,227.529,281.399z"/>
	<path style="fill:#73AF00;" d="M316.002,129.218c0,0,9.337,5.799,3.478,14.567c0,0-3.715-2.218-3.182-6.442
		C316.728,133.926,316.002,129.218,316.002,129.218z"/>
	<path style="fill:#73AF00;" d="M304.689,146.147c0,0,8.93,6.408,14.789-2.361c0,0-3.471-2.583-7.17-0.475
		C309.318,145.017,304.689,146.147,304.689,146.147z"/>
	<path style="fill:#73AF00;" d="M350.665,263.665c0,0-5.799,9.337-14.567,3.478c0,0,2.217-3.715,6.442-3.182
		C345.956,264.392,350.665,263.665,350.665,263.665z"/>
	<path style="fill:#73AF00;" d="M333.734,252.353c0,0-6.408,8.93,2.361,14.789c0,0,2.583-3.471,0.475-7.17
		C334.865,256.982,333.734,252.353,333.734,252.353z"/>
	<path style="fill:#73AF00;" d="M181.553,163.88c0,0,5.799-9.337,14.567-3.478c0,0-2.218,3.715-6.442,3.182
		C186.263,163.154,181.553,163.88,181.553,163.88z"/>
	<path style="fill:#73AF00;" d="M198.484,175.193c0,0,6.408-8.93-2.361-14.789c0,0-2.583,3.471-0.475,7.17
		C197.352,170.564,198.484,175.193,198.484,175.193z"/>
	<path style="fill:#73AF00;" d="M187.657,272.799c0,0-6.408-8.93,2.361-14.789c0,0,2.583,3.471,0.475,7.17
		C188.787,268.17,187.657,272.799,187.657,272.799z"/>
	<path style="fill:#73AF00;" d="M204.587,261.487c0,0-5.799-9.337-14.567-3.478c0,0,2.218,3.715,6.442,3.182
		C199.877,260.76,204.587,261.487,204.587,261.487z"/>
	<path style="fill:#73AF00;" d="M344.561,154.747c0,0,6.408,8.93-2.361,14.789c0,0-2.583-3.471-0.475-7.17
		C343.431,159.375,344.561,154.747,344.561,154.747z"/>
	<path style="fill:#73AF00;" d="M327.632,166.059c0,0,5.799,9.337,14.567,3.478c0,0-2.217-3.715-6.442-3.182
		C332.341,166.786,327.632,166.059,327.632,166.059z"/>
	<path style="fill:#73AF00;" d="M325.135,292.226c0,0-8.93,6.408-14.789-2.361c0,0,3.471-2.583,7.17-0.475
		C320.507,291.095,325.135,292.226,325.135,292.226z"/>
	<path style="fill:#73AF00;" d="M313.823,275.295c0,0-9.337,5.799-3.478,14.567c0,0,3.715-2.217,3.183-6.442
		C313.096,280.004,313.823,275.295,313.823,275.295z"/>
	<path style="fill:#73AF00;" d="M207.083,135.32c0,0,8.93-6.408,14.789,2.361c0,0-3.471,2.583-7.17,0.475
		C211.712,136.451,207.083,135.32,207.083,135.32z"/>
	<path style="fill:#73AF00;" d="M218.395,152.25c0,0,9.337-5.799,3.478-14.567c0,0-3.715,2.218-3.182,6.442
		C219.122,147.542,218.395,152.25,218.395,152.25z"/>
	<path style="fill:#73AF00;" d="M252.373,310.985c0,0-10.846-1.784-8.788-12.127c0,0,4.28,0.627,5.406,4.734
		C249.899,306.912,252.373,310.985,252.373,310.985z"/>
	<path style="fill:#73AF00;" d="M256.345,291.015c0,0-10.703-2.503-12.76,7.841c0,0,4.195,1.058,6.805-2.305
		C252.501,293.831,256.345,291.015,256.345,291.015z"/>
	<path style="fill:#73AF00;" d="M279.845,116.561c0,0,10.846,1.784,8.789,12.127c0,0-4.28-0.627-5.406-4.734
		C282.319,120.634,279.845,116.561,279.845,116.561z"/>
	<path style="fill:#73AF00;" d="M275.873,136.531c0,0,10.703,2.503,12.761-7.841c0,0-4.195-1.058-6.805,2.305
		C279.717,133.715,275.873,136.531,275.873,136.531z"/>
	<path style="fill:#73AF00;" d="M363.322,227.51c0,0-1.784,10.846-12.127,8.788c0,0,0.627-4.28,4.734-5.406
		C359.249,229.983,363.322,227.51,363.322,227.51z"/>
	<path style="fill:#73AF00;" d="M343.351,223.537c0,0-2.503,10.703,7.841,12.761c0,0,1.058-4.195-2.305-6.805
		C346.166,227.381,343.351,223.537,343.351,223.537z"/>
	<path style="fill:#73AF00;" d="M168.897,200.036c0,0,1.784-10.846,12.127-8.788c0,0-0.627,4.28-4.734,5.406
		C172.969,197.562,168.897,200.036,168.897,200.036z"/>
	<path style="fill:#73AF00;" d="M188.867,204.008c0,0,2.503-10.703-7.841-12.761c0,0-1.058,4.195,2.305,6.805
		C186.051,200.164,188.867,204.008,188.867,204.008z"/>
</g>
<path style="fill:#2E3033;" d="M19.203,489.087L19.203,489.087C8.598,489.087,0,480.49,0,469.884V41.958
	c0-10.519,8.527-19.045,19.045-19.045h0.158c10.606,0,19.203,8.598,19.203,19.203v427.768
	C38.407,480.49,29.809,489.087,19.203,489.087z"/>
<g>
</g>
<g>
</g>
<g>
</g>
<g>
</g>
<g>
</g>
<g>
</g>
<g>
</g>
<g>
</g>
<g>
</g>
<g>
</g>
<g>
</g>
<g>
</g>
<g>
</g>
<g>
</g>
<g>
</g>
</svg>
