<?xml version="1.0" encoding="iso-8859-1"?>
<!-- Generator: Adobe Illustrator 19.0.0, SVG Export Plug-In . SVG Version: 6.00 Build 0)  -->
<svg version="1.1" id="Layer_1" xmlns="http://www.w3.org/2000/svg" xmlns:xlink="http://www.w3.org/1999/xlink" x="0px" y="0px"
	 viewBox="0 0 512.001 512.001" style="enable-background:new 0 0 512.001 512.001;" xml:space="preserve">
<path style="fill:#73AF00;" d="M503.524,374.658H28.87c-4.681,0-8.476-3.795-8.476-8.476V61.047c0-4.681,3.795-8.476,8.476-8.476
	h474.655c4.681,0,8.476,3.795,8.476,8.476v305.135C512,370.864,508.205,374.658,503.524,374.658z"/>
<g>
	<path style="fill:#FFE15A;" d="M292.713,263.202c-27.386,0-49.588-22.201-49.588-49.588s22.201-49.588,49.588-49.588
		c3.634,0,7.155,0.435,10.549,1.214c1.353,0.31,2.07-1.506,0.89-2.237c-10.385-6.439-22.891-9.778-36.241-8.692
		c-29.058,2.364-52.419,26.053-54.397,55.14c-2.364,34.747,25.122,63.667,59.364,63.667c11.479,0,22.189-3.261,31.276-8.896
		c1.18-0.732,0.466-2.547-0.888-2.237C299.871,262.766,296.348,263.202,292.713,263.202z"/>
	<path style="fill:#FFE15A;" d="M335.934,171.628l3.724,9.433l9.697-2.97c0.538-0.165,1.001,0.415,0.72,0.904l-5.053,8.793
		l8.368,5.73c0.465,0.318,0.3,1.041-0.257,1.126l-10.025,1.532l0.737,10.114c0.041,0.562-0.627,0.884-1.04,0.501l-7.447-6.882
		l-7.447,6.882c-0.414,0.382-1.082,0.06-1.04-0.501l0.737-10.114l-10.025-1.532c-0.557-0.085-0.721-0.808-0.257-1.126l8.368-5.73
		l-5.053-8.793c-0.281-0.488,0.181-1.068,0.72-0.904l9.697,2.97l3.724-9.433C334.986,171.103,335.728,171.103,335.934,171.628z"/>
	<path style="fill:#FFE15A;" d="M471.55,146.2l3.724,9.433l9.697-2.97c0.538-0.165,1.001,0.415,0.72,0.904l-5.053,8.793l8.368,5.73
		c0.465,0.318,0.3,1.041-0.257,1.126l-10.025,1.532l0.737,10.114c0.041,0.562-0.627,0.884-1.04,0.501l-7.447-6.882l-7.447,6.882
		c-0.414,0.382-1.082,0.06-1.04-0.501l0.737-10.114l-10.025-1.532c-0.557-0.085-0.721-0.808-0.257-1.126l8.368-5.73l-5.053-8.793
		c-0.281-0.488,0.181-1.068,0.72-0.904l9.697,2.97l3.724-9.433C470.601,145.675,471.343,145.675,471.55,146.2z"/>
	<path style="fill:#FFE15A;" d="M403.742,85.051l3.724,9.433l9.697-2.97c0.538-0.165,1.001,0.415,0.72,0.904l-5.053,8.793
		l8.368,5.73c0.465,0.318,0.3,1.041-0.257,1.126l-10.025,1.532l0.737,10.114c0.041,0.562-0.627,0.884-1.04,0.501l-7.447-6.882
		l-7.447,6.882c-0.414,0.382-1.082,0.06-1.04-0.501l0.737-10.114l-10.025-1.532c-0.557-0.085-0.722-0.808-0.257-1.126l8.368-5.73
		l-5.053-8.793c-0.281-0.488,0.181-1.068,0.72-0.904l9.697,2.97l3.724-9.433C402.794,84.527,403.535,84.527,403.742,85.051z"/>
	<path style="fill:#FFE15A;" d="M403.742,307.243l3.724,9.433l9.697-2.97c0.538-0.165,1.001,0.415,0.72,0.904l-5.053,8.793
		l8.368,5.73c0.465,0.318,0.3,1.042-0.257,1.126l-10.025,1.532l0.737,10.114c0.041,0.562-0.627,0.884-1.04,0.501l-7.447-6.882
		l-7.447,6.882c-0.414,0.382-1.082,0.06-1.04-0.501l0.737-10.114l-10.025-1.532c-0.557-0.085-0.722-0.808-0.257-1.126l8.368-5.73
		l-5.053-8.793c-0.281-0.488,0.181-1.068,0.72-0.904l9.697,2.97l3.724-9.433C402.794,306.72,403.535,306.72,403.742,307.243z"/>
	<path style="fill:#FFE15A;" d="M431.496,180.164l2.6,7.795l8.216,0.064c0.637,0.005,0.901,0.817,0.389,1.195l-6.61,4.881
		l2.478,7.834c0.192,0.607-0.499,1.109-1.017,0.738l-6.685-4.778l-6.685,4.778c-0.518,0.37-1.209-0.131-1.017-0.738l2.478-7.834
		l-6.61-4.881c-0.512-0.378-0.248-1.191,0.389-1.195l8.216-0.064l2.6-7.795C430.441,179.56,431.295,179.56,431.496,180.164z"/>
	<circle style="fill:#FFE15A;" cx="109.39" cy="141.57" r="55.09"/>
</g>
<path style="fill:#964B50;" d="M103.726,184.492h14.878c0,0,8.454-37.873,0.676-51.399l-4.734,3.043
	C114.546,136.137,122.324,162.174,103.726,184.492z"/>
<path style="fill:#73AF00;" d="M104.288,134.784c0,0-8.566,5.861-5.861,23.22c0,0,6.537-5.411,10.145-17.359
	c0,0-5.185,9.919,2.029,17.809c0,0,7.664-10.821,6.537-20.289c0,0,25.482,26.61,20.064,19.838
	c-0.902-1.127,1.353-12.399-7.44-21.641c0,0,14.428,3.607,19.838,2.255c0,0,0.451-11.498-13.301-13.527l3.156-9.017
	c0,0-10.595-0.676-16.231,4.734c0,0-1.353-13.977,4.284-20.74c0,0-16.682-2.48-17.359,19.388c0,0-6.087-13.977-24.797-10.595
	c0,0,10.595,7.664,12.399,11.046c0,0-14.878-10.145-21.867,4.058c0,0,11.948-3.156,16.231,2.48c0,0-19.162-2.029-20.74,14.428
	C71.375,140.87,89.185,132.529,104.288,134.784z"/>
<path style="fill:#2E3033;" d="M19.203,489.089L19.203,489.089C8.598,489.089,0,480.492,0,469.886V41.957
	c0-10.519,8.527-19.045,19.045-19.045h0.158c10.606,0,19.203,8.598,19.203,19.203v427.771
	C38.407,480.492,29.809,489.089,19.203,489.089z"/>
<g>
</g>
<g>
</g>
<g>
</g>
<g>
</g>
<g>
</g>
<g>
</g>
<g>
</g>
<g>
</g>
<g>
</g>
<g>
</g>
<g>
</g>
<g>
</g>
<g>
</g>
<g>
</g>
<g>
</g>
</svg>
