<?xml version="1.0" encoding="iso-8859-1"?>
<!-- Generator: Adobe Illustrator 19.0.0, SVG Export Plug-In . SVG Version: 6.00 Build 0)  -->
<svg version="1.1" id="Layer_1" xmlns="http://www.w3.org/2000/svg" xmlns:xlink="http://www.w3.org/1999/xlink" x="0px" y="0px"
	 viewBox="0 0 512 512" style="enable-background:new 0 0 512 512;" xml:space="preserve">
<path style="fill:#82AFFF;" d="M503.6,373.95H35.4c-4.6,0-8.4-3.8-8.4-8.4v-301c0-4.6,3.8-8.4,8.4-8.4h468.2c4.6,0,8.4,3.8,8.4,8.4
	v300.9C512,370.15,508.2,373.95,503.6,373.95z"/>
<g>
	<path style="fill:#FFE15A;" d="M503.6,56.15h-24L27,290.35v16.7l481.6-249.1C507.2,56.95,505.5,56.15,503.6,56.15z"/>
	<path style="fill:#FFE15A;" d="M35.4,373.95h24L512,139.75v-16.7L30.4,372.15C31.8,373.15,33.5,373.95,35.4,373.95z"/>
</g>
<path style="fill:#FF4B55;" d="M508.6,57.95L27,307.05v58.5c0,2.7,1.4,5.1,3.4,6.6L512,123.05v-58.5
	C512,61.75,510.6,59.45,508.6,57.95z"/>
<path style="fill:#FFE15A;" d="M114.7,89.05l12,36.1l38.1,0.3c2.1,0,3,2.7,1.3,4l-30.6,22.6l11.5,36.3c0.6,2-1.7,3.7-3.4,2.5
	l-31-22.1l-31,22.1c-1.7,1.2-4-0.4-3.4-2.5l11.5-36.3l-30.6-22.6c-1.7-1.3-0.8-4,1.3-4l38.1-0.3l12-36.1
	C111.2,87.05,114.1,87.05,114.7,89.05z"/>
<path style="fill:#2E3033;" d="M19,486.95L19,486.95c-10.5,0-19-8.5-19-19v-424c0-10.4,8.4-18.9,18.9-18.9H19c10.5,0,19,8.5,19,19
	v423.8C38.1,478.45,29.5,486.95,19,486.95z"/>
<g>
</g>
<g>
</g>
<g>
</g>
<g>
</g>
<g>
</g>
<g>
</g>
<g>
</g>
<g>
</g>
<g>
</g>
<g>
</g>
<g>
</g>
<g>
</g>
<g>
</g>
<g>
</g>
<g>
</g>
</svg>
