<?xml version="1.0" encoding="iso-8859-1"?>
<!-- Generator: Adobe Illustrator 19.0.0, SVG Export Plug-In . SVG Version: 6.00 Build 0)  -->
<svg version="1.1" id="Layer_1" xmlns="http://www.w3.org/2000/svg" xmlns:xlink="http://www.w3.org/1999/xlink" x="0px" y="0px"
	 viewBox="0 0 512.004 512.004" style="enable-background:new 0 0 512.004 512.004;" xml:space="preserve">
<path style="fill:#FFE15A;" d="M503.524,374.659H28.87c-4.681,0-8.476-3.795-8.476-8.476v-72.046h491.607v72.046
	C512,370.866,508.205,374.659,503.524,374.659z"/>
<rect x="20.394" y="213.621" style="fill:#73AF00;" width="491.61" height="80.52"/>
<rect x="20.394" y="133.091" style="fill:#F5F5F5;" width="491.61" height="80.52"/>
<path style="fill:#41479B;" d="M512,133.094H20.394V61.048c0-4.681,3.795-8.476,8.476-8.476h474.655
	c4.681,0,8.476,3.795,8.476,8.476L512,133.094L512,133.094L512,133.094z"/>
<rect x="225.94" y="52.571" style="fill:#FF4B55;" width="80.52" height="322.09"/>
<path style="fill:#FFE15A;" d="M93.847,63.42l7.072,21.207l22.354,0.174c1.732,0.014,2.45,2.224,1.056,3.253l-17.983,13.28
	l6.743,21.314c0.522,1.651-1.357,3.017-2.766,2.01l-18.186-12.999l-18.186,12.999c-1.409,1.008-3.289-0.359-2.766-2.01l6.743-21.314
	L59.944,88.052c-1.393-1.029-0.675-3.239,1.056-3.253l22.354-0.174l7.072-21.207C90.975,61.777,93.299,61.777,93.847,63.42z"/>
<path style="fill:#2E3033;" d="M19.203,489.09L19.203,489.09C8.598,489.09,0,480.493,0,469.887V41.958
	c0-10.519,8.527-19.045,19.045-19.045h0.158c10.606,0,19.203,8.598,19.203,19.203v427.771
	C38.407,480.493,29.809,489.09,19.203,489.09z"/>
<g>
</g>
<g>
</g>
<g>
</g>
<g>
</g>
<g>
</g>
<g>
</g>
<g>
</g>
<g>
</g>
<g>
</g>
<g>
</g>
<g>
</g>
<g>
</g>
<g>
</g>
<g>
</g>
<g>
</g>
</svg>
