<?xml version="1.0" encoding="iso-8859-1"?>
<!-- Generator: Adobe Illustrator 19.0.0, SVG Export Plug-In . SVG Version: 6.00 Build 0)  -->
<svg version="1.1" id="Layer_1" xmlns="http://www.w3.org/2000/svg" xmlns:xlink="http://www.w3.org/1999/xlink" x="0px" y="0px"
	 viewBox="0 0 512.1 512.1" style="enable-background:new 0 0 512.1 512.1;" xml:space="preserve">
<path style="fill:#FFE15A;" d="M503.6,56.15H369.8L29.6,371.55c1.5,1.5,3.5,2.4,5.8,2.4h133.8l340.2-315.4
	C507.9,57.05,505.9,56.15,503.6,56.15z"/>
<path style="fill:#73AF00;" d="M369.8,56.15H35.4c-4.6,0-8.4,3.7-8.4,8.4v301c0,2.4,1,4.5,2.6,6L369.8,56.15z"/>
<path style="fill:#FF4B55;" d="M509.4,58.55l-340.2,315.4h334.5c4.6,0,8.4-3.7,8.4-8.4v-301C512,62.15,511,60.05,509.4,58.55z"/>
<path style="fill:#2E3033;" d="M19.3,490.55L19.3,490.55c-10.6,0-19.3-8.6-19.3-19.3V40.65c0-10.6,8.6-19.1,19.2-19.1h0.2
	c10.7,0,19.3,8.7,19.3,19.3v430.4C38.6,481.95,30,490.55,19.3,490.55z"/>
<g>
</g>
<g>
</g>
<g>
</g>
<g>
</g>
<g>
</g>
<g>
</g>
<g>
</g>
<g>
</g>
<g>
</g>
<g>
</g>
<g>
</g>
<g>
</g>
<g>
</g>
<g>
</g>
<g>
</g>
</svg>
