<?xml version="1.0" encoding="iso-8859-1"?>
<!-- Generator: Adobe Illustrator 19.0.0, SVG Export Plug-In . SVG Version: 6.00 Build 0)  -->
<svg version="1.1" id="Layer_1" xmlns="http://www.w3.org/2000/svg" xmlns:xlink="http://www.w3.org/1999/xlink" x="0px" y="0px"
	 viewBox="0 0 511.9 511.9" style="enable-background:new 0 0 511.9 511.9;" xml:space="preserve">
<path style="fill:#73AF00;" d="M350.3,56.05h153.2c4.6,0,8.4,3.8,8.4,8.4v300.9c0,4.6-3.8,8.4-8.4,8.4H350.3V56.05z"/>
<rect x="188.7" y="56.05" style="fill:#F5F5F5;" width="161.7" height="317.8"/>
<path style="fill:#FF9B55;" d="M35.4,56.05h153.2v317.8H35.4c-4.6,0-8.4-3.8-8.4-8.4v-301C27,59.85,30.8,56.05,35.4,56.05z"/>
<path style="fill:#2E3033;" d="M19.2,488.65L19.2,488.65c-10.6,0-19.2-8.6-19.2-19.1V42.25c0-10.5,8.5-19,19-19h0.2
	c10.6,0,19.2,8.6,19.2,19.2v427.1C38.3,480.05,29.8,488.65,19.2,488.65z"/>
<g>
</g>
<g>
</g>
<g>
</g>
<g>
</g>
<g>
</g>
<g>
</g>
<g>
</g>
<g>
</g>
<g>
</g>
<g>
</g>
<g>
</g>
<g>
</g>
<g>
</g>
<g>
</g>
<g>
</g>
</svg>
