<?xml version="1.0" encoding="iso-8859-1"?>
<!-- Generator: Adobe Illustrator 19.0.0, SVG Export Plug-In . SVG Version: 6.00 Build 0)  -->
<svg version="1.1" id="Layer_1" xmlns="http://www.w3.org/2000/svg" xmlns:xlink="http://www.w3.org/1999/xlink" x="0px" y="0px"
	 viewBox="0 0 512.1 512.1" style="enable-background:new 0 0 512.1 512.1;" xml:space="preserve">
<path style="fill:#41479B;" d="M503.6,373.9H35.4c-4.6,0-8.4-3.7-8.4-8.4v-301c0-4.6,3.7-8.4,8.4-8.4h468.3c4.6,0,8.4,3.7,8.4,8.4
	v301C512,370.1,508.3,373.9,503.6,373.9z"/>
<path style="fill:#F5F5F5;" d="M265.1,56.1h-14.5l-77.5,50.7V56.1h-41.8v50.7L53.9,56.1H39.4c-4.6,0-8.4,3.7-8.4,8.4v6.6l66.5,43.5
	H31v41.8h66.5L31,200v6.6c0,4.6,3.7,8.4,8.4,8.4h14.5l77.5-50.7V215h41.8v-50.7l77.5,50.7h14.5c4.6,0,8.4-3.7,8.4-8.4V200L207,156.5
	h66.5v-41.8H207l66.5-43.5v-6.6C273.5,59.9,269.8,56.1,265.1,56.1z"/>
<g>
	<polygon style="fill:#FF4B55;" points="273.5,123 164.8,123 164.8,56.1 139.7,56.1 139.7,123 31,123 31,148.1 139.7,148.1 
		139.7,215 164.8,215 164.8,148.1 273.5,148.1 	"/>
	<path style="fill:#FF4B55;" d="M123,114.7L35,57.5c-2.3,1.5-4,4-4,6.9v0.4l76.6,49.7C107.6,114.7,123,114.7,123,114.7z"/>
	<path style="fill:#FF4B55;" d="M188.5,114.7l83.7-54.3c-1.5-2.5-4-4.2-7.1-4.2h-1.8l-90.2,58.5H188.5z"/>
	<path style="fill:#FF4B55;" d="M115.8,156.5l-83.6,54.2c1.4,2.5,4,4.3,7.2,4.3H41l90.2-58.5H115.8z"/>
	<path style="fill:#FF4B55;" d="M273.4,207.3l-78.3-50.8h-15.4l88.9,57.7C271.3,213,273.1,210.4,273.4,207.3z"/>
</g>
<g>
	<path style="fill:#F5F5F5;" d="M384.2,114.7l3.1,9.2l9.7,0.1c0.8,0,1.1,1,0.5,1.4l-7.8,5.8l2.9,9.2c0.2,0.7-0.6,1.3-1.2,0.9
		l-7.9-5.6l-7.9,5.6c-0.6,0.4-1.4-0.2-1.2-0.9l2.9-9.2l-7.8-5.8c-0.6-0.4-0.3-1.4,0.5-1.4l9.7-0.1l3.1-9.2
		C383,114,384,114,384.2,114.7z"/>
	<path style="fill:#F5F5F5;" d="M343,126l6.5,7.2l8.9-3.9c0.7-0.3,1.4,0.4,1,1.1l-4.8,8.4l6.4,7.3c0.5,0.6,0,1.4-0.7,1.3l-9.5-1.9
		l-4.9,8.4c-0.4,0.6-1.4,0.4-1.5-0.3l-1.1-9.6l-9.5-2.1c-0.7-0.2-0.8-1.2-0.2-1.5l8.8-4l-0.9-9.6C341.6,125.9,342.5,125.5,343,126z"
		/>
	<path style="fill:#F5F5F5;" d="M310,153.1l8.9,3.9l6.5-7.2c0.5-0.6,1.4-0.1,1.4,0.6l-0.9,9.6l8.8,4c0.7,0.3,0.6,1.3-0.2,1.5
		l-9.5,2.1l-1.1,9.6c-0.1,0.7-1.1,1-1.5,0.3l-4.9-8.4L308,171c-0.7,0.2-1.2-0.7-0.7-1.3l6.4-7.3l-4.8-8.4
		C308.6,153.6,309.3,152.8,310,153.1z"/>
	<path style="fill:#F5F5F5;" d="M290.8,191.3l9.7-0.1l3.1-9.2c0.2-0.7,1.2-0.7,1.5,0l3.1,9.2l9.7,0.1c0.8,0,1.1,1,0.5,1.4l-7.8,5.8
		l2.9,9.2c0.2,0.7-0.6,1.3-1.2,0.9l-7.9-5.6l-7.9,5.6c-0.6,0.4-1.4-0.2-1.2-0.9l2.9-9.2l-7.8-5.8C289.7,192.3,290,191.3,290.8,191.3
		z"/>
	<path style="fill:#F5F5F5;" d="M288.8,234l8.8-4l-0.9-9.6c-0.1-0.7,0.8-1.2,1.4-0.6l6.5,7.2l8.9-3.9c0.7-0.3,1.4,0.4,1,1.1
		l-4.8,8.4l6.4,7.3c0.5,0.6,0,1.4-0.7,1.3l-9.5-1.9l-4.9,8.4c-0.4,0.6-1.4,0.4-1.5-0.3l-1.1-9.6l-9.5-2.1
		C288.2,235.3,288.1,234.3,288.8,234z"/>
	<path style="fill:#F5F5F5;" d="M304.4,273.8l6.4-7.3l-4.8-8.4c-0.4-0.7,0.3-1.4,1-1.1l8.9,3.9l6.5-7.2c0.5-0.6,1.4-0.1,1.4,0.6
		l-0.9,9.6l8.8,4c0.7,0.3,0.6,1.3-0.2,1.5l-9.5,2.1l-1.1,9.6c-0.1,0.7-1.1,1-1.5,0.3l-4.9-8.4l-9.5,1.9
		C304.4,275.2,303.9,274.4,304.4,273.8z"/>
	<path style="fill:#F5F5F5;" d="M334.8,303.8l2.9-9.2l-7.8-5.8c-0.6-0.4-0.3-1.4,0.5-1.4l9.7-0.1l3.1-9.2c0.2-0.7,1.2-0.7,1.5,0
		l3.1,9.2l9.7,0.1c0.8,0,1.1,1,0.5,1.4l-7.8,5.8l2.9,9.2c0.2,0.7-0.6,1.3-1.2,0.9l-7.9-5.6l-7.9,5.6
		C335.4,305.2,334.5,304.6,334.8,303.8z"/>
	<path style="fill:#F5F5F5;" d="M374.8,318.9l-1.1-9.6l-9.5-2.1c-0.7-0.2-0.8-1.2-0.2-1.5l8.8-4l-0.9-9.6c-0.1-0.7,0.8-1.2,1.4-0.6
		l6.5,7.2l8.9-3.9c0.7-0.3,1.4,0.4,1,1.1l-4.8,8.4l6.4,7.3c0.5,0.6,0,1.4-0.7,1.3l-9.5-1.9l-4.9,8.4
		C375.8,319.9,374.9,319.7,374.8,318.9z"/>
	<path style="fill:#F5F5F5;" d="M417.4,316.4l-4.9-8.4l-9.5,2c-0.7,0.2-1.2-0.7-0.7-1.3l6.4-7.3l-4.8-8.4c-0.4-0.7,0.3-1.4,1-1.1
		l8.9,3.9l6.5-7.2c0.5-0.6,1.4-0.1,1.4,0.6l-0.9,9.6l8.8,4c0.7,0.3,0.6,1.3-0.2,1.5l-9.5,2.1l-1.1,9.6
		C418.8,316.9,417.8,317.1,417.4,316.4z"/>
	<path style="fill:#F5F5F5;" d="M455.4,296.8l-7.9-5.6l-7.9,5.6c-0.6,0.4-1.4-0.2-1.2-0.9l2.9-9.2l-7.8-5.8
		c-0.6-0.4-0.3-1.4,0.5-1.4l9.7-0.1l3.1-9.2c0.2-0.7,1.2-0.7,1.5,0l3.1,9.2l9.7,0.1c0.8,0,1.1,1,0.5,1.4l-7.8,5.8l2.9,9.2
		C456.8,296.6,456,297.2,455.4,296.8z"/>
	<path style="fill:#F5F5F5;" d="M482.1,263.4l-9.5-1.9l-4.9,8.4c-0.4,0.6-1.4,0.4-1.5-0.3l-1.1-9.6l-9.5-2.1
		c-0.7-0.2-0.8-1.2-0.2-1.5l8.8-4l-0.9-9.6c-0.1-0.7,0.8-1.2,1.4-0.6l6.5,7.2l8.9-3.9c0.7-0.3,1.4,0.4,1,1.1l-4.8,8.4l6.4,7.3
		C483.3,262.7,482.8,263.6,482.1,263.4z"/>
	<path style="fill:#F5F5F5;" d="M492.9,222.1l-9.5,2.1l-1.1,9.6c-0.1,0.7-1.1,1-1.5,0.3l-4.9-8.4l-9.5,1.9c-0.7,0.2-1.2-0.7-0.7-1.3
		l6.4-7.3l-4.8-8.4c-0.4-0.7,0.3-1.4,1-1.1l8.9,3.9l6.5-7.2c0.5-0.6,1.4-0.1,1.4,0.6l-0.9,9.6l8.8,4
		C493.8,220.9,493.6,221.9,492.9,222.1z"/>
	<path style="fill:#F5F5F5;" d="M486,179.9l-7.8,5.8l2.9,9.2c0.2,0.7-0.6,1.3-1.2,0.9l-7.9-5.6l-7.9,5.6c-0.6,0.4-1.4-0.2-1.2-0.9
		l2.9-9.2l-7.8-5.8c-0.6-0.4-0.3-1.4,0.5-1.4l9.7-0.1l3.1-9.2c0.2-0.7,1.2-0.7,1.5,0l3.1,9.2l9.7,0.1
		C486.3,178.5,486.6,179.5,486,179.9z"/>
	<path style="fill:#F5F5F5;" d="M462.5,144.2l-4.8,8.4l6.4,7.3c0.5,0.6,0,1.4-0.7,1.3l-9.5-1.9l-4.9,8.4c-0.4,0.6-1.4,0.4-1.5-0.3
		l-1.1-9.6l-9.5-2.1c-0.7-0.2-0.8-1.2-0.2-1.5l8.8-4l-0.9-9.6c-0.1-0.7,0.8-1.2,1.4-0.6l6.5,7.2l8.9-3.9
		C462.2,142.8,462.9,143.5,462.5,144.2z"/>
	<path style="fill:#F5F5F5;" d="M426.5,121.1l-0.9,9.6l8.8,4c0.7,0.3,0.6,1.3-0.2,1.5l-9.5,2.1l-1.1,9.6c-0.1,0.7-1.1,1-1.5,0.3
		l-4.9-8.4l-9.5,1.9c-0.7,0.2-1.2-0.7-0.7-1.3l6.4-7.3l-4.8-8.4c-0.4-0.7,0.3-1.4,1-1.1l8.9,3.9l6.5-7.2
		C425.6,120,426.6,120.4,426.5,121.1z"/>
	<path style="fill:#F5F5F5;" d="M384.2,114.7l3.1,9.2l9.7,0.1c0.8,0,1.1,1,0.5,1.4l-7.8,5.8l2.9,9.2c0.2,0.7-0.6,1.3-1.2,0.9
		l-7.9-5.6l-7.9,5.6c-0.6,0.4-1.4-0.2-1.2-0.9l2.9-9.2l-7.8-5.8c-0.6-0.4-0.3-1.4,0.5-1.4l9.7-0.1l3.1-9.2
		C383,114,384,114,384.2,114.7z"/>
</g>
<path style="fill:#2E3033;" d="M19.2,489.1L19.2,489.1C8.6,489.1,0,480.5,0,469.9V42c0-10.5,8.5-19,19-19h0.2
	c10.6,0,19.2,8.6,19.2,19.2V470C38.4,480.5,29.8,489.1,19.2,489.1z"/>
<g>
</g>
<g>
</g>
<g>
</g>
<g>
</g>
<g>
</g>
<g>
</g>
<g>
</g>
<g>
</g>
<g>
</g>
<g>
</g>
<g>
</g>
<g>
</g>
<g>
</g>
<g>
</g>
<g>
</g>
</svg>
