<?xml version="1.0" encoding="iso-8859-1"?>
<!-- Generator: Adobe Illustrator 19.0.0, SVG Export Plug-In . SVG Version: 6.00 Build 0)  -->
<svg version="1.1" id="Layer_1" xmlns="http://www.w3.org/2000/svg" xmlns:xlink="http://www.w3.org/1999/xlink" x="0px" y="0px"
	 viewBox="0 0 512.001 512.001" style="enable-background:new 0 0 512.001 512.001;" xml:space="preserve">
<path style="fill:#F5F5F5;" d="M512,215.417H27.43V65.118c0-4.661,3.779-8.44,8.44-8.44h467.69c4.661,0,8.44,3.779,8.44,8.44
	V215.417z"/>
<path style="fill:#FF4B55;" d="M44.139,215.417v-8.355H27.43v8.355v8.355v142.029c0,4.614,3.74,8.355,8.355,8.355h467.861
	c4.615,0,8.355-3.741,8.355-8.355V215.417H44.139z"/>
<path style="fill:#41479B;" d="M177.728,215.417H35.87c-4.661,0-8.44-3.779-8.44-8.44V65.118c0-4.661,3.779-8.44,8.44-8.44h141.858
	c4.661,0,8.44,3.779,8.44,8.44v141.858C186.168,211.638,182.39,215.417,177.728,215.417z"/>
<path style="fill:#F5F5F5;" d="M110.017,100.414l7.965,23.882l25.174,0.195c3.259,0.025,4.61,4.184,1.989,6.121l-20.252,14.955
	l7.594,24.002c0.983,3.107-2.555,5.678-5.206,3.783L106.8,158.714l-20.481,14.639c-2.651,1.896-6.19-0.675-5.206-3.783l7.594-24.002
	l-20.252-14.955c-2.622-1.936-1.27-6.096,1.989-6.121l25.175-0.195l7.965-23.882C104.613,97.322,108.986,97.322,110.017,100.414z"/>
<path style="fill:#2E3033;" d="M19.122,488.102L19.122,488.102C8.561,488.102,0,479.54,0,468.979V42.865
	c0-10.474,8.491-18.966,18.965-18.966h0.157c10.561,0,19.122,8.561,19.122,19.122v425.958
	C38.244,479.54,29.683,488.102,19.122,488.102z"/>
<g>
</g>
<g>
</g>
<g>
</g>
<g>
</g>
<g>
</g>
<g>
</g>
<g>
</g>
<g>
</g>
<g>
</g>
<g>
</g>
<g>
</g>
<g>
</g>
<g>
</g>
<g>
</g>
<g>
</g>
</svg>
