<?xml version="1.0" encoding="iso-8859-1"?>
<!-- Generator: Adobe Illustrator 19.0.0, SVG Export Plug-In . SVG Version: 6.00 Build 0)  -->
<svg version="1.1" id="Layer_1" xmlns="http://www.w3.org/2000/svg" xmlns:xlink="http://www.w3.org/1999/xlink" x="0px" y="0px"
	 viewBox="0 0 512 512" style="enable-background:new 0 0 512 512;" xml:space="preserve">
<path style="fill:#73AF00;" d="M184.263,374.657H28.871c-4.681,0-8.476-3.795-8.476-8.476V61.048c0-4.681,3.795-8.476,8.476-8.476
	h155.392V374.657z"/>
<rect x="184.27" y="52.57" style="fill:#FF4B55;" width="163.87" height="322.08"/>
<g>
	<path style="fill:#FFE15A;" d="M503.524,374.657H348.132V52.572h155.392c4.681,0,8.476,3.795,8.476,8.476v305.133
		C512,370.862,508.205,374.657,503.524,374.657z"/>
	<path style="fill:#FFE15A;" d="M267.958,182.547l7.282,21.835l23.016,0.178c1.783,0.014,2.523,2.29,1.088,3.349l-18.516,13.673
		l6.943,21.945c0.538,1.7-1.397,3.106-2.849,2.069l-18.725-13.385l-18.725,13.385c-1.45,1.037-3.386-0.37-2.849-2.069l6.943-21.945
		l-18.516-13.673c-1.435-1.059-0.695-3.335,1.088-3.349l23.016-0.178l7.282-21.835C265.001,180.855,267.393,180.855,267.958,182.547
		z"/>
</g>
<path style="fill:#2E3033;" d="M19.203,489.087L19.203,489.087C8.598,489.087,0,480.49,0,469.884V41.958
	c0-10.519,8.527-19.045,19.045-19.045h0.158c10.606,0,19.203,8.598,19.203,19.203v427.768
	C38.407,480.49,29.809,489.087,19.203,489.087z"/>
<g>
</g>
<g>
</g>
<g>
</g>
<g>
</g>
<g>
</g>
<g>
</g>
<g>
</g>
<g>
</g>
<g>
</g>
<g>
</g>
<g>
</g>
<g>
</g>
<g>
</g>
<g>
</g>
<g>
</g>
</svg>
