<?xml version="1.0" encoding="iso-8859-1"?>
<!-- Generator: Adobe Illustrator 19.0.0, SVG Export Plug-In . SVG Version: 6.00 Build 0)  -->
<svg version="1.1" id="Layer_1" xmlns="http://www.w3.org/2000/svg" xmlns:xlink="http://www.w3.org/1999/xlink" x="0px" y="0px"
	 viewBox="0 0 512 512" style="enable-background:new 0 0 512 512;" xml:space="preserve">
<path style="fill:#FF4B55;" d="M503.56,374.155H35.87c-4.661,0-8.44-3.779-8.44-8.44V65.118c0-4.661,3.779-8.44,8.44-8.44h467.69
	c4.661,0,8.44,3.779,8.44,8.44v300.597C512,370.376,508.222,374.155,503.56,374.155z"/>
<g>
	<path style="fill:#FFE15A;" d="M107.884,106.323l7.965,23.882l25.175,0.195c3.259,0.025,4.61,4.185,1.989,6.121l-20.252,14.955
		l7.594,24.002c0.983,3.108-2.555,5.678-5.206,3.783l-20.482-14.639l-20.481,14.639c-2.651,1.895-6.19-0.675-5.206-3.783
		l7.594-24.002l-20.252-14.955c-2.622-1.936-1.27-6.096,1.989-6.121l25.175-0.195l7.965-23.882
		C102.479,103.231,106.853,103.231,107.884,106.323z"/>
	<path style="fill:#FFE15A;" d="M199.3,112.208l5.711,7.788l9.218-2.882c1.193-0.373,2.175,0.987,1.444,2.002l-5.642,7.838
		l5.589,7.876c0.724,1.019-0.267,2.374-1.458,1.993l-9.198-2.943l-5.763,7.75c-0.746,1.003-2.34,0.479-2.345-0.771l-0.042-9.658
		l-9.151-3.086c-1.185-0.4-1.179-2.077,0.008-2.469l9.172-3.025l0.108-9.656C196.963,111.713,198.56,111.199,199.3,112.208z"/>
	<path style="fill:#FFE15A;" d="M164.527,88.992l9.602,1.043l4.096-8.746c0.531-1.132,2.197-0.938,2.453,0.286l1.974,9.454
		l9.584,1.192c1.241,0.154,1.571,1.799,0.486,2.42l-8.381,4.799l1.827,9.483c0.236,1.228-1.226,2.05-2.152,1.21l-7.154-6.487
		l-8.454,4.668c-1.095,0.605-2.328-0.533-1.816-1.673l3.959-8.808l-7.053-6.598C162.585,90.383,163.284,88.857,164.527,88.992z"/>
	<path style="fill:#FFE15A;" d="M179.705,182.587l-5.711,7.788l-9.218-2.882c-1.193-0.373-2.175,0.987-1.444,2.002l5.642,7.838
		l-5.589,7.876c-0.724,1.02,0.267,2.374,1.458,1.993l9.198-2.943l5.763,7.75c0.746,1.003,2.34,0.48,2.345-0.771l0.042-9.658
		l9.151-3.086c1.185-0.4,1.179-2.077-0.008-2.469L182.163,193l-0.108-9.658C182.042,182.092,180.445,181.579,179.705,182.587z"/>
	<path style="fill:#FFE15A;" d="M214.478,160.772l-9.601,1.043l-4.096-8.746c-0.531-1.132-2.197-0.938-2.452,0.286l-1.974,9.454
		l-9.584,1.192c-1.241,0.154-1.571,1.8-0.486,2.42l8.381,4.799l-1.827,9.483c-0.236,1.228,1.226,2.05,2.152,1.21l7.154-6.488
		l8.454,4.668c1.095,0.605,2.328-0.532,1.816-1.672l-3.959-8.808l7.053-6.598C216.42,162.161,215.721,160.637,214.478,160.772z"/>
</g>
<path style="fill:#2E3033;" d="M19.122,488.1L19.122,488.1C8.561,488.1,0,479.539,0,468.979V42.864C0,32.39,8.491,23.9,18.965,23.9
	h0.157c10.561,0,19.122,8.561,19.122,19.122V468.98C38.244,479.539,29.683,488.1,19.122,488.1z"/>
<g>
</g>
<g>
</g>
<g>
</g>
<g>
</g>
<g>
</g>
<g>
</g>
<g>
</g>
<g>
</g>
<g>
</g>
<g>
</g>
<g>
</g>
<g>
</g>
<g>
</g>
<g>
</g>
<g>
</g>
</svg>
