<?xml version="1.0" encoding="iso-8859-1"?>
<!-- Generator: Adobe Illustrator 19.0.0, SVG Export Plug-In . SVG Version: 6.00 Build 0)  -->
<svg version="1.1" id="Layer_1" xmlns="http://www.w3.org/2000/svg" xmlns:xlink="http://www.w3.org/1999/xlink" x="0px" y="0px"
	 viewBox="0 0 512 512" style="enable-background:new 0 0 512 512;" xml:space="preserve">
<path style="fill:#FF4B55;" d="M512,294.786H27.43v70.929c0,4.661,3.779,8.44,8.44,8.44h467.69c4.661,0,8.44-3.779,8.44-8.44
	V294.786z"/>
<path style="fill:#FFE15A;" d="M512,215.417H27.43V65.118c0-4.661,3.779-8.44,8.44-8.44h467.69c4.661,0,8.44,3.779,8.44,8.44
	V215.417z"/>
<rect x="27.43" y="215.418" style="fill:#41479B;" width="484.57" height="79.37"/>
<path style="fill:#2E3033;" d="M19.122,488.101L19.122,488.101C8.561,488.101,0,479.539,0,468.979V42.864
	C0,32.39,8.491,23.899,18.965,23.899h0.157c10.561,0,19.122,8.561,19.122,19.122v425.958
	C38.244,479.539,29.683,488.101,19.122,488.101z"/>
<g>
</g>
<g>
</g>
<g>
</g>
<g>
</g>
<g>
</g>
<g>
</g>
<g>
</g>
<g>
</g>
<g>
</g>
<g>
</g>
<g>
</g>
<g>
</g>
<g>
</g>
<g>
</g>
<g>
</g>
</svg>
