<?xml version="1.0" encoding="iso-8859-1"?>
<!-- Generator: Adobe Illustrator 19.0.0, SVG Export Plug-In . SVG Version: 6.00 Build 0)  -->
<svg version="1.1" id="Layer_1" xmlns="http://www.w3.org/2000/svg" xmlns:xlink="http://www.w3.org/1999/xlink" x="0px" y="0px"
	 viewBox="0 0 512.001 512.001" style="enable-background:new 0 0 512.001 512.001;" xml:space="preserve">
<rect x="20.448" y="162.77" style="fill:#FF4B55;" width="491.55" height="101.7"/>
<path style="fill:#41479B;" d="M28.923,52.595h474.601c4.68,0,8.475,3.795,8.475,8.475v46.613H20.448V61.07
	C20.448,56.389,24.243,52.595,28.923,52.595z"/>
<rect x="20.448" y="107.69" style="fill:#F5F5F5;" width="491.55" height="55.09"/>
<path style="fill:#41479B;" d="M503.525,374.645H28.924c-4.68,0-8.475-3.795-8.475-8.475v-46.613h491.552v46.613
	C512,370.851,508.205,374.645,503.525,374.645z"/>
<g>
	<rect x="20.448" y="264.47" style="fill:#F5F5F5;" width="491.55" height="55.09"/>
	<ellipse style="fill:#F5F5F5;" cx="153.31" cy="213.62" rx="39.641" ry="42.37"/>
</g>
<rect x="132.81" y="197.22" style="fill:#3CC8FF;" width="41.01" height="20.504"/>
<polygon style="fill:#FFE15A;" points="138.278,208.876 138.747,213.4 140.589,209.242 139.636,213.689 142.674,210.304 
	140.393,214.239 144.327,211.959 140.944,214.996 145.39,214.043 141.233,215.886 145.756,216.354 141.233,216.822 145.39,218.665 
	140.944,217.711 144.327,220.749 140.393,218.469 142.674,222.403 139.636,219.019 140.589,223.466 138.747,219.308 
	138.278,223.832 137.81,219.308 135.968,223.466 136.92,219.019 133.883,222.403 136.164,218.469 132.228,220.749 135.613,217.711 
	131.167,218.665 135.324,216.822 130.8,216.354 135.324,215.886 131.167,214.043 135.613,214.996 132.228,211.959 136.164,214.239 
	133.883,210.304 136.92,213.689 135.968,209.242 137.81,213.4 "/>
<polygon style="fill:#41479B;" points="161.516,246.427 145.113,246.427 130.077,234.124 130.077,216.354 177.919,216.354 
	177.919,234.124 "/>
<path style="fill:#73AF00;" d="M169.717,210.886h-0.001c-0.004-0.374-0.307-0.676-0.682-0.676s-0.677,0.302-0.682,0.676h-0.001
	c0,2.372-1.375,5.654-3.061,8.004c-2.354-2.973-3.24-6.419-3.573-8.589c-0.159-1.035-1.278-1.609-2.215-1.141
	c-0.451,0.226-0.755,0.666-0.833,1.164c-1.047,6.704-4.207,9.552-6.253,10.724c-3.064-2.962-4.073-7.756-4.406-10.59
	c-0.129-1.102-1.308-1.734-2.301-1.238c-0.382,0.191-0.665,0.536-0.799,0.942c-4.287,13.07-16.201,14.394-16.201,14.394v4.101
	h47.843v-1.367v-1.367v-1.367v-1.367v-1.367C171.085,220.454,169.717,210.886,169.717,210.886z"/>
<g>
	<path style="fill:#F0AA00;" d="M176.553,198.583c-5.467-2.734-5.467-5.467-5.467-5.467s-6.835-2.734-12.303-2.734
		c0,0,1.367-2.734-1.367-2.734s-4.101,0-4.101,0s-1.367,0-4.101,0s-1.367,2.734-1.367,2.734c-5.467,0-12.303,2.734-12.303,2.734
		s0,2.734-5.467,5.467c-5.467,2.733-5.467,8.885-5.467,8.885c0,1.132,0.918,2.05,2.05,2.05c1.132,0,2.05-0.918,2.05-2.05
		c0-0.234-0.048-0.454-0.12-0.663l0.12-0.02l13.669-9.568h10.936h10.936l13.669,9.568l0.12,0.02c-0.072,0.209-0.12,0.43-0.12,0.663
		c0,1.132,0.918,2.05,2.05,2.05s2.05-0.918,2.05-2.05C182.02,207.468,182.02,201.318,176.553,198.583z"/>
	<path style="fill:#F0AA00;" d="M180.653,214.987c-1.367,0-5.467,0-5.467-4.101s5.467-4.101,5.467-4.101l-8.202-2.734
		c-2.734,9.568,2.734,9.568,2.734,21.871c0,11.021-12.303,17.77-16.403,17.77c-4.101,0-5.467,2.734-5.467,2.734
		s-1.367-2.734-5.467-2.734c-4.101,0-16.403-6.749-16.403-17.77c0-12.303,5.467-12.303,2.734-21.871l-8.202,2.734
		c0,0,5.467,0,5.467,4.101s-4.101,4.101-5.467,4.101c-1.367,0-6.835,0-6.835,6.835s6.835,15.037,16.403,20.504
		s5.467,10.936,17.77,10.936s8.202-5.467,17.77-10.936c9.568-5.467,16.403-13.669,16.403-20.504S182.02,214.987,180.653,214.987z"/>
</g>
<g>
	<path style="fill:#73AF00;" d="M150.581,193.592l-3.306-1.486c-0.549-0.247-1.158-0.304-1.744-0.168
		c-2.131,0.493-7.419,2.112-11.353,6.647l4.101,1.367L150.581,193.592z"/>
	<path style="fill:#73AF00;" d="M156.048,193.592l3.306-1.486c0.549-0.247,1.158-0.304,1.744-0.168
		c2.131,0.493,7.419,2.112,11.353,6.647l-4.101,1.367L156.048,193.592z"/>
	<path style="fill:#73AF00;" d="M153.798,194.483l2.493-2.493c0.133-0.133,0.133-0.35,0-0.483s-0.35-0.133-0.483,0L153.315,194
		l-2.493-2.493c-0.133-0.133-0.35-0.133-0.483,0s-0.133,0.35,0,0.483l2.493,2.493l-2.493,2.493c-0.133,0.133-0.133,0.35,0,0.483
		c0.067,0.067,0.155,0.101,0.242,0.101s0.175-0.034,0.242-0.101l2.493-2.493l2.493,2.493c0.067,0.067,0.155,0.101,0.242,0.101
		s0.175-0.034,0.242-0.101c0.133-0.133,0.133-0.35,0-0.483L153.798,194.483z"/>
</g>
<path style="fill:#F5F5F5;" d="M180.653,206.785c0-2.325-2.197-3.331-4.101-3.767v-1.083c-2.573-0.242-4.009-1.208-6.505-2.908
	c-0.961-0.656-2.051-1.397-3.367-2.197c-4.806-2.92-8.5-3.341-10.633-3.24v2.259h-5.467v-2.259c-2.133-0.102-5.827,0.32-10.633,3.24
	c-1.316,0.8-2.406,1.541-3.367,2.197c-2.495,1.699-3.93,2.666-6.505,2.908v1.083c-1.904,0.435-4.101,1.441-4.101,3.767l4.101-1.367
	v0.623c3.879-0.286,6.098-1.774,8.813-3.624c0.921-0.627,1.963-1.338,3.187-2.081c3.122-1.897,5.548-2.484,7.137-2.623v2.237h8.202
	v-2.237c1.589,0.139,4.015,0.726,7.137,2.623c1.224,0.744,2.267,1.453,3.187,2.081c2.715,1.85,4.934,3.339,8.813,3.624v-0.623
	L180.653,206.785z"/>
<path style="fill:#3CC8FF;" d="M169.717,185.238v-1.692h-3.807c0.665-0.571,1.074-1.244,1.074-2.051
	c0-3.777-8.593-4.784-13.669-4.784s-13.669,1.007-13.669,4.784c0,0.806,0.409,1.479,1.074,2.051h-3.807v1.692
	c-3.347,0.747-6.082,2.542-6.226,2.639l1.516,2.274c0.037-0.025,3.799-2.504,7.443-2.504v-1.367h27.338v1.367
	c3.645,0,7.406,2.479,7.443,2.504l1.516-2.274C175.8,187.782,173.064,185.985,169.717,185.238z M158.783,183.169v-1.038
	c0-0.67-0.629-1.16-1.278-0.998l-4.19,1.048l-4.19-1.048c-0.649-0.162-1.278,0.328-1.278,0.998v1.038
	c-3.071-0.451-4.887-1.202-5.382-1.672c0.739-0.702,4.361-2.05,10.849-2.05s10.11,1.349,10.849,2.05
	C163.669,181.967,161.853,182.718,158.783,183.169z"/>
<g>
	<path style="fill:#F5F5F5;" d="M153.486,200.467l0.346,1.038l1.094,0.008c0.142,0.001,0.2,0.182,0.087,0.266l-0.88,0.65
		l0.331,1.043c0.042,0.136-0.111,0.247-0.227,0.164l-0.891-0.637l-0.891,0.637c-0.115,0.083-0.269-0.03-0.227-0.164l0.331-1.043
		l-0.88-0.65c-0.114-0.084-0.055-0.265,0.087-0.266l1.094-0.008l0.346-1.038C153.251,200.332,153.44,200.332,153.486,200.467z"/>
	<path style="fill:#F5F5F5;" d="M148.126,200.817l0.453,0.997l1.09-0.106c0.141-0.014,0.218,0.16,0.114,0.255l-0.807,0.739
		l0.438,1.003c0.057,0.13-0.085,0.257-0.208,0.188l-0.952-0.539l-0.819,0.727c-0.106,0.094-0.271-0.001-0.243-0.14l0.219-1.073
		l-0.944-0.554c-0.122-0.072-0.083-0.257,0.058-0.273l1.088-0.123l0.235-1.069C147.878,200.707,148.068,200.687,148.126,200.817z"/>
	<path style="fill:#F5F5F5;" d="M142.624,202.283l0.659,0.875l1.04-0.34c0.135-0.044,0.248,0.109,0.166,0.225l-0.628,0.896
		l0.645,0.885c0.084,0.114-0.026,0.269-0.162,0.228l-1.047-0.321l-0.642,0.887c-0.083,0.114-0.265,0.057-0.267-0.084l-0.019-1.094
		l-1.041-0.337c-0.135-0.043-0.137-0.234-0.002-0.28l1.035-0.356l-0.002-1.094C142.358,202.23,142.539,202.169,142.624,202.283z"/>
	<path style="fill:#F5F5F5;" d="M137.109,204.608l0.768,0.78l0.986-0.475c0.128-0.061,0.261,0.075,0.195,0.201l-0.504,0.971
		l0.756,0.791c0.097,0.103,0.01,0.27-0.13,0.248l-1.081-0.179l-0.519,0.964c-0.067,0.125-0.254,0.092-0.275-0.048l-0.163-1.083
		l-1.077-0.196c-0.14-0.025-0.166-0.214-0.039-0.278l0.979-0.489l-0.146-1.085C136.839,204.59,137.009,204.506,137.109,204.608z"/>
	<path style="fill:#F5F5F5;" d="M158.564,200.817l-0.453,0.997l-1.09-0.106c-0.141-0.014-0.218,0.16-0.114,0.255l0.807,0.739
		l-0.438,1.003c-0.057,0.13,0.085,0.257,0.208,0.188l0.952-0.539l0.819,0.727c0.106,0.094,0.271-0.001,0.243-0.14l-0.219-1.073
		l0.944-0.554c0.122-0.072,0.083-0.257-0.058-0.273l-1.088-0.123l-0.235-1.069C158.812,200.707,158.623,200.687,158.564,200.817z"/>
	<path style="fill:#F5F5F5;" d="M164.067,202.283l-0.659,0.875l-1.04-0.34c-0.135-0.044-0.248,0.109-0.166,0.225l0.628,0.896
		l-0.645,0.885c-0.084,0.114,0.026,0.269,0.162,0.228l1.047-0.321l0.642,0.887c0.083,0.114,0.265,0.057,0.267-0.084l0.019-1.094
		l1.041-0.337c0.135-0.043,0.137-0.234,0.002-0.28l-1.035-0.356l0.002-1.094C164.333,202.23,164.152,202.169,164.067,202.283z"/>
	<path style="fill:#F5F5F5;" d="M169.582,204.608l-0.768,0.78l-0.986-0.475c-0.128-0.061-0.261,0.075-0.195,0.201l0.504,0.971
		l-0.756,0.791c-0.097,0.103-0.01,0.27,0.13,0.248l1.081-0.179l0.519,0.964c0.067,0.125,0.254,0.092,0.275-0.048l0.163-1.083
		l1.077-0.196c0.14-0.025,0.166-0.214,0.039-0.278l-0.979-0.489l0.146-1.085C169.852,204.59,169.681,204.506,169.582,204.608z"/>
</g>
<polygon style="fill:#8C5A28;" points="143.874,233.269 150.837,237.925 159.252,237.925 163.14,234.594 160.149,235.79 
	150.239,235.79 "/>
<path style="fill:#F5F5F5;" d="M148.616,227.261l-0.672,6.778l-3.058-1.167C144.886,232.871,146.293,229.605,148.616,227.261z"/>
<g>
	<rect x="154.66" y="224.58" style="fill:#8C5A28;" width="0.452" height="11.542"/>
	<rect x="158.83" y="225.55" style="fill:#8C5A28;" width="0.452" height="10.565"/>
	<rect x="150.48" y="225.55" style="fill:#8C5A28;" width="0.452" height="10.565"/>
</g>
<g>
	<path style="fill:#F5F5F5;" d="M156.26,235.022h-2.762c-0.287,0-0.52-0.233-0.52-0.52v-1.395c0-0.287,0.233-0.52,0.52-0.52h2.762
		c0.287,0,0.52,0.233,0.52,0.52v1.395C156.78,234.789,156.547,235.022,156.26,235.022z"/>
	<path style="fill:#F5F5F5;" d="M156.26,231.775h-2.762c-0.287,0-0.52-0.233-0.52-0.52v-1.395c0-0.287,0.233-0.52,0.52-0.52h2.762
		c0.287,0,0.52,0.233,0.52,0.52v1.395C156.78,231.542,156.547,231.775,156.26,231.775z"/>
	<path style="fill:#F5F5F5;" d="M156.26,228.784h-2.762c-0.287,0-0.52-0.233-0.52-0.52v-1.395c0-0.287,0.233-0.52,0.52-0.52h2.762
		c0.287,0,0.52,0.233,0.52,0.52v1.395C156.78,228.552,156.547,228.784,156.26,228.784z"/>
	<path style="fill:#F5F5F5;" d="M160.186,235.022h-2.249c-0.287,0-0.52-0.233-0.52-0.52v-1.395c0-0.287,0.233-0.52,0.52-0.52h2.249
		c0.287,0,0.52,0.233,0.52,0.52v1.395C160.706,234.789,160.473,235.022,160.186,235.022z"/>
	<path style="fill:#F5F5F5;" d="M160.186,232.032h-2.249c-0.287,0-0.52-0.233-0.52-0.52v-1.013c0-0.287,0.233-0.52,0.52-0.52h2.249
		c0.287,0,0.52,0.233,0.52,0.52v1.013C160.706,231.799,160.473,232.032,160.186,232.032z"/>
	<path style="fill:#F5F5F5;" d="M160.186,229.069h-2.249c-0.287,0-0.52-0.233-0.52-0.52v-0.683c0-0.287,0.233-0.52,0.52-0.52h2.249
		c0.287,0,0.52,0.233,0.52,0.52v0.683C160.706,228.836,160.473,229.069,160.186,229.069z"/>
	<path style="fill:#F5F5F5;" d="M151.834,235.022h-2.249c-0.287,0-0.52-0.233-0.52-0.52v-1.395c0-0.287,0.233-0.52,0.52-0.52h2.249
		c0.287,0,0.52,0.233,0.52,0.52v1.395C152.354,234.789,152.121,235.022,151.834,235.022z"/>
	<path style="fill:#F5F5F5;" d="M151.834,232.032h-2.249c-0.287,0-0.52-0.233-0.52-0.52v-1.013c0-0.287,0.233-0.52,0.52-0.52h2.249
		c0.287,0,0.52,0.233,0.52,0.52v1.013C152.354,231.799,152.121,232.032,151.834,232.032z"/>
	<path style="fill:#F5F5F5;" d="M151.834,229.069h-2.249c-0.287,0-0.52-0.233-0.52-0.52v-0.683c0-0.287,0.233-0.52,0.52-0.52h2.249
		c0.287,0,0.52,0.233,0.52,0.52v0.683C152.354,228.836,152.121,229.069,151.834,229.069z"/>
	<polygon style="fill:#F5F5F5;" points="150.936,225.553 150.936,226.919 152.944,226.224 	"/>
	<polygon style="fill:#F5F5F5;" points="159.282,225.553 159.282,226.919 161.291,226.224 	"/>
	<polygon style="fill:#F5F5F5;" points="155.1,224.572 155.1,225.938 157.11,225.243 	"/>
</g>
<polygon style="fill:#8C5A28;" points="149.762,215.349 152.181,216.966 155.104,216.966 156.455,215.809 155.416,216.224 
	151.973,216.224 "/>
<path style="fill:#F5F5F5;" d="M151.409,213.261l-0.233,2.355l-1.063-0.406C150.113,215.21,150.602,214.076,151.409,213.261z"/>
<g>
	<rect x="153.5" y="212.33" style="fill:#8C5A28;" width="0.157" height="4.01"/>
	<rect x="154.96" y="212.67" style="fill:#8C5A28;" width="0.157" height="3.671"/>
	<rect x="152.05" y="212.67" style="fill:#8C5A28;" width="0.157" height="3.671"/>
</g>
<g>
	<path style="fill:#F5F5F5;" d="M154.065,215.957h-0.96c-0.1,0-0.181-0.081-0.181-0.181v-0.484c0-0.1,0.081-0.181,0.181-0.181h0.96
		c0.1,0,0.181,0.081,0.181,0.181v0.484C154.245,215.877,154.165,215.957,154.065,215.957z"/>
	<path style="fill:#F5F5F5;" d="M154.065,214.829h-0.96c-0.1,0-0.181-0.081-0.181-0.181v-0.484c0-0.1,0.081-0.181,0.181-0.181h0.96
		c0.1,0,0.181,0.081,0.181,0.181v0.484C154.245,214.748,154.165,214.829,154.065,214.829z"/>
	<path style="fill:#F5F5F5;" d="M154.065,213.791h-0.96c-0.1,0-0.181-0.081-0.181-0.181v-0.484c0-0.1,0.081-0.181,0.181-0.181h0.96
		c0.1,0,0.181,0.081,0.181,0.181v0.484C154.245,213.709,154.165,213.791,154.065,213.791z"/>
	<path style="fill:#F5F5F5;" d="M155.429,215.957h-0.782c-0.1,0-0.181-0.081-0.181-0.181v-0.484c0-0.1,0.081-0.181,0.181-0.181
		h0.782c0.1,0,0.181,0.081,0.181,0.181v0.484C155.61,215.877,155.528,215.957,155.429,215.957z"/>
	<path style="fill:#F5F5F5;" d="M155.429,214.919h-0.782c-0.1,0-0.181-0.081-0.181-0.181v-0.352c0-0.1,0.081-0.181,0.181-0.181
		h0.782c0.1,0,0.181,0.081,0.181,0.181v0.352C155.61,214.837,155.528,214.919,155.429,214.919z"/>
	<path style="fill:#F5F5F5;" d="M155.429,213.889h-0.782c-0.1,0-0.181-0.081-0.181-0.181v-0.237c0-0.1,0.081-0.181,0.181-0.181
		h0.782c0.1,0,0.181,0.081,0.181,0.181v0.237C155.61,213.809,155.528,213.889,155.429,213.889z"/>
	<path style="fill:#F5F5F5;" d="M152.527,215.957h-0.782c-0.1,0-0.181-0.081-0.181-0.181v-0.484c0-0.1,0.081-0.181,0.181-0.181
		h0.782c0.1,0,0.181,0.081,0.181,0.181v0.484C152.708,215.877,152.627,215.957,152.527,215.957z"/>
	<path style="fill:#F5F5F5;" d="M152.527,214.919h-0.782c-0.1,0-0.181-0.081-0.181-0.181v-0.352c0-0.1,0.081-0.181,0.181-0.181
		h0.782c0.1,0,0.181,0.081,0.181,0.181v0.352C152.708,214.837,152.627,214.919,152.527,214.919z"/>
	<path style="fill:#F5F5F5;" d="M152.527,213.889h-0.782c-0.1,0-0.181-0.081-0.181-0.181v-0.237c0-0.1,0.081-0.181,0.181-0.181
		h0.782c0.1,0,0.181,0.081,0.181,0.181v0.237C152.708,213.809,152.627,213.889,152.527,213.889z"/>
	<polygon style="fill:#F5F5F5;" points="152.214,212.668 152.214,213.142 152.913,212.901 	"/>
	<polygon style="fill:#F5F5F5;" points="155.114,212.668 155.114,213.142 155.812,212.901 	"/>
	<polygon style="fill:#F5F5F5;" points="153.662,212.327 153.662,212.801 154.36,212.56 	"/>
	<path style="fill:#F5F5F5;" d="M148.05,208.153h-1.774c-0.64,0-1.163-0.523-1.163-1.163l0,0c0-0.64,0.523-1.163,1.163-1.163h1.774
		c0.64,0,1.163,0.523,1.163,1.163l0,0C149.214,207.628,148.69,208.153,148.05,208.153z"/>
	<path style="fill:#F5F5F5;" d="M161.543,208.153h-1.171c-0.642,0-1.163-0.521-1.163-1.163l0,0c0-0.642,0.521-1.163,1.163-1.163
		h1.171c0.642,0,1.163,0.521,1.163,1.163l0,0C162.707,207.632,162.185,208.153,161.543,208.153z"/>
	<path style="fill:#F5F5F5;" d="M169.854,209.904h-1.031c-0.368,0-0.665-0.298-0.665-0.665v-0.11c0-0.368,0.298-0.665,0.665-0.665
		h1.031c0.368,0,0.665,0.298,0.665,0.665v0.11C170.519,209.606,170.222,209.904,169.854,209.904z"/>
</g>
<path style="fill:#2E3033;" d="M19.201,489.063L19.201,489.063C8.597,489.063,0,480.467,0,469.862V41.982
	c0-10.517,8.526-19.044,19.043-19.044h0.158c10.604,0,19.201,8.597,19.201,19.201v427.723
	C38.402,480.467,29.806,489.063,19.201,489.063z"/>
<g>
</g>
<g>
</g>
<g>
</g>
<g>
</g>
<g>
</g>
<g>
</g>
<g>
</g>
<g>
</g>
<g>
</g>
<g>
</g>
<g>
</g>
<g>
</g>
<g>
</g>
<g>
</g>
<g>
</g>
</svg>
