<?xml version="1.0" encoding="iso-8859-1"?>
<!-- Generator: Adobe Illustrator 19.0.0, SVG Export Plug-In . SVG Version: 6.00 Build 0)  -->
<svg version="1.1" id="Layer_1" xmlns="http://www.w3.org/2000/svg" xmlns:xlink="http://www.w3.org/1999/xlink" x="0px" y="0px"
	 viewBox="0 0 512 512" style="enable-background:new 0 0 512 512;" xml:space="preserve">
<g>
	<path style="fill:#41479B;" d="M512,116.989H20.395V61.048c0-4.681,3.795-8.476,8.476-8.476h474.653
		c4.681,0,8.476,3.795,8.476,8.476V116.989z"/>
	<path style="fill:#41479B;" d="M503.524,374.657H28.871c-4.681,0-8.476-3.795-8.476-8.476V310.24H512v55.941
		C512,370.862,508.205,374.657,503.524,374.657z"/>
</g>
<rect x="20.395" y="116.99" style="fill:#F5F5F5;" width="491.6" height="64.42"/>
<rect x="20.395" y="181.41" style="fill:#41479B;" width="491.6" height="64.42"/>
<rect x="20.395" y="245.82" style="fill:#F5F5F5;" width="491.6" height="64.42"/>
<path style="fill:#FF4B55;" d="M23.574,372.644l245.229-155.311c2.728-1.728,2.728-5.709,0-7.437L23.574,54.585
	c-1.896,1.554-3.178,3.819-3.178,6.463v305.133C20.395,368.825,21.678,371.09,23.574,372.644z"/>
<path style="fill:#F5F5F5;" d="M105.395,172.751l8.703,26.093l27.505,0.213c2.131,0.017,3.014,2.736,1.3,4.002l-22.126,16.339
	l8.297,26.225c0.643,2.032-1.671,3.712-3.404,2.473l-22.379-15.993l-22.378,15.994c-1.733,1.24-4.047-0.442-3.404-2.473
	l8.297-26.225L63.68,203.06c-1.714-1.266-0.831-3.986,1.3-4.002l27.505-0.213l8.703-26.093
	C101.862,170.73,104.721,170.73,105.395,172.751z"/>
<path style="fill:#2E3033;" d="M19.203,489.087L19.203,489.087C8.598,489.087,0,480.49,0,469.884V41.958
	c0-10.519,8.527-19.045,19.045-19.045h0.158c10.606,0,19.203,8.598,19.203,19.203v427.768
	C38.407,480.49,29.809,489.087,19.203,489.087z"/>
<g>
</g>
<g>
</g>
<g>
</g>
<g>
</g>
<g>
</g>
<g>
</g>
<g>
</g>
<g>
</g>
<g>
</g>
<g>
</g>
<g>
</g>
<g>
</g>
<g>
</g>
<g>
</g>
<g>
</g>
</svg>
