<?xml version="1.0" encoding="iso-8859-1"?>
<!-- Generator: Adobe Illustrator 19.0.0, SVG Export Plug-In . SVG Version: 6.00 Build 0)  -->
<svg version="1.1" id="Layer_1" xmlns="http://www.w3.org/2000/svg" xmlns:xlink="http://www.w3.org/1999/xlink" x="0px" y="0px"
	 viewBox="0 0 512 512" style="enable-background:new 0 0 512 512;" xml:space="preserve">
<path style="fill:#41479B;" d="M503.524,374.657H28.871c-4.681,0-8.476-3.795-8.476-8.476V61.048c0-4.681,3.795-8.476,8.476-8.476
	h474.653c4.681,0,8.476,3.795,8.476,8.476v305.133C512,370.862,508.205,374.657,503.524,374.657z"/>
<g>
	<rect x="20.395" y="239.04" style="fill:#F5F5F5;" width="491.6" height="22.602"/>
	<rect x="20.395" y="284.25" style="fill:#F5F5F5;" width="491.6" height="22.602"/>
</g>
<rect x="20.395" y="261.64" style="fill:#FF4B55;" width="491.6" height="22.602"/>
<g>
	<path style="fill:#FFE15A;" d="M183.287,193.127l2.6,7.795l8.216,0.064c0.637,0.005,0.901,0.817,0.389,1.195l-6.61,4.881
		l2.478,7.834c0.192,0.607-0.499,1.109-1.017,0.738l-6.685-4.778l-6.685,4.778c-0.518,0.37-1.209-0.131-1.017-0.738l2.478-7.834
		l-6.61-4.881c-0.512-0.378-0.248-1.191,0.389-1.195l8.216-0.064l2.6-7.795C182.23,192.524,183.085,192.524,183.287,193.127z"/>
	<path style="fill:#FFE15A;" d="M183.287,330.102l2.6,7.795l8.216,0.064c0.637,0.005,0.901,0.817,0.389,1.195l-6.61,4.881
		l2.478,7.834c0.192,0.607-0.499,1.109-1.017,0.738l-6.685-4.778l-6.685,4.778c-0.518,0.37-1.209-0.132-1.017-0.738l2.478-7.834
		l-6.61-4.881c-0.512-0.378-0.248-1.191,0.389-1.195l8.216-0.064l2.6-7.795C182.23,329.498,183.085,329.498,183.287,330.102z"/>
	<path style="fill:#FFE15A;" d="M138.824,337.757l6.607-4.885l6.761,4.67c0.523,0.362,1.207-0.152,1.005-0.755l-2.604-7.794
		l6.531-4.987c0.506-0.387,0.229-1.194-0.408-1.189l-8.216,0.068l-2.725-7.752c-0.211-0.601-1.065-0.587-1.257,0.02l-2.474,7.836
		l-8.214,0.196c-0.637,0.015-0.887,0.832-0.369,1.201l6.688,4.774l-2.352,7.873C137.613,337.645,138.311,338.135,138.824,337.757z"
		/>
	<path style="fill:#FFE15A;" d="M152.038,226.405l-6.709-4.744l-6.661,4.812c-0.516,0.373-1.21-0.126-1.02-0.734l2.439-7.847
		l-6.635-4.848c-0.514-0.375-0.254-1.189,0.382-1.197l8.216-0.105l2.561-7.807c0.198-0.605,1.052-0.609,1.257-0.006l2.639,7.782
		l8.217,0.022c0.637,0.002,0.905,0.813,0.394,1.193l-6.586,4.914l2.518,7.822C153.247,226.267,152.558,226.772,152.038,226.405z"/>
	<path style="fill:#FFE15A;" d="M213.919,226.505l6.607-4.885l6.761,4.67c0.523,0.361,1.207-0.152,1.005-0.755l-2.604-7.794
		l6.531-4.987c0.506-0.387,0.229-1.194-0.408-1.189l-8.216,0.068l-2.725-7.752c-0.211-0.601-1.065-0.587-1.257,0.02l-2.474,7.836
		l-8.214,0.196c-0.637,0.015-0.887,0.832-0.369,1.201l6.688,4.774l-2.352,7.873C212.708,226.393,213.407,226.884,213.919,226.505z"
		/>
	<path style="fill:#FFE15A;" d="M227.134,337.657l-6.709-4.744l-6.661,4.812c-0.516,0.373-1.21-0.126-1.02-0.734l2.439-7.847
		l-6.635-4.848c-0.514-0.375-0.254-1.189,0.382-1.197l8.216-0.105l2.561-7.807c0.198-0.605,1.052-0.609,1.257-0.006l2.639,7.782
		l8.217,0.022c0.637,0.002,0.905,0.813,0.394,1.193l-6.586,4.914l2.518,7.822C228.341,337.518,227.653,338.024,227.134,337.657z"/>
	<path style="fill:#FFE15A;" d="M128.996,289.78l-8.216,0.054l-2.711-7.757c-0.21-0.601-1.064-0.589-1.257,0.018l-2.488,7.832
		l-8.215,0.182c-0.637,0.014-0.889,0.831-0.371,1.201l6.68,4.786l-2.366,7.869c-0.183,0.609,0.515,1.102,1.028,0.725l6.615-4.874
		l6.753,4.682c0.523,0.362,1.207-0.149,1.007-0.753l-2.592-7.798l6.539-4.975C129.908,290.586,129.633,289.776,128.996,289.78z"/>
	<path style="fill:#FFE15A;" d="M106.11,247.549l8.215-0.155l2.513-7.823c0.195-0.606,1.049-0.616,1.257-0.014l2.687,7.765
		l8.217-0.028c0.637-0.002,0.91,0.807,0.402,1.191l-6.555,4.954l2.566,7.806c0.199,0.605-0.486,1.115-1.009,0.75l-6.737-4.703
		l-6.631,4.852c-0.514,0.376-1.21-0.119-1.026-0.728l2.391-7.861l-6.664-4.807C105.219,248.375,105.474,247.561,106.11,247.549z"/>
	<path style="fill:#FFE15A;" d="M259.187,247.245l-8.216,0.054l-2.711-7.757c-0.21-0.601-1.064-0.589-1.257,0.018l-2.488,7.832
		l-8.215,0.182c-0.637,0.014-0.889,0.831-0.371,1.201l6.68,4.786l-2.366,7.869c-0.183,0.609,0.515,1.102,1.028,0.724l6.615-4.874
		l6.753,4.682c0.523,0.362,1.207-0.149,1.007-0.753l-2.59-7.798l6.539-4.975C260.1,248.049,259.824,247.241,259.187,247.245z"/>
	<path style="fill:#FFE15A;" d="M236.301,290.084l8.215-0.155l2.513-7.823c0.195-0.606,1.049-0.616,1.257-0.014l2.687,7.765
		l8.217-0.028c0.637-0.002,0.91,0.807,0.402,1.191l-6.555,4.954l2.566,7.806c0.199,0.605-0.486,1.115-1.009,0.75l-6.737-4.703
		l-6.631,4.852c-0.514,0.376-1.21-0.119-1.026-0.728l2.391-7.861l-6.664-4.807C235.41,290.912,235.666,290.096,236.301,290.084z"/>
</g>
<path style="fill:#2E3033;" d="M19.203,489.087L19.203,489.087C8.598,489.087,0,480.49,0,469.884V41.958
	c0-10.519,8.527-19.045,19.045-19.045h0.158c10.606,0,19.203,8.598,19.203,19.203v427.768
	C38.407,480.49,29.809,489.087,19.203,489.087z"/>
<g>
</g>
<g>
</g>
<g>
</g>
<g>
</g>
<g>
</g>
<g>
</g>
<g>
</g>
<g>
</g>
<g>
</g>
<g>
</g>
<g>
</g>
<g>
</g>
<g>
</g>
<g>
</g>
<g>
</g>
</svg>
