<?xml version="1.0" encoding="iso-8859-1"?>
<!-- Generator: Adobe Illustrator 19.0.0, SVG Export Plug-In . SVG Version: 6.00 Build 0)  -->
<svg version="1.1" id="Layer_1" xmlns="http://www.w3.org/2000/svg" xmlns:xlink="http://www.w3.org/1999/xlink" x="0px" y="0px"
	 viewBox="0 0 512.1 512.1" style="enable-background:new 0 0 512.1 512.1;" xml:space="preserve">
<path style="fill:#41479B;" d="M35.4,56.1h468.3c4.6,0,8.4,3.7,8.4,8.4v301c0,4.6-3.7,8.4-8.4,8.4H35.4c-4.6,0-8.4-3.7-8.4-8.4v-301
	C27,59.9,30.7,56.1,35.4,56.1z"/>
<path style="fill:#73AF00;" d="M508.9,371.9L30.1,58.1c1.4-1.2,3.2-2,5.3-2h468.3c4.6,0,8.4,3.7,8.4,8.4v301
	C512,368.1,510.8,370.3,508.9,371.9z"/>
<circle style="fill:#FFE15A;" cx="269.5" cy="215" r="50.2"/>
<g>
	<path style="fill:#F5F5F5;" d="M77.8,222.2l2.9,7.4l7.6-2.3c0.4-0.1,0.8,0.3,0.6,0.7l-3.9,6.9l6.5,4.5c0.4,0.2,0.2,0.8-0.2,0.9
		l-7.8,1.2l0.6,7.9c0,0.4-0.5,0.7-0.8,0.4l-5.8-5.4l-5.8,5.4c-0.3,0.3-0.8,0-0.8-0.4l0.6-7.9l-7.8-1.2c-0.4-0.1-0.6-0.6-0.2-0.9
		l6.5-4.5l-3.9-6.9c-0.2-0.4,0.1-0.8,0.6-0.7l7.6,2.3l2.9-7.4C77.1,221.8,77.7,221.8,77.8,222.2z"/>
	<path style="fill:#F5F5F5;" d="M169.3,195.7l2.9,7.4l7.6-2.3c0.4-0.1,0.8,0.3,0.6,0.7l-3.9,6.9l6.5,4.5c0.4,0.2,0.2,0.8-0.2,0.9
		L175,215l0.6,7.9c0,0.4-0.5,0.7-0.8,0.4l-5.8-5.4l-5.8,5.4c-0.3,0.3-0.8,0-0.8-0.4l0.6-7.9l-7.8-1.2c-0.4-0.1-0.6-0.6-0.2-0.9
		l6.5-4.5l-3.9-6.9c-0.2-0.4,0.1-0.8,0.6-0.7l7.6,2.3l2.9-7.4C168.5,195.3,169.1,195.3,169.3,195.7z"/>
	<path style="fill:#F5F5F5;" d="M116.4,148.1l2.9,7.4l7.6-2.3c0.4-0.1,0.8,0.3,0.6,0.7l-3.9,6.9l6.5,4.5c0.4,0.2,0.2,0.8-0.2,0.9
		l-7.8,1.2l0.6,7.9c0,0.4-0.5,0.7-0.8,0.4l-5.8-5.4l-5.8,5.4c-0.3,0.3-0.8,0-0.8-0.4l0.6-7.9l-7.8-1.2c-0.4-0.1-0.6-0.6-0.2-0.9
		l6.5-4.5l-3.9-6.9c-0.2-0.4,0.1-0.8,0.6-0.7l7.6,2.3l2.9-7.4C115.7,147.7,116.3,147.7,116.4,148.1z"/>
	<path style="fill:#F5F5F5;" d="M116.4,321.3l2.9,7.4l7.6-2.3c0.4-0.1,0.8,0.3,0.6,0.7l-3.9,6.9l6.5,4.5c0.4,0.2,0.2,0.8-0.2,0.9
		l-7.8,1.2l0.6,7.9c0,0.4-0.5,0.7-0.8,0.4l-5.8-5.4l-5.8,5.4c-0.3,0.3-0.8,0-0.8-0.4l0.6-7.9l-7.8-1.2c-0.4-0.1-0.6-0.6-0.2-0.9
		l6.5-4.5l-3.9-6.9c-0.2-0.4,0.1-0.8,0.6-0.7l7.6,2.3l2.9-7.4C115.7,320.9,116.3,320.9,116.4,321.3z"/>
	<path style="fill:#F5F5F5;" d="M138.1,222.2l2,6.1l6.4,0.1c0.5,0,0.7,0.6,0.3,0.9l-5.2,3.8l1.9,6.1c0.1,0.5-0.4,0.9-0.8,0.6
		l-5.2-3.7l-5.2,3.7c-0.4,0.3-0.9-0.1-0.8-0.6l1.9-6.1l-5.2-3.8c-0.4-0.3-0.2-0.9,0.3-0.9l6.4-0.1l2-6.1
		C137.2,221.7,137.9,221.7,138.1,222.2z"/>
</g>
<path style="fill:#73AF00;" d="M239.7,193.4c-2.1-0.5-4.1,4.8-1.8,6.6s6.4,5.3,3.9,7.3c-2.5,2.1-3.4,2.3-3.9,4.8s0,3-2.1,4.1
	s-6.9,3.4-4.8,5.7c2.1,2.3,4.8,0.9,6.6-2.7c0,0,12.8-0.5,13.3,0.5c0.5,0.9,1.6,4.3,4.3,3.4c2.7-0.9,2.7-0.9,2.7-0.9s1.6-0.7,2.7,0.7
	s3.9,1.8,7.1,1.8s5.9,1.8,5.7,6.2c-0.1,2.8-0.9,8.6-1.3,12.4c-0.3,2,1.1,3.9,3.2,4.2l5.9,1c1.5,0.3,3-0.8,3.1-2.4
	c0.3-3.1,0.7-7.7,0.7-7.9c-0.1-1.6,3.2-10.1,3-13.9c-0.2-3.9-0.2-3.9-0.2-3.9s3.4-0.5,4.8-2.7c1.4-2.3,4.3-8,10.3-10.1l1.6-3.9
	c0,0-4.6-2.1-3.7-3.4c0.9-1.4,1.4-5,0.7-8c-0.7-3-0.9-7.1-0.9-7.1s-1.6-0.7-2,0.3s-0.7,1.5-1.5,1.3c-0.9-0.2-2.2-0.3-2.5-1
	c-0.3-0.8-1.3-1.5-2.2-1.1c-0.9,0.4-2.3,6.2-4.4,6.8c0,0-0.2-2.5-1.5-2s-1.2,1.7-1.4,3.9c-0.2,2.2-14.6,16.7-27.3,12.8
	c0,0-1.4-2.8-4.2-2.5s-5.6,0.2-7.2-1.8C244.8,199.8,242.2,194,239.7,193.4z"/>
<path style="fill:#FFE15A;" d="M332.8,217.3c3.8,4.1,45.7,15.5,88-6.7s67.5-28.6,67.5-28.6s0.3-5.7,5.5-6.6c5.2-0.8,2.7-3,1.3-4.7
	c-1.3-1.7-7.9-6.2-16.8-2.4c0,0-10.4,0.4-11.9-13.9c-1.6-14.3-2.2-28.9-5.8-35.2s-33-37.5-36.6-35s9,33.6,20.6,44.6
	c0,0,2.7,19.3-0.7,20.2c-3.4,0.9-22-16.1-55.1-20.2c0,0,14.1,19.3,31.4,27.3c17.2,8.1,22,15.5,21.5,18.6
	c-0.4,3.1-6.3,18.1-15.9,25.1c-9.6,6.9-33.8,25.8-88.7,15.9C337.1,215.6,331,215.4,332.8,217.3z"/>
<path style="fill:#2E3033;" d="M19.2,489.1L19.2,489.1C8.6,489.1,0,480.5,0,469.9V42c0-10.5,8.5-19,19-19h0.2
	c10.6,0,19.2,8.6,19.2,19.2V470C38.4,480.5,29.8,489.1,19.2,489.1z"/>
<g>
</g>
<g>
</g>
<g>
</g>
<g>
</g>
<g>
</g>
<g>
</g>
<g>
</g>
<g>
</g>
<g>
</g>
<g>
</g>
<g>
</g>
<g>
</g>
<g>
</g>
<g>
</g>
<g>
</g>
</svg>
