<?xml version="1.0" encoding="iso-8859-1"?>
<!-- Generator: Adobe Illustrator 19.0.0, SVG Export Plug-In . SVG Version: 6.00 Build 0)  -->
<svg version="1.1" id="Layer_1" xmlns="http://www.w3.org/2000/svg" xmlns:xlink="http://www.w3.org/1999/xlink" x="0px" y="0px"
	 viewBox="0 0 512 512" style="enable-background:new 0 0 512 512;" xml:space="preserve">
<path style="fill:#F5F5F5;" d="M503.547,374.338H35.133c-4.668,0-8.453-3.785-8.453-8.453V64.822c0-4.668,3.785-8.453,8.453-8.453
	h468.414c4.668,0,8.453,3.785,8.453,8.453v301.062C512,370.553,508.216,374.338,503.547,374.338z"/>
<g>
	<path style="fill:#73AF00;" d="M258.37,314.452c4.629-3.458,8.652-4.588,14.876-5.719c6.226-1.131,12.802-3.059,16.251-3.991
		c3.478-0.964-11.685,4.588-15.548,5.687C270.149,311.591,258.37,314.452,258.37,314.452L258.37,314.452z"/>
	<path style="fill:#73AF00;" d="M283.43,304.715c-1.246-7.821,1.85-16.058,8.938-19.347
		C294.029,291.051,288.952,300.692,283.43,304.715L283.43,304.715z"/>
	<path style="fill:#73AF00;" d="M295.53,300.661c-3.799-6.545,2.586-14.942,7.343-19.028
		C305.076,285.559,301.211,297.276,295.53,300.661L295.53,300.661z"/>
	<path style="fill:#73AF00;" d="M306.671,295.617c-4.023-5.587,0.766-15.357,5.875-19.219
		C314.525,281.921,312.546,291.816,306.671,295.617L306.671,295.617z"/>
	<path style="fill:#73AF00;" d="M317.845,288.594c-3.702-5.268-1.117-13.441,4.214-18.773
		C325.859,274.226,322.601,283.74,317.845,288.594L317.845,288.594z"/>
	<path style="fill:#73AF00;" d="M326.817,281.569c-3.098-4.981,0.702-16.888,5.682-20.178
		C334.638,265.798,333.042,278.249,326.817,281.569L326.817,281.569z"/>
	<path style="fill:#73AF00;" d="M333.935,279.686c-0.894-7.121,11.556-15.005,16.634-14.781
		C350.026,270.714,344.694,277.098,333.935,279.686L333.935,279.686z"/>
	<path style="fill:#73AF00;" d="M326.975,287.73c5.875-6.001,17.208-6.001,21.23-4.757
		C347.153,286.487,333.744,294.117,326.975,287.73L326.975,287.73z"/>
	<path style="fill:#73AF00;" d="M318.93,293.765c8.237-2.203,13.568-3.992,18.485,1.117
		C333.935,299.288,320.591,297.979,318.93,293.765L318.93,293.765z"/>
	<path style="fill:#73AF00;" d="M307.182,299.097c7.885-4.216,17.431,2.011,18.867,5.618
		C317.271,308.386,307.022,300.022,307.182,299.097L307.182,299.097z"/>
	<path style="fill:#73AF00;" d="M296.391,305.13c7.184-2.746,15.421,0.894,18.676,4.917
		C311.236,311.899,301.211,313.91,296.391,305.13L296.391,305.13z"/>
	<path style="fill:#73AF00;" d="M286.559,308.226c8.236-0.926,16.122,5.332,17.847,8.876
		C293.932,318.123,289.879,314.963,286.559,308.226L286.559,308.226z"/>
	<path style="fill:#73AF00;" d="M283.91,314.452c-4.566-3.458-8.588-4.588-14.814-5.719c-6.226-1.131-12.802-3.059-16.313-3.991
		c-3.416-0.964,11.748,4.588,15.61,5.687C272.224,311.591,283.91,314.452,283.91,314.452L283.91,314.452z"/>
	<path style="fill:#73AF00;" d="M258.849,304.715c1.308-7.821-1.788-16.058-8.939-19.347
		C248.312,291.051,253.389,300.692,258.849,304.715L258.849,304.715z"/>
	<path style="fill:#73AF00;" d="M246.811,300.661c3.864-6.545-2.586-14.942-7.343-19.028
		C237.266,285.559,241.13,297.276,246.811,300.661L246.811,300.661z"/>
	<path style="fill:#73AF00;" d="M235.607,295.617c4.086-5.587-0.703-15.357-5.81-19.219
		C227.786,281.921,229.795,291.816,235.607,295.617L235.607,295.617z"/>
	<path style="fill:#73AF00;" d="M224.464,288.594c3.671-5.268,1.118-13.441-4.181-18.773
		C216.484,274.226,219.739,283.74,224.464,288.594L224.464,288.594z"/>
	<path style="fill:#73AF00;" d="M215.526,281.569c3.159-4.981-0.703-16.888-5.684-20.178
		C207.639,265.798,209.3,278.249,215.526,281.569L215.526,281.569z"/>
	<path style="fill:#73AF00;" d="M208.342,279.686c0.957-7.121-11.493-15.005-16.569-14.781
		C192.315,270.714,197.552,277.098,208.342,279.686L208.342,279.686z"/>
	<path style="fill:#73AF00;" d="M215.366,287.73c-5.875-6.001-17.207-6.001-21.23-4.757
		C195.253,286.487,208.597,294.117,215.366,287.73L215.366,287.73z"/>
	<path style="fill:#73AF00;" d="M223.411,293.765c-8.236-2.203-13.568-3.992-18.486,1.117
		C208.342,299.288,221.75,297.979,223.411,293.765L223.411,293.765z"/>
	<path style="fill:#73AF00;" d="M235.095,299.097c-7.853-4.216-17.367,2.011-18.804,5.618
		C225.07,308.386,235.255,300.022,235.095,299.097L235.095,299.097z"/>
	<path style="fill:#73AF00;" d="M245.854,305.13c-7.151-2.746-15.355,0.894-18.612,4.917
		C231.105,311.899,241.13,313.91,245.854,305.13L245.854,305.13z"/>
	<path style="fill:#73AF00;" d="M255.815,308.226c-8.3-0.926-16.186,5.332-17.877,8.876
		C248.473,318.123,252.495,314.963,255.815,308.226L255.815,308.226z"/>
</g>
<path style="fill:#FFC850;" d="M166.935,189.944c0,0-2.287,2.982,1.597,10.535s1.094,16.269,5.278,19.059
	c4.184,2.79,0.176,8.32,4.969,12.004s17.389,12.163,26.083,13.153c8.694,0.991,17.141-7.793,22.157-1.309
	c5.016,6.484,3.92,11.055,8.652,11.558c4.732,0.504,4.732-1.588,4.383-4.725c-0.349-3.138,3.138-11.854,11.157-11.854
	s16.514-0.954,30.048-6.056c13.533-5.101,20.157-7.542,21.901-15.561c1.743-8.019,6.699-17.5,16.25-13.108
	c9.55,4.391,8.909,2.332,11.844,0.224c2.936-2.108,12.78,3.99,15.005,0.767s-17.419-19.171-16.313-27.584
	c1.105-8.413,3.755-15.4,11.844-16.09s5.996-9.755,14.365-14.287c8.368-4.532,12.222-5.051,18.837-11.765
	c6.615-6.714,24.009-20.304,24.009-20.304s-33.841,16.207-40.609,17.687c-6.769,1.481-9.557,11.244-28.384,16.473
	s-19.873,7.321-34.167,10.46c-12.873,2.825-41.954,1.877-59.156-3.643c-2.372-0.761-4.73,1.113-4.519,3.595
	c0.708,8.361,0.51,23.395-9.645,25.727c0,0-13.842-10.338-22.558-5.806c-8.716,4.533-14.914,20.696-21.403,18.192
	C172.067,194.783,171.218,184.408,166.935,189.944z"/>
<path style="fill:#2E3033;" d="M19.152,488.46L19.152,488.46C8.575,488.46,0,479.885,0,469.308V42.534
	C0,32.044,8.504,23.54,18.994,23.54h0.157c10.577,0,19.152,8.575,19.152,19.152v426.617C38.303,479.885,29.728,488.46,19.152,488.46
	z"/>
<g>
</g>
<g>
</g>
<g>
</g>
<g>
</g>
<g>
</g>
<g>
</g>
<g>
</g>
<g>
</g>
<g>
</g>
<g>
</g>
<g>
</g>
<g>
</g>
<g>
</g>
<g>
</g>
<g>
</g>
</svg>
