<?xml version="1.0" encoding="iso-8859-1"?>
<!-- Generator: Adobe Illustrator 19.0.0, SVG Export Plug-In . SVG Version: 6.00 Build 0)  -->
<svg version="1.1" id="Layer_1" xmlns="http://www.w3.org/2000/svg" xmlns:xlink="http://www.w3.org/1999/xlink" x="0px" y="0px"
	 viewBox="0 0 512.001 512.001" style="enable-background:new 0 0 512.001 512.001;" xml:space="preserve">
<path style="fill:#41479B;" d="M30.512,372.135l239.203-156.719L30.512,58.697c-1.841,1.533-3.082,3.753-3.082,6.335V365.8
	C27.43,368.383,28.671,370.604,30.512,372.135z"/>
<path style="fill:#FF4B55;" d="M30.512,372.135c1.449,1.206,3.241,2.019,5.273,2.019h467.861c4.615,0,8.355-3.741,8.355-8.355
	V215.417H269.715L30.512,372.135z"/>
<path style="fill:#F5F5F5;" d="M30.512,58.697c1.449-1.206,3.241-2.019,5.273-2.019h467.861c4.615,0,8.355,3.741,8.355,8.355
	v150.384H269.715L30.512,58.697z"/>
<path style="fill:#2E3033;" d="M19.122,488.1L19.122,488.1C8.561,488.1,0,479.539,0,468.979V42.864C0,32.39,8.491,23.9,18.965,23.9
	h0.157c10.561,0,19.122,8.561,19.122,19.122V468.98C38.244,479.539,29.683,488.1,19.122,488.1z"/>
<g>
</g>
<g>
</g>
<g>
</g>
<g>
</g>
<g>
</g>
<g>
</g>
<g>
</g>
<g>
</g>
<g>
</g>
<g>
</g>
<g>
</g>
<g>
</g>
<g>
</g>
<g>
</g>
<g>
</g>
</svg>
