<?xml version="1.0" encoding="iso-8859-1"?>
<!-- Generator: Adobe Illustrator 19.0.0, SVG Export Plug-In . SVG Version: 6.00 Build 0)  -->
<svg version="1.1" id="Layer_1" xmlns="http://www.w3.org/2000/svg" xmlns:xlink="http://www.w3.org/1999/xlink" x="0px" y="0px"
	 viewBox="0 0 511.999 511.999" style="enable-background:new 0 0 511.999 511.999;" xml:space="preserve">
<path style="fill:#73AF00;" d="M266.197,374.657H28.871c-4.681,0-8.476-3.795-8.476-8.476V61.047c0-4.681,3.795-8.476,8.476-8.476
	h237.326V374.657z"/>
<path style="fill:#F5F5F5;" d="M266.197,52.571h237.326c4.681,0,8.476,3.795,8.476,8.476V366.18c0,4.681-3.795,8.476-8.476,8.476
	H266.197V52.571z"/>
<g>
	<path style="fill:#FF4B55;" d="M307.108,182.799l-14.695,19.223l-22.945-7.68c-1.283-0.429-2.374,1.021-1.606,2.135l13.742,19.916
		l-14.395,19.449c-0.805,1.087,0.237,2.574,1.534,2.187l23.188-6.915l14.049,19.701c0.785,1.102,2.522,0.569,2.554-0.783
		l0.589-24.19l23.078-7.273c1.29-0.407,1.32-2.222,0.044-2.671l-22.824-8.035l0.214-24.197
		C309.647,182.313,307.929,181.723,307.108,182.799z"/>
	<path style="fill:#FF4B55;" d="M281.431,271.829c-32.126,0-58.186-26.06-58.186-58.216c0-32.096,26.06-58.215,58.186-58.215
		c11.952,0,22.975,3.676,32.161,9.898c1.407,0.952,3.012-0.895,1.834-2.12c-13.729-14.273-33.159-22.98-54.702-22.245
		c-37.012,1.263-67.653,30.938-70.018,67.896c-2.709,42.333,30.811,77.512,72.544,77.512c20.557,0,39.033-8.595,52.227-22.335
		c1.165-1.214-0.444-3.034-1.836-2.09C304.446,268.148,293.405,271.829,281.431,271.829z"/>
</g>
<path style="fill:#2E3033;" d="M19.203,489.087L19.203,489.087C8.598,489.087,0,480.489,0,469.884V41.957
	c0-10.519,8.527-19.045,19.045-19.045h0.158c10.606,0,19.203,8.598,19.203,19.203v427.768
	C38.407,480.489,29.809,489.087,19.203,489.087z"/>
<g>
</g>
<g>
</g>
<g>
</g>
<g>
</g>
<g>
</g>
<g>
</g>
<g>
</g>
<g>
</g>
<g>
</g>
<g>
</g>
<g>
</g>
<g>
</g>
<g>
</g>
<g>
</g>
<g>
</g>
</svg>
