<?xml version="1.0" encoding="iso-8859-1"?>
<!-- Generator: Adobe Illustrator 19.0.0, SVG Export Plug-In . SVG Version: 6.00 Build 0)  -->
<svg version="1.1" id="Layer_1" xmlns="http://www.w3.org/2000/svg" xmlns:xlink="http://www.w3.org/1999/xlink" x="0px" y="0px"
	 viewBox="0 0 512 512" style="enable-background:new 0 0 512 512;" xml:space="preserve">
<path style="fill:#FF4B55;" d="M503.56,374.155H35.87c-4.661,0-8.44-3.779-8.44-8.44V65.118c0-4.661,3.779-8.44,8.44-8.44h467.69
	c4.661,0,8.44,3.779,8.44,8.44v300.597C512,370.376,508.222,374.155,503.56,374.155z"/>
<g>
	<path style="fill:#F5F5F5;" d="M239.882,227.646c-10.532,0.109-22.358-3.264-32.721-14.687c-0.715-0.788-0.615-2.028,0.197-2.716
		l0.004-0.003c0.788-0.668,1.952-0.563,2.647,0.199c15.796,17.345,35.374,14.309,47.07,10.117
		c-4.322,0.192-9.751-0.133-13.243-2.429c-14.59-9.59-7.981-19.793-17.671-32.126c-9.628-12.254-18.292-11.954-31.934-9.886
		c-13.505,2.047-17.808-7.86-19.146-13.358c-0.239-0.984-1.613-1.047-1.965-0.097c-16.834,45.48,33.782,101.754,85.747,61.292
		C253.738,225.842,247.134,227.571,239.882,227.646z M201.961,212.212c-0.295,0.812-1.455,0.781-1.706-0.046l-1.938-6.388
		l-6.672-0.234c-0.864-0.031-1.192-1.143-0.483-1.636l5.475-3.817l-1.839-6.418c-0.238-0.83,0.718-1.486,1.407-0.965l5.322,4.028
		l5.535-3.733c0.716-0.483,1.636,0.224,1.353,1.04l-2.186,6.307l5.26,4.11c0.68,0.532,0.292,1.625-0.572,1.608l-6.674-0.131
		L201.961,212.212z"/>
	<path style="fill:#F5F5F5;" d="M277.162,197.43c8.363-6.403,19.849-10.797,34.991-7.871c1.044,0.202,1.708,1.254,1.471,2.291
		l-0.001,0.004c-0.23,1.006-1.224,1.622-2.238,1.427c-23.042-4.408-36.888,9.764-43.734,20.133
		c3.343-2.745,7.883-5.741,12.053-5.999c17.426-1.076,18.257,11.052,33.408,15.11c15.054,4.031,21.806-1.404,31.483-11.24
		c9.58-9.737,18.964-4.39,23.332-0.793c0.782,0.644,1.919-0.13,1.63-1.101c-13.805-46.489-88.057-61.165-105.374,2.378
		C267.156,207.183,271.403,201.839,277.162,197.43z M316.763,187.039c-0.25-0.827,0.696-1.497,1.393-0.985l5.382,3.949l5.479-3.814
		c0.709-0.494,1.638,0.199,1.368,1.02l-2.092,6.338l5.32,4.032c0.689,0.522,0.316,1.62-0.548,1.616l-6.675-0.032l-2.19,6.306
		c-0.284,0.817-1.443,0.802-1.706-0.021l-2.033-6.359l-6.674-0.135c-0.864-0.018-1.209-1.125-0.506-1.629l5.418-3.898
		L316.763,187.039z"/>
	<path style="fill:#F5F5F5;" d="M249.271,201.812c-4.107-9.699-5.488-21.918,1.131-35.848c0.457-0.961,1.642-1.34,2.587-0.851
		l0.004,0.002c0.917,0.475,1.264,1.591,0.823,2.524c-10.031,21.208,0.227,38.157,8.554,47.379
		c-1.822-3.924-3.587-9.068-2.794-13.171c3.317-17.141,15.267-14.911,22.985-28.566c7.669-13.566,4.094-21.464-3.008-33.294
		c-7.032-11.712,0.493-19.46,5.068-22.789c0.819-0.596,0.354-1.891-0.658-1.854c-48.464,1.739-81.246,69.959-24.054,102.619
		C256.213,213.941,252.101,208.492,249.271,201.812z M249.116,160.872c-0.864,0.036-1.275-1.049-0.606-1.595l5.17-4.223
		l-2.322-6.258c-0.301-0.81,0.603-1.537,1.33-1.07l5.614,3.611l5.235-4.143c0.677-0.536,1.648,0.099,1.427,0.935l-1.7,6.456
		l5.558,3.698c0.72,0.479,0.416,1.598-0.447,1.647l-6.664,0.379l-1.8,6.428c-0.233,0.832-1.392,0.888-1.705,0.083l-2.419-6.221
		L249.116,160.872z"/>
	<path style="fill:#F5F5F5;" d="M287.033,223.82c8.706,5.929,16.484,15.454,18.464,30.749c0.136,1.055-0.654,2.016-1.713,2.116
		h-0.005c-1.028,0.098-1.923-0.652-2.058-1.676c-3.052-23.261-20.856-31.954-32.85-35.197c3.657,2.312,7.927,5.68,9.481,9.559
		c6.495,16.206-4.758,20.804-3.852,36.463c0.901,15.558,8.182,20.261,20.56,26.359c12.253,6.037,10.124,16.625,8.081,21.903
		c-0.366,0.945,0.726,1.781,1.557,1.202c39.8-27.708,30.413-102.812-35.353-99.295C274.629,217.383,281.037,219.737,287.033,223.82z
		 M309.336,258.153c0.707-0.498,1.639,0.191,1.374,1.013l-2.058,6.35l5.341,4.004c0.692,0.518,0.325,1.618-0.539,1.619l-6.675,0.004
		l-2.156,6.317c-0.28,0.818-1.439,0.809-1.707-0.013l-2.067-6.347l-6.675-0.099c-0.864-0.013-1.214-1.118-0.516-1.627l5.397-3.928
		l-1.969-6.379c-0.254-0.826,0.688-1.5,1.387-0.993l5.403,3.92L309.336,258.153z"/>
	<path style="fill:#F5F5F5;" d="M265.26,242.694c-2.998,10.097-9.705,20.405-23.673,26.944c-0.963,0.452-2.12-0.011-2.537-0.989
		l-0.002-0.004c-0.406-0.949,0.036-2.031,0.971-2.471c21.229-9.986,24.093-29.59,23.533-42.003c-1.09,4.186-2.999,9.28-6.221,11.941
		c-13.462,11.118-21.266,1.798-35.906,7.425c-14.546,5.592-16.811,13.959-18.854,27.605c-2.022,13.509-12.756,14.703-18.405,14.363
		c-1.012-0.061-1.476,1.233-0.671,1.849c38.505,29.482,107.191-2.314,83.829-63.891C267.617,228.921,267.324,235.741,265.26,242.694
		z M239.34,274.386c0.689,0.522,0.318,1.62-0.546,1.616l-6.675-0.028l-2.188,6.307c-0.284,0.817-1.443,0.803-1.706-0.021
		l-2.035-6.357l-6.674-0.133c-0.864-0.017-1.209-1.125-0.507-1.629l5.417-3.9l-1.937-6.388c-0.25-0.827,0.695-1.497,1.393-0.986
		l5.384,3.947l5.478-3.816c0.709-0.494,1.638,0.199,1.368,1.02l-2.09,6.34L239.34,274.386z"/>
</g>
<path style="fill:#2E3033;" d="M19.122,488.1L19.122,488.1C8.561,488.1,0,479.539,0,468.979V42.864C0,32.39,8.491,23.9,18.965,23.9
	h0.157c10.561,0,19.122,8.561,19.122,19.122V468.98C38.244,479.539,29.683,488.1,19.122,488.1z"/>
<g>
</g>
<g>
</g>
<g>
</g>
<g>
</g>
<g>
</g>
<g>
</g>
<g>
</g>
<g>
</g>
<g>
</g>
<g>
</g>
<g>
</g>
<g>
</g>
<g>
</g>
<g>
</g>
<g>
</g>
</svg>
