<?xml version="1.0" encoding="iso-8859-1"?>
<!-- Generator: Adobe Illustrator 19.0.0, SVG Export Plug-In . SVG Version: 6.00 Build 0)  -->
<svg version="1.1" id="Layer_1" xmlns="http://www.w3.org/2000/svg" xmlns:xlink="http://www.w3.org/1999/xlink" x="0px" y="0px"
	 viewBox="0 0 512.1 512.1" style="enable-background:new 0 0 512.1 512.1;" xml:space="preserve">
<path style="fill:#41479B;" d="M27,268h485v97.6c0,4.6-3.7,8.4-8.4,8.4H35.4c-4.6,0-8.4-3.7-8.4-8.4C27,365.6,27,268,27,268z"/>
<path style="fill:#FF4B55;" d="M35.4,56.1h468.3c4.6,0,8.4,3.7,8.4,8.4V162H27V64.5C27,59.9,30.7,56.1,35.4,56.1z"/>
<rect x="27" y="162" style="fill:#F5F5F5;" width="485" height="105.9"/>
<g>
	<rect x="211" y="164.8" style="fill:#FF4B55;" width="23.4" height="26.8"/>
	<rect x="257.8" y="164.8" style="fill:#FF4B55;" width="23.4" height="26.8"/>
	<rect x="234.4" y="191.6" style="fill:#FF4B55;" width="23.4" height="26.8"/>
	<rect x="304.6" y="164.8" style="fill:#FF4B55;" width="23.4" height="26.8"/>
	<rect x="281.2" y="191.6" style="fill:#FF4B55;" width="23.4" height="26.8"/>
</g>
<g>
	<rect x="234.4" y="164.8" style="fill:#F5F5F5;" width="23.4" height="26.8"/>
	<rect x="281.2" y="164.8" style="fill:#F5F5F5;" width="23.4" height="26.8"/>
	<rect x="211" y="191.6" style="fill:#F5F5F5;" width="23.4" height="26.8"/>
	<rect x="257.8" y="191.6" style="fill:#F5F5F5;" width="23.4" height="26.8"/>
	<rect x="304.6" y="191.6" style="fill:#F5F5F5;" width="23.4" height="26.8"/>
</g>
<g>
	<rect x="257.8" y="218.3" style="fill:#FF4B55;" width="23.4" height="26.8"/>
	<rect x="234.4" y="245.1" style="fill:#FF4B55;" width="23.4" height="26.8"/>
	<rect x="281.2" y="245.1" style="fill:#FF4B55;" width="23.4" height="26.8"/>
</g>
<g>
	<rect x="234.4" y="218.3" style="fill:#F5F5F5;" width="23.4" height="26.8"/>
	<rect x="281.2" y="218.3" style="fill:#F5F5F5;" width="23.4" height="26.8"/>
	<rect x="257.8" y="245.1" style="fill:#F5F5F5;" width="23.4" height="26.8"/>
</g>
<g>
	<path style="fill:#FF4B55;" d="M328,164.8v75.3c0,32.3-26.2,58.5-58.5,58.5S211,272.4,211,240.1v-75.3H328 M332.2,160.6H328H211
		h-4.2v4.2v75.3c0,34.6,28.1,62.7,62.7,62.7s62.7-28.1,62.7-62.7v-75.3V160.6L332.2,160.6z"/>
	<path style="fill:#FF4B55;" d="M234.4,245.1v-26.8H211V240c0,1.7,0.1,3.4,0.3,5h23.1L234.4,245.1L234.4,245.1z"/>
</g>
<g>
	<path style="fill:#F5F5F5;" d="M327.8,245.1h-23.2v26.8h14C323.7,264,326.9,254.9,327.8,245.1z"/>
	<path style="fill:#F5F5F5;" d="M220.4,271.9h14v-26.8h-23.2C212.1,254.9,215.3,264,220.4,271.9z"/>
</g>
<g>
	<path style="fill:#FF4B55;" d="M304.6,245.1h23.2c0.1-1.7,0.3-3.3,0.3-5v-21.7h-23.4v26.7H304.6z"/>
	<path style="fill:#FF4B55;" d="M234.4,286.8v-15h-14C224.1,277.6,228.9,282.7,234.4,286.8z"/>
	<path style="fill:#FF4B55;" d="M318.6,271.9h-14v15C310.1,282.7,314.9,277.6,318.6,271.9z"/>
</g>
<g>
	<path style="fill:#F5F5F5;" d="M234.4,286.8c6.8,5.1,14.7,8.9,23.4,10.6v-25.6h-23.4V286.8z"/>
	<path style="fill:#F5F5F5;" d="M281.2,297.4c8.7-1.8,16.6-5.5,23.4-10.6v-15h-23.4V297.4z"/>
</g>
<path style="fill:#FF4B55;" d="M281.2,271.9h-23.4v25.6c3.8,0.8,7.7,1.2,11.7,1.2s7.9-0.4,11.7-1.2L281.2,271.9L281.2,271.9z"/>
<g>
	<path style="fill:#4173CD;" d="M227.1,120.5c-5.1-0.8-10.3-1.4-15.6-1.7c-4.1,3.4-8,6.9-11.7,10.6c3.7,9,7.5,18,11.2,27
		c7.5-3.1,15.2-5.6,23-7.5C231.7,139.5,229.4,130,227.1,120.5z"/>
	<path style="fill:#4173CD;" d="M283.7,116.1c-4.6-2.3-9.3-4.5-14.2-6.4c-4.9,2-9.6,4.1-14.2,6.4c0.8,9.7,1.5,19.5,2.3,29.2
		c7.9-0.6,15.9-0.6,23.9,0C282.2,135.6,282.9,125.8,283.7,116.1z"/>
	<path style="fill:#4173CD;" d="M339.2,129.4c-3.7-3.7-7.6-7.2-11.7-10.6c-5.3,0.3-10.5,0.9-15.6,1.7c-2.3,9.5-4.5,19-6.8,28.5
		c7.8,1.9,15.5,4.3,23,7.5C331.8,147.5,335.5,138.4,339.2,129.4z"/>
</g>
<g>
	<path style="fill:#41479B;" d="M255.3,116.1c-4.9-1.6-9.9-3-15.1-4.1c-4.5,2.7-8.9,5.5-13.1,8.6c2.3,9.5,4.5,19,6.8,28.5
		c7.8-1.9,15.7-3.1,23.6-3.7C256.8,135.6,256,125.8,255.3,116.1z"/>
	<path style="fill:#41479B;" d="M311.9,120.5c-4.2-3-8.6-5.9-13.1-8.6c-5.2,1.2-10.2,2.5-15.1,4.1c-0.8,9.7-1.5,19.5-2.3,29.2
		c7.9,0.6,15.8,1.9,23.6,3.7C307.3,139.5,309.6,130,311.9,120.5z"/>
</g>
<g>
	<path style="fill:#FF4B55;" d="M256.2,127.8c-8.9,0.7-17.7,2.1-26.3,4.2c-0.5-1.9-0.9-3.8-1.4-5.7c9-2.1,18.1-3.6,27.3-4.3
		C255.9,123.9,256,125.8,256.2,127.8z"/>
	<path style="fill:#FF4B55;" d="M257.1,139.5c-8.2,0.6-16.5,1.9-24.5,3.9c-0.5-1.9-0.9-3.8-1.4-5.7c8.4-2,16.9-3.3,25.4-4
		C256.8,135.6,257,137.5,257.1,139.5z"/>
</g>
<path style="fill:#FFE15A;" d="M297.3,141.4c-2-0.4-4.1-0.7-6.1-1c-3.4-0.5-5.9-3.3-5.6-6.6l0,0c0.3-3.2,3.5-5.6,7.2-5
	c2.2,0.3,4.4,0.6,6.6,1c3.7,0.6,6,3.9,5.3,7l0,0C303.9,140.1,300.6,142,297.3,141.4z"/>
<path style="fill:#FF4B55;" d="M330.3,151.1c-7.8-3.2-15.8-5.8-23.8-7.7c0.5-1.9,0.9-3.8,1.4-5.7c8.4,2,16.7,4.7,24.7,8
	C331.8,147.5,331,149.3,330.3,151.1z"/>
<g>
	<path style="fill:#FFE15A;" d="M328.2,133.5c-0.8,2.3-3.6,3.4-6.3,2.5c-2.6-0.9-4.2-3.4-3.6-5.7c0.7-2.3,3.5-3.6,6.3-2.7
		C327.4,128.6,329,131.2,328.2,133.5z"/>
	<path style="fill:#FFE15A;" d="M220.6,130.3c0.7,2.3-0.9,4.8-3.6,5.7c-2.6,0.9-5.4-0.2-6.3-2.5c-0.8-2.3,0.7-4.9,3.5-5.8
		C217.2,126.7,220,128,220.6,130.3z"/>
	<path style="fill:#FFE15A;" d="M268.2,126.5c0,1.9-1.7,3.5-3.9,3.6c-2.2,0.1-4-1.4-4.1-3.3c-0.1-1.9,1.6-3.6,3.9-3.7
		C266.3,123,268.2,124.5,268.2,126.5z"/>
	<path style="fill:#FFE15A;" d="M278.8,126.7c-0.1,1.9-2,3.4-4.1,3.3c-2.2-0.1-3.9-1.6-3.9-3.6c0-1.9,1.9-3.5,4.1-3.4
		C277.2,123.1,279,124.8,278.8,126.7z"/>
	<path style="fill:#FFE15A;" d="M273.3,135.5c-0.1,1.9-1.8,3.5-3.8,3.5s-3.7-1.5-3.8-3.5c-0.1-1.9,1.6-3.6,3.8-3.6
		C271.7,131.9,273.3,133.6,273.3,135.5z"/>
</g>
<path style="fill:#2E3033;" d="M19.2,489.1L19.2,489.1C8.6,489.1,0,480.5,0,469.9V42c0-10.5,8.5-19,19-19h0.2
	c10.6,0,19.2,8.6,19.2,19.2V470C38.4,480.5,29.8,489.1,19.2,489.1z"/>
<g>
</g>
<g>
</g>
<g>
</g>
<g>
</g>
<g>
</g>
<g>
</g>
<g>
</g>
<g>
</g>
<g>
</g>
<g>
</g>
<g>
</g>
<g>
</g>
<g>
</g>
<g>
</g>
<g>
</g>
</svg>
