<?xml version="1.0" encoding="iso-8859-1"?>
<!-- Generator: Adobe Illustrator 19.0.0, SVG Export Plug-In . SVG Version: 6.00 Build 0)  -->
<svg version="1.1" id="Layer_1" xmlns="http://www.w3.org/2000/svg" xmlns:xlink="http://www.w3.org/1999/xlink" x="0px" y="0px"
	 viewBox="0 0 512.1 512.1" style="enable-background:new 0 0 512.1 512.1;" xml:space="preserve">
<path style="fill:#F5F5F5;" d="M503.6,373.9H35.4c-4.6,0-8.4-3.7-8.4-8.4v-301c0-4.6,3.7-8.4,8.4-8.4h468.3c4.6,0,8.4,3.7,8.4,8.4
	v301C512,370.1,508.3,373.9,503.6,373.9z"/>
<g>
	<path style="fill:#41479B;" d="M512,307c-24.3,0-24.3-8.4-48.6-8.4c-24.3,0-24.3,8.4-48.6,8.4c-24.3,0-24.3-8.4-48.5-8.4
		s-24.2,8.4-48.5,8.4s-24.3-8.4-48.5-8.4s-24.2,8.4-48.5,8.4s-24.2-8.4-48.5-8.4s-24.2,8.4-48.5,8.4c-24.2,0-24.2-8.4-48.5-8.4
		c-24.2,0-24.2,8.4-48.4,8.4v-25.1c24.2,0,24.2-8.4,48.4-8.4s24.2,8.4,48.5,8.4c24.2,0,24.2-8.4,48.5-8.4s24.2,8.4,48.5,8.4
		c24.2,0,24.2-8.4,48.5-8.4s24.3,8.4,48.5,8.4s24.2-8.4,48.5-8.4s24.3,8.4,48.5,8.4c24.3,0,24.3-8.4,48.6-8.4
		c24.3,0,24.3,8.4,48.6,8.4V307z"/>
	<path style="fill:#41479B;" d="M512,206.6c-24.3,0-24.3-8.4-48.6-8.4c-24.3,0-24.3,8.4-48.6,8.4c-24.3,0-24.3-8.4-48.5-8.4
		s-24.2,8.4-48.5,8.4s-24.3-8.4-48.5-8.4s-24.2,8.4-48.5,8.4s-24.2-8.4-48.5-8.4s-24.2,8.4-48.5,8.4c-24.2,0-24.2-8.4-48.5-8.4
		c-24.2,0-24.2,8.4-48.4,8.4v-25.1c24.2,0,24.2-8.4,48.4-8.4s24.2,8.4,48.5,8.4c24.2,0,24.2-8.4,48.5-8.4s24.2,8.4,48.5,8.4
		c24.2,0,24.2-8.4,48.5-8.4s24.3,8.4,48.5,8.4s24.2-8.4,48.5-8.4s24.3,8.4,48.5,8.4c24.3,0,24.3-8.4,48.6-8.4
		c24.3,0,24.3,8.4,48.6,8.4V206.6z"/>
	<path style="fill:#41479B;" d="M512,156.5c-24.3,0-24.3-8.4-48.6-8.4c-24.3,0-24.3,8.4-48.6,8.4c-24.3,0-24.3-8.4-48.5-8.4
		s-24.2,8.4-48.5,8.4s-24.3-8.4-48.5-8.4s-24.2,8.4-48.5,8.4s-24.2-8.4-48.5-8.4s-24.2,8.4-48.5,8.4c-24.2,0-24.2-8.4-48.5-8.4
		c-24.2,0-24.2,8.4-48.4,8.4v-25.1c24.2,0,24.2-8.4,48.4-8.4s24.2,8.4,48.5,8.4c24.2,0,24.2-8.4,48.5-8.4s24.2,8.4,48.5,8.4
		c24.2,0,24.2-8.4,48.5-8.4s24.3,8.4,48.5,8.4s24.2-8.4,48.5-8.4s24.3,8.4,48.5,8.4c24.3,0,24.3-8.4,48.6-8.4
		c24.3,0,24.3,8.4,48.6,8.4V156.5z"/>
	<path style="fill:#41479B;" d="M512,106.3c-24.3,0-24.3-8.4-48.6-8.4c-24.3,0-24.3,8.4-48.6,8.4c-24.3,0-24.3-8.4-48.5-8.4
		s-24.2,8.4-48.5,8.4s-24.3-8.4-48.5-8.4s-24.2,8.4-48.5,8.4s-24.2-8.4-48.5-8.4s-24.2,8.4-48.5,8.4c-24.2,0-24.2-8.4-48.5-8.4
		c-24.2,0-24.2,8.4-48.4,8.4V81.2c24.2,0,24.2-8.4,48.4-8.4s24.2,8.4,48.5,8.4c24.2,0,24.2-8.4,48.5-8.4s24.2,8.4,48.5,8.4
		c24.2,0,24.2-8.4,48.5-8.4s24.3,8.4,48.5,8.4s24.2-8.4,48.5-8.4s24.3,8.4,48.5,8.4c24.3,0,24.3-8.4,48.6-8.4
		c24.3,0,24.3,8.4,48.6,8.4V106.3z"/>
	<path style="fill:#41479B;" d="M512,256.8c-24.3,0-24.3-8.4-48.6-8.4c-24.3,0-24.3,8.4-48.6,8.4c-24.3,0-24.3-8.4-48.5-8.4
		s-24.2,8.4-48.5,8.4s-24.3-8.4-48.5-8.4s-24.2,8.4-48.5,8.4s-24.2-8.4-48.5-8.4s-24.2,8.4-48.5,8.4c-24.2,0-24.2-8.4-48.5-8.4
		c-24.2,0-24.2,8.4-48.4,8.4v-25.1c24.2,0,24.2-8.4,48.4-8.4s24.2,8.4,48.5,8.4c24.2,0,24.2-8.4,48.5-8.4s24.2,8.4,48.5,8.4
		c24.2,0,24.2-8.4,48.5-8.4s24.3,8.4,48.5,8.4s24.2-8.4,48.5-8.4s24.3,8.4,48.5,8.4c24.3,0,24.3-8.4,48.6-8.4
		c24.3,0,24.3,8.4,48.6,8.4V256.8z"/>
	<path style="fill:#41479B;" d="M512,357.2c-24.3,0-24.3-8.4-48.6-8.4c-24.3,0-24.3,8.4-48.6,8.4c-24.3,0-24.3-8.4-48.5-8.4
		s-24.2,8.4-48.5,8.4s-24.3-8.4-48.5-8.4s-24.2,8.4-48.5,8.4s-24.2-8.4-48.5-8.4s-24.2,8.4-48.5,8.4c-24.2,0-24.2-8.4-48.5-8.4
		c-24.2,0-24.2,8.4-48.4,8.4v-25.1c24.2,0,24.2-8.4,48.4-8.4s24.2,8.4,48.5,8.4c24.2,0,24.2-8.4,48.5-8.4s24.2,8.4,48.5,8.4
		c24.2,0,24.2-8.4,48.5-8.4s24.3,8.4,48.5,8.4s24.2-8.4,48.5-8.4s24.3,8.4,48.5,8.4c24.3,0,24.3-8.4,48.6-8.4
		c24.3,0,24.3,8.4,48.6,8.4V357.2z"/>
	<path style="fill:#41479B;" d="M265.1,215H39.4c-4.6,0-8.4-3.7-8.4-8.4V64.5c0-4.6,3.7-8.4,8.4-8.4h225.8c4.6,0,8.4,3.7,8.4,8.4
		v142.2C273.5,211.3,269.8,215,265.1,215z"/>
</g>
<path style="fill:#F5F5F5;" d="M265.1,56.1h-14.5l-77.5,50.7V56.1h-41.8v50.7L53.9,56.1H39.4c-4.6,0-8.4,3.7-8.4,8.4v6.6l66.5,43.5
	H31v41.8h66.5L31,200v6.6c0,4.6,3.7,8.4,8.4,8.4h14.5l77.5-50.7V215h41.8v-50.7l77.5,50.7h14.5c4.6,0,8.4-3.7,8.4-8.4V200L207,156.5
	h66.5v-41.8H207l66.5-43.5v-6.6C273.5,59.9,269.8,56.1,265.1,56.1z"/>
<g>
	<polygon style="fill:#FF4B55;" points="273.5,123 164.8,123 164.8,56.1 139.7,56.1 139.7,123 31,123 31,148.1 139.7,148.1 
		139.7,215 164.8,215 164.8,148.1 273.5,148.1 	"/>
	<path style="fill:#FF4B55;" d="M123,114.7L35,57.5c-2.3,1.5-4,4-4,6.9v0.4l76.6,49.7C107.6,114.7,123,114.7,123,114.7z"/>
	<path style="fill:#FF4B55;" d="M188.5,114.7l83.7-54.3c-1.5-2.5-4-4.2-7.1-4.2h-1.8l-90.2,58.5H188.5z"/>
	<path style="fill:#FF4B55;" d="M115.8,156.5l-83.6,54.2c1.4,2.5,4,4.3,7.2,4.3H41l90.2-58.5H115.8z"/>
	<path style="fill:#FF4B55;" d="M273.4,207.3l-78.3-50.8h-15.4l88.9,57.7C271.3,213,273.1,210.4,273.4,207.3z"/>
</g>
<path style="fill:#965032;" d="M394.9,339.5L394.9,339.5c-3.2,0-5.8-2.6-5.8-5.8V148.4h11.6v185.2
	C400.7,336.9,398.1,339.5,394.9,339.5z"/>
<polygon style="fill:#73AF00;" points="476,171.6 464.4,165.8 421.8,160.5 448.1,126.6 452.2,114.3 440,118.4 406,144.7 
	400.7,102.1 394.9,90.5 389.1,102.1 383.8,144.7 349.9,118.4 337.6,114.3 341.7,126.6 368.1,160.5 325.5,165.8 313.9,171.6 
	325.5,177.4 368.1,182.7 341.7,216.6 337.6,228.9 349.9,224.8 386.7,196.1 394.9,183.2 403.1,196.1 440,224.8 452.2,228.9 
	448.1,216.6 421.8,182.7 464.4,177.4 "/>
<path style="fill:#FFE15A;" d="M420.1,239c-5.2-5.2-16.3-3.3-22.3-1.8v-4.9c0-1.6-1.3-2.9-2.9-2.9s-2.9,1.3-2.9,2.9v4.9
	c-6-1.5-17.1-3.4-22.3,1.8c-5,5-1.4,16.9,2,25.2v7.7c0,2.1,1.7,3.9,3.9,3.9h38.6c2.1,0,3.9-1.7,3.9-3.9v-7.7
	C421.5,255.9,425.1,244,420.1,239z M416,243.1c2.2,2.2-0.3,11.9-4.3,21.1h-14v-21C404.3,241.4,413.2,240.3,416,243.1z M373.8,243.1
	c2.8-2.8,11.7-1.7,18.2,0.1v21h-14C374.1,255,371.6,245.3,373.8,243.1z"/>
<path style="fill:#2E3033;" d="M19.2,489.1L19.2,489.1C8.6,489.1,0,480.5,0,469.9V42c0-10.5,8.5-19,19-19h0.2
	c10.6,0,19.2,8.6,19.2,19.2V470C38.4,480.5,29.8,489.1,19.2,489.1z"/>
<g>
</g>
<g>
</g>
<g>
</g>
<g>
</g>
<g>
</g>
<g>
</g>
<g>
</g>
<g>
</g>
<g>
</g>
<g>
</g>
<g>
</g>
<g>
</g>
<g>
</g>
<g>
</g>
<g>
</g>
</svg>
