<?xml version="1.0" encoding="iso-8859-1"?>
<!-- Generator: Adobe Illustrator 19.0.0, SVG Export Plug-In . SVG Version: 6.00 Build 0)  -->
<svg version="1.1" id="Layer_1" xmlns="http://www.w3.org/2000/svg" xmlns:xlink="http://www.w3.org/1999/xlink" x="0px" y="0px"
	 viewBox="0 0 512.1 512.1" style="enable-background:new 0 0 512.1 512.1;" xml:space="preserve">
<path style="fill:#41479B;" d="M503.6,373.9H35.4c-4.6,0-8.4-3.7-8.4-8.4v-301c0-4.6,3.7-8.4,8.4-8.4h468.3c4.6,0,8.4,3.7,8.4,8.4
	v301C512,370.1,508.3,373.9,503.6,373.9z"/>
<rect x="27" y="131.4" style="fill:#FF4B55;" width="485" height="167.2"/>
<polygon style="fill:#F5F5F5;" points="380.2,278.4 380.2,266.5 376.2,266.5 376.2,258.6 372.3,258.6 372.3,250.7 368.3,250.7 
	368.3,242.8 356.4,242.8 356.4,219.1 356.4,219.1 360.4,215.2 360.4,203.3 356.4,203.3 356.4,195.4 352.5,195.4 352.5,183.6 
	348.5,183.6 348.5,175.7 344.6,175.7 344.6,167.7 340.6,167.7 340.6,163.8 332.7,163.8 332.7,167.7 328.8,167.7 328.8,175.7 
	324.8,175.7 324.8,183.6 320.9,183.6 320.9,195.4 316.9,195.4 316.9,203.3 293.2,203.3 293.2,191.5 289.3,191.5 289.3,179.6 
	285.3,179.6 285.3,167.7 281.4,167.7 281.4,159.8 277.4,159.8 277.4,151.9 273.5,151.9 273.5,148 271.5,148 271.5,144 267.5,144 
	267.5,148 265.5,148 265.5,151.9 261.6,151.9 261.6,159.8 257.6,159.8 257.6,167.7 253.7,167.7 253.7,179.6 249.7,179.6 
	249.7,191.5 245.8,191.5 245.8,203.3 222.1,203.3 222.1,195.4 218.1,195.4 218.1,183.6 214.2,183.6 214.2,175.7 210.2,175.7 
	210.2,167.7 206.3,167.7 206.3,163.8 198.4,163.8 198.4,167.7 194.4,167.7 194.4,175.7 190.5,175.7 190.5,183.6 186.5,183.6 
	186.5,195.4 182.6,195.4 182.6,203.3 178.6,203.3 178.6,215.2 182.6,219.1 182.6,219.1 182.6,242.8 170.7,242.8 170.7,250.7 
	166.7,250.7 166.7,258.6 162.8,258.6 162.8,266.5 158.8,266.5 158.8,278.4 154.9,278.4 154.9,290.3 384.1,290.3 384.1,278.4 "/>
<path style="fill:#2E3033;" d="M19.2,489.1L19.2,489.1C8.6,489.1,0,480.5,0,469.9V42c0-10.5,8.5-19,19-19h0.2
	c10.6,0,19.2,8.6,19.2,19.2V470C38.4,480.5,29.8,489.1,19.2,489.1z"/>
<g>
</g>
<g>
</g>
<g>
</g>
<g>
</g>
<g>
</g>
<g>
</g>
<g>
</g>
<g>
</g>
<g>
</g>
<g>
</g>
<g>
</g>
<g>
</g>
<g>
</g>
<g>
</g>
<g>
</g>
</svg>
