<?xml version="1.0" encoding="iso-8859-1"?>
<!-- Generator: Adobe Illustrator 19.0.0, SVG Export Plug-In . SVG Version: 6.00 Build 0)  -->
<svg version="1.1" id="Layer_1" xmlns="http://www.w3.org/2000/svg" xmlns:xlink="http://www.w3.org/1999/xlink" x="0px" y="0px"
	 viewBox="0 0 512 512" style="enable-background:new 0 0 512 512;" xml:space="preserve">
<path style="fill:#FFE15A;" d="M28.923,52.594h474.601c4.68,0,8.475,3.795,8.475,8.475v72.038H20.448V61.069
	C20.448,56.388,24.243,52.594,28.923,52.594z"/>
<rect x="20.448" y="133.11" style="fill:#F5F5F5;" width="491.55" height="80.51"/>
<rect x="20.448" y="213.62" style="fill:#FF4B55;" width="491.55" height="80.51"/>
<path style="fill:#4173CD;" d="M20.448,294.132H512v72.038c0,4.68-3.795,8.475-8.475,8.475H28.924c-4.68,0-8.475-3.795-8.475-8.475
	L20.448,294.132L20.448,294.132z"/>
<path style="fill:#73AF00;" d="M23.574,372.596L261.077,216.99c2.429-1.592,2.429-5.152,0-6.744L23.574,54.642
	c-1.868,1.554-3.126,3.807-3.126,6.426v305.101C20.448,368.79,21.707,371.043,23.574,372.596z"/>
<g>
	<path style="fill:#F5F5F5;" d="M67.331,213.62c0-30.645,20.032-56.574,47.705-65.504c1.455-0.469,1.252-2.593-0.264-2.791
		c-2.849-0.373-5.75-0.574-8.702-0.574c-38.036,0-68.87,30.834-68.87,68.87s30.834,68.87,68.87,68.87
		c2.951,0,5.853-0.201,8.702-0.574c1.516-0.199,1.718-2.322,0.264-2.791C87.363,270.194,67.331,244.264,67.331,213.62z"/>
	<path style="fill:#F5F5F5;" d="M115.388,161.016l1.896,5.685l5.992,0.047c0.775,0.006,1.098,0.996,0.474,1.457l-4.82,3.56
		l1.807,5.713c0.234,0.739-0.608,1.352-1.239,0.9l-4.875-3.484l-4.875,3.484c-0.631,0.451-1.474-0.161-1.239-0.9l1.807-5.713
		l-4.82-3.56c-0.624-0.461-0.302-1.451,0.474-1.457l5.992-0.047l1.896-5.685C114.101,160.28,115.143,160.28,115.388,161.016z"/>
	<path style="fill:#F5F5F5;" d="M115.388,189.824l1.896,5.685l5.992,0.047c0.775,0.006,1.098,0.996,0.474,1.457l-4.82,3.56
		l1.807,5.713c0.234,0.739-0.608,1.352-1.239,0.9l-4.875-3.484l-4.875,3.484c-0.631,0.451-1.474-0.161-1.239-0.9l1.807-5.713
		l-4.82-3.56c-0.624-0.461-0.302-1.451,0.474-1.457l5.992-0.047l1.896-5.685C114.101,189.088,115.143,189.088,115.388,189.824z"/>
	<path style="fill:#F5F5F5;" d="M115.388,218.632l1.896,5.685l5.992,0.047c0.775,0.006,1.098,0.996,0.474,1.457l-4.82,3.559
		l1.807,5.713c0.234,0.739-0.608,1.352-1.239,0.9l-4.875-3.484l-4.875,3.484c-0.631,0.451-1.474-0.161-1.239-0.9l1.807-5.713
		l-4.82-3.559c-0.624-0.461-0.302-1.451,0.474-1.457l5.992-0.047l1.896-5.685C114.101,217.895,115.143,217.895,115.388,218.632z"/>
	<path style="fill:#F5F5F5;" d="M115.388,247.438l1.896,5.685l5.992,0.047c0.775,0.006,1.098,0.996,0.474,1.457l-4.82,3.56
		l1.807,5.713c0.234,0.739-0.608,1.352-1.239,0.9l-4.875-3.484l-4.875,3.484c-0.631,0.451-1.474-0.161-1.239-0.9l1.807-5.713
		l-4.82-3.56c-0.624-0.461-0.302-1.451,0.474-1.457l5.992-0.047l1.896-5.685C114.101,246.703,115.143,246.703,115.388,247.438z"/>
</g>
<path style="fill:#2E3033;" d="M19.201,489.063L19.201,489.063C8.597,489.063,0,480.466,0,469.862V41.982
	c0-10.517,8.526-19.044,19.043-19.044h0.158c10.604,0,19.201,8.597,19.201,19.201v427.723
	C38.402,480.466,29.806,489.063,19.201,489.063z"/>
<g>
</g>
<g>
</g>
<g>
</g>
<g>
</g>
<g>
</g>
<g>
</g>
<g>
</g>
<g>
</g>
<g>
</g>
<g>
</g>
<g>
</g>
<g>
</g>
<g>
</g>
<g>
</g>
<g>
</g>
</svg>
