<?xml version="1.0" encoding="iso-8859-1"?>
<!-- Generator: Adobe Illustrator 19.0.0, SVG Export Plug-In . SVG Version: 6.00 Build 0)  -->
<svg version="1.1" id="Layer_1" xmlns="http://www.w3.org/2000/svg" xmlns:xlink="http://www.w3.org/1999/xlink" x="0px" y="0px"
	 viewBox="0 0 512.1 512.1" style="enable-background:new 0 0 512.1 512.1;" xml:space="preserve">
<path style="fill:#41479B;" d="M503.6,373.9H35.4c-4.6,0-8.4-3.7-8.4-8.4v-301c0-4.6,3.7-8.4,8.4-8.4h468.3c4.6,0,8.4,3.7,8.4,8.4
	v301C512,370.1,508.3,373.9,503.6,373.9z"/>
<path style="fill:#F5F5F5;" d="M263.1,56.1h-14.5l-77.5,50.7V56.1h-41.8v50.7L51.9,56.1H37.4c-4.6,0-8.4,3.7-8.4,8.4v6.6l66.5,43.5
	H29v41.8h66.5L29,200v6.6c0,4.6,3.7,8.4,8.4,8.4h14.5l77.5-50.7V215h41.8v-50.7l77.5,50.7h14.5c4.6,0,8.4-3.7,8.4-8.4V200L205,156.5
	h66.5v-41.8H205l66.5-43.5v-6.6C271.5,59.9,267.8,56.1,263.1,56.1z"/>
<g>
	<polygon style="fill:#FF4B55;" points="271.5,123 162.8,123 162.8,56.1 137.7,56.1 137.7,123 29,123 29,148.1 137.7,148.1 
		137.7,215 162.8,215 162.8,148.1 271.5,148.1 	"/>
	<path style="fill:#FF4B55;" d="M121,114.7L33,57.5c-2.3,1.5-4,4-4,6.9v0.4l76.6,49.7H121V114.7z"/>
	<path style="fill:#FF4B55;" d="M186.5,114.7l83.7-54.3c-1.5-2.5-4-4.2-7.1-4.2h-1.8l-90.2,58.5H186.5z"/>
	<path style="fill:#FF4B55;" d="M113.8,156.5l-83.6,54.2c1.4,2.5,4,4.3,7.2,4.3H39l90.2-58.5H113.8z"/>
	<path style="fill:#FF4B55;" d="M271.4,207.3l-78.3-50.8h-15.4l88.9,57.7C269.3,213,271.1,210.4,271.4,207.3z"/>
</g>
<g>
	<path style="fill:#FFE15A;" d="M390.6,135.6c0,0-3.5-14-14-21c0,0,10.5,17.5,10.5,31.5L390.6,135.6z"/>
	<path style="fill:#FFE15A;" d="M374.4,120.4c0,0,7.3,4.5,11.3,11.8l-3.2,7.3C382.5,139.6,379.9,129.2,374.4,120.4z"/>
	<path style="fill:#FFE15A;" d="M366.3,122.1c0,0,12.7,3.9,18.7,12.1l-3.6,5.5C381.4,139.7,376.6,130.4,366.3,122.1z"/>
	<path style="fill:#FFE15A;" d="M364.5,128.4c0,0,13.3,2.1,19.3,8.4l-1.5,6C382.3,142.8,375,134.1,364.5,128.4z"/>
	<path style="fill:#FFE15A;" d="M364.9,132.8c0,0,12.9,1.3,18.8,8.1s-2.2,4.7-2.2,4.7S374.7,137.8,364.9,132.8z"/>
	<path style="fill:#FFE15A;" d="M390.6,135.6c0,0,3.5-14,14-21c0,0-10.5,17.5-10.5,31.5L390.6,135.6z"/>
	<path style="fill:#FFE15A;" d="M406.8,120.4c0,0-7.3,4.5-11.3,11.8l3.2,7.3C398.7,139.6,401.3,129.2,406.8,120.4z"/>
	<path style="fill:#FFE15A;" d="M414.8,122.1c0,0-12.7,3.9-18.7,12.1l3.6,5.5C399.8,139.7,404.6,130.4,414.8,122.1z"/>
	<path style="fill:#FFE15A;" d="M416.7,128.4c0,0-13.3,2.1-19.3,8.4l1.5,6C398.9,142.8,406.2,134.1,416.7,128.4z"/>
	<path style="fill:#FFE15A;" d="M416.3,132.8c0,0-12.9,1.3-18.8,8.1s2.2,4.7,2.2,4.7S406.4,137.8,416.3,132.8z"/>
	<path style="fill:#FFE15A;" d="M390.6,114.7c0,0-3.5,7.4,0,11C394.1,122,390.6,114.7,390.6,114.7z"/>
	<path style="fill:#FFE15A;" d="M387.1,116.5c0,0-0.5,8.1,4.2,10.2C393.1,122,387.1,116.5,387.1,116.5z"/>
	<path style="fill:#FFE15A;" d="M394.1,116.5c0,0,0.5,8.1-4.2,10.2C388.1,122,394.1,116.5,394.1,116.5z"/>
	<path style="fill:#FFE15A;" d="M395.2,121.2c0,0-3.1,7.6-8.1,7.5C387.4,123.6,395.2,121.2,395.2,121.2z"/>
	<path style="fill:#FFE15A;" d="M386,121.2c0,0,3.1,7.6,8.1,7.5C393.7,123.6,386,121.2,386,121.2z"/>
</g>
<ellipse style="fill:#FFD255;" cx="390.6" cy="139.1" rx="10.5" ry="14"/>
<g>
	<path style="fill:#73AF00;" d="M366.6,153.4l-2.4-3.7c0,0-7,1.7-8.7-3.6l-2.7-0.2c0,0,0.4-3.6,3.5-4.1c0,0,1.9-2.3,5.2-1.9
		c3.4,0.4,5.1,3.3,7,4s2.1,3.1,2.1,3.1l14.7,15.1c0,0-4.2,5.4-8,7.1C373.7,171,359.8,162.5,366.6,153.4z"/>
	<path style="fill:#73AF00;" d="M414.4,156.2c0,0,6.1,4.2,6.3,15.6h-10.2c0,0,0.1-7.8-1.9-11.9L414.4,156.2z"/>
	<path style="fill:#73AF00;" d="M413.1,156.6c0,0,7.6,2.5,12.3-3.5l-8-1.1L413.1,156.6z"/>
	<path style="fill:#73AF00;" d="M410.8,148.2l7.8,2.6c1,0.3,1.3,1.5,0.6,2.3c-2.9,3.3-11.7,11.3-25.9,11.3
		c-18.5,0-23.2-11.6-23.5-12.5c-0.2-0.9-1.2-8-1.2-8l7.9-0.9L410.8,148.2z"/>
</g>
<g>
	<polygon style="fill:#FF4B55;" points="335.3,255.2 355.6,255.2 345.1,275.5 334.6,261.5 	"/>
	<polygon style="fill:#FF4B55;" points="445.9,255.2 425.6,255.2 436,275.5 446.5,261.5 	"/>
</g>
<g>
	<path style="fill:#FFD25A;" d="M335.2,289.5c-10,0-17.7-5.4-18.1-5.7l8.1-11.4c0.1,0,6.8,4.6,13.8,2.6c7-2.1,11.6-10.4,14.2-16.9
		l13,5.2c-5.5,13.8-13.4,22.2-23.4,25.2C340.1,289.2,337.6,289.5,335.2,289.5z"/>
	<path style="fill:#FFD25A;" d="M446,289.5c10,0,17.7-5.4,18.1-5.7l-8.1-11.4c-0.1,0-6.8,4.6-13.8,2.6c-7-2.1-11.6-10.4-14.2-16.9
		l-13,5.2c5.5,13.8,13.4,22.2,23.4,25.2C441,289.2,443.6,289.5,446,289.5z"/>
</g>
<path style="fill:#FF4B55;" d="M436,216.1h-90.9v-33.6c0-4.6,3.7-8.4,8.4-8.4h74.2c4.6,0,8.4,3.7,8.4,8.4v33.6H436z"/>
<g>
	<path style="fill:#FFE15A;" d="M369.9,198.6l-1.1-7c-5.1-0.2-8.1-6.2-8.1-6.2l-4.2,2.3C361,198.1,369.9,198.6,369.9,198.6z"/>
	<path style="fill:#FFE15A;" d="M424.7,191.4c1.5-1.2,4.9-1.6,4.9-1.6c-2.4-2.5-5-0.7-5-0.7c2.2-2,0.9-5,0.9-5
		c0,0.9-1.5,1.6-1.5,1.6c0.1-1.9-1.9-3.7-1.9-3.7l-1,1.7c-0.7-1.6-3-2.8-3-2.8l-0.9,3.9c-2.2-1.9-6-1.7-6-1.7l0.7,1.8
		c-2.3,0.1-8.7,1.4-12.4,1.8s-6.7-0.6-6.7-2.3c0-1.4,3.2-1.6,4.7-1.6c1,0.2,2.2,0.6,4,1.1c3.3,1,5.2-0.4,5.2-0.4
		c-1.1-0.4-1.3-0.9-1.3-0.9c2.5-1.4,4.8-1.1,4.8-1.1c-0.8-1.8-4.4-1.7-4.4-1.7c0.9-0.5,1.6-2,1.6-2c-0.2,0.2-2.2,0.7-5,1.1
		c-2.1,0.3-4,1.9-4.8,2.6c-2.2-0.2-7.9-0.2-6.9,3.7c1.2,4.9,11.1,3.1,17.1,2.2c6-0.9,9.2-0.1,10.5,0.7s-0.6,3.5-6.7,2.4
		c-5.3-1-8.2-1-9.8-0.8c-1.8,0.1-3.3,0.6-4.4,0.8c-2.4,0.5-11.7,3.8-13.4-0.9c-1.7-4.7-10.3,7.7-10.3,7.7l0.7,0.8l-2.3-0.5
		c-3.1,4.1-12.2,5.4-12.2,5.4s-1.4-2.5-2.5-2.8s-1.6,1.5-1.6,1.5s-1.4,0.1-1.5,1.3c-0.1,1.3,1,1.4,1,1.4s-1.3,1.9,0.9,2.5
		c0,0-0.2,2.7,3.1,0.8c9.6,1.2,16.6-3.7,19.6-6.4c2,0.1,5.1,0.1,7.4-1.2c3.8-2,8.2-4.4,10.7-3.5c0,0,2,6.3-6,6.4
		c0,0-1.2-1.5-2.4-1.5c-0.5,0-1,0.6-0.9,1.2c0,0-1.4-0.1-1.6,0.7c-0.2,0.7,0.3,1.4,1.3,1.3c0,0-0.7,1,0,1.6s1.6,0,1.6,0
		s-0.4,1.3,0.5,1.4c0.7,0.1,1.7-1.1,2-1.5c1.3,0.2,10,1.2,11.9-8c0,0,4.4,1.9,8.7,1.5c4.3-0.4,8.5,0.3,8.2,2.4
		c-0.5,1.5-1.4,1.4-1.4,1.4c-1-0.4-2.8-0.4-3,1.1s1.8,1.5,1.8,1.5c0.6,1.4,2.2,0.8,2.2,0.8c1.4,1,2.4-0.1,2.4-0.1
		c0.6,0.5,1.3,0.6,1.9,0.1s0.3-3.8,0.2-5c-0.1-2-0.4-7.1-3.2-7.1c-2.8-0.1-6.5,1.6-11.5-2.6c-0.3-0.2-0.5-0.4-0.8-0.5
		c2.4,0.2,4.1,0.9,5.7,1.1C416.5,193.1,423.2,192.5,424.7,191.4z"/>
	<path style="fill:#FFE15A;" d="M356.6,187.7c0,0-1.4,0-2.1-0.2c-1.2-0.3-1.3-2.2-0.1-2.5c0,0-1.5-1-0.8-2.2c0.6-0.9,2-0.9,2.5-0.4
		c0,0-0.5-1.5,0.9-2c1.1-0.4,1.9,0.8,1.9,2.4c0,0,1.6-1.3,2.4-0.4c0.6,0.6,0.4,1.4-0.5,3C359.8,187,356.6,187.7,356.6,187.7z"/>
</g>
<g>
	<path style="fill:#41479B;" d="M354.9,187c0,0-0.7,1.3-2.9,0.5c0,0,1.9-0.9,2.1-1.6L354.9,187z"/>
	<path style="fill:#41479B;" d="M354.1,183.2c0,0-1.2-0.7-2.4-0.7c0,0,1.9-1.4,3.5-0.2L354.1,183.2z"/>
	<path style="fill:#41479B;" d="M356.8,181.3c0,0,0.4-1.4-0.4-2.1c0,0,1.5,0.7,1.7,1.9L356.8,181.3z"/>
	<path style="fill:#41479B;" d="M360.1,182.7c0,0,0.7-1.6,0.1-2.4c0,0,2,1.2,1.2,3L360.1,182.7z"/>
	<path style="fill:#41479B;" d="M356.3,200.9c0,0-0.8-1.6-1.8-1.6c0,0,2.1-0.8,3.1,1.1L356.3,200.9z"/>
	<path style="fill:#41479B;" d="M354.6,203c0,0-1.4-1.1-2.3-0.7c0,0,1.6-1.6,3.2-0.4L354.6,203z"/>
	<path style="fill:#41479B;" d="M355.5,205.9c0,0-1.8,0-2.3,0.9c0,0,0.3-2.3,2.3-2.3V205.9z"/>
	<path style="fill:#41479B;" d="M357.2,207.8c0,0-0.7,1.3-2.9,0.5c0,0,1.9-0.9,2.1-1.6L357.2,207.8z"/>
	<path style="fill:#41479B;" d="M389.7,207.1c0,0-0.6,1-2.4,0.4c0,0,1.4-0.5,1.6-1.1L389.7,207.1z"/>
</g>
<path style="fill:#FFD255;" d="M371.2,184.6c0,0-3.9,6.7-3,16.4c0,0,11.6-1.7,16.6-13.3c0,0,1.2-0.5,1.7-1.7c0.4-1,0.4-2.7-1.6-2.7
	c0,0,0.6-1.2,1.3-1.4c0,0-1.3-0.5-2.7-0.2c0,0,1.1-1.1,1.1-2.6c0,0-1.7,1.1-2.8,1.3c0,0-0.1-1.8,0.3-2c0,0-2.3,0.2-3.4,1.4
	c0,0-0.8-1-0.7-2.1c0,0-2.1,0.9-3,2.3c0,0-0.7-0.7-0.6-1.4c0,0-1.5,1.9-1.9,2.8c0,0-1.4-0.4-2.1,0.8
	C370.1,183,370.2,183.9,371.2,184.6z"/>
<g>
	<path style="fill:#41479B;" d="M388,202.3c0,0-0.5-0.9-1.9-1.1c0,0,1.8-0.8,2.9,0.4L388,202.3z"/>
	<path style="fill:#41479B;" d="M416.9,205.6c0,0-1,0.3-1.5,1.8c0,0-0.5-2.1,0.9-3L416.9,205.6z"/>
	<path style="fill:#41479B;" d="M419,206.4c0,0-1,0.9-0.9,2.5c0,0-1.2-1.7-0.1-3.2L419,206.4z"/>
	<path style="fill:#41479B;" d="M423.7,206.3c0,0-0.3,1,0.6,2.1c0,0-1.8-0.6-1.9-2.2L423.7,206.3z"/>
	<path style="fill:#41479B;" d="M421.5,206.7c0,0-0.8,0.7-0.6,2.2c0,0-1.4-1.3-0.5-2.8L421.5,206.7z"/>
	<path style="fill:#41479B;" d="M386.5,204.1c0,0-0.9-0.3-2.1,0.5c0,0,0.8-1.8,2.4-1.7L386.5,204.1z"/>
	<path style="fill:#41479B;" d="M387.8,206.1c0,0-1-0.3-2.1,0.6c0,0,0.2-1.7,1.8-1.8L387.8,206.1z"/>
</g>
<path style="fill:#F5F5F5;" d="M436,221.7c-7.6,0-7.6,6.8-15.2,6.8s-7.6-6.8-15.2-6.8s-7.6,6.8-15.2,6.8s-7.6-6.8-15.1-6.8
	s-7.6,6.8-15.1,6.8c-7.6,0-7.6-6.8-15.1-6.8v-12.6c7.6,0,7.6,6.8,15.1,6.8c7.6,0,7.6-6.8,15.1-6.8c7.6,0,7.6,6.8,15.1,6.8
	c7.6,0,7.6-6.8,15.2-6.8s7.6,6.8,15.2,6.8s7.6-6.8,15.2-6.8V221.7z"/>
<path style="fill:#41479B;" d="M420.9,228.5c-7.6,0-7.6-6.8-15.2-6.8s-7.6,6.8-15.2,6.8s-7.6-6.8-15.1-6.8s-7.6,6.8-15.1,6.8
	c-7.6,0-7.6-6.8-15.1-6.8c0.1,3,0.5,7.5,1.3,12.8c6.2,0.8,6.7,6.7,13.8,6.7c7.6,0,7.6-6.8,15.1-6.8c7.6,0,7.6,6.8,15.1,6.8
	c7.6,0,7.6-6.8,15.2-6.8s7.6,6.8,15.2,6.8c7.1,0,7.6-5.9,13.8-6.7c0.9-5.3,1.2-9.8,1.3-12.8C428.5,221.7,428.4,228.5,420.9,228.5z"
	/>
<path style="fill:#F5F5F5;" d="M420.9,241.2c-7.6,0-7.6-6.8-15.2-6.8s-7.6,6.8-15.2,6.8s-7.6-6.8-15.1-6.8s-7.6,6.8-15.1,6.8
	c-7.1,0-7.6-5.9-13.8-6.7c0.7,4.2,1.8,8.8,3.3,13.7c3.4,2,4.9,5.7,10.5,5.7c7.6,0,7.6-6.8,15.1-6.8c7.6,0,7.6,6.8,15.1,6.8
	c7.6,0,7.6-6.8,15.2-6.8s7.6,6.8,15.2,6.8c5.6,0,7.1-3.7,10.5-5.7c1.5-4.8,2.6-9.5,3.3-13.7C428.5,235.3,427.9,241.2,420.9,241.2z"
	/>
<path style="fill:#41479B;" d="M420.9,253.8c-7.6,0-7.6-6.8-15.2-6.8s-7.6,6.8-15.2,6.8s-7.6-6.8-15.1-6.8s-7.6,6.8-15.1,6.8
	c-5.6,0-7.1-3.7-10.5-5.7c1.9,6,4.6,12.2,8.4,18c0.6,0.1,1.3,0.2,2.1,0.2c7.6,0,7.6-6.8,15.1-6.8c7.6,0,7.6,6.8,15.1,6.8
	c7.6,0,7.6-6.8,15.2-6.8s7.6,6.8,15.2,6.8c0.8,0,1.5-0.1,2.1-0.2c3.8-5.8,6.5-12,8.4-18C428,250.1,426.5,253.8,420.9,253.8z"/>
<path style="fill:#F5F5F5;" d="M420.9,266.4c-7.6,0-7.6-6.8-15.2-6.8s-7.6,6.8-15.2,6.8s-7.6-6.8-15.1-6.8s-7.6,6.8-15.1,6.8
	c-0.8,0-1.4-0.1-2.1-0.2c2.4,3.7,5.2,7.2,8.6,10.4c2.3-2,4.2-4.3,8.6-4.3c7.6,0,7.6,6.8,15.1,6.8c7.6,0,7.6-6.8,15.2-6.8
	c4.5,0,6.3,2.4,8.7,4.4c3.3-3.2,6.2-6.7,8.6-10.4C422.3,266.3,421.7,266.4,420.9,266.4z"/>
<path style="fill:#41479B;" d="M414.4,276.6c-2.3-2-4.2-4.4-8.7-4.4c-7.6,0-7.6,6.8-15.2,6.8s-7.6-6.8-15.1-6.8
	c-4.5,0-6.3,2.4-8.6,4.3c6.1,5.8,13.9,10.5,23.8,12.9C400.5,287,408.3,282.4,414.4,276.6z"/>
<g>
	<path style="fill:#F5F5F5;" d="M405.7,209.1c-7.6,0-7.6,6.8-15.2,6.8s-7.6-6.8-15.1-6.8s-7.6,6.8-15.1,6.8c-7.6,0-7.6-6.8-15.1-6.8
		c0,4.3,0,8.1,0,10.5c0,0.6,0,1.3,0,2.1c7.5,0,7.5,6.8,15.1,6.8s7.6-6.8,15.1-6.8c7.6,0,7.6,6.8,15.1,6.8c7.6,0,7.6-6.8,15.2-6.8
		s7.6,6.8,15.2,6.8s7.6-6.8,15.1-6.8c0-0.8,0-1.6,0-2.1c0-2.4,0-6.2,0-10.5c-7.6,0-7.6,6.8-15.2,6.8
		C413.3,215.9,413.3,209.1,405.7,209.1z"/>
	<path style="fill:#F5F5F5;" d="M432.5,174.1c1.9,0,3.5,1.6,3.5,3.5v31.5v7c0,1.3,0,2.5,0,3.5c0,0.6,0,1.3,0,2.1
		c-0.1,3-0.5,7.5-1.3,12.8c-0.7,4.2-1.8,8.8-3.3,13.7c-1.9,6-4.6,12.2-8.4,18c-2.4,3.7-5.2,7.2-8.6,10.4
		c-6.1,5.8-13.8,10.4-23.8,12.9c-10-2.5-17.7-7.2-23.8-12.9c-3.3-3.2-6.2-6.7-8.6-10.4c-3.8-5.8-6.5-12-8.4-18
		c-1.5-4.8-2.6-9.5-3.3-13.7c-0.9-5.3-1.2-9.8-1.3-12.8c0-0.8,0-1.6,0-2.1c0-1,0-2.2,0-3.5v-7v-31.5c0-1.9,1.6-3.5,3.5-3.5H432.5
		 M432.5,171.5h-83.9c-3.4,0-6.1,2.7-6.1,6.1v31.5v7v3.5c0,0.6,0,1.4,0,2.2c0.1,2.9,0.4,7.4,1.4,13.1c0.8,4.8,2,9.6,3.4,14
		c2.2,6.9,5.1,13.2,8.7,18.7c2.6,4,5.6,7.7,9,10.8c7,6.6,15.4,11.2,25,13.6l0.6,0.2l0.6-0.2c9.6-2.4,18-7,25-13.6
		c3.3-3.2,6.4-6.8,9-10.9c3.6-5.5,6.5-11.8,8.7-18.7c1.4-4.5,2.6-9.2,3.4-14c1-5.7,1.3-10.3,1.4-13.1c0-0.9,0-1.6,0-2.2V216v-7
		v-31.5C438.7,174.2,435.9,171.5,432.5,171.5L432.5,171.5z"/>
</g>
<polygon style="fill:#73AF00;" points="390.6,268.4 381,275 384.4,263.8 375.1,256.8 386.7,256.5 390.6,245.5 394.4,256.5 
	406.1,256.8 396.8,263.8 400.2,275 "/>
<path style="fill:#FFE15A;" d="M390.6,247.7l3.3,9.6l10.1,0.2l-8.1,6.1l2.9,9.7l-8.3-5.8l-8.3,5.8l2.9-9.7l-8.1-6.1l10.1-0.2
	L390.6,247.7 M390.6,243.3l-1.3,3.8l-3,8.7l-9.2,0.2l-4.1,0.1l3.2,2.5l7.3,5.5l-2.7,8.8l-1.2,3.9l3.3-2.3l7.5-5.2l7.5,5.2l3.3,2.3
	l-1.2-3.9l-2.7-8.8l7.3-5.5l3.2-2.5l-4.1-0.1l-9.2-0.2l-3-8.7L390.6,243.3L390.6,243.3z"/>
<polygon style="fill:#73AF00;" points="369.5,241.1 359.9,247.8 363.3,236.6 354,229.5 365.7,229.3 369.5,218.2 373.4,229.3 
	385,229.5 375.7,236.6 379.1,247.8 "/>
<path style="fill:#FFE15A;" d="M369.5,220.4l3.3,9.6l10.1,0.2l-8.1,6.1l2.9,9.7l-8.3-5.8l-8.3,5.8l2.9-9.7l-8.1-6.1L366,230
	L369.5,220.4 M369.5,216.1l-1.3,3.8l-3,8.7l-9.2,0.2l-4.1,0.1l3.2,2.5l7.3,5.5l-2.7,8.8l-1.2,3.9l3.3-2.3l7.5-5.2l7.5,5.2l3.3,2.3
	l-1.2-3.9l-2.7-8.8l7.3-5.5l3.2-2.5l-4.1-0.1l-9.2-0.2l-3-8.7L369.5,216.1L369.5,216.1z"/>
<polygon style="fill:#73AF00;" points="411.5,241.1 401.9,247.8 405.3,236.6 395.9,229.5 407.6,229.3 411.5,218.2 415.3,229.3 
	427,229.5 417.7,236.6 421.1,247.8 "/>
<g>
	<path style="fill:#FFE15A;" d="M411.5,220.4l3.3,9.6l10.1,0.2l-8.1,6.1l2.9,9.7l-8.3-5.8l-8.3,5.8l2.9-9.7l-8.1-6.1L408,230
		L411.5,220.4 M411.5,216.1l-1.3,3.8l-3,8.7l-9.2,0.2l-4.1,0.1l3.2,2.5l7.3,5.5l-2.7,8.8l-1.2,3.9l3.3-2.3l7.5-5.2l7.5,5.2l3.3,2.3
		l-1.2-3.9l-2.7-8.8l7.3-5.5l3.2-2.5l-4.1-0.1l-9.2-0.2l-3-8.7L411.5,216.1L411.5,216.1z"/>
	<path style="fill:#FFE15A;" d="M445.9,255.2c-8.7,22.1-30.2,37.8-55.3,37.8s-46.6-15.7-55.3-37.8l-13,5.1
		c10.7,27.3,37.3,46.7,68.3,46.7s57.6-19.4,68.3-46.7L445.9,255.2z"/>
</g>
<g>
	<polygon style="fill:#F5F5F5;" points="397.6,174.1 387.1,174.1 383.6,163.6 394.1,163.6 	"/>
	<path style="fill:#F5F5F5;" d="M415.1,174.1h-7l-2.3-7h3.2c2.3,0,4.3,1.5,5,3.6L415.1,174.1z"/>
	<path style="fill:#F5F5F5;" d="M376.6,174.1h-7l-0.8-2.4c-0.8-2.3,0.9-4.6,3.3-4.6h2.1L376.6,174.1z"/>
</g>
<g>
	<path style="fill:#41479B;" d="M408.1,174.1h-10.5l-3.5-10.5h8c1.5,0,2.8,1,3.3,2.4L408.1,174.1z"/>
	<path style="fill:#41479B;" d="M387.1,174.1h-10.5l-2.4-7.1c-0.6-1.7,0.7-3.4,2.5-3.4h6.9L387.1,174.1z"/>
</g>
<path style="fill:#509664;" d="M416.3,149.8c-2.7,3.9-10.4,8.6-22.8,8.6c-10.3,0-16.9-6.2-19.1-8.6c-0.5-0.6-0.8-1.4-0.8-2.2v-2.4
	c0-1,0.5-2,1.4-2.5c2.2-1.3,7.4-3.4,17.5-3.4C405,139.5,416.3,149.8,416.3,149.8z"/>
<path style="fill:#2E3033;" d="M19.2,489.1L19.2,489.1C8.6,489.1,0,480.5,0,469.9V42c0-10.5,8.5-19,19-19h0.2
	c10.6,0,19.2,8.6,19.2,19.2V470C38.4,480.5,29.8,489.1,19.2,489.1z"/>
<g>
</g>
<g>
</g>
<g>
</g>
<g>
</g>
<g>
</g>
<g>
</g>
<g>
</g>
<g>
</g>
<g>
</g>
<g>
</g>
<g>
</g>
<g>
</g>
<g>
</g>
<g>
</g>
<g>
</g>
</svg>
