<?xml version="1.0" encoding="iso-8859-1"?>
<!-- Generator: Adobe Illustrator 19.0.0, SVG Export Plug-In . SVG Version: 6.00 Build 0)  -->
<svg version="1.1" id="Layer_1" xmlns="http://www.w3.org/2000/svg" xmlns:xlink="http://www.w3.org/1999/xlink" x="0px" y="0px"
	 viewBox="0 0 512 512" style="enable-background:new 0 0 512 512;" xml:space="preserve">
<path style="fill:#5AA587;" d="M503.6,373.95H35.4c-4.6,0-8.4-3.8-8.4-8.4v-301c0-4.6,3.8-8.4,8.4-8.4h468.2c4.6,0,8.4,3.8,8.4,8.4
	v300.9C512,370.15,508.2,373.95,503.6,373.95z"/>
<g>
	<path style="fill:#F5F5F5;" d="M289.5,258.25c9.4,2.2,19.4,2.4,29.4-0.1c17.6-4.4,31.6-15.9,39.7-30.6
		c-14.1-9.3-31.8-12.9-49.4-8.5c-9.5,2.4-17.8,6.9-24.8,12.7c0.1-0.1,0.1-0.2,0.2-0.3c26-23.4,54.9-15.9,54.9-15.9l6.9-5.9
		c0,0-29.2-10.1-55.4,11.6c16.2-31.4-1.3-58.3-1.3-58.3l-4,8.1c0,0,14.5,26.7-2.5,57.8c0,0,0,0-0.1,0.1c4.1-8.3,6.6-17.7,6.6-27.6
		c0-18.2-7.8-34.5-20.2-45.9c-12.4,11.4-20.2,27.7-20.2,45.9c0,9.9,2.4,19.3,6.6,27.6c0,0,0,0-0.1-0.1c-17-31.1-2.5-57.8-2.5-57.8
		l-4-8.1c0,0-17.5,26.9-1.3,58.3c-26.2-21.7-55.4-11.6-55.4-11.6l6.9,5.9c0,0,29-7.6,54.9,15.9c0.1,0.1,0.1,0.2,0.2,0.3
		c-7-5.9-15.3-10.4-24.8-12.7c-17.6-4.4-35.3-0.7-49.4,8.5c8.1,14.8,22,26.3,39.7,30.6c10,2.5,20,2.3,29.4,0.1
		c-34.9,9.8-57.8-11.3-57.8-11.3l-8.8,2c0,0,35.3,37.9,86.6,0.7c51.3,37.1,86.6-0.7,86.6-0.7l-8.8-2
		C347.3,246.95,324.4,268.05,289.5,258.25z"/>
	<path style="fill:#F5F5F5;" d="M218.5,301.85c3.6,2.3,7.5,4.3,11.4,6H309c3.9-1.8,7.8-3.8,11.4-6H218.5z"/>
	<path style="fill:#F5F5F5;" d="M237,310.75c10.2,3.6,21.1,5.6,32.5,5.6s22.3-2,32.5-5.6H237z"/>
	<path style="fill:#F5F5F5;" d="M197.1,283.75c1.2,1.4,2.5,2.7,3.8,4h137.3c1.3-1.3,2.5-2.7,3.8-4H197.1z"/>
	<path style="fill:#F5F5F5;" d="M205.9,292.55c2,1.8,4.1,3.4,6.3,5h114.6c2.2-1.6,4.2-3.3,6.3-5H205.9z"/>
	<path style="fill:#F5F5F5;" d="M309.8,272.95c-22.6,0-38-15.1-38.2-15.3l-2.1-2.1l-2.1,2.1c-0.2,0.2-15.5,15.2-38.2,15.2h-40.4
		c1.4,2.1,2.8,4.1,4.4,6.1h36c20.3,0,35-10.6,40.3-15.1c5.3,4.5,20,15.1,40.3,15.1h36c1.5-2,3-4,4.4-6.1L309.8,272.95L309.8,272.95z
		"/>
</g>
<g>
	<path style="fill:#FFE15A;" d="M268.4,114.55l-3.5,10.6l-11.2,0.1c-1.1,0-1.5,1.4-0.7,2l9,6.6l-3.4,10.7c-0.3,1,0.8,1.9,1.7,1.2
		l9.1-6.5l9.1,6.5c0.9,0.6,2-0.2,1.7-1.2l-3.4-10.7l9-6.6c0.9-0.6,0.4-2-0.7-2l-11.2-0.1l-3.5-10.6
		C270.2,113.55,268.8,113.55,268.4,114.55z"/>
	<path style="fill:#FFE15A;" d="M215.5,136.25l2,7.4l-6.4,4.3c-0.6,0.4-0.3,1.4,0.4,1.4l7.7,0.4l2.2,7.4c0.2,0.7,1.2,0.7,1.5,0.1
		l2.7-7.2l7.7,0.2c0.7,0,1.1-0.9,0.5-1.4l-6-4.8l2.6-7.3c0.2-0.7-0.5-1.3-1.1-0.9l-6.4,4.2l-6.1-4.7
		C216.1,134.95,215.3,135.55,215.5,136.25z"/>
	<path style="fill:#FFE15A;" d="M184.6,173.75l5.6,5.3l-3.2,7c-0.3,0.7,0.4,1.4,1.1,1l6.8-3.7l5.7,5.2c0.5,0.5,1.4,0,1.3-0.7
		l-1.4-7.6l6.7-3.8c0.6-0.4,0.5-1.3-0.3-1.4l-7.6-1l-1.5-7.6c-0.1-0.7-1.1-0.9-1.4-0.2l-3.3,7l-7.7-0.9
		C184.5,172.35,184.1,173.25,184.6,173.75z"/>
	<path style="fill:#FFE15A;" d="M325.3,136.25l-2,7.4l6.4,4.3c0.6,0.4,0.3,1.4-0.4,1.4l-7.7,0.4l-2.2,7.4c-0.2,0.7-1.2,0.7-1.5,0.1
		l-2.7-7.2l-7.7,0.2c-0.7,0-1.1-0.9-0.5-1.4l6-4.8l-2.6-7.3c-0.2-0.7,0.5-1.3,1.1-0.9l6.4,4.2l6.1-4.7
		C324.6,134.95,325.5,135.55,325.3,136.25z"/>
	<path style="fill:#FFE15A;" d="M356.1,173.75l-5.6,5.3l3.2,7c0.3,0.7-0.4,1.4-1.1,1l-6.8-3.7l-5.7,5.2c-0.5,0.5-1.4,0-1.3-0.7
		l1.4-7.6l-6.7-3.8c-0.6-0.4-0.5-1.3,0.3-1.4l7.6-1l1.5-7.6c0.1-0.7,1.1-0.9,1.4-0.2l3.3,7l7.7-0.9
		C356.2,172.35,356.7,173.25,356.1,173.75z"/>
</g>
<path style="fill:#2E3033;" d="M19,486.95L19,486.95c-10.5,0-19-8.5-19-19v-424c0-10.4,8.4-18.9,18.9-18.9H19c10.5,0,19,8.5,19,19
	v423.8C38.1,478.45,29.5,486.95,19,486.95z"/>
<g>
</g>
<g>
</g>
<g>
</g>
<g>
</g>
<g>
</g>
<g>
</g>
<g>
</g>
<g>
</g>
<g>
</g>
<g>
</g>
<g>
</g>
<g>
</g>
<g>
</g>
<g>
</g>
<g>
</g>
</svg>
