<?xml version="1.0" encoding="iso-8859-1"?>
<!-- Generator: Adobe Illustrator 19.0.0, SVG Export Plug-In . SVG Version: 6.00 Build 0)  -->
<svg version="1.1" id="Layer_1" xmlns="http://www.w3.org/2000/svg" xmlns:xlink="http://www.w3.org/1999/xlink" x="0px" y="0px"
	 viewBox="0 0 512.1 512.1" style="enable-background:new 0 0 512.1 512.1;" xml:space="preserve">
<path style="fill:#41479B;" d="M503.6,373.9H35.4c-4.6,0-8.4-3.7-8.4-8.4v-301c0-4.6,3.7-8.4,8.4-8.4h468.3c4.6,0,8.4,3.7,8.4,8.4
	v301C512,370.1,508.3,373.9,503.6,373.9z"/>
<path style="fill:#F5F5F5;" d="M250.7,56.1H237L164,104V56.1h-39.4V104L51.5,56.1H37.8c-4.4,0-7.9,3.5-7.9,7.9v6.3l62.7,41.1H29.9
	v39.4h62.7l-62.7,41.1v6.3c0,4.4,3.5,7.9,7.9,7.9h13.7l73.1-47.9V206H164v-47.9l73,47.9h13.7c4.4,0,7.9-3.5,7.9-7.9v-6.3l-62.7-41.1
	h62.7v-39.4h-62.7l62.7-41.1V64C258.6,59.7,255.1,56.1,250.7,56.1z"/>
<g>
	<polygon style="fill:#FF4B55;" points="258.6,119.2 156.1,119.2 156.1,56.1 132.4,56.1 132.4,119.2 29.9,119.2 29.9,142.9 
		132.4,142.9 132.4,206 156.1,206 156.1,142.9 258.6,142.9 	"/>
	<path style="fill:#FF4B55;" d="M116.6,111.3l-83-53.9c-2.2,1.4-3.8,3.7-3.8,6.6v0.4l72.3,46.9H116.6z"/>
	<path style="fill:#FF4B55;" d="M178.5,111.3l79-51.3c-1.4-2.3-3.8-4-6.7-4H249l-85,55.3H178.5z"/>
	<path style="fill:#FF4B55;" d="M109.8,150.8L31,202c1.4,2.4,3.8,4.1,6.8,4.1h1.5l85.1-55.2h-14.6
		C109.8,150.9,109.8,150.8,109.8,150.8z"/>
	<path style="fill:#FF4B55;" d="M258.5,198.7l-73.9-48h-14.5l83.9,54.5C256.6,204.1,258.3,201.6,258.5,198.7z"/>
</g>
<path style="fill:#73AF00;" d="M394.3,134.6h-54.7c0,0,0,70.9,0,99.8c0,22.5,54.7,45.1,54.7,45.1S449,257,449,234.4
	c0-29,0-99.8,0-99.8L394.3,134.6L394.3,134.6z"/>
<path style="fill:#FF4B55;" d="M362.2,210.8c0,0-0.3-1.1,0-2c0.3-1-0.4-1.8-0.6-2.7c-0.4-2.3,1.5-2.8,1.6-4.9c0,0,1.4,1.4,0.9,2.7
	s0.8,1.5,0.6,2.8c-0.2,1.3-1.6,2.6-1.4,3.7L362.2,210.8z"/>
<path style="fill:#FFE15A;" d="M383.8,208.6c-1.1-1.4-3.1,0.1-4.5,1.2c-0.2,0.2-0.4,0.3-0.5,0.4l-5.3-7.8c0.1-0.2,0.3-0.5,0.3-0.8
	c0-0.8-0.6-1.4-1.4-1.4s-1.4,0.6-1.4,1.4c0,0.3,0.1,0.5,0.3,0.8l-5.5,8.1h-3.9c0,0-0.2,2.4,4.1,2.7c0.5,0.8,1.3,1.5,2.3,1.9
	c-0.4,0.1-0.8,0.4-0.8,0.9v0.6v0.1h9.8v-0.1V216c0-0.5-0.4-0.8-0.8-0.9c1.6-0.7,2.8-2.2,3-4c0.2-0.1,0.3-0.2,0.5-0.3
	c1-0.8,2.6-2,3.1-1.4c0.1,0.2,0.1,0.2,0.1,0.3c-0.1,0.4-0.8,0.9-1.5,1.3c-1,0.7-2,1.4-2.1,2.3c0,0.3,0.2,0.5,0.5,0.6l0,0
	c0.3,0,0.5-0.2,0.5-0.5c0-0.5,0.9-1.1,1.7-1.6c0.9-0.6,1.8-1.2,1.9-2C384.1,209.3,384,209,383.8,208.6z M374.7,210.5
	c-0.3-1.1-1-2.2-1.8-2.6c0.5-0.2,0.8-0.7,0.8-1.2c0-0.8-0.6-1.4-1.4-1.4s-1.4,0.6-1.4,1.4c0,0.5,0.3,1,0.8,1.2
	c-0.9,0.4-1.5,1.5-1.8,2.6H367l5.1-7.5c0.1,0,0.2,0.1,0.3,0.1s0.2,0,0.3-0.1l5.1,7.5H374.7z"/>
<path style="fill:#FFC8B9;" d="M390.8,163c0,0-5.1-1.5-7.4,16.3c0,0-12.5,15.9-12.9,16.8c-0.4,0.9,0,7.7,1.3,7.1
	c1.3-0.5,3.8-3.7,3.6-5.9c-0.1-2.3,0.9-3.6,1.9-4.7c1.9-2.1,12.7-11.9,13.1-14S390.8,163,390.8,163z"/>
<g>
	<path style="fill:#F5F5F5;" d="M398.7,159.7c0,0,7.9-1,10.2,7c0,0-6.5,3.6-5.7,8.2s-0.1,25.8-0.1,25.8c-12.4,4-18.9-1-18.9-1
		s3.2-12,2.7-21.7c0,0-2.9-2.2-2.2-4.7c0.7-2.5,2.5-5.3,3.1-7.4c0.6-2.1,2.2-5.6,6.1-5.9C397.9,159.5,398.7,159.7,398.7,159.7z"/>
	<path style="fill:#F5F5F5;" d="M386.5,197.3c0,0-6.2,23.3-4,55.2c0,0,19.3,2.5,29.7-1.3c0,0-5.4-38-10.7-52.9L386.5,197.3z"/>
</g>
<path style="fill:#FFC8B9;" d="M390.1,145.9v9.7c0,1.1,0.9,1.9,1.9,1.9h0.2c0.8,0,1.4,0.6,1.4,1.4v2.3c0,0,1.3,3.4,6.3-0.6V146
	L390.1,145.9z"/>
<path style="fill:#8C5A28;" d="M389,143.9c-0.3,0.8,0,2.9,1.9,2.8c2.4-0.2,5.3-0.2,6,2.5c0.6,2.5,0.2,8.7,2.9,9.1
	c2.7,0.4,5.7-1.4,5.7-6.7c-0.1-4.7-3.1-10.3-7.4-9.5c0,0-3.8-2.7-6,0.3C392,142.4,389.7,142.2,389,143.9z"/>
<path style="fill:#FFC8B9;" d="M408.9,166.7c0,0,2.7,18.1,2.6,19.6s-9.7,16.4-9.2,18s1.1,3.8-1.9,4.6s-2.6-3.9-1.8-6.3
	s7.5-15.3,7.5-16.8s-3.8-11-2.9-14.8C404.2,167.2,408.9,166.7,408.9,166.7z"/>
<path style="fill:#FF4B55;" d="M350.2,153.7c0,0-0.3-1.1,0-2s-0.4-1.8-0.6-2.7c-0.4-2.3,1.5-2.8,1.6-4.9c0,0,1.4,1.4,0.9,2.7
	s0.8,1.5,0.6,2.8c-0.2,1.3-1.6,2.6-1.4,3.7L350.2,153.7z"/>
<path style="fill:#FFE15A;" d="M371.7,151.5c-1.1-1.4-3.1,0.1-4.5,1.2c-0.2,0.2-0.4,0.3-0.5,0.4l-5.3-7.8c0.1-0.2,0.3-0.5,0.3-0.8
	c0-0.8-0.6-1.4-1.4-1.4s-1.4,0.6-1.4,1.4c0,0.3,0.1,0.5,0.3,0.8l-5.5,8.1h-3.9c0,0-0.2,2.4,4.1,2.7c0.5,0.8,1.3,1.5,2.3,1.9
	c-0.4,0.1-0.8,0.4-0.8,0.9v0.6v0.1h9.8v-0.1v-0.6c0-0.5-0.4-0.8-0.8-0.9c1.6-0.7,2.8-2.2,3-4c0.2-0.1,0.3-0.2,0.5-0.3
	c1-0.8,2.6-2,3.1-1.4c0.1,0.2,0.1,0.2,0.1,0.3c-0.1,0.4-0.8,0.9-1.5,1.3c-1,0.7-2,1.4-2.1,2.3c0,0.3,0.2,0.5,0.5,0.6l0,0
	c0.3,0,0.5-0.2,0.5-0.5c0-0.5,0.9-1.1,1.7-1.6c0.9-0.6,1.8-1.2,1.9-2C372.1,152.2,372,151.9,371.7,151.5z M362.6,153.4
	c-0.3-1.1-1-2.2-1.8-2.6c0.5-0.2,0.8-0.7,0.8-1.2c0-0.8-0.6-1.4-1.4-1.4s-1.4,0.6-1.4,1.4c0,0.5,0.3,1,0.8,1.2
	c-0.9,0.4-1.5,1.5-1.8,2.6h-2.9l5.1-7.5c0.1,0,0.2,0.1,0.3,0.1s0.2,0,0.3-0.1l5.1,7.5H362.6z"/>
<path style="fill:#FF4B55;" d="M350.2,172.7c0,0-0.3-1.1,0-2c0.3-1-0.4-1.8-0.6-2.7c-0.4-2.3,1.5-2.8,1.6-4.9c0,0,1.4,1.4,0.9,2.7
	s0.8,1.5,0.6,2.8c-0.2,1.3-1.6,2.6-1.4,3.7L350.2,172.7z"/>
<path style="fill:#FFE15A;" d="M371.7,170.6c-1.1-1.4-3.1,0.1-4.5,1.2c-0.2,0.2-0.4,0.3-0.5,0.4l-5.3-7.8c0.1-0.2,0.3-0.5,0.3-0.8
	c0-0.8-0.6-1.4-1.4-1.4s-1.4,0.6-1.4,1.4c0,0.3,0.1,0.5,0.3,0.8l-5.5,8.1h-3.9c0,0-0.2,2.4,4.1,2.7c0.5,0.8,1.3,1.5,2.3,1.9
	c-0.4,0.1-0.8,0.4-0.8,0.9v0.6v0.1h9.8v-0.1V178c0-0.5-0.4-0.8-0.8-0.9c1.6-0.7,2.8-2.2,3-4c0.2-0.1,0.3-0.2,0.5-0.3
	c1-0.8,2.6-2,3.1-1.4c0.1,0.2,0.1,0.2,0.1,0.3c-0.1,0.4-0.8,0.9-1.5,1.3c-1,0.7-2,1.4-2.1,2.3c0,0.3,0.2,0.5,0.5,0.6l0,0
	c0.3,0,0.5-0.2,0.5-0.5c0-0.5,0.9-1.1,1.7-1.6c0.9-0.6,1.8-1.2,1.9-2C372.1,171.3,372,170.9,371.7,170.6z M362.6,172.4
	c-0.3-1.1-1-2.2-1.8-2.6c0.5-0.2,0.8-0.7,0.8-1.2c0-0.8-0.6-1.4-1.4-1.4s-1.4,0.6-1.4,1.4c0,0.5,0.3,1,0.8,1.2
	c-0.9,0.4-1.5,1.5-1.8,2.6h-2.9l5.1-7.5c0.1,0,0.2,0.1,0.3,0.1s0.2,0,0.3-0.1l5.1,7.5H362.6z"/>
<path style="fill:#FF4B55;" d="M350.2,191.7c0,0-0.3-1.1,0-2c0.3-1-0.4-1.8-0.6-2.7c-0.4-2.3,1.5-2.8,1.6-4.9c0,0,1.4,1.4,0.9,2.7
	s0.8,1.5,0.6,2.8c-0.2,1.3-1.6,2.6-1.4,3.7L350.2,191.7z"/>
<path style="fill:#FFE15A;" d="M371.7,189.6c-1.1-1.4-3.1,0.1-4.5,1.2c-0.2,0.2-0.4,0.3-0.5,0.4l-5.3-7.8c0.1-0.2,0.3-0.5,0.3-0.8
	c0-0.8-0.6-1.4-1.4-1.4s-1.4,0.6-1.4,1.4c0,0.3,0.1,0.5,0.3,0.8l-5.5,8.1h-3.9c0,0-0.2,2.4,4.1,2.7c0.5,0.8,1.3,1.5,2.3,1.9
	c-0.4,0.1-0.8,0.4-0.8,0.9v0.6v0.1h9.8v-0.1V197c0-0.5-0.4-0.8-0.8-0.9c1.6-0.7,2.8-2.2,3-4c0.2-0.1,0.3-0.2,0.5-0.3
	c1-0.8,2.6-2,3.1-1.4c0.1,0.2,0.1,0.2,0.1,0.3c-0.1,0.4-0.8,0.9-1.5,1.3c-1,0.7-2,1.4-2.1,2.3c0,0.3,0.2,0.5,0.5,0.6l0,0
	c0.3,0,0.5-0.2,0.5-0.5c0-0.5,0.9-1.1,1.7-1.6c0.9-0.6,1.8-1.2,1.9-2C372.1,190.3,372,189.9,371.7,189.6z M362.6,191.4
	c-0.3-1.1-1-2.2-1.8-2.6c0.5-0.2,0.8-0.7,0.8-1.2c0-0.8-0.6-1.4-1.4-1.4s-1.4,0.6-1.4,1.4c0,0.5,0.3,1,0.8,1.2
	c-0.9,0.4-1.5,1.5-1.8,2.6h-2.9l5.1-7.5c0.1,0,0.2,0.1,0.3,0.1s0.2,0,0.3-0.1l5.1,7.5H362.6z"/>
<path style="fill:#FF4B55;" d="M350.2,229.8c0,0-0.3-1.1,0-2c0.3-1-0.4-1.8-0.6-2.7c-0.4-2.3,1.5-2.8,1.6-4.9c0,0,1.4,1.4,0.9,2.7
	s0.8,1.5,0.6,2.8c-0.2,1.3-1.6,2.6-1.4,3.7L350.2,229.8z"/>
<path style="fill:#FFE15A;" d="M371.7,227.7c-1.1-1.4-3.1,0.1-4.5,1.2c-0.2,0.2-0.4,0.3-0.5,0.4l-5.3-7.8c0.1-0.2,0.3-0.5,0.3-0.8
	c0-0.8-0.6-1.4-1.4-1.4s-1.4,0.6-1.4,1.4c0,0.3,0.1,0.5,0.3,0.8l-5.5,8.1h-3.9c0,0-0.2,2.4,4.1,2.7c0.5,0.8,1.3,1.5,2.3,1.9
	c-0.4,0.1-0.8,0.4-0.8,0.9v0.6v0.1h9.8v-0.1v-0.6c0-0.5-0.4-0.8-0.8-0.9c1.6-0.7,2.8-2.2,3-4c0.2-0.1,0.3-0.2,0.5-0.3
	c1-0.8,2.6-2,3.1-1.4c0.1,0.2,0.1,0.2,0.1,0.3c-0.1,0.4-0.8,0.9-1.5,1.3c-1,0.7-2,1.4-2.1,2.3c0,0.3,0.2,0.5,0.5,0.6l0,0
	c0.3,0,0.5-0.2,0.5-0.5c0-0.5,0.9-1.1,1.7-1.6c0.9-0.6,1.8-1.2,1.9-2C372.1,228.4,372,228,371.7,227.7z M362.6,229.5
	c-0.3-1.1-1-2.2-1.8-2.6c0.5-0.2,0.8-0.7,0.8-1.2c0-0.8-0.6-1.4-1.4-1.4s-1.4,0.6-1.4,1.4c0,0.5,0.3,1,0.8,1.2
	c-0.9,0.4-1.5,1.5-1.8,2.6h-2.9l5.1-7.5c0.1,0,0.2,0.1,0.3,0.1s0.2,0,0.3-0.1l5.1,7.5H362.6z"/>
<path style="fill:#FF4B55;" d="M350.2,248.8c0,0-0.3-1.1,0-2c0.3-1-0.4-1.8-0.6-2.7c-0.4-2.3,1.5-2.8,1.6-4.9c0,0,1.4,1.4,0.9,2.7
	s0.8,1.5,0.6,2.8c-0.2,1.3-1.6,2.6-1.4,3.7L350.2,248.8z"/>
<path style="fill:#FFE15A;" d="M371.7,246.7c-1.1-1.4-3.1,0.1-4.5,1.2c-0.2,0.2-0.4,0.3-0.5,0.4l-5.3-7.8c0.1-0.2,0.3-0.5,0.3-0.8
	c0-0.8-0.6-1.4-1.4-1.4s-1.4,0.6-1.4,1.4c0,0.3,0.1,0.5,0.3,0.8l-5.5,8.1h-3.9c0,0-0.2,2.4,4.1,2.7c0.5,0.8,1.3,1.5,2.3,1.9
	c-0.4,0.1-0.8,0.4-0.8,0.9v0.6v0.1h9.8v-0.1V254c0-0.5-0.4-0.8-0.8-0.9c1.6-0.7,2.8-2.2,3-4c0.2-0.1,0.3-0.2,0.5-0.3
	c1-0.8,2.6-2,3.1-1.4c0.1,0.2,0.1,0.2,0.1,0.3c-0.1,0.4-0.8,0.9-1.5,1.3c-1,0.7-2,1.4-2.1,2.3c0,0.3,0.2,0.5,0.5,0.6l0,0
	c0.3,0,0.5-0.2,0.5-0.5c0-0.5,0.9-1.1,1.7-1.6c0.9-0.6,1.8-1.2,1.9-2C372.1,247.4,372,247,371.7,246.7z M362.6,248.6
	c-0.3-1.1-1-2.2-1.8-2.6c0.5-0.2,0.8-0.7,0.8-1.2c0-0.8-0.6-1.4-1.4-1.4s-1.4,0.6-1.4,1.4c0,0.5,0.3,1,0.8,1.2
	c-0.9,0.4-1.5,1.5-1.8,2.6h-2.9l5.1-7.5c0.1,0,0.2,0.1,0.3,0.1s0.2,0,0.3-0.1l5.1,7.5H362.6z"/>
<path style="fill:#FF4B55;" d="M416.4,153.7c0,0-0.3-1.1,0-2s-0.4-1.8-0.6-2.7c-0.4-2.3,1.5-2.8,1.6-4.9c0,0,1.4,1.4,0.9,2.7
	s0.8,1.5,0.6,2.8c-0.2,1.3-1.6,2.6-1.4,3.7L416.4,153.7z"/>
<path style="fill:#FFE15A;" d="M437.9,151.5c-1.1-1.4-3.1,0.1-4.5,1.2c-0.2,0.2-0.4,0.3-0.5,0.4l-5.3-7.8c0.1-0.2,0.3-0.5,0.3-0.8
	c0-0.8-0.6-1.4-1.4-1.4s-1.4,0.6-1.4,1.4c0,0.3,0.1,0.5,0.3,0.8l-5.5,8.1H416c0,0-0.2,2.4,4.1,2.7c0.5,0.8,1.3,1.5,2.3,1.9
	c-0.4,0.1-0.8,0.4-0.8,0.9v0.6v0.1h9.8v-0.1v-0.6c0-0.5-0.4-0.8-0.8-0.9c1.6-0.7,2.8-2.2,3-4c0.2-0.1,0.3-0.2,0.5-0.3
	c1-0.8,2.6-2,3.1-1.4c0.1,0.2,0.1,0.2,0.1,0.3c-0.1,0.4-0.8,0.9-1.5,1.3c-1,0.7-2,1.4-2.1,2.3c0,0.3,0.2,0.5,0.5,0.6l0,0
	c0.3,0,0.5-0.2,0.5-0.5c0-0.5,0.9-1.1,1.7-1.6c0.9-0.6,1.8-1.2,1.9-2C438.3,152.2,438.2,151.9,437.9,151.5z M428.9,153.4
	c-0.3-1.1-1-2.2-1.8-2.6c0.5-0.2,0.8-0.7,0.8-1.2c0-0.8-0.6-1.4-1.4-1.4s-1.4,0.6-1.4,1.4c0,0.5,0.3,1,0.8,1.2
	c-0.9,0.4-1.5,1.5-1.8,2.6H421l5.1-7.5c0.1,0,0.2,0.1,0.3,0.1c0.1,0,0.2,0,0.3-0.1l5.1,7.5H428.9z"/>
<path style="fill:#FF4B55;" d="M416.4,172.7c0,0-0.3-1.1,0-2c0.3-1-0.4-1.8-0.6-2.7c-0.4-2.3,1.5-2.8,1.6-4.9c0,0,1.4,1.4,0.9,2.7
	s0.8,1.5,0.6,2.8c-0.2,1.3-1.6,2.6-1.4,3.7L416.4,172.7z"/>
<path style="fill:#FFE15A;" d="M437.9,170.6c-1.1-1.4-3.1,0.1-4.5,1.2c-0.2,0.2-0.4,0.3-0.5,0.4l-5.3-7.8c0.1-0.2,0.3-0.5,0.3-0.8
	c0-0.8-0.6-1.4-1.4-1.4s-1.4,0.6-1.4,1.4c0,0.3,0.1,0.5,0.3,0.8l-5.5,8.1H416c0,0-0.2,2.4,4.1,2.7c0.5,0.8,1.3,1.5,2.3,1.9
	c-0.4,0.1-0.8,0.4-0.8,0.9v0.6v0.1h9.8v-0.1V178c0-0.5-0.4-0.8-0.8-0.9c1.6-0.7,2.8-2.2,3-4c0.2-0.1,0.3-0.2,0.5-0.3
	c1-0.8,2.6-2,3.1-1.4c0.1,0.2,0.1,0.2,0.1,0.3c-0.1,0.4-0.8,0.9-1.5,1.3c-1,0.7-2,1.4-2.1,2.3c0,0.3,0.2,0.5,0.5,0.6l0,0
	c0.3,0,0.5-0.2,0.5-0.5c0-0.5,0.9-1.1,1.7-1.6c0.9-0.6,1.8-1.2,1.9-2C438.3,171.3,438.2,170.9,437.9,170.6z M428.9,172.4
	c-0.3-1.1-1-2.2-1.8-2.6c0.5-0.2,0.8-0.7,0.8-1.2c0-0.8-0.6-1.4-1.4-1.4s-1.4,0.6-1.4,1.4c0,0.5,0.3,1,0.8,1.2
	c-0.9,0.4-1.5,1.5-1.8,2.6H421l5.1-7.5c0.1,0,0.2,0.1,0.3,0.1c0.1,0,0.2,0,0.3-0.1l5.1,7.5H428.9z"/>
<path style="fill:#FF4B55;" d="M416.4,191.7c0,0-0.3-1.1,0-2c0.3-1-0.4-1.8-0.6-2.7c-0.4-2.3,1.5-2.8,1.6-4.9c0,0,1.4,1.4,0.9,2.7
	s0.8,1.5,0.6,2.8c-0.2,1.3-1.6,2.6-1.4,3.7L416.4,191.7z"/>
<path style="fill:#FFE15A;" d="M437.9,189.6c-1.1-1.4-3.1,0.1-4.5,1.2c-0.2,0.2-0.4,0.3-0.5,0.4l-5.3-7.8c0.1-0.2,0.3-0.5,0.3-0.8
	c0-0.8-0.6-1.4-1.4-1.4s-1.4,0.6-1.4,1.4c0,0.3,0.1,0.5,0.3,0.8l-5.5,8.1H416c0,0-0.2,2.4,4.1,2.7c0.5,0.8,1.3,1.5,2.3,1.9
	c-0.4,0.1-0.8,0.4-0.8,0.9v0.6v0.1h9.8v-0.1V197c0-0.5-0.4-0.8-0.8-0.9c1.6-0.7,2.8-2.2,3-4c0.2-0.1,0.3-0.2,0.5-0.3
	c1-0.8,2.6-2,3.1-1.4c0.1,0.2,0.1,0.2,0.1,0.3c-0.1,0.4-0.8,0.9-1.5,1.3c-1,0.7-2,1.4-2.1,2.3c0,0.3,0.2,0.5,0.5,0.6l0,0
	c0.3,0,0.5-0.2,0.5-0.5c0-0.5,0.9-1.1,1.7-1.6c0.9-0.6,1.8-1.2,1.9-2C438.3,190.3,438.2,189.9,437.9,189.6z M428.9,191.4
	c-0.3-1.1-1-2.2-1.8-2.6c0.5-0.2,0.8-0.7,0.8-1.2c0-0.8-0.6-1.4-1.4-1.4s-1.4,0.6-1.4,1.4c0,0.5,0.3,1,0.8,1.2
	c-0.9,0.4-1.5,1.5-1.8,2.6H421l5.1-7.5c0.1,0,0.2,0.1,0.3,0.1c0.1,0,0.2,0,0.3-0.1l5.1,7.5H428.9z"/>
<path style="fill:#FF4B55;" d="M416.4,210.8c0,0-0.3-1.1,0-2c0.3-1-0.4-1.8-0.6-2.7c-0.4-2.3,1.5-2.8,1.6-4.9c0,0,1.4,1.4,0.9,2.7
	s0.8,1.5,0.6,2.8c-0.2,1.3-1.6,2.6-1.4,3.7L416.4,210.8z"/>
<path style="fill:#FFE15A;" d="M437.9,208.6c-1.1-1.4-3.1,0.1-4.5,1.2c-0.2,0.2-0.4,0.3-0.5,0.4l-5.3-7.8c0.1-0.2,0.3-0.5,0.3-0.8
	c0-0.8-0.6-1.4-1.4-1.4s-1.4,0.6-1.4,1.4c0,0.3,0.1,0.5,0.3,0.8l-5.5,8.1H416c0,0-0.2,2.4,4.1,2.7c0.5,0.8,1.3,1.5,2.3,1.9
	c-0.4,0.1-0.8,0.4-0.8,0.9v0.6v0.1h9.8v-0.1V216c0-0.5-0.4-0.8-0.8-0.9c1.6-0.7,2.8-2.2,3-4c0.2-0.1,0.3-0.2,0.5-0.3
	c1-0.8,2.6-2,3.1-1.4c0.1,0.2,0.1,0.2,0.1,0.3c-0.1,0.4-0.8,0.9-1.5,1.3c-1,0.7-2,1.4-2.1,2.3c0,0.3,0.2,0.5,0.5,0.6l0,0
	c0.3,0,0.5-0.2,0.5-0.5c0-0.5,0.9-1.1,1.7-1.6c0.9-0.6,1.8-1.2,1.9-2C438.3,209.3,438.2,209,437.9,208.6z M428.9,210.5
	c-0.3-1.1-1-2.2-1.8-2.6c0.5-0.2,0.8-0.7,0.8-1.2c0-0.8-0.6-1.4-1.4-1.4s-1.4,0.6-1.4,1.4c0,0.5,0.3,1,0.8,1.2
	c-0.9,0.4-1.5,1.5-1.8,2.6H421l5.1-7.5c0.1,0,0.2,0.1,0.3,0.1c0.1,0,0.2,0,0.3-0.1l5.1,7.5H428.9z"/>
<path style="fill:#FF4B55;" d="M416.4,229.8c0,0-0.3-1.1,0-2c0.3-1-0.4-1.8-0.6-2.7c-0.4-2.3,1.5-2.8,1.6-4.9c0,0,1.4,1.4,0.9,2.7
	s0.8,1.5,0.6,2.8c-0.2,1.3-1.6,2.6-1.4,3.7L416.4,229.8z"/>
<path style="fill:#FFE15A;" d="M437.9,227.7c-1.1-1.4-3.1,0.1-4.5,1.2c-0.2,0.2-0.4,0.3-0.5,0.4l-5.3-7.8c0.1-0.2,0.3-0.5,0.3-0.8
	c0-0.8-0.6-1.4-1.4-1.4s-1.4,0.6-1.4,1.4c0,0.3,0.1,0.5,0.3,0.8l-5.5,8.1H416c0,0-0.2,2.4,4.1,2.7c0.5,0.8,1.3,1.5,2.3,1.9
	c-0.4,0.1-0.8,0.4-0.8,0.9v0.6v0.1h9.8v-0.1v-0.6c0-0.5-0.4-0.8-0.8-0.9c1.6-0.7,2.8-2.2,3-4c0.2-0.1,0.3-0.2,0.5-0.3
	c1-0.8,2.6-2,3.1-1.4c0.1,0.2,0.1,0.2,0.1,0.3c-0.1,0.4-0.8,0.9-1.5,1.3c-1,0.7-2,1.4-2.1,2.3c0,0.3,0.2,0.5,0.5,0.6l0,0
	c0.3,0,0.5-0.2,0.5-0.5c0-0.5,0.9-1.1,1.7-1.6c0.9-0.6,1.8-1.2,1.9-2C438.3,228.4,438.2,228,437.9,227.7z M428.9,229.5
	c-0.3-1.1-1-2.2-1.8-2.6c0.5-0.2,0.8-0.7,0.8-1.2c0-0.8-0.6-1.4-1.4-1.4s-1.4,0.6-1.4,1.4c0,0.5,0.3,1,0.8,1.2
	c-0.9,0.4-1.5,1.5-1.8,2.6H421l5.1-7.5c0.1,0,0.2,0.1,0.3,0.1c0.1,0,0.2,0,0.3-0.1l5.1,7.5H428.9z"/>
<path style="fill:#FF4B55;" d="M416.4,248.8c0,0-0.3-1.1,0-2c0.3-1-0.4-1.8-0.6-2.7c-0.4-2.3,1.5-2.8,1.6-4.9c0,0,1.4,1.4,0.9,2.7
	s0.8,1.5,0.6,2.8c-0.2,1.3-1.6,2.6-1.4,3.7L416.4,248.8z"/>
<path style="fill:#FFE15A;" d="M437.9,246.7c-1.1-1.4-3.1,0.1-4.5,1.2c-0.2,0.2-0.4,0.3-0.5,0.4l-5.3-7.8c0.1-0.2,0.3-0.5,0.3-0.8
	c0-0.8-0.6-1.4-1.4-1.4s-1.4,0.6-1.4,1.4c0,0.3,0.1,0.5,0.3,0.8l-5.5,8.1H416c0,0-0.2,2.4,4.1,2.7c0.5,0.8,1.3,1.5,2.3,1.9
	c-0.4,0.1-0.8,0.4-0.8,0.9v0.6v0.1h9.8v-0.1V254c0-0.5-0.4-0.8-0.8-0.9c1.6-0.7,2.8-2.2,3-4c0.2-0.1,0.3-0.2,0.5-0.3
	c1-0.8,2.6-2,3.1-1.4c0.1,0.2,0.1,0.2,0.1,0.3c-0.1,0.4-0.8,0.9-1.5,1.3c-1,0.7-2,1.4-2.1,2.3c0,0.3,0.2,0.5,0.5,0.6l0,0
	c0.3,0,0.5-0.2,0.5-0.5c0-0.5,0.9-1.1,1.7-1.6c0.9-0.6,1.8-1.2,1.9-2C438.3,247.4,438.2,247,437.9,246.7z M428.9,248.6
	c-0.3-1.1-1-2.2-1.8-2.6c0.5-0.2,0.8-0.7,0.8-1.2c0-0.8-0.6-1.4-1.4-1.4s-1.4,0.6-1.4,1.4c0,0.5,0.3,1,0.8,1.2
	c-0.9,0.4-1.5,1.5-1.8,2.6H421l5.1-7.5c0.1,0,0.2,0.1,0.3,0.1c0.1,0,0.2,0,0.3-0.1l5.1,7.5H428.9z"/>
<g>
	<path style="fill:#F5F5F5;" d="M449.1,134.6c0,0,0,70.9,0,99.8c0,22.5-54.7,45.1-54.7,45.1s-54.7-22.5-54.7-45.1
		c0-29,0-99.8,0-99.8h54.7L449.1,134.6 M452.3,131.4h-3.2h-54.7h-54.7h-3.2v3.2v99.8c0,10.5,9.7,21.9,28.9,33.7
		c13.8,8.5,27.3,14.1,27.8,14.3l1.2,0.5l1.2-0.5c0.6-0.2,14.1-5.8,27.8-14.3c19.2-11.8,28.9-23.2,28.9-33.7v-99.8L452.3,131.4
		L452.3,131.4z"/>
	<path style="fill:#F5F5F5;" d="M452.7,252.2l14.6,10.1c-17,21.8-43.4,35.8-73,35.8c-29.7,0-56.1-14-73-35.8l14.6-10.1
		c13.7,17.1,34.8,28.1,58.4,28.1C417.9,280.3,439,269.3,452.7,252.2 M452.1,247.8l-1.9,2.3c-13.7,17.1-34.1,26.9-55.9,26.9
		s-42.2-9.8-55.9-26.9l-1.9-2.3l-2.5,1.7l-14.6,10.1l-2.8,1.9l2.1,2.7c18.3,23.5,45.9,37,75.6,37s57.2-13.5,75.6-37l2.1-2.7
		l-2.8-1.9l-14.6-10.1L452.1,247.8L452.1,247.8z"/>
</g>
<path style="fill:#FFE15A;" d="M394.3,298c29.7,0,56.1-14,73-35.8l-14.6-10.1c-13.7,17.1-34.8,28.1-58.4,28.1s-44.7-11-58.4-28.1
	l-14.6,10.1C338.2,284,364.6,298,394.3,298z"/>
<path style="fill:#2E3033;" d="M19.2,489.1L19.2,489.1C8.6,489.1,0,480.5,0,469.9V42c0-10.5,8.5-19,19-19h0.2
	c10.6,0,19.2,8.6,19.2,19.2V470C38.4,480.5,29.8,489.1,19.2,489.1z"/>
<g>
</g>
<g>
</g>
<g>
</g>
<g>
</g>
<g>
</g>
<g>
</g>
<g>
</g>
<g>
</g>
<g>
</g>
<g>
</g>
<g>
</g>
<g>
</g>
<g>
</g>
<g>
</g>
<g>
</g>
</svg>
