<?xml version="1.0" encoding="iso-8859-1"?>
<!-- Generator: Adobe Illustrator 19.0.0, SVG Export Plug-In . SVG Version: 6.00 Build 0)  -->
<svg version="1.1" id="Layer_1" xmlns="http://www.w3.org/2000/svg" xmlns:xlink="http://www.w3.org/1999/xlink" x="0px" y="0px"
	 viewBox="0 0 512.005 512.005" style="enable-background:new 0 0 512.005 512.005;" xml:space="preserve">
<path style="fill:#FFE15A;" d="M482.451,366.319l-0.008-42.41l-0.005-27.164l-0.014-81.491l-0.005-27.164l-0.008-42.486
	c0-3.105-0.422-6.147-1.202-9.07c-0.42-1.572-0.949-3.107-1.576-4.598c-2.568-6.092-6.814-11.419-12.362-15.28
	c-0.812-0.565-1.642-1.11-2.509-1.611l-23.71-13.684l-22.198-12.81l-17.87-10.313l-68.335-39.437l0,0L305.99,23.415l-19.995-11.539
	l-12.39-7.151c-10.918-6.302-24.37-6.3-35.287,0.006l-12.307,7.108l-19.995,11.548l-26.659,15.398v-0.001l-68.33,39.467
	L81.08,95.547l-22.191,12.818l-11.697,6.756c-0.841,0.486-1.648,1.015-2.439,1.562c-3.392,2.349-6.296,5.254-8.638,8.538
	c-1.572,2.206-2.883,4.585-3.911,7.092c-1.716,4.179-2.652,8.706-2.651,13.371l0.007,42.41l0.005,27.164l0.014,81.478v0.014v0.005
	l0.005,27.159l0.007,42.478v0.006c0.002,11.607,5.715,22.388,15.14,28.946c0.812,0.565,1.642,1.11,2.509,1.611l23.377,13.491
	l22.198,12.812l18.204,10.506l94.999,54.826l19.995,11.539l12.39,7.151c10.918,6.302,24.37,6.299,35.287-0.006l12.307-7.108
	l19.995-11.548l26.659-15.397l0,0l57.587-33.261l10.742-6.205l27.325-15.782l22.191-12.818l14.319-8.27
	c0.841-0.486,1.648-1.015,2.439-1.562C476.717,388.766,482.453,377.956,482.451,366.319L482.451,366.319L482.451,366.319z"/>
<path style="fill:#41479B;" d="M81.08,95.547l-22.191,12.818l-11.697,6.756c-0.841,0.486-1.648,1.015-2.439,1.562
	c-3.392,2.349-6.296,5.254-8.638,8.538c-1.572,2.206-2.883,4.585-3.911,7.092c-1.716,4.179-2.652,8.706-2.651,13.371l0.007,42.41
	l0.005,27.164l0.014,81.478v0.014v0.005l0.005,27.159l0.007,42.478v0.006c0.002,11.607,5.715,22.388,15.14,28.946
	c0.812,0.565,1.642,1.11,2.509,1.611l23.377,13.491l22.198,12.812l18.204,10.506l40.014,23.092V55.146l-40.006,23.105L81.08,95.547z
	"/>
<path style="fill:#FF4B55;" d="M390.235,439.956l10.742-6.205l27.325-15.782l22.191-12.818l14.319-8.27
	c0.841-0.486,1.648-1.013,2.439-1.562c9.465-6.556,15.201-17.365,15.2-29.001l-0.008-42.41l-0.005-27.164l-0.014-81.491
	l-0.005-27.164l-0.008-42.486c0-3.105-0.422-6.147-1.202-9.07c-0.42-1.572-0.949-3.107-1.577-4.597
	c-2.568-6.092-6.814-11.419-12.362-15.28c-0.812-0.565-1.642-1.11-2.509-1.61l-23.71-13.684l-22.198-12.811l-17.87-10.313
	L360.97,55.146v401.708L390.235,439.956z"/>
<path style="fill:#DCBE82;" d="M323.98,288.436c0-2.902-2.353-5.254-5.254-5.254c-0.63,0-1.226,0.129-1.786,0.332
	c-2.601-2.313-7.313-8.052-2.584-16.154c0.639,0.497,1.432,0.805,2.304,0.805c2.084,0,3.774-1.69,3.774-3.774
	c0-1.647-1.061-3.033-2.532-3.548c3.885-1.982,9.427-6.19,9.141-14.056c-0.406-11.157-9.546-17.317-15.153-14.853
	c0.02-0.156,0.047-0.31,0.047-0.471c0-2.056-1.666-3.721-3.721-3.721c-1.263,0-2.376,0.634-3.048,1.596
	c-0.229-1.116-0.201-3.187,2.392-5.426c4.816-4.16,10.29-14.121,0.329-21.127c-5.516-3.879-16.062-5.737-19.593-0.437
	c-1.532,2.298-0.304,5.6,1.446,6.342c-2.819,1.572-8.167,3.931-12.392,2.087c-6.021-2.627-2.543-7.844-1.205-10.18
	c2.353-4.105,0.876-10.837-7.006-10.837c-5.255,0-7.882,5.254-13.135,5.254c-5.255,0-7.882-5.254-13.135-5.254
	c-7.882,0-9.359,6.732-7.006,10.837c1.34,2.336,4.816,7.553-1.205,10.18c-4.225,1.844-9.572-0.515-12.392-2.087
	c1.748-0.741,2.978-4.043,1.446-6.342c-3.533-5.299-14.077-3.442-19.593,0.437c-9.961,7.006-4.488,16.967,0.329,21.127
	c2.593,2.239,2.621,4.31,2.392,5.426c-0.672-0.962-1.785-1.596-3.048-1.596c-2.056,0-3.721,1.666-3.721,3.721
	c0,0.161,0.027,0.315,0.047,0.471c-5.607-2.463-14.747,3.696-15.153,14.853c-0.286,7.867,5.256,12.074,9.141,14.056
	c-1.471,0.516-2.532,1.901-2.532,3.548c0,2.084,1.69,3.774,3.774,3.774c0.872,0,1.665-0.307,2.304-0.805
	c4.729,8.103,0.018,13.841-2.584,16.154c-0.56-0.204-1.156-0.332-1.786-0.332c-2.902,0-5.255,2.352-5.255,5.254
	c0,2.724,2.081,4.939,4.736,5.202c-3.622,3.72-6.871,11.919,0.19,21.233c7.717,10.18,26.107,9.359,34.973,9.687
	c5.622,0.209,9.851,3.119,12.198,5.225c-1.501,0.925-2.511,2.569-2.511,4.463c0,2.653,1.974,4.825,4.53,5.181
	c0.928,1.486,2.566,2.482,4.446,2.482c2.102,0,3.901-1.242,4.742-3.027c2.774,2.287,4.671,3.245,4.671,3.245
	s1.897-0.958,4.671-3.245c0.84,1.783,2.641,3.027,4.742,3.027c1.881,0,3.518-0.996,4.446-2.482c2.556-0.356,4.53-2.528,4.53-5.181
	c0-1.893-1.01-3.538-2.511-4.463c2.347-2.106,6.576-5.017,12.198-5.225c8.866-0.329,27.256,0.492,34.973-9.687
	c7.061-9.314,3.811-17.514,0.19-21.233C321.898,293.373,323.98,291.16,323.98,288.436z"/>
<path style="fill:#D2AA73;" d="M208.715,220.952v76.187c0,8.705,7.057,15.763,15.762,15.763h21.017
	c7.882,0,10.508,5.254,10.508,5.254s2.627-5.254,10.508-5.254h21.017c8.705,0,15.763-7.057,15.763-15.763v-76.187
	c0-1.451-1.176-2.627-2.627-2.627h-89.322C209.891,218.325,208.715,219.501,208.715,220.952z"/>
<g>
	<rect x="213.971" y="223.581" style="fill:#FF4B55;" width="39.41" height="39.41"/>
	<path style="fill:#FF4B55;" d="M253.375,307.647L253.375,307.647c-21.764,0-39.407-17.643-39.407-39.407l0,0h39.407V307.647z"/>
</g>
<g>
	<path style="fill:#FFE15A;" d="M258.63,307.647L258.63,307.647V268.24h39.407l0,0C298.037,290.004,280.393,307.647,258.63,307.647z
		"/>
	<rect x="258.631" y="223.581" style="fill:#FFE15A;" width="5.63" height="39.41"/>
</g>
<rect x="264.251" y="223.581" style="fill:#FF4B55;" width="5.63" height="39.41"/>
<rect x="269.891" y="223.581" style="fill:#FFE15A;" width="5.63" height="39.41"/>
<rect x="275.511" y="223.581" style="fill:#FF4B55;" width="5.63" height="39.41"/>
<g>
	<rect x="281.151" y="223.581" style="fill:#FFE15A;" width="5.63" height="39.41"/>
	<rect x="292.411" y="223.581" style="fill:#FFE15A;" width="5.63" height="39.41"/>
</g>
<g>
	<rect x="286.771" y="223.581" style="fill:#FF4B55;" width="5.63" height="39.41"/>
	<rect x="227.101" y="268.241" style="fill:#FF4B55;" width="4.379" height="39.41"/>
</g>
<g>
	<rect x="231.491" y="268.241" style="fill:#FFE15A;" width="4.379" height="39.41"/>
	<rect x="240.241" y="268.241" style="fill:#FFE15A;" width="4.379" height="39.41"/>
</g>
<rect x="235.861" y="268.241" style="fill:#FF4B55;" width="4.379" height="39.41"/>
<rect x="249.001" y="268.241" style="fill:#FFE15A;" width="4.379" height="39.41"/>
<rect x="244.621" y="268.241" style="fill:#FF4B55;" width="4.379" height="39.41"/>
<path style="fill:#FFE15A;" d="M218.347,305.642V268.24h-4.379v28.898C213.969,300.646,215.706,303.733,218.347,305.642z"/>
<path style="fill:#FF4B55;" d="M222.726,307.471V268.24h-4.379v37.402C219.625,306.563,221.108,307.197,222.726,307.471z"/>
<path style="fill:#FFE15A;" d="M222.726,268.24v39.231c0.572,0.096,1.151,0.176,1.751,0.176h2.627V268.24L222.726,268.24
	L222.726,268.24z"/>
<g>
	<path style="fill:#F5F5F5;" d="M219.843,260.748c-0.196,0-0.394-0.055-0.57-0.171c-2.583-1.71-2.734-3.49-2.593-4.399
		c0.189-1.227,1.102-2.246,2.326-2.596c1.165-0.327,2.326,0.016,3.11,0.927c1.63,1.896,3.315,2.642,4.732,2.118
		c1.122-0.416,1.792-1.522,1.792-2.349c0-0.572,0.462-1.035,1.035-1.035s1.035,0.462,1.035,1.035c0,1.809-1.321,3.614-3.142,4.289
		c-1.331,0.491-4.006,0.795-7.022-2.708c-0.324-0.374-0.705-0.362-0.973-0.287c-0.367,0.105-0.774,0.43-0.849,0.92
		c-0.11,0.714,0.506,1.572,1.69,2.357c0.477,0.315,0.607,0.958,0.292,1.435C220.508,260.585,220.178,260.748,219.843,260.748z"/>
	<path style="fill:#F5F5F5;" d="M247.627,260.748c-0.335,0-0.665-0.164-0.864-0.462c-0.315-0.477-0.185-1.12,0.292-1.435
		c1.183-0.785,1.8-1.643,1.69-2.357c-0.076-0.489-0.481-0.815-0.849-0.92c-0.27-0.075-0.651-0.087-0.973,0.287
		c-3.014,3.505-5.692,3.202-7.022,2.708c-1.819-0.675-3.142-2.481-3.142-4.289c0-0.572,0.462-1.035,1.035-1.035
		c0.572,0,1.035,0.462,1.035,1.035c0,0.826,0.67,1.932,1.792,2.349c1.418,0.525,3.103-0.222,4.732-2.118
		c0.785-0.916,1.947-1.257,3.11-0.927c1.223,0.35,2.137,1.368,2.326,2.596c0.14,0.907-0.01,2.688-2.593,4.399
		C248.02,260.691,247.822,260.748,247.627,260.748z"/>
</g>
<g>
	<path style="fill:#FFE15A;" d="M219.272,261.977c-0.219,0-0.439-0.069-0.626-0.21c-0.455-0.347-0.542-0.996-0.197-1.451
		l22.496-29.579c0.215-0.389,0.296-0.926,0.39-1.546c0.174-1.162,0.391-2.608,2.164-3.675c1.156-0.694,2.528-0.674,3.674,0.059
		c1.266,0.809,2.012,2.314,1.858,3.748c-0.092,0.871-0.601,2.461-2.958,3.333c-0.539,0.2-1.132-0.077-1.33-0.61
		c-0.199-0.536,0.075-1.132,0.611-1.33c0.687-0.255,1.527-0.742,1.62-1.613c0.071-0.661-0.305-1.392-0.915-1.783
		c-0.341-0.219-0.876-0.405-1.493-0.029c-0.939,0.564-1.032,1.182-1.186,2.207c-0.109,0.726-0.232,1.548-0.717,2.386l-22.568,29.687
		C219.894,261.835,219.585,261.977,219.272,261.977z"/>
	<polygon style="fill:#FFE15A;" points="233.814,229.442 223.466,241.861 227.605,254.28 240.024,254.28 244.164,241.861 	"/>
</g>
<path style="fill:#F5F5F5;" d="M233.814,227.825l-11.513,13.815l4.558,13.674h13.91l4.559-13.674L233.814,227.825z M224.631,242.081
	l8.15-9.78v20.943h-4.429L224.631,242.081z M239.278,253.244h-4.429v-20.943l8.15,9.78L239.278,253.244z"/>
<path style="fill:#FF4B55;" d="M288.349,280.682l0.156-2.296c0,0,2.036-1.461,1.043-2.818c-0.992-1.357-2.139-1.618-4.54-1.305
	c-2.401,0.312-6.158,0.261-7.775,0.365s-2.453,0.992-5.01,0.261l0.679-1.566c0,0-1.2,0.104-1.931,0.47
	c-0.399,0.2-1.357-1.096-2.296-0.887c-0.936,0.207-1.878,2.139-3.34,3.132l0.782,1.566c0,0,0.887-0.417,1.566,0.052
	c0.679,0.47,0.887,0.782,2.036,0.782l0.731,0.314c0,0-0.261,1.67,0.835,2.453c0,0-1.252,1.618-1.096,1.878
	c0.156,0.261,1.201,2.244,1.618,3.392l0.94-1.775c0,0-1.41-1.252-1.148-1.41c0.261-0.156,1.201-0.365,1.043-0.782
	c-0.156-0.417,0.731,0.052,1.722,0.209c0,0,0.052,1.566,0.261,1.775c0.209,0.209,0.522,1.043,0.47,1.931
	c-0.052,0.887-0.835,1.148-0.835,1.148l1.41,0.417c0,0,0.365-0.522,0.626-0.47c0,0-0.104-4.331,0.47-5.01
	c0,0,3.392,0.679,4.957-0.156c0,0,0.2,0.252,0.591,0.492c-0.156,0.364-0.289,0.726-0.23,0.832c0.131,0.236,0.55,0.21,0.655-0.052
	c0.04-0.099,0.101-0.301,0.162-0.511c0.189,0.062,0.396,0.111,0.634,0.135c-0.022,0.33-0.025,0.634,0.051,0.704
	c0.197,0.182,0.589,0.026,0.606-0.255c0.006-0.091,0.003-0.265-0.003-0.451c0.27-0.022,0.557-0.07,0.875-0.164l-1.775,2.923
	l-0.887,0.365l1.148,0.574l1.043-0.417c0,0,0.992-2.506,2.609-3.235c0,0,1.096,2.609-0.261,4.018l1.2,0.679l0.574-1.201
	c0,0-0.209-2.348,0.574-3.861L288.349,280.682z"/>
<g>
	<path style="fill:#4173CD;" d="M268.696,273.224c0,0-0.524-0.497-0.655-1.152s-0.289-0.943-0.865-1.126
		c0,0,0.367,0.419,0.315,1.073s0,1.546,0.366,1.833L268.696,273.224z"/>
	<path style="fill:#4173CD;" d="M273.255,275.071c0,0-0.712,2.422-2.805,3.68l-0.731-0.314c0,0,2.234-1.909,2.506-3.549
		L273.255,275.071z"/>
	<path style="fill:#4173CD;" d="M269.692,273.8c-0.075-0.077,0.917-0.367,0.681-1.152c-0.236-0.786-0.236-1.362,0.236-1.728
		c0,0,0.052,0.655,0.419,1.073c0.366,0.419,0.576,1.467-0.026,2.069C271.002,274.062,270.399,274.533,269.692,273.8z"/>
	<path style="fill:#4173CD;" d="M269.806,280.941L269.806,280.941c-0.125-0.061-0.177-0.214-0.115-0.339l0.316-0.644
		c0.185-0.377,0.063-0.846-0.301-1.056c-0.4-0.23-0.904-0.071-1.102,0.335l-0.329,0.669c-0.061,0.125-0.214,0.177-0.339,0.115
		l-0.197,0.401c0,0,0.29,0.142,0.641,0.315l-0.008,0.015c-0.08,0.162-0.012,0.359,0.15,0.439s0.359,0.012,0.439-0.15l0.007-0.015
		c0.351,0.172,0.641,0.315,0.641,0.315L269.806,280.941z"/>
	<polygon style="fill:#4173CD;" points="272.338,285.352 273.124,285.509 272.469,287.526 271.807,286.474 	"/>
	<polygon style="fill:#4173CD;" points="274.258,287.57 273.778,288.417 275.664,288.417 275.668,287.987 	"/>
	<polygon style="fill:#4173CD;" points="283.548,286.944 283.548,287.447 281.408,287.447 282.442,286.413 	"/>
	<polygon style="fill:#4173CD;" points="286.94,287.309 285.883,288.367 288.107,288.367 288.141,287.987 	"/>
</g>
<path style="fill:#FF4B55;" d="M288.349,297.033l0.156-2.296c0,0,2.036-1.461,1.043-2.818c-0.992-1.357-2.139-1.618-4.54-1.305
	c-2.401,0.314-6.158,0.261-7.775,0.365c-1.618,0.105-2.453,0.991-5.01,0.261l0.679-1.566c0,0-1.2,0.104-1.931,0.47
	c-0.399,0.2-1.357-1.096-2.296-0.887c-0.936,0.207-1.878,2.139-3.34,3.132l0.782,1.566c0,0,0.887-0.417,1.566,0.052
	c0.679,0.47,0.887,0.782,2.036,0.782l0.731,0.314c0,0-0.261,1.67,0.835,2.453c0,0-1.252,1.618-1.096,1.878
	c0.156,0.261,1.201,2.244,1.618,3.393l0.94-1.775c0,0-1.41-1.252-1.148-1.408c0.261-0.156,1.201-0.365,1.043-0.782
	c-0.156-0.417,0.731,0.052,1.722,0.209c0,0,0.052,1.566,0.261,1.775c0.209,0.209,0.522,1.043,0.47,1.931
	c-0.052,0.887-0.835,1.148-0.835,1.148l1.41,0.417c0,0,0.365-0.522,0.626-0.47c0,0-0.104-4.331,0.47-5.01
	c0,0,3.392,0.679,4.957-0.156c0,0,0.2,0.252,0.591,0.492c-0.156,0.364-0.289,0.726-0.23,0.832c0.131,0.236,0.55,0.21,0.655-0.052
	c0.04-0.099,0.101-0.301,0.162-0.511c0.189,0.063,0.396,0.111,0.634,0.135c-0.022,0.33-0.025,0.634,0.051,0.704
	c0.197,0.182,0.589,0.026,0.606-0.255c0.006-0.091,0.003-0.265-0.003-0.451c0.27-0.023,0.557-0.07,0.875-0.164l-1.775,2.923
	l-0.887,0.365l1.148,0.574l1.043-0.417c0,0,0.992-2.506,2.609-3.235c0,0,1.096,2.609-0.261,4.018l1.2,0.679l0.574-1.2
	c0,0-0.209-2.348,0.574-3.861L288.349,297.033z"/>
<g>
	<path style="fill:#4173CD;" d="M268.696,289.575c0,0-0.524-0.497-0.655-1.152s-0.289-0.944-0.865-1.126
		c0,0,0.367,0.419,0.315,1.073c-0.052,0.655,0,1.546,0.366,1.833L268.696,289.575z"/>
	<path style="fill:#4173CD;" d="M273.255,291.422c0,0-0.712,2.422-2.805,3.68l-0.731-0.314c0,0,2.234-1.909,2.506-3.549
		L273.255,291.422z"/>
	<path style="fill:#4173CD;" d="M269.692,290.152c-0.075-0.077,0.917-0.367,0.681-1.152c-0.236-0.786-0.236-1.362,0.236-1.728
		c0,0,0.052,0.655,0.419,1.073s0.576,1.467-0.026,2.069C271.002,290.414,270.399,290.885,269.692,290.152z"/>
	<path style="fill:#4173CD;" d="M269.806,297.293L269.806,297.293c-0.125-0.061-0.177-0.214-0.115-0.339l0.316-0.644
		c0.185-0.377,0.063-0.846-0.301-1.056c-0.4-0.23-0.904-0.071-1.102,0.335l-0.329,0.669c-0.061,0.125-0.214,0.177-0.339,0.115
		l-0.197,0.401c0,0,0.29,0.142,0.641,0.315l-0.008,0.015c-0.08,0.162-0.012,0.359,0.15,0.439s0.359,0.013,0.439-0.15l0.007-0.015
		c0.351,0.172,0.641,0.315,0.641,0.315L269.806,297.293z"/>
	<polygon style="fill:#4173CD;" points="272.338,301.703 273.124,301.861 272.469,303.878 271.807,302.826 	"/>
	<polygon style="fill:#4173CD;" points="274.258,303.921 273.778,304.769 275.664,304.769 275.668,304.339 	"/>
	<polygon style="fill:#4173CD;" points="283.548,303.295 283.548,303.799 281.408,303.799 282.442,302.764 	"/>
	<polygon style="fill:#4173CD;" points="286.94,303.66 285.883,304.719 288.107,304.719 288.141,304.339 	"/>
</g>
<g>
</g>
<g>
</g>
<g>
</g>
<g>
</g>
<g>
</g>
<g>
</g>
<g>
</g>
<g>
</g>
<g>
</g>
<g>
</g>
<g>
</g>
<g>
</g>
<g>
</g>
<g>
</g>
<g>
</g>
</svg>
