<?xml version="1.0" encoding="iso-8859-1"?>
<!-- Generator: Adobe Illustrator 19.0.0, SVG Export Plug-In . SVG Version: 6.00 Build 0)  -->
<svg version="1.1" id="Layer_1" xmlns="http://www.w3.org/2000/svg" xmlns:xlink="http://www.w3.org/1999/xlink" x="0px" y="0px"
	 viewBox="0 0 512.001 512.001" style="enable-background:new 0 0 512.001 512.001;" xml:space="preserve">
<path style="fill:#464655;" d="M56.051,302.239l406.775-0.627l19.604-83.916v-2.434l-0.005-27.164l-0.008-42.487
	c0-3.105-0.422-6.147-1.202-9.07c-0.42-1.572-0.949-3.107-1.577-4.598c-2.568-6.092-6.815-11.42-12.362-15.28
	c-0.812-0.565-1.642-1.11-2.509-1.611l-23.71-13.684l-22.198-12.811l-17.87-10.314l-68.34-39.441l-26.66-15.386l-19.995-11.54
	l-12.391-7.151c-10.919-6.302-24.37-6.3-35.287,0.006l-12.307,7.108l-19.995,11.548l-26.66,15.399v-0.001l-68.332,39.468
	L81.074,95.55l-22.192,12.818l-11.697,6.756c-0.841,0.486-1.648,1.015-2.439,1.562c-3.392,2.349-6.296,5.254-8.638,8.538
	c-1.572,2.206-2.883,4.585-3.912,7.092c-1.715,4.179-2.652,8.707-2.651,13.372l0.007,42.411l0.005,27.164v2.247L56.051,302.239z"/>
<polygon style="fill:#FFE15A;" points="322.008,263.291 380.297,224.95 311.969,239.055 351.148,181.325 293.418,220.506 
	307.524,152.177 269.182,210.467 256.067,141.942 242.95,210.467 204.608,152.177 218.714,220.506 160.984,181.325 200.164,239.055 
	131.835,224.95 190.124,263.291 121.6,276.408 258.5,294.741 390.533,276.408 "/>
<polygon style="fill:#4173CD;" points="390.533,276.408 121.6,276.408 61.049,276.408 99.79,324.771 126.033,359.156 
	137.66,359.156 169.355,359.156 179.157,359.156 213.171,359.156 231.894,359.156 246.167,359.156 265.965,359.156 280.238,359.156 
	298.961,359.156 332.975,359.156 342.777,359.156 374.473,359.156 392.216,359.156 420.959,316.1 448.452,276.408 "/>
<path style="fill:#F5F5F5;" d="M103.539,359.156l150.731,152.8c1.197,0.06,2.396,0.06,3.594-0.003l146.849-152.798H103.539V359.156z
	"/>
<g>
	<path style="fill:#FF4B55;" d="M29.572,296.754v0.005l0.005,27.159l0.007,42.479v0.006c0.003,11.607,5.715,22.388,15.14,28.946
		c0.812,0.565,1.642,1.11,2.509,1.611l23.378,13.492l22.198,12.812l18.204,10.506l95.001,54.827l19.995,11.54l12.391,7.151
		c4.93,2.844,10.376,4.391,15.871,4.668l-116.611-152.8l-26.241-34.385L29.561,217.506l0.012,79.234L29.572,296.754L29.572,296.754z
		"/>
	<path style="fill:#FF4B55;" d="M374.473,359.156L257.864,511.954c5.48-0.284,10.909-1.833,15.822-4.671l12.307-7.108l19.995-11.548
		l26.66-15.397l57.589-33.262l10.742-6.205l27.326-15.782l22.192-12.818l14.319-8.27c0.841-0.486,1.648-1.015,2.439-1.562
		c9.465-6.556,15.201-17.366,15.2-29.001l-0.008-42.411l-0.005-27.164l-0.013-79.059l-75.1,98.405L374.473,359.156z"/>
</g>
<g>
</g>
<g>
</g>
<g>
</g>
<g>
</g>
<g>
</g>
<g>
</g>
<g>
</g>
<g>
</g>
<g>
</g>
<g>
</g>
<g>
</g>
<g>
</g>
<g>
</g>
<g>
</g>
<g>
</g>
</svg>
