<?xml version="1.0" encoding="iso-8859-1"?>
<!-- Generator: Adobe Illustrator 19.0.0, SVG Export Plug-In . SVG Version: 6.00 Build 0)  -->
<svg version="1.1" id="Layer_1" xmlns="http://www.w3.org/2000/svg" xmlns:xlink="http://www.w3.org/1999/xlink" x="0px" y="0px"
	 viewBox="0 0 512.001 512.001" style="enable-background:new 0 0 512.001 512.001;" xml:space="preserve">
<path style="fill:#F5F5F5;" d="M29.588,366.395l-0.036-220.713c-0.003-12.607,6.722-24.257,17.639-30.562L238.314,4.731
	c10.917-6.306,24.368-6.307,35.287-0.006L464.762,115.05c10.918,6.302,17.646,17.95,17.649,30.557l0.036,220.713
	c0.003,12.607-6.722,24.257-17.639,30.563L273.683,507.269c-10.917,6.306-24.368,6.307-35.287,0.006L47.237,396.951
	C36.318,390.649,29.591,379.001,29.588,366.395z"/>
<g>
	<path style="fill:#FF4B55;" d="M41.36,119.34v136.838l19.693,7.319l22.116-7.319V94.337l-35.98,20.782
		C45.083,116.336,43.137,117.756,41.36,119.34z"/>
	<polygon style="fill:#FF4B55;" points="96.774,86.481 256,86.481 259.749,53.556 256,19.56 212.639,19.56 	"/>
	<path style="fill:#FF4B55;" d="M108.019,108.788l84.039,87.312l56.023,58.205c0.029-0.021,0.057-0.046,0.086-0.067
		c0.06-0.054,0.12-0.109,0.182-0.156c0.444-0.337,7.647-6.784,7.648-6.828c0.156-3.671-0.084-10.216-0.049-11.177
		c0.003-0.06,0.011-0.116,0.014-0.176L215.18,193.53l-81.565-84.74h-25.597L108.019,108.788L108.019,108.788z"/>
</g>
<path style="fill:#41479B;" d="M482.411,145.607c-0.003-12.607-6.729-24.255-17.649-30.557L273.601,4.726
	C268.154,1.583,262.078,0.008,256,0.002V19.56v66.92v20.003H149.818L256,217.832v16.963c0,0.374-0.023,0.737-0.035,1.106l0,0
	c-0.001,0.06-0.011,0.117-0.014,0.176c-0.036,0.961-0.104,1.908-0.216,2.829c-0.018,0.142-0.05,0.276-0.069,0.419
	c-0.505,3.745-1.61,7.128-3.164,9.859c-0.021,0.039-0.042,0.077-0.065,0.115c-0.796,1.38-1.706,2.589-2.704,3.595
	c-0.03,0.03-0.061,0.059-0.091,0.089c-0.412,0.405-0.846,0.764-1.29,1.1c-0.062,0.047-0.122,0.102-0.182,0.156
	c-0.029,0.021-0.057,0.046-0.086,0.067l0,0c-1.662,1.198-3.502,1.874-5.444,1.874h-23.207L95.668,126.396v129.783h-5.872h-6.624
	H41.36h-7.799H29.57l0.019,110.216c0.003,12.607,6.729,24.255,17.649,30.557l191.161,110.325c10.918,6.302,24.37,6.299,35.286-0.006
	l191.125-110.39c10.917-6.305,17.64-17.955,17.639-30.562L482.411,145.607z"/>
<path style="fill:#F5F5F5;" d="M323.887,186.407c-1.341,17.869-6.886,131.423,65.16,157.092
	c72.071-25.677,66.503-139.225,65.16-157.092c-8.729,3.422-40.328,13.792-65.16-3.881
	C364.215,200.197,332.621,189.832,323.887,186.407z"/>
<g>
	<path style="fill:#FFA028;" d="M424.447,209.317c-3.95-3.072-11.263,2.633-19.456,2.048c-7.598-0.542-16.962-8.236-29.132-4.92
		c-3.363-3.097-1.735-10.293-1.735-10.293c-8.45,5.461-9.055,12.939-8.524,16.994c-6.026,7.962-5.618,20.111-4.495,23.818
		c1.463,4.827,4.243,5.412,4.681,10.825c0.439,5.412,2.487,3.51,2.487,3.51c4.231-2.373,4.846-6.849,6.626-14.175
		c6.874,0.877,11.367-5.281,11.367-5.281c-4.511,1.415-7.354-1.071-8.905-3.26c0.242-0.724,0.436-1.391,0.714-2.152
		c5.12-14.044,29.619-10.182,31.89-6.291c4.096,7.022,9.509,9.655,9.509,9.655c0-7.32-5.412-13.75-5.412-13.75
		C422.252,214.583,424.447,209.317,424.447,209.317z M365.494,239.451c-0.809,0-1.463-0.655-1.463-1.463
		c0-0.807,0.655-1.463,1.463-1.463c0.807,0,1.462,0.655,1.462,1.463S366.302,239.451,365.494,239.451z"/>
	<path style="fill:#FFA028;" d="M400.322,299.178c4.77-1.51,4.223-10.77,9.352-17.183c4.757-5.948,16.405-9.294,20.579-21.198
		c4.457-1.012,9.46,4.411,9.46,4.411c0.296-10.057-5.517-14.797-9.159-16.66c-3.138-9.479-13.373-16.037-17.064-17.215
		c-4.805-1.535-6.863,0.422-11.569-2.287s-4.303,0.056-4.303,0.056c-0.446,4.831,2.89,7.877,7.914,13.499
		c-4.622,5.162-2.101,12.357-2.101,12.357c1.393-4.518,5.055-5.449,7.738-5.483c0.459,0.61,0.898,1.148,1.367,1.808
		c8.66,12.183-8.419,30.168-12.913,29.829c-8.107-0.611-13.345,2.353-13.345,2.353c6.028,4.153,14.394,3.344,14.394,3.344
		C397.231,294.383,400.322,299.178,400.322,299.178z M408.954,233.535c0.459-0.666,1.37-0.834,2.034-0.375
		c0.665,0.459,0.833,1.37,0.375,2.034c-0.459,0.665-1.37,0.834-2.034,0.375C408.664,235.112,408.496,234.201,408.954,233.535z"/>
	<path style="fill:#FFA028;" d="M335.83,234.156c-0.639,4.962,7.993,8.361,11.652,15.714c3.394,6.818,1.527,18.794,10.57,27.589
		c-0.957,4.469-7.983,6.726-7.983,6.726c8.999,4.501,15.746,1.222,18.969-1.296c9.92,1.142,20.176-5.382,22.797-8.235
		c3.414-3.713,2.506-6.404,6.943-9.532c4.439-3.129,1.76-3.926,1.76-3.926c-4.195-2.438-8.361-0.692-15.576,1.498
		c-2.738-6.366-10.325-7.106-10.325-7.106c3.512,3.165,2.815,6.878,1.718,9.326c-0.746,0.159-1.42,0.331-2.216,0.48
		c-14.696,2.728-23.823-20.332-21.625-24.266c3.965-7.097,3.482-13.096,3.482-13.096c-6.303,3.72-9.091,11.651-9.091,11.651
		C341.48,233.369,335.83,234.156,335.83,234.156z M391.745,269.61c0.411,0.696,0.18,1.593-0.516,2.003
		c-0.696,0.411-1.592,0.18-2.003-0.516c-0.411-0.696-0.18-1.592,0.516-2.003S391.334,268.914,391.745,269.61z"/>
</g>
<path style="fill:#CDCE0C;" d="M389.045,347.219l-0.576-0.199c-81.125-28.22-68.016-161.99-67.874-163.341l0.254-2.417l2.217,1.005
	c0.382,0.175,38.021,16.868,64.927-3.319l1.052-0.789l1.052,0.789c26.946,20.214,64.551,3.49,64.926,3.319l2.218-1.008l0.254,2.421
	c0.142,1.351,13.251,135.121-67.874,163.341L389.045,347.219z M323.887,186.407c-1.341,17.869-6.886,131.423,65.16,157.092
	c72.071-25.677,66.503-139.225,65.16-157.092c-8.729,3.422-40.328,13.792-65.16-3.881
	C364.215,200.197,332.621,189.832,323.887,186.407z"/>
<path style="fill:#82AFFF;" d="M343.862,303.231c9.84,17.845,24.206,32.793,45.185,40.268c20.984-7.475,35.353-22.424,45.195-40.268
	H343.862z"/>
<g>
</g>
<g>
</g>
<g>
</g>
<g>
</g>
<g>
</g>
<g>
</g>
<g>
</g>
<g>
</g>
<g>
</g>
<g>
</g>
<g>
</g>
<g>
</g>
<g>
</g>
<g>
</g>
<g>
</g>
</svg>
