<?xml version="1.0" encoding="iso-8859-1"?>
<!-- Generator: Adobe Illustrator 19.0.0, SVG Export Plug-In . SVG Version: 6.00 Build 0)  -->
<svg version="1.1" id="Layer_1" xmlns="http://www.w3.org/2000/svg" xmlns:xlink="http://www.w3.org/1999/xlink" x="0px" y="0px"
	 viewBox="0 0 512 512" style="enable-background:new 0 0 512 512;" xml:space="preserve">
<path style="fill:#464655;" d="M482.441,323.909l-0.005-27.164L482.43,256l-230.18-21.25L29.569,256l0.006,40.733v0.014v0.005
	l0.005,27.159l0.007,42.478v0.006c0.003,11.607,5.715,22.388,15.14,28.946c0.812,0.565,1.642,1.11,2.509,1.611l23.377,13.491
	l22.198,12.811l18.204,10.506l94.999,54.826l19.995,11.539l12.39,7.151c10.918,6.302,24.37,6.299,35.287-0.006l12.307-7.108
	l19.995-11.548l26.659-15.397l57.587-33.261l10.742-6.205l27.325-15.782l22.191-12.818l14.319-8.27
	c0.841-0.486,1.648-1.013,2.439-1.561c9.465-6.556,15.201-17.365,15.2-29.001L482.441,323.909z"/>
<path style="fill:#FF4B55;" d="M482.424,215.255l-0.005-27.164l-0.008-42.486c-0.001-3.105-0.422-6.147-1.202-9.07
	c-0.42-1.572-0.948-3.107-1.577-4.598c-2.568-6.091-6.814-11.419-12.362-15.28c-0.812-0.565-1.642-1.11-2.509-1.611l-23.71-13.684
	l-22.198-12.81l-17.87-10.313l-21.12-12.189l-47.217-27.249l-26.659-15.386l-19.995-11.539l-12.39-7.151
	c-10.918-6.301-24.37-6.3-35.287,0.006l-12.307,7.108l-19.995,11.548l-26.659,15.398l0,0l-47.211,27.268l-21.118,12.198
	L81.077,95.547l-22.191,12.818l-11.697,6.756c-0.841,0.486-1.648,1.015-2.439,1.561c-3.392,2.349-6.296,5.254-8.638,8.538
	c-1.572,2.206-2.883,4.585-3.911,7.092c-1.715,4.179-2.652,8.706-2.651,13.371l0.007,42.41l0.005,27.164l0.006,40.745h452.861
	L482.424,215.255z"/>
<g>
	<path style="fill:#FFE15A;" d="M233.24,172.527l6.836,20.494l21.604,0.167c1.673,0.012,2.368,2.149,1.021,3.143l-17.379,12.834
		l6.517,20.598c0.505,1.596-1.312,2.915-2.674,1.943l-17.576-12.563l-17.576,12.563c-1.362,0.973-3.179-0.346-2.674-1.943
		l6.517-20.598l-17.379-12.834c-1.346-0.995-0.652-3.13,1.021-3.143l21.604-0.167l6.836-20.494
		C230.465,170.939,232.712,170.939,233.24,172.527z"/>
	<path style="fill:#FFE15A;" d="M325.635,346.537c0,0-123.676-93.301-127.328-96.367c-5.643-4.74-9.997-13.121-10.206-23.327
		c0,0-13.338,13.663-10.726,27.805c3.019,16.349,12.392,22.181,24.472,30.096c8.49,5.562,75.977,48.126,115.373,72.955
		L325.635,346.537z"/>
	<path style="fill:#FFE15A;" d="M362.638,373.884c-1.612-1.151-14.565-10.725-32.537-24.04l-6.522,11.859
		c13.195,8.314,21.98,13.847,21.98,13.847s1.25,16.246,14.371,13.538C364.661,388.113,368.47,378.051,362.638,373.884z"/>
	<path style="fill:#FFE15A;" d="M255.844,330.806c-9.349,3.29-19.362,5.172-29.837,5.172c-26.548,0-50.334-11.566-66.803-29.853
		l-14.641,13.176c4.907,5.45,10.147,10.586,16.053,14.968l-2.915,5.049l21.644,12.497l2.865-4.964
		c9.779,4.253,20.289,7.114,31.3,8.361v5.757h24.993v-5.757c11.011-1.247,21.522-4.109,31.3-8.361l2.865,4.964l8.601-4.966
		C272.872,341.553,264.268,336.123,255.844,330.806z"/>
	<path style="fill:#FFE15A;" d="M335.22,233.507c-1.247-11.011-4.109-21.522-8.361-31.299l4.964-2.865l-12.497-21.645l-5.05,2.915
		c-6.465-8.71-14.166-16.412-22.878-22.876l2.915-5.05l-21.644-12.497l-2.865,4.964c-8.112-3.528-16.748-6.033-25.734-7.519
		l-3.284,19.71c42.646,7.063,75.198,44.012,75.198,88.659c0,24.041-9.487,45.826-24.849,61.967
		c5.315,4.013,10.588,7.995,15.802,11.93c2.526-2.766,5.1-5.49,7.339-8.506l5.05,2.915l12.497-21.644l-4.964-2.865
		c4.253-9.779,7.114-20.289,8.361-31.299h5.757v-24.993h-5.757L335.22,233.507L335.22,233.507z"/>
</g>
<g>
</g>
<g>
</g>
<g>
</g>
<g>
</g>
<g>
</g>
<g>
</g>
<g>
</g>
<g>
</g>
<g>
</g>
<g>
</g>
<g>
</g>
<g>
</g>
<g>
</g>
<g>
</g>
<g>
</g>
</svg>
