<?xml version="1.0" encoding="iso-8859-1"?>
<!-- Generator: Adobe Illustrator 19.0.0, SVG Export Plug-In . SVG Version: 6.00 Build 0)  -->
<svg version="1.1" id="Layer_1" xmlns="http://www.w3.org/2000/svg" xmlns:xlink="http://www.w3.org/1999/xlink" x="0px" y="0px"
	 viewBox="0 0 512.001 512.001" style="enable-background:new 0 0 512.001 512.001;" xml:space="preserve">
<g>
	<path style="fill:#41479B;" d="M29.566,229.772l198.942-61.253L416.08,86.953l2.776,1.602l0,0l-17.87-10.313l-68.339-39.441
		l-26.659-15.386l-19.995-11.539l-12.39-7.151c-10.918-6.302-24.37-6.3-35.287,0.006l-12.307,7.108l-19.995,11.548l-26.659,15.398
		l0,0l-68.33,39.466L81.078,95.547l-22.191,12.818l-11.697,6.756c-0.841,0.486-1.648,1.015-2.439,1.561
		c-3.392,2.349-6.296,5.254-8.638,8.538c-1.572,2.206-2.883,4.585-3.911,7.092c-1.715,4.179-2.652,8.706-2.651,13.371l0.007,42.41
		l0.005,27.164L29.566,229.772z"/>
	<path style="fill:#41479B;" d="M29.577,296.733v0.014v0.005l0.005,27.159l0.007,42.478v0.006
		c0.003,11.607,5.715,22.388,15.14,28.946c0.812,0.565,1.642,1.11,2.509,1.611l23.377,13.491l22.198,12.812l18.204,10.506
		l94.999,54.826l19.995,11.539l12.39,7.151c10.918,6.301,24.37,6.298,35.287-0.006l12.307-7.108l19.995-11.548l26.659-15.397
		l57.588-33.261l10.742-6.205l15.082-8.711L226.012,345.97L29.577,282.234V296.733z"/>
</g>
<g>
	<polygon style="fill:#FF4B55;" points="438.849,411.877 254.75,325.975 29.571,260.647 29.574,282.232 416.059,425.041 
		428.3,417.97 	"/>
	<polygon style="fill:#FF4B55;" points="416.08,86.953 29.566,229.772 29.569,251.355 251.001,191.012 438.881,100.112 
		429.797,94.87 418.855,88.555 	"/>
</g>
<path style="fill:#F5F5F5;" d="M482.442,323.911l-0.005-27.164l-0.014-81.491l-0.005-27.164l-0.008-42.486
	c0-3.105-0.422-6.147-1.202-9.07c-0.42-1.572-0.949-3.107-1.577-4.597c-2.568-6.091-6.814-11.419-12.362-15.28
	c-0.812-0.565-1.642-1.11-2.509-1.61l-23.71-13.684l-2.172-1.253L29.569,251.355l0.001,9.292l409.278,151.23l11.643-6.726
	l14.319-8.27c0.841-0.486,1.648-1.013,2.439-1.562c9.465-6.556,15.201-17.365,15.2-29.001L482.442,323.911z"/>
<path style="fill:#FFF5DC;" d="M431.552,208.881c0,0,32.275,1.367,35.284-1.095s3.555-18.874-7.112-21.334
	c-10.667-2.461-39.66,13.403-39.66,13.403L431.552,208.881z"/>
<g>
	<path style="fill:#D27D69;" d="M368.369,234.319c0,0-0.365,0.912-0.547,4.924s0.547,14.406,13.129,18.965l-2.918,12.218
		l13.311,8.023c0,0,9.847-14.587,10.393-26.805C402.285,239.424,368.369,234.319,368.369,234.319z"/>
	<path style="fill:#D27D69;" d="M328.435,226.113l5.197-5.197c0,0-10.638,6.491-14.678,0.639
		c-5.289-7.658,1.823-15.682,9.209-19.237s22.155-0.821,22.155-0.821l9.3,23.796l-28.172,17.779L328.435,226.113z"/>
	<path style="fill:#D27D69;" d="M415.688,180.709l25.164-3.009c0,0-7.385,10.667-21.882,18.6c0,0,15.043,0,19.42,5.197
		c4.376,5.197-4.376,10.12-7.659,11.762c-3.282,1.641-31.729,19.146-31.729,19.146l-25.437-3.009L415.688,180.709z"/>
	<path style="fill:#D27D69;" d="M434.379,161.379c0,0,5.471-12.764,5.289-21.699l-18.417,12.764c0,0,4.194-2.006,2.735-9.3
		l-60.175,32.64l-12.218,21.699l37.199,11.488L434.379,161.379z"/>
</g>
<path style="fill:#FFE15A;" d="M389.02,260.851l-6.291,9.984c0,0-11.214-2.462-15.043,0.274c-3.829,2.735-4.24,12.993,2.462,13.812
	c0,0,4.65,2.872,7.385,0.547c0,0,5.607,2.188,6.564-1.367s-0.274-6.564-0.274-6.564h3.966l6.974-12.445L389.02,260.851z"/>
<path style="fill:#B95546;" d="M332.811,239.242c0,0,17.505-8.753,17.505-21.882s-16.229-13.859-29.358-9.482
	c0,0-7.842-6.2-1.276-12.399c8.999-8.499,48.139-26.258,48.139-26.258l-4.376,21.882c0,0,15.591,8.205,21.882,4.376
	c5.286-3.218,56.892-43.763,56.892-43.763s-4.376,21.882-35.01,43.763l-3.247,16.231c-0.714,3.565-3.033,6.602-6.285,8.229
	l-12.35,6.176c0,0,35.01,4.376,35.01,8.753s-8.753,26.258-26.258,35.01l-8.753-8.753l4.376-13.129c0,0-13.129-4.376-21.882-8.753
	c0,0-13.129,4.376-21.882,4.376C337.188,243.618,332.811,239.242,332.811,239.242z"/>
<path style="fill:#FFF5DC;" d="M306.554,261.123v-9.094c0-2.584,1.026-5.062,2.853-6.889l19.029-19.029l4.376,8.753h17.505
	l-4.376,4.376v4.376l-21.882,13.129L306.554,261.123z"/>
<g>
	<path style="fill:#FFE15A;" d="M315.306,256.747h-8.753c0,0-8.753,13.129,0,13.129c0,0,13.129-8.753,17.505-13.129
		C324.059,256.747,324.059,252.371,315.306,256.747z"/>
	<path style="fill:#FFE15A;" d="M422.057,276.16h-60.5c-0.499-0.537-1.196-0.884-1.987-0.884c0,0-10.597-4.391-12.105-4.391h-1.242
		c-1.507,0-2.729,1.222-2.729,2.729v2.547h-13.83v-2.547c0-1.507-1.222-2.729-2.729-2.729h-1.242c-1.507,0-2.729,1.222-2.729,2.729
		v0.046c-5.927-0.241-18.6-0.997-25.164-3.185l-35.01,8.753l35.01,8.753c6.563-2.188,19.236-2.944,25.164-3.185v0.046
		c0,1.506,1.222,2.729,2.729,2.729h1.242c1.507,0,2.729-1.222,2.729-2.729v-2.547h13.83v2.547c0,1.506,1.222,2.729,2.729,2.729
		h1.242c1.507,0,12.105-4.391,12.105-4.391c0.79,0,1.488-0.346,1.987-0.884h60.5c1.693,0,3.067-1.373,3.067-3.067
		C425.125,277.534,423.752,276.16,422.057,276.16z"/>
	<path style="fill:#FFE15A;" d="M419.427,287.928c-3.646-0.73-45.405,6.564-45.405,6.564s-2.553-2.553,5.106-9.665l-3.647-0.912
		c0,0-8.023,5.653-11.306,6.382c-2.827,0.629-9.141,3.698-10.498,7.798l-25.424,4.238l0.547,2.188l24.938-2.923
		c1.19,3.831,5.11,4.612,7.884,3.47c0,0,3.648,1.458,6.929-1.095c0,0,6.564,1.095,6.929-4.924l45.769-6.929
		C421.25,292.122,423.073,288.658,419.427,287.928z"/>
	<path style="fill:#FFE15A;" d="M393.532,318.745c0,0-3.464,4.559-12.035,0.547c-8.57-4.011-18.6,0.365-24.07-0.912
		c-5.471-1.276-13.676-4.559-21.334-1.641c-7.659,2.918-11.853,2.735-10.211-0.912c1.641-3.646,2.553-6.382,0-7.658l2.918-3.648
		l-0.547-2.188c0,0-14.587-5.652-24.435,2.188c-9.847,7.842-6.929,25.71,9.482,26.988c0,0,5.106,6.382,17.688,4.559
		c0,0,8.205,5.652,22.246,3.1c0,0,0.547,1.641,9.665,0.912s19.328,0.365,17.505,6.564c0,0,6.747-1.276,2.735-7.477
		c0,0,8.023-0.365,13.494,4.376c0,0,0.365-5.471-4.924-8.388c0,0,8.935-3.1,13.859,0c0,0-3.282-6.929-12.034-6.017
		c0,0,6.382-5.106,9.3-3.829c0,0-2.736-3.283-10.758,0C392.074,325.311,397.18,322.21,393.532,318.745z"/>
</g>
<g>
</g>
<g>
</g>
<g>
</g>
<g>
</g>
<g>
</g>
<g>
</g>
<g>
</g>
<g>
</g>
<g>
</g>
<g>
</g>
<g>
</g>
<g>
</g>
<g>
</g>
<g>
</g>
<g>
</g>
</svg>
