<?xml version="1.0" encoding="iso-8859-1"?>
<!-- Generator: Adobe Illustrator 19.0.0, SVG Export Plug-In . SVG Version: 6.00 Build 0)  -->
<svg version="1.1" id="Layer_1" xmlns="http://www.w3.org/2000/svg" xmlns:xlink="http://www.w3.org/1999/xlink" x="0px" y="0px"
	 viewBox="0 0 512.001 512.001" style="enable-background:new 0 0 512.001 512.001;" xml:space="preserve">
<path style="fill:#F5F5F5;" d="M29.59,366.394l-0.036-220.713c-0.003-12.607,6.722-24.257,17.639-30.562L238.316,4.73
	c10.917-6.305,24.368-6.307,35.287-0.006l191.161,110.325c10.918,6.302,17.646,17.95,17.649,30.557l0.036,220.713
	c0.003,12.607-6.722,24.257-17.639,30.563L273.684,507.269c-10.917,6.306-24.368,6.307-35.287,0.006L47.238,396.951
	C36.319,390.649,29.592,379.001,29.59,366.394z"/>
<g>
	<path style="fill:#FF4B55;" d="M482.411,145.606c-0.003-12.607-6.729-24.255-17.649-30.557L273.602,4.725
		c-10.918-6.302-24.37-6.3-35.287,0.006L47.19,115.118c-10.917,6.305-17.64,17.955-17.639,30.562l0.004,24.467h452.859
		L482.411,145.606z"/>
	<path style="fill:#FF4B55;" d="M29.59,366.394c0.003,12.607,6.729,24.255,17.649,30.557l191.161,110.325
		c10.918,6.302,24.37,6.299,35.286-0.005L464.81,396.882c10.917-6.306,17.64-17.955,17.639-30.562l-0.004-24.466H29.586
		L29.59,366.394z"/>
</g>
<g>
</g>
<g>
</g>
<g>
</g>
<g>
</g>
<g>
</g>
<g>
</g>
<g>
</g>
<g>
</g>
<g>
</g>
<g>
</g>
<g>
</g>
<g>
</g>
<g>
</g>
<g>
</g>
<g>
</g>
</svg>
