<?xml version="1.0" encoding="iso-8859-1"?>
<!-- Generator: Adobe Illustrator 19.0.0, SVG Export Plug-In . SVG Version: 6.00 Build 0)  -->
<svg version="1.1" id="Layer_1" xmlns="http://www.w3.org/2000/svg" xmlns:xlink="http://www.w3.org/1999/xlink" x="0px" y="0px"
	 viewBox="0 0 512.001 512.001" style="enable-background:new 0 0 512.001 512.001;" xml:space="preserve">
<path style="fill:#F5F5F5;" d="M29.588,366.395l-0.036-220.713c-0.003-12.607,6.722-24.257,17.639-30.562L238.314,4.731
	c10.917-6.306,24.368-6.307,35.287-0.006L464.762,115.05c10.918,6.302,17.646,17.95,17.649,30.557l0.036,220.713
	c0.003,12.607-6.722,24.257-17.639,30.563L273.683,507.269c-10.917,6.306-24.368,6.307-35.287,0.006L47.237,396.951
	C36.318,390.649,29.591,379.001,29.588,366.395z"/>
<g>
	<path style="fill:#FF4B55;" d="M41.36,119.34v136.838l19.693,7.319l22.116-7.319V94.337l-35.98,20.782
		C45.083,116.336,43.137,117.756,41.36,119.34z"/>
	<polygon style="fill:#FF4B55;" points="96.774,86.481 256,86.481 259.749,53.556 256,19.56 212.639,19.56 	"/>
	<path style="fill:#FF4B55;" d="M108.019,108.788l84.039,87.312l56.023,58.205c0.029-0.021,0.057-0.046,0.086-0.067
		c0.06-0.054,0.12-0.109,0.182-0.156c0.444-0.337,7.647-6.784,7.648-6.828c0.156-3.671-0.084-10.216-0.049-11.177
		c0.003-0.06,0.011-0.116,0.014-0.176L215.18,193.53l-81.565-84.74h-25.597L108.019,108.788L108.019,108.788z"/>
</g>
<path style="fill:#41479B;" d="M482.411,145.607c-0.003-12.607-6.729-24.255-17.649-30.557L273.601,4.726
	C268.154,1.583,262.078,0.008,256,0.002V19.56v66.92v20.003H149.818L256,217.832v16.963c0,0.374-0.023,0.737-0.035,1.106l0,0
	c-0.001,0.06-0.011,0.117-0.014,0.176c-0.036,0.961-0.104,1.908-0.216,2.829c-0.018,0.142-0.05,0.276-0.069,0.419
	c-0.505,3.745-1.61,7.128-3.164,9.859c-0.021,0.039-0.042,0.077-0.065,0.115c-0.796,1.38-1.706,2.589-2.704,3.595
	c-0.03,0.03-0.061,0.059-0.091,0.089c-0.412,0.405-0.846,0.764-1.29,1.1c-0.062,0.047-0.122,0.102-0.182,0.156
	c-0.029,0.021-0.057,0.046-0.086,0.067l0,0c-1.662,1.198-3.502,1.874-5.444,1.874h-23.207L95.668,126.396v129.783h-5.872h-6.624
	H41.36h-7.799H29.57l0.019,110.216c0.003,12.607,6.729,24.255,17.649,30.557l191.161,110.325c10.918,6.302,24.37,6.299,35.286-0.006
	l191.125-110.39c10.917-6.305,17.64-17.955,17.639-30.562L482.411,145.607z"/>
<g>
	<path style="fill:#F5F5F5;" d="M140.262,293.931l5.955,19.657l19.08-7.6c1.628-0.649,3.108,1.208,2.114,2.651l-11.656,16.91
		l17.839,10.178c1.522,0.869,0.993,3.183-0.755,3.305l-20.488,1.431l3.164,20.293c0.27,1.731-1.869,2.762-3.054,1.471
		l-13.894-15.126l-13.894,15.126c-1.186,1.291-3.324,0.26-3.054-1.471l3.164-20.293l-20.489-1.431
		c-1.748-0.122-2.276-2.437-0.755-3.305l17.839-10.178l-11.656-16.91c-0.995-1.442,0.486-3.299,2.113-2.651l19.081,7.6l5.955-19.657
		C137.38,292.254,139.754,292.254,140.262,293.931z"/>
	<path style="fill:#F5F5F5;" d="M374.928,154.169l2.908,9.602l9.32-3.713c0.795-0.316,1.518,0.59,1.032,1.295l-5.693,8.26
		l8.714,4.972c0.744,0.425,0.485,1.555-0.369,1.615l-10.008,0.699l1.546,9.914c0.132,0.846-0.913,1.348-1.492,0.719l-6.787-7.389
		l-6.787,7.389c-0.579,0.63-1.623,0.127-1.492-0.719l1.546-9.914l-10.009-0.699c-0.854-0.06-1.112-1.19-0.369-1.615l8.714-4.972
		l-5.693-8.26c-0.486-0.705,0.237-1.612,1.032-1.295l9.32,3.713l2.909-9.602C373.521,153.351,374.681,153.351,374.928,154.169z"/>
	<path style="fill:#F5F5F5;" d="M310.072,227.872l2.908,9.602l9.32-3.713c0.795-0.316,1.518,0.59,1.032,1.295l-5.693,8.26
		l8.714,4.972c0.744,0.424,0.485,1.555-0.369,1.615l-10.008,0.699l1.546,9.914c0.131,0.846-0.913,1.348-1.492,0.719l-6.787-7.389
		l-6.787,7.389c-0.579,0.63-1.623,0.127-1.492-0.719l1.546-9.914l-10.008-0.699c-0.854-0.06-1.112-1.191-0.369-1.615l8.714-4.972
		l-5.693-8.26c-0.486-0.705,0.237-1.612,1.032-1.295l9.32,3.713l2.909-9.602C308.665,227.052,309.825,227.052,310.072,227.872z"/>
	<path style="fill:#F5F5F5;" d="M436.286,196.318l2.909,9.602l9.32-3.713c0.795-0.316,1.518,0.59,1.032,1.295l-5.693,8.26
		l8.714,4.972c0.744,0.424,0.485,1.555-0.369,1.615l-10.008,0.699l1.546,9.914c0.131,0.846-0.913,1.348-1.492,0.719l-6.787-7.389
		l-6.787,7.389c-0.579,0.63-1.623,0.127-1.492-0.719l1.546-9.914l-10.008-0.699c-0.854-0.06-1.112-1.191-0.369-1.615l8.714-4.972
		l-5.693-8.26c-0.486-0.705,0.237-1.612,1.032-1.295l9.32,3.713l2.909-9.602C434.879,195.498,436.039,195.498,436.286,196.318z"/>
	<path style="fill:#F5F5F5;" d="M374.928,322.532l2.908,9.602l9.32-3.713c0.795-0.317,1.518,0.59,1.032,1.295l-5.693,8.26
		l8.714,4.972c0.744,0.425,0.485,1.555-0.369,1.615l-10.008,0.699l1.546,9.914c0.132,0.846-0.913,1.348-1.492,0.719l-6.787-7.389
		l-6.787,7.389c-0.579,0.63-1.623,0.127-1.492-0.719l1.546-9.914l-10.009-0.699c-0.854-0.06-1.112-1.19-0.369-1.615l8.714-4.972
		l-5.693-8.26c-0.486-0.705,0.237-1.612,1.032-1.295l9.32,3.713l2.909-9.602C373.521,321.712,374.681,321.712,374.928,322.532z"/>
	<path style="fill:#F5F5F5;" d="M397.432,245.124l-2.336,7.002l-7.38,0.057c-0.956,0.007-1.352,1.227-0.584,1.795l5.937,4.385
		l-2.227,7.037c-0.289,0.911,0.749,1.665,1.527,1.108l6.005-4.291l6.005,4.291c0.777,0.556,1.814-0.197,1.526-1.108l-2.226-7.037
		l5.937-4.385c0.769-0.567,0.372-1.787-0.584-1.795l-7.38-0.057l-2.336-7.002C399.015,244.218,397.733,244.218,397.432,245.124z"/>
</g>
<g>
</g>
<g>
</g>
<g>
</g>
<g>
</g>
<g>
</g>
<g>
</g>
<g>
</g>
<g>
</g>
<g>
</g>
<g>
</g>
<g>
</g>
<g>
</g>
<g>
</g>
<g>
</g>
<g>
</g>
</svg>
