<?xml version="1.0" encoding="iso-8859-1"?>
<!-- Generator: Adobe Illustrator 19.0.0, SVG Export Plug-In . SVG Version: 6.00 Build 0)  -->
<svg version="1.1" id="Layer_1" xmlns="http://www.w3.org/2000/svg" xmlns:xlink="http://www.w3.org/1999/xlink" x="0px" y="0px"
	 viewBox="0 0 511.999 511.999" style="enable-background:new 0 0 511.999 511.999;" xml:space="preserve">
<g>
	<path style="fill:#4173CD;" d="M482.441,323.91l-0.005-27.164l-0.014-81.491l-0.005-27.164l-0.008-42.486
		c-0.001-3.105-0.422-6.147-1.202-9.07c-0.42-1.572-0.948-3.107-1.577-4.598c-2.568-6.091-6.814-11.419-12.362-15.28
		c-0.812-0.565-1.642-1.11-2.509-1.61l-23.71-13.684l-22.198-12.81l-17.87-10.313L332.643,38.8l-26.659-15.386l-19.995-11.539
		l-12.39-7.15c-10.918-6.302-24.37-6.3-35.287,0.006l-12.307,7.108L206.01,23.387l-26.659,15.398l0,0L111.024,78.25L81.077,95.546
		l-22.191,12.818l-11.697,6.756c-0.841,0.486-1.648,1.015-2.439,1.561c-3.392,2.349-6.296,5.254-8.638,8.538
		c-1.572,2.206-2.883,4.585-3.911,7.092c-1.715,4.179-2.652,8.706-2.651,13.371l0.007,42.41l0.005,27.164l0.014,81.478v0.014v0.005
		l0.005,27.159v2.072L258.5,337.225l223.943-11.241L482.441,323.91z"/>
	<polygon style="fill:#4173CD;" points="482.445,345.975 260.998,335.972 29.583,345.975 29.587,365.97 259.748,373.461 
		482.448,365.97 	"/>
	<path style="fill:#4173CD;" d="M44.727,395.34c0.812,0.565,1.642,1.11,2.509,1.611l23.377,13.491l22.198,12.811l18.204,10.506
		l94.999,54.826l19.995,11.539l12.39,7.151c10.918,6.301,24.37,6.298,35.287-0.006l12.307-7.108l19.995-11.548l26.659-15.397
		l57.588-33.261l10.742-6.205l27.325-15.782l22.191-12.818l14.319-8.27c0.841-0.486,1.648-1.013,2.439-1.562
		c3.671-2.543,6.774-5.732,9.206-9.355l-220.455-8.754l-220.46,8.754C37.965,389.593,41.06,392.79,44.727,395.34z"/>
</g>
<g>
	<polygon style="fill:#FFE15A;" points="482.441,325.981 29.581,325.981 29.583,345.975 482.445,345.975 	"/>
	<path style="fill:#FFE15A;" d="M482.448,365.97H29.587v0.417v0.006c0.001,7.092,2.143,13.87,5.953,19.57h440.914
		c3.838-5.717,5.995-12.524,5.993-19.646L482.448,365.97L482.448,365.97z"/>
</g>
<polygon style="fill:#FF4B55;" points="94.236,178.369 57.035,165.666 94.236,152.963 106.938,115.766 119.64,152.963 
	156.841,165.666 119.64,178.369 106.938,215.565 "/>
<path style="fill:#F5F5F5;" d="M106.938,122.451l11.001,32.214l32.214,11.001l-32.214,11.001l-11.001,32.214l-11.001-32.214
	l-32.214-11.001l32.214-11.001L106.938,122.451 M106.938,109.078l-4.09,11.975L92.534,151.26l-30.207,10.315l-11.975,4.089
	l11.975,4.089l30.207,10.315l10.315,30.207l4.09,11.975l4.089-11.975l10.315-30.207l30.207-10.315l11.975-4.089l-11.975-4.089
	l-30.207-10.315l-10.315-30.205L106.938,109.078L106.938,109.078z"/>
<g>
</g>
<g>
</g>
<g>
</g>
<g>
</g>
<g>
</g>
<g>
</g>
<g>
</g>
<g>
</g>
<g>
</g>
<g>
</g>
<g>
</g>
<g>
</g>
<g>
</g>
<g>
</g>
<g>
</g>
</svg>
