<?xml version="1.0" encoding="iso-8859-1"?>
<!-- Generator: Adobe Illustrator 19.0.0, SVG Export Plug-In . SVG Version: 6.00 Build 0)  -->
<svg version="1.1" id="Layer_1" xmlns="http://www.w3.org/2000/svg" xmlns:xlink="http://www.w3.org/1999/xlink" x="0px" y="0px"
	 viewBox="0 0 512.005 512.005" style="enable-background:new 0 0 512.005 512.005;" xml:space="preserve">
<path style="fill:#4173CD;" d="M482.451,366.319l-0.008-42.41l-0.005-27.164l-0.014-81.491l-0.005-27.164l-0.008-42.486
	c-0.001-3.105-0.422-6.147-1.202-9.07c-0.42-1.572-0.949-3.107-1.577-4.598c-2.568-6.092-6.814-11.419-12.362-15.28
	c-0.812-0.565-1.642-1.11-2.509-1.611l-23.71-13.684l-22.198-12.81l-17.87-10.313l-68.334-39.437l0,0L305.99,23.415l-19.995-11.539
	l-12.39-7.151c-10.918-6.302-24.37-6.3-35.287,0.006l-12.307,7.108l-19.995,11.548l-26.659,15.398v-0.001l-68.33,39.467
	L81.08,95.547l-22.191,12.818l-11.697,6.756c-0.841,0.486-1.648,1.015-2.439,1.562c-3.392,2.349-6.296,5.254-8.638,8.538
	c-1.572,2.206-2.883,4.585-3.911,7.092c-1.716,4.179-2.652,8.706-2.651,13.371l0.007,42.41l0.005,27.164l0.014,81.478v0.014v0.005
	l0.005,27.159l0.007,42.478v0.006c0.002,11.607,5.715,22.388,15.14,28.946c0.812,0.565,1.642,1.11,2.509,1.611l23.377,13.491
	l22.198,12.812l18.204,10.506l94.999,54.826l19.995,11.539l12.39,7.151c10.918,6.302,24.37,6.299,35.287-0.006l12.307-7.108
	l19.995-11.548l26.659-15.397l0,0l57.587-33.261l10.742-6.205l27.325-15.782l22.191-12.818l14.319-8.27
	c0.841-0.486,1.648-1.015,2.439-1.562C476.717,388.766,482.453,377.956,482.451,366.319L482.451,366.319L482.451,366.319z"/>
<g>
	<polygon style="fill:#FFE15A;" points="164.777,265.992 29.575,275.995 29.579,296.733 29.579,296.747 29.579,296.752 
		29.58,305.987 126.038,305.987 126.038,442.429 156.029,459.738 	"/>
	<polygon style="fill:#FFE15A;" points="29.569,236.006 164.777,245.997 156.029,52.258 126.038,69.581 126.038,206.015 
		29.564,206.015 29.565,215.256 	"/>
	<polygon style="fill:#FFE15A;" points="482.436,275.995 181.023,263.493 196.018,482.816 206.016,488.586 226.01,500.127 
		226.01,500.127 226.01,305.987 482.441,305.987 482.439,296.747 	"/>
	<polygon style="fill:#FFE15A;" points="206.016,23.388 196.018,29.162 186.021,248.497 482.429,236.006 482.426,215.256 
		482.424,206.015 226.01,206.015 226.01,11.839 226.01,11.839 	"/>
</g>
<polygon style="fill:#FF4B55;" points="196.018,29.162 179.357,38.785 179.357,38.785 156.029,52.258 156.029,236.006 
	29.569,236.006 29.575,275.995 156.029,275.995 156.029,459.738 196.018,482.816 196.018,275.995 482.436,275.995 482.429,236.006 
	196.018,236.006 "/>
<g>
</g>
<g>
</g>
<g>
</g>
<g>
</g>
<g>
</g>
<g>
</g>
<g>
</g>
<g>
</g>
<g>
</g>
<g>
</g>
<g>
</g>
<g>
</g>
<g>
</g>
<g>
</g>
<g>
</g>
</svg>
