<?xml version="1.0" encoding="iso-8859-1"?>
<!-- Generator: Adobe Illustrator 19.0.0, SVG Export Plug-In . SVG Version: 6.00 Build 0)  -->
<svg version="1.1" id="Layer_1" xmlns="http://www.w3.org/2000/svg" xmlns:xlink="http://www.w3.org/1999/xlink" x="0px" y="0px"
	 viewBox="0 0 512.005 512.005" style="enable-background:new 0 0 512.005 512.005;" xml:space="preserve">
<path style="fill:#FFE15A;" d="M482.451,366.319l-0.008-42.41l-0.005-27.164l-0.014-81.491l-0.005-27.164l-0.008-42.486
	c-0.001-3.105-0.422-6.147-1.202-9.07c-0.42-1.572-0.949-3.107-1.577-4.598c-2.568-6.092-6.814-11.419-12.362-15.28
	c-0.812-0.565-1.642-1.11-2.509-1.611l-23.71-13.684l-22.198-12.81l-17.87-10.313l-68.334-39.437l0,0L305.99,23.415l-19.995-11.539
	l-12.39-7.151c-10.918-6.302-24.37-6.3-35.287,0.006l-12.307,7.108l-19.995,11.548l-26.659,15.398v-0.001l-68.33,39.467
	L81.08,95.547l-22.191,12.818l-11.697,6.756c-0.841,0.486-1.648,1.015-2.439,1.562c-3.392,2.349-6.296,5.254-8.638,8.538
	c-1.572,2.206-2.883,4.585-3.911,7.092c-1.715,4.179-2.652,8.706-2.651,13.371l0.007,42.41l0.005,27.164l0.014,81.478v0.014v0.005
	l0.005,27.159l0.007,42.478v0.006c0.002,11.607,5.715,22.388,15.14,28.946c0.812,0.565,1.642,1.11,2.509,1.611l23.377,13.491
	l22.198,12.812l18.204,10.506l94.999,54.826l19.995,11.539l12.39,7.151c10.918,6.302,24.37,6.299,35.287-0.006l12.307-7.108
	l19.995-11.548l26.659-15.397l0,0l57.587-33.261l10.742-6.205l27.325-15.782l22.191-12.818l14.319-8.27
	c0.841-0.486,1.648-1.015,2.439-1.562C476.717,388.766,482.453,377.956,482.451,366.319L482.451,366.319L482.451,366.319z"/>
<g>
	<path style="fill:#41479B;" d="M111.027,78.251L81.08,95.547l-22.191,12.818l-11.697,6.756c-0.841,0.486-1.648,1.015-2.439,1.562
		c-3.392,2.349-6.296,5.254-8.638,8.538c-1.572,2.206-2.883,4.585-3.911,7.092c-1.715,4.179-2.652,8.706-2.651,13.371l0.007,42.41
		l0.005,27.164l0.014,81.478v0.014v0.005l0.005,27.159l0.007,42.478v0.006c0.002,11.607,5.715,22.388,15.14,28.946
		c0.812,0.565,1.642,1.11,2.509,1.611l23.377,13.491l22.198,12.812l18.204,10.506l48.344,27.901V50.333L111.027,78.251z"/>
	<path style="fill:#41479B;" d="M390.235,439.956l10.742-6.205l27.325-15.782l22.191-12.818l14.319-8.27
		c0.841-0.486,1.648-1.015,2.439-1.562c9.465-6.556,15.201-17.365,15.2-29.001l-0.008-42.41l-0.005-27.164l-0.014-81.491
		l-0.005-27.164l-0.008-42.486c-0.001-3.105-0.422-6.147-1.202-9.07c-0.42-1.572-0.949-3.107-1.577-4.597
		c-2.568-6.092-6.814-11.419-12.362-15.28c-0.812-0.565-1.642-1.11-2.509-1.611l-23.71-13.684l-22.198-12.81l-17.87-10.313
		l-48.34-27.897v411.328L390.235,439.956z"/>
</g>
<path style="fill:#464655;" d="M335.981,200.798c0,0-27.819,0-48.682,20.864h13.909c0,0-13.475,24.341-20.429,66.069l-14.344-2.342
	v-63.935l13.909,4.554l-24.341-59.984l-24.341,59.984l13.909-4.637v64.017l-14.344,2.342c-6.954-41.727-20.429-66.069-20.429-66.069
	h13.909c-20.864-20.864-48.683-20.864-48.683-20.864c34.773,41.727,34.773,111.275,34.773,111.275l34.773-5.795V353.8h20.864
	v-47.523l34.773,5.795C301.207,312.073,301.207,242.527,335.981,200.798z"/>
<g>
</g>
<g>
</g>
<g>
</g>
<g>
</g>
<g>
</g>
<g>
</g>
<g>
</g>
<g>
</g>
<g>
</g>
<g>
</g>
<g>
</g>
<g>
</g>
<g>
</g>
<g>
</g>
<g>
</g>
</svg>
