<?xml version="1.0" encoding="iso-8859-1"?>
<!-- Generator: Adobe Illustrator 19.0.0, SVG Export Plug-In . SVG Version: 6.00 Build 0)  -->
<svg version="1.1" id="Layer_1" xmlns="http://www.w3.org/2000/svg" xmlns:xlink="http://www.w3.org/1999/xlink" x="0px" y="0px"
	 viewBox="0 0 512 512" style="enable-background:new 0 0 512 512;" xml:space="preserve">
<path style="fill:#FFE15A;" d="M482.411,145.606c-0.003-12.607-6.729-24.255-17.649-30.557L332.437,38.68L273.602,4.725
	c-10.919-6.302-24.371-6.3-35.286,0.006l-58.751,33.933L47.19,115.118c-10.917,6.306-17.64,17.955-17.639,30.562l0.036,220.713
	C29.59,379,36.316,390.648,47.236,396.95l132.326,76.369l58.835,33.956c10.919,6.302,24.371,6.299,35.287-0.006l58.753-33.933
	l132.372-76.455c10.917-6.305,17.64-17.955,17.639-30.562L482.411,145.606z"/>
<path style="fill:#464655;" d="M47.19,115.118c-10.917,6.306-17.64,17.955-17.639,30.562l0.036,220.713
	C29.59,379,36.316,390.648,47.236,396.95l132.326,76.369V38.664L47.19,115.118z"/>
<path style="fill:#FF4B55;" d="M464.81,396.88c10.917-6.305,17.64-17.955,17.639-30.562l-0.036-220.713
	c-0.003-12.607-6.729-24.255-17.649-30.557L332.438,38.68v434.655L464.81,396.88z"/>
<g>
</g>
<g>
</g>
<g>
</g>
<g>
</g>
<g>
</g>
<g>
</g>
<g>
</g>
<g>
</g>
<g>
</g>
<g>
</g>
<g>
</g>
<g>
</g>
<g>
</g>
<g>
</g>
<g>
</g>
</svg>
