<?xml version="1.0" encoding="iso-8859-1"?>
<!-- Generator: Adobe Illustrator 19.0.0, SVG Export Plug-In . SVG Version: 6.00 Build 0)  -->
<svg version="1.1" id="Layer_1" xmlns="http://www.w3.org/2000/svg" xmlns:xlink="http://www.w3.org/1999/xlink" x="0px" y="0px"
	 viewBox="0 0 512.005 512.005" style="enable-background:new 0 0 512.005 512.005;" xml:space="preserve">
<path style="fill:#FF4B55;" d="M482.451,366.319l-0.008-42.41l-0.005-27.164l-0.014-81.491l-0.005-27.164l-0.008-42.486
	c0-3.105-0.422-6.147-1.202-9.07c-0.42-1.572-0.948-3.107-1.576-4.598c-2.568-6.092-6.814-11.419-12.362-15.28
	c-0.812-0.565-1.642-1.11-2.509-1.611l-23.71-13.684l-22.198-12.81l-17.87-10.313l-68.336-39.437l0,0l-26.659-15.386l-19.995-11.539
	l-12.39-7.151c-10.918-6.302-24.37-6.3-35.287,0.006l-12.307,7.108l-19.995,11.548l-26.659,15.398v-0.001l-68.33,39.467
	L81.079,95.547l-22.191,12.818l-11.697,6.756c-0.841,0.486-1.648,1.015-2.439,1.562c-3.392,2.349-6.296,5.254-8.638,8.538
	c-1.572,2.206-2.883,4.585-3.911,7.092c-1.716,4.179-2.652,8.706-2.651,13.371l0.007,42.41l0.005,27.164l0.014,81.478v0.014v0.005
	l0.005,27.159l0.007,42.478v0.006c0.003,11.607,5.715,22.388,15.14,28.946c0.812,0.565,1.642,1.11,2.509,1.611l23.377,13.491
	l22.198,12.812l18.204,10.506l94.999,54.826l19.995,11.539l12.39,7.151c10.918,6.302,24.37,6.299,35.287-0.006l12.307-7.108
	l19.995-11.548l26.659-15.397l0,0l57.587-33.261l10.742-6.205l27.325-15.782l22.191-12.818l14.319-8.27
	c0.841-0.486,1.648-1.015,2.439-1.562C476.716,388.766,482.452,377.956,482.451,366.319L482.451,366.319L482.451,366.319z"/>
<path style="fill:#73AF00;" d="M29.578,296.747v0.005l0.005,27.159l0.007,42.478v0.006c0.003,11.607,5.715,22.388,15.14,28.946
	c0.812,0.565,1.642,1.11,2.509,1.611l23.377,13.491l22.198,12.812l18.204,10.506l94.999,54.826l19.995,11.539l12.39,7.151
	c10.918,6.302,24.37,6.299,35.287-0.006l12.307-7.108l19.995-11.548l26.659-15.397l57.587-33.261l10.742-6.205l27.325-15.782
	l22.191-12.818l14.319-8.27c0.841-0.486,1.648-1.015,2.439-1.562c9.465-6.556,15.201-17.365,15.2-29.001l-0.008-42.41l-0.005-27.164
	l-0.006-40.746H29.571l0.006,40.733L29.578,296.747L29.578,296.747z"/>
<path style="fill:#FFE15A;" d="M259.248,198.677l13.16,39.458l41.593,0.322c3.223,0.025,4.559,4.138,1.967,6.051l-33.46,24.708
	l12.547,39.657c0.972,3.072-2.526,5.613-5.147,3.74l-33.838-24.187l-33.839,24.187c-2.622,1.873-6.12-0.667-5.147-3.74
	l12.547-39.657l-33.46-24.708c-2.592-1.914-1.256-6.026,1.967-6.051l41.592-0.322l13.16-39.458
	C253.906,195.62,258.23,195.62,259.248,198.677z"/>
<g>
</g>
<g>
</g>
<g>
</g>
<g>
</g>
<g>
</g>
<g>
</g>
<g>
</g>
<g>
</g>
<g>
</g>
<g>
</g>
<g>
</g>
<g>
</g>
<g>
</g>
<g>
</g>
<g>
</g>
</svg>
