<?xml version="1.0" encoding="iso-8859-1"?>
<!-- Generator: Adobe Illustrator 19.0.0, SVG Export Plug-In . SVG Version: 6.00 Build 0)  -->
<svg version="1.1" id="Layer_1" xmlns="http://www.w3.org/2000/svg" xmlns:xlink="http://www.w3.org/1999/xlink" x="0px" y="0px"
	 viewBox="0 0 512.004 512.004" style="enable-background:new 0 0 512.004 512.004;" xml:space="preserve">
<path style="fill:#F5F5F5;" d="M474.713,388.345c0.21-0.261,0.412-0.527,0.614-0.795c0.165-0.219,0.327-0.44,0.486-0.662
	c0.216-0.301,0.431-0.604,0.637-0.91c0.102-0.154,0.2-0.311,0.301-0.466c0.787-1.211,1.498-2.469,2.131-3.769
	c0.039-0.08,0.079-0.159,0.116-0.239c0.217-0.455,0.424-0.913,0.622-1.377c0.016-0.037,0.031-0.075,0.047-0.112
	c1.078-2.554,1.858-5.242,2.311-8.018c0.009-0.054,0.016-0.109,0.025-0.162c0.086-0.545,0.165-1.091,0.225-1.641
	c0.024-0.205,0.037-0.412,0.056-0.617c0.039-0.421,0.081-0.841,0.105-1.266c0.039-0.66,0.061-1.322,0.061-1.988l0,0l0,0
	l-0.008-42.41l-0.005-27.164l-0.014-81.491l-0.005-27.164l-0.008-42.486c0,0,0,0,0-0.001c0-0.696-0.027-1.388-0.07-2.078
	c-0.021-0.341-0.056-0.679-0.086-1.017c-0.03-0.316-0.057-0.634-0.095-0.948c-0.054-0.452-0.117-0.901-0.189-1.35
	c-0.026-0.164-0.054-0.326-0.081-0.489c-0.091-0.529-0.19-1.055-0.304-1.577l0,0c-0.042-0.192-0.091-0.384-0.135-0.576
	c-0.081-0.345-0.15-0.692-0.241-1.033c-0.42-1.572-0.949-3.107-1.577-4.597c-2.568-6.091-6.814-11.419-12.362-15.28
	c-0.812-0.565-1.642-1.11-2.509-1.61l-16.758-9.674l-4.174-2.409l0,0l-2.776-1.602l-22.198-12.81l-17.87-10.313l-68.336-39.443
	L305.99,23.415l-19.995-11.539l-12.39-7.151c-10.918-6.302-24.37-6.3-35.287,0.006l-12.307,7.108l-19.995,11.548l-26.659,15.398l0,0
	l-68.329,39.466L81.081,95.547l-12.809,7.398l0,0l0,0l-5.026,2.903l-4.355,2.516l-11.697,6.756
	c-0.841,0.486-1.648,1.015-2.439,1.561c-3.392,2.349-6.296,5.254-8.638,8.538c-1.572,2.206-2.883,4.585-3.911,7.092
	c-0.371,0.904-0.697,1.826-0.993,2.759c-0.011,0.034-0.022,0.067-0.034,0.102c-0.482,1.536-0.86,3.112-1.13,4.715
	c-0.004,0.021-0.007,0.042-0.011,0.064c-0.095,0.571-0.176,1.146-0.244,1.725c-0.009,0.069-0.019,0.137-0.026,0.207
	c-0.057,0.529-0.102,1.058-0.136,1.592c-0.007,0.109-0.019,0.217-0.025,0.327c-0.034,0.624-0.054,1.251-0.054,1.879l0,0l0,0
	l0.007,42.41l0.005,27.164l0.014,81.478v0.014l0,0v0.005l0,0l0.005,27.159l0.007,42.478v0.006l0,0c0,0.665,0.022,1.326,0.061,1.984
	c0.024,0.422,0.066,0.841,0.105,1.26c0.02,0.206,0.034,0.414,0.057,0.62c0.061,0.55,0.139,1.095,0.225,1.638
	c0.009,0.054,0.016,0.109,0.025,0.164c0.451,2.768,1.228,5.448,2.303,7.998c0.016,0.037,0.031,0.076,0.047,0.114
	c0.196,0.462,0.402,0.92,0.619,1.373c0.039,0.08,0.079,0.16,0.117,0.24c0.63,1.296,1.338,2.552,2.122,3.761
	c0.1,0.154,0.196,0.31,0.299,0.464c0.205,0.306,0.419,0.607,0.634,0.908c0.159,0.222,0.321,0.444,0.485,0.662
	c0.2,0.266,0.402,0.531,0.61,0.792c0.217,0.272,0.441,0.539,0.667,0.805c0.175,0.206,0.345,0.416,0.525,0.62
	c0.399,0.449,0.81,0.887,1.231,1.317c0.152,0.155,0.31,0.302,0.465,0.455c0.311,0.305,0.627,0.607,0.95,0.901
	c0.172,0.157,0.347,0.311,0.524,0.465c0.336,0.294,0.679,0.581,1.027,0.862c0.159,0.129,0.315,0.259,0.476,0.384
	c0.511,0.399,1.03,0.789,1.565,1.161c0.812,0.565,1.642,1.11,2.509,1.611l13.831,7.982l9.546,5.51l22.198,12.812l18.204,10.506
	l94.999,54.826l19.995,11.539l12.39,7.151c10.918,6.301,24.37,6.298,35.287-0.006l12.307-7.108l19.995-11.548l26.659-15.397
	l57.588-33.261l10.742-6.205l27.325-15.782l18.23-10.53l3.961-2.288l14.319-8.27c0.841-0.486,1.648-1.013,2.439-1.562
	c0.537-0.372,1.058-0.761,1.571-1.16c0.162-0.126,0.32-0.256,0.48-0.386c0.35-0.281,0.694-0.569,1.031-0.862
	c0.176-0.154,0.352-0.309,0.526-0.465c0.325-0.295,0.642-0.597,0.955-0.904c0.155-0.151,0.314-0.3,0.466-0.454
	c0.424-0.43,0.836-0.868,1.236-1.318c0.182-0.205,0.355-0.417,0.532-0.626C474.273,388.881,474.497,388.616,474.713,388.345z"/>
<g>
	<path style="fill:#FF4B55;" d="M256.068,165.724c22.44,0,42.921,8.243,58.705,21.799l129.058-84.556l0,0l-2.776-1.602
		l-22.198-12.81l-17.87-10.313l-68.338-39.441L305.99,23.415l-19.995-11.539l-12.39-7.151c-10.918-6.302-24.37-6.3-35.287,0.006
		l-12.307,7.108l-19.995,11.548l-26.659,15.398l0,0l-68.329,39.466L81.081,95.547l-12.809,7.398l0,0l129.092,84.577
		C213.148,173.967,233.629,165.724,256.068,165.724z"/>
	<path style="fill:#FF4B55;" d="M314.774,324.365c-0.025,0.021-0.052,0.042-0.077,0.064c-15.774,13.518-36.224,21.735-58.628,21.735
		s-42.853-8.218-58.628-21.735c-0.025-0.021-0.053-0.041-0.077-0.064L68.151,409.02l-3.198-1.846l5.663,3.269l22.198,12.812
		l18.204,10.506l94.999,54.826l19.995,11.539l12.39,7.151c10.918,6.301,24.37,6.298,35.287-0.006l12.307-7.108l19.995-11.548
		l26.659-15.397l57.588-33.261l10.742-6.205l27.325-15.782l17.564-10.145l-1.969,1.137L314.774,324.365z"/>
</g>
<g>
	<path style="fill:#73AF00;" d="M482.445,323.911l-0.005-27.164l-0.014-81.491l-0.005-27.164l-0.008-42.486c0,0,0,0,0-0.001
		c0-0.696-0.027-1.388-0.07-2.078c-0.021-0.341-0.056-0.679-0.086-1.017c-0.03-0.316-0.057-0.634-0.095-0.949
		c-0.054-0.452-0.117-0.901-0.189-1.35c-0.026-0.164-0.054-0.326-0.081-0.489c-0.091-0.529-0.19-1.055-0.304-1.577l0,0
		l-139.282,91.256c2.581,8.393,3.983,17.304,3.983,26.543c0,9.239-1.402,18.15-3.983,26.543l139.328,91.284
		c0.127-0.589,0.246-1.178,0.344-1.775c0.009-0.054,0.016-0.109,0.025-0.162c0.086-0.545,0.165-1.091,0.225-1.641
		c0.024-0.205,0.038-0.412,0.056-0.617c0.039-0.421,0.081-0.841,0.105-1.266c0.039-0.66,0.061-1.322,0.061-1.988L482.445,323.911z"
		/>
	<path style="fill:#73AF00;" d="M165.849,255.943c0-9.239,1.402-18.15,3.983-26.543L30.42,138.062
		c-0.135,0.605-0.267,1.211-0.371,1.824c-0.004,0.021-0.007,0.042-0.011,0.064c-0.095,0.571-0.176,1.146-0.244,1.725
		c-0.009,0.069-0.019,0.137-0.026,0.207c-0.057,0.529-0.102,1.058-0.136,1.592c-0.007,0.109-0.019,0.217-0.025,0.327
		c-0.034,0.624-0.054,1.251-0.054,1.879l0.007,42.41l0.005,27.164l0.014,81.478v0.014v0.005l0.005,27.159l0.007,42.478v0.006
		c0,0.665,0.022,1.326,0.061,1.984c0.024,0.422,0.066,0.841,0.105,1.26c0.02,0.206,0.034,0.414,0.057,0.62
		c0.061,0.55,0.139,1.095,0.225,1.638c0.009,0.054,0.016,0.109,0.025,0.164c0.097,0.595,0.216,1.185,0.344,1.772l139.423-91.346
		C167.251,274.093,165.849,265.182,165.849,255.943z"/>
</g>
<polygon style="fill:#FF4B55;" points="249.573,227.094 235.981,227.446 243.078,215.846 235.981,204.245 249.573,204.597 
	256.068,192.644 262.564,204.597 276.156,204.245 269.059,215.846 276.156,227.446 262.564,227.094 256.068,239.047 "/>
<path style="fill:#73AF00;" d="M256.068,195.797l5.613,10.326l11.749-0.301l-6.136,10.025l6.136,10.025l-11.749-0.301l-5.613,10.326
	l-5.613-10.326l-11.749,0.301l6.136-10.025l-6.136-10.025l11.749,0.301L256.068,195.797 M256.068,189.502l-2.642,4.86l-4.735,8.709
	l-9.91-0.255l-5.53-0.142l2.888,4.719l5.175,8.454l-5.175,8.454l-2.888,4.719l5.53-0.142l9.91-0.255l4.735,8.709l2.642,4.86
	l2.642-4.86l4.735-8.709l9.909,0.255l5.53,0.142l-2.888-4.719l-5.175-8.454l5.175-8.454l2.888-4.719l-5.53,0.142l-9.909,0.255
	l-4.735-8.709L256.068,189.502L256.068,189.502z"/>
<polygon style="fill:#FF4B55;" points="212.242,293.536 198.65,293.888 205.747,282.289 198.65,270.688 212.242,271.04 
	218.738,259.087 225.233,271.04 238.825,270.688 231.728,282.289 238.825,293.888 225.233,293.536 218.738,305.489 "/>
<path style="fill:#73AF00;" d="M218.738,262.239l5.613,10.326l11.749-0.301l-6.136,10.025l6.136,10.025l-11.749-0.301l-5.613,10.326
	l-5.613-10.326l-11.749,0.301l6.136-10.025l-6.136-10.025l11.749,0.301L218.738,262.239 M218.738,255.943l-2.642,4.86l-4.735,8.709
	l-9.909-0.255l-5.53-0.142l2.888,4.719l5.175,8.454l-5.175,8.454l-2.888,4.719l5.53-0.142l9.909-0.255l4.735,8.709l2.642,4.859
	l2.642-4.859l4.735-8.709l9.91,0.255l5.53,0.142l-2.888-4.719l-5.175-8.454l5.175-8.454l2.888-4.719l-5.53,0.142l-9.91,0.255
	l-4.735-8.709L218.738,255.943L218.738,255.943z"/>
<polygon style="fill:#FF4B55;" points="286.904,293.536 273.312,293.888 280.409,282.289 273.312,270.688 286.904,271.04 
	293.399,259.087 299.895,271.04 313.487,270.688 306.39,282.289 313.487,293.888 299.895,293.536 293.399,305.489 "/>
<path style="fill:#73AF00;" d="M293.399,262.239l5.613,10.326l11.749-0.301l-6.136,10.025l6.136,10.025l-11.749-0.301l-5.613,10.326
	l-5.613-10.326l-11.749,0.301l6.136-10.025l-6.136-10.025l11.749,0.301L293.399,262.239 M293.399,255.943l-2.642,4.86l-4.735,8.709
	l-9.91-0.255l-5.53-0.142l2.888,4.719l5.175,8.454l-5.175,8.454l-2.888,4.719l5.53-0.142l9.91-0.255l4.735,8.709l2.642,4.859
	l2.642-4.859l4.735-8.709l9.909,0.255l5.53,0.142l-2.888-4.719l-5.175-8.454l5.175-8.454l2.888-4.719l-5.53,0.142l-9.909,0.255
	l-4.735-8.709L293.399,255.943L293.399,255.943z"/>
<g>
</g>
<g>
</g>
<g>
</g>
<g>
</g>
<g>
</g>
<g>
</g>
<g>
</g>
<g>
</g>
<g>
</g>
<g>
</g>
<g>
</g>
<g>
</g>
<g>
</g>
<g>
</g>
<g>
</g>
</svg>
