<?xml version="1.0" encoding="iso-8859-1"?>
<!-- Generator: Adobe Illustrator 19.0.0, SVG Export Plug-In . SVG Version: 6.00 Build 0)  -->
<svg version="1.1" id="Layer_1" xmlns="http://www.w3.org/2000/svg" xmlns:xlink="http://www.w3.org/1999/xlink" x="0px" y="0px"
	 viewBox="0 0 512.001 512.001" style="enable-background:new 0 0 512.001 512.001;" xml:space="preserve">
<path style="fill:#F5F5F5;" d="M29.588,366.395l-0.036-220.713c-0.003-12.607,6.722-24.257,17.639-30.562L238.314,4.731
	c10.917-6.306,24.368-6.307,35.287-0.006L464.762,115.05c10.918,6.302,17.646,17.95,17.649,30.557l0.036,220.713
	c0.003,12.607-6.722,24.257-17.639,30.563L273.683,507.269c-10.917,6.306-24.368,6.307-35.287,0.006L47.237,396.951
	C36.318,390.649,29.591,379.001,29.588,366.395z"/>
<g>
	<path style="fill:#FF4B55;" d="M41.36,119.34v136.838l19.693,7.319l22.116-7.319V94.337l-35.98,20.782
		C45.083,116.336,43.137,117.756,41.36,119.34z"/>
	<polygon style="fill:#FF4B55;" points="96.774,86.481 256,86.481 259.749,53.556 256,19.56 212.639,19.56 	"/>
	<path style="fill:#FF4B55;" d="M108.019,108.788l84.039,87.312l56.023,58.205c0.029-0.021,0.057-0.046,0.086-0.067
		c0.06-0.054,0.12-0.109,0.182-0.156c0.444-0.337,7.647-6.784,7.648-6.828c0.156-3.671-0.084-10.216-0.049-11.177
		c0.003-0.06,0.011-0.116,0.014-0.176L215.18,193.53l-81.565-84.74h-25.597L108.019,108.788L108.019,108.788z"/>
	<path style="fill:#FF4B55;" d="M482.411,145.607c-0.003-12.607-6.729-24.255-17.649-30.557L273.601,4.726
		C268.154,1.583,262.078,0.008,256,0.002V19.56v66.92v20.003l-14.996,48.288L256,217.831v16.963c0,0.374-0.023,0.737-0.035,1.106
		l0,0c-0.001,0.06-0.011,0.117-0.014,0.176c-0.036,0.961-0.104,1.908-0.216,2.829c-0.018,0.142-0.05,0.276-0.069,0.419
		c-0.505,3.745-1.61,7.128-3.164,9.859c-0.021,0.039-0.042,0.077-0.065,0.115c-0.796,1.38-1.706,2.589-2.704,3.595
		c-0.03,0.03-0.061,0.059-0.091,0.089c-0.411,0.405-0.846,0.764-1.29,1.1c-0.062,0.047-0.122,0.102-0.182,0.156
		c-0.029,0.021-0.057,0.046-0.086,0.067l0,0c-1.662,1.198-3.502,1.874-5.444,1.874h-23.207l-68.402-10.182L95.67,256.179h-5.872
		h-6.624H41.36h-7.799H29.57l0.019,110.216c0.003,12.607,6.729,24.255,17.649,30.557l191.161,110.325
		c10.918,6.302,24.37,6.299,35.286-0.006l191.125-110.39c10.917-6.305,17.64-17.955,17.639-30.562L482.411,145.607z"/>
</g>
<g>
	<path style="fill:#41479B;" d="M149.818,106.484H256v111.348C256,217.831,149.484,106.816,149.818,106.484z"/>
	<polygon style="fill:#41479B;" points="95.668,126.396 95.668,256.179 219.431,256.179 	"/>
</g>
<path style="fill:#F5F5F5;" d="M310.806,166.911c-1.972,0-3.57,1.598-3.57,3.57v132.106c0,10.711,7.141,46.416,74.979,57.127
	c67.839-10.711,74.979-46.416,74.979-57.127V170.481c0-1.972-1.598-3.57-3.57-3.57H310.806z"/>
<path style="fill:#73AF00;" d="M382.215,359.715c56.629-8.941,70.953-35.289,74.143-49.986H308.071
	C311.262,324.426,325.585,350.774,382.215,359.715z"/>
<path style="fill:#82AFFF;" d="M428.631,241.89c0,0,3.57-3.57,0-10.712l-46.416-2.076l-46.416,2.076c-3.57,7.141,0,10.712,0,10.712
	c-3.57,3.57-3.57,7.141-3.57,7.141h7.141l7.735,12.794l35.109,19.341l35.109-19.341l7.737-12.794h7.141
	C432.201,249.031,432.201,245.46,428.631,241.89z"/>
<path style="fill:#F5F5F5;" d="M417.324,261.826c0,0-2.232-4.91-8.183-4.314c0,0-3.273-4.314-8.778-3.124
	c0,0-6.397-3.719-10.116,3.124c0,0-11.828-1.202-12.459,7.804c0,0,18.41,27.751,18.857,28.049
	c0.446,0.297,22.018,0.149,22.018,0.149l9.968-10.998l-9.82-14.144L417.324,261.826z"/>
<path style="fill:#F0C850;" d="M382.661,270.602c0,0-15.617-25.513-17.853-27.671c-2.157-2.083-6.397-4.016-10.712-0.446
	c0,0-12.943-1.041-11.157,8.778l3.719,14.877c0,0-3.273,10.265-4.76,11.307c-1.488,1.041-6.992,3.868-6.992,3.868l3.124,12.348
	l41.655-2.083L382.661,270.602z"/>
<path style="fill:#965032;" d="M400.662,259.445l-0.049,0.021l-1.152-2.719c-0.092-0.22-0.27-0.394-0.491-0.481
	c-0.221-0.087-0.467-0.084-0.69,0.014l-7.749,3.417l-9.216-15.088c0.409-0.351,0.586-0.925,0.394-1.46
	c-0.249-0.697-1.016-1.06-1.712-0.812l-2.054,0.735l-1.39-4.106c-0.159-0.467-0.662-0.711-1.131-0.561
	c-0.467,0.16-0.719,0.666-0.56,1.133l1.4,4.138l-2.196,0.786c-0.696,0.251-1.058,1.018-0.809,1.712
	c0.195,0.547,0.711,0.89,1.261,0.89c0.078,0,0.156-0.026,0.235-0.04l3.038,18.294l-1.959,0.863c-0.427,0.189-0.639,0.676-0.48,1.116
	l1.111,3.094c0.027,0.521,0.025,1.4-0.152,2.512l-12.464-21.38c0.524-0.327,0.785-0.963,0.569-1.566
	c-0.251-0.697-1.011-1.063-1.712-0.812l-2.054,0.735l-1.39-4.106c-0.157-0.467-0.665-0.719-1.131-0.561
	c-0.467,0.16-0.719,0.666-0.56,1.133l1.4,4.138l-2.196,0.786c-0.696,0.251-1.058,1.018-0.809,1.712
	c0.179,0.5,0.634,0.794,1.127,0.847l5.41,33.764c-0.699,0.294-1.383,0.591-2.153,0.865c0,0-2.529,12.05-0.595,12.645
	s21.869,6.694,21.869,6.694s27.522-13.091,28.117-13.389s1.786-8.926,1.786-8.926L400.662,259.445z M398.974,260.17l-2.304,0.99
	l-0.764-1.883l2.264-0.998L398.974,260.17z M385.044,264.067l1.894-0.835l0.729,1.795l-2.006,0.862L385.044,264.067z
	 M384.014,266.595l-2.241,0.962l-0.705-1.737l2.336-1.03L384.014,266.595z M389.305,264.323l-0.735-1.812l2.023-0.892l0.742,1.832
	L389.305,264.323z M392.227,260.899l2.046-0.902l0.757,1.867l-2.054,0.882L392.227,260.899z M379.65,245.308l9.232,15.115
	l-4.414,1.946l-5.668-16.757L379.65,245.308z M376.465,246.449l0.655-0.235l5.71,16.879l-3.355,1.48L376.465,246.449z
	 M379.437,266.538l0.699,1.722l-2.203,0.946l-0.621-1.731L379.437,266.538z M362.164,252.182l13.52,23.192
	c-0.681,1.967-1.964,4.25-4.216,6.492l-9.962-29.448L362.164,252.182z M358.827,253.377l0.999-0.357l10.202,30.16
	c-1.547,1.283-3.472,2.523-5.84,3.659L358.827,253.377z"/>
<path style="fill:#FF4B55;" d="M431.866,225.767c-0.948-1.506-3.991-0.861-3.991-0.861s-0.869-1.736-3.164-1.904
	c-2.296-0.167-2.717,1.877-2.717,1.877s-0.43-0.32-2.959-0.245c-2.529,0.075-2.008,4.24-2.008,4.24s-0.967,0-4.24-1.041
	c-3.273-1.042-5.43-0.297-5.43-0.297c-0.149-1.711-1.041-2.975-1.041-2.975c-2.752,1.116-4.91-0.149-5.43-1.116
	c-0.521-0.967,0.819-2.454,0.819-3.719s-1.748-1.208-2.362-2.324c-0.614-1.116,0-1.73,1.618-2.454
	c1.618-0.725,3.124-3.403,2.119-5.578s-3.905-1.786-3.905-1.786c1.005,0.167,1.841,2.064,0.224,2.454
	c-1.618,0.391-3.068-5.523-3.068-5.523c3.738,2.511,6.472,1.005,7.253-1.172c0.781-2.176-1.283-3.681-1.283-3.681
	c-1.618,2.622-4.408,0.335-2.9-1.338c1.506-1.673,1.636-4.481,1.636-4.481c-3.348,1.637-5.43-0.446-5.43-0.446
	c4.389-3.049,3.124-7.364,3.124-7.364c-1.636-0.744-5.132-0.149-5.132-0.149c0.744-1.488,0.595-4.166,0.595-4.166
	c-1.859-0.297-3.943,0.892-3.943,0.892c0.595-2.082-0.224-5.727-0.224-5.727c-1.338,0.224-3.868,0.967-3.868,0.967
	c-1.041-2.381-3.943-3.794-3.943-3.794s-2.9,1.413-3.943,3.794c0,0-2.529-0.744-3.868-0.967c0,0-0.819,3.645-0.224,5.727
	c0,0-2.083-1.19-3.943-0.892c0,0-0.149,2.678,0.595,4.166c0,0-3.497-0.595-5.132,0.149c0,0-1.265,4.314,3.124,7.364
	c0,0-2.083,2.083-5.43,0.446c0,0,0.13,2.808,1.636,4.481c1.506,1.673-1.283,3.961-2.9,1.338c0,0-2.064,1.506-1.283,3.681
	s3.515,3.683,7.253,1.172c0,0-1.451,5.913-3.068,5.523c-1.618-0.391-0.781-2.287,0.224-2.454c0,0-2.9-0.391-3.905,1.786
	c-1.005,2.176,0.502,4.854,2.119,5.578c1.618,0.725,2.232,1.338,1.618,2.454c-0.614,1.116-2.362,1.06-2.362,2.324
	c0,1.265,1.34,2.752,0.819,3.719s-2.678,2.232-5.43,1.116c0,0-0.892,1.265-1.041,2.975c0,0-2.157-0.744-5.43,0.297
	c-3.273,1.041-4.24,1.041-4.24,1.041s0.521-4.165-2.008-4.24c-2.529-0.075-2.959,0.245-2.959,0.245s-0.42-2.044-2.717-1.877
	c-2.296,0.169-3.164,1.904-3.164,1.904s-3.043-0.645-3.991,0.861s-1.06,3.794,0.725,4.742c1.786,0.948,6.527,4.91,6.527,4.91
	l6.694,2.9l23.431-10.376l12.273,3.235l12.273-3.235l23.431,10.376l6.694-2.9c0,0,4.742-3.961,6.527-4.91
	C432.927,229.561,432.815,227.274,431.866,225.767z"/>
<path style="fill:#F5F5F5;" d="M374.906,187.955c0,0,0.252,3.15,4.915,2.311C379.82,190.266,379.694,186.989,374.906,187.955z"/>
<path style="fill:#FF4B55;" d="M357.655,312.407c0,0-3.347-0.111-6.806,2.454c-3.459,2.567-4.984,0.744-8.443,0.744
	c-3.459,0-4.278,3.608-4.278,3.608s-6.694,1.673-4.016,6.583c1.693,3.105,4.05,3.039,5.558,2.573
	c-0.076,2.086,0.399,4.379,2.809,4.791c4.575,0.781,6.583-1.673,5.578-5.467c0,0,0.557,3.905,3.57,3.794s5.021-1.786,4.686-5.802
	s5.021-1.562,9.15-7.475L357.655,312.407z"/>
<g>
	<path style="fill:#82AFFF;" d="M338.092,326.763c0,0-2.083,2.752-1.488,5.43c0,0-4.463-1.413-2.083-8.034
		C334.522,324.16,337.571,323.341,338.092,326.763z"/>
	<path style="fill:#82AFFF;" d="M345.103,330.371c0,0-1.227,3.459,0.446,6.527c0,0-5.578-0.167-4.463-7.029
		C341.086,329.868,342.871,328.028,345.103,330.371z"/>
	<path style="fill:#82AFFF;" d="M350.681,330.036c0,0,1.005,2.9,0,5.69c0,0,4.575-0.279,3.794-6.862
		C354.475,328.864,352.021,327.971,350.681,330.036z"/>
</g>
<g>
	<path style="fill:#FF4B55;" d="M346.61,263.313c-0.422-3.44-21.98-5.467-20.642,12.645c0,0-2.392-0.044-3.568,2.183
		c-1.176,2.226-3.696,1.681-4.453,0.882c0,0,0.169,4.033,5.166,3.864c0,0-1.582,1.246-1.358,3.067
		c0.224,1.821,1.54,4.116,1.456,5.685c-0.084,1.568-1.568,3.753-1.568,3.753s3.836-1.316,4.089-4.06
		c0.252-2.744-0.364-5.041,0.392-6.441c0,0-0.364,1.932,1.345,4.369c1.708,2.437,1.792,5.405,1.092,7.253
		c0,0,4.256-2.101,3.444-6.161s-1.68-3.696-1.288-5.965c0,0,4.425,4.509,3.669,8.345c0,0,1.415-1.695,1.288-4.886
		c-0.126-3.193-2.342-5.34-2.342-5.34S348.059,275.14,346.61,263.313z"/>
	<path style="fill:#FF4B55;" d="M406.776,312.407c0,0,3.348-0.111,6.807,2.454c3.459,2.567,4.984,0.744,8.443,0.744
		s4.278,3.608,4.278,3.608s6.694,1.673,4.016,6.583c-1.693,3.105-4.05,3.039-5.558,2.573c0.076,2.086-0.399,4.379-2.809,4.791
		c-4.575,0.781-6.583-1.673-5.578-5.467c0,0-0.557,3.905-3.57,3.794s-5.021-1.786-4.686-5.802s-5.021-1.562-9.149-7.475
		L406.776,312.407z"/>
</g>
<g>
	<path style="fill:#82AFFF;" d="M426.338,326.763c0,0,2.083,2.752,1.487,5.43c0,0,4.463-1.413,2.083-8.034
		C429.908,324.16,426.859,323.341,426.338,326.763z"/>
	<path style="fill:#82AFFF;" d="M419.327,330.371c0,0,1.227,3.459-0.446,6.527c0,0,5.578-0.167,4.464-7.029
		C423.345,329.868,421.559,328.028,419.327,330.371z"/>
	<path style="fill:#82AFFF;" d="M413.749,330.036c0,0-1.005,2.9,0,5.69c0,0-4.575-0.279-3.794-6.862
		C409.955,328.864,412.409,327.971,413.749,330.036z"/>
</g>
<path style="fill:#FF4B55;" d="M417.821,263.313c0.422-3.44,21.98-5.467,20.642,12.645c0,0,2.392-0.044,3.568,2.183
	c1.176,2.226,3.696,1.681,4.453,0.882c0,0-0.167,4.033-5.166,3.864c0,0,1.582,1.246,1.358,3.067
	c-0.224,1.821-1.54,4.116-1.456,5.685c0.084,1.568,1.568,3.753,1.568,3.753s-3.836-1.316-4.089-4.06
	c-0.252-2.744,0.364-5.041-0.392-6.441c0,0,0.364,1.932-1.345,4.369c-1.708,2.437-1.792,5.405-1.092,7.253
	c0,0-4.256-2.101-3.444-6.161s1.681-3.696,1.288-5.965c0,0-4.425,4.509-3.669,8.345c0,0-1.415-1.695-1.288-4.886
	c0.126-3.193,2.342-5.34,2.342-5.34S416.37,275.14,417.821,263.313z"/>
<path style="fill:#FFE15A;" d="M426.64,232.441c-0.82-0.551-1.928-0.321-2.474,0.506c-1.13,1.705-2.617,2.702-4.546,3.048
	c-6.388,1.108-15.598-5.181-18.272-7.148c-3.876-2.849-8.665-3.344-11.844-1.386c-1.268,0.419-5.146,1.642-7.287,1.642
	s-6.018-1.223-7.287-1.642c-3.179-1.958-7.968-1.463-11.844,1.386c-2.674,1.967-11.884,8.256-18.272,7.148
	c-1.929-0.345-3.417-1.342-4.546-3.048c-0.546-0.826-1.655-1.057-2.474-0.506c-0.824,0.544-1.047,1.653-0.504,2.472
	c1.673,2.532,3.994,4.076,6.898,4.595c0.734,0.132,1.483,0.191,2.247,0.191c6.813,0,14.522-4.86,18.764-7.974
	c3.154-2.316,6.689-2.312,8.281-0.97c0.402,0.341,0.86,0.879,0.75,1.51c-0.059,0.345-0.286,0.656-0.665,0.917
	c0.091-0.547-0.075-1.13-0.497-1.555c-0.697-0.697-1.827-0.697-2.524,0c-0.908,0.904-1.007,2.371-0.242,3.564
	c0.769,1.196,2.426,2.071,4.394,1.342c1-0.372,1.8-1.085,2.353-1.957c2.713-0.79,5.17-0.795,5.17-0.795s2.457,0.005,5.17,0.795
	c0.554,0.872,1.353,1.585,2.353,1.957c1.968,0.729,3.624-0.146,4.394-1.342c0.765-1.192,0.666-2.661-0.242-3.564
	c-0.697-0.697-1.827-0.697-2.524,0c-0.422,0.425-0.587,1.007-0.497,1.555c-0.379-0.261-0.605-0.572-0.665-0.917
	c-0.11-0.631,0.347-1.168,0.75-1.51c1.592-1.342,5.127-1.346,8.281,0.97c4.241,3.114,11.95,7.974,18.764,7.974
	c0.764,0,1.513-0.059,2.247-0.191c2.904-0.52,5.225-2.064,6.898-4.595C427.687,234.094,427.462,232.985,426.64,232.441z"/>
<g>
	<path style="fill:#82AFFF;" d="M336.724,234.413c0,0-0.294-3.99-0.42-5.292c-0.126-1.302-2.562-2.268-3.487-0.966
		S331.641,231.852,336.724,234.413z"/>
	<path style="fill:#82AFFF;" d="M337.585,233.131c0,0,3.515-2.845,3.068-4.351c-0.446-1.506-1.395-2.287-2.567-1.841
		C336.915,227.385,336.357,230.118,337.585,233.131z"/>
	<path style="fill:#82AFFF;" d="M344.446,230.899c0.505-0.505,0.67-2.957-0.725-3.235c-1.395-0.279-3.235,1.897-3.124,4.575
		C340.598,232.239,343.498,231.848,344.446,230.899z"/>
	<path style="fill:#82AFFF;" d="M342.996,232.295c-1.618,0.519-3.18,1.897-3.18,1.897s2.902,2.119,4.91,1.451
		C346.733,234.972,345.785,231.402,342.996,232.295z"/>
</g>
<path style="fill:#F5F5F5;" d="M389.524,187.955c0,0-0.252,3.15-4.915,2.311C384.609,190.266,384.735,186.989,389.524,187.955z"/>
<g>
	<path style="fill:#82AFFF;" d="M427.707,234.413c0,0,0.294-3.99,0.42-5.292c0.126-1.302,2.562-2.268,3.487-0.966
		C432.537,229.457,432.79,231.852,427.707,234.413z"/>
	<path style="fill:#82AFFF;" d="M426.846,233.131c0,0-3.515-2.845-3.068-4.351c0.446-1.506,1.395-2.287,2.567-1.841
		C427.515,227.385,428.073,230.118,426.846,233.131z"/>
	<path style="fill:#82AFFF;" d="M419.983,230.899c-0.505-0.505-0.67-2.957,0.725-3.235c1.395-0.279,3.235,1.897,3.124,4.575
		C423.833,232.239,420.932,231.848,419.983,230.899z"/>
	<path style="fill:#82AFFF;" d="M421.434,232.295c1.618,0.519,3.18,1.897,3.18,1.897s-2.9,2.119-4.909,1.451
		C417.696,234.972,418.645,231.402,421.434,232.295z"/>
</g>
<g>
	<path style="fill:#464655;" d="M380.368,195.38l1.416,1.416c0.237,0.237,0.624,0.237,0.861,0l1.416-1.416
		c0.384-0.384,0.112-1.04-0.431-1.04h-2.832C380.257,194.341,379.984,194.997,380.368,195.38z"/>
	<path style="fill:#464655;" d="M379.628,201.186c-1.05,0-1.958-0.376-2.576-1.071c-0.639-0.722-0.91-1.716-0.747-2.727
		c0.057-0.339,0.397-0.544,0.716-0.516c0.341,0.056,0.571,0.376,0.517,0.719c-0.102,0.639,0.061,1.256,0.45,1.695
		c0.401,0.45,1.013,0.659,1.766,0.649c1.568-0.062,1.832-1.597,1.843-1.66l-0.008-2.799c0-0.345,0.279-0.624,0.624-0.624
		s0.624,0.279,0.624,0.624v2.898c-0.151,1.001-0.97,2.727-3.035,2.81C379.744,201.186,379.685,201.186,379.628,201.186z"/>
	<path style="fill:#464655;" d="M384.802,201.186c-0.057,0-0.116,0-0.176-0.004c-2.066-0.084-2.883-1.81-3.028-2.713l-0.008-2.995
		c0-0.345,0.279-0.624,0.624-0.624s0.624,0.279,0.624,0.624v2.898c0.021,0.062,0.314,1.503,1.836,1.562
		c0.774,0.014,1.363-0.191,1.766-0.649c0.389-0.44,0.552-1.056,0.45-1.695c-0.054-0.341,0.176-0.662,0.517-0.719
		c0.326-0.041,0.661,0.175,0.716,0.516c0.162,1.011-0.11,2.004-0.749,2.727C386.76,200.809,385.851,201.186,384.802,201.186z"/>
</g>
<g>
	<path style="fill:#F5F5F5;" d="M403.638,291.876c0,0-4.463-7.141-9.67-2.381c-5.207,4.761-7.141,10.562-13.091,10.116
		c-3.265-0.245-4.934-1.736-5.8-3.039c1.581-1.301,2.702-3.279,1.486-6.185c-2.678-6.397-12.497-4.463-15.175,2.529
		c0,0,3.124-10.265-7.735-6.843c0,0-1.34-7.141-7.588-5.207c-3.398,1.052-4.655,3.143-5.121,4.846
		c-1.315-0.306-3.003-0.296-4.549,0.956l7.885,21.274l11.902,0.149l2.678,4.016l15.621,9.819l2.827,5.951h9.819
		c0,0,0.744-6.1,5.951-7.884c5.207-1.786,13.686-5.505,14.58-8.778c0.892-3.273,0.892-3.273,0.892-3.273l9.521,0.149
		c1.041-0.744,8.034-12.199,8.034-12.199l3.245-14.753C427.556,280.881,407.052,278.219,403.638,291.876z"/>
	<path style="fill:#F5F5F5;" d="M429.374,281.016l-0.027,0.124c0.082,0.011,0.176,0.026,0.176,0.026L429.374,281.016z"/>
</g>
<g>
	<path style="fill:#FFE15A;" d="M364.576,314.688c-3.858-1.555-5.235-3.734-5.711-4.895c-0.442-1.073-0.356-1.835-0.235-2.113
		c0.246-0.569,0.544-0.931,0.821-1.001c0.261-0.063,0.592,0.087,0.652,0.126c0.125,0.142,0.192,0.596,0.071,0.707
		c-0.719,0.676-0.751,1.806-0.076,2.524c0.679,0.719,1.805,0.75,2.524,0.076c0.734-0.69,1.155-1.656,1.183-2.719
		c0.033-1.14-0.384-2.277-1.112-3.044c-0.731-0.774-2.232-1.478-3.831-1.192c-0.33,0.057-0.701,0.192-1.081,0.376
		c0.25-2.473-0.704-3.74-1.403-4.25c-1.177-0.855-2.852-0.875-4.261-0.049c-1.442,0.847-2.221,2.329-2.031,3.864
		c0.122,0.98,1.105,1.566,2.062,1.433c0.978-0.119,1.747-1.13,1.627-2.106c0.202-0.185,0.469-0.247,0.46-0.29
		c0.004,0.004,0.239,0.394-0.045,1.653c-0.445,1.973-1.488,3.187-3.103,3.613c-2.011,0.555-4.585-0.292-6.107-1.963
		c-2.117-2.329-6.547-14.69-9.181-22.922c11.292-5.356,12.679-14.254,12.465-19.212c-0.326-7.553-4.845-15.28-9.87-16.873
		c-1.977-0.624-4.939-0.754-7.088,0.356c-1.217,0.635-2.062,1.607-2.442,2.818c-0.776,2.468,0.777,4.509,2.634,5.175
		c1.923,0.69,3.863-0.14,4.61-1.977c0.37-0.913-0.034-1.959-0.947-2.329c-0.918-0.38-1.918,0.066-2.287,0.976
		c-0.075,0.041-0.322-0.052-0.507-0.261c-0.134-0.154-0.162-0.304-0.096-0.509c0.059-0.189,0.194-0.467,0.685-0.721
		c1.166-0.61,3.117-0.516,4.363-0.122c2.874,0.91,7.073,6.534,7.379,13.623c0.182,4.236-1.103,12.002-11.764,16.427
		c-0.855,0.356-1.295,1.301-1.02,2.183c0.696,2.228,6.906,21.904,10.423,25.77c1.892,2.082,4.752,3.292,7.487,3.292
		c0.741,0,1.473-0.087,2.174-0.272c1.192-0.316,2.188-0.931,3.054-1.703c0.086,0.655,0.237,1.325,0.514,1.996
		c0.69,1.681,2.604,4.805,7.95,6.959c10.812,4.338,11.839,7.238,11.781,8.288c-0.033,0.575-0.362,0.875-0.631,1.025
		c-0.117,0.066-0.231,0.107-0.331,0.132c0.4-0.547,0.471-1.297,0.119-1.928c-0.481-0.861-1.566-1.168-2.428-0.687
		c-1.215,0.68-2.062,2.281-1.336,4.03c0.566,1.36,1.892,2.183,3.424,2.183c0.246,0,0.497-0.021,0.751-0.066
		c2.223-0.376,3.865-2.221,3.996-4.484C379.169,321.183,371.007,317.267,364.576,314.688z"/>
	<path style="fill:#FFE15A;" d="M399.854,314.688c3.858-1.555,5.235-3.734,5.711-4.895c0.442-1.073,0.356-1.835,0.235-2.113
		c-0.246-0.569-0.544-0.931-0.821-1.001c-0.261-0.063-0.592,0.087-0.652,0.126c-0.126,0.142-0.192,0.596-0.071,0.707
		c0.719,0.676,0.751,1.806,0.076,2.524c-0.679,0.719-1.805,0.75-2.524,0.076c-0.734-0.69-1.155-1.656-1.183-2.719
		c-0.033-1.14,0.384-2.277,1.112-3.044c0.731-0.774,2.232-1.478,3.831-1.192c0.33,0.057,0.701,0.192,1.081,0.376
		c-0.25-2.473,0.704-3.74,1.403-4.25c1.177-0.855,2.852-0.875,4.261-0.049c1.442,0.847,2.221,2.329,2.031,3.864
		c-0.122,0.98-1.105,1.566-2.062,1.433c-0.978-0.119-1.747-1.13-1.627-2.106c-0.202-0.185-0.469-0.247-0.46-0.29
		c-0.004,0.004-0.239,0.394,0.045,1.653c0.445,1.973,1.488,3.187,3.103,3.613c2.009,0.555,4.585-0.292,6.107-1.963
		c2.117-2.329,6.546-14.69,9.18-22.922c-11.292-5.356-12.679-14.254-12.465-19.212c0.326-7.553,4.845-15.28,9.87-16.873
		c1.977-0.624,4.939-0.754,7.089,0.356c1.217,0.635,2.062,1.607,2.442,2.818c0.776,2.468-0.777,4.509-2.634,5.175
		c-1.923,0.69-3.864-0.14-4.61-1.977c-0.37-0.913,0.032-1.959,0.946-2.329c0.918-0.38,1.918,0.066,2.287,0.976
		c0.075,0.041,0.322-0.052,0.507-0.261c0.134-0.154,0.162-0.304,0.096-0.509c-0.059-0.189-0.194-0.467-0.685-0.721
		c-1.166-0.61-3.117-0.516-4.361-0.122c-2.875,0.91-7.073,6.534-7.379,13.623c-0.184,4.236,1.103,12.002,11.764,16.427
		c0.855,0.356,1.296,1.301,1.02,2.183c-0.696,2.228-6.906,21.904-10.423,25.77c-1.892,2.082-4.752,3.292-7.487,3.292
		c-0.741,0-1.473-0.087-2.174-0.272c-1.192-0.316-2.188-0.931-3.054-1.703c-0.086,0.655-0.237,1.325-0.514,1.996
		c-0.69,1.681-2.604,4.805-7.95,6.959c-10.812,4.338-11.839,7.238-11.78,8.288c0.034,0.575,0.362,0.875,0.631,1.025
		c0.116,0.066,0.232,0.107,0.331,0.132c-0.4-0.547-0.471-1.297-0.119-1.928c0.481-0.861,1.566-1.168,2.428-0.687
		c1.215,0.68,2.062,2.281,1.336,4.03c-0.566,1.36-1.892,2.183-3.424,2.183c-0.246,0-0.497-0.021-0.751-0.066
		c-2.223-0.376-3.865-2.221-3.996-4.484C385.26,321.183,393.423,317.267,399.854,314.688z"/>
</g>
<g>
</g>
<g>
</g>
<g>
</g>
<g>
</g>
<g>
</g>
<g>
</g>
<g>
</g>
<g>
</g>
<g>
</g>
<g>
</g>
<g>
</g>
<g>
</g>
<g>
</g>
<g>
</g>
<g>
</g>
</svg>
