<?xml version="1.0" encoding="iso-8859-1"?>
<!-- Generator: Adobe Illustrator 19.0.0, SVG Export Plug-In . SVG Version: 6.00 Build 0)  -->
<svg version="1.1" id="Layer_1" xmlns="http://www.w3.org/2000/svg" xmlns:xlink="http://www.w3.org/1999/xlink" x="0px" y="0px"
	 viewBox="0 0 512.004 512.004" style="enable-background:new 0 0 512.004 512.004;" xml:space="preserve">
<path style="fill:#FFE15A;" d="M482.451,366.319l-0.008-42.41l-0.005-27.164l-0.014-81.491l-0.005-27.164l-0.008-42.486
	c-0.001-3.105-0.422-6.147-1.202-9.07c-0.42-1.572-0.948-3.107-1.577-4.597c-2.568-6.092-6.814-11.419-12.362-15.28
	c-0.812-0.565-1.642-1.11-2.509-1.611l-23.71-13.684l-22.198-12.81l-17.87-10.313l-68.335-39.438l0,0l-26.659-15.386l-19.995-11.539
	l-12.39-7.151c-10.918-6.301-24.37-6.3-35.287,0.006l-12.307,7.108l-19.995,11.548l-26.659,15.398l0,0l-68.331,39.464L81.08,95.547
	l-22.191,12.818l-11.697,6.756c-0.841,0.486-1.648,1.015-2.439,1.562c-3.392,2.349-6.296,5.254-8.638,8.538
	c-1.572,2.206-2.883,4.585-3.911,7.092c-1.715,4.179-2.652,8.706-2.651,13.371l0.007,42.41l0.005,27.164l0.014,81.478v0.014v0.005
	l0.005,27.159l0.007,42.478v0.006c0.003,11.607,5.715,22.388,15.14,28.946c0.812,0.565,1.642,1.11,2.509,1.611l23.377,13.491
	l22.198,12.812l18.204,10.506l94.999,54.826l19.995,11.539l12.39,7.151c10.918,6.302,24.37,6.299,35.287-0.006l12.307-7.108
	l19.995-11.548l26.659-15.397l0,0l57.587-33.261l10.742-6.205l27.325-15.782l22.191-12.818l14.319-8.27
	c0.841-0.486,1.648-1.013,2.439-1.561C476.716,388.765,482.452,377.956,482.451,366.319L482.451,366.319L482.451,366.319z"/>
<path style="fill:#F5F5F5;" d="M58.888,108.364l-11.697,6.756c-0.841,0.486-1.648,1.015-2.439,1.562
	c-3.392,2.349-6.296,5.254-8.638,8.538c-1.572,2.206-2.883,4.585-3.911,7.092c-1.715,4.179-2.652,8.706-2.651,13.371l0.003,16.617
	l452.892,187.404l-0.004-25.792l-0.005-27.164l-0.003-17.03L62.831,106.086L58.888,108.364z"/>
<path style="fill:#464655;" d="M29.56,188.091l0.005,27.164l0.003,17.029l419.607,173.63l1.32-0.762l14.319-8.27
	c0.841-0.486,1.648-1.013,2.439-1.561c9.465-6.556,15.201-17.365,15.2-29.001l-0.003-16.618L29.556,162.298L29.56,188.091z"/>
<g>
	<path style="fill:#FF4B55;" d="M312.163,238.249l0.006-0.284c0,0-0.132-1.37-0.384-3.939c-0.076-1.285-0.371-2.848-0.761-4.671
		c-0.301-1.838-0.884-3.895-1.63-6.165c-1.502-4.504-3.813-9.881-7.804-15.087c-0.482-0.644-1.053-1.278-1.578-1.918
		c2.264-2.596,4.473-5.615,6.554-9.26c0,0-11.417,0.524-24.237-5.071c-4.233-2.204-8.829-4.013-13.871-5.197l-2.392-9.566
		c-0.512-2.046-2.351-3.482-4.459-3.482h-3.306v-4.596h16.088l-4.596-9.194l4.596-9.194h-16.088v-4.596h-4.597v27.58h-3.305
		c-2.109,0-3.948,1.436-4.46,3.482l-2.339,9.36c-3.105,0.661-6.198,1.502-9.2,2.777c-2.457,0.983-4.832,2.216-7.152,3.594
		c-11.793,4.526-21.809,4.104-21.809,4.104c2.081,3.641,4.286,6.659,6.549,9.254c-0.459,0.559-0.967,1.057-1.411,1.631
		c-3.132,4.253-5.632,9.034-7.54,14.111c-1.816,4.93-2.847,11.187-3.193,15.761l-0.009,4.423c-0.046,1.388,0.112,2.764,0.259,4.145
		c0.181,2.783,0.796,5.498,1.376,8.234c1.433,5.389,3.532,10.631,6.391,15.445c5.723,9.641,14.454,17.242,24.241,21.954
		c5.056,2.228,9.834,3.925,15.535,4.736c3.037,0.565,4.927,0.556,7.177,0.752l0.409,0.03l0.205,0.015l0.667,0.018l0.957-0.04
		l1.908-0.086c1.266-0.085,2.532-0.069,3.773-0.254c10.002-1.097,19.019-4.986,26.058-10.036
		c7.038-5.14,12.094-11.408,15.557-17.383c3.518-5.981,5.332-11.768,6.451-16.508c0.535-2.367,0.933-4.53,1.076-6.564
		c0.227-2.014,0.36-3.663,0.3-4.74C312.165,239.491,312.163,238.249,312.163,238.249z M228.619,270.645
		c-3.194-2.489-6.081-5.456-8.713-8.729c-2.533-3.352-4.556-7.132-6.146-11.151c-1.498-3.933-2.323-8.661-2.728-12.515
		c-0.112-5.349,0.139-8.996,1.16-13.558c1.113-4.331,2.737-8.571,4.996-12.484c0.131-0.226,0.309-0.419,0.444-0.642
		c10.45,8.163,21.483,7.582,29.177,3.62v8.99c2.538,0,4.596,5.145,4.596,11.492s-2.058,11.492-4.596,11.492v4.596
		c8.621,11.494,4.666,21.193-0.632,26.848c-2.404-0.522-4.899-1.225-7.232-2.143C235.327,275.054,231.89,273.027,228.619,270.645z
		 M300.966,237.733c-0.007,0.067-0.13,1.25-0.365,3.502c-0.07,1.256-0.347,2.446-0.669,3.763c-0.229,1.328-0.715,2.937-1.338,4.76
		c-1.245,3.572-3.117,7.837-6.372,11.923c-3.182,4.099-7.472,8.147-12.825,11.313c-4.07,2.414-8.854,4.05-13.909,5.211
		c-5.119-5.705-8.724-15.207-0.292-26.448v-4.596c-2.538,0-4.596-5.146-4.596-11.492c0-6.347,2.058-11.492,4.596-11.492v-8.99
		c7.703,3.965,18.754,4.545,29.215-3.648c0.179,0.301,0.397,0.607,0.566,0.907c2.782,4.861,4.156,9.535,5.019,13.343
		c0.411,1.922,0.714,3.637,0.785,5.16c0.16,1.507,0.274,2.783,0.209,3.833C300.975,236.561,300.968,237.464,300.966,237.733z"/>
	<path style="fill:#FF4B55;" d="M256.003,306.918c-16.973,0-32.369-6.612-43.858-17.357c-2.109-1.972-5.447-1.733-7.327,0.46
		l-17.601,20.536c-1.871,2.183-0.32,5.555,2.554,5.555h11.071l14.757,7.379c2.073,1.037,4.595,0.367,5.881-1.562l4.75-7.126
		c9.18,3.788,19.226,5.905,29.773,5.905c10.547,0,20.593-2.117,29.773-5.905l4.75,7.126c1.286,1.929,3.806,2.598,5.881,1.562
		l14.757-7.379h11.071c2.875,0,4.426-3.372,2.554-5.555l-17.601-20.536c-1.879-2.193-5.217-2.432-7.327-0.46
		C288.37,300.306,272.976,306.918,256.003,306.918z"/>
	<path style="fill:#FF4B55;" d="M191.648,288.53h-22.984l4.596-41.371c0,0-16.089-8.045-14.405-31.66
		c0.205-2.872,2.633-5.115,5.512-5.115h3.923c2.709,0,4.98,1.963,5.429,4.635c0.967,5.766,3.976,15.231,13.331,18.349
		L191.648,288.53z"/>
	<path style="fill:#FF4B55;" d="M320.357,288.53h22.984l-4.596-41.371c0,0,16.089-8.045,14.405-31.66
		c-0.205-2.872-2.633-5.115-5.512-5.115h-3.923c-2.709,0-4.98,1.963-5.428,4.635c-0.967,5.766-3.976,15.231-13.331,18.349
		L320.357,288.53z"/>
</g>
<g>
	<path style="fill:#FFE15A;" d="M193.946,293.126h-27.58c-1.27,0-2.298-1.028-2.298-2.298l0,0c0-1.27,1.028-2.298,2.298-2.298h27.58
		c1.27,0,2.298,1.03,2.298,2.298l0,0C196.244,292.098,195.216,293.126,193.946,293.126z"/>
	<path style="fill:#FFE15A;" d="M345.64,293.126h-27.581c-1.27,0-2.298-1.028-2.298-2.298l0,0c0-1.27,1.028-2.298,2.298-2.298
		h27.581c1.27,0,2.298,1.03,2.298,2.298l0,0C347.938,292.098,346.908,293.126,345.64,293.126z"/>
</g>
<g>
</g>
<g>
</g>
<g>
</g>
<g>
</g>
<g>
</g>
<g>
</g>
<g>
</g>
<g>
</g>
<g>
</g>
<g>
</g>
<g>
</g>
<g>
</g>
<g>
</g>
<g>
</g>
<g>
</g>
</svg>
