<?xml version="1.0" encoding="iso-8859-1"?>
<!-- Generator: Adobe Illustrator 19.0.0, SVG Export Plug-In . SVG Version: 6.00 Build 0)  -->
<svg version="1.1" id="Layer_1" xmlns="http://www.w3.org/2000/svg" xmlns:xlink="http://www.w3.org/1999/xlink" x="0px" y="0px"
	 viewBox="0 0 512.004 512.004" style="enable-background:new 0 0 512.004 512.004;" xml:space="preserve">
<path style="fill:#FFE15A;" d="M482.451,366.323l-0.008-42.41l-0.005-27.164l-0.014-81.491l-0.005-27.164l-0.008-42.486
	c0-3.105-0.422-6.147-1.202-9.07c-0.42-1.572-0.948-3.107-1.577-4.598c-2.568-6.091-6.814-11.419-12.362-15.28
	c-0.812-0.565-1.642-1.11-2.509-1.611l-23.71-13.684l-22.198-12.81l-17.87-10.313l-68.336-39.439l0,0l-26.659-15.386l-19.995-11.539
	l-12.39-7.151c-10.918-6.301-24.37-6.3-35.287,0.006l-12.305,7.109L206.016,23.39l-26.659,15.398l0,0l-68.331,39.464L81.079,95.549
	l-22.191,12.818l-11.697,6.756c-0.841,0.486-1.648,1.015-2.439,1.561c-3.392,2.349-6.296,5.254-8.638,8.538
	c-1.572,2.206-2.883,4.585-3.911,7.092c-1.715,4.179-2.652,8.706-2.651,13.371l0.007,42.41l0.005,27.164l0.014,81.478v0.014v0.005
	l0.005,27.159l0.007,42.478v0.006c0.003,11.607,5.715,22.388,15.14,28.946c0.812,0.565,1.642,1.11,2.509,1.611l23.377,13.491
	l22.198,12.811l18.204,10.506l94.999,54.826l19.995,11.539l12.39,7.151c10.918,6.301,24.37,6.298,35.287-0.006l12.307-7.108
	l19.995-11.548l26.659-15.397l0,0l57.588-33.261l10.742-6.205l27.325-15.782l22.191-12.818l14.319-8.27
	c0.841-0.486,1.648-1.015,2.439-1.562C476.716,388.768,482.452,377.958,482.451,366.323L482.451,366.323L482.451,366.323z"/>
<path style="fill:#73AF00;" d="M482.443,326.689H29.584l0.006,39.703v0.006c0.003,11.607,5.715,22.389,15.14,28.946
	c0.812,0.565,1.642,1.11,2.509,1.611l23.377,13.491l22.198,12.811l18.204,10.506l59.424,34.296l35.574,20.531l19.995,11.539
	l12.39,7.151c10.918,6.301,24.37,6.298,35.287-0.006l12.307-7.108l19.995-11.548l26.659-15.397l8.936-5.161l48.65-28.1l10.742-6.205
	l27.325-15.782l22.191-12.818l14.319-8.27c0.841-0.486,1.648-1.013,2.439-1.562c9.465-6.556,15.201-17.365,15.2-29.001
	L482.443,326.689z"/>
<path style="fill:#FF4B55;" d="M482.413,145.608c0-3.105-0.422-6.147-1.202-9.07c-0.42-1.572-0.948-3.107-1.577-4.598
	c-2.568-6.091-6.814-11.419-12.362-15.28c-0.812-0.565-1.642-1.11-2.509-1.611l-23.71-13.684l-22.198-12.81l-17.87-10.313
	l-59.424-34.296l-8.915-5.145l-26.659-15.386l-19.995-11.539l-12.39-7.151c-10.918-6.302-24.37-6.3-35.287,0.006l-12.307,7.108
	l-19.995,11.548l-26.659,15.398l0,0l-8.936,5.161L111.024,78.25L81.079,95.549l-22.191,12.818l-11.697,6.756
	c-0.841,0.486-1.648,1.015-2.439,1.561c-3.392,2.349-6.296,5.254-8.638,8.538c-1.572,2.206-2.883,4.585-3.911,7.092
	c-1.715,4.179-2.652,8.706-2.651,13.371l0.006,39.634h452.861L482.413,145.608z"/>
<path style="fill:#73AF00;" d="M241.587,192.733c0,0-0.287,0.359-0.826,1.032c-0.45,0.621-1.123,1.578-1.858,2.85
	c-1.448,2.528-2.968,6.446-3.009,11.116c-0.015,2.277,0.455,5.042,1.232,7.242c0.842,2.427,2.239,4.749,4.005,6.822
	c1.768,2.092,4.131,3.705,6.658,4.896c1.253,0.636,2.628,1.002,3.994,1.338c0.677,0.206,1.397,0.217,2.091,0.352
	c0.349,0.066,0.71,0.036,1.063,0.064l0.532,0.024l0.266,0.014l0.134,0.007l0.066,0.004l0.034,0.001
	c-0.107,0.004,0.287-0.005-0.232,0.009c0.865-0.05,1.914-0.057,2.628-0.144c0.621-0.145,1.146-0.12,1.858-0.331
	c1.365-0.336,2.74-0.702,3.993-1.338c2.527-1.191,4.89-2.804,6.658-4.896c1.766-2.073,3.163-4.395,4.005-6.822
	c0.806-2.469,1.237-4.832,1.231-7.252c-0.039-4.65-1.56-8.583-3.008-11.106c-0.731-1.267-1.408-2.229-1.889-2.878
	c-0.5-0.64-0.767-0.981-0.767-0.981l-0.067-0.085c-0.481-0.614-0.372-1.502,0.241-1.982c0.485-0.38,1.142-0.39,1.633-0.076
	c0,0,0.412,0.264,1.185,0.76c0.731,0.547,1.863,1.325,3.083,2.578c2.448,2.424,5.627,6.744,6.774,13.021
	c0.567,3.003,0.63,6.637-0.154,10.21c-0.759,3.608-2.297,7.339-4.781,10.605c-2.439,3.279-5.718,6.181-9.616,8.137
	c-1.922,1.026-4.016,1.77-6.162,2.288c-1.028,0.302-2.336,0.427-3.499,0.611c-1.09,0.12-1.866,0.122-2.814,0.189l-0.37,0.001
	l-0.104-0.005l-0.207-0.01l-0.415-0.021l-0.83-0.045c-0.552-0.044-1.107-0.036-1.655-0.131c-1.091-0.192-2.202-0.281-3.267-0.59
	c-2.147-0.519-4.24-1.262-6.163-2.288c-3.898-1.956-7.177-4.857-9.616-8.137c-2.484-3.265-4.023-6.997-4.781-10.605
	c-0.812-3.843-0.71-7.074-0.152-10.22c1.145-6.257,4.325-10.591,6.773-13.011c1.216-1.248,2.352-2.031,3.114-2.606
	c0.734-0.461,1.125-0.707,1.125-0.707c0.665-0.417,1.543-0.217,1.961,0.447C242.014,191.609,241.953,192.273,241.587,192.733z"/>
<path style="fill:#FF4B55;" d="M253.197,303.877v17.663c0,1.762-2.131,2.644-3.377,1.398l-0.972-0.972
	c-0.807-0.807-1.261-1.903-1.261-3.044v-15.046L253.197,303.877L253.197,303.877z"/>
<path style="fill:#FFE15A;" d="M244.783,301.072v12.82c0,0.771,0.306,1.51,0.851,2.056l1.953,1.953v-16.829H244.783L244.783,301.072
	z"/>
<path style="fill:#73AF00;" d="M241.978,301.072v6.881c0,0.982,0.39,1.924,1.085,2.618l1.721,1.721v-11.22H241.978z"/>
<path style="fill:#FF4B55;" d="M258.807,303.877v17.663c0,1.762,2.131,2.644,3.377,1.398l0.972-0.972
	c0.807-0.807,1.261-1.903,1.261-3.044v-15.046L258.807,303.877L258.807,303.877z"/>
<path style="fill:#FFE15A;" d="M267.221,301.072v12.82c0,0.771-0.306,1.51-0.851,2.056l-1.953,1.953v-16.829H267.221
	L267.221,301.072z"/>
<path style="fill:#73AF00;" d="M270.027,301.072v6.881c0,0.982-0.39,1.924-1.085,2.618l-1.721,1.721v-11.22H270.027z"/>
<path style="fill:#FF4B55;" d="M270.027,250.586l30.853-22.439v46.144c0,13.241-10.735,23.976-23.976,23.976l0,0
	c-4.494,0-8.896-1.262-12.708-3.644l-16.608-10.38v-34.047L270.027,250.586z"/>
<path style="fill:#FFE15A;" d="M289.66,236.307v32.375c0,13.241-10.735,23.977-23.976,23.977c-1.991,0-3.954-0.287-5.866-0.771
	l-12.229-7.644v-34.047l22.439,0.39L289.66,236.307z"/>
<path style="fill:#73AF00;" d="M281.246,242.427v20.901c0,13.241-10.735,23.977-23.976,23.977c-1.991,0-3.954-0.287-5.866-0.771
	l-3.815-2.384v-33.952l22.439,0.39L281.246,242.427z"/>
<polygon style="fill:#F5F5F5;" points="302.563,223.098 314.903,216.928 305.928,228.147 300.879,228.147 "/>
<path style="fill:#FF4B55;" d="M286.856,264.609l30.853-22.439v46.144c0,13.243-10.735,23.977-23.976,23.977l0,0
	c-4.494,0-8.896-1.263-12.708-3.644l-16.608-10.38V264.22L286.856,264.609z"/>
<path style="fill:#73AF00;" d="M298.075,256.45v20.901c0,13.241-10.735,23.976-23.977,23.976c-1.991,0-3.954-0.287-5.866-0.771
	l-3.815-2.384V264.22l22.439,0.39L298.075,256.45z"/>
<polygon style="fill:#F5F5F5;" points="319.392,237.122 331.732,230.952 322.757,242.171 317.708,242.171 "/>
<path style="fill:#FF4B55;" d="M278.44,259l30.853-22.439v46.144c0,13.241-10.735,23.976-23.976,23.976l0,0
	c-4.494,0-8.896-1.262-12.708-3.644l-16.608-10.38V258.61L278.44,259z"/>
<path style="fill:#FFE15A;" d="M298.075,244.721v32.375c0,13.241-10.735,23.977-23.977,23.977c-1.991,0-3.954-0.287-5.866-0.771
	l-12.229-7.644v-34.047l22.439,0.39L298.075,244.721z"/>
<path style="fill:#73AF00;" d="M289.66,250.841v20.901c0,13.241-10.735,23.977-23.976,23.977c-1.991,0-3.954-0.287-5.866-0.771
	l-3.815-2.384v-33.952l22.439,0.39L289.66,250.841z"/>
<polygon style="fill:#F5F5F5;" points="310.977,231.512 323.318,225.343 314.342,236.562 309.293,236.562 "/>
<path style="fill:#FF4B55;" d="M241.978,250.586l-30.853-22.439v46.144c0,13.241,10.735,23.976,23.977,23.976l0,0
	c4.494,0,8.898-1.262,12.708-3.644l16.608-10.38v-34.047L241.978,250.586z"/>
<path style="fill:#FFE15A;" d="M222.345,236.307v32.375c0,13.241,10.735,23.977,23.977,23.977c1.991,0,3.954-0.287,5.866-0.771
	l12.23-7.644v-34.047l-22.439,0.39L222.345,236.307z"/>
<path style="fill:#73AF00;" d="M230.759,242.427v20.901c0,13.241,10.735,23.977,23.976,23.977c1.991,0,3.954-0.287,5.866-0.771
	l3.815-2.384v-33.952l-22.439,0.39L230.759,242.427z"/>
<polygon style="fill:#F5F5F5;" points="209.442,223.098 197.101,216.928 206.077,228.147 211.125,228.147 "/>
<path style="fill:#FF4B55;" d="M225.149,264.609l-30.853-22.439v46.144c0,13.243,10.735,23.977,23.977,23.977l0,0
	c4.494,0,8.898-1.263,12.708-3.644l16.608-10.38V264.22L225.149,264.609z"/>
<path style="fill:#73AF00;" d="M213.929,256.45v20.901c0,13.241,10.735,23.976,23.976,23.976c1.991,0,3.954-0.287,5.866-0.771
	l3.815-2.384V264.22l-22.439,0.39L213.929,256.45z"/>
<polygon style="fill:#F5F5F5;" points="192.613,237.122 180.272,230.952 189.247,242.171 194.296,242.171 "/>
<path style="fill:#FF4B55;" d="M233.564,259l-30.853-22.439v46.144c0,13.241,10.735,23.976,23.977,23.976l0,0
	c4.494,0,8.898-1.262,12.708-3.644l16.608-10.38V258.61L233.564,259z"/>
<path style="fill:#FFE15A;" d="M213.929,244.721v32.375c0,13.241,10.735,23.977,23.976,23.977c1.991,0,3.954-0.287,5.866-0.771
	l12.23-7.644v-34.047l-22.439,0.39L213.929,244.721z"/>
<path style="fill:#73AF00;" d="M222.345,250.841v20.901c0,13.241,10.735,23.977,23.977,23.977c1.991,0,3.954-0.287,5.866-0.771
	l3.815-2.384v-33.952l-22.439,0.39L222.345,250.841z"/>
<g>
	<path style="fill:#FFBE5A;" d="M219.27,300.702l-3.698-3.698c-2.243-2.242-2.182-5.897,0.134-8.063l61.213-57.521l7.933,7.933
		l-57.521,61.213C225.168,302.884,221.514,302.945,219.27,300.702z"/>
	<circle style="fill:#FFBE5A;" cx="217.421" cy="298.862" r="2.804"/>
</g>
<ellipse transform="matrix(-0.7071 -0.7071 0.7071 -0.7071 313.0522 600.4283)" style="fill:#F5F5F5;" cx="280.879" cy="235.379" rx="5.61" ry="2.804"/>
<g>
	<path style="fill:#FFBE5A;" d="M292.734,300.702l3.698-3.698c2.243-2.242,2.182-5.897-0.134-8.063l-61.213-57.521l-7.933,7.933
		l57.521,61.213C286.837,302.884,290.491,302.945,292.734,300.702z"/>
	<circle style="fill:#FFBE5A;" cx="294.581" cy="298.862" r="2.804"/>
</g>
<ellipse transform="matrix(0.7071 -0.7071 0.7071 0.7071 -98.7455 232.3696)" style="fill:#F5F5F5;" cx="231.122" cy="235.381" rx="5.61" ry="2.804"/>
<ellipse style="fill:#FFBE5A;" cx="256.011" cy="268.812" rx="24.801" ry="29.451"/>
<polygon style="fill:#FF4B55;" points="256.003,242.171 257.319,247.884 260.335,242.858 259.822,248.698 264.246,244.85 
	261.952,250.246 267.349,247.952 263.5,252.375 269.34,251.862 264.313,254.878 270.027,256.196 264.313,257.511 269.34,260.529 
	263.5,260.016 267.349,264.438 261.952,262.145 264.246,267.541 259.822,263.692 260.335,269.533 257.319,264.506 256.003,270.219 
	254.686,264.506 251.669,269.533 252.183,263.692 247.759,267.541 250.052,262.145 244.656,264.438 248.505,260.016 
	242.664,260.529 247.691,257.511 241.978,256.196 247.691,254.878 242.664,251.862 248.505,252.375 244.656,247.952 
	250.052,250.246 247.759,244.85 252.183,248.698 251.669,242.858 254.686,247.884 "/>
<path style="fill:#73AF00;" d="M287.031,268.291c0,0-9.291,2.454-15.338-2.629c-6.721-5.65-11.762-8.318-13.92-9.32
	c-0.74-0.344-1.566-0.344-2.307-0.001c-1.547,0.714-4.394,2.194-6.913,4.413c-3.681,3.243-14.988,9.641-17.268,9.641v13.944
	l17.793,15.42l21.036-0.614L287.031,268.291z"/>
<path style="fill:#3CC8FF;" d="M256.003,305.28c-17.786,0-32.255-16.358-32.255-36.463c0-20.104,14.47-36.463,32.255-36.463
	c17.786,0,32.255,16.358,32.255,36.463C288.258,288.922,273.788,305.28,256.003,305.28z M256.003,240.768
	c-13.146,0-23.841,12.583-23.841,28.049c0,15.465,10.695,28.049,23.841,28.049c13.146,0,23.841-12.583,23.841-28.049
	C279.844,253.353,269.148,240.768,256.003,240.768z"/>
<g>
	<path style="fill:#FFBE5A;" d="M251.169,297.657l0.619,1.853l1.953,0.015c0.252,0.003,0.357,0.325,0.154,0.475l-1.571,1.16
		l0.59,1.862c0.076,0.241-0.199,0.44-0.404,0.294l-1.59-1.136l-1.59,1.136c-0.206,0.147-0.48-0.052-0.404-0.294l0.589-1.862
		l-1.571-1.16c-0.204-0.15-0.099-0.474,0.155-0.475l1.953-0.015l0.619-1.853C250.751,297.417,251.089,297.417,251.169,297.657z"/>
	<path style="fill:#FFBE5A;" d="M242.402,293.888l0.619,1.853l1.953,0.015c0.252,0.003,0.357,0.325,0.155,0.475l-1.572,1.16
		l0.589,1.862c0.076,0.241-0.199,0.441-0.404,0.294l-1.59-1.136l-1.59,1.136c-0.206,0.147-0.48-0.052-0.404-0.294l0.589-1.862
		l-1.571-1.16c-0.204-0.15-0.099-0.472,0.154-0.475l1.953-0.015l0.617-1.853C241.982,293.648,242.322,293.648,242.402,293.888z"/>
	<path style="fill:#FFBE5A;" d="M235.36,287.489l0.617,1.853l1.953,0.015c0.252,0.003,0.357,0.325,0.154,0.475l-1.571,1.16
		l0.59,1.862c0.076,0.241-0.199,0.44-0.404,0.294l-1.59-1.136l-1.59,1.136c-0.206,0.147-0.48-0.053-0.404-0.294l0.589-1.862
		l-1.571-1.16c-0.204-0.15-0.099-0.474,0.155-0.475l1.953-0.015l0.619-1.853C234.941,287.25,235.28,287.25,235.36,287.489z"/>
	<path style="fill:#FFBE5A;" d="M230.559,278.972l0.617,1.853l1.953,0.015c0.252,0.003,0.357,0.325,0.155,0.475l-1.571,1.161
		l0.589,1.862c0.076,0.241-0.199,0.44-0.404,0.294l-1.59-1.136l-1.59,1.136c-0.206,0.147-0.48-0.052-0.404-0.294l0.589-1.862
		l-1.571-1.161c-0.204-0.15-0.099-0.472,0.154-0.475l1.953-0.015l0.619-1.853C230.14,278.732,230.479,278.732,230.559,278.972z"/>
	<path style="fill:#FFBE5A;" d="M228.439,269.067l0.617,1.853l1.953,0.015c0.252,0.001,0.357,0.325,0.154,0.475l-1.571,1.161
		l0.589,1.862c0.076,0.241-0.199,0.441-0.404,0.294l-1.59-1.136l-1.59,1.136c-0.206,0.147-0.48-0.052-0.404-0.294l0.589-1.862
		l-1.572-1.161c-0.204-0.15-0.099-0.474,0.155-0.475l1.953-0.015l0.619-1.853C228.019,268.827,228.359,268.827,228.439,269.067z"/>
	<path style="fill:#FFBE5A;" d="M260.822,297.657l-0.617,1.853l-1.953,0.015c-0.252,0.003-0.357,0.325-0.154,0.475l1.571,1.16
		l-0.59,1.862c-0.076,0.241,0.199,0.44,0.404,0.294l1.59-1.136l1.59,1.136c0.206,0.147,0.48-0.052,0.404-0.294l-0.589-1.862
		l1.571-1.16c0.204-0.15,0.099-0.474-0.154-0.475l-1.953-0.015l-0.619-1.853C261.241,297.417,260.902,297.417,260.822,297.657z"/>
	<path style="fill:#FFBE5A;" d="M269.59,293.888l-0.619,1.853l-1.953,0.015c-0.252,0.003-0.357,0.325-0.154,0.475l1.571,1.16
		l-0.589,1.862c-0.076,0.241,0.199,0.441,0.404,0.294l1.59-1.136l1.59,1.136c0.206,0.147,0.48-0.052,0.404-0.294l-0.59-1.862
		l1.571-1.16c0.204-0.15,0.099-0.472-0.154-0.475l-1.953-0.015l-0.617-1.853C270.009,293.648,269.67,293.648,269.59,293.888z"/>
	<path style="fill:#FFBE5A;" d="M276.631,287.489l-0.617,1.853l-1.953,0.015c-0.252,0.003-0.357,0.325-0.154,0.475l1.571,1.16
		l-0.589,1.862c-0.076,0.241,0.199,0.44,0.404,0.294l1.59-1.136l1.59,1.136c0.206,0.147,0.48-0.053,0.404-0.294l-0.589-1.862
		l1.571-1.16c0.204-0.15,0.099-0.474-0.154-0.475l-1.953-0.015l-0.619-1.853C277.051,287.25,276.711,287.25,276.631,287.489z"/>
	<path style="fill:#FFBE5A;" d="M281.432,278.972l-0.617,1.853l-1.953,0.015c-0.252,0.003-0.357,0.325-0.155,0.475l1.572,1.161
		l-0.589,1.862c-0.076,0.241,0.199,0.44,0.404,0.294l1.59-1.136l1.59,1.136c0.206,0.147,0.48-0.052,0.404-0.294l-0.59-1.862
		l1.572-1.161c0.204-0.15,0.099-0.472-0.155-0.475l-1.953-0.015l-0.619-1.853C281.852,278.732,281.513,278.732,281.432,278.972z"/>
	<path style="fill:#FFBE5A;" d="M283.553,269.067l-0.619,1.853l-1.953,0.015c-0.252,0.001-0.357,0.325-0.154,0.475l1.571,1.161
		l-0.589,1.862c-0.076,0.241,0.199,0.441,0.404,0.294l1.59-1.136l1.59,1.136c0.206,0.147,0.48-0.052,0.404-0.294l-0.589-1.862
		l1.571-1.161c0.204-0.15,0.099-0.474-0.155-0.475l-1.953-0.015l-0.619-1.853C283.971,268.827,283.633,268.827,283.553,269.067z"/>
</g>
<path style="fill:#F5F5F5;" d="M243.815,286.798l0.932,4.458h0.401v-3.04c0,0,0.664,2.121,1.601,3.04h0.759
	c-0.362-0.465-1.016-1.435-1.016-2.436c0-1.38,1.097-1.568,1.097-3.042h0.941v5.478h0.55l1.018-4.882c0,0,0.84,3.053,2.421,4.882
	h0.702c-0.506-0.745-1.56-2.667-1.367-5.572c0,0,1.506-0.752,1.506-2.792v-2.9c0-0.542,0.44-0.983,0.983-0.983h0.677
	c0,0-1.006-1.951-2.083-2.234v-1.223l-0.811,1.225c-0.774,0.167-1.23,0.884-1.23,1.65v1.766c0,0.542-0.44,0.983-0.983,0.983h-3.515
	c-1.041,0-2.708,1.041-2.708,2.374s1,2.208,1,2.208L243.815,286.798z"/>
<path style="fill:#FFBE5A;" d="M259.566,282.356h-0.322c-2.549,0.14-3.971,1.814-3.971,1.814l2.586,2.586v4.865h3.094v-4.865
	l2.586-2.586C263.538,284.17,262.115,282.496,259.566,282.356z"/>
<g>
	<rect x="265.001" y="274.392" style="fill:#F5F5F5;" width="0.935" height="17.238"/>
	<path style="fill:#F5F5F5;" d="M265.498,274.266l-5.04,6.092c0,0-0.657-2.937,2.279-5.828l-6.486,1.183
		c0,0,1.972-3.681,7.143-3.287L258.092,268c0,0,4.557-0.262,6.881,3.155c0,0,1.315-3.944,4.996-4.12l-3.039,4.616
		c0,0,3.039-1.548,7.246-0.19l-6.267,1.666c0,0,3.507,0.351,4.952,5.479l-5.435-3.725c0,0,1.666,1.972,1.052,5.828L265.498,274.266z
		"/>
	<polygon style="fill:#F5F5F5;" points="201.028,231.512 188.686,225.343 197.663,236.562 202.711,236.562 	"/>
</g>
<path style="fill:#825546;" d="M264.777,224.368l33.298-10.246l-17.676-6.628c-3.149-1.181-6.484-1.786-9.849-1.786h-3.328
	c-1.55,0-2.804,1.256-2.804,2.804v2.805h-8.414h-8.414v-2.805c0-1.55-1.256-2.804-2.805-2.804h-3.328
	c-3.364,0-6.699,0.605-9.849,1.786l-17.676,6.628l33.298,10.246c1.657,0.51,2.459,2.384,1.683,3.935l-4.129,8.258h22.439
	l-4.129-8.258C262.317,226.754,263.12,224.878,264.777,224.368z"/>
<circle style="fill:#F5F5F5;" cx="256.011" cy="214.122" r="5.61"/>
<path style="fill:#FFBE5A;" d="M258.807,214.123L258.807,214.123c0,1.55-1.256,2.804-2.804,2.804h-11.219l4.789-4.789
	c0.526-0.526,1.24-0.821,1.983-0.821h4.448C257.551,211.318,258.807,212.574,258.807,214.123z"/>
<g>
</g>
<g>
</g>
<g>
</g>
<g>
</g>
<g>
</g>
<g>
</g>
<g>
</g>
<g>
</g>
<g>
</g>
<g>
</g>
<g>
</g>
<g>
</g>
<g>
</g>
<g>
</g>
<g>
</g>
</svg>
