<?xml version="1.0" encoding="iso-8859-1"?>
<!-- Generator: Adobe Illustrator 19.0.0, SVG Export Plug-In . SVG Version: 6.00 Build 0)  -->
<svg version="1.1" id="Layer_1" xmlns="http://www.w3.org/2000/svg" xmlns:xlink="http://www.w3.org/1999/xlink" x="0px" y="0px"
	 viewBox="0 0 511.998 511.998" style="enable-background:new 0 0 511.998 511.998;" xml:space="preserve">
<g>
	<path style="fill:#82AFFF;" d="M177.471,169.759h304.943l-0.004-24.153c-0.001-11.607-5.715-22.388-15.14-28.946
		c-0.812-0.565-1.642-1.11-2.509-1.611l-23.711-13.684l-22.198-12.81l-17.87-10.313l-94.999-54.826l-19.994-11.54l-12.39-7.151
		c-10.918-6.301-24.37-6.3-35.287,0.006l-12.307,7.108L206.01,23.387l-94.988,54.861l-8.595,4.964l19.857,56.562L177.471,169.759z"
		/>
	<path style="fill:#82AFFF;" d="M482.442,342.241H177.471l-51.437,31.22l-23.616,55.337l8.595,4.96l94.999,54.826l19.995,11.539
		l12.39,7.151c10.918,6.302,24.37,6.299,35.287-0.006l12.307-7.108l19.995-11.548l94.989-54.863l27.325-15.782l22.191-12.818
		l14.319-8.27c0.841-0.486,1.648-1.013,2.439-1.561c9.465-6.556,15.201-17.365,15.2-29.001L482.442,342.241z"/>
</g>
<polygon style="fill:#FFE15A;" points="482.442,342.241 482.447,366.318 482.44,323.908 482.435,296.745 482.422,215.254 
	482.417,188.09 482.414,169.759 192.265,169.759 66.05,169.759 66.05,342.241 193.515,342.241 "/>
<path style="fill:#464655;" d="M246.129,248.942l-68.659-79.183l-75.041-86.546L81.076,95.545l-22.191,12.818l-11.697,6.756
	c-0.841,0.486-1.648,1.015-2.439,1.561c-9.465,6.556-15.201,17.365-15.2,29.001l0.004,24.078l0.003,18.331l0.005,27.164
	l0.014,81.491l0.005,27.164l0.003,18.331l0.004,24.153c0.002,11.607,5.715,22.388,15.14,28.946c0.812,0.565,1.642,1.11,2.509,1.611
	l23.377,13.491l22.198,12.811l9.609,5.545l75.053-86.558l68.659-79.183C249.257,259.449,249.257,252.549,246.129,248.942z"/>
<g>
</g>
<g>
</g>
<g>
</g>
<g>
</g>
<g>
</g>
<g>
</g>
<g>
</g>
<g>
</g>
<g>
</g>
<g>
</g>
<g>
</g>
<g>
</g>
<g>
</g>
<g>
</g>
<g>
</g>
</svg>
