<?xml version="1.0" encoding="iso-8859-1"?>
<!-- Generator: Adobe Illustrator 19.0.0, SVG Export Plug-In . SVG Version: 6.00 Build 0)  -->
<svg version="1.1" id="Layer_1" xmlns="http://www.w3.org/2000/svg" xmlns:xlink="http://www.w3.org/1999/xlink" x="0px" y="0px"
	 viewBox="0 0 512.004 512.004" style="enable-background:new 0 0 512.004 512.004;" xml:space="preserve">
<path style="fill:#FFE15A;" d="M482.45,366.319l-0.008-42.41l-0.005-27.164l-0.014-81.491l-0.005-27.164l-0.008-42.486
	c-0.001-3.105-0.422-6.147-1.202-9.07c-0.42-1.572-0.948-3.107-1.577-4.597c-2.568-6.092-6.814-11.419-12.362-15.28
	c-0.812-0.565-1.642-1.11-2.509-1.611l-23.71-13.684l-22.198-12.81l-17.87-10.313l-68.335-39.438l0,0l-26.659-15.386l-19.995-11.539
	l-12.39-7.151c-10.918-6.302-24.37-6.3-35.286,0.006l-12.307,7.108l-19.994,11.548l-26.659,15.398v-0.001l-68.331,39.467
	L81.079,95.547l-22.191,12.818l-11.697,6.756c-0.841,0.486-1.648,1.015-2.439,1.562c-3.392,2.349-6.296,5.254-8.638,8.538
	c-1.572,2.206-2.883,4.585-3.911,7.092c-1.715,4.179-2.652,8.706-2.651,13.371l0.007,42.41l0.005,27.164l0.014,81.478v0.014v0.005
	l0.005,27.159l0.007,42.478v0.006c0.003,11.607,5.715,22.388,15.14,28.946c0.812,0.565,1.642,1.11,2.509,1.611l23.377,13.491
	l22.198,12.811l18.204,10.506l94.999,54.826l19.994,11.539l12.39,7.151c10.918,6.302,24.37,6.299,35.287-0.006l12.307-7.108
	l19.994-11.548l26.659-15.397l0,0l57.587-33.261l10.742-6.205l27.325-15.782l22.191-12.818l14.319-8.27
	c0.841-0.486,1.648-1.015,2.439-1.562C476.715,388.765,482.451,377.955,482.45,366.319L482.45,366.319L482.45,366.319z"/>
<path style="fill:#FF6E55;" d="M482.442,323.91l-0.005-27.164l-0.014-81.491l-0.005-27.164l-0.008-42.486
	c-0.001-3.105-0.422-6.147-1.202-9.07c-0.42-1.572-0.948-3.107-1.577-4.597c-2.463-5.845-6.487-10.971-11.706-14.787L44.071,394.852
	c0.221,0.161,0.434,0.332,0.659,0.489c0.812,0.565,1.642,1.11,2.509,1.611l23.377,13.491l22.198,12.811l18.204,10.506l21.12,12.189
	l73.878,42.637l19.994,11.539l12.39,7.151c10.918,6.301,24.37,6.298,35.287-0.006l12.307-7.108l19.995-11.548l26.659-15.397
	l47.211-27.267l10.377-5.993l10.742-6.205l27.325-15.782l22.191-12.818l14.319-8.27c0.841-0.486,1.648-1.013,2.439-1.562
	c9.465-6.556,15.201-17.365,15.2-29.001L482.442,323.91z"/>
<g>
	<path style="fill:#FFF5DC;" d="M284.904,167.695c-5.024,1.076-12.916-1.615-12.916-1.615c1.626,2.8,5.975,4.686,9.897,5.873
		c-3.167,0.316-6.778,0.495-10.795,0.406c-16.146-0.36-23.68,10.225-23.68,10.225c5.741-3.589,11.661-3.589,20.451-2.333
		c8.79,1.256,27.447-4.305,27.447-4.305l1.615-7.176C296.922,168.772,289.926,166.619,284.904,167.695z"/>
	<path style="fill:#FFF5DC;" d="M301.497,134.059c0,0,8.348,1.77,16.82,6.631c-0.51,0.269-0.997,0.595-1.462,0.978
		c-2.738-1.361-6.046-2.463-10.336-2.9c0,0,4.44,1.155,8.706,4.496c-1.105,1.301-2.014,2.782-2.716,4.098
		c-9.385-10.063-19.535-3.347-19.535-3.347c12.59-0.957,15.561,7.133,16.269,11.039c-2.438-1.63-4.735-2.973-6.889-4.066
		c0.316-0.236,0.476-0.45,0.846-0.694c0,0-0.789,0.031-1.882,0.195c-16.068-7.723-23.951-1.631-23.951-1.631
		c7.136-0.872,13.73,0.983,18.962,3.293c-2.299,1.323-3.856,3.655-2.572,7.619c-9.011-2.452-20.337-4.867-25.899-3.378
		c-10.046,2.691-6.817,12.019-6.817,12.019s0.18-6.278,6.997-7.714c5.104-1.075,30.497,6.997,30.497,6.997l8.251-3.946l-3.408-2.87
		c0,0-6.551-2.629-3.741-7.148c4.696,2.504,7.688,4.995,7.688,4.995l2.019-2.95c0.099,0.764,0.134,1.336,0.134,1.336l5.741-2.511
		l1.256-1.794c0.502-2.723,1.335-4.659,2.291-6.108c1.661,2.087,3.034,4.665,3.719,7.857l5.202,0.539c0,0-0.845-6.013-6.666-10.796
		c0.516-0.367,1.026-0.671,1.528-0.875c3.834,2.75,7.409,6.191,9.891,10.505l9.597-0.135
		C342.04,153.793,326.253,136.212,301.497,134.059z"/>
	<circle style="fill:#FFF5DC;" cx="393.081" cy="218.831" r="12.02"/>
	<circle style="fill:#FFF5DC;" cx="365.011" cy="319.991" r="16.12"/>
	<circle style="fill:#FFF5DC;" cx="242.101" cy="312.181" r="12.78"/>
	<circle style="fill:#FFF5DC;" cx="212.701" cy="372.871" r="14.755"/>
	<path style="fill:#FFF5DC;" d="M353.252,187.429c0,0,27.635,9.849,34.308,13.185c9.419,4.709,24.218-9.015,34.578,1.615
		c0,0-1.794-7.086-10.405-7.624c0,0,0.18-6.997-7.893-6.638c0,0,5.92,4.305,2.512,7.355c0,0-2.332-5.202-8.97-4.305
		c0,0,5.022,1.973,3.768,5.024c0,0-7.983,3.856-11.571,1.346c-3.588-2.512-31.931-17.805-40.901-18.164L353.252,187.429z"/>
</g>
<path style="fill:#F5F5F5;" d="M346.166,196.039c0,0,5.92,1.75,14.531,10.763c3.991,4.178,14.261,4.44,12.648-3.633
	c-1.615-8.073-21.527-13.05-23.68-13.05C347.511,190.12,346.166,196.039,346.166,196.039z"/>
<g>
	<path style="fill:#FFF5DC;" d="M389.309,178.28l-11.302,3.768c0,0,1.256,7.669-5.202,11.033c-3.978,2.072-6.637,7.444-6.458,11.391
		c0,0,3.768-5.202,9.149-8.073c1.267-0.676,2.436-1.268,3.5-1.869c-0.214,2.689-0.271,5.513,0.089,7.97
		c1.076,7.354-1.256,9.866-1.256,9.866s6.28-4.844,5.562-12.736c-0.276-3.033,0.221-5.181,0.993-6.812
		c0.556,5.496,3.49,8.068,3.49,8.068c-2.153-4.305,2.332-8.97,4.126-12.738C393.794,184.379,389.309,178.28,389.309,178.28z"/>
	<path style="fill:#FFF5DC;" d="M417.877,162.672c-4.449-1.513-8.745,1.211-11.302,3.498c-1.088,0.973-3.958,1.468-6.891,1.735
		c1.959-1.386,4.045-3.023,5.142-4.425c2.422-3.094,6.862-3.633,10.63-4.844s5.382-6.055,5.382-6.055s-2.018,2.96-7.669,2.691
		c-5.651-0.269-7.534-0.539-11.302,3.498c-1.157,1.241-2.78,2.201-4.463,2.972c0.036-1.763,0.187-4.006,0.695-5.528
		c0.942-2.825,5.247-5.112,5.516-10.763s0.539-5.112,3.768-8.476s4.171-9.687,3.229-7.669c-0.942,2.018-5.247,4.44-8.88,7.803
		c-3.633,3.364-1.076,7.131-2.96,10.091c-1.883,2.96-6.323,3.633-6.593,9.149c-0.269,5.516-4.171,8.745-4.171,8.745
		s-9.552,5.247,1.883,9.417c11.436,4.171,20.688-7.434,26.37-7.131c12.646,0.672,16.011-3.498,16.011-3.498
		C430.122,163.883,424.604,164.96,417.877,162.672z"/>
	<path style="fill:#FFF5DC;" d="M279.163,251.293c-0.717-0.539-13.095-14.172-17.221-16.146l0.897,3.408c0,0-2.69-0.179-7.534-6.1
		c-4.844-5.92-8.431-7.534-8.431-7.534s3.408,5.382,3.229,8.79c0,0-7.355-0.539-15.248,3.229c0,0-3.588-6.997-6.637-8.253
		c0,0,1.076,7.355-1.435,9.149c-2.512,1.795,23.68,14.172,27.267,14.531C257.635,252.727,279.163,251.293,279.163,251.293z"/>
	<path style="fill:#FFF5DC;" d="M295.487,224.563c-0.255-0.064-1.578,0.867-3.287,2.088c-0.755-4.356-2.274-13.164-2.274-13.569
		c0-0.539-12.199-17.58-12.558-18.297c-0.006-0.012-0.046-0.014-0.055-0.025c1.185-2.865,2.461-7.744-4.789-3.921
		c-9.867,5.204-13.814,17.222-13.814,17.222c2.249-2.347,6.175-4.138,9.307-5.302c0.065,1.463,0.076,3.2-1.952,6.2
		c-4.126,6.098-1.795,8.431-1.795,8.431c3.229-5.561,10.405-6.1,10.405-6.1c-1.076,6.638,2.691,10.405,2.691,10.405l3.049-3.588
		c-0.376,5.136,2.373,10.647,4.081,13.543c-0.675,0.326-1.291,0.576-1.748,0.629c-3.05,0.36-7.893,2.691-7.893,2.691
		s3.925-0.836,6.155,0.885c2.228,1.722,5.775,3.039,7.699,2.634c0,0-0.912,4.66,0.101,6.382c0,0-2.533-0.711-5.471-0.609
		s-5.076-1.937-5.076-1.937s5.382,7.713,9.329,9.327c3.946,1.615,10.763-4.305,10.763-4.305S296.205,224.741,295.487,224.563z"/>
	<path style="fill:#FFF5DC;" d="M202.742,337.042c0,0-3.408,0.359-6.637,5.202l-1.435-5.024c0,0-3.946,2.87-8.253,1.076
		c0,0,3.946-0.897,4.664-4.485s2.153-3.946,2.153-3.946s-2.691-2.87-5.561-2.691c0,0,7.893-4.126,12.199-0.179
		S202.742,337.042,202.742,337.042z"/>
	<path style="fill:#FFF5DC;" d="M297.641,297.396c0,0-3.408,0.359-6.637,5.202l-1.435-5.024c0,0-3.946,2.87-8.251,1.076
		c0,0,3.946-0.897,4.664-4.485c0.717-3.588,2.153-3.946,2.153-3.946s-2.69-2.87-5.561-2.69c0,0,7.893-4.126,12.199-0.18
		C299.075,291.297,297.641,297.396,297.641,297.396z"/>
	<path style="fill:#FFF5DC;" d="M355.827,246.36c0,0-1.665,2.997,0.446,8.421l-4.936-1.711c0,0,0.082,4.879-3.859,7.373
		c0,0,1.533-3.746-0.992-6.395c-2.524-2.648-1.994-4.029-1.994-4.029s-3.895,0.554-5.397,3.007c0,0,1.156-8.831,6.859-10.088
		C351.658,241.682,355.827,246.36,355.827,246.36z"/>
</g>
<path style="fill:#FF6E55;" d="M373.1,306.986l3.473,2.071C375.562,308.188,374.363,307.536,373.1,306.986z"/>
<path style="fill:#FFF5DC;" d="M177.269,324.305c0,0-15.966,22.424-34.264,27.267l6.458-8.251c0,0-8.611,7.534-18.297,9.149
	l11.661-13.454c0,0-26.012,24.218-59.379,29.241c0,0,25.833-16.324,31.035-22.065c0,0-12.558,5.024-23.86,5.202
	c0,0,32.47-12.558,37.852-17.58c0,0-12.916,2.87-20.989,0.179c0,0,27.985-8.073,31.931-6.997c0,0-16.146-6.458-25.833-5.741
	c0,0,16.504-3.946,35.699,0l-4.126-4.485c0,0,10.943-2.87,21.707-3.588c10.763-0.717,5.382-1.615,5.382-1.615l1.256-3.588
	c0,0-6.996,0.897-12.736,0c0,0,17.222-9.687,22.065-13.992c4.844-4.305,1.615-2.332,1.615-2.332s-8.97,3.049-12.199,3.588
	c0,0,8.073-9.329,10.585-15.428c0,0-7.355,2.87-13.634,0c0,0,7.534-2.153,11.302-5.92c3.768-3.766,9.329-13.14,9.329-13.14
	l-6.458,2.825c0,0,5.651-9.687,10.63-12.109c0,0-8.476,0.672-11.167-1.346c0,0,9.014-2.153,11.706-4.305
	c2.691-2.153,8.611-7.804,14.666-5.651c0,0,8.476-7.804,5.651-12.916c0,0,5.516,0.404,8.341,3.768s7.265,6.19,7.265,6.19
	l-23.052,18.029l-17.58,57.047L177.269,324.305z"/>
<g>
	<path style="fill:#F5F5F5;" d="M403.123,216.669c6.638,10.763-1.615,11.839-1.615,11.839c-1.256-10.225-9.866-8.969-9.866-8.969
		l2.332,7.534c-14.351,1.795-13.275-12.558-13.275-12.558c-2.153,1.795-5.741,9.149-5.741,9.149s-38.748,12.916-64.94-25.473
		c0,0-0.717-6.818,1.436-10.047l-16.146-12.198l-20.809,2.87c0,0-8.251,18.656,1.794,30.138
		c10.046,11.481,21.885,27.626,19.733,35.16c-1.276,4.466-5.074,6.285-10.346,5.905c-3.622-0.261-7.94-1.561-12.615-3.751
		c-11.482-5.382-39.467-16.862-59.559-7.534c-20.092,9.329-22.271,25.47-26.192,38.032c-3.47,11.119-11.169,39.507-66.024,65.406
		c-2.621,1.237-1.287,5.22,1.525,4.521c23.778-5.912,56.196-15.762,66.203-27.41l8.073,0.269l-2.96,12.378
		c0,0,10.495,3.229,12.109,18.567c0,0-18.387,5.022-7.983,20.809c0,0,1.615-11.482,14.351-12.019c0,0,2.87,3.768,9.149,4.305
		c0,0,3.229,5.204,1.615,9.509c0,0,12.736-3.948,1.973-19.196c0,0,12.019-2.869,13.634,12.199c0,0,7.714-24.397-19.822-22.604
		c0,0,0-4.305-7.265-12.109c0,0-1.793-4.396,0-10.495c0.54-1.836,1.028-3.74,1.436-5.682c1.496,0.83,3.796,1.811,6.816,1.916
		c0,0,4.485,7.354,17.76,6.098c0,0-9.687-4.484-8.79-13.095s12.199-13.275,17.043-9.867c0,0-1.256-11.302-18.836-3.948
		c0,0,0-8.431,9.329-8.969c0,0-15.07-11.482-18.477,10.405l-6.236,1.558c-3.047-8.445-6.906-28.053,10.182-35.195
		c18.029-7.534,36.865,9.419,70.232,11.033c0,0-3.229,19.643,7.534,24.487s37.134,9.419,37.134,9.419
		c-0.269,28.343,20.361,24.576,20.361,24.576c-10.012-6-10.012-17.446-3.833-24.133c8.423-9.113,23.027-0.444,23.027-0.444
		c-0.206-13.796-19.553-11.661-19.553-11.661c3.049-8.969,15.068-11.302,15.068-11.302c-16.683-6.098-30.497,11.93-30.497,11.93
		l-28.255-8.073c0,0-1.076-5.651,5.651-13.185s12.378-20.182,10.495-33.636c0,0,7.803-5.472,17.49-0.09
		c9.687,5.382,30.497-6.458,30.497-6.458c8.97,11.481,30.317,9.329,33.187-4.484C413.527,218.283,403.123,216.669,403.123,216.669z"
		/>
	<path style="fill:#F5F5F5;" d="M373.523,183.661c-5.336-3.113-14.89-5.741-18.119,1.435c-3.229,7.176-6.817,14.351-17.939,13.992
		s-16.146,9.149-23.86,6.458c0,0,7.176-2.332,8.611-5.741c1.435-3.408,7.176-9.687,7.176-9.687l-0.717-6.458
		c0,0-13.275,0.716-17.221,4.484c-3.946,3.768-18.836-3.228-18.836-3.228l1.795-15.607c0,0,11.481-17.58,27.447-16.324
		s18.657-2.87,26.37-2.332c7.714,0.539,11.661,8.431,19.912,10.225c8.253,1.795,24.756-1.615,26.909,3.409
		c2.153,5.024-4.126,6.997-5.741,13.992C387.695,185.276,384.287,189.941,373.523,183.661z"/>
</g>
<g>
	<path style="fill:#FFF5DC;" d="M326.881,179.176c0,0-7.714,5.202-14.172,3.049s-12.199-1.435-18.836,0.717
		c0,0,12.199-1.435,17.221,3.229s17.76,1.615,18.657-0.359L326.881,179.176z"/>
	<path style="fill:#FFF5DC;" d="M330.828,191.196c0,0-7.534,5.382-15.07,3.946c-7.534-1.435-14.351,1.615-14.351,1.615
		s5.561-6.1,13.095-5.024s10.226-6.278,10.226-6.278l5.024,0.359L330.828,191.196z"/>
	<circle style="fill:#FFF5DC;" cx="336.931" cy="184.561" r="10.05"/>
	<path style="fill:#FFF5DC;" d="M331.008,177.025c0,0-3.946-5.024-13.814-3.049c-9.866,1.973-12.199-1.615-12.199-1.615
		s4.664,7.176,12.019,6.278c7.355-0.897,10.405,4.126,10.405,4.126L331.008,177.025z"/>
	<path style="fill:#FFF5DC;" d="M364.198,164.463c0.887-1.222,2.002-2.387,3.527-3.274c0.9-0.524,1.824-0.854,2.74-1.126
		c0.204-1.362,0.004-2.832-0.774-4.165c-1.696-2.91-5.221-4.016-7.875-2.469c-2.653,1.546-3.43,5.159-1.735,8.069
		C361.034,163.132,362.57,164.116,364.198,164.463z"/>
	<path style="fill:#FFF5DC;" d="M355.387,176.02c0.505-1.423,1.245-2.855,2.456-4.139c0.715-0.756,1.508-1.335,2.309-1.854
		c-0.19-1.363-0.799-2.717-1.919-3.776c-2.451-2.312-6.145-2.374-8.253-0.141c-2.108,2.233-1.831,5.918,0.62,8.23
		C351.976,175.639,353.728,176.149,355.387,176.02z"/>
</g>
<g>
</g>
<g>
</g>
<g>
</g>
<g>
</g>
<g>
</g>
<g>
</g>
<g>
</g>
<g>
</g>
<g>
</g>
<g>
</g>
<g>
</g>
<g>
</g>
<g>
</g>
<g>
</g>
<g>
</g>
</svg>
