<?xml version="1.0" encoding="iso-8859-1"?>
<!-- Generator: Adobe Illustrator 19.0.0, SVG Export Plug-In . SVG Version: 6.00 Build 0)  -->
<svg version="1.1" id="Layer_1" xmlns="http://www.w3.org/2000/svg" xmlns:xlink="http://www.w3.org/1999/xlink" x="0px" y="0px"
	 viewBox="0 0 511.999 511.999" style="enable-background:new 0 0 511.999 511.999;" xml:space="preserve">
<g>
	<path style="fill:#82AFFF;" d="M482.421,206.013l-0.003-17.923l-0.008-42.486c0-3.105-0.422-6.148-1.202-9.07
		c-0.42-1.572-0.949-3.107-1.577-4.597c-2.568-6.092-6.814-11.419-12.362-15.28c-0.812-0.565-1.642-1.11-2.509-1.611l-23.71-13.684
		l-22.198-12.81l-17.87-10.313L332.646,38.8l-26.659-15.386l-19.995-11.539l-12.39-7.151c-10.92-6.301-24.37-6.298-35.287,0.006
		l-12.307,7.108l-19.995,11.548l-26.659,15.398l0,0l-68.331,39.464L81.077,95.545l-22.191,12.818l-11.697,6.756
		c-0.841,0.486-1.648,1.015-2.439,1.562c-3.392,2.349-6.296,5.254-8.638,8.536c-1.572,2.206-2.883,4.585-3.911,7.092
		c-1.716,4.179-2.652,8.706-2.651,13.371l0.007,42.41l0.004,17.923l228.937,41.239L482.421,206.013z"/>
	<path style="fill:#82AFFF;" d="M482.441,323.909l-0.004-17.923L253.5,267.247L29.577,305.986l0.003,17.923l0.007,42.478v0.006
		c0.003,11.607,5.715,22.389,15.14,28.946c0.812,0.565,1.642,1.11,2.509,1.611l23.377,13.491l22.198,12.812l18.204,10.506
		l94.998,54.826l19.995,11.539l12.39,7.151c10.92,6.301,24.37,6.298,35.287-0.006l12.307-7.108l19.995-11.548l26.659-15.397
		l57.587-33.261l10.742-6.205l27.325-15.782l22.191-12.818l14.319-8.27c0.841-0.486,1.648-1.013,2.439-1.562
		c9.465-6.556,15.201-17.365,15.2-29.001L482.441,323.909z"/>
</g>
<polygon style="fill:#464655;" points="29.564,226.007 29.575,285.991 255.999,295.988 482.435,285.991 482.425,226.007 
	253.5,213.511 "/>
<g>
	<polygon style="fill:#F5F5F5;" points="482.425,226.007 482.423,215.254 482.421,206.013 29.561,206.013 29.562,215.254 
		29.564,226.007 	"/>
	<polygon style="fill:#F5F5F5;" points="482.438,305.985 482.436,296.745 482.435,285.991 29.575,285.991 29.576,296.732 
		29.576,296.745 29.576,296.75 29.577,305.985 	"/>
</g>
<g>
</g>
<g>
</g>
<g>
</g>
<g>
</g>
<g>
</g>
<g>
</g>
<g>
</g>
<g>
</g>
<g>
</g>
<g>
</g>
<g>
</g>
<g>
</g>
<g>
</g>
<g>
</g>
<g>
</g>
</svg>
