<?xml version="1.0" encoding="iso-8859-1"?>
<!-- Generator: Adobe Illustrator 19.0.0, SVG Export Plug-In . SVG Version: 6.00 Build 0)  -->
<svg version="1.1" id="Layer_1" xmlns="http://www.w3.org/2000/svg" xmlns:xlink="http://www.w3.org/1999/xlink" x="0px" y="0px"
	 viewBox="0 0 512.005 512.005" style="enable-background:new 0 0 512.005 512.005;" xml:space="preserve">
<path style="fill:#41479B;" d="M482.451,366.319l-0.008-42.41l-0.005-27.164l-0.014-81.491l-0.005-27.164l-0.008-42.486
	c0-3.105-0.422-6.147-1.202-9.07c-0.42-1.572-0.949-3.107-1.576-4.598c-2.568-6.092-6.814-11.419-12.362-15.28
	c-0.812-0.565-1.642-1.11-2.509-1.611l-23.71-13.684l-22.198-12.81l-17.87-10.313l-68.335-39.437l0,0L305.99,23.415l-19.995-11.539
	l-12.39-7.151c-10.918-6.302-24.37-6.3-35.287,0.006l-12.307,7.108l-19.995,11.548l-26.659,15.398v-0.001l-68.33,39.467
	L81.08,95.547l-22.191,12.818l-11.697,6.756c-0.841,0.486-1.648,1.015-2.439,1.562c-3.392,2.349-6.296,5.254-8.638,8.538
	c-1.572,2.206-2.883,4.585-3.911,7.092c-1.716,4.179-2.652,8.706-2.651,13.371l0.007,42.41l0.005,27.164l0.014,81.478v0.014v0.005
	l0.005,27.159l0.007,42.478v0.006c0.002,11.607,5.715,22.388,15.14,28.946c0.812,0.565,1.642,1.11,2.509,1.611l23.377,13.491
	l22.198,12.812l18.204,10.506l94.999,54.826l19.995,11.539l12.39,7.151c10.918,6.302,24.37,6.299,35.287-0.006l12.307-7.108
	l19.995-11.548l26.659-15.397l0,0l57.587-33.261l10.742-6.205l27.325-15.782l22.191-12.818l14.319-8.27
	c0.841-0.486,1.648-1.015,2.439-1.562C476.717,388.766,482.453,377.956,482.451,366.319L482.451,366.319L482.451,366.319z"/>
<g>
	<path style="fill:#FF4B55;" d="M418.858,88.555l-17.87-10.313l-41.206-23.781l-27.133-15.66L305.99,23.415l-19.995-11.539
		l-12.39-7.151c-10.92-6.302-24.37-6.3-35.287,0.006l-12.307,7.108l-19.995,11.548l-26.659,15.398v-0.001l-27.142,15.677
		l-41.189,23.79L81.08,95.547l-2.327,1.343H433.3L418.858,88.555z"/>
	<path style="fill:#FF4B55;" d="M78.704,415.111l14.109,8.143l18.204,10.506l41.205,23.781l53.793,31.045l19.995,11.539l12.39,7.151
		c10.918,6.302,24.37,6.3,35.287-0.006l12.307-7.108l19.995-11.548l26.659-15.397l27.141-15.676l30.447-17.585l10.742-6.205
		l27.325-15.782l4.949-2.858L78.704,415.111L78.704,415.111z"/>
</g>
<circle style="fill:#F5F5F5;" cx="256.011" cy="256.001" r="129.96"/>
<g>
	<path style="fill:#82AFFF;" d="M231.065,324.341l-20.05,3.342c-2.527,0.421-4.827-1.528-4.827-4.09v-7.544h24.877V324.341
		L231.065,324.341z"/>
	<path style="fill:#82AFFF;" d="M280.819,324.341l20.05,3.342c2.527,0.421,4.827-1.528,4.827-4.09v-7.544h-24.877L280.819,324.341
		L280.819,324.341z"/>
</g>
<g>
	<path style="fill:#965032;" d="M251.796,189.464h-1.733c-2.081,0-3.951-1.158-4.884-3.017l-3.067-6.135l2.782-1.393l3.067,6.135
		c0.401,0.801,1.206,1.3,2.102,1.3h1.733V189.464z"/>
	
		<rect x="215.105" y="187.348" transform="matrix(0.4472 0.8944 -0.8944 0.4472 291.0435 -93.113)" style="fill:#965032;" width="11.494" height="3.11"/>
	<path style="fill:#965032;" d="M261.643,237.271l-8.496-8.495c-1.846-1.847-2.905-4.401-2.905-7.013v-2.858
		c0-1.048-0.249-2.102-0.719-3.04l-2.118-4.235c-0.441-0.882-1.33-1.433-2.318-1.433h-7.313c-2.174,0-4.128-1.207-5.1-3.15l-3-6.001
		l2.782-1.393l3,6.001c0.441,0.882,1.33,1.433,2.318,1.433h7.313c2.174,0,4.128,1.206,5.1,3.15l2.118,4.235
		c0.685,1.372,1.047,2.903,1.047,4.434v2.858c0,1.793,0.727,3.547,1.994,4.81l3.189,3.19v-14.487c0-3.928-1.352-7.778-3.806-10.847
		c-2.893-3.62-4.486-8.159-4.486-12.791v-12.022h3.109v12.022c0,3.928,1.352,7.778,3.806,10.847
		c2.893,3.62,4.486,8.159,4.486,12.791v21.995h-0.001V237.271z"/>
	<path style="fill:#965032;" d="M254.245,229.229h-4.616c-2.847,0-5.424-1.793-6.416-4.458l-1.168-3.15l2.915-1.085l1.168,3.15
		c0.541,1.457,1.948,2.433,3.5,2.433h4.616L254.245,229.229L254.245,229.229z"/>
	
		<rect x="258.085" y="173.636" transform="matrix(0.915 0.4035 -0.4035 0.915 100.8847 -88.157)" style="fill:#965032;" width="3.11" height="43.371"/>
	<polygon style="fill:#965032;" points="274.081,210.195 259.051,210.195 259.051,207.085 270.972,207.085 270.972,192.056 
		274.081,192.056 	"/>
</g>
<g>
	<path style="fill:#73AF00;" d="M245.576,225.226h-12.439c-3.435,0-6.22-2.784-6.22-6.22l0,0c0-3.435,2.784-6.22,6.22-6.22h12.439
		c3.435,0,6.22,2.784,6.22,6.22l0,0C251.796,222.44,249.011,225.226,245.576,225.226z"/>
	<path style="fill:#73AF00;" d="M274.599,225.226H262.16c-3.435,0-6.22-2.784-6.22-6.22l0,0c0-3.435,2.784-6.22,6.22-6.22h12.439
		c3.435,0,6.22,2.784,6.22,6.22l0,0C280.819,222.44,278.035,225.226,274.599,225.226z"/>
	<path style="fill:#73AF00;" d="M287.039,212.786h-16.585c-3.435,0-6.22-2.784-6.22-6.22l0,0c0-3.435,2.784-6.22,6.22-6.22h16.584
		c3.435,0,6.22,2.784,6.22,6.22l0,0C293.257,210.002,290.473,212.786,287.039,212.786z"/>
	<path style="fill:#73AF00;" d="M291.185,196.201h-29.023c-3.435,0-6.22-2.784-6.22-6.22l0,0c0-3.435,2.784-6.22,6.22-6.22h29.023
		c3.435,0,6.22,2.784,6.22,6.22l0,0C297.403,193.417,294.619,196.201,291.185,196.201z"/>
	<path style="fill:#73AF00;" d="M274.599,179.617h-8.293c-3.435,0-6.22-2.784-6.22-6.22l0,0c0-3.435,2.784-6.22,6.22-6.22h8.293
		c3.435,0,6.22,2.784,6.22,6.22l0,0C280.819,176.832,278.035,179.617,274.599,179.617z"/>
	<path style="fill:#73AF00;" d="M220.699,187.909h-4.146c-3.435,0-6.22-2.784-6.22-6.22l0,0c0-3.435,2.784-6.22,6.22-6.22h4.146
		c3.435,0,6.22,2.784,6.22,6.22l0,0C226.919,185.125,224.135,187.909,220.699,187.909z"/>
	<path style="fill:#73AF00;" d="M249.723,183.763h-12.439c-3.435,0-6.22-2.784-6.22-6.22l0,0c0-3.435,2.784-6.22,6.22-6.22h12.439
		c3.435,0,6.22,2.784,6.22,6.22l0,0C255.942,180.979,253.158,183.763,249.723,183.763z"/>
	<path style="fill:#73AF00;" d="M245.576,204.494h-24.877c-3.435,0-6.22-2.784-6.22-6.22l0,0c0-3.435,2.784-6.22,6.22-6.22h24.877
		c3.435,0,6.22,2.784,6.22,6.22l0,0C251.796,201.709,249.011,204.494,245.576,204.494z"/>
	<path style="fill:#73AF00;" d="M318.135,291.171H193.749c-4.58,0-8.293,3.713-8.293,8.293s3.713,8.293,8.293,8.293h33.17
		c0,4.579,3.713,8.293,8.293,8.293h41.462c4.58,0,8.293-3.713,8.293-8.293h33.17c4.58,0,8.293-3.713,8.293-8.293
		C326.427,294.884,322.714,291.171,318.135,291.171z"/>
</g>
<path style="fill:#BE7855;" d="M338.607,217.576c-0.31-0.622-1.927,0.116-2.937-0.259c-12.525-4.656-29.343-13.138-40.335-18.921
	l-2.207-3.494l-20.836-10.127c-1.326-0.645-2.924-0.149-3.653,1.132l-1.027,1.806c-0.784,1.378-0.266,3.132,1.14,3.863l19.84,10.322
	l5.606-0.415l21.79,11.203c0,0,14.805,7.573,15.592,8.129s1.238,3.671,2.707,3.412C335.338,224.042,339.947,220.271,338.607,217.576
	z"/>
<g>
	<path style="fill:#FFBE3C;" d="M201.177,297.391c0,0,1.382,6.133,0.086,6.824s-8.207,0.691-8.033-0.777
		c0.172-1.468,1.123-6.651,1.123-6.651L201.177,297.391z"/>
	<path style="fill:#FFBE3C;" d="M212.666,294.108c0,0-1.123,4.578,1.123,4.751c2.246,0.172,14.943,0.086,15.29-0.259
		c0.346-0.345,0.777-1.21,0.777-1.21l-11.748-3.283L212.666,294.108L212.666,294.108z"/>
</g>
<path style="fill:#EAF3F5;" d="M199.774,237.012c0,0-3.088,7.342-4.211,32.781c-0.299,6.768,0.519,5.182-2.85,26.95l3.998,2.087
	c1.165,0.607,2.562,0.564,3.685-0.117l3.891-2.358c0,0-1.901-24.358,4.319-38.352c0,0,3.283,6.047,3.283,10.538
	s-0.172,26.087-0.172,26.087s7.256,1.21,10.538,0.863c0,0-2.073-46.861-4.146-57.895L199.774,237.012z"/>
<g>
	<path style="fill:#965032;" d="M200.357,233.902c0,0-1.231,0.907-0.584,3.109c0,0,9.459,4.081,18.334,0.584
		c0,0,0.972-1.426-0.259-3.174L200.357,233.902z"/>
	<path style="fill:#965032;" d="M187.702,211.443c-5.382,2.001-13.561,6.997-13.043,10.969c0.519,3.974,3.334,3.004,4.213,2.028
		s3.4-4.106,4.188-4.662s13.519-7.093,13.519-7.093l33.71-17.332c0,0,0.259-1.685-1.75-3.044
		C228.538,192.311,207.915,203.929,187.702,211.443z"/>
</g>
<path style="fill:#FFBE3C;" d="M203.596,191.922l-0.195,1.426c0,0-0.519,9.135,2.462,11.597c0,0,0.649,1.878-0.389,2.785
	c-1.036,0.907-11.272,6.09-11.272,6.09s-2.657,5.506-2.592,8.616c0,0-2.527-0.972-2.267-2.203c0.259-1.231,1.75-4.47,1.296-6.025
	s-2.138-1.101-2.138-1.101s-0.842,0.907,0.519,1.49l-0.454,1.943l-5.507,3.239l1.231,1.49c0,0,0.065,11.402,6.802,12.891
	c0,0,3.563,0.259,7.774-7.774c0,0,2.267,4.016,1.49,7.515c0,0,7.385,4.016,17.491,0.519l0.13-6.997c0,0,1.555,10.755,6.867,9.717
	c0,0,14.716-5.665,12.265-7.818c-5.701-5.01-12.585-0.776-12.585-0.776c-0.334-7.278-0.943-16.69-1.883-17.709
	c-1.555-1.685-6.348-0.777-7.299-2.937c-0.95-2.159-0.691-5.96,0.345-10.366c1.036-4.405-4.233-7.515-4.233-7.515L203.596,191.922z"
	/>
<path style="fill:#464655;" d="M203.401,193.347c0,0,5.291,1.338,9.437-0.302l1.813,4.491h1.036c0,0,2.498-8.313-0.82-8.215
	c0,0-0.012-2.699-5.805-2.586C204.09,186.834,202.365,190.065,203.401,193.347z"/>
<g>
	<path style="fill:#965032;" d="M311.389,297.391c0,0-1.382,6.133-0.086,6.824s8.207,0.691,8.033-0.777
		c-0.172-1.468-1.123-6.651-1.123-6.651L311.389,297.391z"/>
	<path style="fill:#965032;" d="M299.901,294.108c0,0,1.123,4.578-1.123,4.751c-2.246,0.172-14.943,0.086-15.29-0.259
		c-0.345-0.345-0.777-1.21-0.777-1.21l11.748-3.283L299.901,294.108L299.901,294.108z"/>
</g>
<path style="fill:#EAF3F5;" d="M312.793,237.012c0,0,3.088,7.342,4.211,32.781c0.299,6.768-0.519,5.182,2.85,26.95l-3.998,2.087
	c-1.165,0.607-2.562,0.564-3.685-0.117l-3.891-2.358c0,0,1.901-24.358-4.319-38.352c0,0-3.283,6.047-3.283,10.538
	s0.172,26.087,0.172,26.087s-7.256,1.21-10.538,0.863c0,0,2.073-46.861,4.146-57.895L312.793,237.012z"/>
<path style="fill:#BE7855;" d="M312.21,233.902c0,0,1.231,0.907,0.584,3.109c0,0-9.459,4.081-18.334,0.584
	c0,0-0.972-1.426,0.259-3.174L312.21,233.902z"/>
<path style="fill:#965032;" d="M308.971,191.922l0.195,1.426c0,0,0.519,9.135-2.462,11.597c0,0-0.647,1.878,0.389,2.785
	s11.273,6.09,11.273,6.09s2.657,5.506,2.592,8.616c0,0,2.527-0.972,2.268-2.203s-1.75-4.47-1.296-6.025s2.138-1.101,2.138-1.101
	s0.842,0.907-0.519,1.49l0.454,1.943l5.506,3.239l-1.231,1.49c0,0-0.065,11.402-6.802,12.891c0,0-3.563,0.259-7.774-7.774
	c0,0-2.267,4.016-1.49,7.515c0,0-7.385,4.016-17.491,0.519l-0.13-6.997c0,0-1.555,10.755-6.867,9.717c0,0-14.716-5.665-12.265-7.818
	c5.701-5.01,12.585-0.776,12.585-0.776c0.334-7.278,0.942-16.69,1.883-17.709c1.555-1.685,6.348-0.777,7.299-2.937
	c0.95-2.159,0.691-5.96-0.345-10.366c-1.036-4.405,4.233-7.515,4.233-7.515L308.971,191.922z"/>
<path style="fill:#464655;" d="M309.165,193.347c0,0-5.291,1.338-9.437-0.302l-1.814,4.491h-1.036c0,0-2.498-8.313,0.819-8.215
	c0,0,0.012-2.699,5.805-2.586C308.478,186.834,310.202,190.065,309.165,193.347z"/>
<path style="fill:#EAF3F5;" d="M220.284,196.81c-0.432-1.052,0.292-1.341,0.292-1.341s5.244-2.878,5.853-2.829
	c1.008,0.081,2.244,1.853,2.244,3.365s1.969,5.437,6.018,6.413c0,0-5.054,6.867-12.067,5.928
	C222.626,208.345,223.096,203.648,220.284,196.81z"/>
<path style="fill:#82AFFF;" d="M227.634,228.978c-1.553,0-2.813,1.343-2.813,3v34.314c0,8.293,3.888,37.316,31.096,45.609
	c27.209-8.293,31.096-37.316,31.096-45.609v-34.314c0-1.657-1.26-3-2.813-3L227.634,228.978L227.634,228.978z"/>
<path style="fill:#FFE15A;" d="M287.014,266.294V231.98c0-1.657-1.26-3-2.813-3h-28.284v29.023l27.333,27.333
	C286.276,277.347,287.014,269.881,287.014,266.294z"/>
<path style="fill:#EAF3F5;" d="M224.821,266.294V231.98c0-1.657,1.26-3,2.813-3h28.284v29.023l-27.333,27.333
	C225.558,277.347,224.821,269.881,224.821,266.294z"/>
<polygon style="fill:#8C5A28;" points="237.58,284.447 244.774,292.056 264.815,292.056 269.064,286.611 264.176,288.566 
	247.982,288.566 "/>
<path style="fill:#F5F5F5;" d="M245.329,274.628l-1.098,11.076l-4.999-1.908C239.232,283.796,241.531,278.457,245.329,274.628z"/>
<g>
	<rect x="255.191" y="270.241" style="fill:#8C5A28;" width="0.739" height="18.857"/>
	<rect x="262.031" y="271.841" style="fill:#8C5A28;" width="0.739" height="17.265"/>
	<rect x="248.381" y="271.841" style="fill:#8C5A28;" width="0.739" height="17.265"/>
</g>
<g>
	<path style="fill:#F5F5F5;" d="M258.057,287.31h-4.986c-0.339,0-0.614-0.275-0.614-0.614v-2.752c0-0.339,0.275-0.614,0.614-0.614
		h4.986c0.339,0,0.614,0.275,0.614,0.614v2.752C258.67,287.035,258.395,287.31,258.057,287.31z"/>
	<path style="fill:#F5F5F5;" d="M258.057,282.004h-4.986c-0.339,0-0.614-0.275-0.614-0.614v-2.752c0-0.339,0.275-0.614,0.614-0.614
		h4.986c0.339,0,0.614,0.275,0.614,0.614v2.752C258.67,281.729,258.395,282.004,258.057,282.004z"/>
	<path style="fill:#F5F5F5;" d="M258.057,277.118h-4.986c-0.339,0-0.614-0.275-0.614-0.614v-2.752c0-0.339,0.275-0.614,0.614-0.614
		h4.986c0.339,0,0.614,0.275,0.614,0.614v2.752C258.67,276.843,258.395,277.118,258.057,277.118z"/>
	<path style="fill:#F5F5F5;" d="M264.472,287.31h-4.149c-0.339,0-0.614-0.275-0.614-0.614v-2.752c0-0.339,0.275-0.614,0.614-0.614
		h4.149c0.339,0,0.614,0.275,0.614,0.614v2.752C265.086,287.035,264.811,287.31,264.472,287.31z"/>
	<path style="fill:#F5F5F5;" d="M264.472,282.425h-4.149c-0.339,0-0.614-0.275-0.614-0.614v-2.128c0-0.339,0.275-0.614,0.614-0.614
		h4.149c0.339,0,0.614,0.275,0.614,0.614v2.128C265.086,282.15,264.811,282.425,264.472,282.425z"/>
	<path style="fill:#F5F5F5;" d="M264.472,277.582h-4.149c-0.339,0-0.614-0.275-0.614-0.614v-1.59c0-0.339,0.275-0.614,0.614-0.614
		h4.149c0.339,0,0.614,0.275,0.614,0.614v1.59C265.086,277.308,264.811,277.582,264.472,277.582z"/>
	<path style="fill:#F5F5F5;" d="M250.823,287.31h-4.149c-0.339,0-0.614-0.275-0.614-0.614v-2.752c0-0.339,0.275-0.614,0.614-0.614
		h4.149c0.339,0,0.614,0.275,0.614,0.614v2.752C251.437,287.035,251.162,287.31,250.823,287.31z"/>
	<path style="fill:#F5F5F5;" d="M250.823,282.425h-4.149c-0.339,0-0.614-0.275-0.614-0.614v-2.128c0-0.339,0.275-0.614,0.614-0.614
		h4.149c0.339,0,0.614,0.275,0.614,0.614v2.128C251.437,282.15,251.162,282.425,250.823,282.425z"/>
	<path style="fill:#F5F5F5;" d="M250.823,277.582h-4.149c-0.339,0-0.614-0.275-0.614-0.614v-1.59c0-0.339,0.275-0.614,0.614-0.614
		h4.149c0.339,0,0.614,0.275,0.614,0.614v1.59C251.437,277.308,251.162,277.582,250.823,277.582z"/>
</g>
<g>
	<polygon style="fill:#FF4B55;" points="262.025,271.838 262.025,274.068 258.741,272.932 	"/>
	<polygon style="fill:#FF4B55;" points="248.387,271.838 248.387,274.068 245.103,272.932 	"/>
	<polygon style="fill:#FF4B55;" points="255.219,270.234 255.219,272.465 251.936,271.329 	"/>
</g>
<path style="fill:#4173CD;" d="M280.597,291.171h-49.359c0.735,1.398,1.541,2.783,2.446,4.146h44.467
	C279.056,293.954,279.862,292.57,280.597,291.171z"/>
<path style="fill:#73AF00;" d="M278.151,295.318h-44.467l0,0c1.963,2.955,4.371,5.763,7.257,8.293h29.952
	C273.78,301.081,276.187,298.273,278.151,295.318L278.151,295.318z"/>
<path style="fill:#FFE15A;" d="M240.941,303.61c3.979,3.487,8.861,6.429,14.976,8.293c6.115-1.863,10.997-4.806,14.976-8.293
	H240.941z"/>
<path style="fill:#BE7855;" d="M250.591,260.438c0,0-0.304,0.106-0.63,0.069c-0.252-0.109-0.769-0.125-0.457-1.082
	c0.151-0.475,0.469-1.145,0.239-1.317c-0.186-0.216-0.387-0.45-0.604-0.699c-0.431-0.499-0.916-1.062-1.447-1.676
	c-1.09-1.201-2.381-2.581-3.886-3.941c-0.751-0.682-1.527-1.387-2.317-2.103c-0.817-0.689-1.572-1.461-2.462-2.103
	c-0.504-0.265-1.143-0.397-1.703-0.605c-0.546-0.22-0.889-0.635-1.288-0.987c-0.782-0.722-1.552-1.433-2.297-2.122
	c-1.513-1.355-2.842-2.698-3.978-3.853c-1.102-1.102-1.993-2.059-2.621-2.758c-0.599-0.665-0.561-1.676,0.082-2.297l1.842-1.778
	c0.644-0.621,1.656-0.622,2.298-0.001c0.675,0.652,1.601,1.577,2.662,2.718c1.113,1.177,2.409,2.553,3.708,4.113
	c0.661,0.77,1.343,1.565,2.038,2.372c0.337,0.412,0.74,0.769,0.941,1.322c0.187,0.566,0.297,1.211,0.544,1.723
	c0.61,0.912,1.353,1.695,2.013,2.536c0.687,0.814,1.363,1.615,2.018,2.389c1.306,1.553,2.639,2.893,3.8,4.024
	c0.595,0.552,1.14,1.057,1.623,1.506c0.241,0.224,0.467,0.434,0.676,0.629c0.165,0.236,0.846-0.057,1.326-0.191
	c0.968-0.277,0.966,0.24,1.066,0.496c0.025,0.327-0.091,0.627-0.091,0.627L250.591,260.438z"/>
<path style="fill:#965032;" d="M230.285,263.702c-0.32,0-0.642-0.097-0.921-0.304c-0.69-0.51-0.839-1.482-0.327-2.174l14.771-20.038
	c0.509-0.689,1.476-0.842,2.174-0.327c0.691,0.51,0.839,1.482,0.327,2.174l-14.771,20.038
	C231.235,263.484,230.763,263.702,230.285,263.702z"/>
<polygon style="fill:#F5F5F5;" points="242.121,239.863 249.809,244.959 253.092,240.38 245.922,234.593 "/>
<path style="fill:#965032;" d="M262.55,237.892l19.701,24.295c0,0,2.769,0.126,2.392-2.077l-20.392-23.917L262.55,237.892z"/>
<path style="fill:#EAF3F5;" d="M258.144,241.227c0,0,5.539-1.007,7.868-4.469l3.147,3.714c0,0-5.161,3.65-5.665,7.615
	C263.494,248.088,259.277,246.956,258.144,241.227z"/>
<g>
	<path style="fill:#965032;" d="M279.418,238.836c-0.362,0-0.71-0.196-0.891-0.539c-0.561-1.062-0.657-2.022-0.287-2.855
		c0.517-1.168,1.735-1.511,1.871-1.546c0.549-0.122,1.087,0.189,1.227,0.724c0.137,0.535-0.181,1.082-0.714,1.223
		c-0.112,0.035-0.442,0.181-0.547,0.421c-0.099,0.236-0.016,0.626,0.232,1.097c0.26,0.491,0.071,1.101-0.422,1.361
		C279.737,238.801,279.578,238.836,279.418,238.836z"/>
	<path style="fill:#965032;" d="M263.234,253.825c0-0.362-0.196-0.71-0.539-0.891c-1.062-0.561-2.022-0.657-2.855-0.287
		c-1.168,0.517-1.511,1.735-1.546,1.871c-0.122,0.549,0.189,1.087,0.724,1.227c0.535,0.137,1.082-0.181,1.223-0.714
		c0.035-0.112,0.181-0.442,0.421-0.547c0.236-0.099,0.626-0.016,1.097,0.232c0.492,0.26,1.101,0.071,1.361-0.422
		C263.198,254.144,263.234,253.984,263.234,253.825z"/>
</g>
<polygon style="fill:#EAF3F5;" points="280.089,236.57 261.543,254.781 265.907,259.649 284.034,241.354 "/>
<path style="fill:#FFBE3C;" d="M185.889,210.321c1.242-0.287,2.332,1.382,1.21,2.592s-4.368,3.394-5.356,3.195
	C180.014,215.763,178.806,211.962,185.889,210.321z"/>
<path style="fill:#965032;" d="M326.607,212.07c-1.152-0.287-2.162,1.382-1.121,2.592c1.041,1.21,4.05,3.394,4.966,3.195
	C332.054,217.511,333.175,213.711,326.607,212.07z"/>
<path style="fill:#464655;" d="M284.201,228.978c1.553,0,2.813,1.343,2.813,3v34.314c0,8.293-3.888,37.316-31.097,45.609
	c-27.209-8.293-31.096-37.316-31.096-45.609v-34.314c0-1.657,1.26-3,2.813-3L284.201,228.978 M284.201,226.905h-56.566
	c-2.694,0-4.886,2.276-4.886,5.074v34.314c0,1.981,0.267,12.434,5.541,23.685c5.607,11.96,14.952,20.227,27.025,23.907l0.604,0.184
	l0.605-0.184c12.073-3.68,21.418-11.945,27.025-23.907c5.274-11.251,5.541-21.703,5.541-23.685v-34.314
	C289.087,229.182,286.895,226.905,284.201,226.905L284.201,226.905z"/>
<path style="fill:#EAF3F5;" d="M305.696,312.388c-8.81-2.953-18.263-1.59-27.176,4.356c-11.394,7.595-18.947,7.595-22.578,7.595
	c-3.63,0-11.183,0-22.578-7.595c-8.913-5.943-18.369-7.308-27.176-4.358v8.888c5.551-2.653,13.376-3.764,22.578,2.368
	c13.484,8.989,23.08,8.989,27.178,8.989c4.098,0,13.694,0,27.176-8.989c9.201-6.138,17.027-5.025,22.578-2.369v-8.885H305.696z"/>
<path style="fill:#965032;" d="M255.942,359.584c-58.298,0-105.727-47.431-105.727-105.727c0-58.298,47.43-105.727,105.727-105.727
	s105.727,47.43,105.727,105.727C361.669,312.153,314.24,359.584,255.942,359.584z M255.942,152.274
	c-56.012,0-101.582,45.568-101.582,101.582s45.57,101.582,101.582,101.582s101.582-45.568,101.582-101.582
	C357.523,197.842,311.954,152.274,255.942,152.274z"/>
<g>
	<path style="fill:#73AF00;" d="M140.28,262.666c0,0-0.432-12.956,12.007-12.956c0,0,0.259,5.096-4.233,7.342
		C144.423,258.868,140.28,262.666,140.28,262.666z"/>
	<path style="fill:#73AF00;" d="M164.296,262.666c0,0,0.432-12.956-12.007-12.956c0,0-0.259,5.096,4.233,7.342
		C160.155,258.868,164.296,262.666,164.296,262.666z"/>
	<path style="fill:#73AF00;" d="M371.517,249.71c0,0,0.432,12.956-12.007,12.956c0,0-0.259-5.096,4.233-7.342
		C367.375,253.508,371.517,249.71,371.517,249.71z"/>
	<path style="fill:#73AF00;" d="M347.501,249.71c0,0-0.432,12.956,12.007,12.956c0,0,0.259-5.096-4.233-7.342
		C351.642,253.508,347.501,249.71,347.501,249.71z"/>
	<path style="fill:#73AF00;" d="M262.377,371.807c0,0-12.956,0.432-12.956-12.007c0,0,5.096-0.259,7.342,4.233
		C258.579,367.664,262.377,371.807,262.377,371.807z"/>
	<path style="fill:#73AF00;" d="M262.377,347.789c0,0-12.956-0.432-12.956,12.007c0,0,5.096,0.259,7.342-4.233
		C258.579,351.932,262.377,347.789,262.377,347.789z"/>
	<path style="fill:#73AF00;" d="M249.42,140.57c0,0,12.956-0.432,12.956,12.007c0,0-5.096,0.259-7.342-4.233
		C253.219,144.711,249.42,140.57,249.42,140.57z"/>
	<path style="fill:#73AF00;" d="M249.42,164.586c0,0,12.956,0.432,12.956-12.007c0,0-5.096-0.259-7.342,4.233
		C253.219,160.443,249.42,164.586,249.42,164.586z"/>
	<path style="fill:#73AF00;" d="M178.724,342.523c0,0-9.467-8.856-0.672-17.651c0,0,3.786,3.42,2.198,8.184
		C178.968,336.909,178.724,342.523,178.724,342.523z"/>
	<path style="fill:#73AF00;" d="M195.707,325.542c0,0-8.856-9.467-17.651-0.672c0,0,3.42,3.786,8.184,2.198
		C190.093,325.784,195.707,325.542,195.707,325.542z"/>
	<path style="fill:#73AF00;" d="M333.072,169.852c0,0,9.467,8.856,0.672,17.651c0,0-3.786-3.42-2.199-8.184
		C332.83,175.468,333.072,169.852,333.072,169.852z"/>
	<path style="fill:#73AF00;" d="M316.091,186.835c0,0,8.856,9.467,17.651,0.672c0,0-3.42-3.786-8.184-2.199
		C321.705,186.591,316.091,186.835,316.091,186.835z"/>
	<path style="fill:#73AF00;" d="M342.233,333.361c0,0-8.856,9.467-17.651,0.672c0,0,3.42-3.786,8.184-2.199
		C336.619,333.118,342.233,333.361,342.233,333.361z"/>
	<path style="fill:#73AF00;" d="M325.252,316.379c0,0-9.467,8.856-0.672,17.651c0,0,3.786-3.42,2.199-8.184
		C325.494,321.994,325.252,316.379,325.252,316.379z"/>
	<path style="fill:#73AF00;" d="M169.563,179.014c0,0,8.856-9.467,17.651-0.672c0,0-3.42,3.786-8.184,2.199
		C175.178,179.257,169.563,179.014,169.563,179.014z"/>
	<path style="fill:#73AF00;" d="M186.545,195.996c0,0,9.467-8.856,0.672-17.651c0,0-3.786,3.42-2.198,8.184
		C186.302,190.381,186.545,195.996,186.545,195.996z"/>
	<path style="fill:#73AF00;" d="M151.561,306.418c0,0-5.357-11.806,6.135-16.565c0,0,2.189,4.609-1.101,8.403
		C153.934,301.323,151.561,306.418,151.561,306.418z"/>
	<path style="fill:#73AF00;" d="M173.748,297.228c0,0-4.559-12.135-16.051-7.375c0,0,1.711,4.807,6.721,5.164
		C168.468,295.304,173.748,297.228,173.748,297.228z"/>
	<path style="fill:#73AF00;" d="M360.237,205.957c0,0,5.357,11.806-6.135,16.565c0,0-2.189-4.61,1.101-8.403
		C357.863,211.052,360.237,205.957,360.237,205.957z"/>
	<path style="fill:#73AF00;" d="M338.048,215.148c0,0,4.559,12.135,16.051,7.375c0,0-1.711-4.807-6.721-5.164
		C343.329,217.073,338.048,215.148,338.048,215.148z"/>
	<path style="fill:#73AF00;" d="M306.13,360.526c0,0-11.806,5.357-16.565-6.135c0,0,4.609-2.189,8.403,1.101
		C301.035,358.153,306.13,360.526,306.13,360.526z"/>
	<path style="fill:#73AF00;" d="M296.938,338.338c0,0-12.135,4.559-7.375,16.051c0,0,4.807-1.711,5.164-6.721
		C295.014,343.618,296.938,338.338,296.938,338.338z"/>
	<path style="fill:#73AF00;" d="M205.668,151.849c0,0,11.806-5.357,16.565,6.135c0,0-4.609,2.189-8.403-1.101
		C210.763,154.222,205.668,151.849,205.668,151.849z"/>
	<path style="fill:#73AF00;" d="M214.858,174.038c0,0,12.135-4.559,7.375-16.051c0,0-4.807,1.711-5.164,6.721
		C216.783,168.757,214.858,174.038,214.858,174.038z"/>
	<path style="fill:#73AF00;" d="M217.639,365.485c0,0-12.135-4.559-7.375-16.051c0,0,4.807,1.711,5.164,6.721
		C215.714,360.204,217.639,365.485,217.639,365.485z"/>
	<path style="fill:#73AF00;" d="M226.829,343.297c0,0-11.806-5.357-16.565,6.135c0,0,4.609,2.189,8.403-1.101
		C221.735,345.67,226.829,343.297,226.829,343.297z"/>
	<path style="fill:#73AF00;" d="M294.158,146.892c0,0,12.135,4.559,7.375,16.051c0,0-4.807-1.711-5.164-6.721
		C296.082,152.172,294.158,146.892,294.158,146.892z"/>
	<path style="fill:#73AF00;" d="M284.968,169.08c0,0,11.806,5.357,16.565-6.135c0,0-4.61-2.189-8.403,1.101
		C290.063,166.707,284.968,169.08,284.968,169.08z"/>
	<path style="fill:#73AF00;" d="M365.195,294.448c0,0-4.559,12.135-16.051,7.375c0,0,1.711-4.807,6.721-5.164
		C359.915,296.372,365.195,294.448,365.195,294.448z"/>
	<path style="fill:#73AF00;" d="M343.007,285.258c0,0-5.357,11.806,6.135,16.565c0,0,2.189-4.609-1.101-8.403
		C345.38,290.351,343.007,285.258,343.007,285.258z"/>
	<path style="fill:#73AF00;" d="M146.602,217.927c0,0,4.559-12.135,16.051-7.375c0,0-1.711,4.807-6.721,5.164
		C151.883,216.003,146.602,217.927,146.602,217.927z"/>
	<path style="fill:#73AF00;" d="M168.79,227.119c0,0,5.357-11.806-6.135-16.565c0,0-2.189,4.61,1.101,8.403
		C166.417,222.024,168.79,227.119,168.79,227.119z"/>
	<path style="fill:#73AF00;" d="M143.765,285.098c0,0-2.952-12.624,9.249-15.051c0,0,1.248,4.947-2.719,8.027
		C147.087,280.564,143.765,285.098,143.765,285.098z"/>
	<path style="fill:#73AF00;" d="M167.32,280.413c0,0-2.104-12.792-14.304-10.366c0,0,0.74,5.049,5.583,6.376
		C162.516,277.495,167.32,280.413,167.32,280.413z"/>
	<path style="fill:#73AF00;" d="M368.031,227.277c0,0,2.952,12.624-9.249,15.051c0,0-1.248-4.947,2.719-8.027
		C364.71,231.811,368.031,227.277,368.031,227.277z"/>
	<path style="fill:#73AF00;" d="M344.477,231.964c0,0,2.104,12.793,14.304,10.366c0,0-0.74-5.049-5.583-6.376
		C349.28,234.88,344.477,231.964,344.477,231.964z"/>
	<path style="fill:#73AF00;" d="M284.808,368.321c0,0-12.624,2.952-15.051-9.249c0,0,4.947-1.248,8.027,2.719
		C280.275,365,284.808,368.321,284.808,368.321z"/>
	<path style="fill:#73AF00;" d="M280.123,344.767c0,0-12.793,2.104-10.366,14.304c0,0,5.049-0.74,6.376-5.583
		C277.206,349.57,280.123,344.767,280.123,344.767z"/>
	<path style="fill:#73AF00;" d="M226.989,144.055c0,0,12.624-2.952,15.051,9.249c0,0-4.947,1.248-8.027-2.719
		C231.522,147.377,226.989,144.055,226.989,144.055z"/>
	<path style="fill:#73AF00;" d="M231.674,167.61c0,0,12.791-2.104,10.366-14.304c0,0-5.049,0.74-6.376,5.583
		C234.592,162.806,231.674,167.61,231.674,167.61z"/>
	<path style="fill:#73AF00;" d="M197.051,355.92c0,0-11.013-6.839-4.103-17.182c0,0,4.381,2.616,3.754,7.598
		C196.193,350.366,197.051,355.92,197.051,355.92z"/>
	<path style="fill:#73AF00;" d="M210.393,335.951c0,0-10.533-7.558-17.444,2.784c0,0,4.094,3.047,8.456,0.56
		C204.934,337.285,210.393,335.951,210.393,335.951z"/>
	<path style="fill:#73AF00;" d="M314.746,156.456c0,0,11.013,6.839,4.103,17.182c0,0-4.381-2.616-3.753-7.598
		C315.603,162.01,314.746,156.456,314.746,156.456z"/>
	<path style="fill:#73AF00;" d="M301.403,176.424c0,0,10.533,7.558,17.444-2.784c0,0-4.094-3.047-8.456-0.56
		C306.863,175.09,301.403,176.424,301.403,176.424z"/>
	<path style="fill:#73AF00;" d="M355.631,315.036c0,0-6.839,11.013-17.182,4.103c0,0,2.616-4.381,7.598-3.754
		C350.076,315.893,355.631,315.036,355.631,315.036z"/>
	<path style="fill:#73AF00;" d="M335.663,301.693c0,0-7.558,10.533,2.784,17.444c0,0,3.047-4.094,0.56-8.456
		C336.996,307.152,335.663,301.693,335.663,301.693z"/>
	<path style="fill:#73AF00;" d="M156.166,197.341c0,0,6.839-11.013,17.182-4.103c0,0-2.616,4.381-7.598,3.753
		C161.72,196.483,156.166,197.341,156.166,197.341z"/>
	<path style="fill:#73AF00;" d="M176.135,210.683c0,0,7.558-10.533-2.784-17.444c0,0-3.047,4.094-0.56,8.456
		C174.802,205.223,176.135,210.683,176.135,210.683z"/>
	<path style="fill:#73AF00;" d="M163.365,325.809c0,0-7.558-10.533,2.784-17.444c0,0,3.047,4.094,0.56,8.456
		C164.698,320.349,163.365,325.809,163.365,325.809z"/>
	<path style="fill:#73AF00;" d="M183.333,312.465c0,0-6.839-11.013-17.182-4.103c0,0,2.616,4.381,7.598,3.753
		C177.778,311.609,183.333,312.465,183.333,312.465z"/>
	<path style="fill:#73AF00;" d="M348.432,186.567c0,0,7.558,10.533-2.784,17.444c0,0-3.047-4.094-0.56-8.456
		C347.098,192.027,348.432,186.567,348.432,186.567z"/>
	<path style="fill:#73AF00;" d="M328.463,199.91c0,0,6.839,11.013,17.182,4.103c0,0-2.616-4.381-7.598-3.753
		C334.018,200.767,328.463,199.91,328.463,199.91z"/>
	<path style="fill:#73AF00;" d="M325.519,348.722c0,0-10.533,7.558-17.444-2.784c0,0,4.094-3.047,8.456-0.56
		C320.06,347.388,325.519,348.722,325.519,348.722z"/>
	<path style="fill:#73AF00;" d="M312.177,328.753c0,0-11.013,6.839-4.103,17.182c0,0,4.381-2.616,3.753-7.598
		C311.319,334.307,312.177,328.753,312.177,328.753z"/>
	<path style="fill:#73AF00;" d="M186.277,163.654c0,0,10.533-7.558,17.444,2.784c0,0-4.094,3.047-8.456,0.56
		C191.737,164.988,186.277,163.654,186.277,163.654z"/>
	<path style="fill:#73AF00;" d="M199.62,183.623c0,0,11.013-6.839,4.103-17.182c0,0-4.381,2.616-3.753,7.598
		C200.477,178.068,199.62,183.623,199.62,183.623z"/>
	<path style="fill:#73AF00;" d="M239.697,370.848c0,0-12.792-2.104-10.366-14.304c0,0,5.049,0.74,6.376,5.583
		C236.779,366.044,239.697,370.848,239.697,370.848z"/>
	<path style="fill:#73AF00;" d="M244.381,347.293c0,0-12.624-2.952-15.051,9.249c0,0,4.947,1.248,8.027-2.719
		C239.848,350.615,244.381,347.293,244.381,347.293z"/>
	<path style="fill:#73AF00;" d="M272.1,141.527c0,0,12.791,2.104,10.366,14.304c0,0-5.049-0.74-6.376-5.583
		C275.018,146.331,272.1,141.527,272.1,141.527z"/>
	<path style="fill:#73AF00;" d="M267.415,165.082c0,0,12.624,2.952,15.051-9.249c0,0-4.947-1.248-8.027,2.719
		C271.949,161.76,267.415,165.082,267.415,165.082z"/>
	<path style="fill:#73AF00;" d="M370.56,272.39c0,0-2.104,12.792-14.304,10.366c0,0,0.74-5.049,5.583-6.376
		C365.756,275.308,370.56,272.39,370.56,272.39z"/>
	<path style="fill:#73AF00;" d="M347.005,267.705c0,0-2.952,12.624,9.249,15.051c0,0,1.248-4.947-2.719-8.027
		C350.326,272.239,347.005,267.705,347.005,267.705z"/>
	<path style="fill:#73AF00;" d="M141.238,239.986c0,0,2.104-12.793,14.304-10.366c0,0-0.74,5.049-5.583,6.376
		C146.042,237.069,141.238,239.986,141.238,239.986z"/>
	<path style="fill:#73AF00;" d="M164.792,244.671c0,0,2.952-12.624-9.249-15.051c0,0-1.248,4.947,2.719,8.027
		C161.472,240.138,164.792,244.671,164.792,244.671z"/>
</g>
<g>
</g>
<g>
</g>
<g>
</g>
<g>
</g>
<g>
</g>
<g>
</g>
<g>
</g>
<g>
</g>
<g>
</g>
<g>
</g>
<g>
</g>
<g>
</g>
<g>
</g>
<g>
</g>
<g>
</g>
</svg>
