<?xml version="1.0" encoding="iso-8859-1"?>
<!-- Generator: Adobe Illustrator 19.0.0, SVG Export Plug-In . SVG Version: 6.00 Build 0)  -->
<svg version="1.1" id="Layer_1" xmlns="http://www.w3.org/2000/svg" xmlns:xlink="http://www.w3.org/1999/xlink" x="0px" y="0px"
	 viewBox="0 0 512.005 512.005" style="enable-background:new 0 0 512.005 512.005;" xml:space="preserve">
<path style="fill:#73AF00;" d="M482.451,366.319l-0.008-42.41l-0.005-27.164l-0.014-81.491l-0.005-27.164l-0.008-42.486
	c0-3.105-0.422-6.147-1.202-9.07c-0.42-1.572-0.949-3.107-1.576-4.598c-2.568-6.092-6.814-11.419-12.362-15.28
	c-0.812-0.565-1.642-1.11-2.509-1.611l-23.71-13.684l-22.198-12.81l-17.87-10.313l-68.335-39.437l0,0L305.99,23.415l-19.995-11.539
	l-12.39-7.151c-10.918-6.302-24.37-6.3-35.287,0.006l-12.307,7.108l-19.995,11.548l-26.659,15.398v-0.001l-68.33,39.467
	L81.08,95.547l-22.191,12.818l-11.697,6.756c-0.841,0.486-1.648,1.015-2.439,1.562c-3.392,2.349-6.296,5.254-8.638,8.538
	c-1.572,2.206-2.883,4.585-3.911,7.092c-1.716,4.179-2.652,8.706-2.651,13.371l0.007,42.41l0.005,27.164l0.014,81.478v0.014v0.005
	l0.005,27.159l0.007,42.478v0.006c0.002,11.607,5.715,22.388,15.14,28.946c0.812,0.565,1.642,1.11,2.509,1.611l23.377,13.491
	l22.198,12.812l18.204,10.506l94.999,54.826l19.995,11.539l12.39,7.151c10.918,6.302,24.37,6.299,35.287-0.006l12.307-7.108
	l19.995-11.548l26.659-15.397l0,0l57.587-33.261l10.742-6.205l27.325-15.782l22.191-12.818l14.319-8.27
	c0.841-0.486,1.648-1.015,2.439-1.562C476.717,388.766,482.453,377.956,482.451,366.319L482.451,366.319L482.451,366.319z"/>
<g>
	<path style="fill:#FFE15A;" d="M282.815,303.916c-26.463,0-47.916-21.453-47.916-47.916c0-26.464,21.453-47.916,47.916-47.916
		c3.512,0,6.914,0.42,10.193,1.173c1.307,0.3,2.001-1.455,0.86-2.162c-10.035-6.222-22.12-9.449-35.019-8.399
		c-28.079,2.284-50.651,25.176-52.563,53.282c-2.284,33.576,24.276,61.521,57.362,61.521c11.092,0,21.442-3.152,30.222-8.595
		c1.141-0.707,0.45-2.462-0.859-2.162C289.732,303.497,286.328,303.916,282.815,303.916z"/>
	<path style="fill:#FFE15A;" d="M324.58,215.429l3.598,9.115l9.37-2.869c0.521-0.16,0.967,0.401,0.696,0.872l-4.882,8.496
		l8.085,5.536c0.449,0.307,0.29,1.006-0.249,1.088l-9.686,1.48l0.712,9.774c0.04,0.542-0.606,0.854-1.006,0.485l-7.197-6.651
		l-7.197,6.651c-0.4,0.37-1.046,0.059-1.006-0.485l0.712-9.774l-9.687-1.48c-0.539-0.082-0.697-0.781-0.249-1.088l8.085-5.536
		l-4.882-8.496c-0.271-0.472,0.175-1.032,0.696-0.872l9.37,2.869l3.598-9.115C323.662,214.923,324.38,214.923,324.58,215.429z"/>
	<path style="fill:#FFE15A;" d="M455.624,190.859l3.598,9.115l9.37-2.869c0.521-0.159,0.967,0.401,0.696,0.874l-4.882,8.496
		l8.085,5.536c0.449,0.307,0.29,1.006-0.249,1.088l-9.687,1.48l0.712,9.774c0.04,0.542-0.606,0.854-1.006,0.485l-7.197-6.651
		l-7.197,6.651c-0.4,0.37-1.046,0.059-1.006-0.485l0.712-9.774l-9.686-1.48c-0.539-0.082-0.697-0.781-0.249-1.088l8.085-5.536
		l-4.882-8.496c-0.271-0.472,0.176-1.032,0.696-0.874l9.37,2.869l3.599-9.115C454.706,190.353,455.424,190.353,455.624,190.859z"/>
	<path style="fill:#FFE15A;" d="M390.102,131.771l3.598,9.115l9.37-2.869c0.521-0.16,0.967,0.401,0.696,0.872l-4.882,8.496
		l8.085,5.536c0.449,0.307,0.29,1.006-0.249,1.088l-9.687,1.48l0.712,9.774c0.04,0.542-0.606,0.854-1.006,0.485l-7.197-6.651
		l-7.197,6.651c-0.4,0.37-1.046,0.059-1.006-0.485l0.712-9.774l-9.686-1.48c-0.539-0.082-0.697-0.781-0.249-1.088l8.085-5.536
		l-4.882-8.496c-0.271-0.472,0.176-1.032,0.696-0.872l9.37,2.869l3.598-9.115C389.184,131.265,389.902,131.265,390.102,131.771z"/>
	<path style="fill:#FFE15A;" d="M390.102,346.474l3.598,9.115l9.37-2.869c0.521-0.16,0.967,0.401,0.696,0.874l-4.882,8.496
		l8.085,5.536c0.449,0.307,0.29,1.006-0.249,1.088l-9.687,1.48l0.712,9.774c0.04,0.544-0.606,0.854-1.006,0.485l-7.197-6.651
		l-7.197,6.651c-0.4,0.37-1.046,0.059-1.006-0.485l0.712-9.774l-9.686-1.48c-0.539-0.082-0.697-0.781-0.249-1.088l8.085-5.536
		l-4.882-8.496c-0.271-0.472,0.176-1.032,0.696-0.874l9.37,2.869l3.598-9.115C389.184,345.967,389.902,345.967,390.102,346.474z"/>
	<path style="fill:#FFE15A;" d="M416.921,223.677l2.512,7.532l7.94,0.061c0.615,0.005,0.87,0.79,0.375,1.155l-6.387,4.716
		l2.396,7.57c0.185,0.586-0.482,1.072-0.982,0.714l-6.46-4.618l-6.459,4.618c-0.5,0.357-1.168-0.127-0.982-0.714l2.396-7.57
		l-6.387-4.716c-0.495-0.365-0.24-1.151,0.375-1.155l7.94-0.061l2.512-7.532C415.901,223.094,416.726,223.094,416.921,223.677z"/>
	<circle style="fill:#FFE15A;" cx="105.671" cy="186.391" r="53.24"/>
</g>
<path style="fill:#964B50;" d="M100.197,227.86h14.377c0,0,8.169-36.596,0.654-49.666l-4.575,2.94
	C110.653,181.134,118.169,206.294,100.197,227.86z"/>
<path style="fill:#73AF00;" d="M100.742,179.827c0,0-8.278,5.663-5.663,22.438c0,0,6.317-5.229,9.802-16.773
	c0,0-5.01,9.585,1.961,17.209c0,0,7.407-10.456,6.317-19.606c0,0,24.622,25.713,19.387,19.17c-0.871-1.09,1.307-11.98-7.188-20.912
	c0,0,13.941,3.485,19.17,2.178c0,0,0.436-11.109-12.853-13.07l3.049-8.714c0,0-10.238-0.654-15.684,4.575
	c0,0-1.307-13.506,4.139-20.041c0,0-16.119-2.396-16.773,18.734c0,0-5.881-13.506-23.962-10.238c0,0,10.238,7.407,11.98,10.673
	c0,0-14.377-9.802-21.13,3.921c0,0,11.546-3.049,15.684,2.396c0,0-18.516-1.961-20.041,13.941
	C68.938,185.709,86.147,177.649,100.742,179.827z"/>
<g>
</g>
<g>
</g>
<g>
</g>
<g>
</g>
<g>
</g>
<g>
</g>
<g>
</g>
<g>
</g>
<g>
</g>
<g>
</g>
<g>
</g>
<g>
</g>
<g>
</g>
<g>
</g>
<g>
</g>
</svg>
