<?xml version="1.0" encoding="iso-8859-1"?>
<!-- Generator: Adobe Illustrator 19.0.0, SVG Export Plug-In . SVG Version: 6.00 Build 0)  -->
<svg version="1.1" id="Layer_1" xmlns="http://www.w3.org/2000/svg" xmlns:xlink="http://www.w3.org/1999/xlink" x="0px" y="0px"
	 viewBox="0 0 512.001 512.001" style="enable-background:new 0 0 512.001 512.001;" xml:space="preserve">
<path style="fill:#FFE15A;" d="M482.435,296.746l-0.014-81.491l-0.005-27.164l-0.008-42.486
	c-0.001-11.607-5.715-22.388-15.14-28.946c-0.812-0.565-1.642-1.11-2.509-1.611l-23.71-13.684l-22.198-12.81l-17.87-10.313
	l-94.999-54.826l-19.995-11.539l-12.39-7.151c-10.918-6.301-24.37-6.3-35.287,0.006l-12.307,7.108l-19.995,11.548L111.02,78.249
	L81.076,95.546l-22.191,12.818l-11.697,6.756c-0.841,0.486-1.648,1.015-2.439,1.561c-9.465,6.556-15.201,17.365-15.2,29.001
	l0.007,42.41l0.005,27.164l0.014,81.491l0.005,27.164l0.007,42.486c0.003,11.607,5.715,22.388,15.14,28.946
	c0.812,0.565,1.642,1.11,2.509,1.61l23.377,13.491l22.198,12.811l18.204,10.506l94.999,54.826l19.995,11.539l12.39,7.151
	c10.92,6.302,24.37,6.298,35.287-0.006l12.307-7.108l19.995-11.548l94.989-54.863l27.325-15.782l22.191-12.818l14.319-8.27
	c0.841-0.486,1.648-1.015,2.439-1.561c9.465-6.556,15.201-17.365,15.2-29.001l-0.008-42.41L482.435,296.746z"/>
<g>
	<path style="fill:#82AFFF;" d="M482.44,323.91l-0.005-27.164l-0.014-81.491l-0.003-16.384L71.919,411.197l20.891,12.057
		l18.204,10.506l94.999,54.826l19.995,11.539l12.39,7.151c10.918,6.302,24.37,6.298,35.287-0.006l12.307-7.108l19.995-11.548
		l94.989-54.862l27.325-15.782l22.191-12.818l14.319-8.27c0.841-0.486,1.648-1.013,2.439-1.562
		c9.465-6.556,15.201-17.365,15.2-29.001L482.44,323.91z"/>
	<path style="fill:#82AFFF;" d="M440.077,100.803l0.973,0.562l-22.198-12.81l-17.87-10.313l-94.999-54.826l-19.995-11.539
		l-12.389-7.151c-10.918-6.302-24.37-6.3-35.287,0.006l-12.307,7.108L206.01,23.388l-94.989,54.861L81.076,95.546l-22.191,12.818
		l-11.697,6.756c-0.841,0.486-1.648,1.015-2.439,1.561c-9.465,6.556-15.201,17.365-15.2,29.001l0.007,42.41l0.005,27.164
		l0.014,81.491l0.003,16.384L440.077,100.803z"/>
</g>
<path style="fill:#FF4B55;" d="M482.416,178.875l-0.005-33.271c-0.001-11.607-5.715-22.389-15.14-28.946
	c-0.812-0.565-1.642-1.11-2.509-1.611l-6.414-3.701L29.581,333.123l0.005,33.271c0.003,11.607,5.715,22.389,15.14,28.946
	c0.812,0.565,1.642,1.11,2.509,1.611l6.414,3.702L482.416,178.875z"/>
<path style="fill:#FFE15A;" d="M125.348,105.231l13.435,40.285l42.466,0.329c2.374,0.019,3.359,3.049,1.45,4.459l-34.162,25.227
	l12.81,40.489c0.716,2.264-1.862,4.136-3.794,2.757l-34.549-24.695l-34.549,24.696c-1.932,1.381-4.51-0.492-3.794-2.757
	l12.809-40.489l-34.162-25.227c-1.911-1.411-0.926-4.441,1.45-4.459l42.466-0.329l13.436-40.285
	C121.411,102.979,124.596,102.979,125.348,105.231z"/>
<g>
</g>
<g>
</g>
<g>
</g>
<g>
</g>
<g>
</g>
<g>
</g>
<g>
</g>
<g>
</g>
<g>
</g>
<g>
</g>
<g>
</g>
<g>
</g>
<g>
</g>
<g>
</g>
<g>
</g>
</svg>
