<?xml version="1.0" encoding="iso-8859-1"?>
<!-- Generator: Adobe Illustrator 19.0.0, SVG Export Plug-In . SVG Version: 6.00 Build 0)  -->
<svg version="1.1" id="Layer_1" xmlns="http://www.w3.org/2000/svg" xmlns:xlink="http://www.w3.org/1999/xlink" x="0px" y="0px"
	 viewBox="0 0 512.004 512.004" style="enable-background:new 0 0 512.004 512.004;" xml:space="preserve">
<path style="fill:#F5F5F5;" d="M482.451,366.321L482.451,366.321L482.451,366.321v-0.004l-0.003-15.341l-0.005-27.058v-0.008
	l-0.005-27.164v-0.014l-0.006-40.731l-0.006-40.733v-0.014l-0.005-27.164l-0.008-42.486c0-0.934-0.05-1.857-0.125-2.777
	c-0.174-2.143-0.532-4.249-1.077-6.293c-0.42-1.572-0.948-3.107-1.577-4.598c-0.321-0.761-0.669-1.511-1.041-2.247
	c-2.609-5.154-6.467-9.655-11.321-13.031c-0.812-0.565-1.642-1.11-2.509-1.61l-23.71-13.684l-22.198-12.81l-17.87-10.313
	l-68.338-39.44l-26.659-15.386l-19.995-11.539l-12.39-7.151c-10.92-6.302-24.37-6.3-35.287,0.006l-12.307,7.108l-19.995,11.548
	l-26.659,15.398l0,0l0,0l-68.33,39.465L81.079,95.548l-22.191,12.818l-11.697,6.756c-0.841,0.486-1.648,1.015-2.439,1.561
	c-3.392,2.349-6.296,5.254-8.638,8.538c-1.572,2.206-2.883,4.585-3.911,7.092c-1.716,4.179-2.652,8.706-2.651,13.371l0,0l0,0
	l0.003,15.345l0.005,27.065l0.005,27.164l0.006,40.745l0.006,40.733v0.014l0,0v0.005l0,0l0.005,27.159v0.084l0.007,42.347v0.047
	v0.006l0,0c0,3.309,0.48,6.546,1.363,9.642c0.311,1.091,0.667,2.164,1.08,3.215c2.524,6.431,6.906,12.058,12.698,16.087
	c0.812,0.565,1.642,1.11,2.509,1.611l23.377,13.491l22.198,12.811l18.204,10.506l13.366,7.714l29.337,16.932l52.296,30.182
	l2.498,1.442l0,0l17.496,10.098l12.39,7.151c10.92,6.301,24.37,6.298,35.287-0.006l12.307-7.108l17.494-10.105l0,0l2.501-1.445
	l26.659-15.397l42.571-24.588l5.66-3.269l9.357-5.404l10.742-6.205l27.325-15.782l22.191-12.818l14.319-8.27
	c0.841-0.486,1.648-1.013,2.439-1.562c5.31-3.678,9.445-8.695,12.054-14.446c0.715-1.576,1.301-3.213,1.78-4.886
	C481.969,372.885,482.451,369.64,482.451,366.321z"/>
<g>
	<path style="fill:#FFE15A;" d="M482.451,366.321v-0.004l-0.003-15.341l-207.701-17.501l28.741,156.586l2.501-1.445l26.659-15.397
		l42.571-24.588l4.64-2.681l1.02-0.589l9.357-5.404l10.742-6.205l27.325-15.782l22.191-12.818l14.319-8.27
		c0.841-0.486,1.648-1.013,2.439-1.562c5.31-3.678,9.445-8.695,12.054-14.446c0.715-1.576,1.301-3.213,1.78-4.886
		C481.969,372.885,482.451,369.64,482.451,366.321z"/>
	<path style="fill:#FFE15A;" d="M241.005,333.475L29.587,350.976l0.003,15.366v0.047l0,0v0.006c0,3.309,0.48,6.546,1.363,9.642
		c0.311,1.091,0.667,2.164,1.08,3.215c2.524,6.429,6.906,12.058,12.698,16.087c0.812,0.565,1.642,1.11,2.509,1.611l23.377,13.491
		l22.198,12.812l18.204,10.506l13.366,7.714l7.754,4.475l21.583,12.455l52.296,30.182l2.498,1.441L241.005,333.475z"/>
</g>
<polygon style="fill:#73AF00;" points="482.443,323.919 482.443,323.912 482.438,296.748 482.438,296.735 482.432,256.002 
	208.513,256.002 192.267,256.002 29.571,256.002 29.578,296.735 29.578,296.748 29.578,296.753 29.582,323.912 29.582,323.996 
	29.587,350.976 91.046,350.976 208.513,350.976 482.448,350.976 "/>
<g>
	<path style="fill:#41479B;" d="M467.273,116.661c-0.812-0.565-1.642-1.11-2.509-1.61l-23.71-13.684l-22.198-12.81l-17.87-10.313
		l-21.12-12.189l-47.218-27.251L305.99,23.418l-2.501-1.443l-21.243,139.054h200.172l-0.003-15.421c0-0.932-0.05-1.857-0.125-2.777
		c-0.174-2.143-0.532-4.249-1.077-6.293c-0.42-1.572-0.948-3.107-1.577-4.597c-0.321-0.761-0.669-1.511-1.041-2.247
		C475.985,124.541,472.127,120.039,467.273,116.661z"/>
	<path style="fill:#41479B;" d="M227.259,161.028L208.513,21.946l-2.498,1.443l-26.659,15.398l0,0l0,0l-47.211,27.268
		l-21.119,12.198L81.079,95.548l-22.191,12.818l-11.697,6.756c-0.841,0.486-1.648,1.015-2.439,1.561
		c-3.392,2.349-6.296,5.254-8.638,8.538c-1.572,2.206-2.883,4.585-3.911,7.092c-1.716,4.179-2.652,8.706-2.651,13.371l0.003,15.345
		h197.704V161.028z"/>
</g>
<path style="fill:#FF4B55;" d="M285.993,11.878l-12.39-7.151c-10.92-6.302-24.37-6.3-35.287,0.006l-12.307,7.108l-19.995,11.548l0,0
	l2.498-1.443v44.108v94.974v94.974v94.974v94.974v44.078l17.496,10.098l12.39,7.151c10.92,6.301,24.37,6.298,35.287-0.006
	l12.307-7.108l17.494-10.105v-44.109v-94.974v-94.974v-94.974V66.053V21.974"/>
<path style="fill:#FFE15A;" d="M130.652,78.849l8.341,25.012l26.367,0.205c2.043,0.016,2.889,2.623,1.246,3.836l-21.21,15.663
	l7.953,25.139c0.616,1.948-1.601,3.559-3.263,2.371l-21.45-15.332l-21.45,15.331c-1.662,1.188-3.879-0.424-3.263-2.371l7.953-25.139
	l-21.21-15.662c-1.643-1.213-0.796-3.82,1.246-3.836l26.367-0.205l8.341-25.012C127.265,76.911,130.006,76.911,130.652,78.849z"/>
<g>
</g>
<g>
</g>
<g>
</g>
<g>
</g>
<g>
</g>
<g>
</g>
<g>
</g>
<g>
</g>
<g>
</g>
<g>
</g>
<g>
</g>
<g>
</g>
<g>
</g>
<g>
</g>
<g>
</g>
</svg>
