<?xml version="1.0" encoding="iso-8859-1"?>
<!-- Generator: Adobe Illustrator 19.0.0, SVG Export Plug-In . SVG Version: 6.00 Build 0)  -->
<svg version="1.1" id="Layer_1" xmlns="http://www.w3.org/2000/svg" xmlns:xlink="http://www.w3.org/1999/xlink" x="0px" y="0px"
	 viewBox="0 0 512.003 512.003" style="enable-background:new 0 0 512.003 512.003;" xml:space="preserve">
<path style="fill:#FFE15A;" d="M482.436,296.747l-0.014-81.491l-0.005-27.164l-0.008-42.486
	c-0.001-11.607-5.715-22.388-15.14-28.946c-0.812-0.565-1.642-1.11-2.508-1.611l-23.711-13.684l-22.198-12.81l-17.87-10.313
	l-94.999-54.826l-19.993-11.54L273.6,4.725c-10.918-6.301-24.37-6.3-35.287,0.006l-12.307,7.108l-19.995,11.548l-94.987,54.864
	L81.077,95.547l-22.191,12.818l-11.697,6.756c-0.841,0.486-1.648,1.015-2.439,1.561c-9.465,6.556-15.201,17.365-15.2,29.001
	l0.007,42.41l0.005,27.164l0.014,81.491l0.005,27.164l0.007,42.486c0.003,11.607,5.715,22.388,15.14,28.946
	c0.812,0.565,1.642,1.11,2.509,1.61l23.377,13.491l22.198,12.812l18.204,10.506l94.999,54.826l19.995,11.539l12.39,7.151
	c10.92,6.302,24.37,6.298,35.287-0.006l12.307-7.108l19.995-11.548l94.989-54.862l27.325-15.782l22.191-12.818l14.319-8.27
	c0.841-0.486,1.648-1.015,2.439-1.561c9.465-6.556,15.201-17.365,15.2-29.001l-0.008-42.41L482.436,296.747z"/>
<path style="fill:#73AF00;" d="M367.096,58.685l-61.111-35.269L285.99,11.877L273.6,4.726c-10.918-6.302-24.37-6.3-35.287,0.006
	l-12.307,7.108l-19.995,11.548l-61.112,35.297l-33.875,19.566L81.077,95.547l-22.191,12.818l-11.697,6.756
	c-0.841,0.486-1.648,1.015-2.439,1.561c-9.465,6.556-15.201,17.365-15.2,29.001l0.007,42.41l0.005,27.164l0.014,81.491l0.005,27.164
	l0.007,42.485c0.001,5.15,1.131,10.136,3.207,14.665L375.43,63.495L367.096,58.685z"/>
<path style="fill:#FF4B55;" d="M482.441,323.911l-0.005-27.164l-0.014-81.491l-0.005-27.164l-0.008-42.486
	c-0.001-5.15-1.131-10.136-3.207-14.665L136.568,448.508l8.334,4.81l61.111,35.269l19.995,11.539l12.39,7.151
	c10.92,6.302,24.37,6.298,35.287-0.006l12.307-7.108l19.995-11.548l61.112-35.297l33.877-19.566l27.325-15.782l22.191-12.818
	l14.319-8.27c0.841-0.486,1.648-1.013,2.439-1.562c9.465-6.556,15.201-17.365,15.2-29.001L482.441,323.911z"/>
<g>
</g>
<g>
</g>
<g>
</g>
<g>
</g>
<g>
</g>
<g>
</g>
<g>
</g>
<g>
</g>
<g>
</g>
<g>
</g>
<g>
</g>
<g>
</g>
<g>
</g>
<g>
</g>
<g>
</g>
</svg>
