<?xml version="1.0" encoding="iso-8859-1"?>
<!-- Generator: Adobe Illustrator 19.0.0, SVG Export Plug-In . SVG Version: 6.00 Build 0)  -->
<svg version="1.1" id="Layer_1" xmlns="http://www.w3.org/2000/svg" xmlns:xlink="http://www.w3.org/1999/xlink" x="0px" y="0px"
	 viewBox="0 0 512.001 512.001" style="enable-background:new 0 0 512.001 512.001;" xml:space="preserve">
<path style="fill:#F5F5F5;" d="M29.588,366.395l-0.036-220.713c-0.003-12.607,6.722-24.257,17.639-30.562L238.314,4.731
	c10.917-6.306,24.368-6.307,35.287-0.006L464.762,115.05c10.918,6.302,17.646,17.95,17.649,30.557l0.036,220.713
	c0.003,12.607-6.722,24.257-17.639,30.563L273.683,507.269c-10.917,6.306-24.368,6.307-35.287,0.006L47.237,396.951
	C36.318,390.649,29.591,379.001,29.588,366.395z"/>
<g>
	<path style="fill:#FF4B55;" d="M41.36,119.34v136.838l19.693,7.319l22.116-7.319V94.337l-35.98,20.782
		C45.083,116.336,43.137,117.756,41.36,119.34z"/>
	<polygon style="fill:#FF4B55;" points="96.774,86.481 256,86.481 259.749,53.556 256,19.56 212.639,19.56 	"/>
	<path style="fill:#FF4B55;" d="M108.019,108.788l84.039,87.312l56.023,58.205c0.029-0.021,0.057-0.046,0.086-0.067
		c0.06-0.054,0.12-0.109,0.182-0.156c0.444-0.337,7.647-6.784,7.648-6.828c0.156-3.671-0.084-10.216-0.049-11.177
		c0.003-0.06,0.011-0.116,0.014-0.176L215.18,193.53l-81.565-84.74h-25.597L108.019,108.788L108.019,108.788z"/>
</g>
<path style="fill:#41479B;" d="M482.411,145.607c-0.003-12.607-6.729-24.255-17.649-30.557L273.601,4.726
	C268.154,1.583,262.078,0.008,256,0.002V19.56v66.92v20.003H149.818L256,217.832v16.963c0,0.374-0.023,0.737-0.035,1.106l0,0
	c-0.001,0.06-0.011,0.117-0.014,0.176c-0.036,0.961-0.104,1.908-0.216,2.829c-0.018,0.142-0.05,0.276-0.069,0.419
	c-0.505,3.745-1.61,7.128-3.164,9.859c-0.021,0.039-0.042,0.077-0.065,0.115c-0.796,1.38-1.706,2.589-2.704,3.595
	c-0.03,0.03-0.061,0.059-0.091,0.089c-0.411,0.405-0.846,0.764-1.29,1.1c-0.062,0.047-0.122,0.102-0.182,0.156
	c-0.029,0.021-0.057,0.046-0.086,0.067l0,0c-1.662,1.198-3.502,1.874-5.444,1.874h-23.207L95.668,126.396v129.783h-5.872h-6.624
	H41.36h-7.799H29.57l0.019,110.216c0.003,12.607,6.729,24.255,17.649,30.557l191.161,110.325c10.918,6.302,24.37,6.299,35.286-0.006
	l191.125-110.39c10.917-6.305,17.64-17.955,17.639-30.562L482.411,145.607z"/>
<g>
	<path style="fill:#F5F5F5;" d="M372.676,182.124l2.733,8.194l8.636,0.067c0.669,0.005,0.946,0.86,0.409,1.257l-6.948,5.131
		l2.606,8.235c0.201,0.637-0.525,1.166-1.068,0.776l-7.027-5.022l-7.027,5.022c-0.545,0.389-1.271-0.139-1.068-0.776l2.606-8.235
		l-6.948-5.131c-0.539-0.397-0.261-1.251,0.409-1.257l8.636-0.067l2.733-8.194C371.566,181.489,372.465,181.489,372.676,182.124z"/>
	<path style="fill:#F5F5F5;" d="M335.951,192.201l5.828,6.373l7.918-3.452c0.614-0.267,1.215,0.4,0.884,0.982l-4.26,7.513
		l5.73,6.463c0.444,0.501-0.005,1.278-0.661,1.145l-8.463-1.73l-4.376,7.447c-0.339,0.577-1.217,0.39-1.292-0.275l-0.97-8.583
		l-8.434-1.861c-0.654-0.144-0.747-1.037-0.139-1.313l7.863-3.574l-0.836-8.596C334.679,192.073,335.499,191.708,335.951,192.201z"
		/>
	<path style="fill:#F5F5F5;" d="M306.499,216.346l7.918,3.452l5.828-6.373c0.451-0.494,1.272-0.129,1.207,0.537l-0.836,8.596
		l7.863,3.574c0.609,0.277,0.515,1.17-0.139,1.313l-8.434,1.861l-0.97,8.583c-0.075,0.665-0.953,0.852-1.292,0.275l-4.376-7.447
		l-8.463,1.731c-0.656,0.134-1.105-0.644-0.661-1.145l5.73-6.463l-4.26-7.513C305.285,216.746,305.886,216.079,306.499,216.346z"/>
	<path style="fill:#F5F5F5;" d="M289.414,250.382l8.636-0.067l2.733-8.194c0.211-0.635,1.11-0.635,1.321,0l2.733,8.194l8.636,0.067
		c0.669,0.005,0.946,0.86,0.409,1.257l-6.948,5.131l2.606,8.235c0.201,0.637-0.525,1.166-1.068,0.777l-7.027-5.022l-7.027,5.022
		c-0.545,0.389-1.271-0.139-1.068-0.777l2.606-8.235l-6.948-5.131C288.468,251.24,288.746,250.387,289.414,250.382z"/>
	<path style="fill:#F5F5F5;" d="M287.65,288.424l7.863-3.574l-0.836-8.596c-0.065-0.666,0.755-1.031,1.207-0.537l5.83,6.373
		l7.918-3.452c0.614-0.267,1.215,0.4,0.885,0.982l-4.26,7.513l5.73,6.463c0.444,0.501-0.005,1.278-0.661,1.145l-8.463-1.731
		l-4.376,7.447c-0.339,0.577-1.217,0.39-1.292-0.275l-0.97-8.583l-8.434-1.861C287.135,289.593,287.041,288.701,287.65,288.424z"/>
	<path style="fill:#F5F5F5;" d="M301.511,323.895l5.73-6.463l-4.26-7.513c-0.33-0.582,0.271-1.25,0.885-0.982l7.918,3.452
		l5.83-6.373c0.451-0.494,1.272-0.129,1.207,0.537l-0.836,8.596l7.863,3.574c0.61,0.277,0.515,1.17-0.139,1.313l-8.434,1.861
		l-0.97,8.583c-0.075,0.665-0.953,0.852-1.292,0.275l-4.376-7.447l-8.463,1.731C301.516,325.173,301.067,324.395,301.511,323.895z"
		/>
	<path style="fill:#F5F5F5;" d="M328.601,350.661l2.606-8.235l-6.948-5.131c-0.539-0.397-0.261-1.251,0.409-1.257l8.636-0.067
		l2.733-8.194c0.211-0.635,1.11-0.635,1.321,0l2.733,8.194l8.636,0.067c0.669,0.005,0.947,0.86,0.409,1.257l-6.948,5.131
		l2.606,8.235c0.201,0.639-0.525,1.166-1.068,0.776l-7.027-5.022l-7.027,5.022C329.126,351.827,328.4,351.299,328.601,350.661z"/>
	<path style="fill:#F5F5F5;" d="M364.236,364.095l-0.97-8.583l-8.434-1.861c-0.654-0.144-0.747-1.037-0.137-1.315l7.863-3.574
		l-0.836-8.596c-0.065-0.666,0.756-1.031,1.207-0.537l5.828,6.373l7.918-3.452c0.614-0.267,1.215,0.4,0.885,0.982l-4.26,7.513
		l5.73,6.463c0.444,0.501-0.005,1.278-0.661,1.145l-8.463-1.73l-4.376,7.447C365.189,364.946,364.311,364.76,364.236,364.095z"/>
	<path style="fill:#F5F5F5;" d="M402.254,361.873l-4.376-7.447l-8.463,1.731c-0.656,0.134-1.105-0.644-0.661-1.145l5.73-6.463
		l-4.26-7.513c-0.33-0.582,0.271-1.25,0.885-0.982l7.918,3.452l5.828-6.373c0.451-0.494,1.272-0.129,1.207,0.537l-0.836,8.596
		l7.863,3.574c0.61,0.276,0.515,1.17-0.137,1.315l-8.434,1.861l-0.97,8.583C403.471,362.263,402.594,362.449,402.254,361.873z"/>
	<path style="fill:#F5F5F5;" d="M436.082,344.381l-7.027-5.022l-7.027,5.022c-0.545,0.389-1.271-0.139-1.068-0.776l2.606-8.235
		l-6.948-5.131c-0.539-0.397-0.261-1.251,0.409-1.257l8.636-0.067l2.733-8.194c0.211-0.635,1.11-0.635,1.321,0l2.733,8.194
		l8.636,0.067c0.669,0.005,0.947,0.86,0.409,1.257l-6.948,5.131l2.606,8.235C437.353,344.242,436.627,344.769,436.082,344.381z"/>
	<path style="fill:#F5F5F5;" d="M459.871,314.64l-8.461-1.731l-4.376,7.447c-0.339,0.577-1.217,0.39-1.292-0.275l-0.97-8.583
		l-8.434-1.861c-0.654-0.144-0.747-1.037-0.139-1.313l7.863-3.574l-0.836-8.596c-0.065-0.666,0.755-1.031,1.207-0.537l5.83,6.373
		l7.918-3.452c0.614-0.267,1.215,0.4,0.884,0.982l-4.26,7.513l5.73,6.463C460.976,313.997,460.526,314.774,459.871,314.64z"/>
	<path style="fill:#F5F5F5;" d="M469.506,277.796l-8.434,1.861l-0.97,8.583c-0.075,0.665-0.953,0.852-1.292,0.275l-4.376-7.447
		l-8.463,1.731c-0.656,0.134-1.105-0.644-0.661-1.145l5.73-6.463l-4.26-7.513c-0.33-0.582,0.271-1.25,0.884-0.982l7.918,3.452
		l5.828-6.373c0.451-0.494,1.272-0.129,1.207,0.537l-0.836,8.596l7.863,3.574C470.253,276.759,470.159,277.652,469.506,277.796z"/>
	<path style="fill:#F5F5F5;" d="M463.322,240.218l-6.948,5.131l2.606,8.235c0.201,0.639-0.525,1.166-1.068,0.776l-7.027-5.022
		l-7.027,5.022c-0.545,0.389-1.271-0.139-1.068-0.776l2.606-8.235l-6.948-5.131c-0.539-0.397-0.261-1.251,0.409-1.257l8.636-0.067
		l2.733-8.194c0.211-0.635,1.11-0.635,1.321,0l2.733,8.194l8.636,0.067C463.584,238.967,463.861,239.821,463.322,240.218z"/>
	<path style="fill:#F5F5F5;" d="M442.389,208.404l-4.26,7.513l5.73,6.463c0.444,0.501-0.005,1.278-0.661,1.145l-8.463-1.731
		l-4.376,7.447c-0.339,0.577-1.217,0.39-1.292-0.275l-0.97-8.583l-8.434-1.861c-0.654-0.144-0.747-1.037-0.139-1.313l7.863-3.574
		l-0.836-8.596c-0.065-0.666,0.755-1.031,1.207-0.537l5.83,6.373l7.918-3.452C442.118,207.155,442.719,207.822,442.389,208.404z"/>
	<path style="fill:#F5F5F5;" d="M410.326,187.855l-0.836,8.596l7.863,3.574c0.609,0.277,0.515,1.17-0.139,1.313l-8.434,1.861
		l-0.97,8.583c-0.075,0.665-0.953,0.852-1.292,0.275l-4.376-7.447l-8.461,1.731c-0.656,0.134-1.105-0.644-0.661-1.145l5.73-6.463
		l-4.26-7.513c-0.33-0.582,0.271-1.25,0.884-0.982l7.918,3.452l5.83-6.373C409.571,186.824,410.391,187.189,410.326,187.855z"/>
	<path style="fill:#F5F5F5;" d="M372.676,182.124l2.733,8.194l8.636,0.067c0.669,0.005,0.946,0.86,0.409,1.257l-6.948,5.131
		l2.606,8.235c0.201,0.637-0.525,1.166-1.068,0.776l-7.027-5.022l-7.027,5.022c-0.545,0.389-1.271-0.139-1.068-0.776l2.606-8.235
		l-6.948-5.131c-0.539-0.397-0.261-1.251,0.409-1.257l8.636-0.067l2.733-8.194C371.566,181.489,372.465,181.489,372.676,182.124z"/>
</g>
<g>
</g>
<g>
</g>
<g>
</g>
<g>
</g>
<g>
</g>
<g>
</g>
<g>
</g>
<g>
</g>
<g>
</g>
<g>
</g>
<g>
</g>
<g>
</g>
<g>
</g>
<g>
</g>
<g>
</g>
</svg>
