<?xml version="1.0" encoding="iso-8859-1"?>
<!-- Generator: Adobe Illustrator 19.0.0, SVG Export Plug-In . SVG Version: 6.00 Build 0)  -->
<svg version="1.1" id="Layer_1" xmlns="http://www.w3.org/2000/svg" xmlns:xlink="http://www.w3.org/1999/xlink" x="0px" y="0px"
	 viewBox="0 0 512.001 512.001" style="enable-background:new 0 0 512.001 512.001;" xml:space="preserve">
<path style="fill:#F5F5F5;" d="M482.43,256l-0.019-110.395c-0.003-12.607-6.729-24.255-17.649-30.557L273.602,4.725
	c-10.92-6.302-24.371-6.3-35.287,0.006L47.19,115.118c-10.917,6.306-17.64,17.955-17.638,30.562l0.019,110.319l0.019,110.395
	c0.003,12.607,6.729,24.255,17.649,30.557L238.4,507.275c10.92,6.302,24.371,6.299,35.287-0.006L464.812,396.88
	c10.917-6.306,17.64-17.955,17.639-30.562L482.43,256z"/>
<path style="fill:#41479B;" d="M255.332,255.084V0.02c-5.883,0.105-11.746,1.666-17.018,4.71L42.649,117.741
	c-8.108,4.682-13.1,13.334-13.099,22.696L29.569,256l113.961,16.246L254.416,256C254.922,256,255.332,255.59,255.332,255.084z"/>
<path style="fill:#FF4B55;" d="M47.236,396.951l191.161,110.325c10.92,6.302,24.371,6.299,35.287-0.006L464.81,396.881
	c10.917-6.306,17.64-17.955,17.639-30.562L482.43,256H29.57l0.019,110.395C29.59,379.001,36.318,390.649,47.236,396.951z"/>
<path style="fill:#F5F5F5;" d="M145.762,123.08l8.481,25.432l26.809,0.207c3.47,0.027,4.91,4.456,2.118,6.518l-21.567,15.926
	l8.087,25.561c1.047,3.309-2.721,6.047-5.545,4.029l-21.81-15.589l-21.81,15.589c-2.824,2.018-6.592-0.72-5.545-4.029l8.087-25.561
	L101.5,155.237c-2.792-2.062-1.353-6.491,2.118-6.518l26.809-0.207l8.481-25.432C140.006,119.787,144.663,119.787,145.762,123.08z"
	/>
<g>
</g>
<g>
</g>
<g>
</g>
<g>
</g>
<g>
</g>
<g>
</g>
<g>
</g>
<g>
</g>
<g>
</g>
<g>
</g>
<g>
</g>
<g>
</g>
<g>
</g>
<g>
</g>
<g>
</g>
</svg>
