<?xml version="1.0" encoding="iso-8859-1"?>
<!-- Generator: Adobe Illustrator 19.0.0, SVG Export Plug-In . SVG Version: 6.00 Build 0)  -->
<svg version="1.1" id="Layer_1" xmlns="http://www.w3.org/2000/svg" xmlns:xlink="http://www.w3.org/1999/xlink" x="0px" y="0px"
	 viewBox="0 0 511.999 511.999" style="enable-background:new 0 0 511.999 511.999;" xml:space="preserve">
<path style="fill:#FF4B55;" d="M332.645,38.801l-26.659-15.386l-19.995-11.539l-12.39-7.151c-10.918-6.302-24.37-6.3-35.287,0.006
	l-12.307,7.108l-19.995,11.548l-26.659,15.398v-0.001l-19.995,11.548l-28.326,205.661l28.326,205.666l46.654,26.925l19.995,11.539
	l12.39,7.151c10.918,6.302,24.37,6.299,35.287-0.006l12.307-7.108l19.995-11.548l26.659-15.397l19.995-11.549l30.824-203.174
	L352.64,50.341L332.645,38.801z"/>
<path style="fill:#73AF00;" d="M159.359,50.333l-48.336,27.918L81.077,95.547l-22.191,12.818l-11.697,6.756
	c-0.841,0.486-1.648,1.015-2.439,1.562c-3.392,2.349-6.296,5.254-8.638,8.538c-1.572,2.206-2.883,4.585-3.911,7.092
	c-1.716,4.179-2.652,8.706-2.651,13.371l0.007,42.41l0.005,27.164l0.014,81.478v0.014v0.005l0.005,27.159l0.007,42.478v0.006
	c0.003,11.607,5.715,22.388,15.14,28.946c0.812,0.565,1.642,1.11,2.509,1.611l23.377,13.491l22.198,12.812l18.204,10.506
	l48.346,27.901V50.333H159.359z"/>
<g>
	<path style="fill:#FFE15A;" d="M482.441,323.91l-0.005-27.164l-0.014-81.491l-0.005-27.164l-0.008-42.486
		c-0.001-3.105-0.422-6.147-1.202-9.07c-0.42-1.572-0.949-3.107-1.577-4.598c-2.568-6.092-6.814-11.419-12.362-15.28
		c-0.812-0.565-1.642-1.11-2.509-1.611l-23.71-13.684l-22.198-12.81l-17.87-10.313L352.64,50.341v411.328l37.592-21.713
		l10.742-6.205l27.325-15.782l22.191-12.818l14.319-8.27c0.841-0.486,1.648-1.015,2.439-1.562
		c9.465-6.556,15.201-17.365,15.2-29.001L482.441,323.91z"/>
	<path style="fill:#FFE15A;" d="M258.076,219.357l8.589,25.754l27.148,0.21c2.103,0.016,2.975,2.701,1.283,3.95l-21.839,16.127
		l8.189,25.884c0.635,2.006-1.648,3.664-3.36,2.441l-22.087-15.787l-22.086,15.787c-1.711,1.223-3.994-0.436-3.36-2.441
		l8.189-25.884l-21.839-16.127c-1.692-1.25-0.82-3.934,1.283-3.95l27.148-0.21l8.589-25.754
		C254.588,217.363,257.411,217.363,258.076,219.357z"/>
</g>
<g>
</g>
<g>
</g>
<g>
</g>
<g>
</g>
<g>
</g>
<g>
</g>
<g>
</g>
<g>
</g>
<g>
</g>
<g>
</g>
<g>
</g>
<g>
</g>
<g>
</g>
<g>
</g>
<g>
</g>
</svg>
