<?xml version="1.0" encoding="iso-8859-1"?>
<!-- Generator: Adobe Illustrator 19.0.0, SVG Export Plug-In . SVG Version: 6.00 Build 0)  -->
<svg version="1.1" id="Layer_1" xmlns="http://www.w3.org/2000/svg" xmlns:xlink="http://www.w3.org/1999/xlink" x="0px" y="0px"
	 viewBox="0 0 512.001 512.001" style="enable-background:new 0 0 512.001 512.001;" xml:space="preserve">
<path style="fill:#FFE15A;" d="M482.431,256l-0.019-110.395c-0.003-12.607-6.729-24.255-17.649-30.557L273.602,4.725
	c-10.918-6.302-24.37-6.3-35.287,0.006L47.19,115.118c-10.917,6.305-17.64,17.955-17.639,30.562l0.019,110.319l0.019,110.395
	c0.001,6.832,1.992,13.375,5.54,18.945c2.999,4.709,7.107,8.725,12.108,11.612l191.161,110.325
	c10.92,6.302,24.37,6.299,35.287-0.006L464.81,396.88c4.975-2.873,9.065-6.864,12.059-11.542c3.577-5.587,5.581-12.158,5.58-19.021
	L482.431,256z"/>
<path style="fill:#FF4B55;" d="M47.238,396.951l191.161,110.325c10.92,6.302,24.37,6.299,35.287-0.006l191.125-110.389
	c4.975-2.873,9.065-6.864,12.059-11.542L253.501,362.22L35.128,385.339C38.128,390.048,42.236,394.065,47.238,396.951z"/>
<path style="fill:#41479B;" d="M35.128,385.339H476.87c3.577-5.587,5.581-12.158,5.58-19.021L482.431,256H29.57l0.019,110.395
	C29.59,373.227,31.581,379.768,35.128,385.339z"/>
<g>
</g>
<g>
</g>
<g>
</g>
<g>
</g>
<g>
</g>
<g>
</g>
<g>
</g>
<g>
</g>
<g>
</g>
<g>
</g>
<g>
</g>
<g>
</g>
<g>
</g>
<g>
</g>
<g>
</g>
</svg>
