<?xml version="1.0" encoding="iso-8859-1"?>
<!-- Generator: Adobe Illustrator 19.0.0, SVG Export Plug-In . SVG Version: 6.00 Build 0)  -->
<svg version="1.1" id="Layer_1" xmlns="http://www.w3.org/2000/svg" xmlns:xlink="http://www.w3.org/1999/xlink" x="0px" y="0px"
	 viewBox="0 0 512.002 512.002" style="enable-background:new 0 0 512.002 512.002;" xml:space="preserve">
<path style="fill:#F5F5F5;" d="M482.45,366.321l-0.008-42.41l-0.005-27.164l-0.014-81.491l-0.005-27.164l-0.008-42.486
	c0-3.105-0.422-6.147-1.202-9.07c-0.42-1.572-0.948-3.107-1.577-4.598c-2.568-6.091-6.814-11.419-12.362-15.28
	c-0.812-0.565-1.642-1.11-2.509-1.611l-23.71-13.684l-22.198-12.81l-17.87-10.313l-68.334-39.439l0,0l-26.659-15.386l-19.995-11.539
	l-12.39-7.151c-10.918-6.301-24.37-6.3-35.287,0.006l-12.307,7.108l-19.995,11.548l-26.659,15.398l0,0l-68.33,39.466L81.079,95.547
	l-22.191,12.818l-11.697,6.756c-0.841,0.486-1.648,1.015-2.439,1.561c-3.392,2.349-6.296,5.254-8.638,8.538
	c-1.572,2.206-2.883,4.585-3.911,7.092c-1.715,4.179-2.652,8.706-2.651,13.371l0.007,42.41l0.005,27.164l0.014,81.478v0.014v0.005
	l0.005,27.159l0.007,42.478v0.006c0.003,11.607,5.715,22.388,15.14,28.946c0.812,0.565,1.642,1.11,2.509,1.611l23.377,13.491
	l22.198,12.811l18.204,10.506l94.999,54.826l19.995,11.539l12.39,7.151c10.918,6.301,24.37,6.298,35.287-0.006l12.307-7.108
	l19.995-11.548l26.659-15.397l0,0l57.588-33.261l10.742-6.205l27.325-15.782l22.191-12.818l14.319-8.27
	c0.841-0.486,1.648-1.015,2.439-1.562C476.716,388.766,482.452,377.956,482.45,366.321L482.45,366.321L482.45,366.321z"/>
<polygon style="fill:#FF4B55;" points="29.559,188.092 29.564,215.256 29.578,296.733 29.578,296.747 29.578,296.752 
	29.582,323.911 29.583,328.395 482.444,328.395 482.443,323.911 482.438,296.747 482.425,215.256 482.42,188.092 482.419,183.607 
	29.559,183.607 "/>
<g>
	<path style="fill:#41479B;" d="M441.054,101.367l-22.198-12.81l-17.87-10.313l-68.338-39.443l-20.877-12.047l-5.783-3.338
		l-19.995-11.539l-12.39-7.151c-10.918-6.302-24.37-6.3-35.287,0.006l-12.307,7.108l-19.995,11.548l-5.827,3.365l-20.833,12.033l0,0
		l-68.328,39.465L81.079,95.547l-16.678,9.634h383.263L441.054,101.367z"/>
	<path style="fill:#41479B;" d="M64.341,406.822l6.275,3.622l22.198,12.811l18.204,10.506l89.216,51.488l5.782,3.338l19.995,11.539
		l12.39,7.151c10.918,6.301,24.37,6.298,35.287-0.006l12.307-7.108l19.995-11.548l5.827-3.365l20.832-12.032l57.588-33.261
		l10.742-6.205l27.325-15.782l19.3-11.148L64.341,406.822L64.341,406.822z"/>
</g>
<ellipse style="fill:#F5F5F5;" cx="117.741" cy="256.001" rx="56.44" ry="60.33"/>
<rect x="88.561" y="232.651" style="fill:#3CC8FF;" width="58.38" height="29.19"/>
<polygon style="fill:#FFE15A;" points="96.342,249.248 97.008,255.687 99.633,249.769 98.275,256.1 102.6,251.281 99.354,256.882 
	104.955,253.636 100.137,257.96 106.467,256.603 100.549,259.227 106.988,259.894 100.549,260.56 106.467,263.183 100.137,261.827 
	104.955,266.151 99.354,262.904 102.6,268.506 98.275,263.687 99.633,270.018 97.008,264.099 96.342,270.539 95.676,264.099 
	93.053,270.018 94.409,263.687 90.085,268.506 93.332,262.904 87.73,266.151 92.548,261.827 86.217,263.183 92.137,260.56 
	85.696,259.894 92.137,259.227 86.217,256.603 92.548,257.96 87.73,253.636 93.332,256.882 90.085,251.281 94.409,256.1 
	93.053,249.769 95.676,255.687 "/>
<polygon style="fill:#41479B;" points="129.426,302.707 106.073,302.707 84.667,285.193 84.667,259.894 152.779,259.894 
	152.779,285.193 "/>
<path style="fill:#73AF00;" d="M141.102,252.109H141.1c-0.006-0.532-0.437-0.962-0.971-0.962s-0.963,0.43-0.971,0.962h-0.003
	c0,3.378-1.957,8.049-4.358,11.394c-3.352-4.231-4.612-9.139-5.086-12.228c-0.226-1.475-1.82-2.292-3.154-1.625
	c-0.642,0.321-1.075,0.948-1.186,1.658c-1.49,9.545-5.988,13.6-8.903,15.267c-4.363-4.218-5.8-11.042-6.273-15.076
	c-0.184-1.568-1.863-2.469-3.275-1.762c-0.544,0.271-0.947,0.762-1.137,1.34c-6.103,18.607-23.066,20.492-23.066,20.492v5.838
	h68.113v-1.946v-1.946v-1.946v-1.946v-1.948C143.048,265.732,141.102,252.109,141.102,252.109z"/>
<g>
	<path style="fill:#F0AA00;" d="M150.832,234.594c-7.784-3.893-7.784-7.784-7.784-7.784s-9.73-3.893-17.515-3.893
		c0,0,1.946-3.893-1.946-3.893s-5.838,0-5.838,0s-1.946,0-5.838,0c-3.893,0-1.946,3.893-1.946,3.893
		c-7.784,0-17.515,3.893-17.515,3.893s0,3.893-7.784,7.784c-7.784,3.893-7.784,12.649-7.784,12.649c0,1.612,1.307,2.919,2.919,2.919
		s2.919-1.307,2.919-2.919c0-0.332-0.067-0.647-0.17-0.945l0.17-0.029l19.461-13.623h15.568h15.568l19.461,13.623l0.17,0.029
		c-0.102,0.297-0.17,0.612-0.17,0.945c0,1.612,1.307,2.919,2.919,2.919s2.919-1.307,2.919-2.919
		C158.618,247.243,158.618,238.487,150.832,234.594z"/>
	<path style="fill:#F0AA00;" d="M156.671,257.948c-1.946,0-7.784,0-7.784-5.838c0-5.838,7.784-5.838,7.784-5.838l-11.677-3.893
		c-3.891,13.623,3.893,13.623,3.893,31.138c0,15.689-17.515,25.299-23.352,25.299c-5.838,0-7.784,3.893-7.784,3.893
		s-1.946-3.893-7.784-3.893s-23.354-9.609-23.354-25.299c0-17.515,7.784-17.515,3.893-31.138l-11.677,3.893c0,0,7.784,0,7.784,5.838
		c0,5.838-5.838,5.838-7.784,5.838s-9.73,0-9.73,9.73s9.73,21.407,23.352,29.191c13.623,7.784,7.784,15.568,25.299,15.568
		s11.677-7.784,25.299-15.568c13.623-7.784,23.352-19.461,23.352-29.191S158.618,257.948,156.671,257.948z"/>
</g>
<g>
	<path style="fill:#73AF00;" d="M113.857,227.487l-4.707-2.116c-0.781-0.351-1.648-0.434-2.482-0.24
		c-3.034,0.701-10.562,3.008-16.163,9.462l5.838,1.946L113.857,227.487z"/>
	<path style="fill:#73AF00;" d="M121.641,227.487l4.707-2.116c0.781-0.351,1.647-0.434,2.482-0.24
		c3.034,0.701,10.562,3.008,16.163,9.462l-5.838,1.946L121.641,227.487z"/>
	<path style="fill:#73AF00;" d="M118.437,228.756l3.548-3.548c0.19-0.19,0.19-0.497,0-0.687s-0.499-0.19-0.689,0l-3.548,3.548
		l-3.548-3.548c-0.19-0.19-0.497-0.19-0.687,0s-0.19,0.497,0,0.687l3.548,3.548l-3.548,3.548c-0.19,0.19-0.19,0.497,0,0.687
		c0.095,0.095,0.22,0.142,0.344,0.142c0.125,0,0.249-0.047,0.344-0.142l3.548-3.548l3.548,3.548c0.095,0.095,0.22,0.142,0.344,0.142
		c0.125,0,0.249-0.047,0.344-0.142c0.19-0.19,0.19-0.497,0-0.687L118.437,228.756z"/>
</g>
<path style="fill:#F5F5F5;" d="M156.671,246.271c0-3.312-3.129-4.742-5.838-5.364v-1.541c-3.664-0.344-5.708-1.72-9.26-4.14
	c-1.368-0.933-2.92-1.989-4.794-3.128c-6.843-4.156-12.102-4.757-15.138-4.611v3.215h-7.783v-3.215
	c-3.035-0.145-8.295,0.455-15.138,4.611c-1.873,1.138-3.424,2.196-4.792,3.128c-3.553,2.419-5.596,3.796-9.26,4.14v1.541
	c-2.709,0.621-5.838,2.052-5.838,5.364l5.838-1.946v0.887c5.522-0.406,8.681-2.527,12.547-5.16c1.311-0.893,2.794-1.904,4.538-2.963
	c4.444-2.702,7.899-3.538,10.161-3.734v3.185h11.677v-3.185c2.262,0.197,5.716,1.032,10.161,3.734
	c1.743,1.058,3.227,2.069,4.538,2.963c3.865,2.633,7.024,4.754,12.547,5.16v-0.887L156.671,246.271z"/>
<path style="fill:#3CC8FF;" d="M141.102,215.596v-2.408h-5.421c0.947-0.812,1.53-1.771,1.53-2.919
	c0-5.376-12.233-6.812-19.461-6.812s-19.461,1.435-19.461,6.812c0,1.147,0.581,2.106,1.528,2.919h-5.421v2.408
	c-4.765,1.063-8.659,3.62-8.864,3.756l2.159,3.238c0.054-0.036,5.407-3.565,10.597-3.565v-1.946h38.922v1.946
	c5.189,0,10.543,3.529,10.597,3.565l2.159-3.238C149.761,219.216,145.867,216.659,141.102,215.596z M125.534,212.649v-1.478
	c0-0.952-0.895-1.652-1.82-1.421l-5.965,1.491l-5.965-1.491c-0.923-0.231-1.82,0.467-1.82,1.421v1.478
	c-4.371-0.642-6.957-1.712-7.662-2.381c1.053-1,6.21-2.919,15.446-2.919s14.394,1.919,15.446,2.919
	C132.491,210.937,129.905,212.007,125.534,212.649z"/>
<g>
	<path style="fill:#F5F5F5;" d="M117.992,237.276l0.494,1.478l1.558,0.012c0.201,0.001,0.285,0.259,0.124,0.379l-1.253,0.926
		l0.47,1.486c0.061,0.192-0.159,0.351-0.322,0.234l-1.268-0.906l-1.268,0.906c-0.164,0.117-0.384-0.041-0.322-0.234l0.47-1.486
		l-1.253-0.926c-0.162-0.12-0.079-0.377,0.124-0.379l1.558-0.012l0.494-1.478C117.658,237.084,117.929,237.084,117.992,237.276z"/>
	<path style="fill:#F5F5F5;" d="M110.363,237.773l0.645,1.418l1.551-0.151c0.201-0.02,0.311,0.227,0.162,0.364l-1.15,1.052
		l0.624,1.428c0.081,0.185-0.12,0.366-0.296,0.266l-1.356-0.769l-1.166,1.035c-0.151,0.134-0.385-0.001-0.345-0.199l0.311-1.527
		l-1.345-0.79c-0.174-0.102-0.117-0.367,0.082-0.39l1.548-0.176l0.335-1.522C110.011,237.618,110.28,237.59,110.363,237.773z"/>
	<path style="fill:#F5F5F5;" d="M102.529,239.86l0.937,1.245l1.482-0.484c0.191-0.062,0.354,0.155,0.237,0.32l-0.895,1.276
		l0.919,1.26c0.119,0.162-0.039,0.384-0.231,0.325l-1.491-0.456l-0.915,1.262c-0.119,0.164-0.376,0.082-0.38-0.12l-0.026-1.558
		l-1.483-0.48c-0.192-0.062-0.195-0.332-0.004-0.399l1.473-0.507l-0.003-1.558C102.152,239.785,102.408,239.699,102.529,239.86z"/>
	<path style="fill:#F5F5F5;" d="M94.678,243.171l1.095,1.11l1.405-0.676c0.182-0.087,0.371,0.107,0.277,0.286l-0.717,1.383
		l1.077,1.127c0.14,0.146,0.012,0.385-0.186,0.352l-1.537-0.255l-0.741,1.372c-0.095,0.177-0.362,0.131-0.392-0.069l-0.232-1.541
		l-1.533-0.279c-0.199-0.036-0.237-0.304-0.056-0.395l1.393-0.697l-0.209-1.545C94.293,243.146,94.536,243.027,94.678,243.171z"/>
	<path style="fill:#F5F5F5;" d="M125.223,237.773l-0.646,1.418l-1.551-0.151c-0.201-0.02-0.311,0.227-0.162,0.364l1.15,1.052
		l-0.624,1.428c-0.081,0.185,0.12,0.366,0.296,0.266l1.356-0.769l1.166,1.035c0.151,0.134,0.386-0.001,0.345-0.199l-0.311-1.527
		l1.345-0.79c0.174-0.102,0.117-0.367-0.082-0.39l-1.548-0.176l-0.335-1.522C125.575,237.618,125.307,237.59,125.223,237.773z"/>
	<path style="fill:#F5F5F5;" d="M133.057,239.86l-0.937,1.245l-1.482-0.484c-0.192-0.062-0.352,0.155-0.237,0.32l0.895,1.276
		l-0.919,1.26c-0.119,0.162,0.039,0.384,0.231,0.325l1.491-0.456l0.913,1.262c0.119,0.164,0.376,0.082,0.38-0.12l0.026-1.558
		l1.483-0.48c0.192-0.062,0.195-0.332,0.004-0.399l-1.473-0.507l0.003-1.558C133.435,239.785,133.178,239.699,133.057,239.86z"/>
	<path style="fill:#F5F5F5;" d="M140.909,243.171l-1.093,1.11l-1.405-0.676c-0.182-0.087-0.37,0.107-0.277,0.286l0.717,1.383
		l-1.077,1.127c-0.14,0.146-0.012,0.385,0.186,0.352l1.537-0.255l0.739,1.372c0.096,0.177,0.362,0.131,0.392-0.069l0.232-1.541
		l1.533-0.279c0.199-0.036,0.237-0.304,0.056-0.395l-1.393-0.697l0.209-1.545C141.294,243.146,141.05,243.027,140.909,243.171z"/>
</g>
<polygon style="fill:#8C5A28;" points="104.31,283.976 114.222,290.605 126.203,290.605 131.737,285.861 127.48,287.565 
	113.371,287.565 "/>
<path style="fill:#F5F5F5;" d="M111.059,275.422l-0.957,9.649l-4.355-1.662C105.748,283.408,107.752,278.758,111.059,275.422z"/>
<g>
	<rect x="119.661" y="271.601" style="fill:#8C5A28;" width="0.644" height="16.432"/>
	<rect x="125.601" y="272.991" style="fill:#8C5A28;" width="0.644" height="15.05"/>
	<rect x="113.721" y="272.991" style="fill:#8C5A28;" width="0.644" height="15.05"/>
</g>
<g>
	<path style="fill:#F5F5F5;" d="M122.07,286.47h-4.185c-0.339,0-0.614-0.275-0.614-0.614v-2.239c0-0.339,0.275-0.614,0.614-0.614
		h4.185c0.339,0,0.614,0.275,0.614,0.614v2.239C122.684,286.195,122.409,286.47,122.07,286.47z"/>
	<path style="fill:#F5F5F5;" d="M122.07,281.847h-4.185c-0.339,0-0.614-0.275-0.614-0.614v-2.239c0-0.339,0.275-0.614,0.614-0.614
		h4.185c0.339,0,0.614,0.275,0.614,0.614v2.239C122.684,281.573,122.409,281.847,122.07,281.847z"/>
	<path style="fill:#F5F5F5;" d="M122.07,277.59h-4.185c-0.339,0-0.614-0.275-0.614-0.614v-2.239c0-0.339,0.275-0.614,0.614-0.614
		h4.185c0.339,0,0.614,0.275,0.614,0.614v2.239C122.684,277.316,122.409,277.59,122.07,277.59z"/>
	<path style="fill:#F5F5F5;" d="M127.659,286.47h-3.455c-0.339,0-0.614-0.275-0.614-0.614v-2.239c0-0.339,0.275-0.614,0.614-0.614
		h3.455c0.339,0,0.614,0.275,0.614,0.614v2.239C128.272,286.195,127.997,286.47,127.659,286.47z"/>
	<path style="fill:#F5F5F5;" d="M127.659,282.214h-3.455c-0.339,0-0.614-0.275-0.614-0.614v-1.696c0-0.339,0.275-0.614,0.614-0.614
		h3.455c0.339,0,0.614,0.275,0.614,0.614v1.696C128.272,281.94,127.997,282.214,127.659,282.214z"/>
	<path style="fill:#F5F5F5;" d="M127.659,277.996h-3.455c-0.339,0-0.614-0.275-0.614-0.614v-1.227c0-0.339,0.275-0.614,0.614-0.614
		h3.455c0.339,0,0.614,0.275,0.614,0.614v1.227C128.272,277.721,127.997,277.996,127.659,277.996z"/>
	<path style="fill:#F5F5F5;" d="M115.768,286.47h-3.455c-0.339,0-0.614-0.275-0.614-0.614v-2.239c0-0.339,0.275-0.614,0.614-0.614
		h3.455c0.339,0,0.614,0.275,0.614,0.614v2.239C116.382,286.195,116.107,286.47,115.768,286.47z"/>
	<path style="fill:#F5F5F5;" d="M115.768,282.214h-3.455c-0.339,0-0.614-0.275-0.614-0.614v-1.696c0-0.339,0.275-0.614,0.614-0.614
		h3.455c0.339,0,0.614,0.275,0.614,0.614v1.696C116.382,281.94,116.107,282.214,115.768,282.214z"/>
	<path style="fill:#F5F5F5;" d="M115.768,277.996h-3.455c-0.339,0-0.614-0.275-0.614-0.614v-1.227c0-0.339,0.275-0.614,0.614-0.614
		h3.455c0.339,0,0.614,0.275,0.614,0.614v1.227C116.382,277.721,116.107,277.996,115.768,277.996z"/>
	<polygon style="fill:#F5F5F5;" points="114.362,272.99 114.362,274.934 117.223,273.945 	"/>
	<polygon style="fill:#F5F5F5;" points="126.244,272.99 126.244,274.934 129.106,273.945 	"/>
	<polygon style="fill:#F5F5F5;" points="120.292,271.594 120.292,273.537 123.152,272.548 	"/>
</g>
<polygon style="fill:#8C5A28;" points="112.691,258.463 116.135,260.765 120.297,260.765 122.22,259.117 120.74,259.709 
	115.839,259.709 "/>
<path style="fill:#F5F5F5;" d="M115.037,255.49l-0.332,3.353l-1.513-0.577C113.191,258.265,113.887,256.649,115.037,255.49z"/>
<g>
	<rect x="118.021" y="254.161" style="fill:#8C5A28;" width="0.224" height="5.708"/>
	<rect x="120.091" y="254.641" style="fill:#8C5A28;" width="0.224" height="5.225"/>
	<rect x="115.961" y="254.641" style="fill:#8C5A28;" width="0.224" height="5.225"/>
</g>
<g>
	<path style="fill:#F5F5F5;" d="M118.861,259.329h-1.455c-0.117,0-0.214-0.095-0.214-0.214v-0.779c0-0.117,0.095-0.214,0.214-0.214
		h1.455c0.117,0,0.214,0.095,0.214,0.214v0.779C119.075,259.232,118.98,259.329,118.861,259.329z"/>
	<path style="fill:#F5F5F5;" d="M118.861,257.723h-1.455c-0.117,0-0.214-0.095-0.214-0.214v-0.779c0-0.117,0.095-0.214,0.214-0.214
		h1.455c0.117,0,0.214,0.095,0.214,0.214v0.779C119.075,257.627,118.98,257.723,118.861,257.723z"/>
	<path style="fill:#F5F5F5;" d="M118.861,256.243h-1.455c-0.117,0-0.214-0.095-0.214-0.212v-0.779c0-0.117,0.095-0.214,0.214-0.214
		h1.455c0.117,0,0.214,0.095,0.214,0.214v0.779C119.075,256.148,118.98,256.243,118.861,256.243z"/>
	<path style="fill:#F5F5F5;" d="M120.803,259.329h-1.201c-0.117,0-0.214-0.095-0.214-0.214v-0.779c0-0.117,0.095-0.214,0.214-0.214
		h1.201c0.117,0,0.214,0.095,0.214,0.214v0.779C121.017,259.232,120.92,259.329,120.803,259.329z"/>
	<path style="fill:#F5F5F5;" d="M120.803,257.85h-1.201c-0.117,0-0.214-0.095-0.214-0.214v-0.59c0-0.117,0.095-0.214,0.214-0.214
		h1.201c0.117,0,0.214,0.095,0.214,0.214v0.59C121.017,257.754,120.92,257.85,120.803,257.85z"/>
	<path style="fill:#F5F5F5;" d="M120.803,256.384h-1.201c-0.117,0-0.214-0.095-0.214-0.214v-0.426c0-0.117,0.095-0.214,0.214-0.214
		h1.201c0.117,0,0.214,0.095,0.214,0.214v0.426C121.017,256.29,120.92,256.384,120.803,256.384z"/>
	<path style="fill:#F5F5F5;" d="M116.672,259.329h-1.201c-0.117,0-0.214-0.095-0.214-0.214v-0.779c0-0.117,0.095-0.214,0.214-0.214
		h1.201c0.117,0,0.214,0.095,0.214,0.214v0.779C116.885,259.232,116.79,259.329,116.672,259.329z"/>
	<path style="fill:#F5F5F5;" d="M116.672,257.85h-1.201c-0.117,0-0.214-0.095-0.214-0.214v-0.59c0-0.117,0.095-0.214,0.214-0.214
		h1.201c0.117,0,0.214,0.095,0.214,0.214v0.59C116.885,257.754,116.79,257.85,116.672,257.85z"/>
	<path style="fill:#F5F5F5;" d="M116.672,256.384h-1.201c-0.117,0-0.214-0.095-0.214-0.214v-0.426c0-0.117,0.095-0.214,0.214-0.214
		h1.201c0.117,0,0.214,0.095,0.214,0.214v0.426C116.885,256.29,116.79,256.384,116.672,256.384z"/>
	<polygon style="fill:#F5F5F5;" points="116.184,254.645 116.184,255.321 117.178,254.977 	"/>
	<polygon style="fill:#F5F5F5;" points="120.312,254.645 120.312,255.321 121.305,254.977 	"/>
	<polygon style="fill:#F5F5F5;" points="118.244,254.16 118.244,254.836 119.237,254.491 	"/>
	<path style="fill:#F5F5F5;" d="M110.54,248.217h-3.094c-0.755,0-1.372-0.617-1.372-1.372v-0.567c0-0.755,0.617-1.372,1.372-1.372
		h3.094c0.755,0,1.372,0.617,1.372,1.372v0.567C111.912,247.599,111.294,248.217,110.54,248.217z"/>
	<path style="fill:#F5F5F5;" d="M129.748,248.217h-2.234c-0.757,0-1.372-0.615-1.372-1.372v-0.567c0-0.757,0.615-1.372,1.372-1.372
		h2.234c0.757,0,1.372,0.615,1.372,1.372v0.567C131.12,247.603,130.505,248.217,129.748,248.217z"/>
	<path style="fill:#F5F5F5;" d="M141.459,250.71h-1.792c-0.434,0-0.785-0.351-0.785-0.785v-0.481c0-0.434,0.351-0.785,0.785-0.785
		h1.792c0.434,0,0.785,0.351,0.785,0.785v0.481C142.243,250.359,141.892,250.71,141.459,250.71z"/>
</g>
<g>
</g>
<g>
</g>
<g>
</g>
<g>
</g>
<g>
</g>
<g>
</g>
<g>
</g>
<g>
</g>
<g>
</g>
<g>
</g>
<g>
</g>
<g>
</g>
<g>
</g>
<g>
</g>
<g>
</g>
</svg>
