<?xml version="1.0" encoding="iso-8859-1"?>
<!-- Generator: Adobe Illustrator 19.0.0, SVG Export Plug-In . SVG Version: 6.00 Build 0)  -->
<svg version="1.1" id="Layer_1" xmlns="http://www.w3.org/2000/svg" xmlns:xlink="http://www.w3.org/1999/xlink" x="0px" y="0px"
	 viewBox="0 0 512.002 512.002" style="enable-background:new 0 0 512.002 512.002;" xml:space="preserve">
<path style="fill:#F5F5F5;" d="M482.45,366.321l-0.008-42.41l-0.005-27.164l-0.014-81.491l-0.005-27.164l-0.008-42.486
	c0-3.105-0.422-6.147-1.202-9.07c-0.42-1.572-0.948-3.107-1.577-4.598c-2.568-6.091-6.814-11.419-12.362-15.28
	c-0.812-0.565-1.642-1.11-2.509-1.611l-23.71-13.684l-22.198-12.81l-17.87-10.313l-68.334-39.439l0,0l-26.659-15.386l-19.995-11.539
	l-12.39-7.151c-10.918-6.301-24.37-6.3-35.287,0.006l-12.307,7.108l-19.995,11.548l-26.659,15.398l0,0l-68.33,39.466L81.079,95.547
	l-22.191,12.818l-11.697,6.756c-0.841,0.486-1.648,1.015-2.439,1.561c-3.392,2.349-6.296,5.254-8.638,8.538
	c-1.572,2.206-2.883,4.585-3.911,7.092c-1.715,4.179-2.652,8.706-2.651,13.371l0.007,42.41l0.005,27.164l0.014,81.478v0.014v0.005
	l0.005,27.159l0.007,42.478v0.006c0.003,11.607,5.715,22.388,15.14,28.946c0.812,0.565,1.642,1.11,2.509,1.611l23.377,13.491
	l22.198,12.811l18.204,10.506l94.999,54.826l19.995,11.539l12.39,7.151c10.918,6.301,24.37,6.298,35.287-0.006l12.307-7.108
	l19.995-11.548l26.659-15.397l0,0l57.588-33.261l10.742-6.205l27.325-15.782l22.191-12.818l14.319-8.27
	c0.841-0.486,1.648-1.015,2.439-1.562C476.716,388.766,482.452,377.956,482.45,366.321L482.45,366.321L482.45,366.321z"/>
<g>
	<path style="fill:#41479B;" d="M467.273,116.66c-0.812-0.565-1.642-1.11-2.509-1.611l-23.71-13.684l-22.198-12.81l-17.87-10.313
		l-68.338-39.441l-3.853-2.223l-22.806-13.163l-19.995-11.539l-12.39-7.151c-10.918-6.302-24.37-6.3-35.287,0.006l-12.307,7.108
		l-19.995,11.548l-22.839,13.19l-3.823,2.208l0,0l-68.327,39.466L81.079,95.547l-7.037,4.064l7.007,26.425l26.043-1.69h368.142
		C473.019,121.416,470.356,118.806,467.273,116.66z"/>
	<path style="fill:#41479B;" d="M107.092,387.655l-24.793,2.059l-8.279,22.694l18.794,10.847l18.204,10.506l72.191,41.664
		l22.806,13.163l19.995,11.539l12.39,7.151c10.918,6.301,24.37,6.298,35.287-0.006l12.307-7.108l19.995-11.548l22.837-13.19
		l3.821-2.207l57.588-33.261l10.742-6.205l27.325-15.782l22.191-12.818l14.319-8.27c0.841-0.486,1.648-1.013,2.439-1.562
		c3.089-2.139,5.772-4.739,7.998-7.665L107.092,387.655L107.092,387.655z"/>
	<polygon style="fill:#41479B;" points="224.36,299.886 482.439,299.886 482.438,296.747 482.425,215.256 482.424,212.117 
		224.36,212.117 	"/>
</g>
<path style="fill:#FF4B55;" d="M276.225,250.935l-51.866-38.818l-117.268-87.77L74.042,99.611l-15.155,8.753L47.19,115.12
	c-0.841,0.486-1.648,1.015-2.439,1.561c-3.083,2.136-5.738,4.746-7.959,7.665c-0.222,0.292-0.465,0.572-0.679,0.871
	c-1.572,2.206-2.883,4.585-3.911,7.092c-1.715,4.179-2.652,8.706-2.651,13.371l0.007,42.41l0.004,24.025v3.139l0.014,81.478v0.014
	v0.005v3.134l0.004,24.025l0.007,42.478v0.006c0.001,7.807,2.596,15.233,7.156,21.259c2.219,2.933,4.899,5.54,7.984,7.687
	c0.812,0.565,1.642,1.11,2.509,1.611l23.377,13.491l3.404,1.964l33.072-24.753l117.268-87.77l51.866-38.819
	C279.371,258.713,279.371,253.289,276.225,250.935z"/>
<path style="fill:#F5F5F5;" d="M119.47,207.803l10.265,30.777l32.442,0.251c2.513,0.02,3.555,3.227,1.533,4.72l-26.098,19.272
	l9.786,30.932c0.759,2.397-1.971,4.379-4.015,2.917l-26.394-18.866l-26.394,18.865c-2.044,1.462-4.774-0.521-4.015-2.917
	l9.786-30.932L70.268,243.55c-2.022-1.493-0.98-4.701,1.533-4.72l32.442-0.251l10.265-30.777
	C115.302,205.418,118.674,205.418,119.47,207.803z"/>
<g>
</g>
<g>
</g>
<g>
</g>
<g>
</g>
<g>
</g>
<g>
</g>
<g>
</g>
<g>
</g>
<g>
</g>
<g>
</g>
<g>
</g>
<g>
</g>
<g>
</g>
<g>
</g>
<g>
</g>
</svg>
