<?xml version="1.0" encoding="iso-8859-1"?>
<!-- Generator: Adobe Illustrator 19.0.0, SVG Export Plug-In . SVG Version: 6.00 Build 0)  -->
<svg version="1.1" id="Layer_1" xmlns="http://www.w3.org/2000/svg" xmlns:xlink="http://www.w3.org/1999/xlink" x="0px" y="0px"
	 viewBox="0 0 512.001 512.001" style="enable-background:new 0 0 512.001 512.001;" xml:space="preserve">
<g>
	<path style="fill:#41479B;" d="M482.434,285.666l-0.011-70.411l-0.005-27.164l-0.008-42.486c0-3.105-0.422-6.147-1.202-9.07
		c-0.42-1.572-0.949-3.107-1.577-4.598c-2.568-6.091-6.814-11.419-12.362-15.28c-0.812-0.565-1.642-1.11-2.509-1.61l-23.71-13.684
		l-22.198-12.81l-17.87-10.313l-68.338-39.439l-26.659-15.386L285.99,11.876L273.6,4.725c-10.918-6.302-24.37-6.3-35.287,0.006
		l-12.307,7.108l-19.995,11.548l-26.659,15.398l0,0l-68.33,39.464L81.076,95.547l-22.191,12.818l-11.697,6.756
		c-0.841,0.486-1.648,1.015-2.439,1.561c-3.392,2.349-6.296,5.254-8.638,8.538c-1.572,2.206-2.883,4.585-3.911,7.092
		c-1.715,4.179-2.652,8.706-2.651,13.371l0.007,42.41l0.005,27.164l0.011,70.411l231.424,12.816L482.434,285.666z"/>
	<path style="fill:#41479B;" d="M482.446,364.774l-226.448-11.306L29.587,364.774v1.616v0.006
		c0.003,11.607,5.715,22.388,15.14,28.946c0.812,0.565,1.642,1.11,2.509,1.611l23.377,13.491l22.198,12.811l18.204,10.506
		l94.999,54.826l19.995,11.539l12.39,7.151c10.918,6.301,24.37,6.298,35.287-0.006l12.307-7.108l19.995-11.548l26.659-15.397
		l57.588-33.261l10.742-6.205l27.325-15.782l22.191-12.818l14.319-8.27c0.841-0.486,1.648-1.013,2.439-1.562
		c9.465-6.556,15.201-17.365,15.2-29.001L482.446,364.774z"/>
</g>
<polygon style="fill:#F5F5F5;" points="482.443,338.405 482.44,323.911 482.438,312.035 482.435,296.747 482.434,285.666 
	29.573,285.666 29.575,296.733 29.575,296.747 29.575,296.752 29.578,312.035 29.579,323.911 29.582,338.405 29.587,364.774 
	482.446,364.774 "/>
<polygon style="fill:#FF4B55;" points="29.579,323.911 29.582,338.405 482.443,338.405 482.44,323.911 482.438,312.035 
	29.578,312.035 "/>
<g>
	<path style="fill:#FFE15A;" d="M159.271,232.1l3.033,9.094l9.586,0.074c0.742,0.006,1.051,0.953,0.454,1.395l-7.712,5.695
		l2.892,9.14c0.224,0.709-0.582,1.293-1.186,0.862l-7.799-5.575l-7.799,5.575c-0.604,0.432-1.411-0.154-1.186-0.862l2.892-9.14
		l-7.712-5.695c-0.597-0.441-0.29-1.388,0.454-1.395l9.586-0.074l3.033-9.094C158.04,231.396,159.036,231.396,159.271,232.1z"/>
	<path style="fill:#FFE15A;" d="M159.271,391.901l3.033,9.094l9.586,0.075c0.742,0.006,1.051,0.953,0.454,1.395l-7.712,5.695
		l2.892,9.14c0.224,0.709-0.582,1.293-1.186,0.862l-7.799-5.575l-7.799,5.575c-0.604,0.432-1.411-0.154-1.186-0.862l2.892-9.14
		l-7.712-5.695c-0.597-0.441-0.29-1.388,0.454-1.395l9.586-0.075l3.033-9.094C158.04,391.198,159.036,391.198,159.271,391.901z"/>
	<path style="fill:#FFE15A;" d="M107.399,400.831l7.708-5.698l7.888,5.448c0.611,0.422,1.408-0.176,1.172-0.881l-3.038-9.092
		l7.619-5.817c0.59-0.451,0.267-1.393-0.476-1.387l-9.586,0.08l-3.179-9.044c-0.246-0.701-1.242-0.685-1.466,0.024l-2.887,9.141
		l-9.584,0.229c-0.742,0.018-1.035,0.97-0.431,1.402l7.802,5.57l-2.744,9.185C105.986,400.7,106.802,401.272,107.399,400.831z"/>
	<path style="fill:#FFE15A;" d="M122.816,270.923l-7.827-5.535l-7.77,5.613c-0.602,0.435-1.411-0.146-1.191-0.856l2.845-9.155
		l-7.74-5.656c-0.6-0.439-0.296-1.387,0.446-1.397l9.586-0.122l2.987-9.109c0.231-0.706,1.228-0.711,1.467-0.007l3.079,9.079
		l9.586,0.026c0.742,0.002,1.056,0.948,0.46,1.392l-7.683,5.733l2.938,9.125C124.226,270.762,123.422,271.352,122.816,270.923z"/>
	<path style="fill:#FFE15A;" d="M195.009,271.04l7.708-5.7l7.888,5.448c0.611,0.422,1.408-0.176,1.172-0.881l-3.038-9.092
		l7.619-5.818c0.59-0.451,0.267-1.393-0.476-1.387l-9.586,0.08l-3.179-9.044c-0.246-0.701-1.242-0.685-1.466,0.024l-2.887,9.141
		l-9.584,0.229c-0.742,0.018-1.035,0.971-0.431,1.402l7.802,5.57l-2.744,9.185C193.595,270.909,194.411,271.482,195.009,271.04z"/>
	<path style="fill:#FFE15A;" d="M210.425,400.714l-7.827-5.535l-7.77,5.613c-0.602,0.435-1.411-0.147-1.191-0.856l2.845-9.154
		l-7.74-5.656c-0.6-0.439-0.296-1.387,0.446-1.397l9.585-0.122l2.987-9.109c0.231-0.706,1.228-0.711,1.466-0.008l3.079,9.079
		l9.586,0.026c0.742,0.003,1.056,0.948,0.46,1.392l-7.683,5.733l2.938,9.125C211.834,400.553,211.032,401.142,210.425,400.714z"/>
	<path style="fill:#FFE15A;" d="M95.933,344.86l-9.586,0.064l-3.163-9.049c-0.245-0.701-1.242-0.686-1.466,0.021l-2.902,9.136
		l-9.584,0.212c-0.742,0.016-1.037,0.968-0.434,1.401l7.793,5.583l-2.759,9.18c-0.214,0.711,0.601,1.285,1.198,0.845l7.718-5.686
		l7.878,5.462c0.61,0.424,1.408-0.174,1.173-0.879l-3.023-9.098l7.629-5.805C96.998,345.799,96.677,344.855,95.933,344.86z"/>
	<path style="fill:#FFE15A;" d="M69.234,295.59l9.585-0.181l2.932-9.128c0.227-0.707,1.223-0.719,1.467-0.016l3.134,9.06
		l9.586-0.033c0.742-0.003,1.061,0.942,0.469,1.39l-7.648,5.78l2.993,9.108c0.232,0.706-0.567,1.3-1.177,0.875l-7.86-5.487
		l-7.737,5.661c-0.6,0.439-1.412-0.139-1.196-0.849l2.789-9.171l-7.774-5.608C68.195,296.555,68.492,295.604,69.234,295.59z"/>
	<path style="fill:#FFE15A;" d="M247.821,295.236l-9.586,0.064l-3.163-9.05c-0.245-0.701-1.241-0.686-1.466,0.021l-2.902,9.136
		l-9.584,0.212c-0.742,0.016-1.037,0.968-0.432,1.401l7.793,5.583l-2.759,9.18c-0.214,0.711,0.601,1.286,1.198,0.845l7.718-5.686
		l7.878,5.461c0.61,0.424,1.408-0.174,1.173-0.879l-3.023-9.098l7.629-5.805C248.885,296.175,248.564,295.231,247.821,295.236z"/>
	<path style="fill:#FFE15A;" d="M221.122,345.214l9.585-0.181l2.932-9.127c0.227-0.707,1.223-0.719,1.466-0.016l3.134,9.06
		l9.586-0.033c0.742-0.003,1.061,0.942,0.469,1.39l-7.648,5.78l2.993,9.107c0.232,0.706-0.567,1.3-1.177,0.875l-7.86-5.487
		l-7.737,5.661c-0.6,0.439-1.412-0.139-1.196-0.849l2.789-9.171l-7.774-5.608C220.082,346.18,220.379,345.228,221.122,345.214z"/>
</g>
<g>
</g>
<g>
</g>
<g>
</g>
<g>
</g>
<g>
</g>
<g>
</g>
<g>
</g>
<g>
</g>
<g>
</g>
<g>
</g>
<g>
</g>
<g>
</g>
<g>
</g>
<g>
</g>
<g>
</g>
</svg>
