<?xml version="1.0" encoding="iso-8859-1"?>
<!-- Generator: Adobe Illustrator 19.0.0, SVG Export Plug-In . SVG Version: 6.00 Build 0)  -->
<svg version="1.1" id="Layer_1" xmlns="http://www.w3.org/2000/svg" xmlns:xlink="http://www.w3.org/1999/xlink" x="0px" y="0px"
	 viewBox="0 0 512 512" style="enable-background:new 0 0 512 512;" xml:space="preserve">
<path style="fill:#41479B;" d="M44.105,117.173c-3.108,2.263-5.803,4.977-7.99,8.045c-1.572,2.206-2.883,4.585-3.911,7.092
	c-1.715,4.179-2.652,8.706-2.651,13.371l0.007,42.41l0.005,27.164l0.014,81.478v0.014v0.005l0.005,27.159l0.007,42.478v0.006
	c0.003,11.607,5.715,22.388,15.14,28.946c0.812,0.565,1.642,1.11,2.509,1.611l23.377,13.491l22.198,12.811l18.204,10.506
	l94.999,54.826l19.995,11.539l12.39,7.151c10.918,6.301,24.37,6.298,35.287-0.006l12.307-7.108l19.995-11.548l26.659-15.397
	l57.588-33.261l10.742-6.205l27.325-15.782l22.191-12.818l14.319-8.27c0.841-0.486,1.648-1.013,2.439-1.562
	c0.225-0.155,0.436-0.325,0.656-0.485L265.998,237.25L44.105,117.173z"/>
<path style="fill:#73AF00;" d="M475.291,387.596c0.01-0.013,0.019-0.026,0.029-0.039c0.402-0.531,0.789-1.073,1.16-1.627
	c0.021-0.031,0.041-0.064,0.062-0.096c0.356-0.536,0.7-1.081,1.026-1.635c0.034-0.056,0.065-0.116,0.097-0.172
	c0.31-0.532,0.607-1.071,0.89-1.618c0.045-0.089,0.086-0.18,0.131-0.269c0.262-0.521,0.516-1.046,0.752-1.581
	c0.055-0.124,0.102-0.251,0.156-0.376c0.216-0.505,0.427-1.012,0.62-1.527c0.062-0.167,0.116-0.339,0.176-0.506
	c0.171-0.479,0.34-0.96,0.491-1.447c0.066-0.216,0.121-0.436,0.184-0.654c0.129-0.446,0.259-0.894,0.37-1.347
	c0.066-0.269,0.117-0.542,0.176-0.812c0.09-0.41,0.185-0.817,0.261-1.23c0.061-0.334,0.104-0.672,0.155-1.008
	c0.055-0.357,0.117-0.712,0.161-1.073c0.052-0.431,0.084-0.866,0.12-1.301c0.022-0.271,0.057-0.541,0.074-0.812
	c0.044-0.711,0.066-1.427,0.065-2.144l-0.008-42.41l-0.005-27.164l-0.014-81.491l-0.005-27.164l-0.008-42.486
	c0-3.105-0.422-6.147-1.202-9.07c-0.42-1.572-0.948-3.107-1.577-4.598c-2.568-6.091-6.814-11.419-12.362-15.28
	c-0.812-0.565-1.642-1.11-2.509-1.61l-23.71-13.684l-22.198-12.81l-17.87-10.313l-68.336-39.441l-26.659-15.386l-19.995-11.539
	l-12.39-7.151c-10.918-6.302-24.37-6.3-35.287,0.006l-12.307,7.108l-19.994,11.549l-26.659,15.398l0,0l0,0l-68.326,39.465
	L81.079,95.547l-22.191,12.818l-11.697,6.756c-0.841,0.486-1.648,1.015-2.439,1.561c-0.185,0.129-0.357,0.271-0.536,0.407
	c-0.037,0.027-0.072,0.056-0.111,0.084l183.056,119.933c-0.996,1.46-1.392,4.058,0.045,5.207c2.147,1.718,6.012,4.939,3.65,6.872
	c-2.362,1.932-3.22,2.147-3.65,4.509s0,2.792-1.932,3.865s-6.442,3.22-4.509,5.367c1.932,2.147,4.509,0.86,6.227-2.577
	c0,0,12.024-0.429,12.453,0.43c0.43,0.86,1.503,4.08,4.079,3.222c2.577-0.86,2.577-0.86,2.577-0.86s1.503-0.645,2.577,0.645
	c1.073,1.288,3.65,1.717,6.656,1.717c3.006,0,5.582,1.717,5.367,5.797c-0.137,2.613-0.804,8.047-1.265,11.614
	c-0.247,1.911,1.063,3.669,2.964,3.985l5.497,0.916c1.446,0.241,2.79-0.791,2.919-2.252c0.259-2.938,0.632-7.241,0.62-7.393
	c-0.099-1.225,1.848-6.453,2.551-10.386l193.918,127.05c0.001-0.001,0.003-0.003,0.005-0.003c2.264-1.648,4.306-3.543,6.093-5.637
	l0,0C474.449,388.675,474.879,388.141,475.291,387.596z M235.199,243.958c-0.516-0.625-1.136-1.66-1.817-2.777l6.966,4.564
	C238.295,245.781,236.416,245.431,235.199,243.958z"/>
<g>
	<path style="fill:#F5F5F5;" d="M63.445,256.893l2.727,6.906l7.099-2.174c0.395-0.121,0.734,0.304,0.527,0.661l-3.699,6.437
		l6.126,4.195c0.34,0.232,0.22,0.762-0.189,0.825l-7.339,1.121l0.54,7.405c0.03,0.411-0.459,0.647-0.762,0.367l-5.452-5.039
		l-5.452,5.039c-0.302,0.28-0.792,0.044-0.762-0.367l0.54-7.405l-7.339-1.121c-0.407-0.063-0.529-0.591-0.189-0.825l6.126-4.195
		l-3.699-6.437c-0.205-0.357,0.132-0.782,0.527-0.661l7.099,2.174l2.727-6.906C62.751,256.509,63.294,256.509,63.445,256.893z"/>
	<path style="fill:#F5F5F5;" d="M162.735,238.276l2.727,6.906l7.099-2.174c0.395-0.121,0.734,0.304,0.527,0.661l-3.699,6.437
		l6.126,4.195c0.34,0.234,0.22,0.762-0.189,0.825l-7.339,1.121l0.54,7.405c0.03,0.411-0.46,0.647-0.762,0.367l-5.452-5.039
		l-5.452,5.039c-0.302,0.28-0.792,0.044-0.762-0.367l0.54-7.405l-7.339-1.121c-0.407-0.062-0.529-0.591-0.189-0.825l6.126-4.195
		l-3.699-6.437c-0.205-0.357,0.132-0.782,0.527-0.661l7.099,2.174l2.727-6.906C162.04,237.892,162.584,237.892,162.735,238.276z"/>
	<path style="fill:#F5F5F5;" d="M113.09,193.507l2.727,6.906l7.099-2.174c0.395-0.121,0.732,0.304,0.527,0.661l-3.699,6.437
		l6.126,4.195c0.34,0.234,0.22,0.762-0.189,0.825l-7.339,1.121l0.54,7.405c0.03,0.411-0.459,0.647-0.762,0.367l-5.452-5.039
		l-5.452,5.039c-0.302,0.28-0.792,0.044-0.762-0.367l0.54-7.405l-7.339-1.121c-0.407-0.062-0.529-0.591-0.189-0.825l6.126-4.195
		l-3.699-6.437c-0.205-0.357,0.132-0.782,0.527-0.661l7.099,2.174l2.727-6.906C112.395,193.123,112.939,193.123,113.09,193.507z"/>
	<path style="fill:#F5F5F5;" d="M113.09,356.182l2.727,6.906l7.099-2.174c0.395-0.121,0.732,0.304,0.527,0.661l-3.699,6.437
		l6.126,4.195c0.34,0.232,0.22,0.762-0.189,0.825l-7.339,1.121l0.54,7.405c0.03,0.411-0.459,0.647-0.762,0.367l-5.452-5.039
		l-5.452,5.039c-0.302,0.28-0.792,0.045-0.762-0.367l0.54-7.405l-7.339-1.121c-0.407-0.062-0.529-0.591-0.189-0.825l6.126-4.195
		l-3.699-6.437c-0.205-0.357,0.132-0.782,0.527-0.661l7.099,2.174l2.727-6.906C112.395,355.799,112.939,355.799,113.09,356.182z"/>
	<path style="fill:#F5F5F5;" d="M133.411,263.143l1.903,5.707l6.016,0.046c0.466,0.004,0.66,0.599,0.285,0.875l-4.84,3.574
		l1.815,5.736c0.14,0.445-0.365,0.812-0.745,0.541l-4.895-3.498l-4.895,3.498c-0.379,0.271-0.885-0.096-0.745-0.541l1.814-5.736
		l-4.84-3.574c-0.375-0.277-0.181-0.871,0.285-0.875l6.016-0.046l1.903-5.707C132.638,262.7,133.263,262.7,133.411,263.143z"/>
</g>
<g>
	<path style="fill:#FFE15A;" d="M256.889,209.229c-26.03,0-47.132,21.102-47.132,47.132s21.102,47.132,47.132,47.132
		s47.132-21.102,47.132-47.132C304.022,230.332,282.92,209.229,256.889,209.229z M288.186,249.399
		c-5.582,1.932-8.374,7.301-9.662,9.447c-1.288,2.147-4.509,2.577-4.509,2.577s0,0,0.215,3.65s-2.915,11.554-2.792,13.098
		c0.012,0.152-0.362,4.455-0.62,7.393c-0.129,1.461-1.472,2.493-2.919,2.252l-5.497-0.916c-1.901-0.317-3.21-2.074-2.964-3.985
		c0.461-3.568,1.127-9.001,1.265-11.614c0.215-4.08-2.362-5.797-5.367-5.797c-3.007,0-5.582-0.43-6.656-1.717
		c-1.073-1.288-2.577-0.645-2.577-0.645s0,0-2.577,0.86c-2.577,0.859-3.65-2.362-4.079-3.222c-0.43-0.858-12.453-0.43-12.453-0.43
		c-1.718,3.437-4.294,4.724-6.227,2.577c-1.932-2.147,2.577-4.295,4.509-5.367c1.932-1.073,1.503-1.503,1.932-3.865
		c0.43-2.362,1.288-2.577,3.65-4.509c2.362-1.933-1.503-5.154-3.65-6.872c-2.147-1.717-0.21-6.677,1.718-6.227
		c2.293,0.536,4.739,6.012,6.275,7.872c1.536,1.859,4.123,1.941,6.789,1.697c2.668-0.242,3.961,2.344,3.961,2.344
		c11.883,3.638,25.463-10.024,25.624-12.044c0.161-2.021,0.081-3.153,1.293-3.638s1.375,1.859,1.375,1.859
		c1.939-0.566,3.314-5.982,4.123-6.386s1.697,0.324,2.021,1.051c0.324,0.727,1.536,0.807,2.344,0.97
		c0.809,0.161,1.132-0.324,1.455-1.212c0.324-0.889,1.854-0.242,1.854-0.242s0.215,3.865,0.859,6.656
		c0.644,2.792,0.215,6.227-0.645,7.515c-0.859,1.288,3.435,3.22,3.435,3.22L288.186,249.399z"/>
	<path style="fill:#FFE15A;" d="M316.366,258.549c3.58,3.805,42.927,14.52,82.697-6.313c39.77-20.832,63.444-26.829,63.444-26.829
		s0.316-5.366,5.209-6.155c4.892-0.789,2.526-2.84,1.262-4.419c-1.262-1.578-7.418-5.84-15.782-2.209c0,0-9.732,0.369-11.206-13.099
		c-1.473-13.468-2.104-27.145-5.471-33.037s-31.143-35.352-34.509-33.037c-3.367,2.314,8.416,31.564,19.358,41.875
		c0,0,2.526,18.096-0.631,18.939c-3.157,0.842-20.622-15.151-51.765-18.939c0,0,13.256,18.096,29.459,25.672
		c16.203,7.575,20.622,14.52,20.201,17.465s-5.892,17.044-14.941,23.567s-31.774,24.198-83.328,14.94
		C320.363,256.971,314.681,256.759,316.366,258.549z"/>
</g>
<g>
</g>
<g>
</g>
<g>
</g>
<g>
</g>
<g>
</g>
<g>
</g>
<g>
</g>
<g>
</g>
<g>
</g>
<g>
</g>
<g>
</g>
<g>
</g>
<g>
</g>
<g>
</g>
<g>
</g>
</svg>
