<?xml version="1.0" encoding="iso-8859-1"?>
<!-- Generator: Adobe Illustrator 19.0.0, SVG Export Plug-In . SVG Version: 6.00 Build 0)  -->
<svg version="1.1" id="Layer_1" xmlns="http://www.w3.org/2000/svg" xmlns:xlink="http://www.w3.org/1999/xlink" x="0px" y="0px"
	 viewBox="0 0 512.001 512.001" style="enable-background:new 0 0 512.001 512.001;" xml:space="preserve">
<path style="fill:#F5F5F5;" d="M29.589,366.395l-0.036-220.713c-0.003-12.607,6.722-24.257,17.639-30.563L238.315,4.731
	c10.917-6.306,24.368-6.307,35.287-0.006L464.763,115.05c10.92,6.302,17.646,17.95,17.649,30.557l0.036,220.713
	c0.003,12.607-6.722,24.257-17.639,30.563L273.685,507.271c-10.917,6.306-24.368,6.307-35.287,0.006L47.238,396.952
	C36.318,390.65,29.591,379.002,29.589,366.395z"/>
<g>
	<path style="fill:#73AF00;" d="M242.894,374.4c5.531-4.131,10.337-5.482,17.774-6.833c7.439-1.351,15.296-3.655,19.416-4.769
		c4.156-1.151-13.961,5.482-18.576,6.794C256.968,370.983,242.894,374.4,242.894,374.4L242.894,374.4z"/>
	<path style="fill:#73AF00;" d="M272.836,362.766c-1.488-9.345,2.211-19.186,10.678-23.115
		C285.499,346.442,279.433,357.96,272.836,362.766L272.836,362.766z"/>
	<path style="fill:#73AF00;" d="M287.291,357.923c-4.539-7.819,3.089-17.851,8.773-22.734
		C298.696,339.88,294.079,353.879,287.291,357.923L287.291,357.923z"/>
	<path style="fill:#73AF00;" d="M300.602,351.897c-4.806-6.674,0.916-18.348,7.019-22.962
		C309.986,335.533,307.622,347.356,300.602,351.897L300.602,351.897z"/>
	<path style="fill:#73AF00;" d="M313.952,343.505c-4.424-6.295-1.333-16.059,5.035-22.429
		C323.527,326.34,319.636,337.707,313.952,343.505L313.952,343.505z"/>
	<path style="fill:#73AF00;" d="M324.672,335.113c-3.7-5.951,0.837-20.177,6.788-24.107
		C334.017,316.269,332.109,331.146,324.672,335.113L324.672,335.113z"/>
	<path style="fill:#73AF00;" d="M333.177,332.863c-1.068-8.506,13.807-17.928,19.873-17.66
		C352.402,322.144,346.031,329.772,333.177,332.863L333.177,332.863z"/>
	<path style="fill:#73AF00;" d="M324.862,342.473c7.019-7.169,20.561-7.169,25.364-5.683
		C348.968,340.987,332.948,350.104,324.862,342.473L324.862,342.473z"/>
	<path style="fill:#73AF00;" d="M315.249,349.684c9.841-2.633,16.211-4.769,22.085,1.333
		C333.177,356.283,317.233,354.719,315.249,349.684L315.249,349.684z"/>
	<path style="fill:#73AF00;" d="M301.213,356.054c9.421-5.036,20.826,2.402,22.543,6.712
		C313.266,367.153,301.022,357.159,301.213,356.054L301.213,356.054z"/>
	<path style="fill:#73AF00;" d="M288.321,363.263c8.583-3.282,18.424,1.068,22.314,5.875
		C306.057,371.349,294.079,373.751,288.321,363.263L288.321,363.263z"/>
	<path style="fill:#73AF00;" d="M276.574,366.961c9.841-1.105,19.261,6.371,21.322,10.605
		C285.383,378.786,280.54,375.011,276.574,366.961L276.574,366.961z"/>
	<path style="fill:#73AF00;" d="M273.408,374.4c-5.455-4.131-10.261-5.482-17.699-6.833c-7.439-1.351-15.296-3.655-19.49-4.769
		c-4.081-1.151,14.036,5.482,18.65,6.794C259.446,370.983,273.408,374.4,273.408,374.4L273.408,374.4z"/>
	<path style="fill:#73AF00;" d="M243.465,362.766c1.562-9.345-2.137-19.186-10.681-23.115
		C230.878,346.442,236.943,357.96,243.465,362.766L243.465,362.766z"/>
	<path style="fill:#73AF00;" d="M229.084,357.923c4.616-7.819-3.089-17.851-8.773-22.734
		C217.68,339.88,222.296,353.879,229.084,357.923L229.084,357.923z"/>
	<path style="fill:#73AF00;" d="M215.698,351.897c4.882-6.674-0.84-18.348-6.943-22.962
		C206.353,335.533,208.755,347.356,215.698,351.897L215.698,351.897z"/>
	<path style="fill:#73AF00;" d="M202.384,343.505c4.386-6.295,1.336-16.059-4.996-22.429
		C192.85,326.34,196.741,337.707,202.384,343.505L202.384,343.505z"/>
	<path style="fill:#73AF00;" d="M191.706,335.113c3.775-5.951-0.84-20.177-6.791-24.107
		C182.283,316.269,184.268,331.146,191.706,335.113L191.706,335.113z"/>
	<path style="fill:#73AF00;" d="M183.123,332.863c1.145-8.506-13.731-17.928-19.797-17.66
		C163.975,322.144,170.232,329.772,183.123,332.863L183.123,332.863z"/>
	<path style="fill:#73AF00;" d="M191.515,342.473c-7.019-7.169-20.558-7.169-25.364-5.683
		C167.484,340.987,183.428,350.104,191.515,342.473L191.515,342.473z"/>
	<path style="fill:#73AF00;" d="M201.127,349.684c-9.841-2.633-16.211-4.769-22.085,1.333
		C183.123,356.283,199.142,354.719,201.127,349.684L201.127,349.684z"/>
	<path style="fill:#73AF00;" d="M215.086,356.054c-9.381-5.036-20.749,2.402-22.466,6.712
		C203.109,367.153,215.278,357.159,215.086,356.054L215.086,356.054z"/>
	<path style="fill:#73AF00;" d="M227.941,363.263c-8.544-3.282-18.346,1.068-22.236,5.875
		C210.319,371.349,222.296,373.751,227.941,363.263L227.941,363.263z"/>
	<path style="fill:#73AF00;" d="M239.841,366.961c-9.917-1.105-19.337,6.371-21.359,10.605
		C231.069,378.786,235.875,375.011,239.841,366.961L239.841,366.961z"/>
</g>
<path style="fill:#FFC850;" d="M133.652,225.643c0,0-2.732,3.563,1.908,12.587s1.307,19.438,6.306,22.77
	c4.999,3.333,0.21,9.941,5.937,14.344c5.726,4.401,20.776,14.531,31.163,15.716c10.387,1.183,20.478-9.311,26.471-1.565
	c5.993,7.747,4.684,13.206,10.337,13.809c5.653,0.602,5.653-1.897,5.237-5.646s3.749-14.162,13.33-14.162s19.731-1.14,35.9-7.236
	c16.169-6.095,24.083-9.01,26.167-18.591c2.083-9.581,8.004-20.908,19.415-15.661c11.411,5.247,10.643,2.785,14.151,0.267
	s15.268,4.766,17.928,0.916c2.659-3.851-20.812-22.904-19.49-32.956c1.321-10.051,4.486-18.4,14.151-19.225
	s7.166-11.654,17.163-17.07c9.997-5.415,14.602-6.035,22.505-14.056c7.903-8.022,28.685-24.26,28.685-24.26
	s-40.431,19.362-48.518,21.133s-11.419,13.434-33.913,19.682s-23.743,8.748-40.823,12.497c-15.381,3.377-50.125,2.242-70.677-4.353
	c-2.834-0.91-5.651,1.33-5.4,4.295c0.846,9.99,0.61,27.951-11.524,30.738c0,0-16.538-12.352-26.951-6.937
	c-10.413,5.415-17.82,24.727-25.572,21.735C139.782,231.425,138.768,219.028,133.652,225.643z"/>
<g>
</g>
<g>
</g>
<g>
</g>
<g>
</g>
<g>
</g>
<g>
</g>
<g>
</g>
<g>
</g>
<g>
</g>
<g>
</g>
<g>
</g>
<g>
</g>
<g>
</g>
<g>
</g>
<g>
</g>
</svg>
