<?xml version="1.0" encoding="iso-8859-1"?>
<!-- Generator: Adobe Illustrator 19.0.0, SVG Export Plug-In . SVG Version: 6.00 Build 0)  -->
<svg version="1.1" id="Layer_1" xmlns="http://www.w3.org/2000/svg" xmlns:xlink="http://www.w3.org/1999/xlink" x="0px" y="0px"
	 viewBox="0 0 512.001 512.001" style="enable-background:new 0 0 512.001 512.001;" xml:space="preserve">
<path style="fill:#F5F5F5;" d="M482.45,366.317l-0.008-42.41l-0.005-27.164l-0.014-81.491l-0.005-27.164l-0.008-42.485
	c-0.001-3.105-0.422-6.147-1.202-9.07c-0.42-1.572-0.949-3.107-1.577-4.597c-2.568-6.091-6.814-11.419-12.362-15.28
	c-0.812-0.565-1.642-1.11-2.509-1.611l-23.71-13.684l-22.198-12.81l-17.87-10.313L332.647,38.8l0,0l-26.659-15.386l-19.995-11.539
	l-12.39-7.151c-10.918-6.301-24.37-6.298-35.287,0.006l-12.307,7.108l-19.995,11.548l-26.659,15.398l0,0l-68.331,39.464
	L81.079,95.545l-22.191,12.818l-11.697,6.756c-0.841,0.486-1.648,1.015-2.439,1.561c-3.392,2.349-6.296,5.254-8.638,8.538
	c-1.572,2.206-2.883,4.585-3.911,7.092c-1.715,4.179-2.652,8.706-2.651,13.371l0.007,42.41l0.005,27.164l0.014,81.478v0.014v0.005
	l0.005,27.159l0.007,42.478v0.006c0.003,11.607,5.715,22.388,15.14,28.946c0.812,0.565,1.642,1.11,2.509,1.611l23.377,13.491
	l22.198,12.812l18.204,10.506l94.999,54.826l19.995,11.539l12.39,7.151c10.918,6.302,24.37,6.298,35.287-0.006l12.307-7.108
	l19.995-11.548l26.659-15.397l0,0l57.587-33.261l10.742-6.205l27.325-15.782l22.191-12.818l14.319-8.27
	c0.841-0.486,1.648-1.015,2.439-1.562C476.715,388.764,482.451,377.954,482.45,366.317L482.45,366.317L482.45,366.317z"/>
<path style="fill:#73AF00;" d="M238.316,4.729l-12.307,7.108l-19.995,11.548l-26.659,15.398l0,0l-68.33,39.465L81.079,95.545
	l-22.191,12.818l-11.697,6.756c-0.841,0.486-1.648,1.015-2.439,1.561c-3.392,2.349-6.296,5.254-8.638,8.538
	c-1.572,2.206-2.883,4.585-3.911,7.092c-1.716,4.179-2.652,8.706-2.651,13.371l0.007,42.41l0.005,27.164l0.014,81.478v0.014v0.005
	l0.005,27.159l0.007,42.478v0.006c0.003,11.607,5.715,22.389,15.14,28.946c0.812,0.565,1.642,1.11,2.509,1.611l23.377,13.491
	l22.198,12.812l18.204,10.506l94.999,54.826l19.995,11.539l12.39,7.151c5.447,3.143,11.524,4.716,17.601,4.722V0
	C249.895-0.006,243.787,1.57,238.316,4.729z"/>
<g>
	<path style="fill:#FF4B55;" d="M304.255,219.653l-17.333,22.674l-27.064-9.059c-1.513-0.506-2.8,1.205-1.894,2.518l16.208,23.491
		l-16.979,22.94c-0.95,1.283,0.28,3.035,1.81,2.579l27.35-8.157l16.57,23.237c0.927,1.3,2.974,0.671,3.013-0.923l0.695-28.532
		l27.22-8.579c1.522-0.48,1.557-2.621,0.052-3.15l-26.92-9.477l0.252-28.538C307.249,219.08,305.224,218.385,304.255,219.653z"/>
	<path style="fill:#FF4B55;" d="M273.97,324.663c-37.892,0-68.63-30.738-68.63-68.665c0-37.857,30.738-68.664,68.63-68.664
		c14.097,0,27.099,4.336,37.933,11.674c1.66,1.123,3.553-1.056,2.163-2.501c-16.193-16.835-39.111-27.105-64.52-26.238
		c-43.656,1.49-79.796,36.491-82.585,80.083c-3.195,49.931,36.341,91.425,85.565,91.425c24.247,0,46.039-10.137,61.601-26.344
		c1.375-1.432-0.524-3.579-2.166-2.466C301.115,320.321,288.092,324.663,273.97,324.663z"/>
</g>
<g>
</g>
<g>
</g>
<g>
</g>
<g>
</g>
<g>
</g>
<g>
</g>
<g>
</g>
<g>
</g>
<g>
</g>
<g>
</g>
<g>
</g>
<g>
</g>
<g>
</g>
<g>
</g>
<g>
</g>
</svg>
