<?xml version="1.0" encoding="iso-8859-1"?>
<!-- Generator: Adobe Illustrator 19.0.0, SVG Export Plug-In . SVG Version: 6.00 Build 0)  -->
<svg version="1.1" id="Layer_1" xmlns="http://www.w3.org/2000/svg" xmlns:xlink="http://www.w3.org/1999/xlink" x="0px" y="0px"
	 viewBox="0 0 512.001 512.001" style="enable-background:new 0 0 512.001 512.001;" xml:space="preserve">
<path style="fill:#FF4B55;" d="M29.589,366.395l-0.036-220.713c-0.003-12.607,6.722-24.257,17.639-30.562L238.315,4.731
	c10.917-6.306,24.368-6.307,35.287-0.006L464.763,115.05c10.918,6.302,17.646,17.95,17.649,30.557l0.036,220.713
	c0.003,12.607-6.722,24.257-17.639,30.563L273.685,507.271c-10.917,6.306-24.368,6.307-35.287,0.006L47.238,396.952
	C36.318,390.65,29.591,379.002,29.589,366.395z"/>
<g>
	<path style="fill:#F5F5F5;" d="M222.536,269.719c-11.814,0.121-25.078-3.661-36.702-16.474c-0.802-0.884-0.689-2.274,0.221-3.047
		l0.004-0.004c0.884-0.749,2.189-0.632,2.969,0.224c17.718,19.456,39.678,16.051,52.798,11.348
		c-4.847,0.216-10.938-0.149-14.855-2.724c-16.364-10.757-8.953-22.201-19.822-36.035c-10.8-13.745-20.517-13.409-35.82-11.089
		c-15.15,2.296-19.975-8.816-21.477-14.983c-0.269-1.103-1.81-1.175-2.204-0.109c-18.881,51.014,37.893,114.136,96.181,68.75
		C238.079,267.695,230.671,269.636,222.536,269.719z M180.001,252.407c-0.331,0.911-1.632,0.876-1.913-0.052l-2.174-7.164
		l-7.483-0.262c-0.968-0.034-1.337-1.282-0.541-1.836l6.142-4.281l-2.063-7.198c-0.267-0.932,0.806-1.667,1.578-1.082l5.971,4.519
		l6.208-4.186c0.804-0.542,1.835,0.251,1.517,1.167l-2.452,7.074l5.9,4.61c0.764,0.597,0.329,1.822-0.641,1.803l-7.485-0.146
		L180.001,252.407z"/>
	<path style="fill:#F5F5F5;" d="M264.355,235.826c9.381-7.182,22.264-12.11,39.249-8.829c1.172,0.226,1.916,1.407,1.65,2.571
		l-0.001,0.005c-0.257,1.13-1.372,1.82-2.511,1.601c-25.845-4.944-41.376,10.952-49.055,22.583c3.75-3.079,8.843-6.441,13.52-6.729
		c19.546-1.206,20.478,12.397,37.472,16.948c16.885,4.523,24.46-1.575,35.314-12.608c10.746-10.922,21.272-4.925,26.172-0.89
		c0.877,0.722,2.152-0.146,1.828-1.235c-15.484-52.146-98.772-68.607-118.196,2.667C253.13,246.767,257.895,240.771,264.355,235.826
		z M308.774,224.171c-0.281-0.928,0.781-1.68,1.562-1.106l6.037,4.429l6.146-4.278c0.796-0.554,1.838,0.224,1.535,1.145
		l-2.347,7.111l5.968,4.523c0.772,0.585,0.355,1.817-0.615,1.813l-7.488-0.035l-2.457,7.073c-0.319,0.916-1.62,0.9-1.914-0.024
		l-2.281-7.132l-7.487-0.151c-0.968-0.02-1.356-1.262-0.569-1.828l6.078-4.373L308.774,224.171z"/>
	<path style="fill:#F5F5F5;" d="M233.069,240.742c-4.607-10.88-6.157-24.586,1.268-40.21c0.512-1.078,1.842-1.503,2.902-0.955
		l0.005,0.003c1.028,0.532,1.417,1.785,0.922,2.83c-11.251,23.788,0.255,42.801,9.595,53.144
		c-2.044-4.401-4.024-10.172-3.133-14.773c3.72-19.227,17.125-16.727,25.782-32.042c8.601-15.217,4.592-24.076-3.374-37.345
		c-7.887-13.136,0.552-21.827,5.685-25.562c0.919-0.669,0.397-2.121-0.739-2.079c-54.361,1.949-91.133,78.472-26.981,115.106
		C240.856,254.346,236.242,248.233,233.069,240.742z M232.894,194.819c-0.968,0.04-1.431-1.176-0.68-1.79l5.798-4.737l-2.604-7.021
		c-0.337-0.909,0.676-1.725,1.492-1.2l6.297,4.051l5.872-4.647c0.76-0.601,1.848,0.111,1.602,1.048l-1.907,7.241l6.233,4.148
		c0.807,0.537,0.466,1.792-0.501,1.847l-7.475,0.424l-2.019,7.211c-0.261,0.933-1.561,0.997-1.912,0.094l-2.713-6.978
		L232.894,194.819z"/>
	<path style="fill:#F5F5F5;" d="M275.425,265.427c9.765,6.651,18.49,17.334,20.709,34.491c0.152,1.183-0.734,2.261-1.922,2.374
		h-0.005c-1.153,0.11-2.158-0.732-2.308-1.881c-3.424-26.09-23.394-35.843-36.847-39.48c4.101,2.593,8.891,6.372,10.635,10.723
		c7.284,18.178-5.337,23.335-4.321,40.9c1.01,17.451,9.177,22.728,23.061,29.567c13.745,6.772,11.356,18.649,9.065,24.568
		c-0.41,1.06,0.815,1.998,1.747,1.348c44.643-31.079,34.113-115.322-39.655-111.377
		C261.513,258.207,268.701,260.848,275.425,265.427z M300.442,303.938c0.792-0.559,1.84,0.214,1.541,1.136l-2.309,7.123l5.992,4.49
		c0.776,0.581,0.365,1.816-0.605,1.816l-7.488,0.005l-2.419,7.086c-0.314,0.917-1.613,0.909-1.914-0.014l-2.318-7.119l-7.487-0.111
		c-0.97-0.015-1.362-1.255-0.579-1.824l6.055-4.405l-2.208-7.154c-0.286-0.926,0.772-1.683,1.557-1.113l6.061,4.398L300.442,303.938
		z"/>
	<path style="fill:#F5F5F5;" d="M251.003,286.599c-3.364,11.326-10.886,22.887-26.553,30.223c-1.081,0.506-2.377-0.011-2.847-1.108
		l-0.002-0.005c-0.455-1.065,0.041-2.278,1.088-2.772c23.812-11.201,27.025-33.191,26.397-47.113
		c-1.222,4.696-3.364,10.408-6.978,13.394c-15.1,12.47-23.852,2.016-40.275,8.329c-16.317,6.272-18.857,15.658-21.148,30.964
		c-2.268,15.153-14.309,16.492-20.644,16.111c-1.135-0.069-1.655,1.383-0.754,2.074c43.189,33.07,120.235-2.596,94.029-71.665
		C253.648,271.149,253.319,278.799,251.003,286.599z M221.93,322.148c0.774,0.585,0.356,1.817-0.614,1.813l-7.488-0.033
		l-2.454,7.074c-0.317,0.916-1.618,0.9-1.914-0.024l-2.283-7.131l-7.487-0.149c-0.968-0.019-1.356-1.261-0.57-1.827l6.077-4.375
		l-2.172-7.166c-0.281-0.928,0.78-1.68,1.562-1.106l6.038,4.428l6.143-4.28c0.795-0.554,1.838,0.224,1.535,1.143l-2.344,7.111
		L221.93,322.148z"/>
</g>
<g>
</g>
<g>
</g>
<g>
</g>
<g>
</g>
<g>
</g>
<g>
</g>
<g>
</g>
<g>
</g>
<g>
</g>
<g>
</g>
<g>
</g>
<g>
</g>
<g>
</g>
<g>
</g>
<g>
</g>
</svg>
