<?xml version="1.0" encoding="iso-8859-1"?>
<!-- Generator: Adobe Illustrator 19.0.0, SVG Export Plug-In . SVG Version: 6.00 Build 0)  -->
<svg version="1.1" id="Layer_1" xmlns="http://www.w3.org/2000/svg" xmlns:xlink="http://www.w3.org/1999/xlink" x="0px" y="0px"
	 viewBox="0 0 511.997 511.997" style="enable-background:new 0 0 511.997 511.997;" xml:space="preserve">
<path style="fill:#F5F5F5;" d="M482.436,323.91v-2.899l-0.004-24.265l-0.003-16.657l0,0l-0.004-24.09l0,0l-0.003-12.883l0,0
	l-0.005-27.862l-0.004-24.265l0,0v-2.899l-0.004-18.917l0,0l-0.004-23.569c0-0.004,0-0.007,0-0.007c0-0.82-0.036-1.631-0.092-2.437
	c-0.018-0.247-0.046-0.492-0.069-0.739c-0.052-0.574-0.115-1.145-0.195-1.712c-0.038-0.264-0.079-0.526-0.121-0.787
	c-0.095-0.576-0.204-1.15-0.326-1.718c-0.047-0.217-0.091-0.437-0.142-0.654c-0.175-0.74-0.369-1.475-0.59-2.198
	c-0.01-0.034-0.019-0.067-0.029-0.101c-0.252-0.816-0.532-1.622-0.842-2.416c-0.008-0.019-0.015-0.036-0.022-0.054
	c-0.291-0.744-0.611-1.473-0.951-2.194c-0.052-0.111-0.107-0.22-0.161-0.331c-0.314-0.647-0.647-1.285-1-1.912
	c-0.056-0.099-0.111-0.199-0.167-0.297c-0.404-0.701-0.827-1.391-1.277-2.062c0,0-0.001-0.002-0.003-0.005l-0.001-0.001
	c-0.291-0.435-0.622-0.842-0.935-1.263c-0.312-0.421-0.605-0.856-0.935-1.263c-0.06-0.075-0.124-0.147-0.184-0.222
	c-0.647-0.789-1.325-1.553-2.039-2.286c-0.01-0.01-0.02-0.021-0.03-0.031c-0.696-0.71-1.432-1.385-2.189-2.037
	c-0.156-0.135-0.315-0.266-0.475-0.399c-0.381-0.316-0.789-0.604-1.181-0.907c-0.394-0.304-0.771-0.622-1.181-0.907
	c-0.001,0-0.001-0.001-0.003-0.001c-0.812-0.565-1.642-1.11-2.509-1.611l-23.711-13.684l-22.198-12.81l-7.838-4.523l0,0
	l-10.034-5.79l-29.922-17.273l0,0l-12.045-6.952l0,0L305.98,23.416l-2.729-1.575l-17.265-9.965l-12.39-7.151
	c-10.918-6.302-24.37-6.3-35.287,0.006l-12.307,7.108l-19.993,11.549l-94.99,54.863l-9.932,5.736l0,0l-20.015,11.56l-22.191,12.818
	l-11.697,6.756c-0.841,0.486-1.648,1.015-2.439,1.562c-0.821,0.569-1.603,1.18-2.366,1.811c-0.081,0.066-0.16,0.134-0.241,0.201
	c-0.08,0.067-0.161,0.134-0.241,0.201c-0.759,0.65-1.495,1.322-2.192,2.029c-0.007,0.009-0.015,0.017-0.024,0.025
	c-0.357,0.365-0.68,0.759-1.02,1.138c-0.34,0.38-0.696,0.746-1.02,1.138c-0.067,0.081-0.136,0.161-0.202,0.244
	c-0.306,0.377-0.579,0.779-0.867,1.168c-0.289,0.39-0.595,0.769-0.867,1.168c-0.041,0.06-0.09,0.115-0.13,0.175
	c-0.455,0.675-0.881,1.367-1.288,2.071c-0.06,0.104-0.117,0.209-0.176,0.312c-0.351,0.621-0.682,1.253-0.995,1.894
	c-0.057,0.119-0.117,0.237-0.174,0.357c-0.139,0.294-0.259,0.595-0.387,0.892c-0.185,0.417-0.379,0.831-0.546,1.256
	c-0.014,0.036-0.03,0.071-0.045,0.106c-0.311,0.795-0.594,1.601-0.846,2.418c-0.007,0.022-0.012,0.046-0.02,0.069
	c-0.226,0.737-0.424,1.486-0.602,2.239c-0.051,0.216-0.095,0.434-0.141,0.651c-0.124,0.572-0.234,1.15-0.33,1.73
	c-0.042,0.261-0.085,0.524-0.121,0.787c-0.081,0.572-0.144,1.148-0.196,1.726c-0.022,0.245-0.05,0.489-0.067,0.734
	c-0.056,0.814-0.092,1.632-0.092,2.456l0.004,23.517l0,0l0.004,18.892v2.899l0.004,24.265l0.014,81.491l0.004,20.346l0,0
	l0.001,6.817l0.005,30.156l0,0l0.003,12.329c0,0.82,0.036,1.635,0.092,2.446c0.017,0.246,0.045,0.489,0.067,0.734
	c0.052,0.576,0.115,1.15,0.195,1.72c0.036,0.261,0.077,0.521,0.12,0.78c0.095,0.58,0.205,1.156,0.329,1.728
	c0.046,0.215,0.09,0.431,0.14,0.645c0.176,0.745,0.371,1.485,0.594,2.213c0.009,0.029,0.015,0.057,0.025,0.086
	c0.252,0.819,0.534,1.625,0.845,2.419c0.005,0.015,0.012,0.029,0.017,0.044c0.292,0.747,0.614,1.481,0.956,2.206
	c0.051,0.109,0.106,0.216,0.157,0.324c0.316,0.65,0.65,1.291,1.005,1.921c0.054,0.096,0.107,0.194,0.164,0.29
	c0.405,0.704,0.83,1.395,1.282,2.069v0.001c1.874,2.793,4.156,5.319,6.781,7.499c0.76,0.64,1.548,1.25,2.371,1.822
	c0.812,0.565,1.642,1.11,2.509,1.611l23.377,13.491l10.16,5.863l12.038,6.948l18.204,10.506l58.626,33.835l36.373,20.992
	l2.729,1.575l17.265,9.965l12.39,7.151c0.682,0.394,1.375,0.762,2.076,1.107c0.614,0.301,1.233,0.584,1.859,0.848
	c1.251,0.527,2.527,0.98,3.818,1.356c1.937,0.565,3.911,0.961,5.901,1.186c1.326,0.151,2.659,0.226,3.991,0.225
	c1.332,0,2.665-0.075,3.991-0.226c1.989-0.226,3.963-0.622,5.9-1.188c1.291-0.377,2.566-0.83,3.818-1.358
	c0.626-0.264,1.246-0.547,1.859-0.849c0.234-0.115,0.46-0.249,0.692-0.37c0.464-0.241,0.928-0.476,1.383-0.739l12.307-7.108
	l17.316-10.001l2.678-1.547l35.034-20.234l30.039-17.349l0,0l29.916-17.279l24.65-14.236l0,0l2.676-1.546l22.191-12.818l14.319-8.27
	c0.841-0.486,1.648-1.015,2.439-1.562c0.822-0.57,1.611-1.177,2.371-1.813c0.751-0.621,1.465-1.278,2.157-1.956l0.001-0.001l0,0
	c1.733-1.693,3.299-3.538,4.642-5.531l0,0l0.001-0.003c0.454-0.672,0.879-1.363,1.285-2.064c0.061-0.106,0.12-0.214,0.181-0.32
	c0.349-0.619,0.679-1.247,0.99-1.884c0.059-0.122,0.12-0.244,0.179-0.366c0.332-0.702,0.644-1.413,0.93-2.137
	c0.015-0.039,0.034-0.077,0.049-0.116c0.31-0.794,0.592-1.598,0.845-2.414c0.009-0.026,0.015-0.054,0.022-0.08
	c0.225-0.734,0.421-1.477,0.599-2.226c0.051-0.219,0.096-0.44,0.144-0.66c0.124-0.57,0.232-1.145,0.327-1.722
	c0.044-0.264,0.085-0.527,0.122-0.791c0.08-0.569,0.142-1.142,0.195-1.717c0.022-0.247,0.051-0.494,0.069-0.744
	c0.056-0.81,0.092-1.623,0.092-2.442c0,0,0-0.008,0-0.011L482.436,323.91z"/>
<g>
	<path style="fill:#41479B;" d="M29.571,296.747l0.004,20.346c3.487,0.337,7.393,0.53,11.856,0.53
		c35.734,0,35.734-12.324,71.468-12.324s35.734,12.324,71.467,12.324c35.734,0,35.734-12.324,71.468-12.324
		c35.744,0,35.744,12.324,71.487,12.324c35.724,0,35.724-12.324,71.448-12.324c35.755,0,35.755,12.324,71.51,12.324
		c4.594,0,8.59-0.206,12.157-0.56l-0.004-20.316l-0.003-16.657c-3.564,0.354-7.559,0.56-12.15,0.56
		c-35.755,0-35.755-12.324-71.51-12.324c-35.724,0-35.724,12.324-71.448,12.324c-35.744,0-35.744-12.324-71.487-12.324
		c-35.734,0-35.734,12.324-71.468,12.324s-35.734-12.324-71.467-12.324c-35.734,0-35.734,12.324-71.468,12.324
		c-4.465,0-8.373-0.192-11.862-0.53"/>
	<path style="fill:#41479B;" d="M30.812,243.147c3.48,0.337,7.379,0.53,11.834,0.53c35.635,0,35.635-12.324,71.271-12.324
		s35.635,12.324,71.271,12.324s35.635-12.324,71.272-12.324c35.645,0,35.645,12.324,71.289,12.324
		c35.625,0,35.625-12.324,71.251-12.324c35.656,0,35.656,12.324,71.313,12.324c4.576,0,8.558-0.205,12.11-0.559l-0.005-27.862
		l-0.001-9.109c-3.552,0.354-7.532,0.557-12.104,0.557c-35.656,0-35.656-12.324-71.313-12.324
		c-35.625,0-35.625,12.324-71.251,12.324c-35.645,0-35.645-12.324-71.289-12.324c-35.635,0-35.635,12.324-71.272,12.324
		c-35.635,0-35.635-12.324-71.271-12.324s-35.635,12.324-71.271,12.324c-4.459,0-8.359-0.194-11.841-0.531l0.001,9.083l0.005,28.242
		"/>
	<path style="fill:#41479B;" d="M115.149,157.408c35.517,0,35.517,12.324,71.032,12.324c35.517,0,35.517-12.324,71.033-12.324
		c35.525,0,35.525,12.324,71.052,12.324c35.507,0,35.507-12.324,71.013-12.324c35.538,0,35.538,12.324,71.074,12.324
		c4.555,0,8.52-0.205,12.058-0.557l-0.004-23.569c0-0.004,0-0.007,0-0.007c0-0.82-0.036-1.631-0.091-2.437
		c-0.018-0.247-0.045-0.492-0.067-0.739c-0.052-0.574-0.114-1.145-0.194-1.712c-0.036-0.264-0.077-0.526-0.12-0.787
		c-0.094-0.576-0.202-1.15-0.325-1.718c-0.046-0.217-0.09-0.437-0.141-0.654c-0.174-0.74-0.366-1.475-0.586-2.198
		c-0.01-0.034-0.018-0.067-0.027-0.101c-0.25-0.816-0.53-1.622-0.837-2.416c-0.008-0.019-0.015-0.036-0.022-0.054
		c-0.29-0.744-0.607-1.473-0.945-2.194c0.284,0.602,0.541,1.217,0.791,1.836c-2.868,0.214-6.002,0.335-9.486,0.335
		c-35.538,0-35.538-12.324-71.074-12.324c-35.507,0-35.507,12.324-71.013,12.324c-35.525,0-35.525-12.324-71.052-12.324
		c-35.517,0-35.517,12.324-71.033,12.324c-35.515,0-35.515-12.324-71.032-12.324S79.638,132.76,44.121,132.76
		c-3.378,0-6.431-0.112-9.226-0.315c0.127-0.315,0.27-0.622,0.404-0.935c-0.184,0.417-0.376,0.831-0.542,1.256
		c-0.014,0.036-0.03,0.071-0.044,0.106c-0.309,0.795-0.59,1.601-0.841,2.418c-0.007,0.022-0.012,0.046-0.019,0.069
		c-0.225,0.737-0.421,1.486-0.599,2.239c-0.05,0.216-0.094,0.434-0.14,0.651c-0.124,0.572-0.232,1.15-0.327,1.73
		c-0.042,0.261-0.084,0.524-0.121,0.787c-0.08,0.572-0.142,1.148-0.195,1.726c-0.022,0.245-0.05,0.489-0.067,0.734
		c-0.056,0.814-0.092,1.632-0.092,2.456l0.004,23.517c3.472,0.339,7.36,0.532,11.807,0.532
		C79.632,169.732,79.632,157.408,115.149,157.408z"/>
	<path style="fill:#41479B;" d="M184.364,95.786c35.734,0,35.734-12.324,71.468-12.324c35.744,0,35.744,12.324,71.487,12.324
		c35.724,0,35.724-12.324,71.448-12.324c4.632,0,8.656,0.21,12.244,0.57l-10.034-5.79l-29.922-17.27l0,0L359.01,54.02
		c-7.767,2.563-16.494,4.794-31.689,4.794c-35.744,0-35.744-12.324-71.487-12.324c-35.734,0-35.734,12.324-71.468,12.324
		c-15.072,0-23.782-2.194-31.503-4.73l-41.844,24.167l-9.932,5.736c3.477-0.334,7.365-0.525,11.809-0.525
		C148.631,83.462,148.631,95.786,184.364,95.786z"/>
	<path style="fill:#41479B;" d="M327.319,428.54c-35.744,0-35.744-12.324-71.487-12.324c-35.734,0-35.734,12.324-71.468,12.324
		s-35.734-12.324-71.467-12.324c-12.027,0-19.998,1.398-26.655,3.25l6.563,3.788l18.204,10.506l51.401,29.664
		c5.732,1.243,12.618,2.088,21.954,2.088c35.734,0,35.734-12.324,71.468-12.324c35.744,0,35.744,12.324,71.487,12.324
		c9.622,0,16.64-0.898,22.475-2.204l21.258-12.278l0,0l29.916-17.279l24.65-14.236c-6.696-1.877-14.71-3.299-26.85-3.299
		C363.043,416.216,363.043,428.54,327.319,428.54z"/>
	<path style="fill:#41479B;" d="M482.441,354.034c-3.568,0.355-7.565,0.561-12.163,0.561c-35.755,0-35.755-12.324-71.51-12.324
		c-35.724,0-35.724,12.324-71.448,12.324c-35.744,0-35.744-12.324-71.487-12.324c-35.734,0-35.734,12.324-71.468,12.324
		s-35.734-12.324-71.467-12.324c-35.734,0-35.734,12.324-71.468,12.324c-4.46,0-8.364-0.192-11.849-0.529l0.003,12.329
		c0,0.82,0.036,1.635,0.092,2.446c0.017,0.246,0.045,0.489,0.067,0.734c0.052,0.576,0.115,1.15,0.195,1.72
		c0.036,0.261,0.077,0.521,0.12,0.78c0.095,0.58,0.205,1.156,0.329,1.728c0.046,0.215,0.09,0.431,0.14,0.645
		c0.176,0.745,0.371,1.485,0.594,2.213c0.009,0.029,0.015,0.057,0.025,0.086c0.252,0.819,0.534,1.625,0.845,2.419
		c0.005,0.015,0.012,0.029,0.017,0.044c0.292,0.747,0.614,1.481,0.956,2.206c0.051,0.109,0.106,0.216,0.157,0.324
		c0.316,0.65,0.65,1.291,1.005,1.921c0.054,0.096,0.107,0.194,0.164,0.29c0.405,0.704,0.83,1.395,1.282,2.069v0.001
		c1.874,2.793,4.156,5.319,6.781,7.499c-0.746-0.629-1.465-1.286-2.158-1.966c0.415,0.004,0.811,0.014,1.236,0.014
		c35.734,0,35.734-12.324,71.468-12.324s35.734,12.324,71.467,12.324c35.734,0,35.734-12.324,71.468-12.324
		c35.744,0,35.744,12.324,71.487,12.324c35.724,0,35.724-12.324,71.448-12.324c35.755,0,35.755,12.324,71.51,12.324
		c0.514,0,0.995-0.011,1.493-0.016c1.733-1.693,3.299-3.538,4.642-5.531l0,0l0.001-0.003c0.454-0.672,0.879-1.363,1.285-2.064
		c0.061-0.106,0.12-0.214,0.181-0.32c0.349-0.619,0.679-1.247,0.99-1.884c0.059-0.122,0.12-0.244,0.179-0.366
		c0.332-0.702,0.644-1.413,0.93-2.137c0.015-0.039,0.034-0.077,0.049-0.116c0.31-0.794,0.592-1.598,0.845-2.414
		c0.009-0.026,0.015-0.054,0.022-0.08c0.225-0.734,0.421-1.477,0.599-2.226c0.051-0.219,0.096-0.44,0.144-0.66
		c0.124-0.57,0.232-1.145,0.327-1.722c0.044-0.264,0.085-0.527,0.122-0.791c0.08-0.569,0.142-1.142,0.195-1.717
		c0.022-0.247,0.051-0.494,0.069-0.744c0.056-0.81,0.092-1.623,0.092-2.442c0,0,0-0.008,0-0.011L482.441,354.034z"/>
	<polygon style="fill:#41479B;" points="96.006,256.001 219.504,256.001 96.006,125.994 	"/>
	<polygon style="fill:#41479B;" points="255.994,217.586 255.994,106.046 150.039,106.046 	"/>
</g>
<g>
	<path style="fill:#F5F5F5;" d="M82.674,94.621v161.38h13.333V125.994l123.497,130.008h23.159c7.364,0,13.333-9.592,13.333-21.422
		v-16.993L150.04,106.047h105.955V84.624H99.985L82.674,94.621z M255.783,236.261c-0.4,7.853-3.314,14.49-7.562,17.655
		l-141.776-147.87h24.488L255.783,236.261z"/>
	<path style="fill:#F5F5F5;" d="M42.677,118.241c-8.222,6.637-13.134,16.682-13.133,27.441l0.007,42.41l0.005,27.164l0.007,40.745
		h13.114V118.241z"/>
	<path style="fill:#F5F5F5;" d="M238.309,4.731l-12.307,7.108l-14.747,8.518h44.739V0.002C249.888-0.004,243.78,1.572,238.309,4.731
		z"/>
</g>
<g>
	<polygon style="fill:#FF4B55;" points="206.008,23.388 111.019,78.251 99.985,84.624 255.994,84.624 255.994,20.357 
		211.255,20.357 	"/>
	<path style="fill:#FF4B55;" d="M81.072,95.547l-22.191,12.818l-11.697,6.756c-0.841,0.486-1.648,1.015-2.439,1.562
		c-0.714,0.494-1.397,1.02-2.067,1.561v137.76h39.997V94.621L81.072,95.547z"/>
	<path style="fill:#FF4B55;" d="M248.221,253.916c4.248-3.165,7.161-9.802,7.562-17.655L130.932,106.046h-24.487L248.221,253.916z"
		/>
</g>
<path style="fill:#965032;" d="M379.128,392.471L379.128,392.471c-3.182,0-5.761-2.579-5.761-5.76V202.379h11.522v184.332
	C384.889,389.892,382.309,392.471,379.128,392.471z"/>
<polygon style="fill:#73AF00;" points="459.773,225.42 448.253,219.66 405.835,214.358 432.08,180.615 436.152,168.395 
	423.933,172.469 390.191,198.713 384.889,156.296 379.128,144.775 373.367,156.296 368.066,198.713 334.323,172.469 
	322.103,168.395 326.176,180.615 352.42,214.358 310.003,219.66 298.482,225.42 310.003,231.18 352.42,236.482 326.176,270.224 
	322.103,282.445 334.323,278.372 370.981,249.86 379.128,236.941 387.274,249.86 423.933,278.372 436.152,282.445 432.08,270.224 
	405.835,236.482 448.253,231.18 "/>
<path style="fill:#FFE15A;" d="M404.206,292.508c-5.176-5.167-16.263-3.268-22.198-1.77v-4.835c0-1.591-1.29-2.88-2.88-2.88
	c-1.591,0-2.88,1.29-2.88,2.88v4.834c-5.935-1.503-17.018-3.402-22.198,1.771c-4.937,4.935-1.361,16.834,2.036,25.106v7.659
	c0,2.117,1.716,3.833,3.833,3.833h38.417c2.117,0,3.833-1.716,3.833-3.833v-7.659C405.566,309.342,409.143,297.443,404.206,292.508z
	 M400.133,296.581c2.198,2.201-0.264,11.847-4.233,21.005h-13.892v-20.898C388.474,294.858,397.333,293.776,400.133,296.581z
	 M358.122,296.581c2.798-2.805,11.657-1.723,18.125,0.107v20.898h-13.892C358.387,308.428,355.924,298.782,358.122,296.581z"/>
<g>
</g>
<g>
</g>
<g>
</g>
<g>
</g>
<g>
</g>
<g>
</g>
<g>
</g>
<g>
</g>
<g>
</g>
<g>
</g>
<g>
</g>
<g>
</g>
<g>
</g>
<g>
</g>
<g>
</g>
</svg>
