<?xml version="1.0" encoding="iso-8859-1"?>
<!-- Generator: Adobe Illustrator 19.0.0, SVG Export Plug-In . SVG Version: 6.00 Build 0)  -->
<svg version="1.1" id="Layer_1" xmlns="http://www.w3.org/2000/svg" xmlns:xlink="http://www.w3.org/1999/xlink" x="0px" y="0px"
	 viewBox="0 0 512.002 512.002" style="enable-background:new 0 0 512.002 512.002;" xml:space="preserve">
<path style="fill:#FF4B55;" d="M482.45,366.319l-0.008-42.41l-0.005-27.164l-0.014-81.491l-0.005-27.164l-0.008-42.486
	c0-3.105-0.422-6.147-1.202-9.07c-0.42-1.572-0.948-3.107-1.577-4.597c-2.568-6.091-6.814-11.419-12.362-15.28
	c-0.812-0.565-1.642-1.11-2.509-1.611l-23.71-13.684l-22.198-12.81l-17.87-10.313l-68.335-39.438l0,0l-26.659-15.386l-19.995-11.539
	l-12.39-7.151c-10.918-6.301-24.37-6.3-35.287,0.006l-12.307,7.108l-19.995,11.548l-26.659,15.398l0,0l-68.33,39.466L81.078,95.547
	l-22.191,12.818l-11.697,6.756c-0.841,0.486-1.648,1.015-2.439,1.561c-3.392,2.349-6.296,5.254-8.638,8.538
	c-1.572,2.206-2.883,4.585-3.911,7.092c-1.715,4.179-2.652,8.706-2.651,13.371l0.007,42.41l0.005,27.164l0.014,81.478v0.014v0.005
	l0.005,27.159l0.007,42.478v0.006c0.002,11.607,5.715,22.388,15.14,28.946c0.812,0.565,1.642,1.11,2.509,1.61l23.377,13.491
	l22.198,12.812l18.204,10.506l94.999,54.826l19.995,11.539l12.39,7.151c10.918,6.302,24.37,6.298,35.287-0.006l12.307-7.108
	l19.995-11.548l26.659-15.397l0,0l57.587-33.261l10.742-6.205l27.325-15.782l22.191-12.818l14.319-8.27
	c0.841-0.486,1.648-1.015,2.439-1.561C476.715,388.766,482.451,377.956,482.45,366.319L482.45,366.319L482.45,366.319z"/>
<g>
	<path style="fill:#41479B;" d="M29.768,369.786c0.996,10.291,6.461,19.642,14.96,25.556c0.812,0.565,1.642,1.11,2.509,1.611
		l23.377,13.491l22.198,12.812l18.204,10.506l66.592,38.432l28.406,16.394l19.995,11.539l12.39,7.151
		c10.92,6.302,24.37,6.298,35.287-0.006l12.307-7.108l19.995-11.548l26.659-15.397l1.775-1.025l55.813-32.236l10.742-6.205
		l27.325-15.782l22.191-12.818l14.319-8.27c0.841-0.486,1.648-1.013,2.439-1.562c8.516-5.898,13.999-15.245,15.013-25.536
		L29.768,369.786L29.768,369.786z"/>
	<path style="fill:#41479B;" d="M481.211,136.537c-0.42-1.572-0.948-3.107-1.577-4.597c-2.568-6.091-6.814-11.419-12.362-15.28
		c-0.812-0.565-1.642-1.11-2.509-1.611l-23.71-13.684l-22.198-12.81l-17.87-10.313L334.393,39.81l-1.747-1.008l-26.659-15.386
		l-19.995-11.539l-12.39-7.151c-10.918-6.302-24.37-6.3-35.287,0.006l-12.307,7.108l-19.995,11.548l-26.659,15.398l0,0l-1.775,1.025
		l-66.554,38.44L81.078,95.547l-22.191,12.818l-11.697,6.756c-0.841,0.486-1.648,1.015-2.439,1.561
		c-3.392,2.349-6.296,5.254-8.638,8.538c-1.572,2.206-2.883,4.585-3.911,7.092c-1.287,3.135-2.136,6.467-2.478,9.906h452.501
		C482.035,140.286,481.703,138.385,481.211,136.537z"/>
</g>
<polygon style="fill:#F5F5F5;" points="388.295,346.798 388.295,332.624 383.57,332.624 383.57,323.174 378.845,323.174 
	378.845,313.725 374.12,313.725 374.12,304.275 359.947,304.275 359.947,275.927 359.944,275.927 364.671,271.202 364.671,257.027 
	359.947,257.027 359.947,247.577 355.222,247.577 355.222,233.403 350.497,233.403 350.497,223.953 345.772,223.953 
	345.772,214.503 341.047,214.503 341.047,209.78 331.597,209.78 331.597,214.503 326.873,214.503 326.873,223.953 322.148,223.953 
	322.148,233.403 317.423,233.403 317.423,247.577 312.698,247.577 312.698,257.027 284.35,257.027 284.35,242.853 279.625,242.853 
	279.625,228.678 274.9,228.678 274.9,214.503 270.175,214.503 270.175,205.055 265.45,205.055 265.45,195.605 260.725,195.605 
	260.725,190.88 258.363,190.88 258.363,186.155 253.638,186.155 253.638,190.88 251.277,190.88 251.277,195.605 246.552,195.605 
	246.552,205.055 241.827,205.055 241.827,214.503 237.102,214.503 237.102,228.678 232.377,228.678 232.377,242.853 
	227.652,242.853 227.652,257.027 199.303,257.027 199.303,247.577 194.578,247.577 194.578,233.403 189.853,233.403 
	189.853,223.953 185.13,223.953 185.13,214.503 180.405,214.503 180.405,209.78 170.955,209.78 170.955,214.503 166.23,214.503 
	166.23,223.953 161.505,223.953 161.505,233.403 156.78,233.403 156.78,247.577 152.055,247.577 152.055,257.027 147.331,257.027 
	147.331,271.202 152.054,275.927 152.055,275.927 152.055,304.275 137.881,304.275 137.881,313.725 133.156,313.725 
	133.156,323.174 128.431,323.174 128.431,332.624 123.706,332.624 123.706,346.798 118.981,346.798 118.981,360.972 393.02,360.972 
	393.02,346.798 "/>
<g>
</g>
<g>
</g>
<g>
</g>
<g>
</g>
<g>
</g>
<g>
</g>
<g>
</g>
<g>
</g>
<g>
</g>
<g>
</g>
<g>
</g>
<g>
</g>
<g>
</g>
<g>
</g>
<g>
</g>
</svg>
