<?xml version="1.0" encoding="iso-8859-1"?>
<!-- Generator: Adobe Illustrator 19.0.0, SVG Export Plug-In . SVG Version: 6.00 Build 0)  -->
<svg version="1.1" id="Layer_1" xmlns="http://www.w3.org/2000/svg" xmlns:xlink="http://www.w3.org/1999/xlink" x="0px" y="0px"
	 viewBox="0 0 512.004 512.004" style="enable-background:new 0 0 512.004 512.004;" xml:space="preserve">
<path style="fill:#F5F5F5;" d="M482.45,366.319l-0.008-42.41l-0.005-27.164l-0.014-81.491l-0.005-27.164l-0.008-42.486
	c0-3.105-0.422-6.147-1.202-9.07c-0.42-1.572-0.948-3.107-1.576-4.597c-2.568-6.092-6.814-11.419-12.362-15.28
	c-0.812-0.565-1.642-1.11-2.509-1.611l-23.71-13.684l-22.198-12.81l-17.87-10.313l-68.335-39.438l0,0l-26.659-15.386l-19.994-11.539
	l-12.39-7.151c-10.918-6.302-24.37-6.3-35.287,0.006l-12.307,7.108l-19.994,11.548l-26.659,15.398v-0.001l-68.332,39.467
	L81.08,95.547l-22.191,12.818l-11.697,6.756c-0.841,0.486-1.648,1.015-2.439,1.562c-3.392,2.349-6.296,5.254-8.638,8.538
	c-1.572,2.206-2.883,4.585-3.911,7.092c-1.715,4.179-2.652,8.706-2.651,13.371l0.007,42.41l0.005,27.164l0.014,81.478v0.014v0.005
	l0.005,27.159l0.007,42.478v0.006c0.003,11.607,5.715,22.388,15.14,28.946c0.812,0.565,1.642,1.11,2.509,1.611l23.377,13.491
	l22.198,12.811l18.204,10.506l94.999,54.826l19.994,11.539l12.39,7.151c10.918,6.302,24.37,6.299,35.287-0.006l12.307-7.108
	l19.994-11.548l26.659-15.397l0,0l57.587-33.261l10.742-6.205l27.325-15.782l22.191-12.818l14.319-8.27
	c0.841-0.486,1.648-1.015,2.439-1.562C476.716,388.765,482.451,377.955,482.45,366.319L482.45,366.319L482.45,366.319z"/>
<path style="fill:#FFE15A;" d="M481.211,136.537c-0.42-1.572-0.949-3.107-1.576-4.597c-2.568-6.092-6.814-11.419-12.362-15.28
	c-0.812-0.565-1.642-1.11-2.509-1.61l-23.71-13.684l-22.198-12.811l-17.87-10.313l-68.338-39.441l-26.659-15.386l-6.984-4.031
	l-13.01-7.508l-12.39-7.151c-10.918-6.302-24.37-6.3-35.287,0.006l-12.307,7.108l-13.064,7.545l-6.931,4.004l-26.659,15.398l0,0
	l-68.331,39.465l-12.156,7.02l-0.325,52.422h382.936C481.392,137.307,481.313,136.918,481.211,136.537z"/>
<path style="fill:#FF4B55;" d="M159.778,374.309h321.744c0.602-2.589,0.928-5.265,0.928-7.989l-0.008-42.41l-0.005-27.164
	l-0.006-40.745l-322.025,1.871C160.407,259.764,159.778,374.309,159.778,374.309z"/>
<path style="fill:#4173CD;" d="M98.545,374.309l0.311,52.433l12.16,7.018l94.999,54.826l6.984,4.031l13.01,7.509l12.39,7.151
	c10.918,6.301,24.37,6.298,35.287-0.006l12.307-7.108l13.064-7.545l6.931-4.003l26.659-15.397l57.587-33.261l10.742-6.205
	l27.325-15.782l22.191-12.818l14.319-8.27c0.841-0.486,1.648-1.013,2.439-1.562c7.249-5.021,12.299-12.54,14.271-21.012
	L98.545,374.309L98.545,374.309z"/>
<path style="fill:#73AF00;" d="M291.484,251.045L159.779,137.693L98.871,85.271L81.08,95.547l-22.191,12.818l-11.697,6.756
	c-0.841,0.486-1.648,1.015-2.439,1.562c-3.392,2.349-6.296,5.254-8.638,8.538c-1.572,2.206-2.883,4.585-3.911,7.092
	c-0.714,1.738-1.283,3.539-1.716,5.382c-0.607,2.589-0.936,5.264-0.935,7.989l0.007,42.41l0.005,27.164l0.006,40.743l0.006,40.733
	v0.014v0.005l0.005,27.159l0.007,42.478v0.006c0,2.698,0.322,5.347,0.915,7.913c1.956,8.474,6.991,15.999,14.225,21.033
	c0.812,0.565,1.642,1.11,2.509,1.611l23.377,13.491l22.198,12.811l6.043,3.488l60.922-52.433l131.705-113.354
	c1.358-1.17,2.038-3.062,2.038-4.954C293.522,254.107,292.843,252.215,291.484,251.045z"/>
<g>
	<path style="fill:#F5F5F5;" d="M90.535,256c0-34.386,22.478-63.48,53.528-73.501c1.632-0.527,1.405-2.91-0.296-3.133
		c-3.195-0.419-6.452-0.644-9.764-0.644c-42.679,0-77.277,34.598-77.277,77.277s34.598,77.277,77.277,77.277
		c3.312,0,6.568-0.225,9.764-0.644c1.701-0.222,1.928-2.605,0.296-3.133C113.012,319.481,90.535,290.387,90.535,256z"/>
	<path style="fill:#F5F5F5;" d="M144.46,196.975l2.127,6.378l6.723,0.052c0.871,0.006,1.231,1.117,0.531,1.635l-5.409,3.994
		l2.028,6.411c0.262,0.83-0.682,1.517-1.391,1.011l-5.47-3.91l-5.47,3.91c-0.709,0.506-1.653-0.18-1.391-1.011l2.028-6.411
		l-5.409-3.994c-0.7-0.517-0.34-1.628,0.531-1.635l6.724-0.052l2.127-6.378C143.016,196.149,144.184,196.149,144.46,196.975z"/>
	<path style="fill:#F5F5F5;" d="M144.46,229.3l2.127,6.378l6.723,0.052c0.871,0.006,1.231,1.117,0.531,1.635l-5.409,3.994
		l2.028,6.411c0.262,0.83-0.682,1.517-1.391,1.011l-5.47-3.91l-5.47,3.91c-0.709,0.506-1.653-0.18-1.391-1.011l2.028-6.411
		l-5.409-3.994c-0.7-0.517-0.34-1.628,0.531-1.635l6.724-0.052l2.127-6.378C143.016,228.474,144.184,228.474,144.46,229.3z"/>
	<path style="fill:#F5F5F5;" d="M144.46,261.624l2.127,6.378l6.723,0.052c0.871,0.006,1.231,1.117,0.531,1.635l-5.409,3.994
		l2.028,6.411c0.262,0.83-0.682,1.517-1.391,1.011l-5.47-3.91l-5.47,3.91c-0.709,0.506-1.653-0.18-1.391-1.011l2.028-6.411
		l-5.409-3.994c-0.7-0.517-0.34-1.628,0.531-1.635l6.724-0.052l2.127-6.378C143.016,260.798,144.184,260.798,144.46,261.624z"/>
	<path style="fill:#F5F5F5;" d="M144.46,293.949l2.127,6.378l6.723,0.053c0.871,0.006,1.231,1.117,0.531,1.635l-5.409,3.994
		l2.028,6.411c0.262,0.83-0.682,1.517-1.391,1.011l-5.47-3.91l-5.47,3.91c-0.709,0.506-1.653-0.18-1.391-1.011l2.028-6.411
		l-5.409-3.994c-0.7-0.517-0.34-1.628,0.531-1.635l6.724-0.053l2.127-6.378C143.016,293.122,144.184,293.122,144.46,293.949z"/>
</g>
<g>
</g>
<g>
</g>
<g>
</g>
<g>
</g>
<g>
</g>
<g>
</g>
<g>
</g>
<g>
</g>
<g>
</g>
<g>
</g>
<g>
</g>
<g>
</g>
<g>
</g>
<g>
</g>
<g>
</g>
</svg>
