<?xml version="1.0" encoding="iso-8859-1"?>
<!-- Generator: Adobe Illustrator 19.0.0, SVG Export Plug-In . SVG Version: 6.00 Build 0)  -->
<svg version="1.1" id="Layer_1" xmlns="http://www.w3.org/2000/svg" xmlns:xlink="http://www.w3.org/1999/xlink" x="0px" y="0px"
	 viewBox="0 0 512.001 512.001" style="enable-background:new 0 0 512.001 512.001;" xml:space="preserve">
<path style="fill:#F5F5F5;" d="M29.588,366.395l-0.036-220.713c-0.003-12.607,6.722-24.257,17.639-30.562L238.314,4.731
	c10.917-6.306,24.368-6.307,35.287-0.006L464.762,115.05c10.918,6.302,17.646,17.95,17.649,30.557l0.036,220.713
	c0.003,12.607-6.722,24.257-17.639,30.563L273.683,507.269c-10.917,6.306-24.368,6.307-35.287,0.006L47.237,396.951
	C36.318,390.649,29.591,379.001,29.588,366.395z"/>
<g>
	<path style="fill:#FF4B55;" d="M41.36,119.34v136.838l19.693,7.319l22.116-7.319V94.337l-35.98,20.782
		C45.083,116.336,43.137,117.756,41.36,119.34z"/>
	<polygon style="fill:#FF4B55;" points="96.774,86.481 256,86.481 259.749,53.556 256,19.56 212.639,19.56 	"/>
	<path style="fill:#FF4B55;" d="M108.019,108.788l84.039,87.312l56.023,58.205c0.029-0.021,0.057-0.046,0.086-0.067
		c0.06-0.054,0.12-0.109,0.182-0.156c0.444-0.337,7.647-6.784,7.648-6.828c0.156-3.671-0.084-10.216-0.049-11.177
		c0.003-0.06,0.011-0.116,0.014-0.176L215.18,193.53l-81.565-84.74h-25.597L108.019,108.788L108.019,108.788z"/>
</g>
<path style="fill:#41479B;" d="M482.411,145.607c-0.003-12.607-6.729-24.255-17.649-30.557L273.601,4.726
	C268.154,1.583,262.078,0.008,256,0.002V19.56v66.92v20.003H149.818L256,217.832v16.963c0,0.374-0.023,0.737-0.035,1.106l0,0
	c-0.001,0.06-0.011,0.117-0.014,0.176c-0.036,0.961-0.104,1.908-0.216,2.829c-0.018,0.142-0.05,0.276-0.069,0.419
	c-0.505,3.745-1.61,7.128-3.164,9.859c-0.021,0.039-0.042,0.077-0.065,0.115c-0.796,1.38-1.706,2.589-2.704,3.595
	c-0.03,0.03-0.061,0.059-0.091,0.089c-0.412,0.405-0.846,0.764-1.29,1.1c-0.062,0.047-0.122,0.102-0.182,0.156
	c-0.029,0.021-0.057,0.046-0.086,0.067l0,0c-1.662,1.198-3.502,1.874-5.444,1.874h-23.207L95.668,126.396v129.783h-5.872h-6.624
	H41.36h-7.799H29.57l0.019,110.216c0.003,12.607,6.729,24.255,17.649,30.557l191.161,110.325c10.918,6.302,24.37,6.299,35.286-0.006
	l191.125-110.39c10.917-6.305,17.64-17.955,17.639-30.562L482.411,145.607z"/>
<g>
	<path style="fill:#FFE15A;" d="M382.615,165.396c0,0-4.061-16.247-16.247-24.371c0,0,12.185,20.309,12.185,36.556L382.615,165.396z
		"/>
	<path style="fill:#FFE15A;" d="M363.83,147.752c0,0,8.504,5.204,13.074,13.709l-3.681,8.504
		C373.222,169.965,370.176,157.907,363.83,147.752z"/>
	<path style="fill:#FFE15A;" d="M354.436,149.657c0,0,14.723,4.57,21.705,14.09l-4.189,6.347
		C371.953,170.092,366.368,159.303,354.436,149.657z"/>
	<path style="fill:#FFE15A;" d="M352.278,157.019c0,0,15.486,2.412,22.466,9.774l-1.777,6.982
		C372.969,173.774,364.463,163.619,352.278,157.019z"/>
	<path style="fill:#FFE15A;" d="M352.787,162.096c0,0,14.978,1.523,21.831,9.392s-2.538,5.458-2.538,5.458
		S364.21,167.934,352.787,162.096z"/>
	<path style="fill:#FFE15A;" d="M382.615,165.396c0,0,4.061-16.247,16.247-24.371c0,0-12.185,20.309-12.185,36.556L382.615,165.396z
		"/>
	<path style="fill:#FFE15A;" d="M401.401,147.752c0,0-8.504,5.204-13.074,13.709l3.682,8.504
		C392.008,169.965,395.054,157.907,401.401,147.752z"/>
	<path style="fill:#FFE15A;" d="M410.793,149.657c0,0-14.723,4.57-21.705,14.09l4.189,6.347
		C393.277,170.092,398.861,159.303,410.793,149.657z"/>
	<path style="fill:#FFE15A;" d="M412.951,157.019c0,0-15.486,2.412-22.466,9.774l1.777,6.982
		C392.262,173.774,400.766,163.619,412.951,157.019z"/>
	<path style="fill:#FFE15A;" d="M412.444,162.096c0,0-14.978,1.523-21.831,9.392c-6.854,7.87,2.538,5.458,2.538,5.458
		S401.02,167.934,412.444,162.096z"/>
	<path style="fill:#FFE15A;" d="M382.615,141.025c0,0-4.061,8.546,0,12.82C386.677,149.572,382.615,141.025,382.615,141.025z"/>
	<path style="fill:#FFE15A;" d="M378.568,143.147c0,0-0.545,9.447,4.826,11.877C385.549,149.536,378.568,143.147,378.568,143.147z"
		/>
	<path style="fill:#FFE15A;" d="M386.661,143.147c0,0,0.545,9.447-4.826,11.877C379.68,149.536,386.661,143.147,386.661,143.147z"/>
	<path style="fill:#FFE15A;" d="M387.992,148.596c0,0-3.544,8.774-9.439,8.675C378.951,151.389,387.992,148.596,387.992,148.596z"/>
	<path style="fill:#FFE15A;" d="M377.239,148.596c0,0,3.544,8.774,9.439,8.675C386.279,151.389,377.239,148.596,377.239,148.596z"/>
</g>
<ellipse style="fill:#FFD255;" cx="382.62" cy="169.45" rx="12.185" ry="16.246"/>
<g>
	<path style="fill:#73AF00;" d="M354.775,186.043l-2.793-4.316c0,0-8.124,1.946-10.07-4.146l-3.132-0.254
		c0,0,0.424-4.146,4.061-4.739c0,0,2.201-2.708,6.092-2.201c3.893,0.507,5.923,3.808,8.167,4.654
		c2.242,0.846,2.496,3.639,2.496,3.639l17.093,17.516c0,0-4.907,6.262-9.309,8.293C362.983,206.521,346.821,196.621,354.775,186.043
		z"/>
	<path style="fill:#73AF00;" d="M410.286,189.258c0,0,7.108,4.824,7.362,18.151h-11.804c0,0,0.127-9.013-2.158-13.835
		L410.286,189.258z"/>
	<path style="fill:#73AF00;" d="M408.762,189.767c0,0,8.885,2.919,14.344-4.061l-9.266-1.27L408.762,189.767z"/>
	<path style="fill:#73AF00;" d="M406.097,179.993l9.021,3.042c1.138,0.384,1.54,1.792,0.742,2.691
		c-3.423,3.856-13.641,13.096-30.115,13.096c-21.452,0-26.994-13.498-27.247-14.512c-0.254-1.016-1.396-9.266-1.396-9.266
		l9.139-1.016L406.097,179.993z"/>
</g>
<g>
	<polygon style="fill:#FF4B55;" points="318.371,304.264 341.997,304.264 329.812,327.866 317.626,311.62 	"/>
	<polygon style="fill:#FF4B55;" points="446.858,304.264 423.232,304.264 435.418,327.866 447.603,311.62 	"/>
</g>
<g>
	<path style="fill:#FFD25A;" d="M318.274,344.113c-11.656,0-20.574-6.256-21.034-6.581l9.392-13.26
		c0.077,0.051,7.947,5.399,15.972,2.967c8.119-2.452,13.45-12.034,16.495-19.646l15.085,6.037
		c-6.399,16.001-15.527,25.834-27.124,29.233C324.027,343.753,321.069,344.113,318.274,344.113z"/>
	<path style="fill:#FFD25A;" d="M446.957,344.113c11.656,0,20.574-6.256,21.034-6.581l-9.392-13.26
		c-0.078,0.051-7.947,5.399-15.972,2.967c-8.12-2.452-13.451-12.034-16.495-19.646l-15.085,6.037
		c6.401,16.001,15.527,25.834,27.124,29.233C441.203,343.753,444.16,344.113,446.957,344.113z"/>
</g>
<path style="fill:#FF4B55;" d="M435.418,258.817H329.812v-38.744c0-5.521,4.476-9.997,9.997-9.997h85.611
	c5.521,0,9.997,4.476,9.997,9.997L435.418,258.817L435.418,258.817z"/>
<g>
	<path style="fill:#FFE15A;" d="M358.625,238.507l-1.27-8.124c-5.966-0.254-9.392-7.236-9.392-7.236l-4.824,2.666
		C348.217,238,358.625,238.507,358.625,238.507z"/>
	<path style="fill:#FFE15A;" d="M422.217,230.131c1.777-1.353,5.67-1.862,5.67-1.862c-2.793-2.877-5.838-0.846-5.838-0.846
		c2.538-2.369,1.1-5.755,1.1-5.755c0,1.101-1.777,1.862-1.777,1.862c0.085-2.201-2.201-4.316-2.201-4.316l-1.185,1.946
		c-0.761-1.862-3.469-3.3-3.469-3.3l-1.1,4.57c-2.538-2.199-7.023-2.031-7.023-2.031l0.846,2.116
		c-2.708,0.085-10.07,1.607-14.386,2.116c-4.315,0.507-7.785-0.677-7.785-2.623c0-1.631,3.771-1.832,5.404-1.857
		c1.155,0.257,2.606,0.674,4.645,1.286c3.808,1.142,6.038-0.512,6.038-0.512c-1.332-0.507-1.481-1.1-1.481-1.1
		c2.855-1.651,5.533-1.243,5.533-1.243c-0.952-2.094-5.077-1.967-5.077-1.967c1.078-0.571,1.904-2.348,1.904-2.348
		c-0.254,0.254-2.599,0.829-5.801,1.258c-2.409,0.324-4.674,2.157-5.607,3.003c-2.541-0.194-9.179-0.276-8.012,4.326
		c1.438,5.67,12.863,3.639,19.886,2.538c7.023-1.1,10.662-0.169,12.185,0.761c1.523,0.931-0.649,4.084-7.785,2.793
		c-6.168-1.116-9.564-1.148-11.428-0.952c-2.068,0.132-3.83,0.689-5.072,0.952c-2.793,0.592-13.54,4.4-15.571-1.1
		c-2.031-5.501-11.932,8.969-11.932,8.969l0.774,0.92l-2.634-0.624c-3.554,4.76-14.216,6.22-14.216,6.22s-1.587-2.855-2.919-3.237
		c-1.332-0.381-1.904,1.713-1.904,1.713s-1.587,0.064-1.713,1.523c-0.127,1.46,1.142,1.587,1.142,1.587s-1.523,2.221,1.016,2.855
		c0,0-0.19,3.109,3.554,0.952c11.123,1.402,19.235-4.31,22.747-7.425c2.296,0.146,5.873,0.074,8.625-1.355
		c4.4-2.284,9.477-5.162,12.439-4.061c0,0,2.369,7.277-6.939,7.447c0,0-1.377-1.741-2.763-1.741c-0.597,0-1.218,0.717-1.027,1.362
		c0,0-1.625-0.096-1.912,0.86c-0.234,0.78,0.335,1.672,1.53,1.53c0,0-0.812,1.195,0,1.912c0.812,0.716,1.816,0,1.816,0
		s-0.43,1.481,0.574,1.625c0.859,0.122,1.994-1.28,2.321-1.706c1.49,0.231,11.653,1.403,13.849-9.256c0,0,5.077,2.199,10.07,1.777
		c4.992-0.424,9.901,0.339,9.477,2.793c-0.554,1.778-1.645,1.661-1.645,1.661c-1.195-0.477-3.202-0.43-3.488,1.29
		c-0.287,1.721,2.054,1.768,2.054,1.768c0.669,1.577,2.581,0.909,2.581,0.909c1.672,1.195,2.772-0.096,2.772-0.096
		c0.717,0.621,1.457,0.737,2.151,0.144c0.669-0.574,0.294-4.396,0.23-5.761c-0.106-2.269-0.424-8.208-3.724-8.293
		s-7.53,1.862-13.37-3.047c-0.305-0.256-0.602-0.419-0.904-0.637c2.763,0.256,4.742,1.005,6.658,1.315
		C412.74,232.162,420.44,231.484,422.217,230.131z"/>
	<path style="fill:#FFE15A;" d="M343.139,225.815c0,0-1.618,0.044-2.412-0.19c-1.358-0.401-1.523-2.538-0.064-2.919
		c0,0-1.757-1.193-0.952-2.539c0.644-1.075,2.287-1.073,2.858-0.439c0,0-0.535-1.77,1.013-2.354
		c1.233-0.465,2.222,0.952,2.222,2.793c0,0,1.842-1.498,2.793-0.507c0.664,0.691,0.472,1.598-0.635,3.49
		C346.835,225.079,343.139,225.815,343.139,225.815z"/>
</g>
<g>
	<path style="fill:#41479B;" d="M341.137,225.032c0,0-0.86,1.481-3.345,0.574c0,0,2.151-1.003,2.437-1.863L341.137,225.032z"/>
	<path style="fill:#41479B;" d="M340.229,220.684c0,0-1.338-0.86-2.819-0.812c0,0,2.198-1.625,4.061-0.191L340.229,220.684z"/>
	<path style="fill:#41479B;" d="M343.335,218.39c0,0,0.43-1.577-0.43-2.437c0,0,1.768,0.765,2.007,2.198L343.335,218.39z"/>
	<path style="fill:#41479B;" d="M347.253,220.015c0,0,0.86-1.911,0.095-2.819c0,0,2.294,1.338,1.338,3.537L347.253,220.015z"/>
	<path style="fill:#41479B;" d="M342.777,241.252c0,0-0.92-1.883-2.107-1.876c0,0,2.496-0.909,3.574,1.232L342.777,241.252z"/>
	<path style="fill:#41479B;" d="M340.766,243.65c0,0-1.641-1.305-2.709-0.787c0,0,1.862-1.893,3.756-0.425L340.766,243.65z"/>
	<path style="fill:#41479B;" d="M341.918,247.036c0,0-2.096-0.024-2.622,1.041c0,0,0.309-2.638,2.706-2.641L341.918,247.036z"/>
	<path style="fill:#41479B;" d="M343.833,249.212c0,0-0.86,1.481-3.345,0.574c0,0,2.151-1.003,2.437-1.863L343.833,249.212z"/>
	<path style="fill:#41479B;" d="M381.604,248.46c0,0-0.705,1.213-2.739,0.47c0,0,1.652-0.591,1.887-1.295L381.604,248.46z"/>
</g>
<path style="fill:#FFD255;" d="M360.108,222.261c0,0-4.571,7.785-3.472,19.04c0,0,13.476-1.967,19.315-15.422
	c0,0,1.423-0.575,1.978-1.957c0.472-1.175,0.432-3.11-1.829-3.099c0,0,0.677-1.353,1.502-1.671c0,0-1.46-0.571-3.173-0.19
	c0,0,1.332-1.333,1.332-3.047c0,0-2.031,1.332-3.3,1.46c0,0-0.127-2.094,0.381-2.348c0,0-2.666,0.254-3.999,1.65
	c0,0-0.888-1.206-0.825-2.476c0,0-2.476,1.078-3.427,2.666c0,0-0.761-0.825-0.699-1.65c0,0-1.777,2.158-2.158,3.3
	c0,0-1.675-0.461-2.412,0.889C358.792,220.377,358.914,221.448,360.108,222.261z"/>
<g>
	<path style="fill:#41479B;" d="M379.573,242.792c0,0-0.541-1.02-2.167-1.242c0,0,2.071-0.956,3.377,0.414L379.573,242.792z"/>
	<path style="fill:#41479B;" d="M413.166,246.664c0,0-1.187,0.375-1.743,2.054c0,0-0.607-2.384,1.102-3.502L413.166,246.664z"/>
	<path style="fill:#41479B;" d="M415.658,247.54c0,0-1.125,1.092-1.071,2.86c0,0-1.387-2.032-0.164-3.667L415.658,247.54z"/>
	<path style="fill:#41479B;" d="M421.034,247.444c0,0-0.34,1.157,0.687,2.392c0,0-2.127-0.677-2.167-2.529L421.034,247.444z"/>
	<path style="fill:#41479B;" d="M418.508,247.893c0,0-0.902,0.859-0.664,2.612c0,0-1.678-1.475-0.634-3.228L418.508,247.893z"/>
	<path style="fill:#41479B;" d="M377.841,244.879c0,0-1.087-0.389-2.438,0.54c0,0,0.889-2.101,2.776-1.967L377.841,244.879z"/>
	<path style="fill:#41479B;" d="M379.326,247.19c0,0-1.117-0.292-2.382,0.751c0,0,0.195-2.027,2.087-2.058L379.326,247.19z"/>
</g>
<path style="fill:#F5F5F5;" d="M435.418,265.362c-8.809,0-8.809,7.945-17.616,7.945c-8.809,0-8.809-7.945-17.616-7.945
	c-8.803,0-8.803,7.945-17.604,7.945c-8.795,0-8.795-7.945-17.589-7.945s-8.794,7.945-17.586,7.945
	c-8.796,0-8.796-7.945-17.591-7.945v-14.668c8.796,0,8.796,7.945,17.591,7.945c8.794,0,8.794-7.945,17.586-7.945
	c8.795,0,8.795,7.945,17.589,7.945c8.803,0,8.803-7.945,17.604-7.945c8.809,0,8.809,7.945,17.616,7.945
	c8.809,0,8.809-7.945,17.616-7.945V265.362z"/>
<path style="fill:#41479B;" d="M417.801,273.308c-8.809,0-8.809-7.945-17.616-7.945c-8.803,0-8.803,7.945-17.605,7.945
	c-8.795,0-8.795-7.945-17.589-7.945s-8.794,7.945-17.586,7.945c-8.778,0-8.803-7.907-17.543-7.94
	c0.122,3.513,0.525,8.726,1.555,14.851c7.144,0.946,7.797,7.759,15.988,7.759c8.794,0,8.794-7.947,17.586-7.947
	c8.795,0,8.795,7.947,17.589,7.947c8.803,0,8.803-7.947,17.605-7.947c8.809,0,8.809,7.947,17.616,7.947
	c8.205,0,8.856-6.813,16.013-7.759c1.03-6.125,1.432-11.338,1.555-14.851C426.616,265.401,426.591,273.308,417.801,273.308z"/>
<path style="fill:#F5F5F5;" d="M417.801,287.977c-8.809,0-8.809-7.947-17.616-7.947c-8.803,0-8.803,7.947-17.605,7.947
	c-8.795,0-8.795-7.947-17.589-7.947s-8.794,7.947-17.586,7.947c-8.193,0-8.844-6.813-15.988-7.759
	c0.816,4.854,2.034,10.266,3.829,15.863c3.96,2.272,5.685,6.563,12.16,6.563c8.794,0,8.794-7.945,17.586-7.945
	c8.795,0,8.795,7.945,17.589,7.945c8.803,0,8.803-7.945,17.605-7.945c8.809,0,8.809,7.945,17.616,7.945
	c6.489,0,8.214-4.299,12.187-6.569c1.793-5.595,3.01-11.006,3.826-15.857C426.658,281.163,426.006,287.977,417.801,287.977z"/>
<path style="fill:#41479B;" d="M417.801,302.645c-8.809,0-8.809-7.945-17.616-7.945c-8.803,0-8.803,7.945-17.605,7.945
	c-8.795,0-8.795-7.945-17.589-7.945s-8.794,7.945-17.586,7.945c-6.476,0-8.2-4.291-12.16-6.563
	c2.236,6.974,5.374,14.206,9.756,20.95c0.739,0.151,1.5,0.281,2.404,0.281c8.794,0,8.794-7.947,17.586-7.947
	c8.795,0,8.795,7.947,17.589,7.947c8.803,0,8.803-7.947,17.605-7.947c8.809,0,8.809,7.947,17.616,7.947
	c0.915,0,1.686-0.13,2.431-0.284c4.383-6.747,7.52-13.98,9.756-20.955C426.015,298.346,424.291,302.645,417.801,302.645z"/>
<path style="fill:#F5F5F5;" d="M417.801,317.314c-8.809,0-8.809-7.947-17.616-7.947c-8.803,0-8.803,7.947-17.605,7.947
	c-8.795,0-8.795-7.947-17.589-7.947s-8.794,7.947-17.586,7.947c-0.906,0-1.667-0.13-2.404-0.281
	c2.784,4.286,6.081,8.361,9.961,12.049c2.691-2.272,4.826-5.045,10.03-5.045c8.795,0,8.795,7.945,17.589,7.945
	c8.803,0,8.803-7.945,17.605-7.945c5.226,0,7.363,2.787,10.066,5.061c3.889-3.693,7.192-7.775,9.981-12.069
	C419.487,317.184,418.716,317.314,417.801,317.314z"/>
<path style="fill:#41479B;" d="M410.251,329.1c-2.704-2.274-4.841-5.061-10.066-5.061c-8.803,0-8.803,7.945-17.605,7.945
	c-8.795,0-8.795-7.945-17.589-7.945c-5.205,0-7.34,2.773-10.03,5.045c7.076,6.723,16.096,12.142,27.655,15.031
	C394.164,341.227,403.179,335.814,410.251,329.1z"/>
<g>
	<path style="fill:#F5F5F5;" d="M400.185,250.693c-8.803,0-8.803,7.945-17.605,7.945c-8.795,0-8.795-7.945-17.589-7.945
		c-8.794,0-8.794,7.945-17.586,7.945c-8.796,0-8.796-7.945-17.591-7.945c0,5.011,0,9.365,0,12.185c0,0.687,0.016,1.535,0.049,2.489
		c8.741,0.034,8.765,7.94,17.543,7.94c8.794,0,8.794-7.945,17.586-7.945c8.795,0,8.795,7.945,17.589,7.945
		c8.803,0,8.803-7.945,17.605-7.945c8.809,0,8.809,7.945,17.616,7.945c8.79,0,8.815-7.907,17.568-7.94
		c0.032-0.955,0.049-1.802,0.049-2.489c0-2.82,0-7.174,0-12.185c-8.809,0-8.809,7.945-17.616,7.945
		C408.992,258.638,408.992,250.693,400.185,250.693z"/>
	<path style="fill:#F5F5F5;" d="M431.356,210.075c2.243,0,4.061,1.818,4.061,4.061v36.556v8.124c0,1.54,0,2.947,0,4.061
		c0,0.687-0.016,1.535-0.049,2.489c-0.122,3.513-0.525,8.726-1.555,14.851c-0.816,4.851-2.033,10.262-3.826,15.857
		c-2.236,6.974-5.374,14.209-9.756,20.955c-2.789,4.294-6.092,8.375-9.981,12.069c-7.073,6.716-16.088,12.127-27.636,15.015
		c-11.558-2.889-20.579-8.309-27.655-15.031c-3.881-3.688-7.177-7.764-9.961-12.049c-4.383-6.746-7.52-13.977-9.756-20.95
		c-1.795-5.597-3.012-11.011-3.829-15.863c-1.03-6.125-1.432-11.338-1.555-14.851c-0.032-0.955-0.049-1.802-0.049-2.489
		c0-1.115,0-2.523,0-4.061v-8.124v-36.556c0-2.243,1.818-4.061,4.061-4.061h97.484 M431.356,207.029h-97.482
		c-3.919,0-7.108,3.189-7.108,7.108v36.556v8.124v4.061c0,0.716,0.016,1.598,0.051,2.594c0.115,3.315,0.485,8.653,1.595,15.251
		c0.945,5.617,2.268,11.097,3.931,16.289c2.574,8.032,5.973,15.326,10.102,21.68c3.04,4.68,6.546,8.919,10.417,12.598
		c8.078,7.677,17.84,12.985,29.013,15.778l0.739,0.185l0.739-0.185c11.166-2.792,20.92-8.094,28.994-15.761
		c3.881-3.685,7.394-7.93,10.438-12.618c4.129-6.357,7.528-13.652,10.102-21.685c1.663-5.187,2.985-10.666,3.93-16.282
		c1.11-6.599,1.48-11.935,1.595-15.251c0.035-0.996,0.051-1.878,0.051-2.594v-4.061v-8.124v-36.556
		C438.464,210.218,435.275,207.029,431.356,207.029L431.356,207.029z"/>
</g>
<polygon style="fill:#73AF00;" points="382.615,319.55 371.469,327.305 375.402,314.309 364.581,306.106 378.156,305.83 
	382.615,293.004 387.075,305.83 400.648,306.106 389.829,314.309 393.76,327.305 "/>
<path style="fill:#FFE15A;" d="M382.615,295.51l3.869,11.131l11.782,0.24l-9.39,7.119l3.413,11.278l-9.672-6.731l-9.672,6.731
	L376.356,314l-9.39-7.119l11.782-0.24L382.615,295.51 M382.615,290.498l-1.555,4.471l-3.493,10.048l-10.636,0.217l-4.734,0.096
	l3.773,2.86l8.478,6.427l-3.08,10.182l-1.371,4.531l3.885-2.704l8.733-6.076l8.733,6.076l3.885,2.704l-1.371-4.531l-3.08-10.182
	l8.478-6.427l3.773-2.86l-4.734-0.096l-10.636-0.217l-3.493-10.048L382.615,290.498L382.615,290.498z"/>
<polygon style="fill:#73AF00;" points="358.136,287.869 346.991,295.624 350.922,282.626 340.103,274.425 353.678,274.149 
	358.136,261.321 362.596,274.149 376.17,274.425 365.351,282.626 369.282,295.624 "/>
<path style="fill:#FFE15A;" d="M358.136,263.828l3.869,11.131l11.78,0.24l-9.39,7.119l3.413,11.278l-9.672-6.731l-9.672,6.731
	l3.413-11.278l-9.39-7.119l11.782-0.24L358.136,263.828 M358.136,258.817l-1.555,4.471l-3.493,10.048l-10.636,0.217l-4.732,0.096
	l3.773,2.86l8.478,6.427l-3.08,10.182l-1.371,4.531l3.885-2.704l8.733-6.077l8.733,6.077l3.885,2.704l-1.371-4.531l-3.08-10.182
	l8.478-6.427l3.773-2.86l-4.734-0.096l-10.636-0.217l-3.493-10.048L358.136,258.817L358.136,258.817z"/>
<polygon style="fill:#73AF00;" points="406.878,287.869 395.731,295.624 399.664,282.626 388.844,274.425 402.418,274.149 
	406.878,261.321 411.337,274.149 424.912,274.425 414.091,282.626 418.024,295.624 "/>
<g>
	<path style="fill:#FFE15A;" d="M406.878,263.828l3.869,11.131l11.782,0.24l-9.39,7.119l3.413,11.278l-9.672-6.731l-9.672,6.731
		l3.413-11.278l-9.39-7.119l11.78-0.24L406.878,263.828 M406.878,258.817l-1.555,4.471l-3.493,10.048l-10.636,0.217l-4.732,0.096
		l3.773,2.86l8.478,6.427l-3.08,10.182l-1.371,4.531l3.885-2.704l8.733-6.077l8.733,6.077l3.885,2.704l-1.371-4.531l-3.08-10.182
		l8.478-6.427l3.773-2.86l-4.734-0.096l-10.636-0.217l-3.493-10.048L406.878,258.817L406.878,258.817z"/>
	<path style="fill:#FFE15A;" d="M446.858,304.264c-10.08,25.665-35.044,43.91-64.244,43.91s-54.164-18.246-64.244-43.91
		l-15.116,5.915c12.452,31.704,43.289,54.244,79.359,54.244c36.069,0,66.907-22.54,79.359-54.244L446.858,304.264z"/>
</g>
<g>
	<polygon style="fill:#F5F5F5;" points="390.739,210.075 378.553,210.075 374.492,197.89 386.677,197.89 	"/>
	<path style="fill:#F5F5F5;" d="M411.047,210.075h-8.124l-2.708-8.124h3.708c2.637,0,4.979,1.687,5.812,4.189L411.047,210.075z"/>
	<path style="fill:#F5F5F5;" d="M366.368,210.075h-8.124l-0.926-2.777c-0.877-2.631,1.081-5.346,3.853-5.346h2.488L366.368,210.075z
		"/>
</g>
<g>
	<path style="fill:#41479B;" d="M402.924,210.075h-12.185l-4.061-12.185h9.257c1.748,0,3.3,1.118,3.854,2.778L402.924,210.075z"/>
	<path style="fill:#41479B;" d="M378.553,210.075h-12.185l-2.743-8.231c-0.649-1.946,0.8-3.954,2.85-3.954h8.017L378.553,210.075z"
		/>
</g>
<path style="fill:#509664;" d="M412.444,181.897c-3.173,4.57-12.058,10.027-26.529,10.027c-11.923,0-19.591-7.199-22.151-10.038
	c-0.624-0.691-0.95-1.575-0.95-2.506v-2.77c0-1.192,0.619-2.277,1.65-2.877c2.579-1.501,8.54-3.895,20.309-3.895
	C399.37,169.839,412.444,181.897,412.444,181.897z"/>
<g>
</g>
<g>
</g>
<g>
</g>
<g>
</g>
<g>
</g>
<g>
</g>
<g>
</g>
<g>
</g>
<g>
</g>
<g>
</g>
<g>
</g>
<g>
</g>
<g>
</g>
<g>
</g>
<g>
</g>
</svg>
