<?xml version="1.0" encoding="iso-8859-1"?>
<!-- Generator: Adobe Illustrator 19.0.0, SVG Export Plug-In . SVG Version: 6.00 Build 0)  -->
<svg version="1.1" id="Layer_1" xmlns="http://www.w3.org/2000/svg" xmlns:xlink="http://www.w3.org/1999/xlink" x="0px" y="0px"
	 viewBox="0 0 512 512" style="enable-background:new 0 0 512 512;" xml:space="preserve">
<path style="fill:#5AA587;" d="M482.435,296.744l-0.014-81.491l-0.005-27.164l-0.008-42.485
	c-0.003-11.607-5.715-22.388-15.14-28.946c-0.812-0.565-1.642-1.11-2.509-1.611l-23.711-13.684l-22.198-12.81L400.98,78.24
	l-94.999-54.826l-19.995-11.539l-12.39-7.151c-10.918-6.301-24.37-6.298-35.287,0.006l-12.307,7.108l-19.995,11.548L111.02,78.247
	L81.076,95.544l-22.191,12.818l-11.697,6.756c-0.841,0.486-1.648,1.015-2.439,1.561c-9.465,6.556-15.202,17.365-15.2,29.001
	l0.007,42.41l0.005,27.164l0.014,81.491l0.005,27.164l0.007,42.486c0.003,11.607,5.715,22.388,15.14,28.946
	c0.812,0.565,1.642,1.11,2.509,1.611l23.377,13.491l22.198,12.811l18.204,10.506l94.999,54.826l19.995,11.539l12.39,7.151
	c10.92,6.301,24.37,6.298,35.287-0.006l12.307-7.108l19.995-11.548l94.989-54.863l27.325-15.782l22.191-12.818l14.319-8.27
	c0.841-0.486,1.648-1.015,2.439-1.561c9.465-6.556,15.201-17.365,15.2-29.001l-0.008-42.41L482.435,296.744z"/>
<g>
	<path style="fill:#F5F5F5;" d="M279.079,305.83c10.815,2.584,22.358,2.787,33.899-0.08c20.337-5.05,36.423-18.307,45.77-35.333
		c-16.226-10.675-36.645-14.868-56.982-9.82c-10.933,2.716-20.524,7.919-28.607,14.696c0.076-0.101,0.14-0.201,0.216-0.302
		c29.947-27.005,63.378-18.286,63.378-18.286l7.909-6.758c0,0-33.721-11.651-63.925,13.334c18.694-36.193-1.477-67.239-1.477-67.239
		l-4.652,9.305c0,0,16.775,30.763-2.85,66.654c-0.024,0.026-0.046,0.055-0.069,0.081c4.782-9.607,7.572-20.376,7.572-31.843
		c0-20.954-8.991-39.76-23.261-52.936c-14.27,13.175-23.261,31.982-23.261,52.936c0,11.468,2.789,22.236,7.572,31.843
		c-0.024-0.026-0.046-0.055-0.069-0.081c-19.626-35.891-2.85-66.654-2.85-66.654l-4.652-9.305c0,0-20.171,31.047-1.477,67.239
		c-30.204-24.984-63.925-13.334-63.925-13.334l7.909,6.758c0,0,33.431-8.719,63.378,18.286c0.076,0.101,0.14,0.201,0.216,0.302
		c-8.083-6.776-17.674-11.98-28.607-14.696c-20.336-5.05-40.755-0.855-56.981,9.82c9.347,17.024,25.434,30.283,45.77,35.333
		c11.543,2.865,23.086,2.664,33.899,0.08c-40.291,11.264-66.643-13.003-66.643-13.003l-10.151,2.273c0,0,40.721,43.666,99.876,0.831
		c59.155,42.835,99.876-0.831,99.876-0.831l-10.151-2.273C345.722,292.828,319.371,317.095,279.079,305.83z"/>
	<path style="fill:#F5F5F5;" d="M197.208,356.094c4.205,2.609,8.6,4.936,13.151,6.978h91.278c4.552-2.042,8.948-4.369,13.151-6.978
		H197.208z"/>
	<path style="fill:#F5F5F5;" d="M218.537,366.371c11.712,4.171,24.317,6.461,37.461,6.461s25.749-2.289,37.461-6.461H218.537z"/>
	<path style="fill:#F5F5F5;" d="M172.457,335.222c1.41,1.588,2.85,3.147,4.346,4.652h158.389c1.496-1.506,2.937-3.064,4.346-4.652
		H172.457z"/>
	<path style="fill:#F5F5F5;" d="M182.667,345.336c2.331,2.033,4.736,3.979,7.231,5.816h132.2c2.496-1.836,4.9-3.783,7.231-5.816
		H182.667z"/>
	<path style="fill:#F5F5F5;" d="M302.522,322.819c-26.055,0-43.884-17.414-44.06-17.591l-2.469-2.453l-2.461,2.458
		c-0.177,0.177-17.889,17.586-44.057,17.586h-46.566c1.59,2.396,3.279,4.717,5.044,6.978h41.522
		c23.407,0,40.401-12.244,46.524-17.405c6.122,5.161,23.116,17.405,46.524,17.405h41.524c1.765-2.261,3.454-4.582,5.044-6.978
		H302.522z"/>
</g>
<g>
	<path style="fill:#FFE15A;" d="M254.777,140.044l-4.083,12.24l-12.903,0.1c-1.237,0.01-1.751,1.588-0.755,2.323l10.381,7.665
		l-3.893,12.303c-0.374,1.18,0.97,2.156,1.977,1.436l10.498-7.503l10.498,7.503c1.006,0.72,2.351-0.256,1.977-1.436l-3.893-12.303
		l10.381-7.665c0.995-0.735,0.482-2.314-0.755-2.323l-12.904-0.1l-4.083-12.24C256.828,138.871,255.168,138.871,254.777,140.044z"/>
	<path style="fill:#FFE15A;" d="M193.71,165.1l2.363,8.583l-7.355,5.014c-0.705,0.481-0.392,1.582,0.46,1.622l8.893,0.405
		l2.496,8.545c0.239,0.82,1.383,0.862,1.685,0.064l3.133-8.333l8.898,0.266c0.854,0.026,1.248-1.05,0.581-1.582l-6.957-5.555
		l3.003-8.38c0.287-0.804-0.612-1.511-1.326-1.041l-7.432,4.9l-7.042-5.446C194.435,163.639,193.484,164.278,193.71,165.1z"/>
	<path style="fill:#FFE15A;" d="M158.109,208.326l6.437,6.15l-3.734,8.08c-0.359,0.775,0.476,1.56,1.227,1.155l7.838-4.221
		l6.531,6.048c0.626,0.58,1.631,0.029,1.477-0.811l-1.593-8.758l7.77-4.343c0.745-0.416,0.531-1.542-0.315-1.656l-8.821-1.191
		l-1.728-8.733c-0.166-0.837-1.302-0.982-1.672-0.212l-3.859,8.022l-8.839-1.055C157.98,206.7,157.491,207.736,158.109,208.326z"/>
	<path style="fill:#FFE15A;" d="M320.311,165.1l-2.363,8.583l7.355,5.014c0.705,0.481,0.392,1.582-0.46,1.622l-8.893,0.405
		l-2.496,8.545c-0.239,0.82-1.383,0.862-1.685,0.064L308.636,181l-8.898,0.266c-0.854,0.026-1.248-1.05-0.581-1.582l6.957-5.555
		l-3.003-8.38c-0.287-0.804,0.612-1.511,1.326-1.041l7.432,4.9l7.042-5.446C319.586,163.639,320.537,164.278,320.311,165.1z"/>
	<path style="fill:#FFE15A;" d="M355.912,208.326l-6.437,6.15l3.734,8.08c0.359,0.775-0.476,1.56-1.227,1.155l-7.837-4.221
		l-6.531,6.048c-0.626,0.58-1.631,0.029-1.478-0.811l1.593-8.758l-7.77-4.343c-0.745-0.416-0.531-1.542,0.315-1.656l8.821-1.191
		l1.728-8.733c0.166-0.837,1.302-0.982,1.672-0.212l3.859,8.022l8.839-1.055C356.041,206.7,356.53,207.736,355.912,208.326z"/>
</g>
<g>
</g>
<g>
</g>
<g>
</g>
<g>
</g>
<g>
</g>
<g>
</g>
<g>
</g>
<g>
</g>
<g>
</g>
<g>
</g>
<g>
</g>
<g>
</g>
<g>
</g>
<g>
</g>
<g>
</g>
</svg>
