<?xml version="1.0" encoding="iso-8859-1"?>
<!-- Generator: Adobe Illustrator 19.0.0, SVG Export Plug-In . SVG Version: 6.00 Build 0)  -->
<svg version="1.1" id="Layer_1" xmlns="http://www.w3.org/2000/svg" xmlns:xlink="http://www.w3.org/1999/xlink" x="0px" y="0px"
	 viewBox="0 0 512.001 512.001" style="enable-background:new 0 0 512.001 512.001;" xml:space="preserve">
<path style="fill:#F5F5F5;" d="M29.588,366.395l-0.036-220.713c-0.003-12.607,6.722-24.257,17.639-30.562L238.314,4.731
	c10.917-6.306,24.368-6.307,35.287-0.006L464.762,115.05c10.92,6.302,17.646,17.95,17.649,30.557l0.036,220.713
	c0.003,12.607-6.722,24.257-17.639,30.563L273.683,507.269c-10.917,6.306-24.368,6.307-35.286,0.006L47.237,396.951
	C36.317,390.649,29.591,379.001,29.588,366.395z"/>
<g>
	<path style="fill:#FF4B55;" d="M41.36,119.34v136.838l19.693,7.319l22.116-7.319V94.338l-35.98,20.781
		C45.083,116.336,43.137,117.756,41.36,119.34z"/>
	<polygon style="fill:#FF4B55;" points="96.773,86.481 255.999,86.481 259.748,53.556 255.999,19.56 212.639,19.56 	"/>
	<path style="fill:#FF4B55;" d="M108.019,108.788l84.039,87.312l56.023,58.205c0.029-0.021,0.057-0.046,0.086-0.067
		c0.06-0.054,0.12-0.109,0.182-0.156c0.444-0.337,7.647-6.784,7.648-6.828c0.156-3.671-0.084-10.216-0.049-11.177
		c0.003-0.06,0.011-0.116,0.014-0.176L215.18,193.53l-81.565-84.74h-25.597L108.019,108.788L108.019,108.788z"/>
</g>
<path style="fill:#41479B;" d="M482.411,145.607c-0.003-12.607-6.729-24.255-17.649-30.557L273.601,4.726
	C268.155,1.583,262.078,0.009,256,0.002V19.56v66.92v20.003H149.817l106.182,111.348v16.963c0,0.374-0.023,0.737-0.035,1.106l0,0
	c-0.003,0.06-0.011,0.117-0.014,0.176c-0.036,0.961-0.104,1.908-0.216,2.829c-0.018,0.142-0.05,0.276-0.069,0.419
	c-0.505,3.745-1.61,7.128-3.164,9.859c-0.021,0.039-0.042,0.077-0.065,0.115c-0.796,1.38-1.706,2.589-2.704,3.595
	c-0.03,0.03-0.061,0.059-0.091,0.089c-0.411,0.405-0.846,0.764-1.29,1.1c-0.062,0.047-0.122,0.102-0.182,0.156
	c-0.029,0.021-0.057,0.046-0.086,0.067l0,0c-1.662,1.198-3.502,1.874-5.443,1.874h-23.209L95.667,126.396v129.783h-5.872h-6.624
	H41.36h-7.799H29.57l0.019,110.216c0.003,12.607,6.729,24.255,17.649,30.557l191.161,110.325c10.918,6.301,24.37,6.299,35.286-0.006
	L464.81,396.883c10.917-6.305,17.64-17.955,17.639-30.563L482.411,145.607z"/>
<path style="fill:#73AF00;" d="M381.352,178.219H319.42c0,0,0,80.147,0,112.934c0,25.5,61.932,51.002,61.932,51.002
	s61.932-25.502,61.932-51.002c0-32.787,0-112.934,0-112.934L381.352,178.219L381.352,178.219z"/>
<path style="fill:#FF4B55;" d="M345.094,264.39c0,0-0.349-1.198-0.039-2.282c0.309-1.083-0.486-2.077-0.657-3.017
	c-0.464-2.552,1.702-3.209,1.817-5.491c0,0,1.547,1.586,0.967,3.094c-0.58,1.508,0.851,1.741,0.657,3.172s-1.778,2.939-1.625,4.215
	L345.094,264.39z"/>
<path style="fill:#FFE15A;" d="M369.444,261.967c-1.265-1.582-3.484,0.122-5.109,1.361c-0.226,0.174-0.417,0.306-0.619,0.451
	l-5.993-8.849c0.167-0.252,0.29-0.539,0.29-0.865c0-0.882-0.715-1.596-1.596-1.596c-0.882,0-1.596,0.715-1.596,1.596
	c0,0.326,0.121,0.612,0.29,0.865l-6.181,9.127h-4.378c0,0-0.18,2.721,4.599,3.052c0.616,0.932,1.495,1.675,2.547,2.096
	c-0.494,0.08-0.893,0.462-0.893,0.978v0.64c0,0.04,0.039,0.064,0.044,0.104h11.134c0.004-0.04,0.042-0.064,0.042-0.104v-0.64
	c0-0.524-0.406-0.912-0.908-0.986c1.863-0.75,3.173-2.493,3.393-4.565c0.174-0.129,0.336-0.246,0.524-0.39
	c1.175-0.902,2.945-2.276,3.51-1.557c0.141,0.176,0.127,0.272,0.12,0.309c-0.064,0.417-0.957,1.017-1.675,1.5
	c-1.128,0.757-2.296,1.545-2.387,2.658c-0.027,0.317,0.209,0.594,0.525,0.622c0.016,0,0.034,0,0.047,0
	c0.297,0,0.549-0.227,0.574-0.526c0.046-0.565,1.065-1.248,1.883-1.798c1.043-0.704,2.027-1.365,2.168-2.279
	C369.868,262.753,369.747,262.349,369.444,261.967z M359.202,264.058c-0.33-1.258-1.108-2.467-2.081-2.903
	c0.515-0.265,0.877-0.786,0.877-1.405c0-0.881-0.715-1.596-1.596-1.596s-1.596,0.715-1.596,1.596c0,0.619,0.362,1.14,0.877,1.405
	c-0.972,0.436-1.751,1.645-2.081,2.903h-3.284l5.736-8.47c0.12,0.029,0.235,0.074,0.364,0.074c0.129,0,0.244-0.045,0.364-0.074
	l5.736,8.47H359.202z"/>
<path style="fill:#FFC8B9;" d="M377.406,210.4c0,0-5.768-1.708-8.349,18.481c0,0-14.116,17.95-14.572,19.012
	c-0.455,1.062-0.037,8.69,1.48,8.083c1.518-0.607,4.25-4.136,4.099-6.717s1.012-4.02,2.163-5.312
	c2.163-2.428,14.345-13.434,14.8-15.862C377.482,225.655,377.406,210.4,377.406,210.4z"/>
<g>
	<path style="fill:#F5F5F5;" d="M386.361,206.566c0,0,8.918-1.176,11.537,7.932c0,0-7.324,4.023-6.413,9.26
		s-0.114,29.144-0.114,29.144c-14.002,4.554-21.403-1.138-21.403-1.138s3.643-13.548,3.074-24.591c0,0-3.302-2.504-2.504-5.351
		c0.797-2.847,2.845-6.033,3.529-8.424s2.504-6.376,6.944-6.717C385.451,206.339,386.361,206.566,386.361,206.566z"/>
	<path style="fill:#F5F5F5;" d="M372.548,249.107c0,0-6.982,26.411-4.554,62.387c0,0,21.783,2.884,33.622-1.442
		c0,0-6.147-43.033-12.068-59.882L372.548,249.107z"/>
</g>
<path style="fill:#FFC8B9;" d="M376.647,191.009v10.942c0,1.202,0.973,2.176,2.176,2.176h0.195c0.85,0,1.54,0.69,1.54,1.54v2.616
	c0,0,1.467,3.829,7.171-0.652V191.09L376.647,191.009z"/>
<path style="fill:#8C5A28;" d="M375.356,188.769c-0.354,0.885,0.019,3.283,2.201,3.112c2.725-0.214,6.015-0.227,6.754,2.789
	c0.689,2.805,0.227,9.81,3.264,10.265c3.035,0.455,6.478-1.562,6.413-7.589c-0.057-5.312-3.529-11.669-8.386-10.701
	c0,0-4.308-3.017-6.831,0.38C378.772,187.024,376.115,186.872,375.356,188.769z"/>
<path style="fill:#FFC8B9;" d="M397.898,214.498c0,0,3.107,20.471,2.96,22.161c-0.151,1.746-11.004,18.519-10.397,20.341
	c0.607,1.822,1.215,4.25-2.126,5.161c-3.339,0.911-2.998-4.421-2.087-7.153c0.911-2.733,8.538-17.285,8.538-18.955
	s-4.326-12.447-3.264-16.697C392.585,215.105,397.898,214.498,397.898,214.498z"/>
<path style="fill:#FF4B55;" d="M331.432,199.798c0,0-0.349-1.198-0.039-2.282c0.31-1.083-0.486-2.077-0.657-3.017
	c-0.464-2.552,1.702-3.21,1.817-5.491c0,0,1.547,1.586,0.967,3.094s0.851,1.741,0.657,3.172s-1.78,2.939-1.625,4.215
	L331.432,199.798z"/>
<path style="fill:#FFE15A;" d="M355.783,197.375c-1.265-1.582-3.484,0.122-5.109,1.361c-0.226,0.174-0.417,0.306-0.619,0.451
	l-5.993-8.85c0.167-0.252,0.29-0.539,0.29-0.865c0-0.882-0.715-1.596-1.596-1.596c-0.882,0-1.596,0.715-1.596,1.596
	c0,0.326,0.122,0.612,0.29,0.865l-6.182,9.129h-4.378c0,0-0.18,2.721,4.599,3.05c0.616,0.932,1.495,1.675,2.547,2.096
	c-0.494,0.08-0.894,0.461-0.894,0.978v0.64c0,0.04,0.039,0.064,0.044,0.104h11.134c0.005-0.04,0.042-0.064,0.042-0.104v-0.64
	c0-0.524-0.406-0.912-0.908-0.986c1.863-0.75,3.173-2.493,3.393-4.566c0.174-0.129,0.336-0.246,0.524-0.39
	c1.175-0.902,2.945-2.276,3.51-1.557c0.141,0.176,0.126,0.272,0.12,0.309c-0.064,0.417-0.957,1.017-1.675,1.5
	c-1.128,0.757-2.296,1.545-2.387,2.658c-0.027,0.317,0.209,0.594,0.525,0.622c0.016,0,0.034,0,0.049,0
	c0.297,0,0.549-0.227,0.574-0.526c0.046-0.565,1.065-1.248,1.883-1.798c1.043-0.704,2.027-1.365,2.168-2.279
	C356.207,198.161,356.086,197.756,355.783,197.375z M345.541,199.466c-0.33-1.258-1.108-2.467-2.081-2.903
	c0.515-0.265,0.877-0.786,0.877-1.405c0-0.881-0.715-1.596-1.596-1.596s-1.596,0.715-1.596,1.596c0,0.619,0.362,1.14,0.877,1.405
	c-0.972,0.436-1.751,1.645-2.081,2.903h-3.285l5.736-8.47c0.12,0.029,0.235,0.074,0.364,0.074c0.129,0,0.244-0.045,0.364-0.074
	l5.736,8.47H345.541z"/>
<path style="fill:#FF4B55;" d="M331.432,221.328c0,0-0.349-1.198-0.039-2.282c0.31-1.083-0.486-2.077-0.657-3.017
	c-0.464-2.552,1.702-3.21,1.817-5.491c0,0,1.547,1.586,0.967,3.094s0.851,1.741,0.657,3.172s-1.78,2.939-1.625,4.215
	L331.432,221.328z"/>
<path style="fill:#FFE15A;" d="M355.783,218.905c-1.265-1.582-3.484,0.122-5.109,1.361c-0.226,0.174-0.417,0.306-0.619,0.451
	l-5.993-8.85c0.167-0.252,0.29-0.539,0.29-0.865c0-0.881-0.715-1.596-1.596-1.596c-0.882,0-1.596,0.715-1.596,1.596
	c0,0.326,0.122,0.612,0.29,0.865l-6.182,9.127h-4.378c0,0-0.18,2.721,4.599,3.05c0.616,0.932,1.495,1.675,2.547,2.096
	c-0.494,0.08-0.894,0.462-0.894,0.978v0.639c0,0.04,0.039,0.064,0.044,0.104h11.134c0.005-0.039,0.042-0.064,0.042-0.104v-0.639
	c0-0.524-0.406-0.912-0.908-0.986c1.863-0.75,3.173-2.493,3.393-4.565c0.174-0.129,0.336-0.246,0.524-0.39
	c1.175-0.902,2.945-2.276,3.51-1.557c0.141,0.176,0.126,0.272,0.12,0.309c-0.064,0.417-0.957,1.017-1.675,1.5
	c-1.128,0.757-2.296,1.545-2.387,2.658c-0.027,0.317,0.209,0.594,0.525,0.622c0.016,0,0.034,0,0.049,0
	c0.297,0,0.549-0.227,0.574-0.526c0.046-0.565,1.065-1.248,1.883-1.797c1.043-0.704,2.027-1.365,2.168-2.279
	C356.207,219.691,356.086,219.288,355.783,218.905z M345.541,220.996c-0.33-1.258-1.108-2.467-2.081-2.903
	c0.515-0.265,0.877-0.786,0.877-1.405c0-0.881-0.715-1.596-1.596-1.596s-1.596,0.715-1.596,1.596c0,0.619,0.362,1.14,0.877,1.405
	c-0.972,0.436-1.751,1.645-2.081,2.903h-3.285l5.736-8.47c0.12,0.029,0.235,0.074,0.364,0.074c0.129,0,0.244-0.045,0.364-0.074
	l5.736,8.47H345.541z"/>
<path style="fill:#FF4B55;" d="M331.432,242.86c0,0-0.349-1.198-0.039-2.282s-0.486-2.077-0.657-3.017
	c-0.464-2.552,1.702-3.21,1.817-5.492c0,0,1.547,1.586,0.967,3.094s0.851,1.741,0.657,3.172s-1.78,2.939-1.625,4.215L331.432,242.86
	z"/>
<path style="fill:#FFE15A;" d="M355.783,240.437c-1.265-1.582-3.484,0.122-5.109,1.361c-0.226,0.174-0.417,0.306-0.619,0.451
	l-5.993-8.85c0.167-0.252,0.29-0.539,0.29-0.865c0-0.882-0.715-1.596-1.596-1.596c-0.882,0-1.596,0.715-1.596,1.596
	c0,0.326,0.122,0.612,0.29,0.865l-6.182,9.129h-4.378c0,0-0.18,2.72,4.599,3.05c0.616,0.932,1.495,1.675,2.547,2.096
	c-0.494,0.08-0.894,0.462-0.894,0.978v0.64c0,0.04,0.039,0.064,0.044,0.104h11.134c0.005-0.039,0.042-0.064,0.042-0.104v-0.64
	c0-0.524-0.406-0.912-0.908-0.986c1.863-0.75,3.173-2.493,3.393-4.566c0.174-0.129,0.336-0.246,0.524-0.39
	c1.175-0.902,2.945-2.276,3.51-1.557c0.141,0.176,0.126,0.272,0.12,0.309c-0.064,0.417-0.957,1.017-1.675,1.5
	c-1.128,0.757-2.296,1.545-2.387,2.658c-0.027,0.317,0.209,0.594,0.525,0.622c0.016,0,0.034,0,0.049,0
	c0.297,0,0.549-0.227,0.574-0.526c0.046-0.565,1.065-1.248,1.883-1.798c1.043-0.704,2.027-1.365,2.168-2.279
	C356.207,241.223,356.086,240.818,355.783,240.437z M345.541,242.527c-0.33-1.258-1.108-2.467-2.081-2.903
	c0.515-0.265,0.877-0.786,0.877-1.405c0-0.881-0.715-1.596-1.596-1.596s-1.596,0.715-1.596,1.596c0,0.619,0.362,1.14,0.877,1.405
	c-0.972,0.436-1.751,1.645-2.081,2.903h-3.285l5.736-8.47c0.12,0.029,0.235,0.074,0.364,0.074c0.129,0,0.244-0.045,0.364-0.074
	l5.736,8.47H345.541z"/>
<path style="fill:#FF4B55;" d="M331.432,285.922c0,0-0.349-1.198-0.039-2.282c0.31-1.083-0.486-2.077-0.657-3.017
	c-0.464-2.552,1.702-3.21,1.817-5.491c0,0,1.547,1.586,0.967,3.094s0.851,1.741,0.657,3.172s-1.78,2.939-1.625,4.215
	L331.432,285.922z"/>
<path style="fill:#FFE15A;" d="M355.783,283.499c-1.265-1.582-3.484,0.122-5.109,1.361c-0.226,0.174-0.417,0.306-0.619,0.451
	l-5.993-8.85c0.167-0.252,0.29-0.539,0.29-0.865c0-0.882-0.715-1.596-1.596-1.596c-0.882,0-1.596,0.715-1.596,1.596
	c0,0.326,0.122,0.612,0.29,0.865l-6.182,9.129h-4.378c0,0-0.18,2.72,4.599,3.05c0.616,0.932,1.495,1.675,2.547,2.096
	c-0.494,0.08-0.894,0.462-0.894,0.978v0.639c0,0.04,0.039,0.064,0.044,0.104h11.134c0.005-0.039,0.042-0.064,0.042-0.104v-0.639
	c0-0.524-0.406-0.912-0.908-0.986c1.863-0.75,3.173-2.493,3.393-4.566c0.174-0.129,0.336-0.246,0.524-0.39
	c1.175-0.902,2.945-2.276,3.51-1.557c0.141,0.176,0.126,0.272,0.12,0.309c-0.064,0.417-0.957,1.017-1.675,1.5
	c-1.128,0.757-2.296,1.545-2.387,2.658c-0.027,0.317,0.209,0.594,0.525,0.622c0.016,0,0.034,0,0.049,0
	c0.297,0,0.549-0.227,0.574-0.526c0.046-0.565,1.065-1.248,1.883-1.797c1.043-0.704,2.027-1.365,2.168-2.279
	C356.207,284.285,356.086,283.88,355.783,283.499z M345.541,285.589c-0.33-1.258-1.108-2.467-2.081-2.903
	c0.515-0.265,0.877-0.786,0.877-1.405c0-0.881-0.715-1.596-1.596-1.596s-1.596,0.715-1.596,1.596c0,0.619,0.362,1.14,0.877,1.405
	c-0.972,0.436-1.751,1.645-2.081,2.903h-3.285l5.736-8.47c0.12,0.029,0.235,0.074,0.364,0.074c0.129,0,0.244-0.045,0.364-0.074
	l5.736,8.47H345.541z"/>
<path style="fill:#FF4B55;" d="M331.432,307.452c0,0-0.349-1.198-0.039-2.282c0.31-1.083-0.486-2.077-0.657-3.017
	c-0.464-2.552,1.702-3.21,1.817-5.492c0,0,1.547,1.586,0.967,3.094s0.851,1.741,0.657,3.172s-1.78,2.939-1.625,4.215
	L331.432,307.452z"/>
<path style="fill:#FFE15A;" d="M355.783,305.029c-1.265-1.582-3.484,0.122-5.109,1.361c-0.226,0.174-0.417,0.306-0.619,0.451
	l-5.993-8.85c0.167-0.252,0.29-0.539,0.29-0.865c0-0.881-0.715-1.596-1.596-1.596c-0.882,0-1.596,0.715-1.596,1.596
	c0,0.326,0.122,0.612,0.29,0.865l-6.182,9.129h-4.378c0,0-0.18,2.72,4.599,3.05c0.616,0.932,1.495,1.675,2.547,2.096
	c-0.494,0.08-0.894,0.462-0.894,0.978v0.64c0,0.04,0.039,0.064,0.044,0.104h11.134c0.005-0.039,0.042-0.063,0.042-0.104v-0.64
	c0-0.524-0.406-0.912-0.908-0.986c1.863-0.75,3.173-2.493,3.393-4.566c0.174-0.129,0.336-0.246,0.524-0.39
	c1.175-0.902,2.945-2.276,3.51-1.557c0.141,0.176,0.126,0.272,0.12,0.309c-0.064,0.417-0.957,1.017-1.675,1.5
	c-1.128,0.757-2.296,1.545-2.387,2.658c-0.027,0.317,0.209,0.594,0.525,0.622c0.016,0,0.034,0,0.049,0
	c0.297,0,0.549-0.227,0.574-0.526c0.046-0.565,1.065-1.248,1.883-1.798c1.043-0.704,2.027-1.365,2.168-2.279
	C356.207,305.815,356.086,305.411,355.783,305.029z M345.541,307.12c-0.33-1.258-1.108-2.467-2.081-2.903
	c0.515-0.265,0.877-0.786,0.877-1.405c0-0.881-0.715-1.596-1.596-1.596s-1.596,0.715-1.596,1.596c0,0.619,0.362,1.14,0.877,1.405
	c-0.972,0.436-1.751,1.645-2.081,2.903h-3.285l5.736-8.47c0.12,0.029,0.235,0.074,0.364,0.074c0.129,0,0.244-0.045,0.364-0.074
	l5.736,8.47H345.541z"/>
<path style="fill:#FF4B55;" d="M406.342,199.798c0,0-0.347-1.198-0.039-2.282c0.309-1.083-0.486-2.077-0.657-3.017
	c-0.464-2.552,1.702-3.21,1.817-5.491c0,0,1.547,1.586,0.967,3.094s0.851,1.741,0.657,3.172s-1.78,2.939-1.625,4.215
	L406.342,199.798z"/>
<path style="fill:#FFE15A;" d="M430.692,197.375c-1.265-1.582-3.484,0.122-5.109,1.361c-0.226,0.174-0.417,0.306-0.619,0.451
	l-5.993-8.85c0.167-0.252,0.29-0.539,0.29-0.865c0-0.882-0.715-1.596-1.596-1.596s-1.596,0.715-1.596,1.596
	c0,0.326,0.121,0.612,0.29,0.865l-6.181,9.129H405.8c0,0-0.18,2.721,4.599,3.05c0.616,0.932,1.495,1.675,2.547,2.096
	c-0.494,0.08-0.894,0.461-0.894,0.978v0.64c0,0.04,0.039,0.064,0.044,0.104h11.134c0.005-0.04,0.042-0.064,0.042-0.104v-0.64
	c0-0.524-0.406-0.912-0.908-0.986c1.863-0.75,3.173-2.493,3.394-4.566c0.174-0.129,0.336-0.246,0.524-0.39
	c1.175-0.902,2.945-2.276,3.51-1.557c0.141,0.176,0.126,0.272,0.12,0.309c-0.064,0.417-0.957,1.017-1.675,1.5
	c-1.128,0.757-2.296,1.545-2.387,2.658c-0.027,0.317,0.209,0.594,0.525,0.622c0.016,0,0.034,0,0.047,0
	c0.297,0,0.549-0.227,0.574-0.526c0.046-0.565,1.065-1.248,1.883-1.798c1.043-0.704,2.027-1.365,2.168-2.279
	C431.116,198.161,430.995,197.756,430.692,197.375z M420.45,199.466c-0.33-1.258-1.108-2.467-2.081-2.903
	c0.515-0.265,0.877-0.786,0.877-1.405c0-0.881-0.715-1.596-1.596-1.596s-1.596,0.715-1.596,1.596c0,0.619,0.362,1.14,0.877,1.405
	c-0.972,0.436-1.751,1.645-2.081,2.903h-3.284l5.736-8.47c0.12,0.029,0.235,0.074,0.364,0.074c0.129,0,0.244-0.045,0.364-0.074
	l5.736,8.47H420.45z"/>
<path style="fill:#FF4B55;" d="M406.342,221.328c0,0-0.347-1.198-0.039-2.282c0.31-1.083-0.486-2.077-0.657-3.017
	c-0.464-2.552,1.702-3.21,1.817-5.491c0,0,1.547,1.586,0.967,3.094s0.851,1.741,0.657,3.172s-1.78,2.939-1.625,4.215
	L406.342,221.328z"/>
<path style="fill:#FFE15A;" d="M430.692,218.905c-1.265-1.582-3.484,0.122-5.109,1.361c-0.226,0.174-0.417,0.306-0.619,0.451
	l-5.993-8.85c0.167-0.252,0.29-0.539,0.29-0.865c0-0.881-0.715-1.596-1.596-1.596s-1.596,0.715-1.596,1.596
	c0,0.326,0.121,0.612,0.29,0.865l-6.181,9.127H405.8c0,0-0.18,2.721,4.599,3.05c0.616,0.932,1.495,1.675,2.547,2.096
	c-0.494,0.08-0.894,0.462-0.894,0.978v0.639c0,0.04,0.039,0.064,0.044,0.104h11.134c0.005-0.039,0.042-0.064,0.042-0.104v-0.639
	c0-0.524-0.406-0.912-0.908-0.986c1.863-0.75,3.173-2.493,3.394-4.565c0.174-0.129,0.336-0.246,0.524-0.39
	c1.175-0.902,2.945-2.276,3.51-1.557c0.141,0.176,0.126,0.272,0.12,0.309c-0.064,0.417-0.957,1.017-1.675,1.5
	c-1.128,0.757-2.296,1.545-2.387,2.658c-0.027,0.317,0.209,0.594,0.525,0.622c0.016,0,0.034,0,0.047,0
	c0.297,0,0.549-0.227,0.574-0.526c0.046-0.565,1.065-1.248,1.883-1.797c1.043-0.704,2.027-1.365,2.168-2.279
	C431.116,219.691,430.995,219.288,430.692,218.905z M420.45,220.996c-0.33-1.258-1.108-2.467-2.081-2.903
	c0.515-0.265,0.877-0.786,0.877-1.405c0-0.881-0.715-1.596-1.596-1.596s-1.596,0.715-1.596,1.596c0,0.619,0.362,1.14,0.877,1.405
	c-0.972,0.436-1.751,1.645-2.081,2.903h-3.284l5.736-8.47c0.12,0.029,0.235,0.074,0.364,0.074c0.129,0,0.244-0.045,0.364-0.074
	l5.736,8.47H420.45z"/>
<path style="fill:#FF4B55;" d="M406.342,242.86c0,0-0.347-1.198-0.039-2.282s-0.486-2.077-0.657-3.017
	c-0.464-2.552,1.702-3.21,1.817-5.492c0,0,1.547,1.586,0.967,3.094s0.851,1.741,0.657,3.172s-1.78,2.939-1.625,4.215L406.342,242.86
	z"/>
<path style="fill:#FFE15A;" d="M430.692,240.437c-1.265-1.582-3.484,0.122-5.109,1.361c-0.226,0.174-0.417,0.306-0.619,0.451
	l-5.993-8.85c0.167-0.252,0.29-0.539,0.29-0.865c0-0.882-0.715-1.596-1.596-1.596s-1.596,0.715-1.596,1.596
	c0,0.326,0.121,0.612,0.29,0.865l-6.181,9.129H405.8c0,0-0.18,2.72,4.599,3.05c0.616,0.932,1.495,1.675,2.547,2.096
	c-0.494,0.08-0.894,0.462-0.894,0.978v0.64c0,0.04,0.039,0.064,0.044,0.104h11.134c0.005-0.039,0.042-0.064,0.042-0.104v-0.64
	c0-0.524-0.406-0.912-0.908-0.986c1.863-0.75,3.173-2.493,3.394-4.566c0.174-0.129,0.336-0.246,0.524-0.39
	c1.175-0.902,2.945-2.276,3.51-1.557c0.141,0.176,0.126,0.272,0.12,0.309c-0.064,0.417-0.957,1.017-1.675,1.5
	c-1.128,0.757-2.296,1.545-2.387,2.658c-0.027,0.317,0.209,0.594,0.525,0.622c0.016,0,0.034,0,0.047,0
	c0.297,0,0.549-0.227,0.574-0.526c0.046-0.565,1.065-1.248,1.883-1.798c1.043-0.704,2.027-1.365,2.168-2.279
	C431.116,241.223,430.995,240.818,430.692,240.437z M420.45,242.527c-0.33-1.258-1.108-2.467-2.081-2.903
	c0.515-0.265,0.877-0.786,0.877-1.405c0-0.881-0.715-1.596-1.596-1.596s-1.596,0.715-1.596,1.596c0,0.619,0.362,1.14,0.877,1.405
	c-0.972,0.436-1.751,1.645-2.081,2.903h-3.284l5.736-8.47c0.12,0.029,0.235,0.074,0.364,0.074c0.129,0,0.244-0.045,0.364-0.074
	l5.736,8.47H420.45z"/>
<path style="fill:#FF4B55;" d="M406.342,264.39c0,0-0.347-1.198-0.039-2.282c0.309-1.083-0.486-2.077-0.657-3.017
	c-0.464-2.552,1.702-3.209,1.817-5.491c0,0,1.547,1.586,0.967,3.094c-0.58,1.508,0.851,1.741,0.657,3.172s-1.78,2.939-1.625,4.215
	L406.342,264.39z"/>
<path style="fill:#FFE15A;" d="M430.692,261.967c-1.265-1.582-3.484,0.122-5.109,1.361c-0.226,0.174-0.417,0.306-0.619,0.451
	l-5.993-8.849c0.167-0.252,0.29-0.539,0.29-0.865c0-0.882-0.715-1.596-1.596-1.596s-1.596,0.715-1.596,1.596
	c0,0.326,0.121,0.612,0.29,0.865l-6.181,9.127H405.8c0,0-0.18,2.721,4.599,3.052c0.616,0.932,1.495,1.675,2.547,2.096
	c-0.494,0.08-0.894,0.462-0.894,0.978v0.64c0,0.04,0.039,0.064,0.044,0.104h11.134c0.005-0.04,0.042-0.064,0.042-0.104v-0.64
	c0-0.524-0.406-0.912-0.908-0.986c1.863-0.75,3.173-2.493,3.394-4.565c0.174-0.129,0.336-0.246,0.524-0.39
	c1.175-0.902,2.945-2.276,3.51-1.557c0.141,0.176,0.126,0.272,0.12,0.309c-0.064,0.417-0.957,1.017-1.675,1.5
	c-1.128,0.757-2.296,1.545-2.387,2.658c-0.027,0.317,0.209,0.594,0.525,0.622c0.016,0,0.034,0,0.047,0
	c0.297,0,0.549-0.227,0.574-0.526c0.046-0.565,1.065-1.248,1.883-1.798c1.043-0.704,2.027-1.365,2.168-2.279
	C431.116,262.753,430.995,262.349,430.692,261.967z M420.45,264.058c-0.33-1.258-1.108-2.467-2.081-2.903
	c0.515-0.265,0.877-0.786,0.877-1.405c0-0.881-0.715-1.596-1.596-1.596s-1.596,0.715-1.596,1.596c0,0.619,0.362,1.14,0.877,1.405
	c-0.972,0.436-1.751,1.645-2.081,2.903h-3.284l5.736-8.47c0.12,0.029,0.235,0.074,0.364,0.074c0.129,0,0.244-0.045,0.364-0.074
	l5.736,8.47H420.45z"/>
<path style="fill:#FF4B55;" d="M406.342,285.922c0,0-0.347-1.198-0.039-2.282c0.309-1.083-0.486-2.077-0.657-3.017
	c-0.464-2.552,1.702-3.21,1.817-5.491c0,0,1.547,1.586,0.967,3.094s0.851,1.741,0.657,3.172s-1.78,2.939-1.625,4.215
	L406.342,285.922z"/>
<path style="fill:#FFE15A;" d="M430.692,283.499c-1.265-1.582-3.484,0.122-5.109,1.361c-0.226,0.174-0.417,0.306-0.619,0.451
	l-5.993-8.85c0.167-0.252,0.29-0.539,0.29-0.865c0-0.882-0.715-1.596-1.596-1.596s-1.596,0.715-1.596,1.596
	c0,0.326,0.121,0.612,0.29,0.865l-6.181,9.129H405.8c0,0-0.18,2.72,4.599,3.05c0.616,0.932,1.495,1.675,2.547,2.096
	c-0.494,0.08-0.894,0.462-0.894,0.978v0.639c0,0.04,0.039,0.064,0.044,0.104h11.134c0.005-0.039,0.042-0.064,0.042-0.104v-0.639
	c0-0.524-0.406-0.912-0.908-0.986c1.863-0.75,3.173-2.493,3.394-4.566c0.174-0.129,0.336-0.246,0.524-0.39
	c1.175-0.902,2.945-2.276,3.51-1.557c0.141,0.176,0.126,0.272,0.12,0.309c-0.064,0.417-0.957,1.017-1.675,1.5
	c-1.128,0.757-2.296,1.545-2.387,2.658c-0.027,0.317,0.209,0.594,0.525,0.622c0.016,0,0.034,0,0.047,0
	c0.297,0,0.549-0.227,0.574-0.526c0.046-0.565,1.065-1.248,1.883-1.797c1.043-0.704,2.027-1.365,2.168-2.279
	C431.116,284.285,430.995,283.88,430.692,283.499z M420.45,285.589c-0.33-1.258-1.108-2.467-2.081-2.903
	c0.515-0.265,0.877-0.786,0.877-1.405c0-0.881-0.715-1.596-1.596-1.596s-1.596,0.715-1.596,1.596c0,0.619,0.362,1.14,0.877,1.405
	c-0.972,0.436-1.751,1.645-2.081,2.903h-3.284l5.736-8.47c0.12,0.029,0.235,0.074,0.364,0.074c0.129,0,0.244-0.045,0.364-0.074
	l5.736,8.47H420.45z"/>
<path style="fill:#FF4B55;" d="M406.342,307.452c0,0-0.347-1.198-0.039-2.282c0.31-1.083-0.486-2.077-0.657-3.017
	c-0.464-2.552,1.702-3.21,1.817-5.492c0,0,1.547,1.586,0.967,3.094s0.851,1.741,0.657,3.172s-1.78,2.939-1.625,4.215
	L406.342,307.452z"/>
<path style="fill:#FFE15A;" d="M430.692,305.029c-1.265-1.582-3.484,0.122-5.109,1.361c-0.226,0.174-0.417,0.306-0.619,0.451
	l-5.993-8.85c0.167-0.252,0.29-0.539,0.29-0.865c0-0.881-0.715-1.596-1.596-1.596s-1.596,0.715-1.596,1.596
	c0,0.326,0.121,0.612,0.29,0.865l-6.181,9.129H405.8c0,0-0.18,2.72,4.599,3.05c0.616,0.932,1.495,1.675,2.547,2.096
	c-0.494,0.08-0.894,0.462-0.894,0.978v0.64c0,0.04,0.039,0.064,0.044,0.104h11.134c0.005-0.039,0.042-0.063,0.042-0.104v-0.64
	c0-0.524-0.406-0.912-0.908-0.986c1.863-0.75,3.173-2.493,3.394-4.566c0.174-0.129,0.336-0.246,0.524-0.39
	c1.175-0.902,2.945-2.276,3.51-1.557c0.141,0.176,0.126,0.272,0.12,0.309c-0.064,0.417-0.957,1.017-1.675,1.5
	c-1.128,0.757-2.296,1.545-2.387,2.658c-0.027,0.317,0.209,0.594,0.525,0.622c0.016,0,0.034,0,0.047,0
	c0.297,0,0.549-0.227,0.574-0.526c0.046-0.565,1.065-1.248,1.883-1.798c1.043-0.704,2.027-1.365,2.168-2.279
	C431.116,305.815,430.995,305.411,430.692,305.029z M420.45,307.12c-0.33-1.258-1.108-2.467-2.081-2.903
	c0.515-0.265,0.877-0.786,0.877-1.405c0-0.881-0.715-1.596-1.596-1.596s-1.596,0.715-1.596,1.596c0,0.619,0.362,1.14,0.877,1.405
	c-0.972,0.436-1.751,1.645-2.081,2.903h-3.284l5.736-8.47c0.12,0.029,0.235,0.074,0.364,0.074c0.129,0,0.244-0.045,0.364-0.074
	l5.736,8.47H420.45z"/>
<g>
	<path style="fill:#F5F5F5;" d="M443.284,178.219c0,0,0,80.147,0,112.934c0,25.5-61.932,51.002-61.932,51.002
		s-61.932-25.502-61.932-51.002c0-32.787,0-112.934,0-112.934h61.932L443.284,178.219 M446.927,174.576h-3.643h-61.932H319.42
		h-3.643v3.643v112.934c0,11.924,10.999,24.764,32.695,38.163c15.557,9.609,30.849,15.943,31.493,16.207l1.387,0.571l1.387-0.571
		c0.644-0.265,15.937-6.599,31.493-16.207c21.694-13.4,32.695-26.239,32.695-38.163V178.219V174.576L446.927,174.576z"/>
	<path style="fill:#F5F5F5;" d="M447.453,311.239l16.515,11.389c-19.182,24.604-49.07,40.474-82.615,40.474
		c-33.544,0-63.434-15.869-82.616-40.474l16.515-11.389c15.536,19.382,39.385,31.827,66.1,31.827
		C408.067,343.066,431.917,330.621,447.453,311.239 M446.73,306.315l-2.121,2.646c-15.517,19.36-38.573,30.463-63.258,30.463
		c-24.684,0-47.741-11.103-63.258-30.463l-2.121-2.646l-2.79,1.924l-16.515,11.389l-3.179,2.193l2.374,3.047
		c20.748,26.614,51.907,41.877,85.489,41.877c33.581,0,64.74-15.263,85.488-41.877l2.374-3.047l-3.179-2.193l-16.515-11.389
		L446.73,306.315L446.73,306.315z"/>
</g>
<path style="fill:#FFE15A;" d="M381.352,363.102c33.544,0,63.433-15.869,82.615-40.474l-16.515-11.389
	c-15.534,19.382-39.385,31.827-66.1,31.827s-50.565-12.445-66.101-31.827l-16.515,11.389
	C317.919,347.232,347.808,363.102,381.352,363.102z"/>
<g>
</g>
<g>
</g>
<g>
</g>
<g>
</g>
<g>
</g>
<g>
</g>
<g>
</g>
<g>
</g>
<g>
</g>
<g>
</g>
<g>
</g>
<g>
</g>
<g>
</g>
<g>
</g>
<g>
</g>
</svg>
